<?xml version="1.0" encoding="utf-8" ?>
<svg baseProfile="full" height="300mm" version="1.1" viewBox="0,0,200,300" width="200mm" xmlns="http://www.w3.org/2000/svg" xmlns:ev="http://www.w3.org/2001/xml-events" xmlns:xlink="http://www.w3.org/1999/xlink"><defs /><rect fill="#222222" height="300" width="200" x="0" y="0" /><text fill="#FFFFFF" style="font-size:12px; font-family:Arial; font-weight:bold;" x="10" y="20">Over 10km Runs</text><text fill="#FFFFFF" style="font-size:4px; font-family:Arial" x="10" y="280">ATHLETE</text><text fill="#FFFFFF" style="font-size:9px; font-family:Arial" x="10" y="290">TXyy2025</text><text fill="#FFFFFF" style="font-size:4px; font-family:Arial" x="65" y="280">SPECIAL TRACKS</text><rect fill="yellow" height="2.6" width="2.6" x="65" y="283" /><text fill="#FFFFFF" style="font-size:3px; font-family:Arial" x="70" y="285.5">Over 20.0 km</text><rect fill="red" height="2.6" width="2.6" x="65" y="287" /><text fill="#FFFFFF" style="font-size:3px; font-family:Arial" x="70" y="289.5">Over 40.0 km</text><text fill="#FFFFFF" style="font-size:4px; font-family:Arial" x="120" y="280">STATISTICS</text><text fill="#FFFFFF" style="font-size:3px; font-family:Arial" x="120" y="285">Number: 17</text><text fill="#FFFFFF" style="font-size:3px; font-family:Arial" x="120" y="290">Weekly: 2.8</text><text fill="#FFFFFF" style="font-size:3px; font-family:Arial" x="141" y="285">Total: 117.9 km</text><text fill="#FFFFFF" style="font-size:3px; font-family:Arial" x="141" y="290">Avg: 6.9 km</text><text fill="#FFFFFF" style="font-size:3px; font-family:Arial" x="167" y="285">Min: 1.5 km</text><text fill="#FFFFFF" style="font-size:3px; font-family:Arial" x="167" y="290">Max: 35.9 km</text><polyline fill="none" points="38.52175184339285,45.39945167233236 35.51087592262775,35.1428877026774 26.879698280245066,33.564949538442306 23.266647174023092,40.66566026059445 23.266647174023092,65.12344704743009 29.087673955596983,72.22403187991586 35.71160098351538,71.96104776125867 39.92682727333158,66.70135723531712 38.92320196609944,40.13968266022857 30.091299262829125,33.82793932990171 23.46737223584205,40.66566026059445 23.065922111272812,65.12344704743009 28.485498771071434,71.69806360465009 38.92320196609944,69.3312044411432 40.12755233515054,40.13968266022857 34.50725061446428,33.82793932990171 23.46737223584205,40.13968266022857 23.46737223584205,63.28255005902611 28.886948893778026,72.48701595957391 36.113051106221974,71.43507940787822 40.72972751967609,65.64941726555116 39.726102211512625,39.08772699290421 29.689849140122533,33.82793932990171 22.463746927678585,41.71761499589775 24.87244766484946,68.27926602517255 30.89419950917363,72.48701595957391 40.72972751967609,66.17538732779212 40.52900245785713,41.45462637045421 34.9087007381022,33.564949538442306 30.693474447354674,32.77597993193194 23.46737223584205,39.08772699290421 23.86882235854864,64.59747667354532 29.28839901741594,72.75 40.52900245785713,68.01628132443875 39.726102211512625,38.56174892548006 32.09854987822473,32.25 27.080423340201378,33.564949538442306 23.065922111272812,41.1916377057787 24.0695474203676,66.43837230128702 31.697099753655493,72.22403187991586 41.13117764238268,66.17538732779212 40.72972751967609,41.1916377057787 34.10580049175769,33.03896983957384 29.28839901741594,33.301959708100185 22.8651970513165,39.87669380160514 23.266647174023092,64.59747667354532 25.073172726668417,69.06821989524178 33.10217518452555,72.48701595957391 41.73335282690823,63.54553545976523 40.328277396038175,38.035770703689195 32.09854987822473,33.301959708100185 23.065922111272812,40.13968266022857 24.0695474203676,66.964342131163 27.883323586545885,71.69806360465009 34.9087007381022,72.48701595957391 41.331902703270316,65.38643217575736 41.13117764238268,41.1916377057787 35.31015085987747,32.51298998587299 27.481873464770615,34.87989810539875 24.470997542142868,39.87669380160514 23.266647174023092,63.54553545976523 30.492749385535717,72.22403187991586 40.52900245785713,67.22732698789332 40.72972751967609,38.56174892548006 35.10942579805851,32.77597993193194 29.689849140122533,33.03896983957384 23.668097296729684,41.1916377057787 23.86882235854864,66.964342131163 31.094924570061266,72.48701595957391 41.93407788686454,69.85717341618147 42.536253072321415,40.928649002918974" stroke="#4DD2FF" stroke-linecap="round" stroke-linejoin="round" stroke-width="0.5"><title>2025-04-09 4.1km</title><desc>1744204461000</desc></polyline><polyline fill="none" points="61.85576081648469,72.75 66.75636586174369,66.82323202758562 65.8139418149367,62.872041704831645 71.28000128827989,65.34153675113339 71.28000128827989,60.40254300925881 71.46848609764129,63.36594100552611 70.14909243118018,59.41474250948522 69.9606076227501,63.11899137345608 67.51030509918928,61.63729281304404 69.5836380040273,68.30492599087302 65.43697219528258,59.90864283242263 69.20666838437319,63.61289060104173 67.69878990855068,71.26830997737125 69.20666838437319,68.05797708861064 66.37939624302089,65.83543532283511 69.9606076227501,59.661692689638585 67.51030509918928,68.30492599087302 68.82969876565039,65.0945874103345 70.9030316695571,70.03356728772633 69.20666838437319,64.60068862035405 65.24848738592118,70.77441301045474 66.94485067017376,66.08238455373794 69.77212281245738,68.30492599087302 66.37939624302089,70.03356728772633 69.20666838437319,65.58848605491221 69.5836380040273,69.53966995736118 66.56788105145097,62.62509199907072 67.51030509918928,71.5152584053576 71.65697090793401,57.19218925095629 67.51030509918928,71.76220679713879 68.2642443375662,62.62509199907072 69.9606076227501,71.26830997737125 67.13333548046649,62.13119247893337 69.9606076227501,59.167792293126695 66.75636586174369,55.21658387372736 70.5260620508343,63.61289060104173 66.94485067017376,62.872041704831645 65.8139418149367,70.03356728772633 67.32182028982788,62.872041704831645 69.39515319373459,65.0945874103345 66.56788105145097,66.57628290622961 70.5260620508343,62.872041704831645 72.4109101453796,65.0945874103345 70.71454686112702,63.36594100552611 69.39515319373459,68.5518748566974 72.03394052572548,66.82323202758562 67.69878990855068,69.78661864087917 70.71454686112702,70.77441301045474 67.13333548046649,65.58848605491221 70.5260620508343,65.83543532283511 69.01818357594311,70.52746447268873 69.39515319373459,59.661692689638585 76.55757595319301,62.37814225710463 67.32182028982788,67.3171301613329 68.82969876565039,69.53966995736118 68.45272914599627,64.60068862035405 69.5836380040273,71.5152584053576 66.75636586174369,65.83543532283511 73.35333419311792,67.56407917384058 70.33757724054158,71.26830997737125 70.71454686112702,62.13119247893337 67.69878990855068,64.8476380337961 70.9030316695571,64.8476380337961 69.01818357594311,68.79882368631661 66.75636586174369,57.68609023047611 70.33757724054158,59.167792293126695 68.0757595282048,67.81102814897895 66.1909114336595,64.60068862035405 72.03394052572548,64.10678968357388 69.5836380040273,60.649493042728864 77.12303038220853,62.62509199907072 80.70424176100641,40.15251608379185 93.14423918351531,39.41165678820107 92.57878475636244,32.25" stroke="#4DD2FF" stroke-linecap="round" stroke-linejoin="round" stroke-width="0.5"><title>2025-04-07 1.9km</title><desc>1744030807000</desc></polyline><polyline fill="none" points="123.1675824187696,51.62538905022666 102.25,45.211256061680615 120.05219780094922,44.04504894488491 111.15109890140593,44.62815254647285 122.27747252583504,34.13227453012951 113.82142857089639,34.71537959598936 117.38186813145876,57.45640999195166 120.94230769015849,43.46194525598548 116.04670329578221,53.957798461196944 116.49175824224949,35.29848457593471 116.04670329578221,65.03672433970496 119.60714285634458,53.957798461196944 124.94780219718814,59.20571459643543 119.16208791173995,60.955018423264846 113.82142857089639,38.21400818647817 118.71703296713531,65.03672433970496 111.59615384601057,45.794359490508214 119.16208791173995,48.70987534802407 119.16208791173995,38.797112649306655 124.94780219718814,58.62261314713396 120.94230769015849,54.5409005980473 118.71703296713531,63.87052308116108 113.82142857089639,46.96056609181687 116.49175824224949,52.79159392765723 124.5027472525835,47.54366926313378 117.38186813145876,70.86772546987049 125.83791208639741,56.29020649427548 116.93681318685412,63.28742232080549 113.82142857089639,53.957798461196944 118.27197802066803,60.955018423264846 128.95329670235515,50.45918382704258 120.4972527474165,54.5409005980473 124.94780219718814,62.70432147523388 120.4972527474165,58.03951161238365 120.94230769015849,34.71537959598936 115.15659340657294,55.70710461423732 121.38736263662577,47.54366926313378 115.15659340657294,36.464694279944524 118.27197802066803,51.62538905022666 122.72252747230232,46.37746283481829 114.26648351363838,64.45362375327386 112.04120878875256,46.37746283481829 117.38186813145876,60.955018423264846 118.27197802066803,48.70987534802407 110.26098901033401,53.957798461196944 107.14560439437628,38.21400818647817 120.94230769015849,66.20292525505647 116.93681318685412,56.873308286303654 126.72802197933197,40.546425523702055 120.94230769015849,63.87052308116108 115.15659340657294,53.374696236802265 119.60714285634458,38.797112649306655 113.3763736244291,61.53811952774413 108.03571428358555,51.62538905022666 120.94230769015849,46.37746283481829 123.1675824187696,54.5409005980473 116.49175824224949,48.12677234923467 115.15659340657294,53.957798461196944 127.1730769239366,46.37746283481829 116.93681318685412,58.62261314713396 120.94230769015849,70.28462574351579 114.26648351363838,45.211256061680615 121.38736263662577,51.04228648217395 125.83791208639741,44.04504894488491 112.04120878875256,42.2957376211416 116.49175824224949,57.45640999195166 120.4972527474165,36.464694279944524 114.71153846010566,51.62538905022666 112.04120878875256,40.546425523702055 108.48076923005283,67.3691258255858 114.26648351363838,41.12952964240685 123.61263736151159,49.876081086928025 114.71153846010566,48.12677234923467 114.26648351363838,35.29848457593471 113.82142857089639,69.70152593264356 115.15659340657294,52.79159392765723 124.5027472525835,50.45918382704258 116.04670329578221,35.88158947066404 125.83791208639741,55.70710461423732 118.27197802066803,37.047799001215026 112.93131867982447,45.794359490508214 122.27747252583504,41.71263367426582 113.82142857089639,53.374696236802265 119.16208791173995,69.11842603422701 107.14560439437628,38.21400818647817 113.3763736244291,58.62261314713396 123.1675824187696,61.53811952774413 120.4972527474165,46.37746283481829 142.75,42.2957376211416" stroke="#4DD2FF" stroke-linecap="round" stroke-linejoin="round" stroke-width="0.5"><title>2025-04-06 2.6km</title><desc>1743945103000</desc></polyline><polyline fill="none" points="151.01384468493052,58.906682911159805 152.89254455761693,58.21427625929573 153.2760184595827,58.201610127698586 153.97529439847858,58.328271191005115 154.19119987270096,58.26071869376574 156.42759388925333,58.6871411550037 159.0281269891857,59.99592283590209 161.17106938255893,60.32521975679083 161.29352323361672,60.468758252858606 161.48042647996044,60.55741402264903 162.4890595162433,60.722059722616905 162.75007956715126,60.536305530980826 164.95102641629637,60.85715292187888 166.41725015913835,60.734724737174474 167.6933481858723,60.86559622561799 168.7760980267485,61.05556990059449 168.87921705920598,60.99224548258462 169.36580999364378,60.202789293411115 169.86207033737446,58.77158049157515 170.5871260343847,57.57674066536856 172.05979471674073,54.122823757788865 172.99753341820906,52.2774671936877 173.49057129217545,50.91343137789772 174.23173933802173,49.942096820996085 175.40794080204796,51.01478612429855 176.64536919161037,52.94468080704428 176.63892425208178,53.11781597046138 176.11043921069358,54.317064883687635 176.23933800127998,55.12357369480196 176.35856938255893,55.42759205037328 177.2930856142484,55.99339537763626 177.48965626989957,56.04828614901635 178.40483768300328,55.94694925797194 179.08477880331338,56.022951959941565 179.15889560790674,56.15384502834968 179.10411362189916,56.97296867804471 179.21690006366407,57.21785675616957 179.36835614258598,57.36985519735936 179.65515595163743,57.51340853833062 180.2352005092398,58.12139116390426 180.30609484406887,58.10872499113975 180.37698917888338,57.994729183632444 180.35443189051875,57.669627531142396 180.6347867600416,57.184079215001475 180.82491247613507,56.45785242207057 180.92803150859254,56.33540538861598 181.09559993635048,56.29740447844415 181.34373010821582,56.38185087686543 181.8013208147895,56.2889598248712 182.4554821769707,56.44518551191322 182.62305060471408,56.668966764746074 182.9710773392726,56.67318903569867 183.02908179504448,56.812523626847906 182.84540101846505,57.07007971876192 182.84217854870076,57.171412626757956 183.10319859962328,57.48385349767341 183.83792170592642,57.70340449838113 184.03449236157758,57.88495501325815 184.34707192871429,58.02006162459293 185.12046467218897,58.51403973499873 185.69084182049846,58.59847958306091 186.09687301082886,59.00378738071231 186.11943029917893,59.19799532997422 185.9325270528352,59.413311296182655 185.82296308084915,59.72150583671646 185.54260821134085,60.13524122703711 185.53616327181226,60.73894640745675 185.59416772756958,60.75583308229761 185.74884627627034,60.405432534644206 186.24510662000102,59.85660376560736 186.40300763845153,59.409089430077074 186.5093491406733,59.371092607134415 186.68336250795983,59.56107621666888 186.64791534055257,59.05445045124361 187.21507001909777,58.43804365842698 187.37297103756282,58.18894399049168 187.57598663272802,56.977190904070085 187.53409452579217,56.61829946475882 187.57276416294917,56.07784267453462 187.74355506048596,55.85827918347786 187.75,55.18268862840705 187.6662157861283,54.9546732105955 187.51798217695614,54.78577172792575 186.20965945257922,54.0848199047723 185.70050922979135,53.74700565623789 185.55872056016233,53.523201516896734 185.60705760661222,53.13892994299931 185.34603755570424,52.79265882283653 185.33637014641135,52.32814219214015 184.7305458306946,51.88473290782531 184.64031667727977,51.758043276777244 184.7724379376159,51.399086270990665 184.75310311903013,51.25972527680278 184.67254137492273,51.20904838307979 184.37607415659295,51.32307126753767 183.88948122215515,51.33574044882516 183.51889719924657,50.80785313467095 182.83573360917217,50.19971485658971 182.05267345639004,49.139665099697595 181.26961330363702,48.43857472327909 181.0698201782361,47.881068888116715 180.00318268619594,47.32355217072836 179.84528166771634,46.829380527631656 179.68415817950154,46.58862714245515 179.24912476130703,46.16624787895307 178.61107574793277,45.78187732037986 177.94724697644415,45.101824428384134 177.6701145767147,44.0246888840029 177.46709898153495,43.969775003124596 176.84193984723242,43.94443009940733 176.7710455124179,43.995119884342785 176.7098185868963,44.51890906014705 176.60992202420312,46.06487592619851 176.47780076385243,46.49148046499431 175.87519891789998,47.51783953493032 174.50564926798688,49.53666045292448 173.4873488224257,50.816299408485065 172.94597390199488,51.25972527680278 172.70751113942242,51.538446585338534 171.76332749841094,53.189603413424265 169.99741406748944,57.44163195798865 169.9136298536032,57.762514094974904 169.86207033737446,58.63647743330148 169.43025938891515,59.987479275214355 168.8244350731984,61.026018522969025 167.85447167410166,60.85715292187888 166.45591979632445,60.73050306628829 164.90268936983193,60.840266306890044 162.71463239975856,60.536305530980826 162.51161680459336,60.709394702460486 162.4084977721359,60.722059722616905 161.47075907066755,60.536305530980826 161.17751432210207,60.32099802542325 159.00556970082107,59.970592146361014 156.39536919161037,58.64914337214395 154.2105346912722,58.2522746203922 153.9495146403642,58.311383081663735 153.14389719924657,58.16783374933584 152.82487269255216,58.20583217218882 150.99128739658045,58.894017086458916 149.9375397835829,59.07978195281794 149.55406588160258,59.20643912390733 149.36716263527342,59.15155441868956 148.72266868238512,59.26132372372376 148.3456397199334,59.50197034015582 147.62058402292314,59.67506577616223 147.298337046479,59.43019875432765 147.31122692552162,59.38798009023776 147.25,59.48086106892151 147.2886696371861,59.409089430077074" stroke="yellow" stroke-linecap="round" stroke-linejoin="round" stroke-width="0.5"><title>2025-04-06 31.5km</title><desc>1743926920000</desc></polyline><polyline fill="none" points="13.257757611223496,107.1622466907993 13.527480971883051,107.41077213285644 14.212163348929607,107.2437943604782 14.470030737691559,107.05739931518292 15.110253220133018,106.94090174067242 15.347372658070526,106.98361757793282 16.559645784524037,106.72732151305172 18.302473653384368,106.08657041728111 18.509953161570593,106.05550330046572 19.298375292724813,106.16812142423441 19.538458723633084,106.11763749738566 21.583613875875017,106.5098562255007 23.934060304425657,107.69036044654786 25.919935597179574,107.99712753599852 26.077027224819176,108.16021744245336 26.2281908665027,108.22622973596845 27.149992681486765,108.3660199279966 27.416752049175557,108.20293129836682 29.41151932082721,108.49027725239466 30.74828015221283,108.37766907709738 32.983130854787305,108.64559808195372 33.522577576106414,107.78743902661154 33.98792447306914,106.49043959448136 34.6400029273791,105.40308536463817 36.03307962529652,102.156288610091 36.85114168617292,100.55216082782499 37.27795667445753,99.33249208970665 38.30942622949078,97.9806911625019 39.52466334892961,96.17429687307049 40.064110070234165,95.23414575497918 40.147101873517386,94.99327517804704 40.32494145198143,93.03903384574551 40.402005269308574,92.9574420795634 40.95923594845226,92.98463936312146 41.11929156907718,93.04680447692226 41.40976288054662,94.08027793945257 41.925497658070526,94.61642484454569 42.57461211942427,95.00104523111986 42.99549912176735,95.42450964844284 43.108130854787305,95.58379266253542 43.26522248242691,96.084945114535 44.25223214284051,96.57831842211817 44.391539812626434,97.06391302360316 45.13253805619024,97.72430727814753 45.832040398119716,98.67990722208924 46.48115485947346,99.25091986763437 46.83683401637245,99.74423372632191 46.92871779858251,99.7869612624927 47.33774882902799,99.7325807498546 47.518552400462795,99.65489410799637 47.62525614752667,99.68985312525729 47.63414812643896,99.82580441688879 47.52744437937508,100.16373743734948 48.18545081965567,100.69976021074035 48.1587748828897,101.04545025751577 48.425534250578494,101.44939690980209 48.36625439109048,101.77177295586262 48.4492461943737,101.92713349354926 48.91162909835111,102.25727158645714 50.21874999998545,102.98744463775438 50.36398565572745,103.3331045920786 50.33434572597616,103.78362085428125 50.390661592493416,103.9312020884463 50.838224531602464,104.05159669199202 50.96271223652002,104.13315401329601 50.977532201388385,104.30403519917309 50.70780884074338,104.81278851546813 50.71670081965567,104.97589818090273 50.89750439109048,105.03415138752825 51.35395930912637,104.70016458425744 51.51105093675142,104.74288406324922 51.537726873517386,106.03996972828463 51.608862704903004,106.26520562640144 51.792630269308574,106.40500624757806 52.60180035128724,106.56033939903864 52.75,106.69625515355983 52.738144028087845,109.1270868216834 52.607728337228764,109.10767212376413 52.23722921543231,108.83586484750595 51.65035860655189,108.66501312110813 51.37470725995081,108.72714115009876 49.30880415689899,109.52702640872121 47.6993559718976,109.5425579204366 47.67268003511708,109.49596335775823 47.92758343089372,108.94070512985854 48.372182377032004,108.47862815317603 48.36921838406124,107.83791974656015 48.73675351287238,107.17001314642948 48.92348507024872,106.94866826170437 48.92348507024872,106.82440364983086 48.86124121778994,106.73897138839311 48.53520199061313,106.4166562657756 48.247694672129,106.32345597559652 47.957223360645,106.32345597559652 47.189549180315225,105.82638217987369 46.96132172130456,105.7370632358743 46.74495023417694,105.5545409716542 46.08397980092559,105.37201743992591 45.87946428571013,105.06133617311025 46.051375878218096,104.80502136328141 46.01580796252529,104.63802703632246 45.683840749406954,104.63025983250736 45.517857142855064,104.42831172742808 45.046582259921706,104.31956979735514 44.83910275173548,104.30015154819921 44.4626756440266,104.38947537548302 44.225556206089095,104.31180249941826 44.03586065572745,104.41277719353457 43.86098507024872,105.08852093056521 43.57347775175003,105.58560868060522 43.600153688516,105.88075008414853 43.5438378220133,105.9700685398675 43.454918032774,105.97395194410637 42.99549912176735,105.46910458268758 42.62796399297076,105.24774537389021 42.530152224819176,105.11182212885797 42.45012441450672,104.92929552263377 42.49458430912637,104.1681070735358 42.42641247072606,104.04382931485634 41.878073770480114,103.9739228173512 40.84660421544686,104.06324775339635 39.93073038640432,103.50010721076615 39.826990632296656,103.29038282148395 39.71732289226202,102.41262925390402 40.17970579623943,101.39113575662486 40.18859777515172,101.21246741477262 39.05635245901067,99.44125465852085 38.03081088991894,98.48179789443566 37.716627634639735,98.27203344874215 37.909287177972146,98.36137776925716 37.85889929741097,98.50510495169692 37.28684865338437,99.26257305772924 36.58141832551337,99.8957219501226 35.51438085480186,101.80672915692594 34.04424033957184,105.3875514068659 33.90493266977137,106.59528923161088 33.5077576112235,107.79132216234939 32.93274297422613,108.68831114918976 32.28066451988707,108.53687359761898 30.917227751750033,108.40096735983752 29.426339285695576,108.49416028431551 27.39304010538035,108.19904822340868 27.138136709589162,108.37766907709738 26.222262880546623,108.21458051974696 25.919935597179574,107.98936132473136 23.97259221310378,107.69424359664117 21.553973946138285,106.47878960898561 19.657018442623666,106.12540426167652 19.46732289226202,106.10598734665473 19.31319525759318,106.1564712958716 18.539593091321876,106.02831954312569 18.255049765793956,106.06715347357567 16.61003366508521,106.68460525927549 15.691195843086462,106.84382003416431 15.282164812640985,106.97973432287108 15.074685304440209,106.92536869172727 14.520418618267286,107.02633334580241 14.143991510529304,107.2554440069307 13.465237119424273,107.39523936155456 13.260721604208811,107.1622466907993 13.293325526930857,106.41277292695668 12.685706967211445,106.19142166545498 12.309279859473463,105.69046192720634 12.25,105.51182281188267 12.496011416849797,105.49628891839347 12.552327283367049,105.43026976861802 12.493047423893586,105.38366791599583" stroke="yellow" stroke-linecap="round" stroke-linejoin="round" stroke-width="0.5"><title>2025-04-05 35.9km</title><desc>1743843004000</desc></polyline><polyline fill="none" points="85.227933133021,98.35718388669193 82.46795701608062,104.86611197935417 76.39600955322385,90.4018155792728 74.74002388119698,112.09824415063486 81.36396656930447,96.91075424849987 84.12394268810749,109.92860562168062 75.29201910458505,111.37503141490743 80.25997612066567,90.4018155792728 71.42805253900588,90.4018155792728 88.53990447707474,117.16073031257838 74.74002388119698,99.08039854746312 83.57194746285677,105.58932567713782 74.74002388119698,110.65181857068092 81.9159617908299,92.57146276440471 83.0199522394687,101.9732561185956 70.87605731375515,103.41968426201493 79.7079808972776,107.75896612880751 77.5,120.77678865380585 81.9159617908299,103.41968426201493 82.46795701608062,113.54466930124909 72.53204298391938,98.35718388669193 83.0199522394687,111.37503141490743 75.29201910458505,105.58932567713782 75.29201910458505,112.09824415063486 73.08403821103275,101.2500418862328 86.3319235816598,101.2500418862328 75.29201910458505,81.0 82.46795701608062,114.26788171753287 80.25997612066567,93.29467827780172 81.36396656930447,111.37503141490743 65.90810029767454,101.9732561185956 79.15598567202687,109.20539256371558 76.39600955322385,99.08039854746312 83.0199522394687,109.20539256371558 84.12394268810749,95.46432418050244 79.15598567202687,112.82145677879453 73.08403821103275,106.31253926828504 77.5,119.33036563638598 69.772066866979,114.99109402764589 76.94800477661192,99.80361309973523 80.25997612066567,114.26788171753287 76.94800477661192,100.52682754583657 88.53990447707474,106.31253926828504 81.9159617908299,95.46432418050244 75.84401432797313,109.92860562168062 71.98004776239395,98.35718388669193 79.7079808972776,106.31253926828504 88.53990447707474,90.4018155792728 78.05199522338808,99.80361309973523 79.15598567202687,121.5 78.05199522338808,97.63396912114695 89.09189970232546,110.65181857068092 82.46795701608062,96.1875392687507 80.25997612066567,113.54466930124909 70.87605731375515,99.08039854746312 80.81197134405375,88.23216743208468 81.36396656930447,115.7143062306568 74.74002388119698,105.58932567713782 79.15598567202687,94.74110898654908 77.5,112.09824415063486 86.3319235816598,103.41968426201493 77.5,115.7143062306568 74.74002388119698,98.35718388669193 88.53990447707474,113.54466930124909 75.29201910458505,104.86611197935417 77.5,120.0535771981813 81.36396656930447,104.1428981735371 72.53204298391938,104.1428981735371 74.18802865594625,112.82145677879453 81.9159617908299,101.9732561185956 71.98004776239395,99.80361309973523 78.60399044677615,115.7143062306568 76.39600955322385,101.9732561185956 81.9159617908299,107.75896612880751 74.18802865594625,117.16073031257838 73.08403821103275,95.46432418050244 81.36396656930447,109.20539256371558" stroke="#4DD2FF" stroke-linecap="round" stroke-linejoin="round" stroke-width="0.5"><title>2025-04-04 1.7km</title><desc>1743771861000</desc></polyline><polyline fill="none" points="129.99373286031187,81.0 121.00125342886895,83.45457356038969 116.1303270701319,90.32736023480538 117.44173032045364,116.83641393459402 123.06202996522188,120.76364517596085 127.18358303699642,119.53638641000725 130.3684195028618,113.64553171617445 129.6190462158993,88.85462262632791 121.00125342886895,84.92731595598161 114.25689385551959,94.0091985425679 116.50501371361315,116.3455093774246 118.56579024903476,119.78183823626023 126.43420975189656,120.02729002514388 130.93044946715236,114.13643707183655 128.12029964476824,90.08190405741334 121.93797003570944,84.68185898032971 114.81892381981015,91.30918458127417 116.1303270701319,117.08186615933664 126.80889639444649,119.78183823626023 131.67982275225222,113.15462621522602 128.49498628731817,88.11825333279558 121.93797003570944,84.68185898032971 116.1303270701319,87.62734028964769 115.1936104632914,114.3818896949524 121.18859674967825,120.76364517596085 131.11779278796166,115.85460467438679 130.3684195028618,91.30918458127417 122.12531335651875,84.92731595598161 113.32017724774778,92.045552460826 114.25689385551959,111.68190884240903 119.87719349935651,120.51819349557627 127.7456130022183,119.29093454848044 131.67982275225222,112.90917341038585 130.18107618018985,91.80009653733578 121.18859674967825,84.68185898032971 113.69486389029771,92.29100834822748 116.1303270701319,118.06367469509132 126.9962397152558,119.29093454848044 131.67982275225222,111.68190884240903 127.93295632302761,89.34553530800622 118.9404768915847,85.90914349351078 113.69486389029771,92.5364641995402 115.75564042665064,116.83641393459402 124.18608989473432,120.76364517596085 130.3684195028618,116.83641393459402 131.67982275225222,111.68190884240903 128.8696729298681,88.36370980076026 118.9404768915847,85.17277289449703 114.25689385551959,93.27283153450117 115.38095378410071,115.11824734753463 120.81391010712832,120.76364517596085 131.11779278796166,115.11824734753463 130.3684195028618,90.32736023480538 121.00125342886895,84.92731595598161 113.69486389029771,91.06372854928486 115.38095378410071,117.08186615933664 118.9404768915847,120.51819349557627 127.37092635873705,119.78183823626023 131.3051361097023,112.66372056945693 130.3684195028618,90.57281637610868 124.74811985809356,84.68185898032971 116.50501371361315,86.40005704516079 113.69486389029771,90.57281637610868 116.31767039187253,118.80003071564715 124.74811985809356,121.5 131.49247943144292,115.3636998264119 130.93044946715236,96.954663314973" stroke="#4DD2FF" stroke-linecap="round" stroke-linejoin="round" stroke-width="0.5"><title>2025-04-02 4.0km</title><desc>1743590878000</desc></polyline><polyline fill="none" points="161.49486293643713,90.0287437911611 158.14773735962808,90.0287437911611 157.75395787879825,109.37589469808154 163.06998085416853,119.69428752467502 175.27714472077787,114.53509873361327 174.4895857628435,98.79947876674123 177.4429318588227,97.5096675629029 172.52068836428225,84.09557455906179 158.7384065790102,86.1592878830852 158.7384065790102,110.40773672470823 163.06998085416853,118.6624509858666 173.70202680304646,115.30897802393883 174.29269602242857,91.31856052030344 169.1735627874732,82.28982339974027 158.14773735962808,87.9650350403972 157.75395787879825,109.8918157875305 162.67620137427002,118.40449175657704 169.1735627874732,119.69428752467502 175.0802549822256,114.27713889430743 174.88336524181068,89.51281683216803 165.62954747118056,82.0318587962538 159.13218605797738,86.6752158330055 158.54151683859527,111.181617844617 166.02332695107907,119.1783693319885 170.551790965721,118.6624509858666 175.86781394015998,111.43957814190071 174.88336524181068,88.22299876785837 167.7953346092254,82.0318587962538 158.7384065790102,85.3853956728708 159.13218605797738,113.50325914600398 167.5984448697418,119.95224656385835 174.68647550139576,112.72937905532308 175.67092420067638,87.19114363042172 166.8108859108761,81.51592947437894 158.7384065790102,89.51281683216803 159.72285527735949,112.98733912338503 167.7953346092254,119.95224656385835 174.29269602242857,116.5987760797143 176.655372899957,109.8918157875305 174.29269602242857,86.4172518774867 167.40155512932688,81.51592947437894 159.32907579746097,86.93317975127138 159.52596553694457,112.47141894919332 165.62954747118056,119.43632844742388 174.4895857628435,115.5669377114391 175.86781394015998,88.22299876785837 167.2046653907746,81.77389415481593 157.55706814024597,87.9650350403972 158.93529631849378,115.05101829895284 166.8108859108761,120.98408234107774 175.27714472077787,115.05101829895284 174.68647550139576,86.6752158330055 166.8108859108761,82.0318587962538 158.14773735962808,87.7070712755667 160.116634757258,116.5987760797143 166.41710643097758,120.7261234538164 172.71757810469717,120.21020556543954 175.4740344611928,115.30897802393883 175.0802549822256,88.22299876785837 166.6139961713925,81.0 158.54151683859527,87.9650350403972 161.49486293643713,116.3408165446017 164.25131929293275,119.95224656385835 174.29269602242857,121.5 176.655372899957,90.0287437911611" stroke="#4DD2FF" stroke-linecap="round" stroke-linejoin="round" stroke-width="0.5"><title>2025-03-30 4.0km</title><desc>1743343343000</desc></polyline><polyline fill="none" points="41.56361322756857,135.25005688192323 39.46467121690512,137.5000749990577 34.694348465651274,133.25003826594912 36.98410338629037,135.25005688192323 37.17491629626602,132.25002807192504 31.068903173319995,129.75 24.581264231353998,132.75003324309364 22.100696400739253,157.00010668905452 25.153702962212265,166.5000407216139 33.93109682481736,170.25 41.56361322756857,165.00005468295421 43.09011650830507,158.50009981833864 43.28092941828072,152.25011967262253 38.12898084707558,133.5000407223124 28.77914825361222,131.25001728639472 21.71907058171928,140.7500958867604 26.107767512090504,166.25004314025864 34.885161376558244,169.2500116713345 41.94523904751986,162.50007499800995 40.41873576678336,135.00005468411837 30.87809026427567,131.00001449813135 23.436386772431433,138.5000820911955 25.916954602114856,165.50005017674994 35.64841301552951,168.5000200367067 41.37280031852424,162.50007499800995 40.41873576678336,134.00004552444443 29.160774073563516,131.75002275314182 23.81801259238273,138.5000820911955 24.77207714226097,161.7500803717412 30.305651534348726,168.25002275209408 36.79329047631472,168.25002275209408 42.32686486840248,162.50007499800995 40.60954867769033,135.50005904317368 28.77914825361222,132.25002807192504 22.291509311646223,139.50008859182708 25.153702962212265,163.00007123069372 34.31272264569998,168.5000200367067 42.13605195749551,161.50008208944928 41.37280031852424,138.00007861910854 33.16784518584609,132.50003067567013 28.588335343636572,132.75003324309364 24.199638411402702,138.75008377211634 26.298580422066152,165.25005244847853 36.79329047631472,169.00001449743286 41.56361322756857,162.2500768265454 39.46467121690512,134.75005244964268 32.78621936403215,130.750011672033 24.581264231353998,136.75006929284427 25.72614169307053,162.50007499800995 31.259716084226966,169.00001449743286 36.98410338629037,168.25002275209408 41.37280031852424,162.7500731322216 40.99117449764162,137.25007313408423 32.78621936403215,131.50002003787085 24.581264231353998,137.75007682770956 24.581264231353998,161.25008376967162 29.351586983539164,167.7500280707609 35.07597428560257,169.00001449743286 41.18198740761727,163.75006530201063 40.22792285773903,138.25008037337102 32.21378063503653,131.75002275314182 23.81801259238273,138.5000820911955 24.77207714226097,164.25006116519216 32.21378063503653,169.50000880868174 41.18198740761727,162.50007499800995 39.846297037787735,135.00005468411837 31.83215481415391,131.00001449813135 23.054760951548815,140.50009450188372 24.77207714226097,163.75006530201063 34.694348465651274,169.2500116713345 41.37280031852424,160.0000916189747 40.03710994683206,136.00006325403228 31.450528994202614,131.75002275314182 24.008825501427054,139.75009012431838 25.344515872187912,164.25006116519216 31.068903173319995,169.50000880868174 40.41873576678336,165.25005244847853" stroke="#4DD2FF" stroke-linecap="round" stroke-linejoin="round" stroke-width="0.5"><title>2025-03-30 4.5km</title><desc>1743327729000</desc></polyline><polyline fill="none" points="84.07868020283058,131.3471821990679 84.18147208122537,132.69398362527136 77.39720812160522,136.33033753582276 74.1078680199571,136.46501703147078 76.7804568526335,145.0844633774832 69.1738578681834,145.62317606748547 69.58502538083121,149.9328661293839 63.72588832490146,147.3739901126246 58.99746192898601,148.85544552403735 57.25,153.97318205650663 58.27791878161952,166.63272266462445 62.49238578695804,169.32621926011052 67.32360406126827,166.63272266462445 69.48223350243643,146.02721037669107 74.41624365514144,145.48849792487454 78.6307106600143,146.43124450644245 87.8819796955213,156.8013925504638 89.83502538083121,157.07074547279626 91.89086294453591,152.76108915853547 97.75,157.74412743159337 96.10532994940877,164.88194560992997 95.79695431422442,156.39736301684752 90.45177665026858,153.4344743010588 88.80710659874603,156.8013925504638 86.44289340125397,155.05059661273845 74.51903553307056,136.73437596356962 83.77030456857756,133.63674343941966 82.22842639591545,130.67378073988948" stroke="#4DD2FF" stroke-linecap="round" stroke-linejoin="round" stroke-width="0.5"><title>2025-03-29 1.5km</title><desc>1743247652000</desc></polyline><polyline fill="none" points="112.34315939596854,159.42428332442068 113.02943240967579,160.14361497906793 112.64511952199973,159.5321832082118 112.23335571377538,159.96378226473462 112.48041399870999,160.97084375414124 114.01766554953065,163.3086490071728 115.85687722649891,164.92711641496862 116.5156993198907,163.45251321246906 116.13138643209822,162.73319133558834 116.70785576361232,163.3086490071728 116.35099379648454,165.43063741397054 117.99804902961478,166.65346978972957 123.84509510698263,167.58857275603805 128.04508595133666,170.25 132.8489970478695,169.24297689709056 133.80977926717605,167.73243443196407 133.20585901499726,146.0083584428212 132.43723323952872,144.4617029443616 130.70782524487004,143.16682101522747 128.45684975967743,141.83596296531323 125.93136506900191,142.5193774674408 124.31176075641997,140.32525041431654 122.03333435056265,132.9513998114271 122.99411656998564,132.55572346378176 123.62548774247989,134.31827679059643 125.38234665780328,134.60603938695567 126.01371783053037,133.4549869599723 125.27254297561012,129.96582603013667 123.73529142467305,129.75 122.63725460262503,130.46941935615905 120.96274844917934,130.57733207616548 119.15098769275937,131.6924273813056 114.429429357755,132.2679584431171 111.54708269995172,133.4909574307676 112.28825755475555,137.3037971824233 111.24512257392053,140.07346407760633 111.19022073282395,147.55500411348476 111.51963177940343,155.0363141990092 112.37061031651683,158.56108253303682" stroke="#4DD2FF" stroke-linecap="round" stroke-linejoin="round" stroke-width="0.5"><title>2025-03-25 3.9km</title><desc>1742910133000</desc></polyline><polyline fill="none" points="173.93991573434323,129.75 160.41609269287437,141.35167991521303 159.6111032264307,146.20326355937868 163.7970484541729,168.35158816410694 169.2709768274799,169.19532706937753 174.58390730712563,165.18756282748654 172.81293048057705,144.0938813923858 169.75397050753236,139.66416869556997 162.831061094068,140.08604668744374 160.41609269287437,148.94545571890194 162.5090653076768,167.50784875964746 169.43197472020984,169.4062617176678 174.10091362707317,165.39849806868006 173.45692205429077,142.82825059560128 165.89002106711268,138.1875947425142 161.06008426751941,141.98449610779062 160.57709058746696,164.97662755625788 167.66099789366126,169.19532706937753 173.77891784068197,165.8203684556065 173.93991573434323,146.4142016057158 172.3299368005246,140.92980229726527 167.82199578732252,138.39853397244588 163.95804634690285,138.39853397244588 159.77210112009197,143.88294300390407 160.7380884801969,164.97662755625788 166.37301474716514,169.61719633475877 173.93991573434323,165.8203684556065 173.13492626789957,143.0391891397303 166.8560084272176,138.1875947425142 159.6111032264307,145.35951106681023 160.09409690648317,164.97662755625788 168.14399157371372,169.19532706937753 174.26191152073443,163.50007978163194 173.93991573434323,143.46106613404118 168.30498946737498,137.765716189635 160.7380884801969,141.98449610779062 159.77210112009197,163.50007978163194 164.28004213329405,169.4062617176678 167.82199578732252,169.61719633475877 174.26191152073443,163.07820870832074 173.13492626789957,141.35167991521303 165.89002106711268,137.97665548196528 160.09409690648317,145.78138737555128 160.89908637292683,165.8203684556065 164.60203792061657,169.19532706937753 169.43197472020984,168.77345767896622 174.7449052007869,162.65633751032874 172.81293048057705,141.35167991521303 164.92403370700777,138.82041233778 160.09409690648317,146.20326355937868 162.026071626693,167.2969138310291 168.14399157371372,169.8281309211161 174.26191152073443,166.03130360285286 174.26191152073443,146.62513961968943 173.6179199470207,142.19543477683328 168.14399157371372,137.765716189635 160.7380884801969,140.71886344184168 160.41609269287437,165.39849806868006 167.01700631994754,169.19532706937753 171.52494733408093,168.35158816410694 174.90590309444815,163.92195072968025 173.6179199470207,142.82825059560128 168.62698525376618,137.97665548196528 162.026071626693,139.66416869556997 159.77210112009197,143.46106613404118 160.2550947992131,163.50007978163194 167.66099789366126,170.25 174.7449052007869,167.50784875964746 175.3888967735693,145.57044923701324" stroke="#4DD2FF" stroke-linecap="round" stroke-linejoin="round" stroke-width="0.5"><title>2025-03-24 4.1km</title><desc>1742817301000</desc></polyline><polyline fill="none" points="32.60036261938512,181.3928877018625 29.188033550046384,179.02597993204836 24.16990256588906,183.75979232555255 24.772078284062445,209.79553545964882 31.99818690121174,218.4740318787517 41.432273152284324,211.89941726531833 41.03082267381251,185.3377269919729 35.61124121025205,179.288969839341 23.96917732618749,182.97082446725108 24.772078284062445,210.58449142775498 30.79383546486497,217.94806360348593 35.20979073178023,218.21104776102584 41.432273152284324,212.42538732732646 40.428646955639124,185.07473797851708 32.19891214091331,178.76298998505808 23.768452087417245,186.3896826597629 24.16990256588906,209.00657914124895 31.396011183038354,219.0 41.03082267381251,213.74031180434395 41.63299839198589,185.8637049034005 30.593110226094723,178.5 25.17352876253426,183.23381379188504 24.16990256588906,209.5325500589097 33.40326357726008,219.0 41.03082267381251,213.47732698684558 40.83009743411094,183.75979232555255 30.593110226094723,178.5 24.571353044360876,186.3896826597629 24.972803523764014,214.00329658342525 32.19891214091331,219.0 42.03444887045771,213.47732698684558 40.227921715937555,183.75979232555255 33.80471405573189,178.5 24.772078284062445,185.3377269919729 25.17352876253426,211.89941726531833 31.797461662441492,218.4740318787517 41.432273152284324,214.00329658342525 40.428646955639124,187.17864900291897 30.593110226094723,178.5 22.764825890772045,186.3896826597629 24.37062780559063,210.32150614412967 29.388758789747953,217.94806360348593 40.62937219440937,214.00329658342525 41.231547912582755,185.07473797851708 34.20616453420371,178.76298998505808 23.367001608014107,185.3377269919729 23.96917732618749,210.05852082115598 31.99818690121174,217.94806360348593 36.61486740782857,217.6850794076454 42.235174109227955,210.84747667249758 41.432273152284324,186.1266938012559 38.22066932171583,180.6039187948918 30.99456070456654,178.76298998505808 23.96917732618749,187.70462636975572 24.972803523764014,211.11046187917236 30.593110226094723,218.21104776102584 41.03082267381251,213.47732698684558 41.231547912582755,185.3377269919729 37.61849360447377,180.0779393290868 29.388758789747953,178.76298998505808 24.37062780559063,186.1266938012559 24.972803523764014,212.42538732732646 30.99456070456654,219.0 41.63299839198589,213.47732698684558 42.235174109227955,186.1266938012559 35.20979073178023,219.0" stroke="#4DD2FF" stroke-linecap="round" stroke-linejoin="round" stroke-width="0.5"><title>2025-03-23 4.2km</title><desc>1742719228000</desc></polyline><polyline fill="none" points="72.1281567402184,178.5 68.54692790005356,183.19212343008257 70.43178518489003,214.30797708733007 79.66758587770164,217.51830997690558 87.39550074283034,208.1342426625779 85.69912918750197,188.3781392655801 73.82452829554677,181.46344790933654 68.3584421724081,190.6007125545293 69.8663279991597,213.5671301606344 76.46332849469036,217.76525840524118 85.69912918750197,212.0854353213217 84.75670054461807,186.8964220972266 74.76695693843067,180.72258642420638 68.3584421724081,187.14337504992727 69.30087081342936,212.5793337476207 77.21727140713483,218.7530517532723 82.30638607498258,217.27136151189916 85.88761491514742,211.34458740940318 85.32215772941709,188.87204469623975 74.95544266700745,180.96954028925393 70.99724236968905,181.95735538343433 67.98147071618587,191.09461732942145 70.05481372773647,214.06102814828046 81.55244316160679,217.51830997690558 88.52641511242837,213.5671301606344 86.0761006437242,187.88423368881922 73.82452829554677,181.7104016650701 67.79298498667777,191.34156966151204 68.54692790005356,211.59153674962 74.20149975270033,218.01220679690596 84.37972908746451,218.25915515213273 85.51064345892519,215.54272123624105 86.45307209994644,190.3537601128919 81.17547170445323,182.6982163208304 75.52089985087514,181.46344790933654 68.92389935720712,186.64946910867002 68.54692790005356,213.81407917232718 79.2906144214794,218.25915515213273 86.0761006437242,210.60373916930985 84.75670054461807,186.64946910867002 77.97121432144195,181.21649411786348 71.3742138268426,181.21649411786348 66.47358488757163,195.5397537278477 70.80875664111227,215.54272123624105 78.72515723481774,217.27136151189916 87.39550074283034,210.1098401596537 84.19124335981905,185.16775040782522 73.25907111167908,181.7104016650701 70.05481372773647,183.43907693016808 67.79298498667777,200.97268216277007 71.56269955541939,217.27136151189916 80.798500248231,218.01220679690596 86.0761006437242,209.8628906001104 83.24881471693516,185.41470361547545 76.8402999509126,179.48781655391213 68.73541362863034,184.42689056519885 68.92389935720712,213.32018111238722 76.27484276518226,219.0 86.64155782945454,212.8262829054147 84.75670054461807,185.90860992192756 76.0863570375368,179.48781655391213 68.3584421724081,185.6616567868041 68.54692790005356,211.34458740940318 77.21727140713483,218.50610347138718 85.51064345892519,214.06102814828046 84.75670054461807,188.87204469623975" stroke="#4DD2FF" stroke-linecap="round" stroke-linejoin="round" stroke-width="0.5"><title>2025-03-21 4.2km</title><desc>1742565279000</desc></polyline><polyline fill="none" points="124.49639275390655,180.52503410715144 119.08681238768622,178.5 117.54121799720451,180.3562814015895 116.63962126895785,198.91892949386965 123.72359555866569,202.29392400861252 129.13317592488602,196.72517771157436 126.04198714485392,180.01877591677476 119.60201051738113,179.68127033195924 115.73802454164252,184.06883515475783 119.2156119197607,201.1126770627452 123.85239509120584,202.9689217148116 128.23157919803634,199.76267905777786 128.10277966503054,182.71881700423546 122.56439976580441,179.3437646473758 118.18521565943956,179.85002313693985 115.866824073717,184.2375873111887 117.670017529279,200.10017870832235 122.95079836342484,203.6439190218225 127.45878200186417,200.77517771103885 128.23157919803634,183.3938262789743 123.98119462374598,180.01877591677476 116.63962126895785,181.20004467794206 116.38202220434323,196.89392799849156 119.08681238768622,202.29392400861252 122.17800116818398,203.13767107913736 127.45878200186417,200.26892849674914 127.97398013202474,182.5500646235887 126.55718527501449,180.18752867158037 120.89000584324822,179.512517502415 117.15481939958408,182.0438073311234 115.99562360625714,192.84391423675697 120.11720864800736,202.80017232545651 127.0723834047094,201.45017631491646 128.48917826265097,183.73133076680824 127.97398013202474,181.20004467794206 120.76120631024241,179.68127033195924 117.02601986657828,182.887569360435 118.70041378960013,199.93142889556475 120.89000584324822,202.80017232545651 127.45878200186417,202.12517451972235 128.10277966503054,188.11888003116474 121.66280303755775,197.737679057871 119.85960958199576,203.98141752567608 121.01880537485704,219.0 127.20118293724954,217.1437814006349 128.61797779565677,204.99391243990976 126.55718527501449,181.53754981374368 120.24600818008184,178.83750593382865 115.73802454164252,182.5500646235887 116.63962126895785,197.231428496656 122.56439976580441,203.30642041831743 127.97398013202474,199.76267905777786 128.61797779565677,183.5625785352895 122.04920163564384,178.66875297972 117.15481939958408,181.53754981374368 116.76842080196366,199.08767945633736 121.79160257056355,202.9689217148116 127.84518060041592,199.256429394125 128.36037872964516,182.71881700423546 122.43560023326427,178.66875297972 118.05641612736508,181.3687972582411 117.79881706181914,201.45017631491646 121.01880537485704,204.15016674087383 125.01159088360146,203.6439190218225 127.0723834047094,200.60642799758352 129.26197545789182,184.7438436311204" stroke="#4DD2FF" stroke-linecap="round" stroke-linejoin="round" stroke-width="0.5"><title>2025-03-10 4.0km</title><desc>1741591515000</desc></polyline><polyline fill="none" points="178.10111868195236,186.28853403311223 167.4009241256863,179.53847319935448 159.078550580889,185.50968218350317 159.27670233231038,213.28851807664614 165.41940661426634,218.74038758862298 176.1196011705324,212.25006482296158 175.52514591719955,187.58661968249362 169.97689688857645,180.57694578415249 158.68224707897753,185.2500648240093 158.48409532755613,213.02890482009389 163.63604085426778,217.7019375571981 176.31775292288512,213.02890482009389 176.91220817528665,187.84623669751454 168.78798638191074,180.05770956887864 159.27670233231038,185.2500648240093 159.87115758564323,213.28851807664614 166.41016537044197,218.48077513789758 173.34547665622085,216.92309963086154 176.71405642386526,211.7308379658498 176.71405642386526,189.1443211955484 168.98613813333213,180.31732769554947 158.88039883039892,186.0289167886367 159.27670233231038,210.6923837919021 166.60831712093204,218.74038758862298 176.5159046733752,212.5096781940665 175.72329766955227,184.99044742505066 164.82495136093348,180.05770956887864 159.27670233231038,184.99044742505066 159.87115758564323,214.32697071577422 167.59907587617636,218.48077513789758 176.5159046733752,212.25006482296158 176.31775292288512,188.6250875114929 169.580593386665,180.05770956887864 162.24897859804332,180.83656383503694 158.28594357706606,185.50968218350317 158.68224707897753,211.99045141320676 166.21201361902058,218.22116264945362 176.31775292288512,212.25006482296158 174.93069066479802,184.47121251316275 168.3916828809306,178.5 158.08779182564467,185.2500648240093 158.68224707897753,211.99045141320676 168.78798638191074,218.22116264945362 175.92144942097366,211.99045141320676 175.3269941676408,184.99044742505066 168.1935311285779,178.75961835728958 156.89888131897897,186.5481512399856 159.078550580889,213.807744472404 170.7695038933307,218.22116264945362 176.1196011705324,212.76929152640514 175.1288424162194,183.69235985830892 164.82495136093348,179.79809140297584 158.68224707897753,184.99044742505066 158.68224707897753,211.99045141320676 168.78798638191074,218.48077513789758 176.5159046733752,212.25006482296158 176.91220817528665,186.5481512399856 167.99537937901914,179.79809140297584 158.28594357706606,187.3270026295213 158.88039883039892,214.58658378000837 165.41940661426634,219.0 175.52514591719955,212.25006482296158 177.90296693053097,186.28853403311223" stroke="#4DD2FF" stroke-linecap="round" stroke-linejoin="round" stroke-width="0.5"><title>2025-03-09 4.1km</title><desc>1741514669000</desc></polyline><polyline fill="none" points="25.407242596149445,250.8288733732188 31.970689745619893,264.4212658269098 37.47551638726145,264.6986605670536 44.0389635367319,258.0411755006062 40.651377910748124,227.52740023168735 26.04241490084678,227.25 20.537588259205222,233.63019495876506 28.794828221201897,260.81513047998305 41.70999841950834,263.31168645829894 45.52103224769235,251.38366682827473 40.8631020123139,233.63019495876506 44.67413584142923,231.13359951367602 22.866553377360106,240.0103682357585 23.925173884257674,236.68158488313202 31.970689745619893,241.6747576991329 28.794828221201897,247.77750644064508 30.912069237791002,264.4212658269098 40.22792970761657,264.14387104671914 44.88585994299501,256.93159236118663 36.628619980067015,229.74660060973838 23.925173884257674,228.35960068064742 19.47896775137633,235.29459007806145 26.254139002412558,251.1062701214105 25.830690799281,260.26033981284127 36.41689587943256,267.47260571061634 42.34517072420567,256.6541964740027 38.9575850982219,233.0753962578019 27.524483611807227,227.52740023168735 20.114140056073666,233.63019495876506 24.983794393017888,262.479501501075 37.68724048882723,267.75 42.98034302890301,259.70554898062255 41.70999841950834,229.19180076068733 27.736207714304328,228.35960068064742 24.34862208738923,241.11996137537062" stroke="#4DD2FF" stroke-linecap="round" stroke-linejoin="round" stroke-width="0.5"><title>2025-03-05 1.9km</title><desc>1741161630000</desc></polyline></svg>