<?xml version="1.0" encoding="utf-8" ?>
<svg baseProfile="full" height="300mm" version="1.1" viewBox="0,0,200,300" width="200mm" xmlns="http://www.w3.org/2000/svg" xmlns:ev="http://www.w3.org/2001/xml-events" xmlns:xlink="http://www.w3.org/1999/xlink"><defs /><rect fill="#222222" height="300" width="200" x="0" y="0" /><text fill="#FFFFFF" style="font-size:12px; font-family:Arial; font-weight:bold;" x="10" y="20">Over 10km Runs</text><text fill="#FFFFFF" style="font-size:4px; font-family:Arial" x="10" y="280">ATHLETE</text><text fill="#FFFFFF" style="font-size:9px; font-family:Arial" x="10" y="290">TXyy2025</text><text fill="#FFFFFF" style="font-size:4px; font-family:Arial" x="65" y="280">SPECIAL TRACKS</text><rect fill="yellow" height="2.6" width="2.6" x="65" y="283" /><text fill="#FFFFFF" style="font-size:3px; font-family:Arial" x="70" y="285.5">Over 20.0 km</text><rect fill="red" height="2.6" width="2.6" x="65" y="287" /><text fill="#FFFFFF" style="font-size:3px; font-family:Arial" x="70" y="289.5">Over 40.0 km</text><text fill="#FFFFFF" style="font-size:4px; font-family:Arial" x="120" y="280">STATISTICS</text><text fill="#FFFFFF" style="font-size:3px; font-family:Arial" x="120" y="285">Number: 15</text><text fill="#FFFFFF" style="font-size:3px; font-family:Arial" x="120" y="290">Weekly: 3.0</text><text fill="#FFFFFF" style="font-size:3px; font-family:Arial" x="141" y="285">Total: 111.8 km</text><text fill="#FFFFFF" style="font-size:3px; font-family:Arial" x="141" y="290">Avg: 7.5 km</text><text fill="#FFFFFF" style="font-size:3px; font-family:Arial" x="167" y="285">Min: 1.5 km</text><text fill="#FFFFFF" style="font-size:3px; font-family:Arial" x="167" y="290">Max: 35.9 km</text><polyline fill="none" points="34.71208791434765,53.067081653978676 12.400000000372529,46.22533979918808 31.389010990038514,44.981385541614145 21.89450549520552,45.60336271673441 33.76263736188412,34.40775949927047 24.74285714328289,35.02973823621869 28.5406593400985,59.286837324965745 32.338461538776755,44.35940827336162 27.11648351699114,55.55498502543196 27.591208793222904,35.65171688143164 27.11648351699114,67.37250596284866 30.914285715669394,55.55498502543196 36.61098901182413,61.152762236539274 30.439560441300273,63.01868631877005 24.74285714328289,38.7616087323986 29.964835165068507,67.37250596284866 22.369230771437287,46.84731679037213 30.439560441300273,49.95720037166029 30.439560441300273,39.38358682626858 36.61098901182413,60.53078735759482 32.338461538776755,56.176960638258606 29.964835165068507,66.12855795351788 24.74285714328289,48.091270498000085 27.591208793222904,54.311033523175865 36.13626373745501,48.71324721444398 28.5406593400985,73.59224050119519 37.56043955869973,58.042886927723885 28.065934067592025,65.50658380938694 24.74285714328289,55.55498502543196 29.49010988883674,63.01868631877005 40.88351648487151,51.823129415977746 31.86373626627028,56.176960638258606 36.61098901182413,64.88460957398638 31.86373626627028,59.90881238691509 32.338461538776755,35.02973823621869 26.167032968252897,57.420911588706076 32.81318681500852,48.71324721444398 26.167032968252897,36.89567389898002 29.49010988883674,53.067081653978676 34.23736263811588,47.46929369075224 25.217582415789366,66.75053200405091 22.843956043943763,47.46929369075224 28.5406593400985,63.01868631877005 29.49010988883674,49.95720037166029 20.945054944604635,55.55498502543196 17.621978022158146,38.7616087323986 32.338461538776755,68.61645360570401 28.065934067592025,58.66486217221245 38.50989011116326,41.24952055886388 32.338461538776755,66.12855795351788 26.167032968252897,54.93300931947306 30.914285715669394,39.38358682626858 24.268131867051125,63.64066082984209 18.571428570896387,53.067081653978676 32.338461538776755,47.46929369075224 34.71208791434765,56.176960638258606 27.591208793222904,49.335223839618266 26.167032968252897,55.55498502543196 38.98461538553238,47.46929369075224 28.065934067592025,60.53078735759482 32.338461538776755,72.97026746021584 25.217582415789366,46.22533979918808 32.81318681500852,52.44510558154434 37.56043955869973,44.981385541614145 22.843956043943763,43.11545346304774 27.591208793222904,59.286837324965745 31.86373626627028,36.89567389898002 25.69230769202113,53.067081653978676 22.843956043943763,41.24952055886388 19.046153847128153,69.8604008811526 25.217582415789366,41.87149828532711 35.186813186854124,51.2011531596072 25.69230769202113,49.335223839618266 25.217582415789366,35.65171688143164 24.74285714328289,72.34829432843253 26.167032968252897,54.311033523175865 36.13626373745501,51.823129415977746 27.11648351699114,36.27369543584064 37.56043955869973,57.420911588706076 29.49010988883674,37.517652268055826 23.79340659454465,46.84731679037213 33.76263736188412,42.4934759195894 24.74285714328289,54.93300931947306 30.439560441300273,71.72632110351697 17.621978022158146,38.7616087323986 24.268131867051125,60.53078735759482 34.71208791434765,63.64066082984209 31.86373626627028,47.46929369075224 55.59999999962747,43.11545346304774" stroke="#4DD2FF" stroke-linecap="round" stroke-linejoin="round" stroke-width="0.5"><title>2025-04-06 2.6km</title><desc>1743945103000</desc></polyline><polyline fill="none" points="82.41476766391133,60.83379510523628 84.41871419477684,60.095228009915445 84.82775302355003,60.081717469543946 85.57364735836745,60.216822603737455 85.80394653086842,60.14476660668333 88.18943348184985,60.599617232002856 90.9633354551188,61.99565102495944 93.249140674714,62.346901073909976 93.37975811584329,62.50000880304833 93.57912157861574,62.594574957491204 94.6549968173058,62.770197037456455 94.9334182049497,62.572059233045366 97.28109484404558,62.91429645000244 98.84506683640939,62.783706386318954 100.20623806491494,62.92330264065822 101.3611712285201,63.125941227299336 101.47116486313462,63.058395181422384 101.99019732653687,62.21630857963828 102.51954169318196,60.68968585768016 103.29293443665665,59.41519004305883 104.8637810311775,55.731012008307516 105.8640356460819,53.76263167326579 106.3899427116412,52.3076601364246 107.18052196053031,51.27156994239522 108.43513685550715,52.41577186591712 109.75506047102681,54.47432619418032 109.74818586886977,54.65900370182317 109.18446849139582,55.93820254259845 109.32196053468215,56.79847860778682 109.44914067471109,57.122764853731496 110.4459579885297,57.726288402811406 110.65563335454499,57.78483855894956 111.63182686184882,57.67674587516922 112.35709739018057,57.757815423936336 112.43615531508112,57.897434696904384 112.3777211966808,58.771166589913264 112.4980267345527,59.03238053991299 112.6595798854105,59.19451221051531 112.96549968172621,59.34763577421836 113.58421387650014,59.99615057483061 113.65983450032945,59.982639990548705 113.73545512412966,59.86104446254103 113.71139401654364,59.51426936654934 114.01043921070232,58.99635116266654 114.21323997453146,58.22170925020873 114.32323360914597,58.091099081189896 114.50197326543275,58.050564777006 114.76664544874802,58.14064093532215 115.25474220242177,58.04155714652734 115.9525143220817,58.208197879372165 116.13125397833937,58.446897882395206 116.50248249521246,58.451401638078096 116.56435391469859,58.60002520197122 116.36842775301193,58.874751700010165 116.36499045194068,58.98284013520788 116.64341183958459,59.31611039751624 117.42711648630211,59.550298131603995 117.63679185233195,59.74395201414154 117.97021005727584,59.88806573289912 118.79516231697926,60.41497571733089 119.40356460851035,60.505044888597695 119.83666454486956,60.93737320609216 119.86072565244103,61.14452835197153 119.66136218968313,61.37419871592647 119.54449395289703,61.7029395591635 119.2454487587529,62.14425730883704 119.23857415658131,62.788209501284655 119.30044557605288,62.80622195444994 119.46543602799647,62.43246137028473 119.99478039465612,61.84704401664567 120.16320814767096,61.36969539208076 120.27663908337126,61.32916544760883 120.46225334181509,61.531814631112866 120.42444302991498,60.99141381465779 121.02940802036028,60.33391323565411 121.19783577338967,60.06820692318979 121.414385741562,58.77567029767306 121.3697008274903,58.39285276240844 121.41094844046165,57.81636551950214 121.59312539783423,57.58216446237566 121.59999999999127,56.86153453696534 121.51063017184788,56.61831809130126 121.35251432207588,56.438156509786495 119.95697008274146,55.69047456508815 119.41387651176774,55.330139366653384 119.26263526415278,55.091414951355546 119.31419478038151,54.68152527253187 119.03577339273761,54.312169411025025 119.02546148949477,53.81668500494743 118.37924888606358,53.343715101678754 118.2830044557486,53.20857949522724 118.42393380012072,52.825692022390285 118.4033099936205,52.67704029525521 118.31737746657745,52.62298494195056 118.0011457670189,52.744609352037514 117.48211330361664,52.758123145413265 117.08682367918664,52.19504334364683 116.35811584976909,51.546362513696295 115.52285168680828,50.415642773010404 114.68758752386202,49.66781303816424 114.47447485676093,49.07314014732219 113.3367281985993,48.47845564877571 113.16830044555536,47.95133922947207 112.99643539145472,47.69453561861701 112.53239974538155,47.24399773754885 111.8518141311215,46.83400247507052 111.14373010820418,46.10861272360853 110.84812221514585,44.9596681429357 110.63157224695897,44.90109333666442 109.9647358370421,44.874058772698845 109.88911521322734,44.92812787663024 109.82380649266997,45.48683633082146 109.7172501591267,47.1358676546115 109.57632081476913,47.5909124959926 108.93354551240918,48.68569550392567 107.47269255250285,50.83910448311872 106.38650541056995,52.204052702383706 105.80903882876737,52.67704029525521 105.55467854869494,52.97434302435977 104.54754933163349,54.735576974318974 102.66390833863989,59.271074088519526 102.5745385104965,59.61334836797323 102.51954169318196,60.545575928852486 102.05894334816549,61.98664456022743 101.41273074473429,63.09441975783193 100.37810311903013,62.91429645000244 98.88631444939529,62.77920327070751 97.2295353278023,62.896284060681865 94.89560789306415,62.572059233045366 94.67905792489182,62.75668768262403 94.56906429026276,62.770197037456455 93.56880967535835,62.572059233045366 93.25601527688559,62.34239789378262 90.93927434753277,61.968631622783505 88.15506047103554,60.559086263618155 85.82457033735409,60.13575959508307 85.54614894971019,60.19880862044192 84.6868236791779,60.045689332624534 84.34653087204788,60.08622098366686 82.39070655633986,60.820284892222844 81.26670910247776,61.01843408300556 80.85767027370457,61.15353506550127 80.65830681093212,61.09499137993407 79.97084659452958,61.21207863863674 79.56868236791342,61.468768362832634 78.79528962442419,61.65340349457074 78.45155951622291,61.39221200461543 78.465308720537,61.34717876292052 78.39999999999418,61.44625180684852 78.44124761298008,61.36969539208076" stroke="yellow" stroke-linecap="round" stroke-linejoin="round" stroke-width="0.5"><title>2025-04-06 31.5km</title><desc>1743926920000</desc></polyline><polyline fill="none" points="145.47494145199016,60.30639647018688 145.7626463700144,60.57149027504602 146.4929742388631,60.39338065117772 146.76803278687294,60.19455926952833 147.45093676814577,60.07029519005118 147.7038641686231,60.115858749795734 148.9969555035059,59.842476280589835 150.85597189694818,59.15900844509997 151.07728337234585,59.125870187162946 151.9182669789152,59.245996185849435 152.17435597188887,59.19214666387779 154.35585480094596,59.61051330719965 156.86299765807053,60.869717809651775 158.98126463699737,61.196936038399144 159.14882903981197,61.37089860528249 159.31007025760482,61.44131171836489 160.29332552693086,61.590421256529226 160.57786885245878,61.41646005159055 162.70562060888915,61.72296240255491 164.13149882903963,61.60284701557066 166.51533957844367,61.888637954083606 167.09074941452127,60.97326829505255 167.58711943794333,59.58980223411345 168.28266978921602,58.42995772228096 169.76861826698587,54.96670785076276 170.64121779859124,53.255638216347506 171.0964871194301,51.954658229020424 172.19672131146945,50.512737240002025 173.4929742388631,48.585916664607794 174.06838407492614,47.58308880531149 174.1569086650852,47.32616018991757 174.3466042154614,45.24163610212963 174.42880562061328,45.154604884866785 175.02318501169793,45.183615320662284 175.19391100702342,45.24992477538399 175.5037470725947,46.352296468750865 176.05386416861438,46.92418650084801 176.74625292739074,47.334448246529064 177.1951990632224,47.786143625005934 177.31533957844658,47.95604550670396 177.4829039812612,48.49060812217067 178.53571428571013,49.0168729835932 178.68430913348857,49.53484055851004 179.47470725995663,50.239261096690825 180.22084309134516,51.25856770356222 180.91323185010697,51.867647858811324 181.2926229508157,52.393849308076824 181.39063231850741,52.439425346659846 181.8269320843101,52.38141946651194 182.01978922716808,52.29855371519625 182.1336065573705,52.335843333607045 182.1430913348886,52.48085804468246 182.02927400468616,52.84131993317351 182.7311475409806,53.413077558123405 182.70269320842635,53.78181360801682 182.98723653396883,54.21269003712223 182.92400468383858,54.5565578195874 183.01252927399764,54.7222757264517 183.50573770490882,55.07442302555501 184.89999999999418,55.85327428027085 185.05491803277982,56.221978231551475 185.0233021077147,56.70252891123346 185.08337236533407,56.85994889434369 185.56077283371997,56.988369804792455 185.69355971897312,57.07536428084859 185.7093676814984,57.257637545784746 185.42166276347416,57.80030774983243 185.4311475409777,57.974291392964005 185.62400468383566,58.03642814669547 186.11088992973964,57.680175556541144 186.27845433255425,57.72574300079941 186.30690866509394,59.109301043503365 186.3827868852386,59.34955266816178 186.57880562060745,59.498673330750535 187.4419203747093,59.66436202564182 187.60000000000582,59.809338830462366 187.5873536299623,62.40222594312945 187.4482435597165,62.381516932015074 187.05304449646792,62.091589170673615 186.42704918031814,61.90934732918322 186.13302107728668,61.97561722677165 183.9293911006971,62.82882816930214 182.21264637002605,62.845395115133215 182.1841920374718,62.79569424827423 182.45608899297076,62.2034188051839 182.93032786884578,61.710536696722556 182.92716627634945,61.027114396330944 183.3192037470726,60.31468068952563 183.51838407493779,60.07857947915181 183.51838407493779,59.94603055982043 183.4519906323112,59.854902814286106 183.1042154566676,59.511100016827186 182.79754098360718,59.41168637397095 182.48770491802134,59.41168637397095 181.66885245901358,58.881474325198724 181.42540983606887,58.78620078493259 181.19461358313856,58.591510369764364 180.48957845433324,58.39681860258679 180.2714285714319,58.06542525131772 180.4548009367718,57.79202278750017 180.41686182669946,57.613895505410255 180.06276346603408,57.6056104880081 179.88571428571595,57.390199175923044 179.38302107727213,57.27420778384476 179.1617096018599,57.253494984744975 178.76018735363323,57.34877373384916 178.50725995317043,57.2659226660453 178.30491803277982,57.37362900643711 178.1183840749436,58.09442232593756 177.81170960186864,58.62464925931272 177.8401639344229,58.939466756424736 177.78009367681807,59.034739775857815 177.68524590163724,59.03888207371347 177.1951990632224,58.50037822153354 176.80316159249924,58.26426173214895 176.69882903981488,58.119276937448376 176.61346604215214,57.92458189081117 176.66088992974255,57.112647545103755 176.58817330210877,56.98008460251367 176.0032786885131,56.90551767184115 174.9030444964883,57.00079760362314 173.92611241216946,56.40011435814995 173.81545667446335,56.17640834291524 173.69847775175003,55.24013787083095 174.19168618266121,54.15054480706749 174.20117096016475,53.959965242424005 172.9934426229447,52.07067163575448 171.89953161592712,51.04725108739876 171.5644028102979,50.82350234532532 171.76990632318484,50.91880295387273 171.71615925057267,51.07211194847514 171.10597189694818,51.880077928244646 170.35351288055244,52.55543674679757 169.2153395784553,54.59384443405361 167.64718969554815,58.41338816732423 167.4985948477697,59.70164184705209 167.07494145198143,60.9774103065065 166.4615925058606,61.93419855913453 165.76604215454427,61.77266517079261 164.31170960186864,61.62769851716075 162.72142857141444,61.72710430327061 160.55257611240086,61.41231810496902 160.2806791569019,61.60284701557066 159.30374707259762,61.42888588773167 158.98126463699737,61.1886520797143 156.90409836065373,60.87385983641798 154.32423887588084,59.57737558291774 152.30081967213482,59.20043121245544 152.0984777517442,59.179719836431104 151.93407494144049,59.23356938226425 151.10889929742552,59.09687417933492 150.80538641686144,59.13829703848205 149.0507025761035,59.79691227656076 148.07060889928835,59.96674136977708 147.63430913348566,60.11171661106346 147.41299765807344,60.05372660450848 146.8217798594851,60.16142223552379 146.42025761122932,60.4058069407256 145.69625292740238,60.55492198565844 145.47810304450104,60.30639647018688 145.5128805620625,59.506957788753425 144.86475409836567,59.27084977648519 144.46323185010988,58.73649272235343 144.39999999999418,58.54594433267448 144.66241217797506,58.52937484628637 144.72248243559443,58.458954419858856 144.65925058549328,58.409245777063916" stroke="yellow" stroke-linecap="round" stroke-linejoin="round" stroke-width="0.5"><title>2025-04-05 35.9km</title><desc>1743843004000</desc></polyline><polyline fill="none" points="42.243128675967455,98.91432947898284 39.29915415123105,105.8571861111559 32.82241019234061,90.42860328452662 31.056025475263596,113.57146042725071 38.12156433984637,97.37147119827569 41.06553886830807,111.25717932963744 31.644820377230644,112.80003350926563 36.943974528461695,90.42860328452662 27.523256041109562,90.42860328452662 45.77589811012149,118.97144566709176 31.056025475263596,99.6857584505342 40.47674395889044,106.62861405545846 31.056025475263596,112.02860647533089 38.71035924181342,92.7428936152719 39.8879490531981,102.77147319307551 26.934461135417223,104.31432987935841 36.355179622769356,108.9428972043097 34.0,122.82857456384227 38.71035924181342,104.31432987935841 39.29915415123105,115.11431392142549 28.70084584876895,98.91432947898284 39.8879490531981,112.80003350926563 31.644820377230644,106.62861405545846 31.644820377230644,113.57146042725071 29.28964075818658,102.00004467880353 43.42071848735213,102.00004467880353 31.644820377230644,80.40000000037253 39.29915415123105,115.88574049901217 36.943974528461695,93.51432349625975 38.12156433984637,112.80003350926563 21.635306984186172,102.77147319307551 35.76638471707702,110.48575206799433 32.82241019234061,99.6857584505342 39.8879490531981,110.48575206799433 41.06553886830807,95.82861245935783 35.76638471707702,114.34288723068312 29.28964075818658,107.40004188613966 34.0,121.2857233453542 25.756871324032545,116.6571669629775 33.41120509430766,100.45718730613589 36.943974528461695,115.88574049901217 33.41120509430766,101.22861604904756 45.77589811012149,107.40004188613966 38.71035924181342,95.82861245935783 32.23361528292298,111.25717932963744 28.1120509468019,98.91432947898284 36.355179622769356,107.40004188613966 45.77589811012149,90.42860328452662 34.58879490569234,100.45718730613589 35.76638471707702,123.60000000009313 34.58879490569234,98.14290039567277 46.36469301581383,112.02860647533089 39.29915415123105,96.60004188679159 36.943974528461695,115.11431392142549 26.934461135417223,99.6857584505342 37.532769434154034,88.11431192746386 38.12156433984637,117.42859331285581 31.056025475263596,106.62861405545846 35.76638471707702,95.05718291876838 34.0,113.57146042725071 43.42071848735213,104.31432987935841 34.0,117.42859331285581 31.056025475263596,98.91432947898284 45.77589811012149,115.11431392142549 31.644820377230644,105.8571861111559 34.0,122.05714901117608 38.12156433984637,105.08575805136934 28.70084584876895,105.08575805136934 30.467230565845966,114.34288723068312 38.71035924181342,102.77147319307551 28.1120509468019,100.45718730613589 35.17758981138468,117.42859331285581 32.82241019234061,102.77147319307551 38.71035924181342,108.9428972043097 30.467230565845966,118.97144566709176 29.28964075818658,95.82861245935783 38.12156433984637,110.48575206799433" stroke="#4DD2FF" stroke-linecap="round" stroke-linejoin="round" stroke-width="0.5"><title>2025-04-04 1.7km</title><desc>1743771861000</desc></polyline><polyline fill="none" points="107.99331505037844,80.39999999990687 98.40133699029684,83.01821179769468 93.20568220783025,90.34918425034266 94.60451234132051,118.62550819676835 100.59949862957001,122.81455485429615 104.9958219062537,121.50547883717809 108.39298080187291,115.22190049709752 107.59364929609,88.77826413465664 98.40133699029684,84.58913701958954 91.20735344476998,94.27647844527382 93.60534796025604,118.1018766692141 95.80350959859788,121.76729411853012 104.19649040140212,122.0291093600681 108.9924794305116,115.74553287646268 105.99498628731817,90.08736432774458 99.40050137042999,84.32731624564622 91.80685207340866,91.39646355330478 93.20568220783025,118.88732390315272 104.5961561538279,121.76729411853012 109.79181093536317,114.69826796278358 106.39465203974396,87.99280355486553 99.40050137042999,84.32731624564622 93.20568220783025,87.46916297555435 92.20651782676578,116.00734900787938 98.60116986557841,122.81455485429615 109.19231230672449,117.57824498589616 108.39298080187291,91.39646355330478 99.60033424664289,84.58913701958954 90.20818906463683,92.18192262470257 91.20735344476998,113.12736943177879 97.20233973208815,122.55273972847499 105.59532053489238,121.24366351834033 109.79181093536317,114.43645163753536 108.19314792566001,91.92010297311936 98.60116986557841,84.32731624564622 90.6078548161313,92.44374223798513 93.20568220783025,119.93458634137642 104.79598902910948,121.24366351834033 109.79181093536317,113.12736943177879 105.79515341110528,89.30190432840027 96.20317535102367,85.63641972630285 90.6078548161313,92.70556181273423 92.80601645447314,118.62550819676835 101.79849588684738,122.81455485429615 108.39298080187291,118.62550819676835 109.79181093536317,113.12736943177879 106.79431779123843,88.2546237873612 96.20317535102367,84.85095775406808 91.20735344476998,93.49102030333597 92.40635070297867,116.79279717057943 98.20150411408395,122.81455485429615 109.19231230672449,116.79279717057943 108.39298080187291,90.34918425034266 98.40133699029684,84.58913701958954 90.6078548161313,91.13464378588833 92.40635070297867,118.88732390315272 96.20317535102367,122.55273972847499 105.19565478246659,121.76729411853012 109.39214518293738,114.1746352739865 108.39298080187291,90.61100413440727 102.39799451455474,84.32731624564622 93.60534796025604,86.16006084799301 90.6078548161313,90.61100413440727 93.40551508404315,120.72003276331816 102.39799451455474,123.59999999997672 109.5919780600816,117.05461314797867 108.9924794305116,97.4183075359324" stroke="#4DD2FF" stroke-linecap="round" stroke-linejoin="round" stroke-width="0.5"><title>2025-04-02 4.0km</title><desc>1743590878000</desc></polyline><polyline fill="none" points="159.59452046453953,90.03066004393622 156.0242531830445,90.03066004393622 155.60422173701227,110.66762101126369 161.27464624401182,121.67390669311862 174.29562103562057,116.17077198252082 173.45555814635009,99.38611068448517 176.60579398274422,98.01031206711195 171.35540092084557,83.70194619649556 156.65430035069585,85.90324040863197 156.65430035069585,111.76825250638649 161.27464624401182,120.57328105170745 172.61549525614828,116.996243225527 173.24554242379963,91.40646455506794 167.78513363935053,81.77581162645947 156.0242531830445,87.82937070983462 155.60422173701227,111.21793684002478 160.85461479891092,120.29812454036437 167.78513363935053,121.67390669311862 174.08560531400144,115.89561482064892 173.87558959051967,89.48033795435913 164.00485063623637,81.50064938270953 157.07433179486543,86.45356355526019 156.4442846281454,112.59372570097912 164.42488208040595,121.1235939541366 169.2552436972037,120.57328105170745 174.9256682023406,112.86888335132971 173.87558959051967,88.10453201911878 166.3150235824287,81.50064938270953 156.65430035069585,85.07775538449641 157.07433179486543,115.07014308916405 166.10500786080956,121.9490630015498 173.66557386796921,114.24467099248432 174.71565248072147,87.00388653913978 165.26494497060776,80.95032477274071 156.65430035069585,89.48033795435913 157.70437896251678,114.51982839836273 166.3150235824287,121.9490630015498 173.24554242379963,118.3720278183464 175.76573109347373,111.21793684002478 173.24554242379963,86.17840200266801 165.8949921373278,80.95032477274071 157.28434751741588,86.72872506803833 157.49436323996633,113.96951354586054 164.00485063623637,121.39875034394208 173.45555814635009,117.2714002255816 174.9256682023406,88.10453201911878 165.68497641570866,81.22548709844705 155.39420601632446,87.82937070983462 156.8643160732463,116.72108618565835 165.26494497060776,123.04968783061486 174.29562103562057,116.72108618565835 173.66557386796921,86.45356355526019 165.26494497060776,81.50064938270953 156.0242531830445,87.55420936062 158.1244104076177,118.3720278183464 164.84491352550685,122.77453168411739 171.56541664432734,122.2242192698177 174.50563675817102,116.996243225527 174.08560531400144,88.10453201911878 165.05492924898863,80.40000000002328 156.4442846281454,87.82937070983462 159.59452046453953,118.096870980924 162.53474057931453,121.9490630015498 173.24554242379963,123.59999999997672 175.76573109347373,90.03066004393622" stroke="#4DD2FF" stroke-linecap="round" stroke-linejoin="round" stroke-width="0.5"><title>2025-03-30 4.0km</title><desc>1743343343000</desc></polyline><polyline fill="none" points="43.667854109779,134.26672734075692 41.42898263223469,136.6667466656072 36.34063836373389,132.13337415037677 38.78304361179471,134.26672734075692 38.98657738324255,131.0666966100689 32.473496719263494,128.40000000002328 25.55334851425141,131.60003545926884 22.90740949474275,157.46678046835586 26.163949826732278,167.60004343639594 35.526503280736506,171.59999999997672 43.667854109779,166.00005832850002 45.296124275773764,159.06677313963883 45.49965804629028,152.40012765082065 40.004246236756444,132.400043437141 30.03109147120267,130.00001843879 22.50034195370972,140.13343561254442 27.181618680246174,167.3333793495549 36.544172135181725,170.5333457827801 44.07492165174335,163.33341333118733 42.44665148481727,134.00005832966417 32.26996294874698,129.73334879789036 24.332145891152322,137.7334208971588 26.97808490972966,166.53338685515337 37.358307217247784,169.73335470585153 43.46432034019381,163.33341333118733 42.44665148481727,132.93338189274073 30.4381590122357,130.53335760335904 24.739213432185352,137.7334208971588 25.756882284767926,162.53341906308196 31.659361637197435,169.46669093554374 38.579509841278195,169.46669093554374 44.481989193707705,163.33341333118733 42.650185256265104,134.5333963126177 30.03109147120267,131.0666966100689 23.11094326619059,138.80009449797217 26.163949826732278,163.86674264608882 35.933570821769536,169.73335470585153 44.27845542225987,162.26675422873814 43.46432034019381,137.2000838603126 34.71236819867045,131.33336605411023 29.827557699754834,131.60003545926884 25.14628097321838,138.00008935690857 27.38515245076269,166.2667226117337 38.579509841278195,170.26668213063385 43.667854109779,163.06674861488864 41.42898263223469,133.7333892795723 34.30530065577477,129.46667911682744 25.55334851425141,135.86674057901837 26.774551139213145,163.33341333118733 32.67703048978001,170.26668213063385 38.78304361179471,169.46669093554374 43.46432034019381,163.60007800767198 43.05725279729813,136.4000780096976 34.30530065577477,130.26668804034125 25.55334851425141,136.93341528286692 25.55334851425141,162.00008935434744 30.641692782752216,168.93336327536963 36.74770590476692,170.26668213063385 43.26078656874597,164.66673632210586 42.243117715232074,137.46675239829347 33.69469934422523,130.53335760335904 24.739213432185352,137.7334208971588 25.756882284767926,165.20006524282508 33.69469934422523,170.8000093959272 43.26078656874597,163.33341333118733 41.83605017326772,134.00005832966417 33.287631802260876,129.73334879789036 23.925078348256648,139.8667674686294 25.756882284767926,164.66673632210586 36.34063836373389,170.5333457827801 43.46432034019381,160.66676439356524 42.03958394378424,135.06673413759563 32.880564261227846,130.53335760335904 24.942747202701867,139.06676279916428 26.367483597248793,165.20006524282508 32.473496719263494,170.8000093959272 42.44665148481727,166.2667226117337" stroke="#4DD2FF" stroke-linecap="round" stroke-linejoin="round" stroke-width="0.5"><title>2025-03-30 4.5km</title><desc>1743327729000</desc></polyline><polyline fill="none" points="107.01725888298824,130.10366101231193 107.12690355302766,131.54024920024676 99.89035532949492,135.41902670485433 96.38172588776797,135.5626848335378 99.23248730925843,144.7567609359976 91.11878172587603,145.331387805345 91.5573604060337,149.9283905380289 85.30761421332136,147.19892278680345 80.26395939104259,148.7791418923298 78.39999999990687,154.23806086025434 79.49644670030102,167.74157084221952 83.99187817238271,170.61463387747062 89.14517766516656,167.74157084221952 91.44771573599428,145.76235773513326 96.71065989835188,145.1877311198623 101.20609137043357,146.19332747353474 111.07411167491227,157.25481872045202 113.15736040612683,157.54212850431213 115.3502538073808,152.94516176910838 121.60000000009313,158.26040259370347 119.84568527899683,165.87407531728968 119.51675126841292,156.823853884649 113.81522842636332,153.66343925445108 112.06091370526701,157.25481872045202 109.53908629436046,155.38730305357603 96.8203045683913,135.8500010278076 106.68832487287,132.5458596686949 105.04365482227877,129.38536612252938" stroke="#4DD2FF" stroke-linecap="round" stroke-linejoin="round" stroke-width="0.5"><title>2025-03-29 1.5km</title><desc>1743247652000</desc></polyline><polyline fill="none" points="155.1660366889555,160.05256887938594 155.8980612369487,160.8198559776938 155.48812749003991,160.16766208878835 155.04891276126727,160.62803441574215 155.312441598624,161.70223333776812 156.95217658614274,164.19589227432152 158.91400237486232,165.9222575093154 159.6167459411081,164.34934742664336 159.2068121941993,163.58207075795508 159.82171281438787,164.19589227432152 159.44106004957575,166.4593465749058 161.19791896489915,167.763701109041 167.43476811412256,168.7611442731286 171.9147583480226,171.60000000000582 177.03893018432427,170.52584202357684 178.06376455153804,168.91459672743804 177.4195829492528,145.74224900567788 176.59971545555163,144.09248314064462 174.75501359440386,142.7112757495779 172.35397307691164,141.29169382966938 169.66012274019886,142.02066929859575 167.93254480673932,139.68026710863342 165.50222330726683,131.81482646553195 166.52705767459702,131.39277169469278 167.2005202586297,133.27282857664977 169.0745031016413,133.5797753460938 169.7479656857904,132.35198609065264 168.9573791739531,128.63021443213802 167.31764418631792,128.39999999999418 166.14640490943566,129.16738064656965 164.36026501236483,129.2824875479273 162.4277202055091,130.47192254007678 157.39139131491538,131.0858223393152 154.31688821315765,132.39035459281877 155.10747472499497,136.45738366126898 153.99479741207324,139.41169501614058 153.93623544834554,147.39200438771513 154.2876072312938,155.37206847892958 155.19531767093576,159.13182136858813" stroke="#4DD2FF" stroke-linecap="round" stroke-linejoin="round" stroke-width="0.5"><title>2025-03-25 3.9km</title><desc>1742910133000</desc></polyline><polyline fill="none" points="40.86924345046282,176.39999999990687 26.443832205608487,188.77512524276972 25.585176775231957,193.95014779665507 30.05018501728773,217.57502737501636 35.88904194906354,218.47501554060727 41.55616779439151,214.20006701606326 39.66712584532797,191.7001401517773 36.40423520747572,186.97511327522807 29.019798499532044,187.42511646659113 26.443832205608487,196.87515276682097 28.676336327567697,216.67503867694177 36.060773035511374,218.70001249876805 41.04097453504801,214.42506460647564 40.35405019111931,190.3501339686336 32.282689137384295,185.40010105865076 27.130756551399827,189.45012918161228 26.615563292056322,213.9750693932874 34.171731086447835,218.47501554060727 40.69751236308366,214.87505968590267 40.86924345046282,194.1751483794069 39.15193258691579,188.32512245047837 34.34346217289567,185.62510290392675 30.221916102804244,185.62510290392675 25.75690786074847,191.47513920406345 26.787294378504157,213.9750693932874 32.7978823967278,218.92500942363404 40.86924345046282,214.87505968590267 40.01058801822364,190.5751350823557 33.31307565513998,185.40010105865076 25.585176775231957,193.05014513793867 26.10037003364414,213.9750693932874 34.68692434486002,218.47501554060727 41.212705622427166,212.40008510032203 40.86924345046282,191.0251372095663 34.85865543130785,184.95009726891294 26.787294378504157,189.45012918161228 25.75690786074847,212.40008510032203 30.565378275699914,218.70001249876805 34.34346217289567,218.92500942363404 41.212705622427166,211.95008928887546 40.01058801822364,188.77512524276972 32.282689137384295,185.17509918066207 26.10037003364414,193.50014653382823 26.959025464951992,214.87505968590267 30.90884044766426,218.47501554060727 36.060773035511374,218.02502152416855 41.72789888083935,211.50009334424976 39.66712584532797,188.77512524276972 31.25230261962861,186.07510649354663 26.10037003364414,193.95014779665507 28.16114306822419,216.45004141971003 34.68692434486002,219.15000631578732 41.212705622427166,215.1000571764307 41.212705622427166,194.40014892769977 40.525781276635826,189.67513042862993 34.68692434486002,184.95009726891294 26.787294378504157,188.10012100462336 26.443832205608487,214.42506460647564 33.48480674158782,218.47501554060727 38.29327715653926,217.57502737501636 41.89962996728718,212.85008077824023 40.525781276635826,190.3501339686336 35.2021176032722,185.17509918066207 28.16114306822419,186.97511327522807 25.75690786074847,191.0251372095663 26.272101119160652,212.40008510032203 34.171731086447835,219.59999999997672 41.72789888083935,216.67503867694177 42.41482322476804,193.27514585282188" stroke="#4DD2FF" stroke-linecap="round" stroke-linejoin="round" stroke-width="0.5"><title>2025-03-24 4.1km</title><desc>1742817301000</desc></polyline><polyline fill="none" points="100.10705345962197,179.48574688204098 96.467235785909,176.9610452608904 91.11456273682415,182.0104451472871 91.75688350293785,209.78190449031536 99.46473269443959,219.0389673373429 109.52775802928954,212.0260450829519 109.09954418521374,183.69357545813546 103.31865729019046,177.2415678286925 90.90045581385493,181.1688794316724 91.75688350293785,210.62345752306283 98.1800911622122,218.47793451044708 102.89044344704598,218.75845094502438 109.52775802928954,212.58707981591579 108.45722341910005,183.41305384365842 99.67883961647749,176.6805226507131 90.68634889274836,184.81566150381695 91.11456273682415,208.94035108399112 98.82241192832589,219.59999999997672 109.09954418521374,213.98966592468787 109.74186495132744,184.2546185636893 97.96598424110562,176.40000000002328 92.18509734701365,181.4494013779331 91.11456273682415,209.50138672953472 100.96348114870489,219.59999999997672 109.09954418521374,213.7091487860307 108.88543726317585,182.0104451472871 97.96598424110562,176.40000000002328 91.54277658089995,184.81566150381695 91.97099042497575,214.27018302236684 99.67883961647749,219.59999999997672 110.17007879540324,213.7091487860307 108.24311649706215,182.0104451472871 101.39169499184936,176.40000000002328 91.75688350293785,183.69357545813546 92.18509734701365,212.0260450829519 99.25062577333301,219.0389673373429 109.52775802928954,214.27018302236684 108.45722341910005,185.65722560312133 97.96598424110562,176.40000000002328 89.61581428349018,184.81566150381695 91.32866965886205,210.3429398870794 96.68134270887822,218.47793451044708 108.67133034020662,214.27018302236684 109.31365110632032,183.41305384365842 101.81990883685648,176.6805226507131 90.25813504867256,183.69357545813546 90.90045581385493,210.0624222093029 99.46473269443959,218.47793451044708 104.38919190131128,218.1974180348916 110.38418571650982,210.90397511736955 109.52775802928954,184.53514005464967 106.10204727668315,178.64418004790787 98.39419808425009,176.6805226507131 90.90045581385493,186.2182681277627 91.97099042497575,211.18449267116375 97.96598424110562,218.75845094502438 109.09954418521374,213.7091487860307 109.31365110632032,183.69357545813546 105.45972651150078,178.08313528448343 96.68134270887822,176.6805226507131 91.32866965886205,184.53514005464967 91.97099042497575,212.58707981591579 98.39419808425009,219.59999999997672 109.74186495132744,213.7091487860307 110.38418571650982,184.53514005464967 102.89044344704598,219.59999999997672" stroke="#4DD2FF" stroke-linecap="round" stroke-linejoin="round" stroke-width="0.5"><title>2025-03-23 4.2km</title><desc>1742719228000</desc></polyline><polyline fill="none" points="160.27003385685384,176.39999999990687 156.45005642715842,181.4049316587625 158.46057086344808,214.5951755597489 168.31209160294384,218.0195306420792 176.55520079284906,208.00985884002876 174.74573780037463,186.9366818832932 162.07949684932828,179.5610111033311 156.2490049842745,189.30742672481574 157.8574165329337,213.80493883800227 164.89421706087887,218.28294229891617 174.74573780037463,212.2244643426966 173.74048058129847,185.35618357046042 163.08475406840444,178.77075885247905 156.2490049842745,185.61960005317815 157.25426220148802,212.75128933077212 165.69842283520848,219.33658853685483 171.12681181449443,217.75611894612666 174.94678924325854,211.43422657006886 174.34363491181284,187.46351434267126 163.28580551128834,179.03417630854528 159.06372519489378,180.08784574235324 155.84690209664404,189.83425848477054 158.05846797674894,214.33176335820463 170.3226060392335,218.0195306420792 177.7615094538778,213.80493883800227 175.14784068707377,186.40984926803503 162.07949684932828,179.8244284427492 155.6458506528288,190.09767430566717 156.45005642715842,211.69763919955585 162.48159973695874,218.54635391675401 173.338377693668,218.80976549559273 174.5446863565594,215.91223598539364 175.5499435737729,189.04401078703813 169.92050315160304,180.8780974088004 163.88895984180272,179.5610111033311 156.85215931478888,185.09276704920921 156.45005642715842,214.06835111719556 167.9099887162447,218.80976549559273 175.14784068707377,210.64398844726384 173.74048058129847,185.09276704920921 166.5026286104694,179.2975937257288 159.46582808252424,179.2975937257288 154.2384905461222,194.57573730975855 158.86267375107855,215.91223598539364 167.306834384799,217.75611894612666 176.55520079284906,210.11716283706482 173.1373262507841,183.51226710167248 161.4763425188139,179.8244284427492 158.05846797674894,181.6683487255359 155.6458506528288,200.3708609736059 159.66687952633947,217.75611894612666 169.5184002649039,218.54635391675401 175.14784068707377,209.85374997346662 172.13206903170794,183.77568385656923 165.296319947578,177.45367099088617 156.65110787097365,182.722016602871 156.85215931478888,213.54152651980985 164.69316561706364,219.59999999997672 175.75099501851946,213.01470176584553 173.74048058129847,184.30251725006383 164.4921141732484,177.45367099088617 156.2490049842745,184.03910057258327 156.45005642715842,211.43422657006886 165.69842283520848,219.0731770361308 174.5446863565594,214.33176335820463 173.74048058129847,187.46351434267126" stroke="#4DD2FF" stroke-linecap="round" stroke-linejoin="round" stroke-width="0.5"><title>2025-03-21 4.2km</title><desc>1742565279000</desc></polyline><polyline fill="none" points="36.12948560481891,226.5600363810081 30.359266547486186,224.40000000002328 28.7106325305067,226.38003349513747 27.74892935389653,246.18019146018196 35.305168596562,249.7801856091246 41.07538765389472,243.84018955903593 37.778119621332735,226.0200276444666 30.90881121903658,225.66002168739215 26.78722617821768,230.3400908317417 30.49665271444246,248.52018886688165 35.442554763983935,250.50018316239584 40.11368447821587,247.08019099500962 39.97629830939695,228.90007147111464 34.06869308371097,225.30001562391408 29.397563370410353,225.84002467943355 26.924612345639616,230.52009313192684 28.8480186983943,247.44019062211737 34.480851587839425,251.22018028993625 39.28936746902764,248.16018955840264 40.11368447821587,229.62008136429358 35.57994093187153,226.0200276444666 27.74892935389653,227.28004765638616 27.474157018121332,244.02018986502662 30.359266547486186,249.7801856091246 33.65653457958251,250.68018248432782 39.28936746902764,247.6201903965557 39.83891214104369,228.72006893181242 38.32766429334879,226.20003058295697 32.28267289977521,225.4800186691573 28.298474026378244,228.1800611532526 27.061998513992876,239.70017518592067 31.458355891518295,250.32018381380476 38.877208965364844,248.8801880691899 40.38845681399107,229.98008615116123 39.83891214104369,227.28004765638616 32.14528673142195,225.66002168739215 28.161087858024985,229.08007398445625 29.947108042426407,247.26019082195126 32.28267289977521,250.32018381380476 39.28936746902764,249.60018615436275 39.97629830939695,234.66013869980816 33.1069899071008,244.92019099509344 31.183583554346114,251.58017869410105 32.420059067197144,267.5999999999767 39.01459513325244,265.6200334940804 40.52584298234433,252.66017326922156 38.32766429334879,227.64005313476082 31.595742059405893,224.76000632939395 26.78722617821768,228.72006893181242 27.74892935389653,244.3801903964486 34.06869308371097,250.86018177948426 39.83891214104369,247.08019099500962 40.52584298234433,229.80008377088234 33.519148411694914,224.5800031783292 28.298474026378244,227.64005313476082 27.886315522249788,246.3601914200699 33.244376075454056,250.50018316239584 39.70152597408742,246.54019135376438 40.25107064517215,228.90007147111464 33.93130691582337,224.5800031783292 29.260177202522755,227.46005040872842 28.985404866281897,248.8801880691899 32.420059067197144,251.76017785689328 36.6790302763693,251.22018028993625 38.877208965364844,247.98018986405805 41.21277382224798,231.06009987322614" stroke="#4DD2FF" stroke-linecap="round" stroke-linejoin="round" stroke-width="0.5"><title>2025-03-10 4.0km</title><desc>1741591515000</desc></polyline><polyline fill="none" points="111.30785992741585,232.70776963524986 99.89431906677783,225.5077047458617 91.01712061930448,231.8769943289226 91.22848248668015,261.50775261502713 97.7807003883645,267.32308009441476 109.1942412480712,260.400069144438 108.56015564501286,234.09239432797767 102.64202334731817,226.61540883628186 90.59439688362181,231.6000691454392 90.38303501531482,261.23083180806134 95.87844357732683,266.21540006098803 109.40560311637819,261.23083180806134 110.03968872036785,234.3693191439379 101.37385214027017,226.0615568733774 91.22848248668015,231.6000691454392 91.86256809066981,261.50775261502713 98.8375097271055,267.0461601470597 106.23517509922385,265.38463960622903 109.82832685206085,259.84622716344893 109.82832685206085,235.75394260848407 101.58521400857717,226.33848287526052 90.8057587519288,232.4308445744682 91.22848248668015,258.7385427112458 99.04887159448117,267.32308009441476 109.61696498375386,260.6769900736399 108.77151751331985,231.32314391992986 97.14661478437483,226.0615568733774 91.22848248668015,231.32314391992986 91.86256809066981,262.61543543008156 100.1056809341535,267.0461601470597 109.61696498375386,260.400069144438 109.40560311637819,235.20009334548377 102.21929961256683,226.0615568733774 94.39891050383449,226.89233475725632 90.17167314887047,231.8769943289226 90.59439688362181,260.1231481740251 98.62614785972983,266.76924015930854 109.40560311637819,260.400069144438 107.9260700410232,230.7692933472572 100.95112840551883,224.39999999990687 89.96031127963215,231.6000691454392 90.59439688362181,260.1231481740251 101.37385214027017,266.76924015930854 108.98287938162684,260.1231481740251 108.3487937785685,231.32314391992986 100.73976653721184,224.67692624765914 88.69214007351547,232.98469465586822 91.01712061930448,262.06159410381224 103.4874708186835,266.76924015930854 109.1942412480712,260.9539109613979 108.13743191026151,229.9385171821341 97.14661478437483,225.7846308297012 90.59439688362181,231.32314391992986 90.59439688362181,260.1231481740251 101.37385214027017,267.0461601470597 109.61696498375386,260.400069144438 110.03968872036785,232.98469465586822 100.52840466983616,225.7846308297012 90.17167314887047,233.8154694713885 90.8057587519288,262.89235603192355 97.7807003883645,267.5999999999767 108.56015564501286,260.400069144438 111.09649805817753,232.70776963524986" stroke="#4DD2FF" stroke-linecap="round" stroke-linejoin="round" stroke-width="0.5"><title>2025-03-09 4.1km</title><desc>1741514669000</desc></polyline><polyline fill="none" points="158.43439210392535,249.55079826468136 165.43540239613503,264.04935021535493 171.30721748061478,264.34523793822154 178.30822777282447,257.24392053391784 174.69480310566723,224.69589358044323 159.11190922837704,224.40000000002328 153.2400941438973,231.20554128929507 162.04781677015126,260.20280584529974 175.8239983143285,262.865798888728 179.88910106476396,250.14257795002777 174.9206421468407,231.20554128929507 178.98574489820749,228.54250614787452 155.72432360239327,238.0110594513826 156.85351881105453,234.46035720861983 165.43540239613503,239.78640821226873 162.04781677015126,246.29600686999038 164.30620718747377,264.04935021535493 174.243125022389,263.7534624497639 179.21158394031227,256.060365185258 170.40386131312698,227.0630406504497 156.85351881105453,225.58357405941933 152.11089893523604,232.9808960831724 159.3377482695505,249.84668812947348 158.88607018627226,259.6110291336663 170.17802227195352,267.3041127580218 176.5015154397115,255.76447623886634 172.88809077162296,230.6137560082134 160.69278251938522,224.69589358044323 152.78841606061906,231.20554128929507 157.9827140197158,261.9781349344412 171.53305652178824,267.5999999999767 177.17903256509453,259.0192522458965 175.8239983143285,226.47125414467882 160.91862156242132,225.58357405941933 157.30519689340144,239.19462546694558" stroke="#4DD2FF" stroke-linecap="round" stroke-linejoin="round" stroke-width="0.5"><title>2025-03-05 1.9km</title><desc>1741161630000</desc></polyline></svg>