<?xml version="1.0" encoding="utf-8" ?>
<svg baseProfile="full" height="300mm" version="1.1" viewBox="0,0,200,300" width="200mm" xmlns="http://www.w3.org/2000/svg" xmlns:ev="http://www.w3.org/2001/xml-events" xmlns:xlink="http://www.w3.org/1999/xlink"><defs /><rect fill="#222222" height="300" width="200" x="0" y="0" /><text fill="#FFFFFF" style="font-size:12px; font-family:Arial; font-weight:bold;" x="10" y="20">Over 10km Runs</text><text fill="#FFFFFF" style="font-size:4px; font-family:Arial" x="10" y="280">ATHLETE</text><text fill="#FFFFFF" style="font-size:9px; font-family:Arial" x="10" y="290">TXyy2025</text><text fill="#FFFFFF" style="font-size:4px; font-family:Arial" x="65" y="280">SPECIAL TRACKS</text><rect fill="yellow" height="2.6" width="2.6" x="65" y="283" /><text fill="#FFFFFF" style="font-size:3px; font-family:Arial" x="70" y="285.5">Over 20.0 km</text><rect fill="red" height="2.6" width="2.6" x="65" y="287" /><text fill="#FFFFFF" style="font-size:3px; font-family:Arial" x="70" y="289.5">Over 40.0 km</text><text fill="#FFFFFF" style="font-size:4px; font-family:Arial" x="120" y="280">STATISTICS</text><text fill="#FFFFFF" style="font-size:3px; font-family:Arial" x="120" y="285">Number: 28</text><text fill="#FFFFFF" style="font-size:3px; font-family:Arial" x="120" y="290">Weekly: 3.1</text><text fill="#FFFFFF" style="font-size:3px; font-family:Arial" x="141" y="285">Total: 189.3 km</text><text fill="#FFFFFF" style="font-size:3px; font-family:Arial" x="141" y="290">Avg: 6.8 km</text><text fill="#FFFFFF" style="font-size:3px; font-family:Arial" x="167" y="285">Min: 1.5 km</text><text fill="#FFFFFF" style="font-size:3px; font-family:Arial" x="167" y="290">Max: 35.9 km</text><polyline fill="none" points="22.40795380808413,33.7537958342582 20.54393841093406,31.79999999993015 23.402095353230834,37.82419269694947 26.26025229599327,58.99001402268186 28.497070772573352,62.083446167525835 31.603763101622462,62.73469393362757 34.95899081695825,58.82720156421419 32.97070772619918,40.917684256564826 30.112550784368068,37.82419269694947 25.63891383027658,41.73175953968894 28.372803079895675,62.57188202801626 34.71045543020591,60.129700560471974 34.08911696448922,42.708649085485376 29.739747704472393,37.661377110751346 26.508787682279944,38.14982379646972 23.65063073998317,42.54583422164433 24.644772285129875,56.87345018412452 27.130126148462296,62.083446167525835 32.8464400335215,62.409070098772645 35.083258509170264,57.524701029178686 34.33765235124156,40.42923879832961 29.615480011329055,37.98700825846754 24.644772285129875,40.917684256564826 25.390378443989903,58.82720156421419 27.37866153428331,62.409070098772645 34.71045543020591,59.80407595564611 35.20752620277926,53.12875035672914 33.46777849877253,40.10360837250482 29.118409238755703,38.14982379646972 26.135984603315592,40.42923879832961 25.01757536455989,55.57094733940903 27.37866153428331,61.92063416587189 34.586187737528235,60.78094948071521 35.4560615895316,50.03529307525605 33.09497541934252,37.17293020908255 25.390378443989903,40.42923879832961 24.520504591520876,57.36188835359644 27.130126148462296,62.73469393362757 34.461920043919235,60.45532506832387 34.461920043919235,42.383019333006814 30.858156942296773,37.82419269694947 25.141843058168888,40.59205397509504 24.769039978273213,53.78000341448933 28.124267693143338,62.73469393362757 34.71045543020591,58.664389081764966 34.83472312334925,43.03427874168847 29.98828309075907,37.49856150068808 24.3962368988432,41.89457452390343 25.51464613713324,59.15282645763364 28.372803079895675,62.89750581502449 32.22510156733915,62.73469393362757 34.461920043919235,59.64126361743547 34.586187737528235,41.2433144422248 32.100833874195814,37.661377110751346 28.869873852469027,37.49856150068808 24.3962368988432,41.08049936173484 25.141843058168888,57.524701029178686 27.50292922789231,62.73469393362757 34.21338465763256,59.80407595564611 34.71045543020591,41.73175953968894 30.361086170189083,37.49856150068808 25.266110750846565,38.96390112407971 24.520504591520876,41.08049936173484 25.141843058168888,59.15282645763364 30.236818476580083,62.73469393362757 34.33765235124156,58.82720156421419 35.4560615895316,40.917684256564826 21.413812262937427,36.19603575579822 25.763181523885578,62.57188202801626 32.100833874195814,63.711564860655926 33.964849271811545,61.757822140003555 33.840581578202546,43.52272304520011 28.372803079895675,39.45234723179601 24.147701512556523,42.54583422164433 24.893307671882212,60.618137286626734 27.254393841139972,63.54875309986528 30.858156942296773,63.54875309986528 34.83472312334925,59.15282645763364 34.71045543020591,43.84835246100556 31.7280307947658,39.12671651726123 29.118409238755703,38.96390112407971 23.526363046839833,45.31368363997899 27.005858454853296,64.19999999995343 31.8522984883748,64.19999999995343 34.33765235124156,60.943761650822125 34.08911696448922,43.19709353346843 28.124267693143338,39.615162552916445 23.526363046839833,44.98805465758778 24.3962368988432,60.943761650822125 27.37866153428331,64.19999999995343 29.98828309075907,63.87437659816351 34.33765235124156,60.129700560471974 34.21338465763256,43.19709353346843 31.479495408479124,39.12671651726123 28.372803079895675,38.63827026472427 23.526363046839833,44.3367964043282 24.023433819878846,60.943761650822125 29.36694462504238,63.87437659816351 33.71631388505921,60.943761650822125 34.08911696448922,45.964941316866316" stroke="#4DD2FF" stroke-linecap="round" stroke-linejoin="round" stroke-width="0.5"><title>2025-05-04 6.1km</title><desc>1746359904000</desc></polyline><polyline fill="none" points="60.06511627929285,45.66919887790573 58.265116279246286,44.73681238727295 55.46046511619352,44.84650503686862 54.623255813959986,45.88858359406004 55.795348837273195,48.13726946042152 54.83255813946016,49.67294954121462 53.11627906979993,49.67294954121462 52.3627906977199,51.0989324990951 49.683720930246636,50.00202301767422 48.17674418608658,50.98924169692327 47.800000000046566,57.95454332331428 50.98139534913935,58.72236385161523 52.44651162810624,57.18672120699193 52.739534883759916,49.72779514105059 54.0372093024198,49.17933877953328 56.33953488385305,49.45356706154416 60.27441860479303,53.89603700576117 61.65581395360641,51.48285005192156 60.98604651167989,51.0989324990951 62.70232558134012,50.33109620245523 76.47441860451363,50.715014549321495 78.94418604648672,46.711275125446264 80.19999999995343,39.9651507435774 67.09767441870645,38.813361156819155 63.70697674411349,37.27763614838477 58.30697674420662,37.71641537055257 58.18139534885995,38.97790274510044" stroke="#4DD2FF" stroke-linecap="round" stroke-linejoin="round" stroke-width="0.5"><title>2025-05-03 2.0km</title><desc>1746279724000</desc></polyline><polyline fill="none" points="94.06811471056426,64.19999999999709 94.08099611173384,63.32489951081516 94.89252439246047,61.69248267621151 96.28371573070763,60.497606141507276 97.21117662283359,59.067103775909345 96.87626018951414,57.48511567643436 98.0613491073018,55.65065534281166 98.73118197388249,55.330884024362604 98.87287738797022,54.96062138380512 98.67965636879671,54.506206509206095 99.22067522251746,54.05178983396763 99.61999866220867,53.260763918697194 99.72304987243842,51.79651006012864 99.32372643280542,50.53420724445459 99.5555916557787,49.67583339277917 101.29458082857309,48.564987105317414 101.52644605166279,47.571948738594074 101.83559968235204,47.353142518535606 101.61661586060654,45.11456258789258 101.16576681582956,43.869017989200074 101.47492044651881,41.546209486274165 102.53119535150472,39.66099697736354 103.67764006537618,38.71837909885653 104.74679637164809,38.38172797852167 104.57933815498836,38.26389985280548 104.84984758187784,37.79258613926504 104.63086376007413,37.75892079987534 105.01730579847936,37.32127048827533 104.81120337801985,37.35493595614389 105.33934083051281,37.001448050214094 105.54544325103052,37.42226686228241 105.89324108557776,36.546961998297775 105.86747828300577,35.890478964938666 105.45527344202856,35.738982346512785 105.5712060535443,35.284491290090955 105.12035700876731,35.065661620341416 105.22340821899706,34.88049772740487 105.03018719976535,34.829998431989225 104.66950796393212,35.536986543818784 104.7210335690761,34.49333589401067 105.04306860105135,34.106172753177816 104.78544057544786,32.97834223918471 105.04306860105135,32.47333990535844 104.81120337801985,32.03566941670579 104.18001471529715,31.80000000000291 103.09797700779745,32.742674760200316 102.75017917330842,32.65850768603559 103.40713063854491,32.54067367838434 104.19289611658314,31.901001237878518 104.79832197673386,32.08616994300246 105.00442439725157,32.42283954965387 104.78544057544786,33.146675856085494 105.01730579847936,34.022006679959304 104.7081521677901,34.49333589401067 104.69527076650411,35.3854894582837 105.00442439725157,34.89733082089515 105.5712060535443,35.200326081889216 105.41662923822878,35.72214937652461 105.93188528943574,35.83998011435324 105.91900388809154,36.42913198707538 105.67425726383226,36.44596485319926 105.7773084740038,36.95094968898047 105.59696885611629,36.934116896940395 105.48103624460055,37.47276501592569 105.26205242279684,37.11927747327718 104.86272898316383,37.43909958265431 105.08171280490933,37.3381032234538 104.68238936521811,37.843084129803174 104.66950796393212,38.482723418397654 103.70340286788996,38.836206757463515 102.363737134845,39.980811996851116 101.64237866312033,41.5630416011918 101.15288541454356,43.81852265256748 101.64237866312033,45.03040459527256 101.74542987340828,46.49474485403334 102.05458350409754,46.84820349414076 101.9128880900098,47.43729880641331 101.38475063757505,47.858079319426906 101.33322503243107,48.76695995804039 100.08372910827165,49.27189053337497 99.49118464940693,49.928296957303246 99.45254044554895,51.2242678387629 99.95491509552812,51.661865088484774 99.69728706986643,53.395407013034855 98.53796095465077,54.72499908100872 98.67965636879671,55.28039373465435 98.08711190987378,55.78529563112534 97.00507420237409,57.56926452911284 97.31422783300513,59.067103775909345 96.86337878828635,59.9590661686816 95.98744350124616,60.98565580754075 94.94404999754624,61.69248267621151 94.69930337328697,62.180527257500216" stroke="#4DD2FF" stroke-linecap="round" stroke-linejoin="round" stroke-width="0.5"><title>2025-05-02 5.2km</title><desc>1746153801000</desc></polyline><polyline fill="none" points="121.33372781146318,50.251526925712824 123.250887574628,56.755849013105035 145.10650887619704,55.75518568686675 151.43313609529287,53.00335851998534 149.89940828364342,40.745165522093885 125.16804733779281,38.743819544208236 120.95029585808516,45.74852021760307 122.10059171635658,56.755849013105035 149.32426035497338,54.50435570534319 150.28284023702145,39.49432456016075 124.40118343289942,39.744492825935595 122.29230769351125,44.747850448824465 123.44260355178267,56.755849013105035 150.66627218946815,54.25418959965464 149.7076923083514,40.745165522093885 123.05917159840465,40.49499740253668 121.9088757392019,56.25551742245443 150.4745562132448,53.5036910623312 149.89940828364342,41.49566965957638 125.35976331401616,40.24482924735639 121.9088757392019,41.74583763256669 122.29230769351125,56.505683236173354 152.0082840230316,51.752526527037844 151.04970414191484,41.74583763256669 127.660355030559,39.744492825935595 122.29230769351125,41.245501649798825 120.3751479294151,55.50501976360101 150.66627218946815,54.50435570534319 151.62485207151622,39.994661055272445 122.86745562124997,40.49499740253668 123.250887574628,57.256180455791764 147.02366863843054,55.00468780763913 152.20000000018626,49.751193432020955 151.62485207151622,41.996005568420514 147.79053254425526,40.24482924735639 121.9088757392019,40.24482924735639 120.3751479294151,50.251526925712824 122.4840236697346,56.505683236173354 152.0082840230316,54.004023457178846 150.66627218946815,39.744492825935595 124.40118343289942,39.744492825935595 122.10059171635658,56.25551742245443 151.43313609529287,52.25285943422932 150.85798816662282,40.49499740253668 146.8319526631385,38.993987919879146 121.9088757392019,40.99533360416535 122.86745562124997,56.505683236173354 152.20000000018626,53.00335851998534 151.04970414191484,40.24482924735639 120.56686390563846,40.99533360416535 122.29230769351125,56.25551742245443 146.0650887573138,54.25418959965464 151.43313609529287,52.25285943422932 150.28284023702145,40.99533360416535 123.82603550329804,39.49432456016075 119.79999999981374,49.00069291878026" stroke="#4DD2FF" stroke-linecap="round" stroke-linejoin="round" stroke-width="0.5"><title>2025-05-01 4.2km</title><desc>1746070962000</desc></polyline><polyline fill="none" points="184.72857142984867,39.91432598698884 186.27142857387662,60.128528938861564 180.8714285735041,48.000021503074095 168.52857142873108,55.58034369000234 156.57142857275903,53.05357149336487 172.77142857387662,45.47324370755814 183.18571428768337,49.01073209871538 162.7428571432829,53.558926082681865 172.77142857387662,42.44110788893886 165.05714285746217,52.5482168297749 161.2000000011176,47.49466609349474 168.14285714179277,55.07498939940706 170.842857144773,46.989310609176755 186.27142857387662,50.52679743152112 166.2142857145518,52.04286209214479 174.31428571604192,51.53750728047453 172.38571428880095,43.451820126734674 169.68571428582072,50.52679743152112 180.10000000149012,50.52679743152112 174.31428571604192,43.451820126734674 176.6285714302212,48.000021503074095 181.2571428604424,41.935751657234505 185.50000000186265,45.97859941562638 172.00000000186265,48.50537683768198 178.5571428593248,44.967887924052775 187.81428571790457,52.04286209214479 157.342857144773,47.49466609349474 186.65714286081493,46.989310609176755 185.50000000186265,55.07498939940706 164.6714285723865,44.967887924052775 171.22857142984867,43.451820126734674 173.5428571458906,50.52679743152112 163.51428571529686,42.44110788893886 178.1714285723865,41.935751657234505 170.07142857275903,46.48395505012013 181.2571428604424,44.46253206720576 185.11428571678698,53.05357149336487 161.58571428619325,48.000021503074095 162.35714285820723,36.37682818877511 184.342857144773,44.46253206720576 174.31428571604192,43.451820126734674 180.10000000149012,38.39825594960712 165.8285714313388,46.48395505012013 183.9571428578347,45.97859941562638 155.80000000074506,51.53750728047453 175.85714286006987,45.47324370755814 172.00000000186265,37.89289912185632 170.4571428578347,47.49466609349474 158.5,45.97859941562638 187.04285714402795,47.49466609349474 171.61428571492434,43.95717613468878 172.00000000186265,50.02144239586778 185.88571428880095,45.47324370755814 168.9142857156694,49.51608728407882 187.42857143096626,42.44110788893886 163.90000000037253,41.43039535195567 186.65714286081493,49.51608728407882 156.18571428582072,47.49466609349474 172.77142857387662,45.97859941562638 169.30000000074506,56.59105204464868 168.9142857156694,51.032152394298464 157.342857144773,50.02144239586778 177.01428571529686,52.04286209214479 185.50000000186265,44.46253206720576 186.27142857387662,52.5482168297749 177.78571428731084,56.59105204464868 161.2000000011176,47.49466609349474 170.07142857275903,46.48395505012013 166.60000000149012,53.05357149336487 166.98571428656578,45.97859941562638 163.12857142835855,50.52679743152112 182.02857143059373,49.51608728407882 187.04285714402795,41.43039535195567 187.04285714402795,52.5482168297749 176.2428571432829,45.97859941562638 185.88571428880095,55.58034369000234 180.8714285735041,52.5482168297749 185.88571428880095,45.47324370755814 173.9285714291036,48.50537683768198 187.42857143096626,43.451820126734674 188.2000000011176,35.871471061138436" stroke="#4DD2FF" stroke-linecap="round" stroke-linejoin="round" stroke-width="0.5"><title>2025-04-27 2.3km</title><desc>1745759770000</desc></polyline><polyline fill="none" points="30.044660195708275,89.21215143613517 36.33592233248055,83.03009452787228 21.236893204972148,83.44223208143376 21.236893204972148,89.6242880767677 36.96504854597151,88.38787797326222 30.044660195708275,92.50924285245128 27.842718448489904,86.32719325064681 15.574757283553481,84.26650700625032 20.293203884735703,83.03009452787228 41.05436893180013,88.80001473450102 23.43883495219052,89.21215143613517 33.50485436990857,90.44856117432937 15.889320390298963,95.39419464417733 33.81941747665405,88.38787797326222 37.27961165085435,93.7456511282362 16.518446603789926,88.38787797326222 25.64077669940889,94.56992300786078 21.55145631171763,92.097106637666 35.07766990363598,89.21215143613517 29.730097088962793,95.80633037071675 22.180582525208592,87.97574114985764 31.3029126226902,87.97574114985764 34.7631067968905,90.0364246557001 28.471844660118222,93.7456511282362 30.044660195708275,87.97574114985764 16.203883497044444,93.7456511282362 11.800000000745058,90.44856117432937 28.471844660118222,95.39419464417733 35.70679611898959,91.27283402741887 17.14757281728089,90.86069763125852 29.415533982217312,94.15778709808365 22.495145631954074,93.33351509645581 25.95533980615437,97.45487266848795 33.81941747665405,92.097106637666 17.46213592402637,87.56360426684842 32.246601942926645,86.73933031689376 26.58446602150798,90.44856117432937 31.617475729435682,91.68497036281042 19.349514566361904,91.27283402741887 40.42524272017181,92.097106637666 15.889320390298963,93.7456511282362 28.15728155337274,97.45487266848795 20.293203884735703,94.15778709808365 32.246601942926645,92.92137900483795 30.673786409199238,97.86700809141621 17.776699028909206,95.39419464417733 25.64077669940889,92.92137900483795 29.10097087547183,97.86700809141621 32.87572815641761,92.50924285245128 21.236893204972148,93.33351509645581 33.19029126316309,95.39419464417733 36.650485437363386,89.6242880767677 25.011650485917926,94.9820588559378 33.50485436990857,88.38787797326222 25.326213594526052,93.33351509645581 41.683495147153735,89.6242880767677 32.246601942926645,93.7456511282362 24.382524272426963,86.32719325064681 26.899029126390815,90.44856117432937 37.90873786620796,87.97574114985764 25.95533980615437,94.9820588559378 41.99805825203657,85.09078168706037 36.33592233248055,90.86069763125852 23.43883495219052,90.86069763125852 19.66407767124474,97.45487266848795 18.405825244262815,90.86069763125852 36.02135922387242,96.63060164125636 30.673786409199238,94.56992300786078 36.33592233248055,90.86069763125852 22.809708738699555,93.7456511282362 33.81941747665405,91.68497036281042 34.44854369200766,79.73299190844409 30.98834951594472,92.097106637666 39.16699029318988,92.50924285245128 30.044660195708275,96.21846603602171 31.93203883804381,89.6242880767677 27.528155341744423,90.86069763125852 41.05436893180013,92.097106637666 15.889320390298963,95.80633037071675 20.607766991481185,90.86069763125852 14.631067963317037,89.21215143613517 30.044660195708275,90.86069763125852 29.730097088962793,94.9820588559378 19.66407767124474,95.39419464417733 32.87572815641761,95.39419464417733 37.594174759462476,89.21215143613517 25.95533980615437,84.67864437634125 27.842718448489904,87.97574114985764 16.833009710535407,90.86069763125852 22.495145631954074,81.79368150257505 28.78640776872635,86.73933031689376 22.180582525208592,92.097106637666 41.368932040408254,91.27283402741887 42.62718446739018,86.73933031689376 32.87572815641761,92.097106637666 29.10097087547183,88.38787797326222 39.16699029318988,86.73933031689376 35.70679611898959,91.68497036281042 22.495145631954074,87.15146732260473 34.7631067968905,91.68497036281042 19.66407767124474,90.44856117432937 27.21359223499894,94.15778709808365 41.368932040408254,90.0364246557001 36.650485437363386,93.7456511282362 29.730097088962793,88.38787797326222 36.02135922387242,89.21215143613517 28.78640776872635,96.21846603602171 30.98834951594472,90.44856117432937 44.20000000111759,88.80001473450102" stroke="#4DD2FF" stroke-linecap="round" stroke-linejoin="round" stroke-width="0.5"><title>2025-04-26 3.2km</title><desc>1745672895000</desc></polyline><polyline fill="none" points="60.96517150395084,97.97778588779329 59.91081794211641,98.08993353368714 58.17255936691072,96.89368940680288 56.69076517166104,93.82828793769295 57.37467018479947,93.75352158285386 58.0870712401811,96.03388543662732 59.39788918220438,97.5291948056256 64.64116094994824,98.87496565897891 65.23957783647347,98.72543591877911 64.66965699219145,98.8002007999894 63.92875989456661,96.81892396052717 61.763060685945675,94.1647362603253 61.649076517205685,93.56660559875309 61.25013192615006,93.52922238536121 61.791556728305295,92.74417362327222 61.96253298164811,90.57593101622479 62.95989445922896,90.68808195303427 63.35883905028459,89.2674997364229 62.87440633261576,88.37028579330945 62.70343007927295,88.8188931636978 62.87440633261576,87.84690951929952 60.16728232195601,86.27677418154781 59.654353562160395,85.15524295635987 55.86437994730659,81.86538926084177 54.55356200528331,79.36058551618771 52.01741424808279,78.87457593799627 49.59525065962225,80.14567593339598 47.800000000046566,78.72503434101236 49.56675461761188,80.07090552271984 52.188390501309186,78.94934670328803 54.610554089653306,79.43535613728454 56.0923482850194,82.20185354043497 60.16728232195601,86.0150840083661 65.38205804757308,89.11796430083632 67.17730870726518,89.641337937559 68.54511873354204,88.9310448817414 69.8844327176921,90.27686160781013 75.15620052767918,87.39830042012909 76.69498680741526,87.24876387645782 79.25963060685899,89.94040809945727 80.20000000006985,90.16471048827225 78.00580474932212,89.04319654979918 76.83746701839846,87.39830042012909 75.3841688655084,87.47306865866994 69.9414248020621,90.27686160781013 68.20316622697283,88.8936609813245 67.23430079163518,89.7161055112083 62.95989445922896,87.84690951929952 62.076517150504515,89.9777918447362 61.7345646439353,92.96847351890756 62.218997361604124,96.96845483088691 61.763060685945675,98.08993353368714 58.20105540903751,96.85630668645899 57.31767810031306,95.2862274281797 57.34617414243985,94.2395024932921" stroke="#4DD2FF" stroke-linecap="round" stroke-linejoin="round" stroke-width="0.5"><title>2025-04-24 3.3km</title><desc>1745457116000</desc></polyline><polyline fill="none" points="116.20000000018626,86.5837733137887 114.83373493980616,89.65245267673163 112.03614457859658,90.50486071425257 92.19277108437382,91.7834704091656 93.55903614475392,89.9934160427656 91.1518072290346,83.1741104341927 88.41927710874006,83.00362676125951 85.29638554225676,86.6690146275796 84.58072289149277,93.4030386218219 88.093975903932,95.61928249301855 89.98072289163247,95.27832245151512 91.2819277108647,92.46539442124777 90.30602409644052,81.81023964018095 87.76867469889112,82.57741735852323 85.3614457831718,86.49853198748315 85.94698795187287,94.68164189421805 89.59036144590937,94.59640176425455 91.21686747018248,92.12443251616787 90.95662650628947,84.45273637532955 88.67951807240024,82.2364496095106 87.05301204835996,82.57741735852323 84.71084337378852,86.92473849357339 85.68674698821269,94.42592146643437 87.89879518095404,95.70452247181674 90.95662650628947,94.7668820116669 90.7614457833115,81.72499760828214 88.02891566301696,82.2364496095106 85.81686747027561,84.6232196202618 85.23132530134171,88.20335612271447 86.07710843370296,94.25544111826457 87.37831325293519,95.44880249758717 90.24096385575831,94.9373622086714 91.41204819292761,92.20967301120982 90.56626506033354,84.36749473417876 89.46024096407928,82.91838490596274 86.53253012080677,82.83314303791849 83.80000000004657,86.07232516637305 85.3614457831718,94.17020092520397 89.59036144590937,95.70452247181674 91.41204819292761,93.14731762744486 90.89156626514159,84.28225308039691 88.22409638552926,82.66265926422784 85.81686747027561,83.77080289274454 84.71084337378852,86.07232516637305 86.98795180744492,95.02260228828527 89.46024096407928,95.7897624381585 91.60722891567275,92.6358752985252 91.1518072290346,85.73135948320851 90.24096385575831,83.77080289274454 87.18313253019005,82.66265926422784 84.9710843374487,84.96418595855357 85.81686747027561,93.4030386218219 87.37831325293519,95.19308240985265 90.69638554239646,94.85212211636826 91.2819277108647,88.71480238088407 90.69638554239646,84.11176973494003 86.53253012080677,82.66265926422784 84.90602409653366,85.04942751169438 85.42650602431968,91.3572674926254 85.81686747027561,94.34068129857769 87.96385542186908,95.87500239169458 91.08674698788673,93.99972050177166 90.95662650628947,84.36749473417876 88.093975903932,82.57741735852323 85.29638554225676,84.87894439283991 85.62168674729764,93.57351922185626 88.41927710874006,95.61928249301855 91.2819277108647,93.4030386218219 91.2819277108647,85.1346690520295" stroke="#4DD2FF" stroke-linecap="round" stroke-linejoin="round" stroke-width="0.5"><title>2025-04-20 4.3km</title><desc>1745155370000</desc></polyline><polyline fill="none" points="142.10307212918997,89.42317013000138 127.04354349989444,78.62313343060669 131.16509870346636,98.97697958396748 136.07926067709923,104.7923100705957 140.6763799432665,104.16924009774812 144.48089243937284,99.60005185799673 143.37124296091497,80.70007000956684 137.98151692561805,73.63847312226426 134.81108984537423,74.05386215634644 131.0065773492679,79.6616021032678 132.11622682772577,99.80774255446158 136.71334609296173,105.0 143.2127216067165,102.71540908701718 142.89567889925092,78.62313343060669 138.7741236947477,72.59999999997672 131.48214141093194,75.50772280909587 132.27474818192422,98.56159791431855 136.71334609296173,104.58462011045776 143.84680702351034,100.43081446096767 144.63941379263997,79.86929574608803 140.83490129746497,74.26155662781093 135.4451752603054,74.26155662781093 130.84805599600077,78.41543960443232 132.27474818192422,101.05388609063812 137.66447421815246,105.0 144.79793514776975,97.73083420668263 143.52976431604475,77.37697001057677 138.93264504987746,72.80769468611106 130.21397057920694,79.86929574608803 132.75031224358827,101.88464783423115 139.0911664031446,105.0 144.32237108517438,100.8461955783423 143.52976431604475,78.20774574659299 141.15194400586188,74.46925106772687 135.4451752603054,73.43077855883166 131.0065773492679,80.07698935782537 131.79918411932886,100.01543322089128 134.65256849117577,103.75385996256955 140.83490129746497,104.16924009774812 144.63941379263997,97.73083420668263 143.52976431604475,78.62313343060669 136.39630338549614,74.05386215634644 130.84805599600077,80.28468293894548 132.11622682772577,101.05388609063812 135.4451752603054,104.7923100705957 144.32237108517438,100.8461955783423 144.32237108517438,81.11545695655514 137.66447421815246,72.80769468611106 131.16509870346636,77.58466399041936 131.0065773492679,98.56159791431855 133.06735495198518,102.92309932329226 138.4570809872821,105.0 144.95645650103688,100.01543322089128 143.52976431604475,78.00005185895134 138.14003827888519,73.01538934092969 130.6895346418023,80.07698935782537 131.6406627651304,98.353907033219 135.4451752603054,104.58462011045776 144.0053283777088,101.2615765723167 143.84680702351034,79.45390843041241 139.0911664031446,73.63847312226426 132.11622682772577,76.75388788653072 131.0065773492679,97.93852517951746 135.4451752603054,104.37693011958618 144.16384973097593,101.05388609063812 144.63941379263997,80.90776349848602" stroke="#4DD2FF" stroke-linecap="round" stroke-linejoin="round" stroke-width="0.5"><title>2025-04-19 4.1km</title><desc>1745066356000</desc></polyline><polyline fill="none" points="172.32538598496467,74.94476126506925 167.11921022180468,74.09212124580517 164.02804336231202,78.56847572489642 165.32958730310202,97.96585130936 170.04768408928066,103.93422210006975 179.48387765977532,100.09741514048073 179.8092636456713,79.42111309850588 178.34502671193331,75.58424094854854 171.837307007052,72.59999999997672 165.16689431015402,77.92899736424442 166.46843825094402,101.16319587477483 170.53576306719333,104.78684448311105 176.71809678617865,104.14737774268724 178.99579868279397,98.60532078961842 179.6465706527233,79.20795380196068 178.34502671193331,75.15792119130492 172.162692992948,73.23948072316125 165.32958730310202,77.50267829932272 167.28190321475267,101.37635192682501 174.765780874528,104.14737774268724 179.8092636456713,98.81847721978556 178.99579868279397,80.48690910707228 171.674614014104,73.87896116252523 164.84150832518935,78.78163511515595 165.81766628101468,98.39216432755347 172.32538598496467,104.78684448311105 177.04348277114332,103.08159921271726 179.15849167481065,96.90006821288262 178.83310568984598,77.71583784709219 172.81346496287733,73.02632051345427 165.00420131813735,79.84743159613572 165.65497328806669,96.90006821288262 171.674614014104,104.36053335445467 178.67041269689798,100.73688367533032 178.99579868279397,79.42111309850588 172.81346496287733,73.02632051345427 165.81766628101468,78.35531630262267 165.65497328806669,98.60532078961842 167.9326751837507,102.65528758033179 174.765780874528,103.5079107193742 179.32118466775864,97.75269475323148 178.67041269689798,77.0763591080904 175.41655284538865,73.45264090097044 169.07152613345534,73.23948072316125 165.16689431015402,80.27374996850267 166.631131243892,101.37635192682501 173.30154394079,104.57368893467356 178.18233371898532,100.73688367533032 178.18233371898532,82.19218108290806 173.62692992575467,74.73160130775068 169.88499109540135,73.87896116252523 164.67881533224136,78.14215684891678 165.65497328806669,97.53953816567082 173.464236933738,105.0 178.01964072696865,102.22897582186852 179.97195663768798,83.68429240852129 178.5077197048813,75.79740078013856 174.928473867476,73.02632051345427 165.65497328806669,78.56847572489642 166.30574525892735,101.16319587477483 169.39691211748868,104.36053335445467 178.01964072696865,101.58950794802513 178.5077197048813,82.40533993788995 172.65077196992934,73.87896116252523 166.14305226597935,76.43688008585013 165.65497328806669,98.39216432755347 168.42075416259468,103.72106642497238 177.04348277114332,102.86844341247343 179.6465706527233,80.91322728991508" stroke="#4DD2FF" stroke-linecap="round" stroke-linejoin="round" stroke-width="0.5"><title>2025-04-17 3.9km</title><desc>1744894073000</desc></polyline><polyline fill="none" points="12.725279712074553,135.12649443178452 12.897660589951556,135.2261299929687 13.391988107352518,135.1098884619896 13.688584617804736,134.93054320660303 14.215867303035338,134.8275850987502 14.438948439084925,134.87408236713054 14.7101948204363,134.78108773419262 15.458023628831143,134.64823759125466 16.066426727178623,134.45892478109636 16.852280729202903,134.1367572111376 17.19197245912801,134.07365168245815 17.87389093184902,134.1832559084014 18.08683201628446,134.1433998880657 19.772615601294092,134.46224607220938 21.836116109858267,135.49182266405842 23.509224630324752,135.7475488944874 23.62076519835682,135.87375037781203 23.750050856746384,135.93020870679902 24.543509897514014,136.0630512745647 24.73617087864841,135.92024548257723 26.508144902603817,136.16932476363763 27.633690634538652,136.07301443550205 29.76056646586221,136.3420181120091 29.562835458884365,136.28223979537688 29.968437524454203,135.60141997613573 30.363899538380792,134.47553123174657 30.779641655593878,133.83119195071595 31.028072920744307,133.32633589847683 32.189108833437786,130.6225059081462 32.81018699632841,129.40999493543677 33.18536890698306,128.36352876407727 33.78363195368729,127.5828000396832 34.703841639944585,128.41336159152343 35.69503168767551,129.96144639206068 35.69756670057541,130.0511390242973 35.26661450591928,131.01448176508347 35.43646037086728,131.8714899113711 36.28822470855084,132.3797002383253 37.11970894297701,132.2933385095057 37.59122134419158,132.35644903628054 37.65459666693641,132.46938322090136 37.62164149910677,133.1170830268038 37.66980674439401,133.233334862658 37.80923245442682,133.40937221245076 38.044988655048655,133.52894396573902 38.2452546749264,133.71826460768352 38.470870823875885,133.99726054229177 38.53931617244962,134.0138673339752 38.6077615210088,133.94411872646378 38.584946404822404,133.695014790168 38.79535247635795,133.3196929800979 38.970268367105746,132.6852852298798 39.06659885769477,132.60888937146228 39.16546436116914,132.58895997438958 39.35559032940364,132.6520696711632 39.77133244660217,132.58563840648821 40.237774822016945,132.69524988792 40.39241060950735,132.87793450253412 40.658586965029826,132.87461297733353 40.699147171588265,133.01079510790623 40.54704639699776,133.23665633484234 40.7549174556043,133.51565824678073 41.2974102182925,133.65847931405733 41.50274626399914,133.83783471793504 41.703012283862336,133.90758365521106 42.357045614597155,134.32275142309663 42.782927783438936,134.38253495013305 43.107409435891896,134.6914139738201 43.13275956497819,134.86079744311792 42.97812377748778,135.04678566489747 42.90714341601415,135.25269940138423 42.67392222832132,135.62798894102343 42.709412409050856,136.1062249400875 42.853908144912566,135.79736535411212 43.20627493936627,135.41543634272603 43.355840701042325,135.02021601313754 43.42428604961606,135.000288753703 43.576386824192014,135.1630275221578 43.543431656376924,134.74455402313833 44.08845943197957,134.12347185140425 44.20000000001164,133.56547965237223 38.767467334342655,125.75545655701353 38.32130506221438,125.52619751920793 38.16920428762387,125.05770438483341 37.930913074102136,124.79188833359876 37.78134731242608,124.64568816488463 37.20843439480814,124.30012034776519 36.73945700650802,123.82163305655376 36.47835067678534,122.9244419163806 35.83192238479387,122.85798188798981 35.77108207496349,122.9310879083987 35.73052186840505,123.30658326407502 35.65447148110252,124.54932844261748 35.560676003442495,124.85834264124242 35.053673421483836,125.71226300409762 34.01178311556578,127.24724446625805 33.236069165184745,128.2306406839598 32.61245598936512,128.79540959744008 31.829137000240735,130.1507970847506 30.470370080598514,133.41933654952118 30.381644628752838,133.78801391595334 30.310664267279208,134.5552420240765 29.97350755026855,135.57485097985045 29.532415303983726,136.30880795571284 28.83782176670502,136.17264580207848 27.722416086384328,136.08297759203015 26.49546983804612,136.15936164536834 24.751380956106004,135.89699794221997 24.528299820056418,136.0597302199385 23.777935998761677,135.92688763255137 23.603020107984776,135.85382387491518 23.509224630324752,135.73426448661667 21.82344104530057,135.4752169641124 19.782755652922788,134.44231831818797 18.193302558502182,134.14007854985175 18.00571160315303,134.1101864838056 17.856145841491525,134.15668523602653 17.18436742038466,134.04375952808186 16.844675690488657,134.1101864838056 15.488443783746334,134.6216674684547 14.755825052809087,134.75119652047943 14.373038103440194,134.8674399061092 14.20572725139209,134.82426386161387 13.73928487599187,134.90397341745847 13.620139269231004,134.94382808939918 13.437618339739856,135.09328247992926 12.85203035757877,135.2261299929687 12.656834363515372,135.00693117547962 12.674579453887418,134.34932189919164 12.2005320397584,134.2164692046954 11.87098036147654,133.82122779620477 11.80000000000291,133.61862236330307 12.018011110238149,133.60201527963181 12.048431265167892,133.56880107548932 12.007871058609453,133.48576535041866" stroke="yellow" stroke-linecap="round" stroke-linejoin="round" stroke-width="0.5"><title>2025-04-14 32.8km</title><desc>1744614550000</desc></polyline><polyline fill="none" points="68.81740147527307,123.91956133791246 66.4087007381022,115.71431016223505 59.50375862419605,114.4519596308237 56.61331773921847,120.13252820854541 56.61331773921847,139.69875763799064 61.27013916429132,145.37922550400253 66.56928078643978,145.16883820900694 69.94146181922406,140.96108578832354 69.13856157287955,119.71174612827599 62.073039409704506,114.66235146403778 56.773897788487375,120.13252820854541 56.45273768901825,139.69875763799064 60.78839901741594,144.95845088374335 69.13856157287955,143.0649635529844 70.10204186849296,119.71174612827599 65.60580049175769,114.66235146403778 56.773897788487375,119.71174612827599 56.773897788487375,138.22604004736058 61.10955911502242,145.5896127676824 66.89044088497758,144.74806352634914 70.58378201629966,140.11953381251078 69.78088176902384,118.87018159439322 61.751879312098026,114.66235146403778 55.97099754214287,120.97409199678805 57.89795813243836,142.22341282025445 62.715359607711434,145.5896127676824 70.58378201629966,140.5403098622337 70.42320196609944,120.76370109640993 65.9269605902955,114.4519596308237 62.55477955751121,113.8207839456154 56.773897788487375,118.87018159439322 57.09505788702518,139.2779813389061 61.430719213560224,145.80000000004657 70.42320196609944,142.01302505959757 69.78088176902384,118.44939914043061 63.67883990239352,113.4000000001397 59.66433867253363,114.4519596308237 56.45273768901825,120.5533101647161 57.25563793629408,140.7506978410529 63.357679802924395,145.37922550400253 70.90494211390615,140.5403098622337 70.58378201629966,120.5533101647161 65.28464039321989,114.03117587172892 61.430719213560224,114.24156776652671 56.29215764068067,119.50135504128411 56.61331773921847,139.2779813389061 58.05853818170726,142.85457591619343 64.4817401478067,145.5896127676824 71.38668226171285,138.43642836785875 70.26262191683054,118.02861656306777 63.67883990239352,114.24156776652671 56.45273768901825,119.71174612827599 57.25563793629408,141.17147370497696 60.30665886960924,144.95845088374335 65.9269605902955,145.5896127676824 71.06552216317505,139.90914574067574 70.90494211390615,120.5533101647161 66.24812068790197,113.61039198876824 59.98549877200276,115.503918484319 57.57679803390056,119.50135504128411 56.61331773921847,138.43642836785875 62.39419950824231,145.37922550400253 70.42320196609944,141.38186159043107 70.58378201629966,118.44939914043061 66.08754063863307,113.8207839456154 61.751879312098026,114.03117587172892 56.934477837756276,120.5533101647161 57.09505788702518,141.17147370497696 62.87593965604901,145.5896127676824 71.54726231005043,143.48573873308487 72.02900245785713,120.34291920240503" stroke="#4DD2FF" stroke-linecap="round" stroke-linejoin="round" stroke-width="0.5"><title>2025-04-09 4.1km</title><desc>1744204461000</desc></polyline><polyline fill="none" points="87.48460865300149,145.80000000004657 91.40509269014001,141.05858562211506 90.65115345269442,137.89763336384203 95.0240010311827,139.87322940095328 95.0240010311827,135.92203440750018 95.1747888782993,138.29275280446745 94.1192739456892,135.13179400761146 93.96848609857261,138.09519309876487 92.00824408046901,136.90983425045852 93.66691040340811,142.24394079274498 90.34957775659859,135.52691426605452 93.36533470824361,138.4903124809498 92.1590319275856,144.61464798194356 93.36533470824361,142.04638167098165 91.10351699497551,140.26834825833794 93.96848609857261,135.32935415173415 92.00824408046901,142.24394079274498 93.0637590130791,139.67566992831416 94.7224253360182,143.62685383029748 93.36533470824361,139.28055089642294 90.198789909482,144.21953040838707 91.55588053632528,140.46590764308348 93.8176982505247,142.24394079274498 91.10351699497551,143.62685383029748 93.36533470824361,140.0707888440229 93.66691040340811,143.2317359659355 91.2543048420921,137.7000735992333 92.00824408046901,144.81220672430936 95.32557672634721,133.35375140083488 92.00824408046901,145.00976543780416 92.6113954698667,137.7000735992333 93.96848609857261,144.61464798194356 91.70666838437319,137.30495398316998 93.96848609857261,134.93423383450136 91.40509269014001,131.77326709905174 94.4208496408537,138.4903124809498 91.55588053632528,137.89763336384203 90.65115345269442,143.62685383029748 91.8574562324211,137.89763336384203 93.5161225553602,139.67566992831416 91.2543048420921,140.86102632503025 94.4208496408537,137.89763336384203 95.92872811667621,139.67566992831416 94.57163748890162,138.29275280446745 93.5161225553602,142.44149988540448 95.62715242151171,141.05858562211506 92.1590319275856,143.42929491272662 94.57163748890162,144.21953040838707 91.70666838437319,140.0707888440229 94.4208496408537,140.26834825833794 93.21454686112702,144.02197157824412 93.5161225553602,135.32935415173415 99.24606076348573,137.50251380575355 91.8574562324211,141.4537041290896 93.0637590130791,143.2317359659355 92.7621833179146,139.28055089642294 93.66691040340811,144.81220672430936 91.40509269014001,140.26834825833794 96.68266735505313,141.65126333909575 94.27006179280579,144.61464798194356 94.57163748890162,137.30495398316998 92.1590319275856,139.4781104271533 94.7224253360182,139.4781104271533 93.21454686112702,142.63905894907657 91.40509269014001,133.74887218442746 94.27006179280579,134.93423383450136 92.4606076227501,141.84882251929957 90.9527291469276,139.28055089642294 95.62715242151171,138.88543174683582 93.66691040340811,136.11959443427622 99.69842430576682,137.7000735992333 102.56339340936393,119.72201286698692 112.51539134792984,119.12932543060742 112.06302780564874,113.40000000002328" stroke="#4DD2FF" stroke-linecap="round" stroke-linejoin="round" stroke-width="0.5"><title>2025-04-07 1.9km</title><desc>1744030807000</desc></polyline><polyline fill="none" points="136.53406593576074,128.90031123999506 119.80000000074506,123.76900484925136 134.04175824299455,122.8360391559545 126.9208791218698,123.30252203694545 135.8219780214131,114.90581962396391 129.05714285746217,115.37230367679149 131.90549450553954,133.5651279934682 134.7538461536169,122.36955620464869 130.83736263774335,130.76623876881786 131.19340659491718,115.8387876607012 130.83736263774335,139.62937947176397 133.68571428582072,130.76623876881786 137.9582417588681,134.9645716769155 133.32967033050954,136.36401473847218 129.05714285746217,118.17120654904284 132.97362637333572,139.62937947176397 127.27692307904363,124.23548759217374 133.32967033050954,126.56790027837269 133.32967033050954,118.6376901192125 137.9582417588681,134.49809051770717 134.7538461536169,131.23272047843784 132.97362637333572,138.6964184648823 129.05714285746217,125.16845287336037 131.19340659491718,129.83327514212579 137.60219780355692,125.63493541046046 131.90549450553954,144.2941803757567 138.67032966949046,132.63216519542038 131.54945055022836,138.22993785655126 129.05714285746217,130.76623876881786 132.6175824161619,136.36401473847218 141.16263736225665,127.96734706149437 134.39780219830573,131.23272047843784 137.9582417588681,137.76345718000084 134.39780219830573,134.0316092898138 134.7538461536169,115.37230367679149 130.12527472525835,132.16568369138986 135.10989011079073,125.63493541046046 130.12527472525835,116.77175542386249 132.6175824161619,128.90031123999506 136.1780219785869,124.70197026780806 129.41318681277335,139.16289900266565 127.63296703249216,124.70197026780806 131.90549450553954,136.36401473847218 132.6175824161619,126.56790027837269 126.2087912093848,130.76623876881786 123.71648351661861,118.17120654904284 134.7538461536169,140.56234020390548 131.54945055022836,133.09864662890323 139.3824175838381,120.03714041877538 134.7538461536169,138.6964184648823 130.12527472525835,130.29975698934868 133.68571428582072,118.6376901192125 128.70109890028834,136.83049562200904 124.42857142724097,128.90031123999506 134.7538461536169,124.70197026780806 136.53406593576074,131.23272047843784 131.19340659491718,126.10141787910834 130.12527472525835,130.76623876881786 139.73846153914928,124.70197026780806 131.54945055022836,134.49809051770717 134.7538461536169,143.82770059467293 129.41318681277335,123.76900484925136 135.10989011079073,128.4338291855529 138.67032966949046,122.8360391559545 127.63296703249216,121.43659009691328 131.19340659491718,133.5651279934682 134.39780219830573,116.77175542386249 129.76923076994717,128.90031123999506 127.63296703249216,120.03714041877538 124.78461538441479,141.4953006603755 129.41318681277335,120.50362371373922 136.89010988920927,127.50086486944929 129.76923076994717,126.10141787910834 129.41318681277335,115.8387876607012 129.05714285746217,143.36122074583545 130.12527472525835,129.83327514212579 137.60219780355692,127.96734706149437 130.83736263774335,116.30527157639153 138.67032966949046,132.16568369138986 132.6175824161619,117.23823920078576 128.34505494497716,124.23548759217374 135.8219780214131,120.97010693931952 129.05714285746217,130.29975698934868 133.32967033050954,142.89474082714878 123.71648351661861,118.17120654904284 128.70109890028834,134.49809051770717 136.53406593576074,136.83049562200904 134.39780219830573,124.70197026780806 152.2000000011176,121.43659009691328" stroke="#4DD2FF" stroke-linecap="round" stroke-linejoin="round" stroke-width="0.5"><title>2025-04-06 2.6km</title><desc>1743945103000</desc></polyline><polyline fill="none" points="158.81107574794441,134.72534632892712 160.31403564609354,134.17142100743695 160.62081476766616,134.16128810215923 161.18023551878287,134.26261695280482 161.35295989815495,134.20857495501332 163.14207511140557,134.54971292400296 165.2225015913573,135.5967382687213 166.93685550605005,135.86017580543376 167.03481858689338,135.97500660228798 167.18434118396544,136.04593121811922 167.991247612983,136.17764777809316 168.20006365372683,136.02904442478575 169.9608211330342,136.2857223375031 171.13380012731068,136.18777978973958 172.15467854870076,136.29247698049403 173.02087842140463,136.44445592047487 173.10337364736188,136.39379638606624 173.49264799492084,135.76223143472816 173.88965626989375,134.61726439326048 174.46970082751068,133.66139253229449 175.6478357734013,130.89825900623146 176.39802673456143,129.42197375495016 176.7924570337491,128.33074510231927 177.38539147040865,127.55367745679723 178.32635264164128,128.41182889943957 179.3162953532883,129.9557446456365 179.31113940167415,130.0942527763691 178.88835136855778,131.0536519069501 178.99147040101525,131.6988589558423 179.08685550604423,131.942073640299 179.83446849140455,132.39471630210937 179.99172501591966,132.43862891921344 180.72387014640844,132.35755940637864 181.26782304263907,132.41836156795216 181.3271164863254,132.52307602267865 181.2832908975106,133.17837494243577 181.37352005092544,133.37428540493602 181.49468491406878,133.4958841578882 181.72412476131285,133.61072683066413 182.18816040738602,134.09711293112377 182.244875875258,134.08697999291144 182.30159134310088,133.99578334690705 182.283545512415,133.73570202491283 182.50782940803037,133.34726337200118 182.6599299809168,132.76628193765646 182.74242520687403,132.66832431089279 182.87647994908912,132.63792358275532 183.07498408657557,132.7054807014938 183.44105665183451,132.63116785989587 183.96438574157946,132.7561484095295 184.09844048376544,132.93517341179722 184.3768618714239,132.93855122855894 184.4232654360385,133.05001890147832 184.27632081478077,133.25606377500844 184.27374283896643,133.33713010140673 184.48255887969572,133.587082798138 185.07033736474114,133.76272359870381 185.22759388925624,133.90796401060652 185.47765754297143,134.0160492996747 186.09637173774536,134.411231787999 186.5526734564046,134.4787836664491 186.8774984086631,134.80302990456948 186.89554423934896,134.958396263979 186.7460216422769,135.13064903694612 186.6583704646764,135.3772046693739 186.4340865690756,135.7081929816286 186.4289306174469,136.1911571259643 186.47533418204694,136.20466646583918 186.59907702101918,135.9243460277139 186.9960852959921,135.48528301248552 187.12240611076413,135.12727154406093 187.20747931255028,135.0968740857079 187.34669000636495,135.24886097333547 187.31833227243624,134.84356036099416 187.77205601528112,134.3504349267405 187.89837683005317,134.15115519239225 188.06078930618241,133.18175272325607 188.027275620625,132.8946395718067 188.05821133036807,132.4622741396288 188.19484404838295,132.28662334678302 188.20000000001164,131.74615090272528 188.13297262889682,131.56373856847677 188.01438574156782,131.42861738234024 186.96772756206337,130.86785592381784 186.56040738383308,130.59760452498995 186.44697644813277,130.41856121351702 186.48564608528977,130.11114395440018 186.27683004457504,129.8341270582696 186.269096117132,129.4625137537114 185.7844366645586,129.10778632625988 185.71225334182964,129.00643462142216 185.81795035010146,128.719269016794 185.80248249522992,128.60778022144223 185.738033099944,128.5672387064642 185.500859325286,128.6584570140294 185.11158497772703,128.66859235906122 184.81511775939725,128.2462825077364 184.26858688733773,127.75977188527213 183.64213876512076,126.91173207975771 183.0156906429038,126.350859778624 182.8558561425889,125.90485511049337 182.00254614895675,125.45884173658305 181.87622533417016,125.06350442210532 181.74732654361287,124.87090171396449 181.3992998090398,124.53299830316246 180.88886059835204,124.2255018563028 180.35779758116405,123.68145954270767 180.13609166137758,122.81975110720305 179.97367918523378,122.77582000250004 179.47355187778885,122.75554407952586 179.41683640993142,122.7960959074735 179.36785486951703,123.21512724811691 179.28793761935958,124.45190074095808 179.18224061108776,124.79318437199618 178.70015913431416,125.61427162794462 177.60451941439533,127.22932836233849 176.78987905793474,128.2530395267877 176.35677912159008,128.60778022144223 176.16600891153212,128.83075726826974 175.41066199872876,130.15168273073868 173.99793125399447,133.55330556639092 173.9309038828942,133.8100112759803 173.88965626989375,134.50918194663973 173.54420751113503,135.58998342017185 173.05954805856163,136.42081481837522 172.28357733928715,136.2857223375031 171.16473583705374,136.184402453031 169.92215149586264,136.27221304551313 168.17170591981267,136.02904442478575 168.00929344368342,136.1675157619684 167.92679821771162,136.17764777809316 167.17660725653695,136.02904442478575 166.94201145767875,135.85679842033824 165.20445576065686,135.57647371708845 163.1162953532912,134.51931469771444 161.36842775302648,134.20181969631267 161.1596117122972,134.24910646533135 160.51511775939434,134.1342669994683 160.25989815405046,134.16466573775142 158.79302991725854,134.7152136691675 157.95003182686924,134.86382556225544 157.64325270528207,134.96515129912586 157.49373010821,134.92124353495092 156.9781349459081,135.00905897897792 156.67651177594962,135.20157627212575 156.0964672183327,135.34005262092978 155.838669637189,135.14415900346285 155.8489815404173,135.11038407218985 155.8000000000029,135.1846888551372 155.83093570974597,135.12727154406093" stroke="yellow" stroke-linecap="round" stroke-linejoin="round" stroke-width="0.5"><title>2025-04-06 31.5km</title><desc>1743926920000</desc></polyline><polyline fill="none" points="12.60620608899626,175.1297973526398 12.821984777518082,175.3286177062855 13.369730679158238,175.19503548838475 13.576024590161978,175.04591945214634 14.088202576123876,174.9527213925394 14.277898126470973,174.98689406234735 15.247716627636692,174.78185721044247 16.641978922722046,174.26925633382598 16.807962529273937,174.24440264037366 17.438700234197313,174.33449713938717 17.63076697892393,174.2941099979089 19.266891100720386,174.60788498040165 21.147248243549257,175.55228835723938 22.7359484777553,175.7977020287999 22.861621779869893,175.92817395396378 22.98255269321089,175.98098378877512 23.719994145212695,176.09281594239837 23.933401639354997,175.96234503869346 25.5292154566705,176.19222180191719 26.598624121790635,176.102135261679 28.386504683832754,176.3164784655637 28.818062060905504,175.62995122128996 29.190339578461135,174.59235167558472 29.71200234191201,173.72246829171127 30.82646370024304,171.12503088807352 31.48091334894707,169.84172866226254 31.822365339583484,168.86599367176677 32.647540983613,167.78455293000297 33.61973067915824,166.3394374984564 34.051288056201884,165.5873166039837 34.11768149882846,165.39462014243873 34.2599531615997,163.83122707659822 34.32160421546723,163.7659536636511 34.76738875877345,163.78771149049862 34.89543325526756,163.83744358153854 35.12781030444603,164.66422235156278 35.54039812646806,165.09313987563655 36.05968969555397,165.40083618489734 36.39639929741679,165.739607718755 36.486504683838575,165.86703413002942 36.61217798595317,166.26795609162946 37.40178571428987,166.66265473769454 37.51323185011279,167.051130418884 38.106030444963835,167.57944582251912 38.665632318516145,168.34392577767176 39.1849238875875,168.80073589410858 39.46946721311542,169.19538698105862 39.54297423888056,169.22956900999634 39.87019906323985,169.18606459988405 40.01484192037606,169.1239152863982 40.1002049180388,169.15188250020765 40.10731850116281,169.26064353351285 40.02195550351462,169.53098994988068 40.54836065573909,169.95980816859264 40.5270199063234,170.23636020601407 40.74042740048026,170.55951752784313 40.69300351287529,170.81741836469155 40.75939695551642,170.94170679483977 41.12930327869253,171.2058172691668 42.17500000000291,171.7899557102046 42.29118852458487,172.06648367366324 42.26747658078966,172.4268966834261 42.31252927400055,172.54496167075922 42.67057962529361,172.6412773535958 42.77016978923348,172.7065232106379 42.78202576113108,172.84322815933956 42.56624707260926,173.25023081237669 42.57336065574782,173.380718544724 42.718003512884025,173.4273211100226 43.083167447315645,173.16013166740777 43.208840749415685,173.1943072506001 43.23018149883137,174.2319757826299 43.287090163939865,174.41216450112188 43.43410421545559,174.5240049980639 44.08144028103561,174.64827151923237 44.20000000001164,174.75700412284823 44.19051522247901,176.70166945734854 44.08618266979465,176.68613769901276 43.78978337235458,176.4686918780062 43.320286885253154,176.33201049688796 43.09976580797229,176.38171292007974 41.44704332553374,177.02162112697806 40.159484777526814,177.03404633635 40.13814402811113,176.99677068620804 40.34206674473535,176.55256410388756 40.69774590164889,176.18290252254155 40.695374707269366,175.6703357972492 40.98940281031537,175.1360105171443 41.138788056210615,174.95893460936531 41.138788056210615,174.8595229198654 41.08899297424068,174.79117711071558 40.82816159250797,174.5333250126223 40.59815573770902,174.4587647804783 40.365778688530554,174.4587647804783 39.75163934426382,174.06110574390004 39.56905737705529,173.9896505887009 39.39596018735028,173.84363277732336 38.867183840760845,173.6976139519411 38.70357142857392,173.4490689384893 38.84110070258612,173.24401709062658 38.81264637003187,173.1104216290587 38.54707259952556,173.10420786600662 38.41428571428696,172.94264938194465 38.03726580795774,172.85565583788411 37.87128220140585,172.84012123855973 37.570140515235835,172.91158030038787 37.38044496487419,172.84944199953497 37.22868852458487,172.9302217548302 37.088788056207704,173.47081674445326 36.85878220140876,173.868486944486 36.88012295082444,174.10460006731955 36.835070257628104,174.17605483189436 36.763934426227934,174.17916155528656 36.39639929741679,173.77528366615115 36.10237119438534,173.59819629911362 36.02412177986116,173.48945770308637 35.960099531614105,173.34343641810847 35.995667447321466,172.73448565882973 35.94112997659249,172.6350634518858 35.50245901639573,172.57913825388096 34.67728337238077,172.65059820271745 33.94458430913801,172.20008576861437 33.86159250585479,172.03230625718788 33.77385831382708,171.33010340312467 34.14376463700319,170.51290860530207 34.1508782201272,170.3699739318199 33.245081967208534,168.95300372681777 32.424648711952614,168.18543831554962 32.17330210772343,168.0176267589959 32.32742974239227,168.08910221540646 32.28711943794042,168.20408396135826 31.829478922722046,168.81005844618448 31.265134660425247,169.31657756009918 30.411504683841486,170.84538332554075 29.235392271672026,173.71004112549417 29.123946135834558,174.67623138529052 28.80620608899335,175.63305772988133 28.346194379395456,176.35064891935326 27.824531615915475,176.2294988780959 26.733782201408758,176.1207738878711 25.541071428568102,176.1953282274535 23.914432084318832,175.95923857872913 23.71050936768006,176.102135261679 22.97781030445185,175.97166441579975 22.7359484777553,175.79148905978582 21.178073770497576,175.55539487731403 19.24317915692518,174.58303168718885 17.725614754104754,174.30032340934122 17.573858313815435,174.28478987732524 17.450556206080364,174.32517703669873 16.831674473069143,174.22265563450128 16.604039812649717,174.25372277886163 15.288026932088542,174.74768420742112 14.55295667448081,174.8750560273329 14.22573185012152,174.98378745829905 14.05974824356963,174.94029495338145 13.61633489462838,175.0210666766434 13.315193208429264,175.20435520554565 12.77218969554815,175.31619148924437 12.60857728337578,175.1297973526398 12.634660421550507,174.53021834156607 12.148565573777887,174.3531373323658 11.84742388757877,173.95236954176653 11.80000000000291,173.80945824950686 11.996809133488568,173.79703113471442 12.04186182669946,173.74421581489514 11.9944379391236,173.70693433279848" stroke="yellow" stroke-linecap="round" stroke-linejoin="round" stroke-width="0.5"><title>2025-04-05 35.9km</title><desc>1743843004000</desc></polyline><polyline fill="none" points="70.18234650790691,168.0857471092604 67.97436561249197,173.29288958315738 63.11680764332414,161.72145246341825 61.7920191064477,179.0785953202285 67.0911732558161,166.92860339861363 69.29915415123105,177.34288449725136 62.23361528478563,178.5000251319725 66.2079808972776,161.72145246341825 59.14244203083217,161.72145246341825 72.8319235816598,183.12858425010927 61.7920191064477,168.66431883792393 68.85755796916783,173.8714605413843 61.7920191064477,177.9214548561722 67.53276943229139,163.45717021124437 68.4159617908299,170.9786048948299 58.700845850631595,172.13574740942568 65.76638471893966,175.60717290313914 64.0,186.02143092290498 67.53276943229139,172.13574740942568 67.97436561249197,180.23573544085957 60.025634387508035,168.0857471092604 68.4159617908299,178.5000251319725 62.23361528478563,173.8714605413843 62.23361528478563,179.0785953202285 60.46723056770861,170.4000335088931 71.06553886644542,170.4000335088931 62.23361528478563,154.19999999995343 67.97436561249197,180.81430537393317 66.2079808972776,164.03574262210168 67.0911732558161,178.5000251319725 54.72648023813963,170.9786048948299 65.32478853873909,176.7643140507862 63.11680764332414,168.66431883792393 68.4159617908299,176.7643140507862 69.29915415123105,165.77145934430882 65.32478853873909,179.6571654228028 60.46723056770861,174.45003141462803 64.0,184.86429250892252 57.81765349395573,181.39287522202358 63.55840382166207,169.24289047974162 66.2079808972776,180.81430537393317 63.55840382166207,169.82146203657612 72.8319235816598,174.45003141462803 67.53276943229139,165.77145934430882 62.67521146312356,177.34288449725136 59.5840382091701,168.0857471092604 65.76638471893966,174.45003141462803 72.8319235816598,161.72145246341825 64.44159617833793,169.24289047974162 65.32478853873909,186.60000000009313 64.44159617833793,167.50717529677786 73.27351976186037,177.9214548561722 67.97436561249197,166.35003141500056 66.2079808972776,180.23573544085957 58.700845850631595,168.66431883792393 66.64957707561553,159.98573394562118 67.0911732558161,181.97144498466514 61.7920191064477,173.8714605413843 65.32478853873909,165.19288718909957 64.0,179.0785953202285 71.06553886644542,172.13574740942568 64.0,181.97144498466514 61.7920191064477,168.0857471092604 72.8319235816598,180.23573544085957 62.23361528478563,173.29288958315738 64.0,185.4428617581725 67.0911732558161,172.7143185385503 60.025634387508035,172.7143185385503 61.35042292624712,179.6571654228028 67.53276943229139,170.9786048948299 59.5840382091701,169.24289047974162 64.88319235853851,181.97144498466514 63.11680764332414,170.9786048948299 67.53276943229139,175.60717290313914 61.35042292624712,183.12858425010927 60.46723056770861,165.77145934430882 67.0911732558161,176.7643140507862" stroke="#4DD2FF" stroke-linecap="round" stroke-linejoin="round" stroke-width="0.5"><title>2025-04-04 1.7km</title><desc>1743771861000</desc></polyline><polyline fill="none" points="105.99498628731817,154.19999999995343 98.80100274179131,156.1636588482652 94.9042616551742,161.66188818775117 95.95338425505906,182.86913114751223 100.44962397124618,186.0109161407454 103.74686642922461,185.02910912793595 106.29473560117185,180.31642537284642 105.69523697160184,160.48369810101576 98.80100274179131,157.34185276471544 93.40551508311182,164.60735883400775 95.2040109699592,182.47640750184655 96.85263219848275,185.22547058889177 103.14736780058593,185.42183202004526 106.74435957241803,180.7091496573994 104.4962397152558,161.46552324586082 99.5503760278225,157.14548718417063 93.85513905528933,162.44734766497277 94.9042616551742,183.06549292744603 103.44711711537093,185.22547058889177 107.34385820105672,179.92370097211096 104.79598902910948,159.89460266614333 99.5503760278225,157.14548718417063 94.9042616551742,159.50187223160174 94.15488837007433,180.90551175596192 98.95087739918381,186.0109161407454 106.89423422981054,182.0836837394163 106.29473560117185,162.44734766497277 99.70025068428367,157.34185276471544 92.65614179801196,163.0364419685211 93.40551508311182,178.74552707385737 97.90175479929894,185.81455479632132 104.1964904004708,184.83274763869122 107.34385820105672,179.7273387281457 106.14486094377935,162.8400772297755 98.95087739918381,157.14548718417063 92.95589111186564,163.23280667851213 94.9042616551742,183.8509397560265 103.59699177183211,184.83274763869122 107.34385820105672,178.74552707385737 104.3463650578633,160.87642824626528 97.15238151233643,158.1273147946922 92.95589111186564,163.42917135951575 94.60451234038919,182.86913114751223 101.34887191466987,186.0109161407454 106.29473560117185,182.86913114751223 107.34385820105672,178.74552707385737 105.09573834296316,160.09096784051508 97.15238151233643,157.53821831557434 93.40551508311182,164.01826522743795 94.30476302653551,181.49459787795786 98.65112808533013,186.0109161407454 106.89423422981054,181.49459787795786 106.29473560117185,161.66188818775117 98.80100274179131,157.34185276471544 92.95589111186564,162.25098283938132 94.30476302653551,183.06549292744603 97.15238151233643,185.81455479632132 103.89674108661711,185.22547058889177 107.04410888720304,179.53097645542584 106.29473560117185,161.85825310077053 101.79849588591605,157.14548718417063 95.2040109699592,158.52004563598894 92.95589111186564,161.85825310077053 95.0541363125667,184.4400245724246 101.79849588591605,186.59999999997672 107.19398354459554,181.6909598610364 106.74435957241803,166.96373065188527" stroke="#4DD2FF" stroke-linecap="round" stroke-linejoin="round" stroke-width="0.5"><title>2025-04-02 4.0km</title><desc>1743590878000</desc></polyline><polyline fill="none" points="131.19589034840465,161.42299503285903 128.5181898875162,161.42299503285903 128.20316630322486,176.90071575832553 132.45598468277603,185.15543001971673 142.22171577624977,181.02807898679748 141.59166860952973,168.43958301329985 143.95434548705816,167.40773405029904 140.016550690867,156.67645964724943 128.9907252630219,158.32743030635174 128.9907252630219,177.72618937969673 132.45598468277603,184.32996078871656 140.96162144187838,181.64718241908122 141.43415681738406,162.45484841626603 137.33885022997856,155.23185871983878 128.5181898875162,159.77202803234104 128.20316630322486,177.31345262995455 132.14096109941602,184.12359340523835 137.33885022997856,185.15543001971673 142.06420398596674,180.82171111542266 141.90669219288975,161.010253465618 134.50363797694445,155.02548703702632 129.3057488463819,158.7401726662647 128.83321347087622,178.3452942756703 134.81866156030446,184.74269546556752 138.44143277220428,184.32996078871656 142.69425115175545,178.55166251340415 141.90669219288975,159.97839901421685 136.23626768682152,155.02548703702632 128.9907252630219,157.70831653825007 129.3057488463819,180.2026073167799 136.07875589560717,185.36179725104012 141.74918040074408,179.5835032442119 142.5367393605411,159.1529149042908 135.44870872795582,154.6127435794333 128.9907252630219,161.010253465618 129.7782842218876,179.78987129870802 136.23626768682152,185.36179725104012 141.43415681738406,182.67902086372487 143.32429832033813,177.31345262995455 141.43415681738406,158.53380150196608 135.9212441034615,154.6127435794333 129.46326063759625,158.94654380099382 129.62077242974192,179.37713515933137 134.50363797694445,184.94906275789253 141.59166860952973,181.85355016915128 142.69425115175545,159.97839901421685 135.76373231224716,154.81911532382946 128.04565451201051,159.77202803234104 129.14823705516756,181.44081463909242 135.44870872795582,186.1872658728389 142.22171577624977,181.44081463909242 141.74918040074408,158.7401726662647 135.44870872795582,155.02548703702632 128.5181898875162,159.56565702043008 130.09330780617893,182.67902086372487 135.1336851445958,185.98089876305312 140.17406248301268,185.56816445232835 142.37922756839544,181.64718241908122 142.06420398596674,159.97839901421685 135.29119693674147,154.19999999995343 128.83321347087622,159.77202803234104 131.19589034840465,182.47265323565807 133.4010554337874,185.36179725104012 141.43415681738406,186.59999999997672 143.32429832033813,161.42299503285903" stroke="#4DD2FF" stroke-linecap="round" stroke-linejoin="round" stroke-width="0.5"><title>2025-03-30 4.0km</title><desc>1743343343000</desc></polyline><polyline fill="none" points="179.25089058093727,158.60004550556187 177.57173697277904,160.40005999919958 173.75547877140343,157.00003061268944 175.5872827079147,158.60004550556187 175.73993303626776,156.20002245751675 170.85512253828347,154.19999999995343 165.6650113845244,156.6000265943585 163.6805571205914,176.00008535129018 166.12296236958355,183.60003257729113 173.14487745892256,186.59999999997672 179.25089058093727,182.4000437463401 180.472093205899,177.2000798546942 180.62474353425205,172.20009573816787 176.50318467617035,157.20003257784992 169.0233186027035,155.40001382911578 163.37525646481663,163.00007670931518 166.88621400948614,183.40003451216035 173.9081291006878,185.80000933702104 179.55619123764336,180.40005999838468 178.33498861268163,158.4000437472714 170.70247221086174,155.20001159841195 164.7491094172001,161.20006567286327 166.7335636811331,182.8000401413301 174.51873041223735,185.20001602941193 179.09824025444686,180.40005999838468 178.33498861268163,157.60003641957883 169.32861925847828,155.80001820251346 165.05441007297486,161.20006567286327 165.81766171287745,179.80006429727655 170.24452122673392,185.00001820165198 175.43463238049299,185.00001820165198 179.86149189434946,180.40005999838468 178.48763894103467,158.80004723451566 169.0233186027035,156.20002245751675 163.83320744894445,162.0000708734151 166.12296236958355,180.8000569845317 173.45017811562866,185.20001602941193 179.7088415650651,179.600065671606 179.09824025444686,160.8000628951704 172.53427614737302,156.40002454060595 168.87066827435046,156.6000265943585 165.35971072874963,161.4000670176465 167.03886433690786,182.60004195873626 175.43463238049299,185.60001159796957 179.25089058093727,180.20006146118976 177.57173697277904,158.2000419597607 172.22897549066693,155.00000933755655 165.6650113845244,159.80005543422885 166.58091335371137,180.40005999838468 171.00777286663651,185.60001159796957 175.5872827079147,185.00001820165198 179.09824025444686,180.60005850577727 178.79293959680945,160.20005850726739 172.22897549066693,155.60001603025012 165.6650113845244,160.60006146214437 165.6650113845244,179.40006701566745 169.4812695859,184.6000224566087 174.0607794271782,185.60001159796957 178.9455899251625,181.40005224151537 178.1823382852599,161.00006429874338 171.77102450747043,155.80001820251346 165.05441007297486,161.20006567286327 165.81766171287745,181.80004893208388 171.77102450747043,186.00000704696868 178.9455899251625,180.40005999838468 177.87703762948513,158.4000437472714 171.46572385076433,155.20001159841195 164.443808760494,162.80007560143713 165.81766171287745,181.40005224151537 173.75547877140343,185.80000933702104 179.09824025444686,178.4000732951099 178.02968795690686,159.2000506032491 171.16042319498956,155.80001820251346 165.20706040039659,162.20007209933829 166.27561269700527,181.80004893208388 170.85512253828347,186.00000704696868 178.33498861268163,182.60004195873626" stroke="#4DD2FF" stroke-linecap="round" stroke-linejoin="round" stroke-width="0.5"><title>2025-03-30 4.5km</title><desc>1743327729000</desc></polyline><polyline fill="none" points="33.26294416189194,196.27774575923104 33.34517766488716,197.35518690024037 27.91776649747044,200.2642700286815 25.28629441605881,200.37201362516498 27.424365481827408,207.26757070200983 21.339086294639856,207.69854085403495 21.6680203047581,211.14629290351877 16.980710660107434,209.09919209015789 13.197969543281943,210.2843564192881 11.799999999813735,214.37854564521695 12.62233502510935,224.50617813167628 15.993908629287034,226.66097540810006 19.85888324910775,224.50617813167628 21.58578680176288,208.02176830137614 25.532994924113154,207.5907983399229 28.904568527825177,208.34499560517725 36.305583756417036,216.6411140403943 37.868020304478705,216.8565963782603 39.5126903555356,213.40887132688658 44.200000000186265,217.3953019453329 42.88426395924762,223.1055564879789 42.63756345119327,216.31789041351294 38.361421320121735,213.9475794408936 37.04568527871743,216.6411140403943 35.154314721003175,215.24047729017911 25.615228426177055,200.58750077086734 33.016243654768914,198.10939475154737 31.78274111635983,195.73902459192323" stroke="#4DD2FF" stroke-linecap="round" stroke-linejoin="round" stroke-width="0.5"><title>2025-03-29 1.5km</title><desc>1743247652000</desc></polyline><polyline fill="none" points="55.87452751677483,218.73942665953655 56.42354592774063,219.31489198326017 56.116095617529936,218.82574656658107 55.786684570950456,219.17102581179643 55.98433119896799,219.9766750033159 57.21413243957795,221.84691920575278 58.685501781175844,223.14169313198363 59.21255945588928,221.96201056997234 58.90510914567858,221.38655306847068 59.36628461082,221.84691920575278 59.08079503721092,223.54450993117644 60.398439223645255,224.52277583177784 65.07607608556282,225.27085820483626 68.43606876104604,227.39999999999418 72.27919763827231,226.59438151767245 73.04782341374084,225.3859475455829 72.5646872119978,208.00668675426277 71.94978659169283,206.76936235548055 70.5662601958029,205.7334568121878 68.76547980774194,204.6687703722564 66.74509205517825,205.21550197395845 65.4494086051127,203.46020033146488 63.62666748045012,197.56111984915333 64.39529325591866,197.24457877103123 64.90039019403048,198.65462143247714 66.30587732628919,198.88483150956745 66.81097426440101,197.96398956798657 66.21803438046481,195.17266082411516 64.98823313973844,195.0 64.10980368207674,195.57553548492433 62.770198759273626,195.6618656609353 61.32079015416093,196.5539419050474 57.54354348615743,197.01436675449077 55.23766615986824,197.99276594461116 55.83060604380444,201.04303774594155 54.99609805911314,203.25877126208798 54.95217658625916,209.24400329079072 55.21570542349946,215.22905135920155 55.89648825326003,218.0488660264382" stroke="#4DD2FF" stroke-linecap="round" stroke-linejoin="round" stroke-width="0.5"><title>2025-03-25 3.9km</title><desc>1742910133000</desc></polyline><polyline fill="none" points="105.15193258784711,195.0 94.33287415467203,204.28134393214714 93.68888258142397,208.16261084761936 97.03763876343146,225.88127053133212 101.41678146226332,226.5562616555253 105.66712584579363,223.35005026205909 104.2503443849273,206.47510511393193 101.80317640630528,202.9313349564327 96.26484887488186,203.268837349955 94.33287415467203,210.35636457509827 96.00725224614143,225.20627900783438 101.54557977663353,226.7250093742041 105.28073090175167,223.51879845489748 104.76553764380515,205.46260047657415 98.71201685350388,201.75007579405792 94.84806741401553,204.78759688627906 94.4616724695079,223.1813020450063 100.12879831530154,226.5562616555253 105.02313427301124,223.85629476455506 105.15193258784711,208.3313612845959 103.86394944041967,203.94384183792863 100.25759662967175,201.91882717807312 97.16643707780167,201.91882717807312 93.81768089625984,206.30635440314654 94.59047078434378,223.1813020450063 99.09841179754585,226.89375706785358 105.15193258784711,223.85629476455506 104.5079410141334,205.63135131180752 99.48480674158782,201.75007579405792 93.68888258142397,207.48760885349475 94.07527752546594,223.1813020450063 100.51519325887784,226.5562616555253 105.4095292170532,222.00006382528227 105.15193258784711,205.9688529073028 100.64399157417938,201.41257295175456 94.59047078434378,204.78759688627906 93.81768089625984,222.00006382528227 97.42403370700777,226.7250093742041 100.25759662967175,226.89375706785358 105.4095292170532,221.66256696672644 104.5079410141334,204.28134393214714 98.71201685350388,201.5813243855955 94.07527752546594,207.82510990044102 94.719269098714,223.85629476455506 97.68163033621386,226.5562616555253 101.54557977663353,226.21876614319626 105.79592416109517,221.32507000828627 104.2503443849273,204.28134393214714 97.93922696541995,202.25632987020072 94.07527752546594,208.16261084761936 95.6208573016338,225.03753106482327 100.51519325887784,227.06250473693945 105.4095292170532,224.02504288230557 105.4095292170532,208.50011169584468 104.8943359577097,204.9563478215132 100.51519325887784,201.41257295175456 94.59047078434378,203.77509075345006 94.33287415467203,223.51879845489748 99.6136050564237,226.5562616555253 103.21995786763728,225.88127053133212 105.92472247546539,222.33756058372092 104.8943359577097,205.46260047657415 100.90158820291981,201.5813243855955 95.6208573016338,202.9313349564327 93.81768089625984,205.9688529073028 94.20407583983615,222.00006382528227 100.12879831530154,227.40000000002328 105.79592416109517,225.20627900783438 106.3111174190417,207.65635938965715" stroke="#4DD2FF" stroke-linecap="round" stroke-linejoin="round" stroke-width="0.5"><title>2025-03-24 4.1km</title><desc>1742817301000</desc></polyline><polyline fill="none" points="136.08029009588063,197.31431016151328 133.35042683966458,195.42078394570854 129.33592205308378,199.20783386053517 129.81766262743622,220.03642836783547 135.59854952152818,226.97922550304793 143.1458185222,221.71953381225467 142.8246581396088,200.47018159367144 138.48899296857417,195.6311758714728 129.1753418603912,198.57665957382414 129.81766262743622,220.66759314225055 134.63506837189198,226.55845088278875 138.16783258598298,226.76883820875082 143.1458185222,222.14030986186117 142.34291756525636,200.25979038281366 135.75912971235812,195.21039198804647 129.0147616704926,201.31174612790346 129.33592205308378,219.40526331297588 135.11680894717574,227.40000000002328 142.8246581396088,223.19224944349844 143.30639871396124,200.8909639227204 134.47448818106204,195.0 130.13882301095873,198.78705103346147 129.33592205308378,219.82604004710447 136.72261086199433,227.40000000002328 142.8246581396088,222.98186158947647 142.66407794784755,199.20783386053517 134.47448818106204,195.0 129.65708243567497,201.31174612790346 129.97824281919748,223.40263726678677 135.75912971235812,227.40000000002328 143.62755909655243,222.98186158947647 142.18233737256378,199.20783386053517 137.0437712445855,195.0 129.81766262743622,200.47018159367144 130.13882301095873,221.71953381225467 135.43796932976693,226.97922550304793 143.1458185222,223.40263726678677 142.34291756525636,201.94291920238174 134.47448818106204,195.0 128.21186071261764,201.31174612790346 129.49650224484503,220.4572049153503 133.51100703235716,226.55845088278875 142.50349775515497,223.40263726678677 142.98523833043873,200.25979038281366 137.36493162810802,195.21039198804647 128.69360128697008,200.47018159367144 129.1753418603912,220.24681665701792 135.59854952152818,226.55845088278875 139.29189392644912,226.34806352620944 143.7881392883137,220.8779813380679 143.1458185222,201.101355041028 140.5765354577452,196.68313503591344 134.79564856365323,195.21039198804647 129.1753418603912,202.36370109580457 129.97824281919748,221.08836950338446 134.47448818106204,226.76883820875082 142.8246581396088,222.98186158947647 142.98523833043873,200.47018159367144 140.09479488432407,196.262351463316 133.51100703235716,195.21039198804647 129.49650224484503,201.101355041028 129.97824281919748,222.14030986186117 134.79564856365323,227.40000000002328 143.30639871396124,222.98186158947647 143.7881392883137,201.101355041028 138.16783258598298,227.40000000002328" stroke="#4DD2FF" stroke-linecap="round" stroke-linejoin="round" stroke-width="0.5"><title>2025-03-23 4.2km</title><desc>1742719228000</desc></polyline><polyline fill="none" points="167.70252539310604,195.00000000011642 164.83754232060164,198.75369874411263 166.34542814828455,223.64638166991062 173.73406870290637,226.21464798168745 179.9164005946368,218.70739413017873 178.55930335074663,202.90251141262706 169.0596226369962,197.37075832753908 164.68675373867154,204.68057004373986 165.89306239970028,223.05370412860066 171.17066279612482,226.41220672428608 178.55930335074663,221.8683482571505 177.8053604364395,201.71713767794427 169.81356555130333,196.77806913945824 164.68675373867154,201.91470004001167 165.44069665204734,222.26346699811984 171.7738171266392,227.20244140271097 175.84510886110365,226.01708920963574 178.71009193267673,221.2756699275924 178.25772618409246,203.2976357571315 169.96435413416475,196.97563223156612 166.79779389686882,197.76588430686388 164.3851765729487,205.07569386367686 166.04385098349303,223.44882251869421 175.24195452965796,226.21464798168745 180.82113209087402,223.05370412860066 178.86088051553816,202.50738695112523 169.0596226369962,197.56832133210264 164.23438799008727,205.27325572934933 164.83754232060164,221.47322939976584 169.36119980271906,226.60976543766446 177.50378327071667,226.8073241218226 178.4085147678852,224.63417698908597 179.162457681261,204.48300809040666 174.9403773639351,198.35857305675745 170.4167198818177,197.37075832753908 165.1391194863245,201.51957528700586 164.83754232060164,223.2512633379083 173.43249153718352,226.8073241218226 178.86088051553816,220.68299133551773 177.8053604364395,201.51957528700586 172.37697145808488,197.17319529433735 167.09937106259167,197.17319529433735 163.1788679100573,208.63180298241787 166.64700531307608,224.63417698908597 172.98012578859925,226.01708920963574 179.9164005946368,220.28787212783936 177.35299468878657,200.3342003263533 168.60725688934326,197.56832133210264 166.04385098349303,198.95126154425088 164.23438799008727,212.97814573033247 167.25015964452177,226.01708920963574 174.6388001991436,226.60976543766446 178.86088051553816,220.09031248022802 176.59905177447945,200.53176289249677 171.47223996091634,195.79025324317627 164.98833090346307,199.7415124522522 165.1391194863245,222.85614488995634 171.0198742132634,227.40000000002328 179.31324626412243,222.4610263244249 177.8053604364395,200.92688793758862 170.86908563040197,195.79025324317627 164.68675373867154,200.7293254295364 164.83754232060164,221.2756699275924 171.7738171266392,227.00488277710974 178.4085147678852,223.44882251869421 177.8053604364395,203.2976357571315" stroke="#4DD2FF" stroke-linecap="round" stroke-linejoin="round" stroke-width="0.5"><title>2025-03-21 4.2km</title><desc>1742565279000</desc></polyline><polyline fill="none" points="29.597114203032106,237.42002728569787 25.26944991014898,235.79999999998836 24.03297439776361,237.2850251212949 23.31169701507315,252.13514359510737 28.978876446839422,254.83513920684345 33.30654074018821,250.38014216924785 30.833589715883136,237.01502073334996 25.681608413811773,236.7450162655441 22.590419633314013,240.25506812380627 25.37248953571543,253.89014165016124 29.081916072871536,255.37513737182599 32.585263358429074,252.810143246199 32.4822237319313,239.1750536033651 28.051519812550396,236.47501171787735 24.54817252745852,236.88001850951696 22.693459258880466,240.39006984891603 24.136014023330063,253.08014296658803 28.360638690646738,255.91513521742309 31.96702560177073,253.62014216877287 32.585263358429074,239.71506102313288 29.18495569890365,237.01502073334996 23.31169701507315,237.96003574226052 23.105617763008922,250.51514239876997 25.26944991014898,254.83513920684345 27.742400934454054,255.51013686321676 31.96702560177073,253.21514279738767 32.379184105433524,239.0400516988011 31.245748220011592,237.15002293721773 26.712004674598575,236.61001400183886 23.723855519667268,238.63504586491035 22.79649888491258,247.2751313893823 26.09376691840589,255.24013786029536 31.657906723674387,254.16014105186332 32.79134261002764,239.98506461340003 32.379184105433524,237.96003574226052 26.6089650481008,236.7450162655441 23.620815893169492,239.31005548831308 24.960331031586975,252.94514311646344 26.712004674598575,255.24013786029536 31.96702560177073,254.70013961574296 32.4822237319313,243.49510402482701 27.330242429859936,251.19014324626187 25.88768766541034,256.1851340205176 26.815044300165027,268.20000000001164 31.7609463497065,266.7150251205312 32.894382236525416,256.99512995185796 31.245748220011592,238.2300398509833 26.196806543972343,236.07000474701636 22.590419633314013,239.0400516988011 23.31169701507315,250.78514279733645 28.051519812550396,255.6451363345841 32.379184105433524,252.810143246199 32.894382236525416,239.85006282816175 27.63936130842194,235.9350023837178 23.723855519667268,238.2300398509833 23.414736641570926,252.2701435649651 27.43328205635771,255.37513737182599 32.27614447986707,252.4051435153233 32.688302983529866,239.1750536033651 27.94848018651828,235.9350023837178 24.445132901892066,238.09503780654632 24.239053649362177,254.16014105186332 26.815044300165027,256.32013339264086 30.0092727066949,255.91513521742309 31.657906723674387,253.48514239798533 33.409580366220325,240.7950749048614" stroke="#4DD2FF" stroke-linecap="round" stroke-linejoin="round" stroke-width="0.5"><title>2025-03-10 4.0km</title><desc>1741591515000</desc></polyline><polyline fill="none" points="72.48089494556189,242.0308272264665 63.92073929961771,236.63077855936717 57.26284046471119,241.40774574666284 57.421361865475774,263.63081446127035 62.33552529104054,267.99231007078197 70.8956809360534,262.8000518582994 70.42011673375964,243.06929574592505 65.98151751048863,237.4615566271823 56.9457976622507,241.2000518591376 56.78727626148611,263.4231238560751 60.908832683227956,267.1615500457119 71.0542023377493,263.4231238560751 71.52976654004306,243.27698935789522 65.0303891049698,237.04616765503306 57.421361865475774,241.2000518591376 57.89692606776953,263.63081446127035 63.128132295794785,267.7846201102948 68.67638132441789,266.53847970464267 71.37124513834715,262.3846703725867 71.37124513834715,244.31545695639215 65.1889105066657,237.2538621564163 57.104319063946605,241.82313343079295 57.421361865475774,261.5539070335217 63.28665369655937,267.99231007078197 71.21272373851389,263.0077425552299 70.57863813452423,240.9923579399474 61.859961088746786,237.04616765503306 57.421361865475774,240.9923579399474 57.89692606776953,264.46157657250296 64.07926070038229,267.7846201102948 71.21272373851389,262.8000518582994 71.0542023377493,243.90007000905462 65.66447470895946,237.04616765503306 59.799182877875865,237.66925106791314 56.62875486165285,241.40774574666284 56.9457976622507,262.59236113051884 62.9696108950302,267.5769301194232 71.0542023377493,262.8000518582994 69.94455253053457,240.5769700104138 64.71334630344063,235.79999999993015 56.470233459956944,241.2000518591376 56.9457976622507,262.59236113051884 65.0303891049698,267.5769301194232 70.73715953622013,262.59236113051884 70.26159533392638,240.9923579399474 64.55482490267605,236.00769468571525 55.519105054438114,242.23852099187206 57.26284046471119,264.0461955778301 66.61560311447829,267.5769301194232 70.8956809360534,263.21543322107755 70.10307393223047,239.95388788660057 61.859961088746786,236.8384731222177 56.9457976622507,240.9923579399474 56.9457976622507,262.59236113051884 65.0303891049698,267.7846201102948 71.21272373851389,262.8000518582994 71.52976654004306,242.23852099187206 64.39630350284278,236.8384731222177 56.62875486165285,242.86160210357048 57.104319063946605,264.66926702391356 62.33552529104054,268.19999999995343 70.42011673375964,262.8000518582994 72.32237354386598,242.0308272264665" stroke="#4DD2FF" stroke-linecap="round" stroke-linejoin="round" stroke-width="0.5"><title>2025-03-09 4.1km</title><desc>1741514669000</desc></polyline><polyline fill="none" points="94.32579407840967,254.66309869848192 99.57655179779977,265.5370126615744 103.98041311092675,265.75892845366616 109.23117083031684,260.4329404005548 106.52110232971609,236.02192018541973 94.83393192104995,235.80000000004657 90.43007060792297,240.9041559670586 97.0358625780791,262.652104384033 107.36799873691052,264.64934916666243 110.41682579927146,255.10693346254993 106.69048161059618,240.9041559670586 109.73930867388844,238.9068796109641 92.29324270226061,246.00829458853696 93.14013910852373,243.34526790643577 99.57655179779977,247.33980615925975 97.0358625780791,252.22200515249278 98.72965539060533,265.5370126615744 106.18234376702458,265.31509683735203 109.90868795569986,259.5452738889726 103.30289598554373,237.79728048783727 93.14013910852373,236.6876805445645 89.58317420165986,242.23567206249572 95.00331120286137,254.8850160971051 94.66455264016986,262.20827185024973 103.13351670466363,267.97808456851635 107.87613658048213,259.32335717917886 105.16606807895005,240.46031700621825 96.01958689000458,236.02192018541973 90.09131204616278,240.9041559670586 93.98703551571816,263.98360120086 104.14979239180684,268.19999999995343 108.38427442405373,261.7644391844515 107.36799873691052,237.35344060859643 96.18896617181599,236.6876805445645 93.47889767121524,246.8959691002965" stroke="#4DD2FF" stroke-linecap="round" stroke-linejoin="round" stroke-width="0.5"><title>2025-03-05 1.9km</title><desc>1741161630000</desc></polyline></svg>