<?xml version="1.0" encoding="utf-8" ?>
<svg baseProfile="full" height="300mm" version="1.1" viewBox="0,0,200,300" width="200mm" xmlns="http://www.w3.org/2000/svg" xmlns:ev="http://www.w3.org/2001/xml-events" xmlns:xlink="http://www.w3.org/1999/xlink"><defs /><rect fill="#222222" height="300" width="200" x="0" y="0" /><text fill="#FFFFFF" style="font-size:12px; font-family:Arial; font-weight:bold;" x="10" y="20">Over 10km Runs</text><text fill="#FFFFFF" style="font-size:4px; font-family:Arial" x="10" y="280">ATHLETE</text><text fill="#FFFFFF" style="font-size:9px; font-family:Arial" x="10" y="290">TXyy2025</text><text fill="#FFFFFF" style="font-size:4px; font-family:Arial" x="65" y="280">SPECIAL TRACKS</text><rect fill="yellow" height="2.6" width="2.6" x="65" y="283" /><text fill="#FFFFFF" style="font-size:3px; font-family:Arial" x="70" y="285.5">Over 20.0 km</text><rect fill="red" height="2.6" width="2.6" x="65" y="287" /><text fill="#FFFFFF" style="font-size:3px; font-family:Arial" x="70" y="289.5">Over 40.0 km</text><text fill="#FFFFFF" style="font-size:4px; font-family:Arial" x="120" y="280">STATISTICS</text><text fill="#FFFFFF" style="font-size:3px; font-family:Arial" x="120" y="285">Number: 7</text><text fill="#FFFFFF" style="font-size:3px; font-family:Arial" x="120" y="290">Weekly: 1.8</text><text fill="#FFFFFF" style="font-size:3px; font-family:Arial" x="141" y="285">Total: 26.3 km</text><text fill="#FFFFFF" style="font-size:3px; font-family:Arial" x="141" y="290">Avg: 3.8 km</text><text fill="#FFFFFF" style="font-size:3px; font-family:Arial" x="167" y="285">Min: 1.9 km</text><text fill="#FFFFFF" style="font-size:3px; font-family:Arial" x="167" y="290">Max: 4.2 km</text><polyline fill="none" points="26.457545861369,72.56571109921788 27.37257654638961,73.52481997210998 26.86015936266631,72.70957761097816 26.31114095170051,73.28504301965586 26.64055199851282,74.62779167221743 28.69022073294036,77.74486534291646 31.142502968665212,79.90282188664423 32.02093242644332,77.93668428331148 31.508515242952853,76.97758844745113 32.277141018304974,77.74486534291646 31.801325062057003,80.5741832186468 33.997398706153035,82.2046263863158 41.79346014279872,83.45143034140347 47.393447935115546,87.0 53.79866273072548,85.65730252946378 55.07970568956807,83.64324590930482 54.27447868674062,54.67781125710462 53.24964431952685,52.61560392580577 50.94376699323766,50.88909468697966 47.94246634631418,49.114617287094006 44.575153425335884,50.02583662327379 42.41568100848235,47.100333885784494 39.37777913408354,37.268533081922214 40.65882209339179,36.74096461839508 41.50065032346174,39.09103572080494 43.84312887722626,39.474719182617264 44.684957107529044,37.939982613315806 43.69672396755777,33.28776804020163 41.64705523313023,33.0 40.18300613691099,33.95922580821207 37.95033126557246,34.103109434916405 35.53465025709011,35.58990317507414 29.23923914390616,36.35727792416583 25.396110266679898,37.98794324102346 26.38434340641834,43.071729576564394 24.993496765149757,46.76461877016118 24.920294310431927,56.740005484665744 25.359509039204568,66.71508559866925 26.49414708884433,71.41477671073517" stroke="#4DD2FF" stroke-linecap="round" stroke-linejoin="round" stroke-width="0.5"><title>2025-03-25 3.9km</title><desc>1742910133000</desc></polyline><polyline fill="none" points="168.58655431307852,33.0 150.55479025747627,48.46890655346215 149.48147096857429,54.93768474587705 155.06273127160966,84.46878421877045 162.36130243632942,85.59376942575909 169.44520974252373,80.25008377002086 167.08390730712563,52.12517518980894 163.00529401004314,46.21889159397688 153.77474812511355,46.78139558318071 150.55479025747627,58.593940958497114 153.34542040992528,83.34379834623542 162.57596629392356,85.87501562351827 168.80121816974133,80.53133075812366 167.9425627393648,50.43766746087931 157.85336142219603,44.25012632331345 151.41344568971545,49.312661477015354 150.76945411600173,79.96883674152195 160.21466385852545,85.59376942575909 168.37189045455307,81.09382460743655 168.58655431307852,55.21893547428772 166.43991573434323,47.90640306309797 160.4293277161196,44.53137862996664 155.2773951292038,44.53137862996664 149.69613482616842,51.84392400505021 150.98411797359586,79.96883674152195 158.49735299590975,86.15626177960075 168.58655431307852,81.09382460743655 167.51323502324522,50.718918852857314 159.14134456962347,44.25012632331345 149.48147096857429,53.81268142233603 150.125462542288,79.96883674152195 160.85865543130785,85.59376942575909 169.0158820282668,78.00010637543164 168.58655431307852,51.281421512016095 161.0733192898333,43.68762158614118 150.98411797359586,49.312661477015354 149.69613482616842,78.00010637543164 155.70672284439206,85.87501562351827 160.4293277161196,86.15626177960075 169.0158820282668,77.43761161109433 167.51323502324522,48.46890655346215 157.85336142219603,43.9688739759149 150.125462542288,54.375183167285286 151.19878183119,81.09382460743655 156.13605056051165,85.59376942575909 162.57596629392356,85.0312769053271 169.65987360104918,76.87511668039951 167.08390730712563,48.46890655346215 156.5653782756999,45.09388311696239 150.125462542288,54.93768474587705 152.70142883528024,83.06255177466664 160.85865543130785,86.43750789470505 169.0158820282668,81.37507147050928 169.0158820282668,55.50018615962472 168.1572265960276,49.59391303581651 160.85865543130785,43.68762158614118 150.98411797359586,47.6251512557501 150.55479025747627,80.53133075812366 159.3560084272176,85.59376942575909 165.36659644544125,84.46878421877045 169.87453745864332,78.56260097282939 168.1572265960276,50.43766746087931 161.50264700502157,43.9688739759149 152.70142883528024,46.21889159397688 149.69613482616842,51.281421512016095 150.34012639895082,78.00010637543164 160.21466385852545,87.0 169.65987360104918,83.34379834623542 170.51852903142571,54.09393231594004" stroke="#4DD2FF" stroke-linecap="round" stroke-linejoin="round" stroke-width="0.5"><title>2025-03-24 4.1km</title><desc>1742817301000</desc></polyline><polyline fill="none" points="40.13381682522595,96.85718360263854 35.584044732153416,93.70130657614209 28.893203420564532,100.01305643422529 29.696104378439486,134.72738061309792 39.33091586828232,146.29870917182416 51.9096975363791,137.5325563538354 51.37443023175001,102.11696932278574 44.14832161273807,94.05195978586562 28.625569767318666,98.96109928959049 29.696104378439486,135.77932190382853 37.72511395253241,145.59741813805886 43.61305430904031,145.94806368136778 51.9096975363791,138.23384976992384 50.57152927387506,101.76631730468944 39.59854952059686,93.350653313566 28.357936115935445,103.51957687991671 28.893203420564532,133.6754388550762 38.528014910407364,147.0 51.37443023175001,139.98708240594715 52.177331189624965,102.81827320461161 37.45748030114919,93.0 30.231371683999896,99.311751722591 28.893203420564532,134.3767334120348 41.20435143541545,147.0 51.37443023175001,139.6364359825384 51.106796578504145,100.01305643422529 37.45748030114919,93.0 29.428470726124942,103.51957687991671 29.963738031685352,140.33772877790034 39.59854952059686,147.0 52.71259849332273,139.6364359825384 50.30389562062919,100.01305643422529 41.739618740044534,93.0 29.696104378439486,102.11696932278574 30.231371683999896,137.5325563538354 39.063282215967774,146.29870917182416 51.9096975363791,140.33772877790034 50.57152927387506,104.57153200404719 37.45748030114919,93.0 27.019767854362726,103.51957687991671 29.1608370738104,135.42867485899478 35.85167838539928,145.59741813805886 50.83916292525828,140.33772877790034 51.64206388313323,101.76631730468944 42.274886045604944,93.350653313566 27.822668810375035,102.11696932278574 28.625569767318666,135.0780277615413 39.33091586828232,145.59741813805886 45.48648987617344,145.24677254376002 52.980232145637274,136.12996889674105 51.9096975363791,103.1689250683412 47.62755909562111,95.80522505985573 37.99274760577828,93.350653313566 28.625569767318666,105.27283515990712 29.963738031685352,136.48061583889648 37.45748030114919,145.94806368136778 51.37443023175001,139.6364359825384 51.64206388313323,102.11696932278574 46.8246581396088,95.10391910560429 35.85167838539928,93.350653313566 29.1608370738104,103.1689250683412 29.963738031685352,138.23384976992384 37.99274760577828,147.0 52.177331189624965,139.6364359825384 52.980232145637274,103.1689250683412 43.61305430904031,147.0" stroke="#4DD2FF" stroke-linecap="round" stroke-linejoin="round" stroke-width="0.5"><title>2025-03-23 4.2km</title><desc>1742719228000</desc></polyline><polyline fill="none" points="152.83754232060164,93.0 148.0625705337152,99.25616457359865 150.57571357954293,140.74396944977343 162.89011450391263,145.0244133027736 173.19400099106133,132.51232355018146 170.93217225000262,106.17085235426202 155.09937106166035,96.951263879193 147.81125622987747,109.1342834061943 149.82177066616714,139.75617354759015 158.61777132656425,145.35367787373252 170.93217225000262,137.78058042842895 169.67560072615743,104.19522946304642 156.35594258457422,95.96344856568612 147.81125622987747,104.5245000666473 149.06782775186002,138.43911166349426 159.62302854284644,146.67073567118496 166.4085147678852,144.69514868268743 171.18348655384034,136.79278321261518 170.42954363953322,106.82939292839728 156.60725688934326,96.29272038582712 151.32965649385005,97.60980717791244 147.30862762127072,109.79282310605049 150.07308497093618,140.41470419778489 165.40325754974037,145.0244133027736 174.7018868168816,139.75617354759015 171.43480085860938,105.51231158501469 155.09937106166035,97.28053555358201 147.05731331557035,110.12209288217127 148.0625705337152,137.12204899964854 155.60199967119843,145.68294239602983 169.17297211755067,146.01220686966553 170.68085794523358,142.39029498165473 171.93742946721613,108.80501348385587 164.9006289402023,98.59762176102959 157.36119980178773,96.951263879193 148.56519914325327,103.86595881171525 148.0625705337152,140.08543889643624 162.38748589530587,146.01220686966553 171.43480085860938,135.8049855590798 169.67560072615743,103.86595881171525 160.6282857619226,96.62199215730652 151.83228510338813,96.62199215730652 145.2981131831184,115.7196716372855 151.0783421881497,142.39029498165473 161.63354298006743,144.69514868268743 173.19400099106133,135.14645354636014 168.92165781278163,101.89033387717791 154.34542814828455,97.28053555358201 150.07308497093618,99.58543590712361 147.05731331557035,122.96357621718198 152.08359940722585,144.69514868268743 164.39800033159554,145.68294239602983 171.43480085860938,134.81718746689148 167.66508628986776,102.21960482071154 159.120399935171,94.3170887385495 148.31388483848423,100.90252075367607 148.56519914325327,139.42690814984962 158.3664570208639,147.0 172.1887437729165,138.76837720745243 169.67560072615743,102.8781465627253 158.11514271702617,94.3170887385495 147.81125622987747,102.5488757158164 148.0625705337152,136.79278321261518 159.62302854284644,146.3414712951053 170.68085794523358,140.41470419778489 169.67560072615743,106.82939292839728" stroke="#4DD2FF" stroke-linecap="round" stroke-linejoin="round" stroke-width="0.5"><title>2025-03-21 4.2km</title><desc>1742565279000</desc></polyline><polyline fill="none" points="42.66185700520873,155.70004547620192 35.44908318296075,153.0 33.38829066231847,155.47504186886363 32.18616169132292,180.22523932519834 41.63146074488759,184.72523201140575 48.84423456620425,177.30023694876581 44.72264952585101,155.02503455558326 36.1360140228644,154.57502710924018 30.984032722190022,160.4251135396771 35.62081589270383,183.15023608366027 41.80319345463067,185.6252289529657 47.64210559707135,181.3502387437038 47.470372886396945,158.62508933898062 40.08586635347456,154.1250195298344 34.2469542119652,154.80003084917553 31.155765431001782,160.65011641487945 33.56002337206155,181.8002382776467 40.60106448363513,186.5252253623912 46.61170933581889,182.7002369479742 47.64210559707135,159.52510170533787 41.974926164373755,155.02503455558326 32.18616169132292,156.6000595705118 31.842696271836758,177.52523733128328 35.44908318296075,184.72523201140575 39.57066822331399,185.85022810543887 46.61170933581889,182.02523799566552 47.29864017572254,158.40008616470732 45.409580365754664,155.2500382286962 37.85334112402052,154.35002333647572 32.8730925321579,157.72507644153666 31.327498141676188,172.12521898234263 36.82294486369938,185.40022976719774 46.09651120565832,183.60023508651648 47.985571016557515,159.97510768903885 47.29864017572254,156.6000595705118 37.68160841334611,154.57502710924018 32.70135982148349,158.8500924805412 34.933885051868856,181.57523852738086 37.85334112402052,185.40022976719774 46.61170933581889,184.50023269292433 47.470372886396945,165.8251733747311 38.88373738247901,178.65023874375038 36.479479442350566,186.9752233675681 38.02507383283228,207.0 46.2682439154014,204.5250418675132 48.15730372723192,188.32521658646874 45.409580365754664,157.0500664183637 36.99467757344246,153.45000791177154 30.984032722190022,158.40008616470732 32.18616169132292,177.97523799550254 40.08586635347456,186.07522722438443 47.29864017572254,181.3502387437038 48.15730372723192,159.75010471360292 39.398935513570905,153.2250039728824 32.8730925321579,157.0500664183637 32.35789440199733,180.45023927500006 39.05547009315342,185.6252289529657 47.12690746597946,180.67523919220548 47.81383830588311,158.62508933898062 39.914133643731475,153.2250039728824 34.07522150222212,156.82506301091053 33.73175608180463,183.60023508651648 38.02507383283228,187.2002223210875 43.34878784418106,186.5252253623912 46.09651120565832,182.47523733007256 49.015967276878655,161.32512484141625" stroke="#4DD2FF" stroke-linecap="round" stroke-linejoin="round" stroke-width="0.5"><title>2025-03-10 4.0km</title><desc>1741591515000</desc></polyline><polyline fill="none" points="174.1348249092698,163.38471204414964 159.86789883393794,154.38463093247265 148.7714007748291,162.34624291118234 149.03560310881585,199.3846907687839 157.22587548568845,206.65385011816397 171.49280156102031,198.00008643069305 170.70019455626607,165.11549290991388 163.30252918414772,155.76926104538143 148.24299610499293,162.0000864318572 147.97879376914352,199.0385397602804 154.84805447235703,205.26925007626414 171.75700389686972,199.0385397602804 172.54961090069264,165.461648930097 161.71731517557055,155.07694609183818 149.03560310881585,162.0000864318572 149.8282101135701,199.3846907687839 158.54688716027886,206.30770018394105 167.79396887496114,204.2307995078154 172.28540856484324,197.307783954544 172.28540856484324,167.1924282608088 161.98151751141995,155.42310359422117 148.50719844084233,163.0385557182599 149.03560310881585,195.9231783892028 158.81108949426562,206.65385011816397 172.02120623085648,198.3462375921663 170.96439689211547,161.65392990014516 156.4332684809342,155.07694609183818 149.03560310881585,161.65392990014516 149.8282101135701,200.76929428754374 160.13210116885602,206.30770018394105 172.02120623085648,198.00008643069305 171.75700389686972,166.5001166819129 162.7741245161742,155.07694609183818 152.99863813072443,156.11541844671592 147.71459143608809,162.34624291118234 148.24299610499293,197.6539352175314 158.28268482536077,205.96155019919388 171.75700389686972,198.00008643069305 169.90758755244315,160.961616684217 161.18891050759703,153.0 147.45038910023868,162.0000864318572 148.24299610499293,197.6539352175314 161.71731517557055,205.96155019919388 171.22859922796488,197.6539352175314 170.43599222321063,161.65392990014516 160.92470817174762,153.34615780971944 145.8651750916615,163.7308683199808 148.7714007748291,200.0769926297944 164.35933852475137,205.96155019919388 171.49280156102031,198.69238870195113 170.17178988736123,159.92314647766761 156.4332684809342,154.73078853730112 148.24299610499293,161.65392990014516 148.24299610499293,197.6539352175314 161.71731517557055,206.30770018394105 172.02120623085648,198.00008643069305 172.54961090069264,163.7308683199808 160.6605058386922,154.73078853730112 147.71459143608809,164.76933683943935 148.50719844084233,201.11544503993355 157.22587548568845,207.0 170.70019455626607,198.00008643069305 173.8706225734204,163.38471204414964" stroke="#4DD2FF" stroke-linecap="round" stroke-linejoin="round" stroke-width="0.5"><title>2025-03-09 4.1km</title><desc>1741514669000</desc></polyline><polyline fill="none" points="30.542990129441023,244.4384978308808 39.29425299540162,262.56168776913546 46.634021850302815,262.9315474226605 55.38528471626341,254.0549006673973 50.8685038825497,213.36986697558314 31.389886534772813,213.0 24.050117678940296,221.50692661153153 35.05977096222341,257.75350730656646 52.27999789360911,261.08224861091 57.361376331187785,245.17822243762203 51.150802684016526,221.50692661153153 56.23218112252653,218.17813268490136 27.155404503457248,230.01382431411184 28.56689851358533,225.57544651068747 39.29425299540162,232.2330102652777 35.05977096222341,240.37000858737156 37.88275898434222,262.56168776913546 50.30390627775341,262.1918280622922 56.51447992492467,252.57545648165978 45.50482664164156,216.32880081306212 28.56689851358533,214.47946757427417 22.638623668812215,223.72612010408193 31.672185336239636,244.80836016172543 31.10758773330599,257.01378641696647 45.22252783924341,266.63014094741084 53.12689429987222,252.20559529867023 48.610113464295864,220.76719501032494 33.365978149697185,213.36986697558314 23.48552007600665,221.50692661153153 29.978392524644732,259.9726686680224 46.91632065270096,267.0 53.97379070613533,256.2740653073415 52.27999789360911,215.58906768076122 33.64827695209533,214.47946757427417 29.131496117450297,231.49328183359466" stroke="#4DD2FF" stroke-linecap="round" stroke-linejoin="round" stroke-width="0.5"><title>2025-03-05 1.9km</title><desc>1741161630000</desc></polyline></svg>