<?xml version="1.0" encoding="utf-8" ?>
<svg baseProfile="full" height="300mm" version="1.1" viewBox="0,0,200,300" width="200mm" xmlns="http://www.w3.org/2000/svg" xmlns:ev="http://www.w3.org/2001/xml-events" xmlns:xlink="http://www.w3.org/1999/xlink"><defs /><rect fill="#222222" height="300" width="200" x="0" y="0" /><text fill="#FFFFFF" style="font-size:12px; font-family:Arial; font-weight:bold;" x="10" y="20">Over 10km Runs</text><text fill="#FFFFFF" style="font-size:4px; font-family:Arial" x="10" y="280">ATHLETE</text><text fill="#FFFFFF" style="font-size:9px; font-family:Arial" x="10" y="290">TXyy2025</text><text fill="#FFFFFF" style="font-size:4px; font-family:Arial" x="65" y="280">SPECIAL TRACKS</text><rect fill="yellow" height="2.6" width="2.6" x="65" y="283" /><text fill="#FFFFFF" style="font-size:3px; font-family:Arial" x="70" y="285.5">Over 20.0 km</text><rect fill="red" height="2.6" width="2.6" x="65" y="287" /><text fill="#FFFFFF" style="font-size:3px; font-family:Arial" x="70" y="289.5">Over 40.0 km</text><text fill="#FFFFFF" style="font-size:4px; font-family:Arial" x="120" y="280">STATISTICS</text><text fill="#FFFFFF" style="font-size:3px; font-family:Arial" x="120" y="285">Number: 6</text><text fill="#FFFFFF" style="font-size:3px; font-family:Arial" x="120" y="290">Weekly: 1.5</text><text fill="#FFFFFF" style="font-size:3px; font-family:Arial" x="141" y="285">Total: 22.4 km</text><text fill="#FFFFFF" style="font-size:3px; font-family:Arial" x="141" y="290">Avg: 3.7 km</text><text fill="#FFFFFF" style="font-size:3px; font-family:Arial" x="167" y="285">Min: 1.9 km</text><text fill="#FFFFFF" style="font-size:3px; font-family:Arial" x="167" y="290">Max: 4.2 km</text><polyline fill="none" points="61.448739083483815,34.0 37.4063870087266,54.62520873802714 35.975294625386596,63.25024632783607 43.416975028812885,102.62504562502727 53.14840324781835,104.12502590101212 62.59361298941076,97.00011169328354 59.44520974345505,59.50023358641192 54.007058680057526,51.62518879189156 41.69966416619718,52.375194110907614 37.4063870087266,68.12525461125188 41.12722721323371,101.12506446172483 53.43462172523141,104.50002083135769 61.73495755903423,97.3751076774206 60.59008365124464,57.250223281094804 47.13781522959471,49.0001684310846 38.55126091837883,55.75021530268714 37.6926054880023,96.6251156553626 50.28621847741306,104.12502590101212 61.16252060607076,98.12509947642684 61.448739083483815,63.62524729897268 58.58655431121588,53.875204083975405 50.57243695482612,49.375171506544575 43.7031935043633,49.375171506544575 36.26151310093701,59.12523200688884 37.97882396355271,96.6251156553626 47.99647065997124,104.87501570605673 61.448739083483815,98.12509947642684 60.01764669828117,57.625225137220696 48.85512609221041,49.0001684310846 35.975294625386596,61.75024189660326 36.833950055763125,96.6251156553626 51.14487390778959,104.12502590101212 62.02117603644729,94.00014183390886 61.448739083483815,58.37522868276574 51.431092385202646,48.2501621148549 37.97882396355271,55.75021530268714 36.26151310093701,94.00014183390886 44.275630459189415,104.50002083135769 50.57243695482612,104.87501570605673 62.02117603644729,93.25014881487004 60.01764669828117,54.62520873802714 47.13781522959471,48.62516530114226 36.833950055763125,62.50024422304705 38.26504244096577,98.12509947642684 44.84806741401553,104.12502590101212 53.43462172523141,103.37503587361425 62.87983146868646,92.50015557394363 59.44520974345505,54.62520873802714 45.420504366979,50.125177489360794 36.833950055763125,63.25024632783607 40.268571780994534,100.75006903288886 51.14487390778959,105.2500105262734 62.02117603644729,98.50009529385716 62.02117603644729,64.00024821283296 60.87630212679505,56.125217380933464 51.14487390778959,48.2501621148549 37.97882396355271,53.50020167417824 37.4063870087266,97.3751076774206 49.141344567760825,104.12502590101212 57.15546192601323,102.62504562502727 63.166049944236875,94.75013463036157 60.87630212679505,57.250223281094804 52.00352933816612,48.62516530114226 40.268571780994534,51.62518879189156 36.26151310093701,58.37522868276574 37.12016853131354,94.00014183390886 50.28621847741306,106.0 62.87983146868646,101.12506446172483 64.0247053746134,62.12524308799766" stroke="#4DD2FF" stroke-linecap="round" stroke-linejoin="round" stroke-width="0.5"><title>2025-03-24 4.1km</title><desc>1742817301000</desc></polyline><polyline fill="none" points="150.17842243425548,39.1429114700295 144.11205964535475,34.93507543485612 135.1909378953278,43.35074191214517 136.26147250644863,89.63650748389773 149.10788782685995,105.06494556227699 165.879596715793,93.37674180488102 165.16590697690845,46.15595909697004 155.5310954861343,35.402613047743216 134.8340930249542,41.94813238619827 136.26147250644863,91.03909587161615 146.9668186046183,104.12989085074514 154.81740574538708,104.59741824166849 165.879596715793,94.31179969315417 164.09537236578763,45.68842307291925 149.4647326953709,34.4675377511885 134.47724815644324,48.026102506322786 135.1909378953278,88.23391847335733 148.03735321573913,106.0 165.16590697690845,96.64944320777431 166.23644158616662,47.09103093948215 146.60997373610735,34.0 136.9751622453332,42.41566896322183 135.1909378953278,89.16897788248025 151.6058019157499,106.0 165.16590697690845,96.18191464338452 164.80906210653484,43.35074191214517 146.60997373610735,34.0 135.90462763607502,48.026102506322786 136.61831737682223,97.11697170394473 149.4647326953709,106.0 166.95013132691383,96.18191464338452 163.73852749541402,43.35074191214517 152.31949165463448,34.0 136.26147250644863,46.15595909697004 136.9751622453332,93.37674180488102 148.75104295648634,105.06494556227699 165.879596715793,97.11697170394473 164.09537236578763,49.42870933865197 146.60997373610735,34.0 132.69302380643785,48.026102506322786 135.5477827657014,90.5715664785821 144.46890451572835,104.12989085074514 164.4522172342986,97.11697170394473 165.5227518454194,45.68842307291925 153.0331813953817,34.4675377511885 133.76355841569602,46.15595909697004 134.8340930249542,90.10403701546602 149.10788782685995,104.12989085074514 157.31531983613968,103.66236339136958 167.3069761954248,91.50662519573234 165.879596715793,47.55856675794348 160.17007879540324,37.74030007980764 147.32366347499192,34.4675377511885 134.8340930249542,50.36378021305427 136.61831737682223,91.97415445186198 146.60997373610735,104.59741824166849 165.16590697690845,96.18191464338452 165.5227518454194,46.15595909697004 159.09954418614507,36.805225474061444 144.46890451572835,34.4675377511885 135.5477827657014,47.55856675794348 136.61831737682223,94.31179969315417 147.32366347499192,106.0 166.23644158616662,96.18191464338452 167.3069761954248,47.55856675794348 154.81740574538708,106.0" stroke="#4DD2FF" stroke-linecap="round" stroke-linejoin="round" stroke-width="0.5"><title>2025-03-23 4.2km</title><desc>1742719228000</desc></polyline><polyline fill="none" points="40.45005642808974,114.0 34.0834273789078,122.34155276464298 37.43428477272391,177.65862593310885 53.85348600521684,183.36588440346532 67.59200132079422,166.683098066831 64.57622966729105,131.56113647227176 43.46582808345556,119.26835183892399 33.74834164045751,135.51237787492573 36.4290275555104,176.3415647300426 48.15702843479812,183.80490383156575 64.57622966729105,173.70744057139382 62.900800969451666,128.92697261739522 45.1412567794323,117.95126475417055 33.74834164045751,129.36600008886307 35.423770336434245,174.58548221806996 49.49737139232457,185.56098089483567 58.544686356559396,182.9268649101723 64.91131540574133,172.39037761674263 63.90605818666518,132.43919057119638 45.47634251974523,118.3902938477695 38.43954199180007,120.14640957070515 33.07817016169429,136.39043080806732 36.764113295823336,177.2196055969689 57.20434339903295,183.36588440346532 69.60251575708389,176.3415647300426 65.24640114605427,130.68308211350814 43.46582808345556,119.70738073787652 32.743084421381354,136.82945717615075 34.0834273789078,172.82939866604283 44.135999562218785,184.24392319470644 62.23062949068844,184.68294249265455 64.24114392697811,179.85372664243914 65.91657262295485,135.07335131196305 56.53417192026973,121.463495681528 46.48159973695874,119.26835183892399 34.75359885953367,128.48794508213177 34.0834273789078,176.78058519540355 53.18331452831626,184.68294249265455 65.24640114605427,171.07331407885067 62.900800969451666,128.48794508213177 50.83771434985101,118.8293228764087 39.10971347056329,118.8293228764087 30.397484244778752,144.29289551638067 38.104456251487136,179.85372664243914 52.17805730737746,182.9268649101723 67.59200132079422,170.19527139514685 61.895543752238154,125.85377850290388 42.46057086624205,119.70738073787652 36.764113295823336,122.78058120934293 32.743084421381354,153.95143495616503 39.444799210876226,182.9268649101723 55.864000441506505,184.24392319470644 65.24640114605427,169.7562499558553 60.220115054398775,126.292806427693 48.827199913561344,115.756118318066 34.41851311735809,124.53669433807954 34.75359885953367,175.9025441997219 47.82194269448519,186.0 66.25165836326778,175.02450294303708 62.900800969451666,127.17086208355613 47.4868569560349,115.756118318066 33.74834164045751,126.73183428775519 34.0834273789078,172.39037761674263 49.49737139232457,185.12196172680706 64.24114392697811,177.2196055969689 62.900800969451666,132.43919057119638" stroke="#4DD2FF" stroke-linecap="round" stroke-linejoin="round" stroke-width="0.5"><title>2025-03-21 4.2km</title><desc>1742565279000</desc></polyline><polyline fill="none" points="153.54914267454296,117.6000606350135 143.93211091216654,114.0 141.18438755068928,117.3000558251515 139.58154892269522,150.30031910026446 152.17528099380434,156.3003093486186 161.79231275618076,146.40031593176536 156.2968660350889,116.70004607411101 144.84801869746298,116.10003614565358 137.9787102965638,123.90015138639137 144.16108785755932,154.2003147781361 152.40425794012845,157.50030527077615 160.18947413004935,151.80031832493842 159.96049718279392,121.50011911871843 150.11448847316206,115.50002603977919 142.32927228417248,116.40004113223404 138.2076872419566,124.20015521976165 141.4133644970134,152.40031770360656 150.8014193130657,158.7003004832659 158.8156124483794,153.60031593055464 160.18947413004935,122.70013560703956 152.63323488645256,116.70004607411101 139.58154892269522,118.80007942742668 139.123595030047,146.70031644171104 143.93211091216654,156.3003093486186 149.42755763232708,157.80030414066277 158.8156124483794,152.70031732763164 159.73152023553848,121.20011488627642 157.21277382224798,117.00005097151734 147.137788166292,115.80003111530095 140.49745671078563,120.30010192212649 138.43666418921202,139.50029197637923 145.76392648555338,157.20030635618605 158.12868160940707,154.80031344876625 160.64742802269757,123.30014358530752 159.73152023553848,118.80007942742668 146.90881121903658,116.10003614565358 140.2684797635302,121.80012330738828 143.24518007040024,152.10031803650782 147.137788166292,157.20030635618605 158.8156124483794,156.00031025731005 159.96049718279392,131.10023116646335 148.511649845168,148.20031832507811 145.30597259104252,159.30029782350175 147.3667651116848,186.0 158.35765855573118,182.70005582342856 160.876404969953,161.10028878203593 157.21277382224798,119.40008855774067 145.9929034318775,114.6000105489511 137.9787102965638,121.20011488627642 139.58154892269522,147.30031732749194 150.11448847316206,158.1003029658459 159.73152023553848,151.80031832493842 160.876404969953,123.00013961829245 149.19858068600297,114.30000529717654 140.49745671078563,119.40008855774067 139.81052586995065,150.60031903348863 148.74062679242343,157.50030527077615 159.50254328921437,150.90031892294064 160.41845107544214,121.50011911871843 149.88551152683794,114.30000529717654 142.10029533784837,119.10008401446976 141.6423414433375,154.80031344876625 147.3667651116848,159.60029642819427 154.4650504598394,158.7003004832659 158.12868160940707,153.30031644017436 162.0212897034362,125.1001664553769" stroke="#4DD2FF" stroke-linecap="round" stroke-linejoin="round" stroke-width="0.5"><title>2025-03-10 4.0km</title><desc>1741591515000</desc></polyline><polyline fill="none" points="68.84643321111798,207.84628272545524 49.82386511005461,195.84617457655258 35.028534365817904,206.4616572149098 35.380804143846035,255.84625435830094 46.3011673130095,265.5384668239858 65.32373541407287,254.00011524069123 64.26692607440054,210.15399054670706 54.403372244909406,197.6923480606638 34.32399480603635,206.00011524255387 33.97172502428293,255.38471968029626 43.130739295855165,263.69233343494125 65.67600519396365,255.38471968029626 66.73281453363597,210.6155319067184 52.2897535674274,196.76926145562902 35.380804143846035,206.00011524255387 36.43761348351836,255.84625435830094 48.06251621246338,265.07693357835524 60.3919584993273,262.3077326770872 66.38054475188255,253.0770452725701 66.38054475188255,212.9232376809232 52.64202334731817,197.23080479213968 34.67626458592713,207.38474095752463 35.380804143846035,251.23090451885946 48.41478599049151,265.5384668239858 66.02827497385442,254.46165012265556 64.61919585429132,205.53857320011593 45.24435797333717,196.76926145562902 35.380804143846035,205.53857320011593 36.43761348351836,257.69239238346927 50.17613488994539,265.07693357835524 66.02827497385442,254.00011524069123 65.67600519396365,212.00015557580628 53.6988326869905,196.76926145562902 40.664850840345025,198.15389126213267 33.6194552462548,206.4616572149098 34.32399480603635,253.53858029004186 47.7102464325726,264.61540026566945 65.67600519396365,254.00011524069123 63.21011673472822,204.61548891221173 51.585214007645845,194.0 33.267185466364026,206.00011524255387 34.32399480603635,253.53858029004186 52.2897535674274,264.61540026566945 64.97146563604474,253.53858029004186 63.914656296372414,205.53857320011593 51.23294422775507,194.46154374605976 31.153566788882017,208.30782442656346 35.028534365817904,256.76932350639254 55.81245136447251,264.61540026566945 65.32373541407287,254.923184935702 63.56238651648164,203.2308619702235 45.24435797333717,196.307718049502 34.32399480603635,205.53857320011593 34.32399480603635,253.53858029004186 52.2897535674274,265.07693357835524 66.02827497385442,254.00011524069123 66.73281453363597,208.30782442656346 50.88067444972694,196.307718049502 33.6194552462548,209.69244911894202 34.67626458592713,258.1539267199114 46.3011673130095,266.0 64.26692607440054,254.00011524069123 68.49416343122721,207.84628272545524" stroke="#4DD2FF" stroke-linecap="round" stroke-linejoin="round" stroke-width="0.5"><title>2025-03-09 4.1km</title><desc>1741514669000</desc></polyline><polyline fill="none" points="137.39065350592136,235.91799710784107 149.05900399386883,260.08225035876967 158.8453624676913,260.57539656362496 170.51371295563877,248.73986755660735 164.49133851006627,194.49315596744418 138.5198487136513,194.0 128.73349023982882,205.34256881545298 143.41302795149386,253.67134307534434 166.37333052419126,258.1096648145467 173.1485017761588,236.90429658349603 164.8677369132638,205.34256881545298 171.64290816523135,200.9041769132018 132.87387267127633,216.68509908556007 134.75586468540132,210.76726201432757 149.05900399386883,219.64401368703693 143.41302795149386,230.4933447833173 147.17701197974384,260.08225035876967 163.73854170367122,259.58910408290103 172.01930656656623,246.7672753087245 157.3397688549012,198.4384010839276 134.75586468540132,195.97262343228795 126.85149822570384,208.30149347195402 138.89624711684883,236.4111468824558 138.14345031045377,252.6850485559553 156.9633704535663,265.5068545965478 167.50252573378384,246.27412706473842 161.4801512863487,204.3562600137666 141.15463753417134,194.49315596744418 127.98069343529642,205.34256881545298 136.6378566995263,256.6302248907741 159.22176087088883,266.0 168.63172094151378,251.69875374319963 166.37333052419126,197.45209024101496 141.53103593736887,195.97262343228795 135.50866148993373,218.65770911145955" stroke="#4DD2FF" stroke-linecap="round" stroke-linejoin="round" stroke-width="0.5"><title>2025-03-05 1.9km</title><desc>1741161630000</desc></polyline></svg>