<?xml version="1.0" encoding="utf-8" ?>
<svg baseProfile="full" height="300mm" version="1.1" viewBox="0,0,200,300" width="200mm" xmlns="http://www.w3.org/2000/svg" xmlns:ev="http://www.w3.org/2001/xml-events" xmlns:xlink="http://www.w3.org/1999/xlink"><defs /><rect fill="#222222" height="300" width="200" x="0" y="0" /><text fill="#FFFFFF" style="font-size:12px; font-family:Arial; font-weight:bold;" x="10" y="20">Over 10km Runs</text><text fill="#FFFFFF" style="font-size:4px; font-family:Arial" x="10" y="280">ATHLETE</text><text fill="#FFFFFF" style="font-size:9px; font-family:Arial" x="10" y="290">TXyy2025</text><text fill="#FFFFFF" style="font-size:4px; font-family:Arial" x="65" y="280">SPECIAL TRACKS</text><rect fill="yellow" height="2.6" width="2.6" x="65" y="283" /><text fill="#FFFFFF" style="font-size:3px; font-family:Arial" x="70" y="285.5">Over 20.0 km</text><rect fill="red" height="2.6" width="2.6" x="65" y="287" /><text fill="#FFFFFF" style="font-size:3px; font-family:Arial" x="70" y="289.5">Over 40.0 km</text><text fill="#FFFFFF" style="font-size:4px; font-family:Arial" x="120" y="280">STATISTICS</text><text fill="#FFFFFF" style="font-size:3px; font-family:Arial" x="120" y="285">Number: 4</text><text fill="#FFFFFF" style="font-size:3px; font-family:Arial" x="120" y="290">Weekly: 1.3</text><text fill="#FFFFFF" style="font-size:3px; font-family:Arial" x="141" y="285">Total: 14.1 km</text><text fill="#FFFFFF" style="font-size:3px; font-family:Arial" x="141" y="290">Avg: 3.5 km</text><text fill="#FFFFFF" style="font-size:3px; font-family:Arial" x="167" y="285">Min: 1.9 km</text><text fill="#FFFFFF" style="font-size:3px; font-family:Arial" x="167" y="290">Max: 4.2 km</text><polyline fill="none" points="44.2563134804368,34.5 37.09385580010712,43.88424686016515 40.863570369780064,106.11595417466015 59.33517175540328,112.53661995381117 74.79100148566067,93.76848532515578 71.39825837500393,54.256278531160206 47.64905659109354,40.426895818673074 36.71688434481621,58.70142510905862 39.73265599831939,104.63426032126881 52.92665698938072,113.03051681048237 71.39825837500393,101.67087064264342 69.51340108923614,51.29284419445321 49.533913876861334,38.94517284841277 36.71688434481621,51.786750099854544 38.60174162685871,102.65866749524139 54.43454281426966,115.0061035065446 64.61277214996517,112.04272302379832 71.77522983029485,100.18917481880635 70.64431545883417,55.24408939247951 49.91088533401489,39.439080578507856 41.994484739378095,41.414710766868666 35.962941432371736,59.689234658842906 40.109627455472946,105.62205629656091 63.10488632321358,112.53661995381117 77.05283022485673,104.63426032126881 72.1522012874484,53.268467377638444 47.64905659109354,40.92080333014019 35.58596997335553,60.18313932302408 37.09385580010712,100.68307349923998 48.40299950540066,113.52441359381191 68.75945817492902,114.01831030426547 71.02128691785038,108.5854424724821 72.90614419989288,58.20752022578381 62.35094340890646,42.896432641660795 51.04179970175028,40.426895818673074 37.84779871441424,50.79893821734004 37.09385580010712,105.12815834465437 58.58122884295881,114.01831030426547 72.1522012874484,98.7074783386197 69.51340108923614,50.79893821734004 55.9424286428839,39.93298823572695 42.74842765368521,39.93298823572695 32.947169775143266,68.57950745569542 41.617513282224536,108.5854424724821 57.45031446963549,112.04272302379832 74.79100148566067,97.71968031930737 68.38248671963811,47.83550081565045 46.518142223358154,40.92080333014019 40.109627455472946,44.37815386033617 35.58596997335553,79.44536432554014 43.12539911083877,112.04272302379832 61.59700049646199,113.52441359381191 72.1522012874484,97.22578120022081 66.49762943387032,48.32940723095089 53.68059990182519,36.47563310782425 37.47082725726068,46.35378113039769 37.84779871441424,104.14036222477444 52.54968553036451,115.5 73.28311565890908,103.1525658108294 69.51340108923614,49.31721984385513 52.1727140750736,36.47563310782425 36.71688434481621,48.823313573608175 37.09385580010712,100.18917481880635 54.43454281426966,114.51220694277436 71.02128691785038,105.62205629656091 69.51340108923614,55.24408939247951" stroke="#4DD2FF" stroke-linecap="round" stroke-linejoin="round" stroke-width="0.5"><title>2025-03-21 4.2km</title><desc>1742565279000</desc></polyline><polyline fill="none" points="148.9927855078131,38.55006821430288 138.17362477537245,34.5 135.08243599440902,38.212562803179026 133.2792425379157,75.33785898773931 147.44719111733139,82.08784801722504 158.26635184977204,70.95035542314872 152.08397428970784,37.537551833549514 139.20402103476226,36.86254066391848 131.47604908328503,45.63767030951567 138.4312238395214,79.72535412549041 147.70479018241167,83.43784342962317 156.46315839607269,77.02535811555572 156.20555933006108,42.93763400847092 145.12879953160882,36.187529294751585 136.37043131887913,37.20004627387971 131.733648147434,45.97517462237738 135.340035058558,77.70035741664469 145.90159672684968,84.78783804364502 154.91756400372833,79.0503554220777 156.46315839607269,44.287652557948604 147.96238924749196,37.537551833549514 133.2792425379157,39.90008935588412 132.76404440868646,71.28785599698313 138.17362477537245,82.08784801722504 144.35600233636796,83.77534215827473 154.91756400372833,78.03785699349828 155.94796026404947,42.60012924717739 153.11437055002898,37.875057343160734 141.78001168649644,36.52503500482999 134.30963879916817,41.58761466224678 131.99124721251428,63.187828473513946 140.23441729601473,83.10034465091303 154.1447668094188,80.40035262983292 156.97835652530193,44.96266153361648 155.94796026404947,39.90008935588412 141.52241262048483,36.86254066391848 134.05203973315656,43.27513872087002 137.40082757920027,77.3628577911295 141.78001168649644,83.10034465091303 154.91756400372833,81.7503490394447 156.20555933006108,53.73776006232947 143.3256060751155,72.97535811574198 139.7192191639915,85.46283505135216 142.03761074971408,115.5 154.40236587449908,111.78756280126981 157.23595559131354,87.48782487981953 153.11437055002898,40.57509962748736 140.4920163601637,35.175011867657304 131.47604908328503,42.60012924717739 133.2792425379157,71.96285699331202 145.12879953160882,84.11284083663486 155.94796026404947,77.02535811555572 157.23595559131354,44.62515707057901 144.09840327128768,34.83750595944002 134.30963879916817,40.57509962748736 133.53684160392731,75.67535891267471 143.5832051411271,83.43784342962317 155.69036120083183,76.01285878825001 156.72075745929033,42.93763400847092 144.87120046652853,34.83750595944002 136.11283225473017,40.237594516482204 135.59763412363827,80.40035262983292 142.03761074971408,85.80033348174766 150.0231817672029,84.78783804364502 154.1447668094188,78.71285599516705 158.52395091578364,46.9876872622408" stroke="#4DD2FF" stroke-linecap="round" stroke-linejoin="round" stroke-width="0.5"><title>2025-03-10 4.0km</title><desc>1741591515000</desc></polyline><polyline fill="none" points="76.20223736390471,200.07706806622446 54.801848251372576,186.57694639870897 38.15710116177797,198.51936436700635 38.55340466462076,254.07703615329228 50.83881322853267,264.98077517724596 72.23920234106481,252.00012964592315 71.0502918343991,202.67323936498724 59.953793777152896,188.65389156830497 37.36449415795505,198.00012964801863 36.96819065511227,253.55780964018777 47.27208170853555,262.9038751143962 72.63550584577024,253.55780964018777 73.8244163505733,203.19247339502908 57.57597276382148,187.61541913775727 38.55340466462076,198.00012964801863 39.742315171286464,254.07703615329228 52.820330740883946,264.46155027579516 66.6909533124417,261.3461992617231 73.42811284773052,250.96167593169957 73.42811284773052,205.7886423910968 57.97227626666427,188.13465539109893 37.760797660797834,199.5578335772734 38.55340466462076,248.8847675838042 53.216634241864085,264.98077517724596 73.03180934675038,252.51935638813302 71.44659533910453,197.48089485010132 49.649902721866965,187.61541913775727 38.55340466462076,197.48089485010132 39.742315171286464,256.15394143154845 55.198151752352715,264.46155027579516 73.03180934675038,252.00012964592315 72.63550584577024,204.7501750229858 59.16118677332997,187.61541913775727 44.497957196086645,189.17312767007388 36.57188715413213,198.51936436700635 37.36449415795505,251.4809028264135 52.42402723804116,263.94232529890724 72.63550584577024,252.00012964592315 69.86138132959604,196.4424250263255 56.783365761861205,184.5 36.175583651289344,198.00012964801863 37.36449415795505,251.4809028264135 57.57597276382148,263.94232529890724 71.84289884194732,251.4809028264135 70.65398833528161,197.48089485010132 56.387062257155776,185.01923671457916 33.79776263795793,200.5963024799712 38.15710116177797,255.11548894480802 61.53900778666139,263.94232529890724 72.23920234106481,253.03858305281028 70.25768483243883,194.88471971661784 49.649902721866965,187.09618280595168 37.36449415795505,197.48089485010132 37.36449415795505,251.4809028264135 57.57597276382148,264.46155027579516 73.03180934675038,252.00012964592315 73.8244163505733,200.5963024799712 55.99075875803828,187.09618280595168 36.57188715413213,202.1540052590426 37.760797660797834,256.67316756001674 50.83881322853267,265.5 71.0502918343991,252.00012964592315 75.80593386106193,200.07706806622446" stroke="#4DD2FF" stroke-linecap="round" stroke-linejoin="round" stroke-width="0.5"><title>2025-03-09 4.1km</title><desc>1741514669000</desc></polyline><polyline fill="none" points="130.8144851922989,231.65774674643762 143.9413794912398,258.8425316538196 154.9510327745229,259.3973211341072 168.0779270734638,246.08235100121237 161.30275582149625,185.0548004633747 132.08482980169356,184.5 121.07517651841044,197.26038991753012 137.5896564424038,251.6302609599661 163.41999683901668,256.6233729165979 171.0420644953847,232.76733365654945 161.7262040246278,197.26038991753012 169.34827168285847,192.26719902735204 125.73310675472021,210.020736471517 127.85034776851535,203.36316976626404 143.9413794912398,213.3495153982658 137.5896564424038,225.55501288129017 141.824138475582,258.8425316538196 160.45585941523314,258.2877420934383 169.77171988599002,243.86318472237326 153.25723996013403,189.49320121947676 127.85034776851535,186.71920136129484 118.95793550275266,200.5891801561229 132.50827800482512,232.21254024282098 131.661381598562,250.52067962568253 152.83379175886512,264.94521142123267 164.69034144841135,243.30839294800535 157.9151701964438,196.15079251560383 135.04896722361445,185.0548004633747 120.22828011214733,197.26038991753012 129.96758878603578,254.95900300214998 155.37448097765446,265.5 165.96068605780602,249.4110979612451 163.41999683901668,188.38360152137466 135.47241542860866,186.71920136129484 128.69724417477846,212.23992275074124" stroke="#4DD2FF" stroke-linecap="round" stroke-linejoin="round" stroke-width="0.5"><title>2025-03-05 1.9km</title><desc>1741161630000</desc></polyline></svg>