<?xml version="1.0" encoding="utf-8" ?>
<svg baseProfile="full" height="300mm" version="1.1" viewBox="0,0,200,300" width="200mm" xmlns="http://www.w3.org/2000/svg" xmlns:ev="http://www.w3.org/2001/xml-events" xmlns:xlink="http://www.w3.org/1999/xlink"><defs /><rect fill="#222222" height="300" width="200" x="0" y="0" /><text fill="#FFFFFF" style="font-size:12px; font-family:Arial; font-weight:bold;" x="10" y="20">Over 10km Runs</text><text fill="#FFFFFF" style="font-size:4px; font-family:Arial" x="10" y="280">ATHLETE</text><text fill="#FFFFFF" style="font-size:9px; font-family:Arial" x="10" y="290">TXyy2025</text><text fill="#FFFFFF" style="font-size:4px; font-family:Arial" x="65" y="280">SPECIAL TRACKS</text><rect fill="yellow" height="2.6" width="2.6" x="65" y="283" /><text fill="#FFFFFF" style="font-size:3px; font-family:Arial" x="70" y="285.5">Over 20.0 km</text><rect fill="red" height="2.6" width="2.6" x="65" y="287" /><text fill="#FFFFFF" style="font-size:3px; font-family:Arial" x="70" y="289.5">Over 40.0 km</text><text fill="#FFFFFF" style="font-size:4px; font-family:Arial" x="120" y="280">STATISTICS</text><text fill="#FFFFFF" style="font-size:3px; font-family:Arial" x="120" y="285">Number: 23</text><text fill="#FFFFFF" style="font-size:3px; font-family:Arial" x="120" y="290">Weekly: 2.9</text><text fill="#FFFFFF" style="font-size:3px; font-family:Arial" x="141" y="285">Total: 169.5 km</text><text fill="#FFFFFF" style="font-size:3px; font-family:Arial" x="141" y="290">Avg: 7.4 km</text><text fill="#FFFFFF" style="font-size:3px; font-family:Arial" x="167" y="285">Min: 1.5 km</text><text fill="#FFFFFF" style="font-size:3px; font-family:Arial" x="167" y="290">Max: 35.9 km</text><polyline fill="none" points="32.27184466086328,50.45794604020193 39.26213592290878,43.58899392001331 22.48543689213693,44.0469245351851 22.48543689213693,50.91587564093061 39.96116504818201,49.54208663711324 32.27184466086328,54.12138094729744 29.825242718681693,47.25243694521487 16.194174759089947,44.96278556250036 21.43689320422709,43.58899392001331 44.504854368045926,50.00001637171954 24.93203883431852,50.45794604020193 36.11650485545397,51.831734638195485 16.54368932172656,57.326882937923074 36.46601941622794,49.54208663711324 40.310679610818624,55.4951679201331 17.24271844699979,49.54208663711324 27.37864077463746,56.411025564186275 22.83495145663619,53.66345181991346 37.86407767049968,50.45794604020193 31.922330098226666,57.78481152304448 23.533980583772063,49.084156833123416 33.669902911409736,49.084156833123416 37.51456310786307,51.373805172974244 30.52427184395492,55.4951679201331 32.27184466086328,49.084156833123416 16.893203884363174,55.4951679201331 12.0,51.831734638195485 30.52427184395492,57.326882937923074 38.563106797635555,52.747593363747 17.941747572273016,52.28966403496452 31.572815533727407,55.953096775570884 23.883495146408677,55.037238996010274 27.72815533913672,59.616525187157094 36.46601941622794,53.66345181991346 18.29126213490963,48.626226963242516 34.71844660118222,47.71036701882258 28.427184466272593,51.831734638195485 34.019417475908995,53.20552262524143 20.38834951631725,52.747593363747 43.8058252427727,53.66345181991346 16.54368932172656,55.4951679201331 30.174757281318307,59.616525187157094 21.43689320422709,55.953096775570884 34.71844660118222,54.579310005530715 32.97087378613651,60.0744534349069 18.640776697546244,57.326882937923074 27.37864077463746,54.579310005530715 31.223300971090794,60.0744534349069 35.417475728318095,54.12138094729744 22.48543689213693,55.037238996010274 35.76699029095471,57.326882937923074 39.6116504855454,50.91587564093061 26.679611649364233,56.86895428458229 36.11650485545397,49.54208663711324 27.029126213863492,55.037238996010274 45.203883497044444,50.91587564093061 34.71844660118222,55.4951679201331 25.980582524091005,47.25243694521487 28.776699028909206,51.831734638195485 41.0097087379545,49.084156833123416 27.72815533913672,56.86895428458229 45.55339805781841,45.87864631903358 39.26213592290878,52.28966403496452 24.93203883431852,52.28966403496452 20.737864077091217,59.616525187157094 19.339805824682117,52.28966403496452 38.91262136027217,58.70066849025898 32.97087378613651,56.411025564186275 39.26213592290878,52.28966403496452 24.23300970904529,55.4951679201331 36.46601941622794,53.20552262524143 37.165048545226455,39.9255465650931 33.32038834877312,53.66345181991346 42.4077669903636,54.12138094729744 32.27184466086328,58.24274003994651 34.368932040408254,50.91587564093061 29.47572815604508,52.28966403496452 44.504854368045926,53.66345181991346 16.54368932172656,57.78481152304448 21.786407766863704,52.28966403496452 15.14563106931746,50.45794604020193 32.27184466086328,52.28966403496452 31.922330098226666,56.86895428458229 20.737864077091217,57.326882937923074 35.417475728318095,57.326882937923074 40.66019417531788,50.45794604020193 27.72815533913672,45.420715973712504 29.825242718681693,49.084156833123416 17.592233009636402,52.28966403496452 23.883495146408677,42.21520166960545 30.87378640845418,47.71036701882258 23.533980583772063,53.66345181991346 44.854368932545185,52.747593363747 46.252427184954286,47.71036701882258 35.417475728318095,53.66345181991346 31.223300971090794,49.54208663711324 42.4077669903636,47.71036701882258 38.563106797635555,53.20552262524143 23.883495146408677,48.16829702514224 37.51456310786307,53.20552262524143 20.737864077091217,51.831734638195485 29.126213593408465,55.953096775570884 44.854368932545185,51.373805172974244 39.6116504855454,55.4951679201331 31.922330098226666,49.54208663711324 38.91262136027217,50.45794604020193 30.87378640845418,58.24274003994651 33.32038834877312,51.831734638195485 48.0,50.00001637171954" stroke="#4DD2FF" stroke-linecap="round" stroke-linejoin="round" stroke-width="0.5"><title>2025-04-26 3.2km</title><desc>1745672895000</desc></polyline><polyline fill="none" points="73.29463500424754,60.197539875342045 72.12313104665373,60.322148370789364 70.19173262978438,58.99298822981655 68.54529463499784,55.58698659745278 69.30518909404054,55.50391286984086 70.09674582222942,58.037650485144695 71.5532102023717,59.69910533959046 77.3790677220095,61.194406287773745 78.04397537373006,61.02826213199296 77.41072999127209,61.11133422222338 76.58751099382062,58.90991551170009 74.18117853987496,55.96081806704751 74.05452946352307,55.296228443068685 73.61125769559294,55.25469153930317 74.21284080913756,54.38241513699177 74.40281442389823,51.97325668472331 75.51099384343252,52.09786883671768 75.95426561124623,50.519444151606876 75.41600703611039,49.522539770347066 75.2260334212333,50.020992404111894 75.41600703611039,48.941010576992994 72.40809146873653,47.196415757294744 71.8381706244545,45.950269951543305 67.62708883022424,42.29487695649732 66.17062445019837,39.51176168466918 63.35268249781802,38.971751042234246 60.66138962178957,40.38408437045291 58.66666666662786,38.80559371225536 60.6297273527598,40.30100613637478 63.54265611246228,39.054829670349136 66.23394898837432,39.594840152567485 67.88038698316086,42.668726156058256 72.40809146873653,46.90564889818779 78.20228671946097,50.35329366760561 80.19700967462268,50.934819930640515 81.71679859270807,50.145605424186215 83.2049252417637,51.640957342024194 89.0624450306641,48.442556022375356 90.77220756362658,48.27640430719475 93.62181178526953,51.26712011054042 94.66666666662786,51.5163449869724 92.22867194365244,50.27021838867222 90.93051890924107,48.442556022375356 89.31574318383355,48.52563184298924 83.26824977993965,51.640957342024194 81.33685136318672,50.104067757027224 80.26033421279863,51.017895012453664 75.51099384343252,48.941010576992994 74.52946350048296,51.30865760528832 74.1495162708452,54.631637243233854 74.68777484609745,59.07606092322385 74.18117853987496,60.322148370789364 70.22339489869773,58.951451873843325 69.24186455574818,57.20691936466028 69.27352682489436,56.04389165923931" stroke="#4DD2FF" stroke-linecap="round" stroke-linejoin="round" stroke-width="0.5"><title>2025-04-24 3.3km</title><desc>1745457116000</desc></polyline><polyline fill="none" points="141.33333333348855,47.53752590419026 139.81526104407385,50.94716964085819 136.70682730944827,51.89428968250286 114.65863453783095,53.314967121288646 116.17670682724565,51.32601782528218 113.50200803205371,43.74901159352157 110.46586345415562,43.559585290262476 106.99598393589258,47.63223847508198 106.20080321282148,55.114487357554026 110.10441767098382,57.57698054774664 112.20080321282148,57.198136057239026 113.6465863455087,54.07266046805307 112.56224899599329,42.23359960014932 109.74297188734636,43.0860192872351 107.06827309215441,47.44281331944512 107.71887550223619,56.53515766025521 111.76706827338785,56.440446404740214 113.57429718924686,53.69381390680792 113.28514056233689,45.16970708372537 110.75502008013427,42.70716623275075 108.94779116474092,43.0860192872351 106.34538152627647,47.9163761039963 107.42971887579188,56.25102385156788 109.88755020080134,57.671691635332536 113.28514056233689,56.62986890185857 113.06827309262007,42.138886231405195 110.03212851425633,42.70716623275075 107.5742971887812,45.35913291142788 106.92369477916509,49.33706235856516 107.86345381522551,56.06160124251619 109.30923694791272,57.387558330607135 112.48995983973145,56.81929134298116 113.79116465849802,53.78852556803031 112.8514056224376,45.074994149035774 111.62248995993286,43.46487211773638 108.3694779118523,43.37015893100761 105.33333333348855,46.96925018483307 107.06827309215441,55.966889916860964 111.76706827338785,57.671691635332536 113.79116465849802,54.83035291940905 113.2128514056094,44.980281200492755 110.24899598397315,43.18073251575697 107.5742971887812,44.412003214121796 106.34538152627647,46.96925018483307 108.87550200801343,56.91400254255859 111.62248995993286,57.766402709065005 114.00803212821484,54.262083665060345 113.50200803205371,46.59039942576783 112.48995983973145,44.412003214121796 109.09236947773024,43.18073251575697 106.63453815272078,45.73798439837992 107.5742971887812,55.114487357554026 109.30923694791272,57.10342489980394 112.99598393589258,56.724580129317474 113.6465863455087,49.90533597872127 112.99598393589258,44.79085526103154 108.3694779118523,43.18073251575697 106.56224899599329,45.83269723522244 107.14056224934757,52.841408325126395 107.5742971887812,56.156312553968746 109.95983935752884,57.8611137685366 113.42971887532622,55.777467224164866 113.28514056233689,45.074994149035774 110.10441767098382,43.0860192872351 106.99598393589258,45.643271547567565 107.35742971906438,55.30391024652636 110.46586345415562,57.57698054774664 113.6465863455087,55.114487357554026 113.6465863455087,45.92741005780408" stroke="#4DD2FF" stroke-linecap="round" stroke-linejoin="round" stroke-width="0.5"><title>2025-04-20 4.3km</title><desc>1745155370000</desc></polyline><polyline fill="none" points="176.78119125496596,50.692411255673505 160.04838166572154,38.69237047852948 164.62788744829595,61.30775509332307 170.08806741889566,67.76923341176007 175.19597771484405,67.0769334420329 179.4232138209045,62.000057620112784 178.19026995729655,41.000077788485214 172.20168547239155,33.153859024751 168.6789887174964,33.61540239606984 164.45175261050463,39.84622455923818 165.6846964750439,62.230825060629286 170.79260677006096,68.0 178.0141351185739,65.46156565228011 177.66186544392258,38.69237047852948 173.08235966134816,32.0 164.9801571238786,35.23080312134698 165.86083131376654,60.8462199048372 170.79260677006096,67.53846678941045 178.71867447067052,62.92312717891764 179.59934865869582,40.07699527346995 175.3721125535667,33.84617403091397 169.38352806773037,33.84617403091397 164.27561777364463,38.46159956045449 165.86083131376654,63.61542898975313 171.84941579774022,68.0 179.77548349741846,59.923149118665606 178.36640479508787,37.30774445622228 173.2584944991395,32.23077187361196 163.571078421548,40.07699527346995 166.3892358262092,64.5384975936031 173.4346293369308,68.0 179.2470789840445,63.384661753778346 178.36640479508787,38.230828607454896 175.72438222821802,34.07694563094992 169.38352806773037,32.923087287694216 164.45175261050463,40.30776595324278 165.33242679946125,62.46159246773459 168.50285387877375,66.61539995844942 175.3721125535667,67.0769334420329 179.59934865869582,59.923149118665606 178.36640479508787,38.69237047852948 170.44033709540963,33.61540239606984 164.27561777364463,40.538536598789506 165.6846964750439,63.61542898975313 169.38352806773037,67.76923341176007 179.2470789840445,63.384661753778346 179.2470789840445,41.46161884069443 171.84941579774022,32.23077187361196 164.62788744829595,37.53851554496214 164.45175261050463,60.8462199048372 166.74150550179183,65.69233258138411 172.73008998576552,68.0 179.95161833427846,62.46159246773459 178.36640479508787,38.00005762116052 172.37782031018287,32.4615437121829 164.09948293492198,40.30776595324278 165.15629196166992,60.615452259313315 169.38352806773037,67.53846678941045 178.89480930846184,63.846196191501804 178.71867447067052,39.615453811595216 173.4346293369308,33.153859024751 165.6846964750439,36.61543098511174 164.45175261050463,60.15391686616931 169.38352806773037,67.30770013295114 179.07094414532185,63.61542898975313 179.59934865869582,41.23084833170287" stroke="#4DD2FF" stroke-linecap="round" stroke-linejoin="round" stroke-width="0.5"><title>2025-04-19 4.1km</title><desc>1745066356000</desc></polyline><polyline fill="none" points="30.36153998412192,74.60529029450845 24.576900246553123,73.65791249542963 21.14227040298283,78.63163969444577 22.58843033760786,100.18427923275158 27.83076009899378,106.81580233352724 38.315419622696936,102.55268348951358 38.676959606818855,79.5790145539213 37.050029680132866,75.3158232762944 29.819230008870363,72.0 22.4076603455469,77.92110818251967 23.853820279240608,103.73688430548646 28.373070075176656,107.76316053676419 35.24232976231724,107.05264193634503 37.7731096483767,100.89480087743141 38.496189614757895,79.34217089123558 37.050029680132866,74.84213465708308 30.180769992992282,72.71053413697518 22.58843033760786,77.44742033269722 24.757670238614082,103.97372436325531 33.07308986131102,107.05264193634503 38.676959606818855,101.13164135534316 37.7731096483767,80.76323234126903 29.638460016809404,73.42106795834843 22.046120361424983,78.86848346143961 23.130740312859416,100.65796036401298 30.36153998412192,107.76316053676419 35.60386974643916,105.86844356975053 37.95387963950634,99.00007579207886 37.592339656315744,77.68426427466329 30.903849959373474,72.47368945949711 22.226890354417264,80.05270177358761 22.949970320798457,99.00007579207886 29.638460016809404,107.28948150505312 37.41156966332346,103.26320408377796 37.7731096483767,79.5790145539213 30.903849959373474,72.47368945949711 23.130740312859416,78.39479589182884 22.949970320798457,100.89480087743141 25.480750204995275,105.39476397819817 33.07308986131102,106.3421230216045 38.1346496315673,99.94743861479219 37.41156966332346,76.97373234236147 33.79616982862353,72.94737877894659 26.746140148490667,72.71053413697518 22.4076603455469,80.5263888540212 24.03459027223289,103.97372436325531 31.446159935556352,107.52632103860378 36.86925968807191,103.26320408377796 36.86925968807191,82.65797898115125 31.80769991874695,74.3684458975913 27.64999010693282,73.42106795834843 21.865350369364023,78.15795205440372 22.949970320798457,99.7105979619082 31.62692992761731,108.0 36.68848969694227,104.92108424659818 38.85772959794849,84.31588045391254 37.23079967312515,75.55266753362957 33.25385985337198,72.47368945949711 22.949970320798457,78.63163969444577 23.67305028811097,103.73688430548646 27.107680131681263,107.28948150505312 36.68848969694227,104.21056438679807 37.23079967312515,82.8948221532628 30.723079967312515,73.42106795834843 23.492280296050012,76.26320009550545 22.949970320798457,100.65796036401298 26.023060181178153,106.5789626945043 35.60386974643916,105.63160379172768 38.496189614757895,81.23691921099089" stroke="#4DD2FF" stroke-linecap="round" stroke-linejoin="round" stroke-width="0.5"><title>2025-04-17 3.9km</title><desc>1744894073000</desc></polyline><polyline fill="none" points="59.69475523562869,96.1405493686525 59.88628954437445,96.25125554774422 60.43554234149633,96.12209829110179 60.76509401976364,95.92282578511549 61.3509636700328,95.80842788750124 61.59883159898163,95.86009151903636 61.900216467140126,95.75676414910413 62.73113736535015,95.60915287917305 63.407140807961696,95.39880531233212 64.28031192133494,95.04084134570985 64.65774717679597,94.97072409162138 65.41543436871143,95.09250656489166 65.65203557364293,95.04822209785198 67.52512844586454,95.40249563578982 69.81790678872494,96.5464696267336 71.67691625589214,96.8306098827652 71.80085022038838,96.97083375312468 71.94450095192587,97.0335652297781 72.82612210833759,97.18116808285049 73.04018986516166,97.02249498064339 75.0090498917707,97.29924973737616 76.25965626059042,97.19223826167035 78.62285162872286,97.49113123556708 78.40315050986828,97.4247108837535 78.85381947160931,96.66824441793142 79.29322170930391,95.41725692416549 79.75515739509137,94.7013243896854 80.03119213414902,94.14037322053264 81.32123203713854,91.13611767572002 82.01131888478994,89.78888326159722 82.42818767442077,88.62614307119838 83.09292439297133,87.75866671076074 84.11537959992711,88.6815128794733 85.21670187517884,90.40160710229247 85.21951855618681,90.50126558255397 84.74068278433697,91.57164640564952 84.9294004120602,92.52387767930304 85.87580523171346,93.08855582036449 86.79967660328839,92.99259834389704 87.32357927130943,93.06272115142383 87.39399629658146,93.18820357878212 87.35737944344874,93.90787002978504 87.4108963826584,94.03703873628729 87.56581383824232,94.23263579161357 87.82776517226011,94.36549329526679 88.05028297212266,94.575849564093 88.30096758207947,94.88584504699247 88.377017969382,94.90429703775226 88.45306835666997,94.82679858496158 88.42771822756913,94.5500164335208 88.66150275149266,94.13299220010958 88.85585374121729,93.42809469986969 88.9628876196366,93.34321041273688 89.07273817907844,93.32106663821287 89.28398925488,93.39118852351567 89.74592494065291,93.31737600721135 90.26419424667256,93.43916654213353 90.43601178833342,93.64214944726336 90.73176329447597,93.63845886370655 90.77683019064716,93.78977234211925 90.60782932999427,94.04072926093795 90.83879717288073,94.35073138531334 91.44156690921227,94.50942146006491 91.66971807110531,94.70870524215206 91.8922358709533,94.78620406134723 92.61893957175198,95.2475015812197 93.09214198158588,95.31392772237268 93.45267715098453,95.6571266375795 93.48084396107879,95.84533049235506 93.30902641941793,96.05198407210992 93.23015935112198,96.28077711265178 92.97102469812671,96.69776549002927 93.01045823228196,97.22913882232024 93.17100904989638,96.88596150457124 93.56252771039726,96.46159593636366 93.72871189004218,96.0224622368205 93.80476227734471,96.000320837451 93.97376313798304,96.18114169128785 93.93714628485031,95.7161711368226 94.54273270218982,95.02607983489543 94.66666666667152,94.40608850263743 88.63051926036132,85.72828506334918 88.1347834024491,85.47355279912153 87.96578254179622,84.95300487203713 87.70101452677045,84.65765370400004 87.53483034712553,84.49520907209626 86.89826043866924,84.11124483085223 86.37717445165617,83.57959228506115 86.08705630752956,82.58271324042471 85.36880264976935,82.50886876443474 85.30120230550529,82.59009767600037 85.25613540933409,83.00731473786436 85.1716349789931,84.38814271402043 85.0674177815963,84.7314918236043 84.50408157942002,85.68029222677615 83.34642568395066,87.38582718473299 82.4845212946384,88.47848964884724 81.79161776594992,89.10601066382333 80.92126333358465,90.61199676083561 79.41152231176966,94.24370727724818 79.31293847638881,94.65334879550574 79.23407140807831,95.50582447119814 78.85945283362526,96.63872331094535 78.36935033774353,97.45423106190356 77.59757974077365,97.30293978008922 76.35824009597127,97.20330843559168 74.99496648670174,97.28817960596643 73.05708995122404,96.99666438024542 72.80922202227521,97.17747802215672 71.97548444305721,97.02987514728011 71.78113345330348,96.94869319435202 71.67691625589214,96.81584942957488 69.80382338365598,96.52801884901601 67.53639516991097,95.38035368687633 65.77033617609413,95.04453172206013 65.56190178127144,95.01131831534076 65.39571760164108,95.06298359558787 64.6492971337575,94.93751058676025 64.27186187831103,95.01131831534076 62.76493753748946,95.57963052050764 61.95091672534181,95.7235516894234 61.525597892701626,95.85271100678983 61.33969694597181,95.80473762401743 60.821427639981266,95.89330379717649 60.68904363247566,95.9375867660001 60.486242599698016,96.10364719992322 59.835589286187314,96.25125554774422 59.61870484834071,96.00770130608907 59.63842161541106,95.27702433243758 59.11170226638205,95.12941022744053 58.745533734967466,94.6902531068954 58.66666666667152,94.46513595922625 58.90890123358986,94.44668364403697 58.94270140572917,94.40977897276753 58.897634509557975,94.31751705602255" stroke="yellow" stroke-linecap="round" stroke-linejoin="round" stroke-width="0.5"><title>2025-04-14 32.8km</title><desc>1744614550000</desc></polyline><polyline fill="none" points="128.68600163888186,83.68840148649178 126.00966748595238,74.57145573571324 118.33750958181918,73.16884403419681 115.12590859923512,79.48058689828031 115.12590859923512,101.22084181988612 120.3001546273008,107.53247278206982 126.18808976281434,107.29870912106708 129.9349575759843,102.62342865357641 129.04284619167447,79.01305125351064 121.1922660106793,73.40261273772921 115.30433087609708,79.48058689828031 114.94748632144183,101.22084181988612 119.7648877967149,107.0649454263039 129.04284619167447,104.96107061428484 130.1133798537776,79.01305125351064 125.11755610164255,73.40261273772921 115.30433087609708,79.01305125351064 115.30433087609708,99.58448894135654 120.12173234950751,107.76623640838079 126.54493431653827,106.8311816958012 130.64864668436348,101.68837090267334 129.75653529912233,78.07797954929993 120.8354214578867,73.40261273772921 114.41221949178725,80.41565777407959 116.55328681319952,104.02601424453314 121.90595511905849,107.76623640838079 130.64864668436348,102.15589984680992 130.4702244065702,80.1818901069928 125.47440065536648,73.16884403419681 121.7275328412652,72.46753771731164 115.30433087609708,78.07797954929993 115.66117542982101,100.75331259868108 120.47857690416276,108.0 130.4702244065702,103.79225006618071 129.75653529912233,77.6104434892768 122.97648878023028,72.0 118.51593185774982,73.16884403419681 114.94748632144183,79.94812240509782 115.83959770668298,102.38966426777188 122.61964422557503,107.53247278206982 131.0054912371561,102.15589984680992 130.64864668436348,79.94812240509782 124.76071154791862,72.70130652398802 120.47857690416276,72.93507529597264 114.76906404551119,78.77928337908816 115.12590859923512,100.75331259868108 116.73170909099281,104.7273065734189 123.86860016360879,107.76623640838079 131.540758067742,99.81825374194887 130.29180212970823,77.14290729211643 122.97648878023028,72.93507529597264 114.94748632144183,79.01305125351064 115.83959770668298,102.85719300538767 119.229620966129,107.0649454263039 125.47440065536648,107.76623640838079 131.18391351401806,101.45460637845099 131.0054912371561,79.94812240509782 125.83124520909041,72.23376887629274 118.87277641240507,74.33768720470835 116.19644226040691,78.77928337908816 115.12590859923512,99.81825374194887 121.54911056533456,107.53247278206982 130.4702244065702,103.09095732262358 130.64864668436348,77.6104434892768 125.65282293129712,72.46753771731164 120.8354214578867,72.70130652398802 115.48275315295905,79.94812240509782 115.66117542982101,102.85719300538767 122.08437739592046,107.76623640838079 131.71918034367263,105.42859859217424 132.25444717518985,79.71435466920957" stroke="#4DD2FF" stroke-linecap="round" stroke-linejoin="round" stroke-width="0.5"><title>2025-04-09 4.1km</title><desc>1744204461000</desc></polyline><polyline fill="none" points="156.09400961454958,108.0 160.45010298863053,102.73176180233713 159.61239272449166,99.21959262655582 164.47111225686967,101.4146993344184 164.47111225686967,97.02448267501313 164.63865430932492,99.658614227199 163.46585993934423,96.1464377862867 163.29831788688898,99.43910344305914 161.12027119938284,98.12203805602621 162.96323378104717,104.04882310307585 159.27730861771852,96.58546029555146 162.62814967520535,99.87812497885898 161.2878132527694,106.6829422020819 162.62814967520535,103.82931296771858 160.11501888278872,101.85372028697748 163.29831788688898,96.36594905750826 161.12027119938284,104.04882310307585 162.29306556936353,101.19518880930264 164.13602815102786,105.5853931447491 162.62814967520535,100.75616766267922 159.10976656526327,106.24392267595977 160.61764504015446,102.0732307145372 163.1307758335024,104.04882310307585 160.11501888278872,105.5853931447491 162.62814967520535,101.63420982670505 162.96323378104717,105.14637329545803 160.28256093524396,99.00008177699056 161.12027119938284,106.9024519160157 164.8061963627115,94.17083488975186 161.12027119938284,107.12196159746964 161.79043941106647,99.00008177699056 163.29831788688898,106.6829422020819 160.78518709354103,98.56105998135172 163.29831788688898,95.92692648281809 160.45010298863053,92.41474122111686 163.80094404518604,99.87812497885898 160.61764504015446,99.21959262655582 159.61239272449166,105.5853931447491 160.9527291469276,99.21959262655582 162.79569172859192,101.19518880930264 160.28256093524396,102.51225147221703 163.80094404518604,99.21959262655582 165.4763645734638,101.19518880930264 163.9684860985726,99.658614227199 162.79569172859192,104.26833320595324 165.14128046762198,102.73176180233713 161.2878132527694,105.36588323640171 163.9684860985726,106.24392267595977 160.78518709354103,101.63420982670505 163.80094404518604,101.85372028697748 162.4606076227501,106.02441286470275 162.79569172859192,96.36594905750826 169.16228973679245,98.78057089529466 160.9527291469276,103.17078236571979 162.29306556936353,105.14637329545803 161.95798146352172,100.75616766267922 162.96323378104717,106.9024519160157 160.45010298863053,101.85372028697748 166.314074838534,103.39029259898234 163.63340199179947,106.6829422020819 163.9684860985726,98.56105998135172 161.2878132527694,100.97567825240549 164.13602815102786,100.97567825240549 162.4606076227501,104.48784327681642 160.45010298863053,94.60985798272304 163.63340199179947,95.92692648281809 161.62289735861123,103.60980279918294 159.94747683033347,100.75616766267922 165.14128046762198,100.31714638543781 162.96323378104717,97.24399381584954 169.6649158950895,99.00008177699056 172.84821489825845,79.02445874118712 183.90599038545042,78.36591714515816 183.40336422808468,72.0" stroke="#4DD2FF" stroke-linecap="round" stroke-linejoin="round" stroke-width="0.5"><title>2025-04-07 1.9km</title><desc>1744030807000</desc></polyline><polyline fill="none" points="30.593406593427062,129.2225680446718 12.0,123.5211164993234 27.82417582347989,122.48448795103468 19.912087911739945,123.00280226347968 29.802197800949216,113.67313291574828 22.285714285448194,114.19144852994941 25.450549449771643,134.40569777064957 28.615384614095092,121.96617356082425 24.26373626291752,131.2958208543714 24.65934065915644,114.70976406754926 24.26373626291752,141.1437549686525 27.428571429103613,131.2958208543714 32.175824174657464,135.96063519688323 27.03296703286469,137.51557193184271 22.285714285448194,117.30134061025456 26.637362636625767,141.1437549686525 20.30769230797887,124.039430658333 27.03296703286469,126.63100030948408 27.03296703286469,117.81965568824671 32.175824174657464,135.44232279760763 28.615384614095092,131.81413386506028 26.637362636625767,140.10713162762113 22.285714285448194,125.07605874817818 24.65934065915644,130.25919460249133 31.780219780281186,125.59437267831527 25.450549449771643,146.32686708425172 32.967032965272665,133.36907243938185 25.054945055395365,139.58881984092295 22.285714285448194,131.2958208543714 26.241758240386844,137.51557193184271 35.736263735219836,128.18594117974862 28.219780219718814,131.81413386506028 32.175824174657464,139.07050797808915 28.219780219718814,134.92401032196358 28.615384614095092,114.19144852994941 23.472527472302318,132.85075965709984 29.010989010334015,125.59437267831527 23.472527472302318,115.74639491550624 26.241758240386844,129.2225680446718 30.19780219718814,124.55774474213831 22.68131867982447,140.62544333632104 20.703296702355146,124.55774474213831 25.450549449771643,137.51557193184271 26.241758240386844,126.63100030948408 19.1208791192621,131.2958208543714 16.351648351177573,117.30134061025456 28.615384614095092,142.1803780044429 25.054945055395365,133.88738514343277 33.75824175775051,119.37460046564229 28.615384614095092,140.10713162762113 23.472527472302318,130.77750776614994 27.428571429103613,117.81965568824671 21.89010988920927,138.0338840247132 17.14285713993013,129.2225680446718 28.615384614095092,124.55774474213831 30.593406593427062,131.81413386506028 24.65934065915644,126.11268653254956 23.472527472302318,131.2958208543714 34.153846153989434,124.55774474213831 25.054945055395365,135.44232279760763 28.615384614095092,145.80855621630326 22.68131867982447,123.5211164993234 29.010989010334015,128.7042546509765 32.967032965272665,122.48448795103468 20.703296702355146,120.92954455222934 24.65934065915644,134.40569777064957 28.219780219718814,115.74639491550624 23.076923076063395,129.2225680446718 20.703296702355146,119.37460046564229 17.538461538031697,143.217000734061 22.68131867982447,119.89291523769498 30.98901098780334,127.66762763285078 23.076923076063395,126.11268653254956 22.68131867982447,114.70976406754926 22.285714285448194,145.29024527338333 23.472527472302318,130.25919460249133 31.780219780281186,128.18594117974862 24.26373626291752,115.22807952947915 32.967032965272665,132.85075965709984 26.241758240386844,116.26471022330225 21.494505492970347,124.039430658333 29.802197800949216,120.41122993268073 22.285714285448194,130.77750776614994 27.03296703286469,144.77193425269797 16.351648351177573,117.30134061025456 21.89010988920927,135.44232279760763 30.593406593427062,138.0338840247132 28.219780219718814,124.55774474213831 48.0,120.92954455222934" stroke="#4DD2FF" stroke-linecap="round" stroke-linejoin="round" stroke-width="0.5"><title>2025-04-06 2.6km</title><desc>1743945103000</desc></polyline><polyline fill="none" points="62.012306386604905,135.69482925436205 63.68226182900253,135.07935667492893 64.023127519642,135.06809789128602 64.64470613199228,135.18068550311364 64.83662210906914,135.12063883890187 66.82452790156822,135.49968102666753 69.13611287929234,136.66304252080045 71.04095056228107,136.95575089492377 71.14979842987668,137.08334066920725 71.31593464885373,137.16214579790903 72.21249734777666,137.3084975312122 72.44451517080597,137.14338269420477 74.40091237005254,137.42858037500082 75.70422236368177,137.31975532193246 76.8385317207867,137.43608553388185 77.80097602379101,137.60495102274945 77.8926373859722,137.5486626511847 78.32516443879285,136.84692381636341 78.76628474434256,135.57473821473286 79.41077869723085,134.5126583692163 80.71981752599822,131.44251000692202 81.55336303841614,129.80219306105573 81.99161892638949,128.58971678035232 82.65043496713042,127.72630828532783 83.69594737960142,128.67980988826457 84.7958837258775,130.3952718284836 84.79015489075391,130.549169751519 84.3203904095135,131.6151687854981 84.43496711224725,132.33206550648902 84.54095056228107,132.60230404477625 85.37163165712263,133.10524033567526 85.54636112879962,133.15403213245918 86.35985571822675,133.06395489597526 86.9642478251626,133.13151285327876 87.03012942925852,133.2478622474191 86.98143433057703,133.97597215826136 87.08168894548726,134.1936504499281 87.21631657119724,134.32876017542912 87.47124973479367,134.45636314518197 87.98684489709558,134.99679214569187 88.0498620836297,134.98553332545634 88.11287927012017,134.8842037187842 88.0928283471294,134.59522447212476 88.34203267560224,134.1636259688894 88.51103331212653,133.5180910418403 88.60269467430771,133.4092492343243 88.75164438787033,133.3754706475047 88.9722045406379,133.45053411276967 89.3789518353733,133.36796428877278 89.96042860175658,133.50683156614286 90.10937831530464,133.70574823532843 90.4187354126916,133.70950136506508 90.47029492893489,133.8333543349745 90.3070231275342,134.0622930833415 90.3041587099724,134.152366779339 90.53617653300171,134.4300919979305 91.1892637386045,134.62524844300424 91.36399321029603,134.78662667845128 91.64184171441593,134.906721444082 92.32930193083303,135.34581309777604 92.83630384044955,135.42087074049778 93.1972204540798,135.78114433841074 93.21727137705602,135.95377362664294 93.05113515809353,136.14516559660478 92.95374496075965,136.4191162993029 92.70454063231591,136.78688109069844 92.69881179716322,137.32350791773752 92.75037131339195,137.33851829537525 92.88786335669283,137.02705114190394 93.32898366222798,136.53920334720533 93.46934012307611,136.14141282673336 93.56386590283364,136.10763787300675 93.71854445151985,136.27651219259315 93.68703585828189,135.82617817888058 94.19117335030751,135.27826102971085 94.33152981117018,135.05683910265725 94.51198811798531,133.97972524806028 94.47475068959466,133.66071063534037 94.50912370040896,133.18030459958572 94.66093783154793,132.9851370519791 94.66666666667152,132.38461211413778 94.59219180989021,132.18193174275075 94.46042860174202,132.03179709148935 93.29747506896092,131.40872880424104 92.84489709314948,131.10844947221085 92.71886272013944,130.90951245946235 92.76182898366824,130.5679377271099 92.52981116063893,130.26014117585328 92.52121790792444,129.84723750412195 91.98270740506996,129.45309591806654 91.90250371315051,129.34048291269028 92.01994483344606,129.02141001865857 92.00275832803163,128.89753357937843 91.93114788882667,128.85248745162608 91.66762147254485,128.95384112669853 91.23509441969509,128.96510262117772 90.90568639934645,128.49586945303963 90.2984298748197,127.955302094746 89.60237640568812,127.01303564417503 88.90632293657109,126.38984419846929 88.72872904731776,125.89428345610213 87.78060683218064,125.39871304064582 87.64025037131796,124.95944935789339 87.49702949290804,124.74544634884842 87.11033312116342,124.36999811462374 86.54317844261823,124.02833539589119 85.95310842352046,123.42384393634165 85.70676851263852,122.46639011911248 85.52631020580884,122.41757778055398 84.97061319755448,122.39504897724873 84.90759601103491,122.44010656385944 84.85317207724438,122.90569694235091 84.76437513262499,124.27988971217565 84.64693401232944,124.6590937466608 84.1112879270222,125.57141291993685 82.89391046043602,127.36592040259711 81.9887545088277,128.5033772519855 81.50753235732554,128.89753357937843 81.29556545727246,129.14528585363223 80.4562911097164,130.61298081193127 78.88659028221446,134.39256174043294 78.81211542543315,134.67779030664315 78.76628474434256,135.45464660737707 78.38245279015973,136.65553713352347 77.8439422872907,137.5786831315254 76.98175259921118,137.42858037500082 75.73859537451062,137.316002725589 74.35794610652374,137.41357005056852 72.41300657756801,137.14338269420477 72.23254827076744,137.29723973551881 72.1408869085717,137.3084975312122 71.30734139615379,137.14338269420477 71.04667939743376,136.95199824481824 69.11606195630156,136.64052635231928 66.7958837258775,135.4659052196821 64.85380861446902,135.11313299590256 64.62179079143971,135.16567385036797 63.9056863993319,135.03807444385347 63.6221090600593,135.07185081972239 61.99225546362868,135.68357074351843 61.055590918753296,135.8486950691713 60.71472522809927,135.96127922125015 60.548589009136776,135.91249281661112 59.97570549545344,136.01006553219668 59.64056863995211,136.22397363569326 58.99607468704926,136.37783624547592 58.709632930214866,136.16017667051347 58.7210906004766,136.12264896909983 58.66666666667152,136.20520983903953 58.701039677500376,136.14141282673336" stroke="yellow" stroke-linecap="round" stroke-linejoin="round" stroke-width="0.5"><title>2025-04-06 31.5km</title><desc>1743926920000</desc></polyline><polyline fill="none" points="106.22911787664634,135.2553303918212 106.46887197501201,135.47624189587077 107.07747853238834,135.32781720931416 107.30669398907048,135.16213272460664 107.87578064012632,135.05857932504296 108.08655347385502,135.0965489581631 109.16412958625006,134.86873023382395 110.71330991412106,134.29917370425028 110.89773614362639,134.27155848930124 111.59855581575539,134.37166348820756 111.81196330991224,134.32678888656483 113.62987900078588,134.6754277559994 115.71916471504665,135.72476484137587 117.48438719750266,135.99744669866413 117.62402419984573,136.14241550440238 117.75839188134705,136.201093098638 118.57777127243753,136.3253510471077 118.81489071038959,136.18038337632424 120.58801717407187,136.43580200212818 121.77624902420212,136.33570584630797 123.76278298202669,136.57386496173604 124.24229117877258,135.8110569125438 124.65593286496005,134.65816852842727 125.23555815768486,133.69163143523292 126.47384855581913,130.80558987563563 127.20101483215694,129.37969851362323 127.58040593286569,128.2955485241837 128.49726775956515,127.09394770000108 129.57747853238834,125.48826388717316 130.05698672910512,124.65257400442533 130.13075722090434,124.43846682493131 130.28883684621542,122.70136341844045 130.35733801717288,122.62883740405596 130.85265417641494,122.65301276721766 130.99492583918618,122.70827064615332 131.25312256049074,123.62691372395784 131.71155347384047,124.10348875070667 132.28854410616623,124.44537353877422 132.66266588601866,124.8217863541704 132.76278298204124,124.96337125558603 132.90241998438432,125.40884010180889 133.77976190474874,125.84739415299373 133.90359094456653,126.27903379875715 134.56225604996143,126.86605091390993 135.18403590944945,127.71547308630034 135.76102654176066,128.22303988234125 136.07718579233915,128.6615410900631 136.15886026542285,128.69952112221654 136.52244340359175,128.65118288875965 136.68315768930188,128.58212809599536 136.7780054644827,128.61320277800587 136.78590944573807,128.73404837056842 136.6910616705718,129.03443327764398 137.27595628415293,129.51089796510314 137.25224434034317,129.81817800668068 137.48936377829523,130.17724169760186 137.43667056986305,130.4637981829892 137.51044106166228,130.60189643870945 137.9214480874216,130.89535252129645 139.08333333332848,131.54439523355904 139.21243169397349,131.85164852629168 139.18608508976467,132.25210742602758 139.23614363778324,132.383290745287 139.63397736143088,132.49030817065977 139.744633099137,132.56280356737443 139.75780640124867,132.71469795482153 139.51805230289756,133.16692312486157 139.52595628415293,133.31190949413576 139.68667056986305,133.36369012224714 140.0924082747806,133.06681296378338 140.2320452771237,133.1047858339989 140.25575722090434,134.25775086958674 140.3189890710346,134.45796055680148 140.48233801717288,134.58222777562514 141.20160031225532,134.72030168803394 141.33333333332848,134.84111569205197 141.32279469164496,137.00185495260848 141.20686963309709,136.9845974433465 140.87753708039236,136.74299097556104 140.35587431694148,136.59112277431814 140.11085089773405,136.64634768897668 138.27449258390698,137.35735680775178 136.84387197502656,137.37116259594404 136.82016003123135,137.3297452068964 137.04674082747079,136.83618233765264 137.44193989070482,136.42544724726758 137.4393052302912,135.85592866361003 137.76600312255323,135.26223390793712 137.93198672911967,135.06548289929378 137.93198672911967,134.95502546651733 137.87665886025934,134.87908567857266 137.58684621388966,134.59258334735568 137.33128415301326,134.50973864497428 137.07308743169415,134.50973864497428 136.39071038250404,134.06789527099863 136.18784153004526,133.9885006541117 135.99551131927,133.8262586414694 135.40798204527528,133.66401550215596 135.22619047618355,133.38785437609658 135.3790007806383,133.16001898958348 135.34738485557318,133.01157958784097 135.05230288836174,133.0046754066734 134.9047619047633,132.82516597993708 134.4858508977195,132.7285064865373 134.30142466821417,132.71124582062112 133.96682279469678,132.79064477820612 133.75604996096808,132.7216022217035 133.58743169397349,132.81135750536487 133.43198672911967,133.41201860494766 133.17642466822872,133.8538743827594 133.20013661202393,134.1162222970197 133.1500780640199,134.1956164798812 133.07103825136437,134.19906839476062 132.66266588601866,133.75031518461037 132.33596799375664,133.55355144345776 132.24902419984573,133.43273078120546 132.17788836846012,133.2704849090078 132.21740827479516,132.59387295425404 132.15681108509307,132.48340383542745 131.66939890709182,132.421264726534 130.7525370804069,132.50066466968565 129.93842701014364,132.00009529845738 129.84621389537642,131.81367361909543 129.74873145979655,131.03344822569125 130.15973848555586,130.12545400588897 130.16764246681123,129.9666377020203 129.16120218578726,128.39222636312843 128.24960967992956,127.53937590616442 127.9703356752434,127.35291862110535 128.1415886026516,127.43233579489424 128.0967993754748,127.56009329039625 127.58830991412106,128.2333982735363 126.96126073379128,128.79619728899706 126.01278298204124,130.49487036171195 124.70599141296407,133.6778234727699 124.58216237313172,134.75136820587613 124.22911787664634,135.81450858875542 123.71799375487899,136.6118321326121 123.13836846212507,136.4772209756611 121.92642466822872,136.3564154309679 120.60119047618355,136.43925358605884 118.79381342700799,136.17693175414206 118.567232630754,136.33570584630797 117.75312256049074,136.19073823977487 117.48438719750266,135.990543399761 115.75341530053993,135.7282165303477 113.60353239656251,134.64781298576418 111.91734972677659,134.33369267704438 111.74873145979655,134.31643319702562 111.61172911786707,134.36130781855354 110.92408274784975,134.24739514944486 110.6711553473724,134.28191419873474 109.20891881341231,134.8307602304667 108.39217408273544,134.97228447481393 108.02859094456653,135.09309717588621 107.8441647150612,135.04477217042404 107.35148321624729,135.13451852960316 107.01688134268625,135.33817245060527 106.41354410616623,135.4624349880487 106.23175253708905,135.2553303918212 106.26073380171147,134.58913149062755 105.72062841530715,134.39237481373857 105.3860265417461,133.94707726862725 105.33333333332848,133.7882869438945 105.55201014831255,133.77447903857137 105.60206869633112,133.71579534988268 105.54937548789894,133.67437148088538" stroke="yellow" stroke-linecap="round" stroke-linejoin="round" stroke-width="0.5"><title>2025-04-05 35.9km</title><desc>1743843004000</desc></polyline><polyline fill="none" points="176.86927389539778,127.42860789876431 174.4159617908299,133.21432175906375 169.01867515780032,120.35716940369457 167.54668789543211,139.6428836886771 173.43463695049286,126.14289266522974 175.88794905506074,137.71431610779837 168.03735031560063,139.00002792431042 172.45331210643053,120.35716940369457 164.60271336697042,120.35716940369457 179.81324842385948,144.14287138869986 167.54668789543211,128.07146537536755 175.39728663302958,133.85717837931588 167.54668789543211,138.35717206215486 173.92529936879873,122.28574467916042 174.90662421099842,130.64289432717487 164.11205094493926,131.92860823264346 171.962649686262,135.7857476696372 170.0,147.35714546963573 173.92529936879873,131.92860823264346 174.4159617908299,140.92859493382275 165.58403820730746,127.42860789876431 174.90662421099842,139.00002792431042 168.03735031560063,133.85717837931588 168.03735031560063,139.6428836886771 166.07470063120127,130.00003723194823 177.8505987394601,130.00003723194823 168.03735031560063,112.0 174.4159617908299,141.57145041553304 172.45331210643053,122.92860291339457 173.43463695049286,139.00002792431042 159.6960891522467,130.64289432717487 171.47198726423085,137.07146005611867 169.01867515780032,128.07146537536755 174.90662421099842,137.07146005611867 175.88794905506074,124.85717704892159 171.47198726423085,140.28573935851455 166.07470063120127,134.50003490503877 170.0,146.07143612066284 163.13072610273957,142.21430580224842 169.50933757983148,128.71432275511324 172.45331210643053,141.57145041553304 169.50933757983148,129.3571800403297 179.81324842385948,134.50003490503877 173.92529936879873,124.85717704892159 168.52801273576915,137.71431610779837 165.09337578713894,127.42860789876431 171.962649686262,134.50003490503877 179.81324842385948,120.35716940369457 170.49066242016852,128.71432275511324 171.47198726423085,148.0 170.49066242016852,126.78575032949448 180.30391084589064,138.35717206215486 174.4159617908299,125.50003490550444 172.45331210643053,140.92859493382275 164.11205094493926,128.07146537536755 172.94397452659905,118.42859327280894 173.43463695049286,142.8571610939689 167.54668789543211,133.85717837931588 171.47198726423085,124.21431909874082 170.0,139.6428836886771 177.8505987394601,131.92860823264346 170.0,142.8571610939689 167.54668789543211,127.42860789876431 179.81324842385948,140.92859493382275 168.03735031560063,133.21432175906375 170.0,146.7142908424139 173.43463695049286,132.57146504241973 165.58403820730746,132.57146504241973 167.0560254715383,140.28573935851455 173.92529936879873,130.64289432717487 165.09337578713894,128.71432275511324 170.98132484033704,142.8571610939689 169.01867515780032,130.64289432717487 173.92529936879873,135.7857476696372 167.0560254715383,144.14287138869986 166.07470063120127,124.85717704892159 173.43463695049286,137.07146005611867" stroke="#4DD2FF" stroke-linecap="round" stroke-linejoin="round" stroke-width="0.5"><title>2025-04-04 1.7km</title><desc>1743771861000</desc></polyline><polyline fill="none" points="36.66109587531537,152.0 28.667780824936926,154.18184316472616 24.338068505749106,160.29098687530495 25.50376028381288,183.85459016391542 30.4995821909979,187.34546237858012 34.1631849212572,186.25456569774542 36.994150668382645,181.01825041428674 36.32804108038545,158.98188677895814 28.667780824936926,155.49094751640223 22.672794537618756,163.5637320377864 24.671123299747705,183.41823055769783 26.502924665808678,186.4727450988721 33.49707533419132,186.69092446670402 37.49373285938054,181.45461073040497 34.99582190532237,160.07280360651202 29.5004178090021,155.27276353805792 23.172376727685332,161.1637196277734 24.338068505749106,184.07276991941035 33.83013012818992,186.4727450988721 38.159842445515096,180.58188996906392 35.32887669932097,158.32733629574068 29.5004178090021,155.27276353805792 24.338068505749106,157.8909691462759 23.50543152168393,181.6727908399189 28.834308221004903,187.34546237858012 37.66026025544852,182.98187082156073 36.994150668382645,161.1637196277734 29.66694520507008,155.49094751640223 21.84015755355358,161.8182688539382 22.672794537618756,179.27280785981566 27.668616443872452,187.1272831070237 34.662767112255096,186.036386265303 38.159842445515096,180.36370969796553 36.827623271383345,161.6000858108746 28.834308221004903,155.27276353805792 22.173212346620858,162.0364518649876 24.338068505749106,184.94548861775547 33.9966575242579,186.036386265303 38.159842445515096,179.27280785981566 34.829294509254396,159.41825360700022 26.835979458875954,156.36368310532998 22.173212346620858,162.2546348439064 24.005013711750507,183.85459016391542 31.498746572062373,187.34546237858012 36.994150668382645,183.85459016391542 38.159842445515096,179.27280785981566 35.66193149331957,158.5455198227428 26.835979458875954,155.7091314616846 22.672794537618756,162.9091835861327 23.67195891868323,182.32733097556047 28.501253427937627,187.34546237858012 37.66026025544852,182.32733097556047 36.994150668382645,160.29098687530495 28.667780824936926,155.49094751640223 22.173212346620858,160.94553648820147 23.67195891868323,184.07276991941035 26.835979458875954,187.1272831070237 34.3297123182565,186.4727450988721 37.82678765244782,180.14552939496934 36.994150668382645,160.50917011196725 31.99832876212895,155.27276353805792 24.671123299747705,156.80005070671905 22.173212346620858,160.50917011196725 24.50459590367973,185.60002730274573 31.99832876212895,188.0 37.99331504944712,182.5455109566683 37.49373285938054,166.18192294659093" stroke="#4DD2FF" stroke-linecap="round" stroke-linejoin="round" stroke-width="0.5"><title>2025-04-02 4.0km</title><desc>1743590878000</desc></polyline><polyline fill="none" points="71.32876705471426,160.02555003669113 68.35354431997985,160.02555003669113 68.0035181157291,177.22301750944462 72.72887187078595,186.39492224424612 83.57968419697136,181.80897665210068 82.87963178940117,167.82175890379585 85.50482831988484,166.67526005604304 81.12950076907873,154.75162183039356 68.87858362682164,156.586033673957 68.87858362682164,178.14021042198874 72.72887187078595,185.47773420985322 82.17957938089967,182.49686935462523 82.70461868774146,161.17205379600637 78.15427803434432,153.14650968881324 68.35354431997985,158.19114225823432 68.0035181157291,177.6816140334122 72.3788456665352,185.2484371169703 78.15427803434432,186.39492224424612 83.40467109624296,181.57967901730444 83.22965799365193,159.56694829533808 75.00404219795018,152.917207818944 69.22860983014107,157.04463629599195 68.7035705242306,178.82810475083534 75.35406840126961,185.93632829515263 79.37936974875629,185.47773420985322 84.10472350288182,179.05740279285237 83.22965799365193,158.42044334928505 76.92918631993234,152.917207818944 68.87858362682164,155.89812948706094 69.22860983014107,180.8917859076755 76.75417321827263,186.62421916797757 83.05464489106089,180.20389249373693 83.92971040122211,157.5032387826359 76.05412080977112,152.45860397734214 68.87858362682164,159.56694829533808 69.75364913605154,180.43319033202715 76.92918631993234,186.62421916797757 82.70461868774146,183.64335651532747 84.80477591231465,177.6816140334122 82.70461868774146,156.81533500226215 76.57916011568159,152.45860397734214 69.40362293180078,157.27393755677622 69.57863603439182,179.97459462156985 75.00404219795018,186.1656252866378 82.87963178940117,182.72616685472894 84.10472350288182,158.42044334928505 76.40414701402187,152.68790591543075 67.82850501406938,158.19114225823432 69.05359672848135,182.26757182134315 76.05412080977112,187.54140652553178 83.57968419697136,182.26757182134315 83.05464489106089,157.04463629599195 76.05412080977112,152.917207818944 68.35354431997985,157.9618411338888 70.10367534123361,183.64335651532747 75.70409460552037,187.3121097368421 81.30451387166977,186.85351605829783 83.7546972995624,182.49686935462523 83.40467109624296,158.42044334928505 75.8791077081114,152.0 68.7035705242306,158.19114225823432 71.32876705471426,183.4140591508476 73.77895048353821,186.62421916797757 82.70461868774146,188.0 84.80477591231465,160.02555003669113" stroke="#4DD2FF" stroke-linecap="round" stroke-linejoin="round" stroke-width="0.5"><title>2025-03-30 4.0km</title><desc>1743343343000</desc></polyline><polyline fill="none" points="131.38987842481583,156.88893945061136 129.52415219321847,158.88895555469207 125.28386530280113,155.11114512523636 127.31920300982893,156.88893945061136 127.48881448619068,154.22224717505742 122.06124726496637,152.0 116.29445709474385,154.66669621597975 114.08950791228563,176.22231705696322 116.80329152196646,184.66670286364388 124.6054194001481,188.0 131.38987842481583,183.33338194037788 132.7467702301219,177.55564428295474 132.91638170555234,172.00010637566447 128.33687186334282,155.33336953085382 120.0259095588699,153.33334869891405 113.75028496142477,161.77786301041488 117.65134890004992,184.44448279123753 125.45347677916288,187.11112148559187 131.7291013756767,181.11117777589243 130.37220957037061,156.66671527468134 121.89163579046726,153.11112399830017 115.27678824216127,159.77785074769054 117.4817374246195,183.77782237925567 126.1319226808846,186.44446225487627 131.2202669493854,181.11117777589243 130.37220957037061,155.7778182439506 120.36513250973076,153.7777980028186 115.61601119302213,159.77785074769054 116.46406857017428,180.44451588590164 121.38280136324465,186.22224244626705 127.1495915343985,186.22224244626705 132.06832432746887,181.11117777589243 130.54182104673237,157.11116359382868 120.0259095588699,154.22224717505742 114.25911938864738,160.6667454149574 116.80329152196646,181.55561887170188 124.94464235100895,186.44446225487627 131.89871285110712,180.2222951905569 131.2202669493854,159.33340321690775 123.92697349842638,154.44447171175852 119.85629808250815,154.66669621597975 115.95523414388299,160.00007446401287 117.82096037548035,183.55560217646416 127.1495915343985,186.88890177547 131.38987842481583,180.88895717915148 129.52415219321847,156.44449106638785 123.58775054570287,152.88889926392585 116.29445709474385,158.22228381584864 117.31212594918907,181.11117777589243 122.23085874132812,186.88890177547 127.31920300982893,186.22224244626705 131.2202669493854,181.33339833980426 130.88104399759322,158.6667316746898 123.58775054570287,153.55557336693164 116.29445709474385,159.1111794023309 116.29445709474385,180.0000744619174 120.53474398516119,185.7778027295135 125.62308825366199,186.88890177547 131.05065547395498,182.22228026844095 130.2025980958715,159.55562699853908 123.07891611941159,153.7777980028186 115.61601119302213,159.77785074769054 116.46406857017428,182.66672103572637 123.07891611941159,187.33334116323385 131.05065547395498,181.11117777589243 129.86337514407933,156.66671527468134 122.73969316855073,153.11112399830017 114.93756528943777,161.55563955719117 116.46406857017428,182.22228026844095 125.28386530280113,187.11112148559187 131.2202669493854,178.88897032791283 130.03298661950976,157.5556117813103 122.40047021768987,153.7777980028186 115.78562266845256,160.88896899926476 116.97290299739689,182.66672103572637 122.06124726496637,187.33334116323385 130.37220957037061,183.55560217646416" stroke="#4DD2FF" stroke-linecap="round" stroke-linejoin="round" stroke-width="0.5"><title>2025-03-30 4.5km</title><desc>1743327729000</desc></polyline><polyline fill="none" points="175.84771573590115,153.41971751028905 175.93908629426733,154.61687433358748 169.90862944163382,157.84918892075075 166.98477157345042,157.96890402794816 169.36040609143674,165.63063411333133 162.5989847718738,166.1094898377778 162.96446700533852,169.94032544834772 157.75634517800063,167.66576898901258 153.5532994926907,168.98261824360816 152.0,173.53171738353558 152.9137055836618,184.78464236855507 156.6598984771408,187.17886156454915 160.95431472128257,184.78464236855507 162.87309644650668,166.4686314459541 167.25888324901462,165.98977593320888 171.00507614202797,166.82777289458318 179.22842639591545,176.04568226705305 180.96446700533852,176.28510708693648 182.7918781726621,172.45430147426669 188.0,176.88366882811533 186.53807106614113,183.228396097722 186.26395939057693,175.68654490390327 181.5126903555356,173.0528660453856 180.05076142121106,176.04568226705305 177.94923857878894,174.48941921128426 167.3502538073808,158.20833418983966 175.57360406126827,155.45488305727486 174.20304568530992,152.82113843545085" stroke="#4DD2FF" stroke-linecap="round" stroke-linejoin="round" stroke-width="0.5"><title>2025-03-29 1.5km</title><desc>1743247652000</desc></polyline><polyline fill="none" points="20.971697240835056,218.37714073283132 21.581717697437853,219.01654664808302 21.240106241661124,218.47305174065696 20.87409396772273,218.85669534644694 21.093701332225464,219.75186111481162 22.46014715509955,221.82991022861097 24.09500197903253,223.26854792442464 24.680621617590077,221.9577895222028 24.33901016181335,221.31839229830075 24.85142734530382,221.82991022861097 24.534216707921587,223.71612214576453 25.998265804024413,224.80308425755356 31.195640095043927,225.63428689427383 34.928965289960615,228.0 39.1991084869951,227.1048683529807 40.0531371262623,225.76216393953655 39.51631912437733,206.45187417141278 38.83309621294029,205.07706928388507 37.29584466200322,203.92606312465796 35.29497756413184,202.74307819140085 33.050102283479646,203.3505577488395 31.6104540056549,201.40022259052785 29.585186089389026,194.84568872128148 30.43921472877264,194.4939764122537 31.000433548819274,196.06069048054633 32.56208591803443,196.31647945508303 33.123304738197476,195.29332174221054 32.4644826449221,192.19184536012472 31.0980368219316,192.0 30.122004091157578,192.63948387214623 28.6335541770095,192.73540628993942 27.023100171238184,193.72660211673065 22.826159429037943,194.23818528278207 20.264073511003517,195.32529549402534 20.922895604162477,198.71448638438596 19.995664510061033,201.1764125134505 19.946862873621285,207.82667032310565 20.239672692725435,214.47672373245587 20.996098059113137,217.60985114048526" stroke="#4DD2FF" stroke-linecap="round" stroke-linejoin="round" stroke-width="0.5"><title>2025-03-25 3.9km</title><desc>1742910133000</desc></polyline><polyline fill="none" points="82.39103620778769,192.0 70.36986017040908,202.31260436901357 69.65431397873908,206.62512316391803 73.37515418045223,226.31252281251363 78.24086828995496,227.06251295050606 82.96347316075116,223.50005584664177 81.38927153777331,204.75011679320596 78.67019600607455,200.81259439594578 72.51649874914438,201.1875970554538 70.36986017040908,209.06262730562594 72.23028027266264,225.56253223086242 78.38397752866149,227.25001041567884 82.5341454455629,223.6875538387103 81.9617084916681,203.6251116405474 75.23557428084314,199.5000842155423 70.9422971252352,202.87510765134357 70.51296941004694,223.3125578276813 76.80977590475231,227.06251295050606 82.24792696908116,224.06254973821342 82.39103620778769,206.81262364948634 80.95994382165372,201.9376020419877 76.95288514345884,199.6875857532723 73.51826341822743,199.6875857532723 69.79742321651429,204.56261600344442 70.65607864782214,223.3125578276813 75.6649019960314,227.43750785302836 82.39103620778769,224.06254973821342 81.67549001518637,203.81261256861035 76.09422971215099,199.5000842155423 69.65431397873908,205.87512094830163 70.08364169392735,223.3125578276813 77.23910361994058,227.06251295050606 82.67725468426943,222.00007091695443 82.39103620778769,204.18761434138287 77.38221285864711,199.12508105742745 70.65607864782214,202.87510765134357 69.79742321651429,222.00007091695443 73.80448189564049,227.25001041567884 76.95288514345884,227.43750785302836 82.67725468426943,221.62507440743502 81.67549001518637,202.31260436901357 75.23557428084314,199.31258265057113 70.08364169392735,206.25012211152352 70.79918788652867,224.06254973821342 74.09070037305355,227.06251295050606 78.38397752866149,226.68751793680713 83.10658240038902,221.25007778697181 81.38927153777331,202.31260436901357 74.37691884953529,200.0625887446804 70.08364169392735,206.62512316391803 71.80095255654305,225.37503451644443 77.23910361994058,227.6250052631367 82.67725468426943,224.25004764692858 82.67725468426943,207.00012410641648 82.10481772944331,203.06260869046673 77.23910361994058,199.12508105742745 70.65607864782214,201.75010083708912 70.36986017040908,223.6875538387103 76.2373389499262,227.06251295050606 80.2443976290524,226.31252281251363 83.24969163816422,222.3750673151808 82.10481772944331,203.6251116405474 77.66843133512884,199.31258265057113 71.80095255654305,200.81259439594578 69.79742321651429,204.18761434138287 70.22675093170255,222.00007091695443 76.80977590475231,228.0 83.10658240038902,225.56253223086242 83.67901935335249,206.06262154399883" stroke="#4DD2FF" stroke-linecap="round" stroke-linejoin="round" stroke-width="0.5"><title>2025-03-24 4.1km</title><desc>1742817301000</desc></polyline><polyline fill="none" points="123.42254455015063,194.57145573501475 120.38936315570027,192.46753771742806 115.9288022806868,196.67537095607258 116.4640695862472,219.81825374194887 122.88727724645287,227.5324727811385 131.2731316909194,221.6883709024405 130.91628682147712,198.07797954848502 126.09888107609004,192.7013065238716 115.75037984549999,195.97406619309913 116.4640695862472,220.51954793580808 121.81674263533205,227.06494542537257 125.74203620571643,227.29870912083425 131.2731316909194,222.15589984657709 130.3810195159167,197.84421153645962 123.06569968070835,192.23376887559425 115.57195741124451,199.0130512531614 115.9288022806868,219.11695923667867 122.35200994089246,228.0 130.91628682147712,223.32472160388716 131.4515541261062,198.54551546974108 121.63832020107657,192.0 116.82091445568949,196.20783448161092 115.9288022806868,219.58448894124012 124.13623429089785,228.0 130.91628682147712,223.09095732169226 130.7378643862903,196.67537095607258 121.63832020107657,192.0 116.2856471510604,199.0130512531614 116.64249202143401,223.55848585197236 123.06569968070835,228.0 131.8083989964798,223.09095732169226 130.2025970807299,196.67537095607258 124.49307916034013,192.0 116.4640695862472,198.07797954848502 116.82091445568949,221.6883709024405 122.70885481126606,227.5324727811385 131.2731316909194,223.55848585197236 130.3810195159167,199.71435466932599 121.63832020107657,192.0 114.67984523624182,199.0130512531614 116.1072247158736,220.28578323929105 120.56778559088707,227.06494542537257 130.5594419501722,223.55848585197236 131.0947092557326,197.84421153645962 124.84992403071374,192.23376887559425 115.2151125408709,198.07797954848502 115.75037984549999,220.052018507733 122.88727724645287,227.06494542537257 126.99099325109273,226.8311816956848 131.9868214307353,220.75331259786617 131.2731316909194,198.77928337897174 128.4183727307245,193.87015003990382 121.99516507051885,192.23376887559425 115.75037984549999,200.18189010652713 116.64249202143401,220.987077225931 121.63832020107657,227.29870912083425 130.91628682147712,223.09095732169226 131.0947092557326,198.07797954848502 127.88310542609543,193.40261273703072 120.56778559088707,192.23376887559425 116.1072247158736,198.77928337897174 116.64249202143401,222.15589984657709 121.99516507051885,228.0 131.4515541261062,223.09095732169226 131.9868214307353,198.77928337897174 125.74203620571643,228.0" stroke="#4DD2FF" stroke-linecap="round" stroke-linejoin="round" stroke-width="0.5"><title>2025-03-23 4.2km</title><desc>1742719228000</desc></polyline><polyline fill="none" points="165.22502821404487,192.0 162.0417136894539,196.1707763823215 163.71714238636196,223.82931296655443 171.92674300260842,226.68294220173266 178.7960006603971,218.3415490334155 177.28811483364552,200.78056823613588 166.73291404172778,194.634175919462 161.87417082022876,202.75618893746287 163.2145137777552,223.1707823650213 169.07851421739906,226.90245191578288 177.28811483364552,221.8537202856969 176.45040048472583,199.4634863086976 167.57062838971615,193.97563237708528 161.87417082022876,199.68300004443154 162.71188516821712,222.29274110903498 169.74868569616228,227.78049044741783 174.2723431782797,226.46343245508615 177.45565770287067,221.1951888083713 176.9530290933326,201.2195952855982 167.73817125987262,194.19514692388475 164.21977099590003,195.07320478535257 161.53908508084714,203.19521540403366 163.38205664791167,223.60980279848445 173.60217169951648,226.68294220173266 179.80125787854195,223.1707823650213 177.62320057302713,200.34154105675407 166.73291404172778,194.85369036893826 161.37154221069068,203.41472858807538 162.0417136894539,221.41469933302142 167.0679997811094,227.12196159735322 176.11531474534422,227.34147124632727 177.12057196348906,224.92686332121957 177.95828631147742,202.53667565598153 173.26708596013486,195.731747840764 168.24079986847937,194.634175919462 162.37679942976683,199.2439725410659 162.0417136894539,223.39029259770177 171.59165726415813,227.34147124632727 177.62320057302713,220.53665703942534 176.45040048472583,199.2439725410659 170.4188571749255,194.41466143820435 164.55485673528165,194.41466143820435 160.19874212238938,207.14644775819033 164.05222812574357,224.92686332121957 171.08902865368873,226.46343245508615 178.7960006603971,220.09763569757342 175.94777187611908,197.92688925145194 166.23028543312103,194.85369036893826 163.38205664791167,196.39029060467146 161.37154221069068,211.97571747808252 164.7223996054381,226.46343245508615 172.93200022075325,227.12196159735322 177.62320057302713,219.87812497792765 175.1100575271994,198.1464032138465 169.41359995678067,192.878059159033 162.20925655867904,197.26834716903977 162.37679942976683,222.95127209986094 168.9109713472426,228.0 178.1258291816339,222.51225147151854 176.45040048472583,198.58543104177807 168.74342847801745,192.878059159033 161.87417082022876,198.3659171438776 162.0417136894539,221.1951888083713 169.74868569616228,227.56098086340353 177.12057196348906,223.60980279848445 176.45040048472583,201.2195952855982" stroke="#4DD2FF" stroke-linecap="round" stroke-linejoin="round" stroke-width="0.5"><title>2025-03-21 4.2km</title><desc>1742565279000</desc></polyline><polyline fill="none" points="31.77457133727148,233.80003031750675 26.966055456083268,232.0 25.59219377534464,233.65002791257575 24.79077446134761,250.15015955013223 31.087640496902168,253.1501546743093 35.89615637809038,248.20015796588268 33.14843301754445,233.3500230370555 27.424009348731488,233.0500180728268 23.989355148281902,236.95007569319569 27.08054392877966,252.10015738906804 31.202128970064223,253.75015263538808 35.094737065024674,250.9001591624692 34.98024859139696,235.75005955935922 30.057244236581028,232.7500130198896 26.164636142086238,233.20002056611702 24.103843620978296,237.10007760988083 25.706682248506695,251.20015885180328 30.400709656532854,254.35015024163295 34.4078062241897,251.80015796527732 35.094737065024674,236.35006780351978 31.316617443226278,233.3500230370555 24.79077446134761,234.40003971371334 24.5617975150235,248.35015822085552 26.966055456083268,253.1501546743093 29.71377881616354,253.9001520703314 34.4078062241897,251.35015866381582 34.86576011776924,235.6000574431382 33.60638691112399,233.50002548575867 28.568894083146006,232.90001555765048 25.248728355392814,235.15005096106324 24.218332094606012,244.75014598818962 27.881963242776692,253.60015317809302 34.064340804703534,252.40015672438312 35.323714011348784,236.65007179265376 34.86576011776924,234.40003971371334 28.45440560951829,233.0500180728268 25.134239881765097,235.90006165369414 26.62259003520012,251.0501590182539 28.568894083146006,253.60015317809302 34.4078062241897,253.00015512865502 34.98024859139696,240.55011558323167 29.255824922583997,249.10015916253906 27.65298629552126,254.65014891175088 28.6833825558424,268.0 34.17882927786559,266.3500279117143 35.4382024849765,255.55014439101797 33.60638691112399,234.70004427887034 27.996451715938747,232.30000527447555 23.989355148281902,235.6000574431382 24.79077446134761,248.65015866374597 30.057244236581028,254.05015148292296 34.86576011776924,250.9001591624692 35.4382024849765,236.50006980914623 29.599290343001485,232.15000264858827 25.248728355392814,234.70004427887034 24.905262934975326,250.30015951674432 29.370313396211714,253.75015263538808 34.751271644607186,250.45015946147032 35.20922553772107,235.75005955935922 29.942755763418972,232.15000264858827 26.050147668924183,234.55004200723488 25.82117072166875,252.40015672438312 28.6833825558424,254.80014821409713 32.2325252299197,254.35015024163295 34.064340804703534,251.65015822008718 36.0106448517181,237.55008322768845" stroke="#4DD2FF" stroke-linecap="round" stroke-linejoin="round" stroke-width="0.5"><title>2025-03-10 4.0km</title><desc>1741591515000</desc></polyline><polyline fill="none" points="86.08988327160478,238.92314136272762 76.57859922107309,232.9230872882763 69.18093384895474,238.2308286074549 69.3570687379688,262.92312717915047 74.81725032255054,267.7692334119929 84.32853437308222,262.0000576203456 83.80012970324606,240.07699527335353 78.86835278850049,233.8461740303319 68.82866406906396,238.00005762127694 68.65252917818725,262.69235984014813 73.23203631397337,266.8461667174706 84.50466926302761,262.69235984014813 85.03307393286377,240.3077659533592 77.81154344975948,233.3846307278145 69.3570687379688,238.00005762127694 69.88547340780497,262.92312717915047 75.69792477227747,267.5384667891776 81.86264591570944,266.1538663385436 84.85693904198706,261.53852263628505 84.85693904198706,241.4616188404616 77.98767833970487,233.61540239606984 69.00479895900935,238.6923704787623 69.3570687379688,260.61545225942973 75.87405966129154,267.7692334119929 84.680804152973,262.2308250613278 83.97626459319144,237.76928660005797 74.28884565271437,233.3846307278145 69.3570687379688,237.76928660005797 69.88547340780497,263.84619619173463 76.75473411101848,267.5384667891776 84.680804152973,262.0000576203456 84.50466926302761,241.00007778790314 78.51608300954103,233.3846307278145 71.9990920862183,234.07694563106634 68.47639428917319,238.2308286074549 68.82866406906396,261.76929014502093 75.52178988233209,267.3077001328347 84.50466926302761,262.0000576203456 83.2717250334099,237.30774445610587 77.45927366986871,232.0 68.3002593992278,238.00005762127694 68.82866406906396,261.76929014502093 77.81154344975948,267.3077001328347 84.15239948406816,261.76929014502093 83.62399481423199,237.76928660005797 77.28313877992332,232.23077187302988 67.2434500604868,239.15391221328173 69.18093384895474,263.38466175319627 79.57289234828204,267.3077001328347 84.32853437308222,262.461592467851 83.4478599242866,236.61543098511174 74.28884565271437,233.153859024751 68.82866406906396,237.76928660005797 68.82866406906396,261.76929014502093 77.81154344975948,267.5384667891776 84.680804152973,262.0000576203456 85.03307393286377,239.15391221328173 77.10700389090925,233.153859024751 68.47639428917319,239.846224559471 69.00479895900935,264.0769633599557 74.81725032255054,268.0 83.80012970324606,262.0000576203456 85.91374838165939,238.92314136272762" stroke="#4DD2FF" stroke-linecap="round" stroke-linejoin="round" stroke-width="0.5"><title>2025-03-09 4.1km</title><desc>1741514669000</desc></polyline><polyline fill="none" points="117.02866008598357,252.95899855392054 122.8628353299573,265.04112517938484 127.75601456686854,265.2876982818125 133.59018981084228,259.3699337783037 130.57900258805603,232.2465779837221 117.59325768984854,232.0 112.7000784529373,237.6712844077265 120.03984730876982,261.83567153767217 131.51999859511852,264.05483240727335 134.9075842211023,253.45214829174802 130.7672017896548,237.6712844077265 134.15478741563857,235.4520884566009 114.77026966866106,243.34254954278003 115.71126567572355,240.38363100716379 122.8628353299573,244.82200684351847 120.03984730876982,250.24667239165865 121.92183932289481,265.04112517938484 130.2026041848585,264.7945520414505 134.342986616306,258.38363765436225 127.00321776047349,234.2192005419638 115.71126567572355,232.98631171614397 111.75908244587481,239.150746735977 117.7814568914473,253.2055734412279 117.40505848824978,261.34252427797765 126.81501855980605,267.7534272982739 132.0845961999148,258.1370635323692 129.07340897619724,237.1781300068833 118.91065210010856,232.2465779837221 112.3236800506711,237.6712844077265 116.65226168278605,263.31511244538706 127.9442137684673,268.0 132.64919380377978,260.8493768715998 131.51999859511852,233.72604512050748 119.09885130170733,232.98631171614397 116.08766407798976,244.32885455572978" stroke="#4DD2FF" stroke-linecap="round" stroke-linejoin="round" stroke-width="0.5"><title>2025-03-05 1.9km</title><desc>1741161630000</desc></polyline></svg>