<?xml version="1.0" encoding="utf-8" ?>
<svg baseProfile="full" height="300mm" version="1.1" viewBox="0,0,200,300" width="200mm" xmlns="http://www.w3.org/2000/svg" xmlns:ev="http://www.w3.org/2001/xml-events" xmlns:xlink="http://www.w3.org/1999/xlink"><defs /><rect fill="#222222" height="300" width="200" x="0" y="0" /><text fill="#FFFFFF" style="font-size:12px; font-family:Arial; font-weight:bold;" x="10" y="20">Over 10km Runs</text><text fill="#FFFFFF" style="font-size:4px; font-family:Arial" x="10" y="280">ATHLETE</text><text fill="#FFFFFF" style="font-size:9px; font-family:Arial" x="10" y="290">TXyy2025</text><text fill="#FFFFFF" style="font-size:4px; font-family:Arial" x="65" y="280">SPECIAL TRACKS</text><rect fill="yellow" height="2.6" width="2.6" x="65" y="283" /><text fill="#FFFFFF" style="font-size:3px; font-family:Arial" x="70" y="285.5">Over 20.0 km</text><rect fill="red" height="2.6" width="2.6" x="65" y="287" /><text fill="#FFFFFF" style="font-size:3px; font-family:Arial" x="70" y="289.5">Over 40.0 km</text><text fill="#FFFFFF" style="font-size:4px; font-family:Arial" x="120" y="280">STATISTICS</text><text fill="#FFFFFF" style="font-size:3px; font-family:Arial" x="120" y="285">Number: 22</text><text fill="#FFFFFF" style="font-size:3px; font-family:Arial" x="120" y="290">Weekly: 2.8</text><text fill="#FFFFFF" style="font-size:3px; font-family:Arial" x="141" y="285">Total: 166.3 km</text><text fill="#FFFFFF" style="font-size:3px; font-family:Arial" x="141" y="290">Avg: 7.6 km</text><text fill="#FFFFFF" style="font-size:3px; font-family:Arial" x="167" y="285">Min: 1.5 km</text><text fill="#FFFFFF" style="font-size:3px; font-family:Arial" x="167" y="290">Max: 35.9 km</text><polyline fill="none" points="26.627968337619677,60.197539875342045 25.456464380025864,60.322148370789364 23.52506596315652,58.99298822981655 21.878627968369983,55.58698659745278 22.63852242741268,55.50391286984086 23.43007915560156,58.037650485144695 24.88654353574384,59.69910533959046 30.712401055381633,61.194406287773745 31.377308707102202,61.02826213199296 30.74406332464423,61.11133422222338 29.920844327192754,58.90991551170009 27.514511873247102,55.96081806704751 27.387862796895206,55.296228443068685 26.94459102896508,55.25469153930317 27.5461741425097,54.38241513699177 27.736147757270373,51.97325668472331 28.844327176804654,52.09786883671768 29.287598944618367,50.519444151606876 28.749340369482525,49.522539770347066 28.559366754605435,50.020992404111894 28.749340369482525,48.941010576992994 25.741424802108668,47.196415757294744 25.171503957826644,45.950269951543305 20.960422163596377,42.29487695649732 19.503957783570513,39.51176168466918 16.68601583119016,38.971751042234246 13.994722955161706,40.38408437045291 12.0,38.80559371225536 13.96306068613194,40.30100613637478 16.87598944583442,39.054829670349136 19.56728232174646,39.594840152567485 21.213720316533,42.668726156058256 25.741424802108668,46.90564889818779 31.53562005283311,50.35329366760561 33.530343007994816,50.934819930640515 35.05013192608021,50.145605424186215 36.53825857513584,51.640957342024194 42.39577836403623,48.442556022375356 44.10554089699872,48.27640430719475 46.95514511864167,51.26712011054042 48.0,51.5163449869724 45.56200527702458,50.27021838867222 44.26385224261321,48.442556022375356 42.649076517205685,48.52563184298924 36.60158311331179,51.640957342024194 34.67018469655886,50.104067757027224 33.593667546170764,51.017895012453664 28.844327176804654,48.941010576992994 27.8627968338551,51.30865760528832 27.482849604217336,54.631637243233854 28.021108179469593,59.07606092322385 27.514511873247102,60.322148370789364 23.556728232069872,58.951451873843325 22.575197889120318,57.20691936466028 22.6068601582665,56.04389165923931" stroke="#4DD2FF" stroke-linecap="round" stroke-linejoin="round" stroke-width="0.5"><title>2025-04-24 3.3km</title><desc>1745457116000</desc></polyline><polyline fill="none" points="94.66666666651145,47.53752590419026 93.14859437709674,50.94716964085819 90.04016064247116,51.89428968250286 67.99196787085384,53.314967121288646 69.51004016026855,51.32601782528218 66.8353413650766,43.74901159352157 63.799196787178516,43.559585290262476 60.329317268915474,47.63223847508198 59.534136545844376,55.114487357554026 63.437751004006714,57.57698054774664 65.53413654584438,57.198136057239026 66.97991967853159,54.07266046805307 65.89558232901618,42.23359960014932 63.07630522036925,43.0860192872351 60.401606425177306,47.44281331944512 61.05220883525908,56.53515766025521 65.10040160641074,56.440446404740214 66.90763052226976,53.69381390680792 66.61847389535978,45.16970708372537 64.08835341315717,42.70716623275075 62.28112449776381,43.0860192872351 59.67871485929936,47.9163761039963 60.76305220881477,56.25102385156788 63.220883533824235,57.671691635332536 66.61847389535978,56.62986890185857 66.40160642564297,42.138886231405195 63.36546184727922,42.70716623275075 60.907630521804094,45.35913291142788 60.25702811218798,49.33706235856516 61.196787148248404,56.06160124251619 62.642570280935615,57.387558330607135 65.82329317275435,56.81929134298116 67.12449799152091,53.78852556803031 66.18473895546049,45.074994149035774 64.95582329295576,43.46487211773638 61.70281124487519,43.37015893100761 58.666666666511446,46.96925018483307 60.401606425177306,55.966889916860964 65.10040160641074,57.671691635332536 67.12449799152091,54.83035291940905 66.54618473863229,44.980281200492755 63.58232931699604,43.18073251575697 60.907630521804094,44.412003214121796 59.67871485929936,46.96925018483307 62.20883534103632,56.91400254255859 64.95582329295576,57.766402709065005 67.34136546123773,54.262083665060345 66.8353413650766,46.59039942576783 65.82329317275435,44.412003214121796 62.42570281075314,43.18073251575697 59.96787148574367,45.73798439837992 60.907630521804094,55.114487357554026 62.642570280935615,57.10342489980394 66.32931726891547,56.724580129317474 66.97991967853159,49.90533597872127 66.32931726891547,44.79085526103154 61.70281124487519,43.18073251575697 59.89558232901618,45.83269723522244 60.47389558237046,52.841408325126395 60.907630521804094,56.156312553968746 63.29317269055173,57.8611137685366 66.76305220834911,55.777467224164866 66.61847389535978,45.074994149035774 63.437751004006714,43.0860192872351 60.329317268915474,45.643271547567565 60.69076305208728,55.30391024652636 63.799196787178516,57.57698054774664 66.97991967853159,55.114487357554026 66.97991967853159,45.92741005780408" stroke="#4DD2FF" stroke-linecap="round" stroke-linejoin="round" stroke-width="0.5"><title>2025-04-20 4.3km</title><desc>1745155370000</desc></polyline><polyline fill="none" points="130.11452458892018,50.692411255673505 113.38171499967575,38.69237047852948 117.96122078225017,61.30775509332307 123.42140075284988,67.76923341176007 128.52931104879826,67.0769334420329 132.7565471548587,62.000057620112784 131.52360329125077,41.000077788485214 125.53501880634576,33.153859024751 122.01232205145061,33.61540239606984 117.78508594445884,39.84622455923818 119.01802980899811,62.230825060629286 124.12594010401517,68.0 131.34746845252812,65.46156565228011 130.9951987778768,38.69237047852948 126.41569299530238,32.0 118.31349045783281,35.23080312134698 119.19416464772075,60.8462199048372 124.12594010401517,67.53846678941045 132.05200780462474,62.92312717891764 132.93268199265003,40.07699527346995 128.7054458875209,33.84617403091397 122.71686140168458,33.84617403091397 117.60895110759884,38.46159956045449 119.19416464772075,63.61542898975313 125.18274913169444,68.0 133.10881683137268,59.923149118665606 131.6997381290421,37.30774445622228 126.5918278330937,32.23077187361196 116.90441175550222,40.07699527346995 119.7225691601634,64.5384975936031 126.76796267088503,68.0 132.5804123179987,63.384661753778346 131.6997381290421,38.230828607454896 129.05771556217223,34.07694563094992 122.71686140168458,32.923087287694216 117.78508594445884,40.30776595324278 118.66576013341546,62.46159246773459 121.83618721272796,66.61539995844942 128.7054458875209,67.0769334420329 132.93268199265003,59.923149118665606 131.6997381290421,38.69237047852948 123.77367042936385,33.61540239606984 117.60895110759884,40.538536598789506 119.01802980899811,63.61542898975313 122.71686140168458,67.76923341176007 132.5804123179987,63.384661753778346 132.5804123179987,41.46161884069443 125.18274913169444,32.23077187361196 117.96122078225017,37.53851554496214 117.78508594445884,60.8462199048372 120.07483883574605,65.69233258138411 126.06342331971973,68.0 133.28495166823268,62.46159246773459 131.6997381290421,38.00005762116052 125.71115364413708,32.4615437121829 117.4328162688762,40.30776595324278 118.48962529562414,60.615452259313315 122.71686140168458,67.53846678941045 132.22814264241606,63.846196191501804 132.05200780462474,39.615453811595216 126.76796267088503,33.153859024751 119.01802980899811,36.61543098511174 117.78508594445884,60.15391686616931 122.71686140168458,67.30770013295114 132.40427747927606,63.61542898975313 132.93268199265003,41.23084833170287" stroke="#4DD2FF" stroke-linecap="round" stroke-linejoin="round" stroke-width="0.5"><title>2025-04-19 4.1km</title><desc>1745066356000</desc></polyline><polyline fill="none" points="170.36153998412192,34.60529029450845 164.57690024655312,33.65791249542963 161.14227040298283,38.63163969444577 162.58843033760786,60.18427923275158 167.83076009899378,66.81580233352724 178.31541962269694,62.55268348951358 178.67695960681885,39.5790145539213 177.05002968013287,35.315823276294395 169.81923000887036,32.0 162.4076603455469,37.921108182519674 163.8538202792406,63.736884305486456 168.37307007517666,67.76316053676419 175.24232976231724,67.05264193634503 177.7731096483767,60.89480087743141 178.4961896147579,39.34217089123558 177.05002968013287,34.84213465708308 170.18076999299228,32.710534136975184 162.58843033760786,37.44742033269722 164.75767023861408,63.973724363255315 173.07308986131102,67.05264193634503 178.67695960681885,61.13164135534316 177.7731096483767,40.76323234126903 169.6384600168094,33.42106795834843 162.04612036142498,38.86848346143961 163.13074031285942,60.65796036401298 170.36153998412192,67.76316053676419 175.60386974643916,65.86844356975053 177.95387963950634,59.00007579207886 177.59233965631574,37.68426427466329 170.90384995937347,32.47368945949711 162.22689035441726,40.052701773587614 162.94997032079846,59.00007579207886 169.6384600168094,67.28948150505312 177.41156966332346,63.263204083777964 177.7731096483767,39.5790145539213 170.90384995937347,32.47368945949711 163.13074031285942,38.394795891828835 162.94997032079846,60.89480087743141 165.48075020499527,65.39476397819817 173.07308986131102,66.3421230216045 178.1346496315673,59.94743861479219 177.41156966332346,36.97373234236147 173.79616982862353,32.947378778946586 166.74614014849067,32.710534136975184 162.4076603455469,40.52638885402121 164.0345902722329,63.973724363255315 171.44615993555635,67.52632103860378 176.8692596880719,63.263204083777964 176.8692596880719,42.657978981151246 171.80769991874695,34.3684458975913 167.64999010693282,33.42106795834843 161.86535036936402,38.15795205440372 162.94997032079846,59.710597961908206 171.6269299276173,68.0 176.68848969694227,64.92108424659818 178.8577295979485,44.31588045391254 177.23079967312515,35.552667533629574 173.25385985337198,32.47368945949711 162.94997032079846,38.63163969444577 163.67305028811097,63.736884305486456 167.10768013168126,67.28948150505312 176.68848969694227,64.21056438679807 177.23079967312515,42.894822153262794 170.72307996731251,33.42106795834843 163.49228029605,36.263200095505454 162.94997032079846,60.65796036401298 166.02306018117815,66.5789626945043 175.60386974643916,65.63160379172768 178.4961896147579,41.23691921099089" stroke="#4DD2FF" stroke-linecap="round" stroke-linejoin="round" stroke-width="0.5"><title>2025-04-17 3.9km</title><desc>1744894073000</desc></polyline><polyline fill="none" points="13.028088568957173,96.1405493686525 13.219622877702932,96.25125554774422 13.768875674824812,96.12209829110179 14.09842735309212,95.92282578511549 14.68429700336128,95.80842788750124 14.932164932310116,95.86009151903636 15.233549800468609,95.75676414910413 16.064470698678633,95.60915287917305 16.74047414129018,95.39880531233212 17.613645254663425,95.04084134570985 17.991080510124448,94.97072409162138 18.748767702039913,95.09250656489166 18.985368906971416,95.04822209785198 20.85846177919302,95.40249563578982 23.151240122053423,96.5464696267336 25.01024958922062,96.8306098827652 25.134183553716866,96.97083375312468 25.277834285254357,97.0335652297781 26.15945544166607,97.18116808285049 26.373523198490147,97.02249498064339 28.342383225099184,97.29924973737616 29.5929895939189,97.19223826167035 31.95618496205134,97.49113123556708 31.736483843196766,97.4247108837535 32.187152804937796,96.66824441793142 32.62655504263239,95.41725692416549 33.088490728419856,94.7013243896854 33.364525467477506,94.14037322053264 34.654565370467026,91.13611767572002 35.344652218118426,89.78888326159722 35.76152100774925,88.62614307119838 36.42625772629981,87.75866671076074 37.44871293325559,88.6815128794733 38.550035208507325,90.40160710229247 38.552851889515296,90.50126558255397 38.07401611766545,91.57164640564952 38.26273374538869,92.52387767930304 39.20913856504194,93.08855582036449 40.13300993661687,92.99259834389704 40.65691260463791,93.06272115142383 40.727329629909946,93.18820357878212 40.69071277677722,93.90787002978504 40.744229715986876,94.03703873628729 40.8991471715708,94.23263579161357 41.1610985055886,94.36549329526679 41.38361630545114,94.575849564093 41.63430091540795,94.88584504699247 41.71035130271048,94.90429703775226 41.786401689998456,94.82679858496158 41.76105156089761,94.5500164335208 41.994836084821145,94.13299220010958 42.18918707454577,93.42809469986969 42.296220952965086,93.34321041273688 42.406071512406925,93.32106663821287 42.61732258820848,93.39118852351567 43.079258273981395,93.31737600721135 43.59752758000104,93.43916654213353 43.7693451216619,93.64214944726336 44.06509662780445,93.63845886370655 44.11016352397564,93.78977234211925 43.94116266332276,94.04072926093795 44.172130506209214,94.35073138531334 44.77490024254075,94.50942146006491 45.00305140443379,94.70870524215206 45.22556920428178,94.78620406134723 45.95227290508046,95.2475015812197 46.425475314914365,95.31392772237268 46.78601048431301,95.6571266375795 46.81417729440727,95.84533049235506 46.642359752746415,96.05198407210992 46.563492684450466,96.28077711265178 46.304358031455195,96.69776549002927 46.343791565610445,97.22913882232024 46.504342383224866,96.88596150457124 46.895861043725745,96.46159593636366 47.06204522337066,96.0224622368205 47.13809561067319,96.000320837451 47.307096471311525,96.18114169128785 47.2704796181788,95.7161711368226 47.876066035518306,95.02607983489543 48.0,94.40608850263743 41.96385259368981,85.72828506334918 41.468116735777585,85.47355279912153 41.2991158751247,84.95300487203713 41.03434786009893,84.65765370400004 40.86816368045402,84.49520907209626 40.23159377199772,84.11124483085223 39.71050778498466,83.57959228506115 39.42038964085805,82.58271324042471 38.70213598309783,82.50886876443474 38.63453563883377,82.59009767600037 38.589468742662575,83.00731473786436 38.50496831232158,84.38814271402043 38.40075111492479,84.7314918236043 37.8374149127485,85.68029222677615 36.67975901727914,87.38582718473299 35.81785462796688,88.47848964884724 35.124951099278405,89.10601066382333 34.25459666691313,90.61199676083561 32.74485564509814,94.24370727724818 32.64627180971729,94.65334879550574 32.56740474140679,95.50582447119814 32.19278616695374,96.63872331094535 31.70268367107201,97.45423106190356 30.930913074102136,97.30293978008922 29.69157342929975,97.20330843559168 28.328299820030225,97.28817960596643 26.390423284552526,96.99666438024542 26.14255535560369,97.17747802215672 25.308817776385695,97.02987514728011 25.114466786631965,96.94869319435202 25.01024958922062,96.81584942957488 23.137156716984464,96.52801884901601 20.869728503239457,95.38035368687633 19.103669509422616,95.04453172206013 18.895235114599927,95.01131831534076 18.729050934969564,95.06298359558787 17.982630467085983,94.93751058676025 17.60519521163951,95.01131831534076 16.09827087081794,95.57963052050764 15.284250058670295,95.7235516894234 14.858931226030109,95.85271100678983 14.673030279300292,95.80473762401743 14.154760973309749,95.89330379717649 14.022376965804142,95.9375867660001 13.8195759330265,96.10364719992322 13.168922619515797,96.25125554774422 12.952038181669195,96.00770130608907 12.971754948739544,95.27702433243758 12.445035599710536,95.12941022744053 12.07886706829595,94.6902531068954 12.0,94.46513595922625 12.242234566918341,94.44668364403697 12.27603473905765,94.40977897276753 12.230967842886457,94.31751705602255" stroke="yellow" stroke-linecap="round" stroke-linejoin="round" stroke-width="0.5"><title>2025-04-14 32.8km</title><desc>1744614550000</desc></polyline><polyline fill="none" points="82.01933497190475,83.68840148649178 79.34300081897527,74.57145573571324 71.67084291484207,73.16884403419681 68.45924193225801,79.48058689828031 68.45924193225801,101.22084181988612 73.63348796032369,107.53247278206982 79.52142309583724,107.29870912106708 83.26829090900719,102.62342865357641 82.37617952469736,79.01305125351064 74.5255993437022,73.40261273772921 68.63766420911998,79.48058689828031 68.28081965446472,101.22084181988612 73.0982211297378,107.0649454263039 82.37617952469736,104.96107061428484 83.44671318680048,79.01305125351064 78.45088943466544,73.40261273772921 68.63766420911998,79.01305125351064 68.63766420911998,99.58448894135654 73.4550656825304,107.76623640838079 79.87826764956117,106.8311816958012 83.98198001738638,101.68837090267334 83.08986863214523,78.07797954929993 74.16875479090959,73.40261273772921 67.74555282481015,80.41565777407959 69.88662014622241,104.02601424453314 75.23928845208138,107.76623640838079 83.98198001738638,102.15589984680992 83.80355773959309,80.1818901069928 78.80773398838937,73.16884403419681 75.0608661742881,72.46753771731164 68.63766420911998,78.07797954929993 68.9945087628439,100.75331259868108 73.81191023718566,108.0 83.80355773959309,103.79225006618071 83.08986863214523,77.6104434892768 76.30982211325318,72.0 71.84926519077271,73.16884403419681 68.28081965446472,79.94812240509782 69.17293103970587,102.38966426777188 75.95297755859792,107.53247278206982 84.33882457017899,102.15589984680992 83.98198001738638,79.94812240509782 78.09404488094151,72.70130652398802 73.81191023718566,72.93507529597264 68.10239737853408,78.77928337908816 68.45924193225801,100.75331259868108 70.0650424240157,104.7273065734189 77.20193349663168,107.76623640838079 84.87409140076488,99.81825374194887 83.62513546273112,77.14290729211643 76.30982211325318,72.93507529597264 68.28081965446472,79.01305125351064 69.17293103970587,102.85719300538767 72.5629542991519,107.0649454263039 78.80773398838937,107.76623640838079 84.51724684704095,101.45460637845099 84.33882457017899,79.94812240509782 79.1645785421133,72.23376887629274 72.20610974542797,74.33768720470835 69.5297755934298,78.77928337908816 68.45924193225801,99.81825374194887 74.88244389835745,107.53247278206982 83.80355773959309,103.09095732262358 83.98198001738638,77.6104434892768 78.98615626432002,72.46753771731164 74.16875479090959,72.70130652398802 68.81608648598194,79.94812240509782 68.9945087628439,102.85719300538767 75.41771072894335,107.76623640838079 85.05251367669553,105.42859859217424 85.58778050821275,79.71435466920957" stroke="#4DD2FF" stroke-linecap="round" stroke-linejoin="round" stroke-width="0.5"><title>2025-04-09 4.1km</title><desc>1744204461000</desc></polyline><polyline fill="none" points="109.42734294757247,108.0 113.78343632165343,102.73176180233713 112.94572605751455,99.21959262655582 117.80444558989257,101.4146993344184 117.80444558989257,97.02448267501313 117.97198764234781,99.658614227199 116.79919327236712,96.1464377862867 116.63165121991187,99.43910344305914 114.45360453240573,98.12203805602621 116.29656711407006,104.04882310307585 112.61064195074141,96.58546029555146 115.96148300822824,99.87812497885898 114.6211465857923,106.6829422020819 115.96148300822824,103.82931296771858 113.44835221581161,101.85372028697748 116.63165121991187,96.36594905750826 114.45360453240573,104.04882310307585 115.62639890238643,101.19518880930264 117.46936148405075,105.5853931447491 115.96148300822824,100.75616766267922 112.44309989828616,106.24392267595977 113.95097837317735,102.0732307145372 116.4641091665253,104.04882310307585 113.44835221581161,105.5853931447491 115.96148300822824,101.63420982670505 116.29656711407006,105.14637329545803 113.61589426826686,99.00008177699056 114.45360453240573,106.9024519160157 118.13952969573438,94.17083488975186 114.45360453240573,107.12196159746964 115.12377274408937,99.00008177699056 116.63165121991187,106.6829422020819 114.11852042656392,98.56105998135172 116.63165121991187,95.92692648281809 113.78343632165343,92.41474122111686 117.13427737820894,99.87812497885898 113.95097837317735,99.21959262655582 112.94572605751455,105.5853931447491 114.28606247995049,99.21959262655582 116.12902506161481,101.19518880930264 113.61589426826686,102.51225147221703 117.13427737820894,99.21959262655582 118.80969790648669,101.19518880930264 117.3018194315955,99.658614227199 116.12902506161481,104.26833320595324 118.47461380064487,102.73176180233713 114.6211465857923,105.36588323640171 117.3018194315955,106.24392267595977 114.11852042656392,101.63420982670505 117.13427737820894,101.85372028697748 115.793940955773,106.02441286470275 116.12902506161481,96.36594905750826 122.49562306981534,98.78057089529466 114.28606247995049,103.17078236571979 115.62639890238643,105.14637329545803 115.29131479654461,100.75616766267922 116.29656711407006,106.9024519160157 113.78343632165343,101.85372028697748 119.64740817155689,103.39029259898234 116.96673532482237,106.6829422020819 117.3018194315955,98.56105998135172 114.6211465857923,100.97567825240549 117.46936148405075,100.97567825240549 115.793940955773,104.48784327681642 113.78343632165343,94.60985798272304 116.96673532482237,95.92692648281809 114.95623069163412,103.60980279918294 113.28081016335636,100.75616766267922 118.47461380064487,100.31714638543781 116.29656711407006,97.24399381584954 122.9982492281124,99.00008177699056 126.18154823128134,79.02445874118712 137.23932371847332,78.36591714515816 136.73669756110758,72.0" stroke="#4DD2FF" stroke-linecap="round" stroke-linejoin="round" stroke-width="0.5"><title>2025-04-07 1.9km</title><desc>1744030807000</desc></polyline><polyline fill="none" points="170.59340659342706,89.22256804467179 152.0,83.5211164993234 167.8241758234799,82.48448795103468 159.91208791173995,83.00280226347968 169.80219780094922,73.67313291574828 162.2857142854482,74.19144852994941 165.45054944977164,94.40569777064957 168.6153846140951,81.96617356082425 164.26373626291752,91.29582085437141 164.65934065915644,74.70976406754926 164.26373626291752,101.1437549686525 167.4285714291036,91.29582085437141 172.17582417465746,95.96063519688323 167.0329670328647,97.51557193184271 162.2857142854482,77.30134061025456 166.63736263662577,101.1437549686525 160.30769230797887,84.039430658333 167.0329670328647,86.63100030948408 167.0329670328647,77.81965568824671 172.17582417465746,95.44232279760763 168.6153846140951,91.81413386506028 166.63736263662577,100.10713162762113 162.2857142854482,85.07605874817818 164.65934065915644,90.25919460249133 171.7802197802812,85.59437267831527 165.45054944977164,106.32686708425172 172.96703296527267,93.36907243938185 165.05494505539536,99.58881984092295 162.2857142854482,91.29582085437141 166.24175824038684,97.51557193184271 175.73626373521984,88.18594117974862 168.2197802197188,91.81413386506028 172.17582417465746,99.07050797808915 168.2197802197188,94.92401032196358 168.6153846140951,74.19144852994941 163.47252747230232,92.85075965709984 169.01098901033401,85.59437267831527 163.47252747230232,75.74639491550624 166.24175824038684,89.22256804467179 170.19780219718814,84.55774474213831 162.68131867982447,100.62544333632104 160.70329670235515,84.55774474213831 165.45054944977164,97.51557193184271 166.24175824038684,86.63100030948408 159.1208791192621,91.29582085437141 156.35164835117757,77.30134061025456 168.6153846140951,102.1803780044429 165.05494505539536,93.88738514343277 173.7582417577505,79.37460046564229 168.6153846140951,100.10713162762113 163.47252747230232,90.77750776614994 167.4285714291036,77.81965568824671 161.89010988920927,98.03388402471319 157.14285713993013,89.22256804467179 168.6153846140951,84.55774474213831 170.59340659342706,91.81413386506028 164.65934065915644,86.11268653254956 163.47252747230232,91.29582085437141 174.15384615398943,84.55774474213831 165.05494505539536,95.44232279760763 168.6153846140951,105.80855621630326 162.68131867982447,83.5211164993234 169.01098901033401,88.70425465097651 172.96703296527267,82.48448795103468 160.70329670235515,80.92954455222934 164.65934065915644,94.40569777064957 168.2197802197188,75.74639491550624 163.0769230760634,89.22256804467179 160.70329670235515,79.37460046564229 157.5384615380317,103.217000734061 162.68131867982447,79.89291523769498 170.98901098780334,87.66762763285078 163.0769230760634,86.11268653254956 162.68131867982447,74.70976406754926 162.2857142854482,105.29024527338333 163.47252747230232,90.25919460249133 171.7802197802812,88.18594117974862 164.26373626291752,75.22807952947915 172.96703296527267,92.85075965709984 166.24175824038684,76.26471022330225 161.49450549297035,84.039430658333 169.80219780094922,80.41122993268073 162.2857142854482,90.77750776614994 167.0329670328647,104.77193425269797 156.35164835117757,77.30134061025456 161.89010988920927,95.44232279760763 170.59340659342706,98.03388402471319 168.2197802197188,84.55774474213831 188.0,80.92954455222934" stroke="#4DD2FF" stroke-linecap="round" stroke-linejoin="round" stroke-width="0.5"><title>2025-04-06 2.6km</title><desc>1743945103000</desc></polyline><polyline fill="none" points="15.345639719933388,135.69482925436205 17.01559516233101,135.07935667492893 17.356460852970486,135.06809789128602 17.978039465320762,135.18068550311364 18.169955442397622,135.12063883890187 20.1578612348967,135.49968102666753 22.469446212620824,136.66304252080045 24.37428389560955,136.95575089492377 24.483131763205165,137.08334066920725 24.64926798218221,137.16214579790903 25.545830681105144,137.3084975312122 25.777848504134454,137.14338269420477 27.73424570338102,137.42858037500082 29.037555697010248,137.31975532193246 30.171865054115187,137.43608553388185 31.13430935711949,137.60495102274945 31.225970719300676,137.5486626511847 31.658497772121336,136.84692381636341 32.09961807767104,135.57473821473286 32.744112030559336,134.5126583692163 34.053150859326706,131.44251000692202 34.88669637174462,129.80219306105573 35.324952259717975,128.58971678035232 35.983768300458905,127.72630828532783 37.0292807129299,128.67980988826457 38.129217059205985,130.3952718284836 38.123488224082394,130.549169751519 37.653723742841976,131.6151687854981 37.76830044557573,132.33206550648902 37.87428389560955,132.60230404477625 38.70496499045112,133.10524033567526 38.8796944621281,133.15403213245918 39.69318905155524,133.06395489597526 40.297581158491084,133.13151285327876 40.363462762587005,133.2478622474191 40.31476766390551,133.97597215826136 40.41502227881574,134.1936504499281 40.54964990452572,134.32876017542912 40.804583068122156,134.45636314518197 41.32017823042406,134.99679214569187 41.38319541695819,134.98553332545634 41.44621260344866,134.8842037187842 41.42616168045788,134.59522447212476 41.67536600893072,134.1636259688894 41.84436664545501,133.5180910418403 41.936028007636196,133.4092492343243 42.08497772119881,133.3754706475047 42.30553787396639,133.45053411276967 42.71228516870178,133.36796428877278 43.29376193508506,133.50683156614286 43.44271164863312,133.70574823532843 43.752068746020086,133.70950136506508 43.80362826226337,133.8333543349745 43.64035646086268,134.0622930833415 43.63749204330088,134.152366779339 43.86950986633019,134.4300919979305 44.52259707193298,134.62524844300424 44.69732654362451,134.78662667845128 44.975175047744415,134.906721444082 45.66263526416151,135.34581309777604 46.16963717377803,135.42087074049778 46.53055378740828,135.78114433841074 46.550604710384505,135.95377362664294 46.38446849142201,136.14516559660478 46.28707829408813,136.4191162993029 46.037873965644394,136.78688109069844 46.0321451304917,137.32350791773752 46.083704646720435,137.33851829537525 46.221196690021316,137.02705114190394 46.662316995556466,136.53920334720533 46.80267345640459,136.14141282673336 46.89719923616212,136.10763787300675 47.05187778484833,136.27651219259315 47.02036919161037,135.82617817888058 47.52450668363599,135.27826102971085 47.66486314449867,135.05683910265725 47.845321451313794,133.97972524806028 47.80808402292314,133.66071063534037 47.842457033737446,133.18030459958572 47.99427116487641,132.9851370519791 48.0,132.38461211413778 47.92552514321869,132.18193174275075 47.793761935070506,132.03179709148935 46.630808402289404,131.40872880424104 46.17823042647797,131.10844947221085 46.052196053467924,130.90951245946235 46.09516231699672,130.5679377271099 45.86314449396741,130.26014117585328 45.85455124125292,129.84723750412195 45.31604073839844,129.45309591806654 45.23583704647899,129.34048291269028 45.353278166774544,129.02141001865857 45.336091661360115,128.89753357937843 45.264481222155155,128.85248745162608 45.000954805873334,128.95384112669853 44.56842775302357,128.96510262117772 44.23901973267493,128.49586945303963 43.631763208148186,127.955302094746 42.9357097390166,127.01303564417503 42.23965626989957,126.38984419846929 42.06206238064624,125.89428345610213 41.11394016550912,125.39871304064582 40.973583704646444,124.95944935789339 40.830362826236524,124.74544634884842 40.443666454491904,124.36999811462374 39.87651177594671,124.02833539589119 39.286441756848944,123.42384393634165 39.040101845967,122.46639011911248 38.85964353913732,122.41757778055398 38.30394653088297,122.39504897724873 38.240929344363394,122.44010656385944 38.18650541057286,122.90569694235091 38.097708465953474,124.27988971217565 37.98026734565792,124.6590937466608 37.44462126035069,125.57141291993685 36.2272437937645,127.36592040259711 35.32208784215618,128.5033772519855 34.84086569065403,128.89753357937843 34.62889879060094,129.14528585363223 33.789624443044886,130.61298081193127 32.21992361554294,134.39256174043294 32.14544875876163,134.67779030664315 32.09961807767104,135.45464660737707 31.715786123488215,136.65553713352347 31.177275620619184,137.5786831315254 30.31508593253966,137.42858037500082 29.071928707839106,137.316002725589 27.691279439852224,137.41357005056852 25.746339910896495,137.14338269420477 25.56588160409592,137.29723973551881 25.474220241900184,137.3084975312122 24.64067472948227,137.14338269420477 24.380012730762246,136.95199824481824 22.449395289630047,136.64052635231928 20.129217059205985,135.4659052196821 18.1871419477975,135.11313299590256 17.95512412476819,135.16567385036797 17.23901973266038,135.03807444385347 16.955442393387784,135.07185081972239 15.325588796957163,135.68357074351843 14.388924252081779,135.8486950691713 14.048058561427752,135.96127922125015 13.88192234246526,135.91249281661112 13.309038828781922,136.01006553219668 12.97390197328059,136.22397363569326 12.329408020377741,136.37783624547592 12.042966263543349,136.16017667051347 12.054423933805083,136.12264896909983 12.0,136.20520983903953 12.034373010828858,136.14141282673336" stroke="yellow" stroke-linecap="round" stroke-linejoin="round" stroke-width="0.5"><title>2025-04-06 31.5km</title><desc>1743926920000</desc></polyline><polyline fill="none" points="59.562451209989376,135.2553303918212 59.80220530835504,135.47624189587077 60.410811865731375,135.32781720931416 60.640027322413516,135.16213272460664 61.20911397346936,135.05857932504296 61.419886807198054,135.0965489581631 62.49746291959309,134.86873023382395 64.04664324746409,134.29917370425028 64.23106947696942,134.27155848930124 64.93188914909842,134.37166348820756 65.14529664325528,134.32678888656483 66.96321233412891,134.6754277559994 69.05249804838968,135.72476484137587 70.81772053084569,135.99744669866413 70.95735753318877,136.14241550440238 71.09172521469009,136.201093098638 71.91110460578057,136.3253510471077 72.14822404373263,136.18038337632424 73.9213505074149,136.43580200212818 75.10958235754515,136.33570584630797 77.09611631536973,136.57386496173604 77.57562451211561,135.8110569125438 77.98926619830308,134.65816852842727 78.5688914910279,133.69163143523292 79.80718188916217,130.80558987563563 80.53434816549998,129.37969851362323 80.91373926620872,128.2955485241837 81.83060109290818,127.09394770000108 82.91081186573138,125.48826388717316 83.39032006244815,124.65257400442533 83.46409055424738,124.43846682493131 83.62217017955845,122.70136341844045 83.69067135051591,122.62883740405596 84.18598750975798,122.65301276721766 84.32825917252921,122.70827064615332 84.58645589383377,123.62691372395784 85.0448868071835,124.10348875070667 85.62187743950926,124.44537353877422 85.99599921936169,124.8217863541704 86.09611631538428,124.96337125558603 86.23575331772736,125.40884010180889 87.11309523809177,125.84739415299373 87.23692427790957,126.27903379875715 87.89558938330447,126.86605091390993 88.51736924279248,127.71547308630034 89.09435987510369,128.22303988234125 89.41051912568219,128.6615410900631 89.49219359876588,128.69952112221654 89.85577673693479,128.65118288875965 90.01649102264491,128.58212809599536 90.11133879782574,128.61320277800587 90.1192427790811,128.73404837056842 90.02439500391483,129.03443327764398 90.60928961749596,129.51089796510314 90.5855776736862,129.81817800668068 90.82269711163826,130.17724169760186 90.77000390320609,130.4637981829892 90.84377439500531,130.60189643870945 91.25478142076463,130.89535252129645 92.41666666667152,131.54439523355904 92.54576502731652,131.85164852629168 92.51941842310771,132.25210742602758 92.56947697112628,132.383290745287 92.96731069477391,132.49030817065977 93.07796643248003,132.56280356737443 93.0911397345917,132.71469795482153 92.8513856362406,133.16692312486157 92.85928961749596,133.31190949413576 93.02000390320609,133.36369012224714 93.42574160812364,133.06681296378338 93.56537861046672,133.1047858339989 93.58909055424738,134.25775086958674 93.65232240437763,134.45796055680148 93.81567135051591,134.58222777562514 94.53493364559836,134.72030168803394 94.66666666667152,134.84111569205197 94.65612802498799,137.00185495260848 94.54020296644012,136.9845974433465 94.21087041373539,136.74299097556104 93.68920765028452,136.59112277431814 93.44418423107709,136.64634768897668 91.60782591725001,137.35735680775178 90.1772053083696,137.37116259594404 90.15349336457439,137.3297452068964 90.38007416081382,136.83618233765264 90.77527322404785,136.42544724726758 90.77263856363425,135.85592866361003 91.09933645589626,135.26223390793712 91.2653200624627,135.06548289929378 91.2653200624627,134.95502546651733 91.20999219360237,134.87908567857266 90.92017954723269,134.59258334735568 90.66461748635629,134.50973864497428 90.40642076503718,134.50973864497428 89.72404371584707,134.06789527099863 89.5211748633883,133.9885006541117 89.32884465261304,133.8262586414694 88.74131537861831,133.66401550215596 88.55952380952658,133.38785437609658 88.71233411398134,133.16001898958348 88.68071818891622,133.01157958784097 88.38563622170477,133.0046754066734 88.23809523810633,132.82516597993708 87.81918423106254,132.7285064865373 87.6347580015572,132.71124582062112 87.30015612803982,132.79064477820612 87.08938329431112,132.7216022217035 86.92076502731652,132.81135750536487 86.7653200624627,133.41201860494766 86.50975800157175,133.8538743827594 86.53346994536696,134.1162222970197 86.48341139736294,134.1956164798812 86.4043715847074,134.19906839476062 85.99599921936169,133.75031518461037 85.66930132709967,133.55355144345776 85.58235753318877,133.43273078120546 85.51122170180315,133.2704849090078 85.5507416081382,132.59387295425404 85.4901444184361,132.48340383542745 85.00273224043485,132.421264726534 84.08587041374994,132.50066466968565 83.27176034348668,132.00009529845738 83.17954722871946,131.81367361909543 83.08206479313958,131.03344822569125 83.4930718188989,130.12545400588897 83.50097580015427,129.9666377020203 82.4945355191303,128.39222636312843 81.5829430132726,127.53937590616442 81.30366900858644,127.35291862110535 81.47492193599464,127.43233579489424 81.43013270881784,127.56009329039625 80.92164324746409,128.2333982735363 80.29459406713431,128.79619728899706 79.34611631538428,130.49487036171195 78.0393247463071,133.6778234727699 77.91549570647476,134.75136820587613 77.56245120998938,135.81450858875542 77.05132708822202,136.6118321326121 76.4717017954681,136.4772209756611 75.25975800157175,136.3564154309679 73.93452380952658,136.43925358605884 72.12714676035102,136.17693175414206 71.90056596409704,136.33570584630797 71.08645589383377,136.19073823977487 70.81772053084569,135.990543399761 69.08674863388296,135.7282165303477 66.93686572990555,134.64781298576418 65.25068306011963,134.33369267704438 65.08206479313958,134.31643319702562 64.9450624512101,134.36130781855354 64.25741608119279,134.24739514944486 64.00448868071544,134.28191419873474 62.542252146755345,134.8307602304667 61.72550741607847,134.97228447481393 61.361924277909566,135.09309717588621 61.17749804840423,135.04477217042404 60.68481654959032,135.13451852960316 60.35021467602928,135.33817245060527 59.74687743950926,135.4624349880487 59.565085870432085,135.2553303918212 59.5940671350545,134.58913149062755 59.05396174865018,134.39237481373857 58.71935987508914,133.94707726862725 58.66666666667152,133.7882869438945 58.88534348165558,133.77447903857137 58.93540202967415,133.71579534988268 58.88270882124198,133.67437148088538" stroke="yellow" stroke-linecap="round" stroke-linejoin="round" stroke-width="0.5"><title>2025-04-05 35.9km</title><desc>1743843004000</desc></polyline><polyline fill="none" points="130.202607229352,127.42860789876431 127.74929512478411,133.21432175906375 122.35200849175453,120.35716940369457 120.88002122938633,139.6428836886771 126.76797028444707,126.14289266522974 129.22128238901496,137.71431610779837 121.37068364955485,139.00002792431042 125.78664544038475,120.35716940369457 117.93604670092463,120.35716940369457 133.1465817578137,144.14287138869986 120.88002122938633,128.07146537536755 128.7306199669838,133.85717837931588 120.88002122938633,138.35717206215486 127.25863270275295,122.28574467916042 128.23995754495263,130.64289432717487 117.44538427889347,131.92860823264346 125.29598302021623,135.7857476696372 123.33333333395422,147.35714546963573 127.25863270275295,131.92860823264346 127.74929512478411,140.92859493382275 118.91737154126167,127.42860789876431 128.23995754495263,139.00002792431042 121.37068364955485,133.85717837931588 121.37068364955485,139.6428836886771 119.40803396515548,130.00003723194823 131.18393207341433,130.00003723194823 121.37068364955485,112.0 127.74929512478411,141.57145041553304 125.78664544038475,122.92860291339457 126.76797028444707,139.00002792431042 113.02942248620093,130.64289432717487 124.80532059818506,137.07146005611867 122.35200849175453,128.07146537536755 128.23995754495263,137.07146005611867 129.22128238901496,124.85717704892159 124.80532059818506,140.28573935851455 119.40803396515548,134.50003490503877 123.33333333395422,146.07143612066284 116.46405943669379,142.21430580224842 122.8426709137857,128.71432275511324 125.78664544038475,141.57145041553304 122.8426709137857,129.3571800403297 133.1465817578137,134.50003490503877 127.25863270275295,124.85717704892159 121.86134606972337,137.71431610779837 118.42670912109315,127.42860789876431 125.29598302021623,134.50003490503877 133.1465817578137,120.35716940369457 123.82399575412273,128.71432275511324 124.80532059818506,148.0 123.82399575412273,126.78575032949448 133.63724417984486,138.35717206215486 127.74929512478411,125.50003490550444 125.78664544038475,140.92859493382275 117.44538427889347,128.07146537536755 126.27730786055326,118.42859327280894 126.76797028444707,142.8571610939689 120.88002122938633,133.85717837931588 124.80532059818506,124.21431909874082 123.33333333395422,139.6428836886771 131.18393207341433,131.92860823264346 123.33333333395422,142.8571610939689 120.88002122938633,127.42860789876431 133.1465817578137,140.92859493382275 121.37068364955485,133.21432175906375 123.33333333395422,146.7142908424139 126.76797028444707,132.57146504241973 118.91737154126167,132.57146504241973 120.38935880549252,140.28573935851455 127.25863270275295,130.64289432717487 118.42670912109315,128.71432275511324 124.31465817429125,142.8571610939689 122.35200849175453,130.64289432717487 127.25863270275295,135.7857476696372 120.38935880549252,144.14287138869986 119.40803396515548,124.85717704892159 126.76797028444707,137.07146005611867" stroke="#4DD2FF" stroke-linecap="round" stroke-linejoin="round" stroke-width="0.5"><title>2025-04-04 1.7km</title><desc>1743771861000</desc></polyline><polyline fill="none" points="176.66109587531537,112.0 168.66778082493693,114.18184316472616 164.3380685057491,120.29098687530495 165.50376028381288,143.85459016391542 170.4995821909979,147.34546237858012 174.1631849212572,146.25456569774542 176.99415066838264,141.01825041428674 176.32804108038545,118.98188677895814 168.66778082493693,115.49094751640223 162.67279453761876,123.5637320377864 164.6711232997477,143.41823055769783 166.50292466580868,146.4727450988721 173.49707533419132,146.69092446670402 177.49373285938054,141.45461073040497 174.99582190532237,120.07280360651202 169.5004178090021,115.27276353805792 163.17237672768533,121.16371962777339 164.3380685057491,144.07276991941035 173.83013012818992,146.4727450988721 178.1598424455151,140.58188996906392 175.32887669932097,118.32733629574068 169.5004178090021,115.27276353805792 164.3380685057491,117.89096914627589 163.50543152168393,141.6727908399189 168.8343082210049,147.34546237858012 177.66026025544852,142.98187082156073 176.99415066838264,121.16371962777339 169.66694520507008,115.49094751640223 161.84015755355358,121.8182688539382 162.67279453761876,139.27280785981566 167.66861644387245,147.1272831070237 174.6627671122551,146.036386265303 178.1598424455151,140.36370969796553 176.82762327138335,121.60008581087459 168.8343082210049,115.27276353805792 162.17321234662086,122.03645186498761 164.3380685057491,144.94548861775547 173.9966575242579,146.036386265303 178.1598424455151,139.27280785981566 174.8292945092544,119.41825360700022 166.83597945887595,116.36368310532998 162.17321234662086,122.25463484390639 164.0050137117505,143.85459016391542 171.49874657206237,147.34546237858012 176.99415066838264,143.85459016391542 178.1598424455151,139.27280785981566 175.66193149331957,118.54551982274279 166.83597945887595,115.70913146168459 162.67279453761876,122.90918358613271 163.67195891868323,142.32733097556047 168.50125342793763,147.34546237858012 177.66026025544852,142.32733097556047 176.99415066838264,120.29098687530495 168.66778082493693,115.49094751640223 162.17321234662086,120.94553648820147 163.67195891868323,144.07276991941035 166.83597945887595,147.1272831070237 174.3297123182565,146.4727450988721 177.82678765244782,140.14552939496934 176.99415066838264,120.50917011196725 171.99832876212895,115.27276353805792 164.6711232997477,116.80005070671905 162.17321234662086,120.50917011196725 164.50459590367973,145.60002730274573 171.99832876212895,148.0 177.99331504944712,142.5455109566683 177.49373285938054,126.18192294659093" stroke="#4DD2FF" stroke-linecap="round" stroke-linejoin="round" stroke-width="0.5"><title>2025-04-02 4.0km</title><desc>1743590878000</desc></polyline><polyline fill="none" points="24.662100387737155,160.02555003669113 21.68687765300274,160.02555003669113 21.336851448751986,177.22301750944462 26.062205203808844,186.39492224424612 36.91301752999425,181.80897665210068 36.212965122424066,167.82175890379585 38.83816165290773,166.67526005604304 34.462834102101624,154.75162183039356 22.21191695984453,156.586033673957 22.21191695984453,178.14021042198874 26.062205203808844,185.47773420985322 35.51291271392256,182.49686935462523 36.03795202076435,161.17205379600637 31.487611367367208,153.14650968881324 21.68687765300274,158.19114225823432 21.336851448751986,177.6816140334122 25.71217899955809,185.2484371169703 31.487611367367208,186.39492224424612 36.73800442926586,181.57967901730444 36.56299132667482,159.56694829533808 28.337375530973077,152.917207818944 22.56194316316396,157.04463629599195 22.036903857253492,178.82810475083534 28.687401734292507,185.93632829515263 32.71270308177918,185.47773420985322 37.43805683590472,179.05740279285237 36.56299132667482,158.42044334928505 30.262519652955234,152.917207818944 22.21191695984453,155.89812948706094 22.56194316316396,180.8917859076755 30.08750655129552,186.62421916797757 36.38797822408378,180.20389249373693 37.263043734245,157.5032387826359 29.387454142794013,152.45860397734214 22.21191695984453,159.56694829533808 23.086982469074428,180.43319033202715 30.262519652955234,186.62421916797757 36.03795202076435,183.64335651532747 38.138109245337546,177.6816140334122 36.03795202076435,156.81533500226215 29.91249344870448,152.45860397734214 22.736956264823675,157.27393755677622 22.911969367414713,179.97459462156985 28.337375530973077,186.1656252866378 36.212965122424066,182.72616685472894 37.43805683590472,158.42044334928505 29.737480347044766,152.68790591543075 21.16183834709227,158.19114225823432 22.386930061504245,182.26757182134315 29.387454142794013,187.54140652553178 36.91301752999425,182.26757182134315 36.38797822408378,157.04463629599195 29.387454142794013,152.917207818944 21.68687765300274,157.9618411338888 23.437008674256504,183.64335651532747 29.03742793854326,187.3121097368421 34.63784720469266,186.85351605829783 37.08803063258529,182.49686935462523 36.73800442926586,158.42044334928505 29.212441041134298,152.0 22.036903857253492,158.19114225823432 24.662100387737155,183.4140591508476 27.112283816561103,186.62421916797757 36.03795202076435,188.0 38.138109245337546,160.02555003669113" stroke="#4DD2FF" stroke-linecap="round" stroke-linejoin="round" stroke-width="0.5"><title>2025-03-30 4.0km</title><desc>1743343343000</desc></polyline><polyline fill="none" points="84.72321175783873,156.88893945061136 82.85748552624136,158.88895555469207 78.61719863582402,155.11114512523636 80.65253634285182,156.88893945061136 80.82214781921357,154.22224717505742 75.39458059798926,152.0 69.62779042776674,154.66669621597975 67.42284124530852,176.22231705696322 70.13662485498935,184.66670286364388 77.93875273317099,188.0 84.72321175783873,183.33338194037788 86.0801035631448,177.55564428295474 86.24971503857523,172.00010637566447 81.67020519636571,155.33336953085382 73.35924289189279,153.33334869891405 67.08361829444766,161.77786301041488 70.98468223307282,184.44448279123753 78.78681011218578,187.11112148559187 85.06243470869958,181.11117777589243 83.7055429033935,156.66671527468134 75.22496912349015,153.11112399830017 68.61012157518417,159.77785074769054 70.81507075764239,183.77782237925567 79.46525601390749,186.44446225487627 84.5536002824083,181.11117777589243 83.7055429033935,155.7778182439506 73.69846584275365,153.7777980028186 68.94934452604502,159.77785074769054 69.79740190319717,180.44451588590164 74.71613469626755,186.22224244626705 80.48292486742139,186.22224244626705 85.40165766049176,181.11117777589243 83.87515437975526,157.11116359382868 73.35924289189279,154.22224717505742 67.59245272167027,160.6667454149574 70.13662485498935,181.55561887170188 78.27797568403184,186.44446225487627 85.23204618413001,180.2222951905569 84.5536002824083,159.33340321690775 77.26030683144927,154.44447171175852 73.18963141553104,154.66669621597975 69.28856747690588,160.00007446401287 71.15429370850325,183.55560217646416 80.48292486742139,186.88890177547 84.72321175783873,180.88895717915148 82.85748552624136,156.44449106638785 76.92108387872577,152.88889926392585 69.62779042776674,158.22228381584864 70.64545928221196,181.11117777589243 75.56419207435101,186.88890177547 80.65253634285182,186.22224244626705 84.5536002824083,181.33339833980426 84.21437733061612,158.6667316746898 76.92108387872577,153.55557336693164 69.62779042776674,159.1111794023309 69.62779042776674,180.0000744619174 73.86807731818408,185.7778027295135 78.95642158668488,186.88890177547 84.38398880697787,182.22228026844095 83.5359314288944,159.55562699853908 76.41224945243448,153.7777980028186 68.94934452604502,159.77785074769054 69.79740190319717,182.66672103572637 76.41224945243448,187.33334116323385 84.38398880697787,181.11117777589243 83.19670847710222,156.66671527468134 76.07302650157362,153.11112399830017 68.27089862246066,161.55563955719117 69.79740190319717,182.22228026844095 78.61719863582402,187.11112148559187 84.5536002824083,178.88897032791283 83.36631995253265,157.5556117813103 75.73380355071276,153.7777980028186 69.11895600147545,160.88896899926476 70.30623633041978,182.66672103572637 75.39458059798926,187.33334116323385 83.7055429033935,183.55560217646416" stroke="#4DD2FF" stroke-linecap="round" stroke-linejoin="round" stroke-width="0.5"><title>2025-03-30 4.5km</title><desc>1743327729000</desc></polyline><polyline fill="none" points="129.1810490693897,153.41971751028905 129.27241962775588,154.61687433358748 123.24196277512237,157.84918892075075 120.31810490693897,157.96890402794816 122.6937394249253,165.63063411333133 115.93231810536236,166.1094898377778 116.29780033882707,169.94032544834772 111.08967851148918,167.66576898901258 106.88663282617927,168.98261824360816 105.33333333348855,173.53171738353558 106.24703891715035,184.78464236855507 109.99323181062937,187.17886156454915 114.28764805477113,184.78464236855507 116.20642977999523,166.4686314459541 120.59221658250317,165.98977593320888 124.33840947551653,166.82777289458318 132.561759729404,176.04568226705305 134.29780033882707,176.28510708693648 136.12521150615066,172.45430147426669 141.33333333348855,176.88366882811533 139.87140439962968,183.228396097722 139.59729272406548,175.68654490390327 134.84602368902415,173.0528660453856 133.38409475469962,176.04568226705305 131.2825719122775,174.48941921128426 120.68358714086935,158.20833418983966 128.90693739475682,155.45488305727486 127.53637901879847,152.82113843545085" stroke="#4DD2FF" stroke-linecap="round" stroke-linejoin="round" stroke-width="0.5"><title>2025-03-29 1.5km</title><desc>1743247652000</desc></polyline><polyline fill="none" points="160.97169724083506,178.37714073283132 161.58171769743785,179.01654664808302 161.24010624166112,178.47305174065696 160.87409396772273,178.85669534644694 161.09370133222546,179.75186111481162 162.46014715509955,181.82991022861097 164.09500197903253,183.26854792442464 164.68062161759008,181.9577895222028 164.33901016181335,181.31839229830075 164.85142734530382,181.82991022861097 164.5342167079216,183.71612214576453 165.9982658040244,184.80308425755356 171.19564009504393,185.63428689427383 174.92896528996062,188.0 179.1991084869951,187.1048683529807 180.0531371262623,185.76216393953655 179.51631912437733,166.45187417141278 178.8330962129403,165.07706928388507 177.29584466200322,163.92606312465796 175.29497756413184,162.74307819140085 173.05010228347965,163.3505577488395 171.6104540056549,161.40022259052785 169.58518608938903,154.84568872128148 170.43921472877264,154.4939764122537 171.00043354881927,156.06069048054633 172.56208591803443,156.31647945508303 173.12330473819748,155.29332174221054 172.4644826449221,152.19184536012472 171.0980368219316,152.0 170.12200409115758,152.63948387214623 168.6335541770095,152.73540628993942 167.02310017123818,153.72660211673065 162.82615942903794,154.23818528278207 160.26407351100352,155.32529549402534 160.92289560416248,158.71448638438596 159.99566451006103,161.1764125134505 159.94686287362128,167.82667032310565 160.23967269272543,174.47672373245587 160.99609805911314,177.60985114048526" stroke="#4DD2FF" stroke-linecap="round" stroke-linejoin="round" stroke-width="0.5"><title>2025-03-25 3.9km</title><desc>1742910133000</desc></polyline><polyline fill="none" points="35.72436954174191,192.0 23.7031935043633,202.31260436901357 22.987647312693298,206.62512316391803 26.708487514406443,226.31252281251363 31.574201623909175,227.06251295050606 36.29680649470538,223.50005584664177 34.722604871727526,204.75011679320596 32.00352934002876,200.81259439594578 25.84983208309859,201.1875970554538 23.7031935043633,209.06262730562594 25.563613606616855,225.56253223086242 31.717310862615705,227.25001041567884 35.867478779517114,223.6875538387103 35.29504182562232,203.6251116405474 28.568907614797354,199.5000842155423 24.275630459189415,202.87510765134357 23.84630274400115,223.3125578276813 30.14310923870653,227.06251295050606 35.58126030303538,224.06254973821342 35.72436954174191,206.81262364948634 34.29327715560794,201.9376020419877 30.28621847741306,199.6875857532723 26.85159675218165,199.6875857532723 23.130756550468504,204.56261600344442 23.989411981776357,223.3125578276813 28.99823532998562,227.43750785302836 35.72436954174191,224.06254973821342 35.008823349140584,203.81261256861035 29.427563046105206,199.5000842155423 22.987647312693298,205.87512094830163 23.416975027881563,223.3125578276813 30.572436953894794,227.06251295050606 36.01058801822364,222.00007091695443 35.72436954174191,204.18761434138287 30.715546192601323,199.12508105742745 23.989411981776357,202.87510765134357 23.130756550468504,222.00007091695443 27.137815229594707,227.25001041567884 30.28621847741306,227.43750785302836 36.01058801822364,221.62507440743502 35.008823349140584,202.31260436901357 28.568907614797354,199.31258265057113 23.416975027881563,206.25012211152352 24.132521220482886,224.06254973821342 27.424033707007766,227.06251295050606 31.717310862615705,226.68751793680713 36.43991573434323,221.25007778697181 34.722604871727526,202.31260436901357 27.7102521834895,200.0625887446804 23.416975027881563,206.62512316391803 25.134285890497267,225.37503451644443 30.572436953894794,227.6250052631367 36.01058801822364,224.25004764692858 36.01058801822364,207.00012410641648 35.43815106339753,203.06260869046673 30.572436953894794,199.12508105742745 23.989411981776357,201.75010083708912 23.7031935043633,223.6875538387103 29.570672283880413,227.06251295050606 33.577730963006616,226.31252281251363 36.58302497211844,222.3750673151808 35.43815106339753,203.6251116405474 31.00176466908306,199.31258265057113 25.134285890497267,200.81259439594578 23.130756550468504,204.18761434138287 23.56008426565677,222.00007091695443 30.14310923870653,228.0 36.43991573434323,225.56253223086242 37.0123526873067,206.06262154399883" stroke="#4DD2FF" stroke-linecap="round" stroke-linejoin="round" stroke-width="0.5"><title>2025-03-24 4.1km</title><desc>1742817301000</desc></polyline><polyline fill="none" points="76.75587788317353,194.57145573501475 73.72269648872316,192.46753771742806 69.26213561370969,196.67537095607258 69.7974029192701,219.81825374194887 76.22061057947576,227.5324727811385 84.60646502394229,221.6883709024405 84.24962015450001,198.07797954848502 79.43221440911293,192.7013065238716 69.08371317852288,195.97406619309913 69.7974029192701,220.51954793580808 75.15007596835494,227.06494542537257 79.07536953873932,227.29870912083425 84.60646502394229,222.15589984657709 83.7143528489396,197.84421153645962 76.39903301373124,192.23376887559425 68.9052907442674,199.0130512531614 69.26213561370969,219.11695923667867 75.68534327391535,228.0 84.24962015450001,223.32472160388716 84.7848874591291,198.54551546974108 74.97165353409946,192.0 70.15424778871238,196.20783448161092 69.26213561370969,219.58448894124012 77.46956762392074,228.0 84.24962015450001,223.09095732169226 84.0711977193132,196.67537095607258 74.97165353409946,192.0 69.6189804840833,199.0130512531614 69.9758253544569,223.55848585197236 76.39903301373124,228.0 85.1417323295027,223.09095732169226 83.5359304137528,196.67537095607258 77.82641249336302,192.0 69.7974029192701,198.07797954848502 70.15424778871238,221.6883709024405 76.04218814428896,227.5324727811385 84.60646502394229,223.55848585197236 83.7143528489396,199.71435466932599 74.97165353409946,192.0 68.01317856926471,199.0130512531614 69.44055804889649,220.28578323929105 73.90111892390996,227.06494542537257 83.89277528319508,223.55848585197236 84.42804258875549,197.84421153645962 78.18325736373663,192.23376887559425 68.5484458738938,198.07797954848502 69.08371317852288,220.052018507733 76.22061057947576,227.06494542537257 80.32432658411562,226.8311816956848 85.32015476375818,220.75331259786617 84.60646502394229,198.77928337897174 81.7517060637474,193.87015003990382 75.32849840354174,192.23376887559425 69.08371317852288,200.18189010652713 69.9758253544569,220.987077225931 74.97165353409946,227.29870912083425 84.24962015450001,223.09095732169226 84.42804258875549,198.07797954848502 81.21643875911832,193.40261273703072 73.90111892390996,192.23376887559425 69.44055804889649,198.77928337897174 69.9758253544569,222.15589984657709 75.32849840354174,228.0 84.7848874591291,223.09095732169226 85.32015476375818,198.77928337897174 79.07536953873932,228.0" stroke="#4DD2FF" stroke-linecap="round" stroke-linejoin="round" stroke-width="0.5"><title>2025-03-23 4.2km</title><desc>1742719228000</desc></polyline><polyline fill="none" points="118.55836154706776,192.0 115.37504702247679,196.1707763823215 117.05047571938485,223.82931296655443 125.26007633563131,226.68294220173266 132.12933399342,218.3415490334155 130.62144816666842,200.78056823613588 120.06624737475067,194.634175919462 115.20750415325165,202.75618893746287 116.5478471107781,223.1707823650213 122.41184755042195,226.90245191578288 130.62144816666842,221.8537202856969 129.78373381774873,199.4634863086976 120.90396172273904,193.97563237708528 115.20750415325165,199.68300004443154 116.04521850124002,222.29274110903498 123.08201902918518,227.78049044741783 127.60567651130259,226.46343245508615 130.78899103589356,221.1951888083713 130.28636242635548,201.2195952855982 121.07150459289551,194.19514692388475 117.55310432892293,195.07320478535257 114.87241841387004,203.19521540403366 116.71538998093456,223.60980279848445 126.93550503253937,226.68294220173266 133.13459121156484,223.1707823650213 130.95653390605003,200.34154105675407 120.06624737475067,194.85369036893826 114.70487554371357,203.41472858807538 115.37504702247679,221.41469933302142 120.40133311413229,227.12196159735322 129.4486480783671,227.34147124632727 130.45390529651195,224.92686332121957 131.29161964450032,202.53667565598153 126.60041929315776,195.731747840764 121.57413320150226,194.634175919462 115.71013276278973,199.2439725410659 115.37504702247679,223.39029259770177 124.92499059718102,227.34147124632727 130.95653390605003,220.53665703942534 129.78373381774873,199.2439725410659 123.7521905079484,194.41466143820435 117.88819006830454,194.41466143820435 113.53207545541227,207.14644775819033 117.38556145876646,224.92686332121957 124.42236198671162,226.46343245508615 132.12933399342,220.09763569757342 129.28110520914197,197.92688925145194 119.56361876614392,194.85369036893826 116.71538998093456,196.39029060467146 114.70487554371357,211.97571747808252 118.055732938461,226.46343245508615 126.26533355377614,227.12196159735322 130.95653390605003,219.87812497792765 128.44339086022228,198.1464032138465 122.74693328980356,192.878059159033 115.54258989170194,197.26834716903977 115.71013276278973,222.95127209986094 122.24430468026549,228.0 131.45916251465678,222.51225147151854 129.78373381774873,198.58543104177807 122.07676181104034,192.878059159033 115.20750415325165,198.3659171438776 115.37504702247679,221.1951888083713 123.08201902918518,227.56098086340353 130.45390529651195,223.60980279848445 129.78373381774873,201.2195952855982" stroke="#4DD2FF" stroke-linecap="round" stroke-linejoin="round" stroke-width="0.5"><title>2025-03-21 4.2km</title><desc>1742565279000</desc></polyline><polyline fill="none" points="171.77457133727148,193.80003031750675 166.96605545608327,192.0 165.59219377534464,193.65002791257575 164.7907744613476,210.15015955013223 171.08764049690217,213.1501546743093 175.89615637809038,208.20015796588268 173.14843301754445,193.3500230370555 167.4240093487315,193.0500180728268 163.9893551482819,196.95007569319569 167.08054392877966,212.10015738906804 171.20212897006422,213.75015263538808 175.09473706502467,210.9001591624692 174.98024859139696,195.75005955935922 170.05724423658103,192.7500130198896 166.16463614208624,193.20002056611702 164.1038436209783,197.10007760988083 165.7066822485067,211.20015885180328 170.40070965653285,214.35015024163295 174.4078062241897,211.80015796527732 175.09473706502467,196.35006780351978 171.31661744322628,193.3500230370555 164.7907744613476,194.40003971371334 164.5617975150235,208.35015822085552 166.96605545608327,213.1501546743093 169.71377881616354,213.9001520703314 174.4078062241897,211.35015866381582 174.86576011776924,195.6000574431382 173.606386911124,193.50002548575867 168.568894083146,192.90001555765048 165.2487283553928,195.15005096106324 164.218332094606,204.75014598818962 167.8819632427767,213.60015317809302 174.06434080470353,212.40015672438312 175.32371401134878,196.65007179265376 174.86576011776924,194.40003971371334 168.4544056095183,193.0500180728268 165.1342398817651,195.90006165369414 166.62259003520012,211.0501590182539 168.568894083146,213.60015317809302 174.4078062241897,213.00015512865502 174.98024859139696,200.55011558323167 169.255824922584,209.10015916253906 167.65298629552126,214.65014891175088 168.6833825558424,228.0 174.1788292778656,226.35002791171428 175.4382024849765,215.55014439101797 173.606386911124,194.70004427887034 167.99645171593875,192.30000527447555 163.9893551482819,195.6000574431382 164.7907744613476,208.65015866374597 170.05724423658103,214.05015148292296 174.86576011776924,210.9001591624692 175.4382024849765,196.50006980914623 169.59929034300148,192.15000264858827 165.2487283553928,194.70004427887034 164.90526293497533,210.30015951674432 169.3703133962117,213.75015263538808 174.7512716446072,210.45015946147032 175.20922553772107,195.75005955935922 169.94275576341897,192.15000264858827 166.05014766892418,194.55004200723488 165.82117072166875,212.40015672438312 168.6833825558424,214.80014821409713 172.2325252299197,214.35015024163295 174.06434080470353,211.65015822008718 176.0106448517181,197.55008322768845" stroke="#4DD2FF" stroke-linecap="round" stroke-linejoin="round" stroke-width="0.5"><title>2025-03-10 4.0km</title><desc>1741591515000</desc></polyline><polyline fill="none" points="39.42321660555899,238.92314136272762 29.911932555027306,232.9230872882763 22.514267182908952,238.2308286074549 22.690402071923018,262.92312717915047 28.15058365650475,267.7692334119929 37.661867707036436,262.0000576203456 37.13346303720027,240.07699527335353 32.2016861224547,233.8461740303319 22.161997403018177,238.00005762127694 21.985862512141466,262.69235984014813 26.565369647927582,266.8461667174706 37.83800259698182,262.69235984014813 38.36640726681799,240.3077659533592 31.1448767837137,233.3846307278145 22.690402071923018,238.00005762127694 23.21880674175918,262.92312717915047 29.03125810623169,267.5384667891776 35.19597924966365,266.1538663385436 38.19027237594128,261.53852263628505 38.19027237594128,241.4616188404616 31.321011673659086,233.61540239606984 22.338132292963564,238.6923704787623 22.690402071923018,260.61545225942973 29.207392995245755,267.7692334119929 38.01413748692721,262.2308250613278 37.30959792714566,237.76928660005797 27.622178986668587,233.3846307278145 22.690402071923018,237.76928660005797 23.21880674175918,263.84619619173463 30.088067444972694,267.5384667891776 38.01413748692721,262.0000576203456 37.83800259698182,241.00007778790314 31.84941634349525,233.3846307278145 25.332425420172513,234.07694563106634 21.8097276231274,238.2308286074549 22.161997403018177,261.76929014502093 28.8551232162863,267.3077001328347 37.83800259698182,262.0000576203456 36.60505836736411,237.30774445610587 30.792607003822923,232.0 21.633592733182013,238.00005762127694 22.161997403018177,261.76929014502093 31.1448767837137,267.3077001328347 37.48573281802237,261.76929014502093 36.95732814818621,237.76928660005797 30.616472113877535,232.23077187302988 20.57678339444101,239.15391221328173 22.514267182908952,263.38466175319627 32.906225682236254,267.3077001328347 37.661867707036436,262.461592467851 36.78119325824082,236.61543098511174 27.622178986668587,233.153859024751 22.161997403018177,237.76928660005797 22.161997403018177,261.76929014502093 31.1448767837137,267.5384667891776 38.01413748692721,262.0000576203456 38.36640726681799,239.15391221328173 30.44033722486347,233.153859024751 21.8097276231274,239.846224559471 22.338132292963564,264.0769633599557 28.15058365650475,268.0 37.13346303720027,262.0000576203456 39.247081715613604,238.92314136272762" stroke="#4DD2FF" stroke-linecap="round" stroke-linejoin="round" stroke-width="0.5"><title>2025-03-09 4.1km</title><desc>1741514669000</desc></polyline><polyline fill="none" points="70.36199341900647,252.95899855392054 76.1961686629802,265.04112517938484 81.08934789989144,265.2876982818125 86.92352314386517,259.3699337783037 83.91233592107892,232.2465779837221 70.92659102287143,232.0 66.0334117859602,237.6712844077265 73.37318064179271,261.83567153767217 84.85333192814142,264.05483240727335 88.24091755412519,253.45214829174802 84.10053512267768,237.6712844077265 87.48812074866146,235.4520884566009 68.10360300168395,243.34254954278003 69.04459900874645,240.38363100716379 76.1961686629802,244.82200684351847 73.37318064179271,250.24667239165865 75.2551726559177,265.04112517938484 83.5359375178814,264.7945520414505 87.6763199493289,258.38363765436225 80.33655109349638,234.2192005419638 69.04459900874645,232.98631171614397 65.0924157788977,239.150746735977 71.1147902244702,253.2055734412279 70.73839182127267,261.34252427797765 80.14835189282894,267.7534272982739 85.4179295329377,258.1370635323692 82.40674230922014,237.1781300068833 72.24398543313146,232.2465779837221 65.657013383694,237.6712844077265 69.98559501580894,263.31511244538706 81.2775471014902,268.0 85.98252713680267,260.8493768715998 84.85333192814142,233.72604512050748 72.43218463473022,232.98631171614397 69.42099741101265,244.32885455572978" stroke="#4DD2FF" stroke-linecap="round" stroke-linejoin="round" stroke-width="0.5"><title>2025-03-05 1.9km</title><desc>1741161630000</desc></polyline></svg>