<?xml version="1.0" encoding="utf-8" ?>
<svg baseProfile="full" height="300mm" version="1.1" viewBox="0,0,200,300" width="200mm" xmlns="http://www.w3.org/2000/svg" xmlns:ev="http://www.w3.org/2001/xml-events" xmlns:xlink="http://www.w3.org/1999/xlink"><defs /><rect fill="#222222" height="300" width="200" x="0" y="0" /><text fill="#FFFFFF" style="font-size:12px; font-family:Arial; font-weight:bold;" x="10" y="20">Over 10km Runs</text><text fill="#FFFFFF" style="font-size:4px; font-family:Arial" x="10" y="280">ATHLETE</text><text fill="#FFFFFF" style="font-size:9px; font-family:Arial" x="10" y="290">TXyy2025</text><text fill="#FFFFFF" style="font-size:4px; font-family:Arial" x="65" y="280">SPECIAL TRACKS</text><rect fill="yellow" height="2.6" width="2.6" x="65" y="283" /><text fill="#FFFFFF" style="font-size:3px; font-family:Arial" x="70" y="285.5">Over 20.0 km</text><rect fill="red" height="2.6" width="2.6" x="65" y="287" /><text fill="#FFFFFF" style="font-size:3px; font-family:Arial" x="70" y="289.5">Over 40.0 km</text><text fill="#FFFFFF" style="font-size:4px; font-family:Arial" x="120" y="280">STATISTICS</text><text fill="#FFFFFF" style="font-size:3px; font-family:Arial" x="120" y="285">Number: 24</text><text fill="#FFFFFF" style="font-size:3px; font-family:Arial" x="120" y="290">Weekly: 3.0</text><text fill="#FFFFFF" style="font-size:3px; font-family:Arial" x="141" y="285">Total: 171.8 km</text><text fill="#FFFFFF" style="font-size:3px; font-family:Arial" x="141" y="290">Avg: 7.2 km</text><text fill="#FFFFFF" style="font-size:3px; font-family:Arial" x="167" y="285">Min: 1.5 km</text><text fill="#FFFFFF" style="font-size:3px; font-family:Arial" x="167" y="290">Max: 35.9 km</text><polyline fill="none" points="44.14285714365542,41.015917763346806 45.857142858207226,63.47614326537587 39.857142858207226,50.00002389214933 26.142857141792774,58.42260410008021 12.85714285634458,55.61507943714969 30.857142858207226,47.192493008449674 42.42857143096626,51.12303566513583 19.71428571268916,56.17658453644253 30.857142858207226,43.823453210061416 22.28571428358555,55.053574255434796 18.0,49.438517881790176 25.71428571268916,57.86109933280386 28.714285714551806,48.87701178784482 45.857142858207226,52.80755270156078 23.571428570896387,54.492068991297856 32.57142857275903,53.9305636449717 30.428571430966258,44.94646680750884 27.428571429103613,52.80755270156078 39.0,52.80755270156078 32.57142857275903,44.94646680750884 35.14285714365542,50.00002389214933 40.28571428731084,43.261946285609156 45.0,47.753999350825325 30.0,50.56152981962077 37.28571428544819,46.63098658225499 47.57142857462168,54.492068991297856 13.714285714551806,49.438517881790176 46.28571428731084,48.87701178784482 45.0,57.86109933280386 21.85714285634458,46.63098658225499 29.142857141792774,44.94646680750884 31.71428571641445,52.80755270156078 20.571428572759032,43.823453210061416 36.85714285634458,43.261946285609156 27.857142858207226,48.31550561124459 40.28571428731084,46.06948007456958 44.57142857275903,55.61507943714969 18.428571429103613,50.00002389214933 19.285714285448194,37.085364654194564 43.71428571641445,46.06948007456958 32.57142857275903,44.94646680750884 39.0,39.331395499641076 23.14285714365542,48.31550561124459 43.28571428544819,47.753999350825325 12.0,53.9305636449717 34.28571428731084,47.192493008449674 30.0,38.769887913251296 28.285714285448194,49.438517881790176 14.999999998137355,47.753999350825325 46.71428571455181,49.438517881790176 29.571428570896387,45.50797348306514 30.0,52.246047106571496 45.42857143096626,47.192493008449674 26.571428572759032,51.684541426831856 47.14285714365542,43.823453210061416 21.0,42.70043928013183 46.28571428731084,51.684541426831856 12.428571429103613,49.438517881790176 30.857142858207226,47.753999350825325 27.0,59.545613382942975 26.571428572759032,53.36905821575783 13.714285714551806,52.246047106571496 35.57142857275903,54.492068991297856 45.0,46.06948007456958 45.857142858207226,55.053574255434796 36.42857143096626,59.545613382942975 18.0,49.438517881790176 27.857142858207226,48.31550561124459 24.0,55.61507943714969 24.428571429103613,47.753999350825325 20.142857141792774,52.80755270156078 41.14285714365542,51.684541426831856 46.71428571455181,42.70043928013183 46.71428571455181,55.053574255434796 34.71428571455181,47.753999350825325 45.42857143096626,58.42260410008021 39.857142858207226,55.053574255434796 45.42857143096626,47.192493008449674 32.142857141792774,50.56152981962077 47.14285714365542,44.94646680750884 48.0,36.52385673462413" stroke="#4DD2FF" stroke-linecap="round" stroke-linejoin="round" stroke-width="0.5"><title>2025-04-27 2.3km</title><desc>1745759770000</desc></polyline><polyline fill="none" points="78.93851132690907,50.45794604020193 85.92880258895457,43.58899392001331 69.15210355818272,44.0469245351851 69.15210355818272,50.91587564093061 86.6278317142278,49.54208663711324 78.93851132690907,54.12138094729744 76.49190938472748,47.25243694521487 62.86084142513573,44.96278556250036 68.10355987027287,43.58899392001331 91.17152103409171,50.00001637171954 71.5987055003643,50.45794604020193 82.78317152149975,51.831734638195485 63.210355987772346,57.326882937923074 83.13268608227372,49.54208663711324 86.97734627686441,55.4951679201331 63.90938511304557,49.54208663711324 74.04530744068325,56.411025564186275 69.50161812268198,53.66345181991346 84.53074433654547,50.45794604020193 78.58899676427245,57.78481152304448 70.20064724981785,49.084156833123416 80.33656957745552,49.084156833123416 84.18122977390885,51.373805172974244 77.1909385100007,55.4951679201331 78.93851132690907,49.084156833123416 63.55987055040896,55.4951679201331 58.666666666045785,51.831734638195485 77.1909385100007,57.326882937923074 85.22977346368134,52.747593363747 64.6084142383188,52.28966403496452 78.23948219977319,55.953096775570884 70.55016181245446,55.037238996010274 74.3948220051825,59.616525187157094 83.13268608227372,53.66345181991346 64.95792880095541,48.626226963242516 81.38511326722801,47.71036701882258 75.09385113231838,51.831734638195485 80.68608414195478,53.20552262524143 67.05501618236303,52.747593363747 90.47249190881848,53.66345181991346 63.210355987772346,55.4951679201331 76.84142394736409,59.616525187157094 68.10355987027287,55.953096775570884 81.38511326722801,54.579310005530715 79.6375404521823,60.0744534349069 65.30744336359203,57.326882937923074 74.04530744068325,54.579310005530715 77.88996763713658,60.0744534349069 82.08414239436388,54.12138094729744 69.15210355818272,55.037238996010274 82.4336569570005,57.326882937923074 86.27831715159118,50.91587564093061 73.34627831541002,56.86895428458229 82.78317152149975,49.54208663711324 73.69579287990928,55.037238996010274 91.87055016309023,50.91587564093061 81.38511326722801,55.4951679201331 72.64724919013679,47.25243694521487 75.44336569495499,51.831734638195485 87.67637540400028,49.084156833123416 74.3948220051825,56.86895428458229 92.2200647238642,45.87864631903358 85.92880258895457,52.28966403496452 71.5987055003643,52.28966403496452 67.404530743137,59.616525187157094 66.0064724907279,52.28966403496452 85.57928802631795,58.70066849025898 79.6375404521823,56.411025564186275 85.92880258895457,52.28966403496452 70.89967637509108,55.4951679201331 83.13268608227372,53.20552262524143 83.83171521127224,39.9255465650931 79.9870550148189,53.66345181991346 89.07443365640938,54.12138094729744 78.93851132690907,58.24274003994651 81.03559870645404,50.91587564093061 76.14239482209086,52.28966403496452 91.17152103409171,53.66345181991346 63.210355987772346,57.78481152304448 68.45307443290949,52.28966403496452 61.812297735363245,50.45794604020193 78.93851132690907,52.28966403496452 78.58899676427245,56.86895428458229 67.404530743137,57.326882937923074 82.08414239436388,57.326882937923074 87.32686084136367,50.45794604020193 74.3948220051825,45.420715973712504 76.49190938472748,49.084156833123416 64.25889967568219,52.28966403496452 70.55016181245446,42.21520166960545 77.54045307449996,47.71036701882258 70.20064724981785,53.66345181991346 91.52103559859097,52.747593363747 92.91909385100007,47.71036701882258 82.08414239436388,53.66345181991346 77.88996763713658,49.54208663711324 89.07443365640938,47.71036701882258 85.22977346368134,53.20552262524143 70.55016181245446,48.16829702514224 84.18122977390885,53.20552262524143 67.404530743137,51.831734638195485 75.79288025945425,55.953096775570884 91.52103559859097,51.373805172974244 86.27831715159118,55.4951679201331 78.58899676427245,49.54208663711324 85.57928802631795,50.45794604020193 77.54045307449996,58.24274003994651 79.9870550148189,51.831734638195485 94.66666666604578,50.00001637171954" stroke="#4DD2FF" stroke-linecap="round" stroke-linejoin="round" stroke-width="0.5"><title>2025-04-26 3.2km</title><desc>1745672895000</desc></polyline><polyline fill="none" points="119.96130167099182,60.197539875342045 118.789797713398,60.322148370789364 116.85839929652866,58.99298822981655 115.21196130174212,55.58698659745278 115.97185576078482,55.50391286984086 116.7634124889737,58.037650485144695 118.21987686911598,59.69910533959046 124.04573438875377,61.194406287773745 124.71064204047434,61.02826213199296 124.07739665801637,61.11133422222338 123.25417766056489,58.90991551170009 120.84784520661924,55.96081806704751 120.72119613026734,55.296228443068685 120.27792436233722,55.25469153930317 120.87950747588184,54.38241513699177 121.06948109064251,51.97325668472331 122.17766051017679,52.09786883671768 122.6209322779905,50.519444151606876 122.08267370285466,49.522539770347066 121.89270008797757,50.020992404111894 122.08267370285466,48.941010576992994 119.0747581354808,47.196415757294744 118.50483729119878,45.950269951543305 114.29375549696852,42.29487695649732 112.83729111694265,39.51176168466918 110.0193491645623,38.971751042234246 107.32805628853384,40.38408437045291 105.33333333337214,38.80559371225536 107.29639401950408,40.30100613637478 110.20932277920656,39.054829670349136 112.9006156551186,39.594840152567485 114.54705364990514,42.668726156058256 119.0747581354808,46.90564889818779 124.86895338620525,50.35329366760561 126.86367634136695,50.934819930640515 128.38346525945235,50.145605424186215 129.87159190850798,51.640957342024194 135.72911169740837,48.442556022375356 137.43887423037086,48.27640430719475 140.2884784520138,51.26712011054042 141.33333333337214,51.5163449869724 138.89533861039672,50.27021838867222 137.59718557598535,48.442556022375356 135.98240985057782,48.52563184298924 129.93491644668393,51.640957342024194 128.003518029931,50.104067757027224 126.9270008795429,51.017895012453664 122.17766051017679,48.941010576992994 121.19613016722724,51.30865760528832 120.81618293758947,54.631637243233854 121.35444151284173,59.07606092322385 120.84784520661924,60.322148370789364 116.89006156544201,58.951451873843325 115.90853122249246,57.20691936466028 115.94019349163864,56.04389165923931" stroke="#4DD2FF" stroke-linecap="round" stroke-linejoin="round" stroke-width="0.5"><title>2025-04-24 3.3km</title><desc>1745457116000</desc></polyline><polyline fill="none" points="188.0,47.53752590419026 186.4819277105853,50.94716964085819 183.37349397595972,51.89428968250286 161.3253012043424,53.314967121288646 162.8433734937571,51.32601782528218 160.16867469856516,43.74901159352157 157.13253012066707,43.559585290262476 153.66265060240403,47.63223847508198 152.86746987933293,55.114487357554026 156.77108433749527,57.57698054774664 158.86746987933293,57.198136057239026 160.31325301202014,54.07266046805307 159.22891566250473,42.23359960014932 156.4096385538578,43.0860192872351 153.73493975866586,47.44281331944512 154.38554216874763,56.53515766025521 158.4337349398993,56.440446404740214 160.2409638557583,53.69381390680792 159.95180722884834,45.16970708372537 157.42168674664572,42.70716623275075 155.61445783125237,43.0860192872351 153.01204819278792,47.9163761039963 154.09638554230332,56.25102385156788 156.5542168673128,57.671691635332536 159.95180722884834,56.62986890185857 159.73493975913152,42.138886231405195 156.69879518076777,42.70716623275075 154.24096385529265,45.35913291142788 153.59036144567654,49.33706235856516 154.53012048173696,56.06160124251619 155.97590361442417,57.387558330607135 159.1566265062429,56.81929134298116 160.45783132500947,53.78852556803031 159.51807228894904,45.074994149035774 158.2891566264443,43.46487211773638 155.03614457836375,43.37015893100761 152.0,46.96925018483307 153.73493975866586,55.966889916860964 158.4337349398993,57.671691635332536 160.45783132500947,54.83035291940905 159.87951807212085,44.980281200492755 156.9156626504846,43.18073251575697 154.24096385529265,44.412003214121796 153.01204819278792,46.96925018483307 155.54216867452487,56.91400254255859 158.2891566264443,57.766402709065005 160.67469879472628,54.262083665060345 160.16867469856516,46.59039942576783 159.1566265062429,44.412003214121796 155.7590361442417,43.18073251575697 153.30120481923223,45.73798439837992 154.24096385529265,55.114487357554026 155.97590361442417,57.10342489980394 159.66265060240403,56.724580129317474 160.31325301202014,49.90533597872127 159.66265060240403,44.79085526103154 155.03614457836375,43.18073251575697 153.22891566250473,45.83269723522244 153.807228915859,52.841408325126395 154.24096385529265,56.156312553968746 156.62650602404028,57.8611137685366 160.09638554183766,55.777467224164866 159.95180722884834,45.074994149035774 156.77108433749527,43.0860192872351 153.66265060240403,45.643271547567565 154.02409638557583,55.30391024652636 157.13253012066707,57.57698054774664 160.31325301202014,55.114487357554026 160.31325301202014,45.92741005780408" stroke="#4DD2FF" stroke-linecap="round" stroke-linejoin="round" stroke-width="0.5"><title>2025-04-20 4.3km</title><desc>1745155370000</desc></polyline><polyline fill="none" points="36.78119125496596,90.6924112556735 20.048381665721536,78.69237047852948 24.62788744829595,101.30775509332307 30.088067418895662,107.76923341176007 35.19597771484405,107.0769334420329 39.42321382090449,102.00005762011278 38.19026995729655,81.00007778848521 32.201685472391546,73.153859024751 28.678988717496395,73.61540239606984 24.451752610504627,79.84622455923818 25.684696475043893,102.23082506062929 30.792606770060956,108.0 38.014135118573904,105.46156565228011 37.66186544392258,78.69237047852948 33.082359661348164,72.0 24.980157123878598,75.23080312134698 25.86083131376654,100.8462199048372 30.792606770060956,107.53846678941045 38.71867447067052,102.92312717891764 39.59934865869582,80.07699527346995 35.372112553566694,73.84617403091397 29.383528067730367,73.84617403091397 24.275617773644626,78.46159956045449 25.86083131376654,103.61542898975313 31.84941579774022,108.0 39.77548349741846,99.9231491186656 38.366404795087874,77.30774445622228 33.25849449913949,72.23077187361196 23.57107842154801,80.07699527346995 26.389235826209188,104.5384975936031 33.43462933693081,108.0 39.24707898404449,103.38466175377835 38.366404795087874,78.2308286074549 35.72438222821802,74.07694563094992 29.383528067730367,72.92308728769422 24.451752610504627,80.30776595324278 25.332426799461246,102.46159246773459 28.50285387877375,106.61539995844942 35.372112553566694,107.0769334420329 39.59934865869582,99.9231491186656 38.366404795087874,78.69237047852948 30.44033709540963,73.61540239606984 24.275617773644626,80.5385365987895 25.684696475043893,103.61542898975313 29.383528067730367,107.76923341176007 39.24707898404449,103.38466175377835 39.24707898404449,81.46161884069443 31.84941579774022,72.23077187361196 24.62788744829595,77.53851554496214 24.451752610504627,100.8462199048372 26.741505501791835,105.69233258138411 32.73008998576552,108.0 39.951618334278464,102.46159246773459 38.366404795087874,78.00005762116052 32.37782031018287,72.4615437121829 24.09948293492198,80.30776595324278 25.156291961669922,100.61545225931332 29.383528067730367,107.53846678941045 38.894809308461845,103.8461961915018 38.71867447067052,79.61545381159522 33.43462933693081,73.153859024751 25.684696475043893,76.61543098511174 24.451752610504627,100.15391686616931 29.383528067730367,107.30770013295114 39.070944145321846,103.61542898975313 39.59934865869582,81.23084833170287" stroke="#4DD2FF" stroke-linecap="round" stroke-linejoin="round" stroke-width="0.5"><title>2025-04-19 4.1km</title><desc>1745066356000</desc></polyline><polyline fill="none" points="77.0282066501677,74.60529029450845 71.24356691259891,73.65791249542963 67.80893706902862,78.63163969444577 69.25509700365365,100.18427923275158 74.49742676503956,106.81580233352724 84.98208628874272,102.55268348951358 85.34362627286464,79.5790145539213 83.71669634617865,75.3158232762944 76.48589667491615,72.0 69.07432701159269,77.92110818251967 70.5204869452864,103.73688430548646 75.03973674122244,107.76316053676419 81.90899642836303,107.05264193634503 84.43977631442249,100.89480087743141 85.16285628080368,79.34217089123558 83.71669634617865,74.84213465708308 76.84743665903807,72.71053413697518 69.25509700365365,77.44742033269722 71.42433690465987,103.97372436325531 79.7397565273568,107.05264193634503 85.34362627286464,101.13164135534316 84.43977631442249,80.76323234126903 76.30512668285519,73.42106795834843 68.71278702747077,78.86848346143961 69.7974069789052,100.65796036401298 77.0282066501677,107.76316053676419 82.27053641248494,105.86844356975053 84.62054630555212,99.00007579207886 84.25900632236153,77.68426427466329 77.57051662541926,72.47368945949711 68.89355702046305,80.05270177358761 69.61663698684424,99.00007579207886 76.30512668285519,107.28948150505312 84.07823632936925,103.26320408377796 84.43977631442249,79.5790145539213 77.57051662541926,72.47368945949711 69.7974069789052,78.39479589182884 69.61663698684424,100.89480087743141 72.14741687104106,105.39476397819817 79.7397565273568,106.3421230216045 84.80131629761308,99.94743861479219 84.07823632936925,76.97373234236147 80.46283649466932,72.94737877894659 73.41280681453645,72.71053413697518 69.07432701159269,80.5263888540212 70.70125693827868,103.97372436325531 78.11282660160214,107.52632103860378 83.53592635411769,103.26320408377796 83.53592635411769,82.65797898115125 78.47436658479273,74.3684458975913 74.3166567729786,73.42106795834843 68.53201703540981,78.15795205440372 69.61663698684424,99.7105979619082 78.2935965936631,108.0 83.35515636298805,104.92108424659818 85.52439626399428,84.31588045391254 83.89746633917093,75.55266753362957 79.92052651941776,72.47368945949711 69.61663698684424,78.63163969444577 70.33971695415676,103.73688430548646 73.77434679772705,107.28948150505312 83.35515636298805,104.21056438679807 83.89746633917093,82.8948221532628 77.3897466333583,73.42106795834843 70.1589469620958,76.26320009550545 69.61663698684424,100.65796036401298 72.68972684722394,106.5789626945043 82.27053641248494,105.63160379172768 85.16285628080368,81.23691921099089" stroke="#4DD2FF" stroke-linecap="round" stroke-linejoin="round" stroke-width="0.5"><title>2025-04-17 3.9km</title><desc>1744894073000</desc></polyline><polyline fill="none" points="106.36142190228566,96.1405493686525 106.55295621103141,96.25125554774422 107.1022090081533,96.12209829110179 107.4317606864206,95.92282578511549 108.01763033668976,95.80842788750124 108.2654982656386,95.86009151903636 108.56688313379709,95.75676414910413 109.39780403200712,95.60915287917305 110.07380747461866,95.39880531233212 110.94697858799191,95.04084134570985 111.32441384345293,94.97072409162138 112.0821010353684,95.09250656489166 112.3187022402999,95.04822209785198 114.1917951125215,95.40249563578982 116.4845734553819,96.5464696267336 118.3435829225491,96.8306098827652 118.46751688704535,96.97083375312468 118.61116761858284,97.0335652297781 119.49278877499455,97.18116808285049 119.70685653181863,97.02249498064339 121.67571655842767,97.29924973737616 122.92632292724738,97.19223826167035 125.28951829537982,97.49113123556708 125.06981717652525,97.4247108837535 125.52048613826628,96.66824441793142 125.95988837596087,95.41725692416549 126.42182406174834,94.7013243896854 126.69785880080599,94.14037322053264 127.98789870379551,91.13611767572002 128.6779855514469,89.78888326159722 129.09485434107773,88.62614307119838 129.7595910596283,87.75866671076074 130.78204626658408,88.6815128794733 131.8833685418358,90.40160710229247 131.88618522284378,90.50126558255397 131.40734945099393,91.57164640564952 131.59606707871717,92.52387767930304 132.54247189837042,93.08855582036449 133.46634326994536,92.99259834389704 133.9902459379664,93.06272115142383 134.06066296323843,93.18820357878212 134.0240461101057,93.90787002978504 134.07756304931536,94.03703873628729 134.23248050489929,94.23263579161357 134.49443183891708,94.36549329526679 134.71694963877962,94.575849564093 134.96763424873643,94.88584504699247 135.04368463603896,94.90429703775226 135.11973502332694,94.82679858496158 135.0943848942261,94.5500164335208 135.32816941814963,94.13299220010958 135.52252040787425,93.42809469986969 135.62955428629357,93.34321041273688 135.7394048457354,93.32106663821287 135.95065592153696,93.39118852351567 136.41259160730988,93.31737600721135 136.93086091332952,93.43916654213353 137.10267845499038,93.64214944726336 137.39842996113293,93.63845886370655 137.44349685730413,93.78977234211925 137.27449599665124,94.04072926093795 137.5054638395377,94.35073138531334 138.10823357586924,94.50942146006491 138.33638473776227,94.70870524215206 138.55890253761027,94.78620406134723 139.28560623840895,95.2475015812197 139.75880864824285,95.31392772237268 140.1193438176415,95.6571266375795 140.14751062773576,95.84533049235506 139.9756930860749,96.05198407210992 139.89682601777895,96.28077711265178 139.63769136478368,96.69776549002927 139.67712489893893,97.22913882232024 139.83767571655335,96.88596150457124 140.22919437705423,96.46159593636366 140.39537855669914,96.0224622368205 140.47142894400167,96.000320837451 140.64042980464,96.18114169128785 140.60381295150728,95.7161711368226 141.2093993688468,95.02607983489543 141.33333333332848,94.40608850263743 135.2971859270183,85.72828506334918 134.80145006910607,85.47355279912153 134.63244920845318,84.95300487203713 134.36768119342742,84.65765370400004 134.2014970137825,84.49520907209626 133.5649271053262,84.11124483085223 133.04384111831314,83.57959228506115 132.75372297418653,82.58271324042471 132.03546931642632,82.50886876443474 131.96786897216225,82.59009767600037 131.92280207599106,83.00731473786436 131.83830164565006,84.38814271402043 131.73408444825327,84.7314918236043 131.17074824607698,85.68029222677615 130.01309235060762,87.38582718473299 129.15118796129536,88.47848964884724 128.4582844326069,89.10601066382333 127.58793000024161,90.61199676083561 126.07818897842662,94.24370727724818 125.97960514304577,94.65334879550574 125.90073807473527,95.50582447119814 125.52611950028222,96.63872331094535 125.03601700440049,97.45423106190356 124.26424640743062,97.30293978008922 123.02490676262823,97.20330843559168 121.66163315335871,97.28817960596643 119.72375661788101,96.99666438024542 119.47588868893217,97.17747802215672 118.64215110971418,97.02987514728011 118.44780011996045,96.94869319435202 118.3435829225491,96.81584942957488 116.47049005031295,96.52801884901601 114.20306183656794,95.38035368687633 112.4370028427511,95.04453172206013 112.22856844792841,95.01131831534076 112.06238426829805,95.06298359558787 111.31596380041447,94.93751058676025 110.938528544968,95.01131831534076 109.43160420414642,95.57963052050764 108.61758339199878,95.7235516894234 108.19226455935859,95.85271100678983 108.00636361262877,95.80473762401743 107.48809430663823,95.89330379717649 107.35571029913262,95.9375867660001 107.15290926635498,96.10364719992322 106.50225595284428,96.25125554774422 106.28537151499768,96.00770130608907 106.30508828206803,95.27702433243758 105.77836893303902,95.12941022744053 105.41220040162443,94.6902531068954 105.33333333332848,94.46513595922625 105.57556790024682,94.44668364403697 105.60936807238613,94.40977897276753 105.56430117621494,94.31751705602255" stroke="yellow" stroke-linecap="round" stroke-linejoin="round" stroke-width="0.5"><title>2025-04-14 32.8km</title><desc>1744614550000</desc></polyline><polyline fill="none" points="175.35266830492765,83.68840148649178 172.67633415199816,74.57145573571324 165.00417624786496,73.16884403419681 161.7925752652809,79.48058689828031 161.7925752652809,101.22084181988612 166.96682129334658,107.53247278206982 172.85475642886013,107.29870912106708 176.60162424203008,102.62342865357641 175.70951285772026,79.01305125351064 167.8589326767251,73.40261273772921 161.97099754214287,79.48058689828031 161.6141529874876,101.22084181988612 166.4315544627607,107.0649454263039 175.70951285772026,104.96107061428484 176.78004651982337,79.01305125351064 171.78422276768833,73.40261273772921 161.97099754214287,79.01305125351064 161.97099754214287,99.58448894135654 166.7883990155533,107.76623640838079 173.21160098258406,106.8311816958012 177.31531335040927,101.68837090267334 176.42320196516812,78.07797954929993 167.50208812393248,73.40261273772921 161.07888615783304,80.41565777407959 163.2199534792453,104.02601424453314 168.57262178510427,107.76623640838079 177.31531335040927,102.15589984680992 177.13689107261598,80.1818901069928 172.14106732141227,73.16884403419681 168.394199507311,72.46753771731164 161.97099754214287,78.07797954929993 162.3278420958668,100.75331259868108 167.14524357020855,108.0 177.13689107261598,103.79225006618071 176.42320196516812,77.6104434892768 169.64315544627607,72.0 165.1825985237956,73.16884403419681 161.6141529874876,79.94812240509782 162.50626437272877,102.38966426777188 169.28631089162081,107.53247278206982 177.67215790320188,102.15589984680992 177.31531335040927,79.94812240509782 171.4273782139644,72.70130652398802 167.14524357020855,72.93507529597264 161.43573071155697,78.77928337908816 161.7925752652809,100.75331259868108 163.3983757570386,104.7273065734189 170.53526682965457,107.76623640838079 178.20742473378778,99.81825374194887 176.95846879575402,77.14290729211643 169.64315544627607,72.93507529597264 161.6141529874876,79.01305125351064 162.50626437272877,102.85719300538767 165.8962876321748,107.0649454263039 172.14106732141227,107.76623640838079 177.85058018006384,101.45460637845099 177.67215790320188,79.94812240509782 172.4979118751362,72.23376887629274 165.53944307845086,74.33768720470835 162.8631089264527,78.77928337908816 161.7925752652809,99.81825374194887 168.21577723138034,107.53247278206982 177.13689107261598,103.09095732262358 177.31531335040927,77.6104434892768 172.3194895973429,72.46753771731164 167.50208812393248,72.70130652398802 162.14941981900483,79.94812240509782 162.3278420958668,102.85719300538767 168.75104406196624,107.76623640838079 178.38584700971842,105.42859859217424 178.92111384123564,79.71435466920957" stroke="#4DD2FF" stroke-linecap="round" stroke-linejoin="round" stroke-width="0.5"><title>2025-04-09 4.1km</title><desc>1744204461000</desc></polyline><polyline fill="none" points="16.094009614549577,148.0 20.450102988630533,142.73176180233713 19.612392724491656,139.21959262655582 24.471112256869674,141.4146993344184 24.471112256869674,137.02448267501313 24.63865430932492,139.658614227199 23.465859939344227,136.1464377862867 23.29831788688898,139.43910344305914 21.12027119938284,138.1220380560262 22.963233781047165,144.04882310307585 19.277308617718518,136.58546029555146 22.62814967520535,139.87812497885898 21.28781325276941,146.6829422020819 22.62814967520535,143.82931296771858 20.115018882788718,141.85372028697748 23.29831788688898,136.36594905750826 21.12027119938284,144.04882310307585 22.293065569363534,141.19518880930264 24.13602815102786,145.5853931447491 22.62814967520535,140.75616766267922 19.10976656526327,146.24392267595977 20.617645040154457,142.0732307145372 23.130775833502412,144.04882310307585 20.115018882788718,145.5853931447491 22.62814967520535,141.63420982670505 22.963233781047165,145.14637329545803 20.282560935243964,139.00008177699056 21.12027119938284,146.9024519160157 24.80619636271149,134.17083488975186 21.12027119938284,147.12196159746964 21.790439411066473,139.00008177699056 23.29831788688898,146.6829422020819 20.785187093541026,138.56105998135172 23.29831788688898,135.9269264828181 20.450102988630533,132.41474122111686 23.800944045186043,139.87812497885898 20.617645040154457,139.21959262655582 19.612392724491656,145.5853931447491 20.952729146927595,139.21959262655582 22.79569172859192,141.19518880930264 20.282560935243964,142.51225147221703 23.800944045186043,139.21959262655582 25.476364573463798,141.19518880930264 23.968486098572612,139.658614227199 22.79569172859192,144.26833320595324 25.141280467621982,142.73176180233713 21.28781325276941,145.36588323640171 23.968486098572612,146.24392267595977 20.785187093541026,141.63420982670505 23.800944045186043,141.85372028697748 22.460607622750103,146.02441286470275 22.79569172859192,136.36594905750826 29.162289736792445,138.78057089529466 20.952729146927595,143.1707823657198 22.293065569363534,145.14637329545803 21.95798146352172,140.75616766267922 22.963233781047165,146.9024519160157 20.450102988630533,141.85372028697748 26.314074838533998,143.39029259898234 23.633401991799474,146.6829422020819 23.968486098572612,138.56105998135172 21.28781325276941,140.9756782524055 24.13602815102786,140.9756782524055 22.460607622750103,144.48784327681642 20.450102988630533,134.60985798272304 23.633401991799474,135.9269264828181 21.622897358611226,143.60980279918294 19.94747683033347,140.75616766267922 25.141280467621982,140.3171463854378 22.963233781047165,137.24399381584954 29.664915895089507,139.00008177699056 32.84821489825845,119.02445874118712 43.90599038545042,118.36591714515816 43.40336422808468,112.0" stroke="#4DD2FF" stroke-linecap="round" stroke-linejoin="round" stroke-width="0.5"><title>2025-04-07 1.9km</title><desc>1744030807000</desc></polyline><polyline fill="none" points="77.26007325947285,129.2225680446718 58.666666666045785,123.5211164993234 74.49084248952568,122.48448795103468 66.57875457778573,123.00280226347968 76.468864466995,113.67313291574828 68.95238095149398,114.19144852994941 72.11721611581743,134.40569777064957 75.28205128014088,121.96617356082425 70.9304029289633,131.2958208543714 71.32600732520223,114.70976406754926 70.9304029289633,141.1437549686525 74.0952380951494,131.2958208543714 78.84249084070325,135.96063519688323 73.69963369891047,137.51557193184271 68.95238095149398,117.30134061025456 73.30402930267155,141.1437549686525 66.97435897402465,124.039430658333 73.69963369891047,126.63100030948408 73.69963369891047,117.81965568824671 78.84249084070325,135.44232279760763 75.28205128014088,131.81413386506028 73.30402930267155,140.10713162762113 68.95238095149398,125.07605874817818 71.32600732520223,130.25919460249133 78.44688644632697,125.59437267831527 72.11721611581743,146.32686708425172 79.63369963131845,133.36907243938185 71.72161172144115,139.58881984092295 68.95238095149398,131.2958208543714 72.90842490643263,137.51557193184271 82.40293040126562,128.18594117974862 74.8864468857646,131.81413386506028 78.84249084070325,139.07050797808915 74.8864468857646,134.92401032196358 75.28205128014088,114.19144852994941 70.1391941383481,132.85075965709984 75.6776556763798,125.59437267831527 70.1391941383481,115.74639491550624 72.90842490643263,129.2225680446718 76.86446886323392,124.55774474213831 69.34798534587026,140.62544333632104 67.36996336840093,124.55774474213831 72.11721611581743,137.51557193184271 72.90842490643263,126.63100030948408 65.78754578530788,131.2958208543714 63.01831501722336,117.30134061025456 75.28205128014088,142.1803780044429 71.72161172144115,133.88738514343277 80.4249084237963,119.37460046564229 75.28205128014088,140.10713162762113 70.1391941383481,130.77750776614994 74.0952380951494,117.81965568824671 68.55677655525506,138.0338840247132 63.809523805975914,129.2225680446718 75.28205128014088,124.55774474213831 77.26007325947285,131.81413386506028 71.32600732520223,126.11268653254956 70.1391941383481,131.2958208543714 80.82051282003522,124.55774474213831 71.72161172144115,135.44232279760763 75.28205128014088,145.80855621630326 69.34798534587026,123.5211164993234 75.6776556763798,128.7042546509765 79.63369963131845,122.48448795103468 67.36996336840093,120.92954455222934 71.32600732520223,134.40569777064957 74.8864468857646,115.74639491550624 69.74358974210918,129.2225680446718 67.36996336840093,119.37460046564229 64.20512820407748,143.217000734061 69.34798534587026,119.89291523769498 77.65567765384912,127.66762763285078 69.74358974210918,126.11268653254956 69.34798534587026,114.70976406754926 68.95238095149398,145.29024527338333 70.1391941383481,130.25919460249133 78.44688644632697,128.18594117974862 70.9304029289633,115.22807952947915 79.63369963131845,132.85075965709984 72.90842490643263,116.26471022330225 68.16117215901613,124.039430658333 76.468864466995,120.41122993268073 68.95238095149398,130.77750776614994 73.69963369891047,144.77193425269797 63.01831501722336,117.30134061025456 68.55677655525506,135.44232279760763 77.26007325947285,138.0338840247132 74.8864468857646,124.55774474213831 94.66666666604578,120.92954455222934" stroke="#4DD2FF" stroke-linecap="round" stroke-linejoin="round" stroke-width="0.5"><title>2025-04-06 2.6km</title><desc>1743945103000</desc></polyline><polyline fill="none" points="108.67897305326187,135.69482925436205 110.3489284956595,135.07935667492893 110.68979418629897,135.06809789128602 111.31137279864924,135.18068550311364 111.5032887757261,135.12063883890187 113.49119456822518,135.49968102666753 115.8027795459493,136.66304252080045 117.70761722893803,136.95575089492377 117.81646509653365,137.08334066920725 117.98260131551069,137.16214579790903 118.87916401443363,137.3084975312122 119.11118183746294,137.14338269420477 121.0675790367095,137.42858037500082 122.37088903033873,137.31975532193246 123.50519838744367,137.43608553388185 124.46764269044797,137.60495102274945 124.55930405262916,137.5486626511847 124.99183110544982,136.84692381636341 125.43295141099952,135.57473821473286 126.07744536388782,134.5126583692163 127.38648419265519,131.44251000692202 128.2200297050731,129.80219306105573 128.65828559304646,128.58971678035232 129.3171016337874,127.72630828532783 130.3626140462584,128.67980988826457 131.46255039253447,130.3952718284836 131.45682155741088,130.549169751519 130.98705707617046,131.6151687854981 131.10163377890422,132.33206550648902 131.20761722893803,132.60230404477625 132.0382983237796,133.10524033567526 132.21302779545658,133.15403213245918 133.02652238488372,133.06395489597526 133.63091449181957,133.13151285327876 133.6967960959155,133.2478622474191 133.648100997234,133.97597215826136 133.74835561214422,134.1936504499281 133.8829832378542,134.32876017542912 134.13791640145064,134.45636314518197 134.65351156375255,134.99679214569187 134.71652875028667,134.98553332545634 134.77954593677714,134.8842037187842 134.75949501378636,134.59522447212476 135.0086993422592,134.1636259688894 135.1776999787835,133.5180910418403 135.26936134096468,133.4092492343243 135.4183110545273,133.3754706475047 135.63887120729487,133.45053411276967 136.04561850203027,133.36796428877278 136.62709526841354,133.50683156614286 136.7760449819616,133.70574823532843 137.08540207934857,133.70950136506508 137.13696159559186,133.8333543349745 136.97368979419116,134.0622930833415 136.97082537662936,134.152366779339 137.20284319965867,134.4300919979305 137.85593040526146,134.62524844300424 138.030659876953,134.78662667845128 138.3085083810729,134.906721444082 138.99596859749,135.34581309777604 139.5029705071065,135.42087074049778 139.86388712073676,135.78114433841074 139.883938043713,135.95377362664294 139.7178018247505,136.14516559660478 139.62041162741662,136.4191162993029 139.37120729897288,136.78688109069844 139.36547846382018,137.32350791773752 139.41703798004892,137.33851829537525 139.5545300233498,137.02705114190394 139.99565032888495,136.53920334720533 140.13600678973307,136.14141282673336 140.2305325694906,136.10763787300675 140.3852111181768,136.27651219259315 140.35370252493885,135.82617817888058 140.85784001696447,135.27826102971085 140.99819647782715,135.05683910265725 141.17865478464228,133.97972524806028 141.14141735625162,133.66071063534037 141.17579036706593,133.18030459958572 141.3276044982049,132.9851370519791 141.33333333332848,132.38461211413778 141.25885847654718,132.18193174275075 141.127095268399,132.03179709148935 139.9641417356179,131.40872880424104 139.51156375980645,131.10844947221085 139.3855293867964,130.90951245946235 139.4284956503252,130.5679377271099 139.1964778272959,130.26014117585328 139.1878845745814,129.84723750412195 138.64937407172692,129.45309591806654 138.56917037980747,129.34048291269028 138.68661150010303,129.02141001865857 138.6694249946886,128.89753357937843 138.59781455548364,128.85248745162608 138.33428813920182,128.95384112669853 137.90176108635205,128.96510262117772 137.57235306600342,128.49586945303963 136.96509654147667,127.955302094746 136.26904307234508,127.01303564417503 135.57298960322805,126.38984419846929 135.39539571397472,125.89428345610213 134.4472734988376,125.39871304064582 134.30691703797493,124.95944935789339 134.163696159565,124.74544634884842 133.7769997878204,124.36999811462374 133.2098451092752,124.02833539589119 132.61977509017743,123.42384393634165 132.37343517929548,122.46639011911248 132.1929768724658,122.41757778055398 131.63727986421145,122.39504897724873 131.57426267769188,122.44010656385944 131.51983874390135,122.90569694235091 131.43104179928196,124.27988971217565 131.3136006789864,124.6590937466608 130.77795459367917,125.57141291993685 129.56057712709298,127.36592040259711 128.65542117548466,128.5033772519855 128.1741990239825,128.89753357937843 127.96223212392943,129.14528585363223 127.12295777637337,130.61298081193127 125.55325694887142,134.39256174043294 125.47878209209011,134.67779030664315 125.43295141099952,135.45464660737707 125.0491194568167,136.65553713352347 124.51060895394767,137.5786831315254 123.64841926586814,137.42858037500082 122.40526204116759,137.316002725589 121.0246127731807,137.41357005056852 119.07967324422498,137.14338269420477 118.8992149374244,137.29723973551881 118.80755357522867,137.3084975312122 117.97400806281075,137.14338269420477 117.71334606409073,136.95199824481824 115.78272862295853,136.64052635231928 113.46255039253447,135.4659052196821 111.52047528112598,135.11313299590256 111.28845745809667,135.16567385036797 110.57235306598886,135.03807444385347 110.28877572671627,135.07185081972239 108.65892213028565,135.68357074351843 107.72225758541026,135.8486950691713 107.38139189475623,135.96127922125015 107.21525567579374,135.91249281661112 106.6423721621104,136.01006553219668 106.30723530660907,136.22397363569326 105.66274135370622,136.37783624547592 105.37629959687183,136.16017667051347 105.38775726713357,136.12264896909983 105.33333333332848,136.20520983903953 105.36770634415734,136.14141282673336" stroke="yellow" stroke-linecap="round" stroke-linejoin="round" stroke-width="0.5"><title>2025-04-06 31.5km</title><desc>1743926920000</desc></polyline><polyline fill="none" points="152.89578454331786,135.2553303918212 153.13553864168352,135.47624189587077 153.74414519905986,135.32781720931416 153.973360655742,135.16213272460664 154.54244730679784,135.05857932504296 154.75322014052654,135.0965489581631 155.83079625292157,134.86873023382395 157.37997658079257,134.29917370425028 157.5644028102979,134.27155848930124 158.2652224824269,134.37166348820756 158.47862997658376,134.32678888656483 160.2965456674574,134.6754277559994 162.38583138171816,135.72476484137587 164.15105386417417,135.99744669866413 164.29069086651725,136.14241550440238 164.42505854801857,136.201093098638 165.24443793910905,136.3253510471077 165.4815573770611,136.18038337632424 167.25468384074338,136.43580200212818 168.44291569087363,136.33570584630797 170.4294496486982,136.57386496173604 170.9089578454441,135.8110569125438 171.32259953163157,134.65816852842727 171.90222482435638,133.69163143523292 173.14051522249065,130.80558987563563 173.86768149882846,129.37969851362323 174.2470725995372,128.2955485241837 175.16393442623666,127.09394770000108 176.24414519905986,125.48826388717316 176.72365339577664,124.65257400442533 176.79742388757586,124.43846682493131 176.95550351288693,122.70136341844045 177.0240046838444,122.62883740405596 177.51932084308646,122.65301276721766 177.6615925058577,122.70827064615332 177.91978922716225,123.62691372395784 178.37822014051198,124.10348875070667 178.95521077283775,124.44537353877422 179.32933255269018,124.8217863541704 179.42944964871276,124.96337125558603 179.56908665105584,125.40884010180889 180.44642857142026,125.84739415299373 180.57025761123805,126.27903379875715 181.22892271663295,126.86605091390993 181.85070257612097,127.71547308630034 182.42769320843217,128.22303988234125 182.74385245901067,128.6615410900631 182.82552693209436,128.69952112221654 183.18911007026327,128.65118288875965 183.3498243559734,128.58212809599536 183.44467213115422,128.61320277800587 183.4525761124096,128.73404837056842 183.35772833724332,129.03443327764398 183.94262295082444,129.51089796510314 183.91891100701469,129.81817800668068 184.15603044496675,130.17724169760186 184.10333723653457,130.4637981829892 184.1771077283338,130.60189643870945 184.5881147540931,130.89535252129645 185.75,131.54439523355904 185.879098360645,131.85164852629168 185.8527517564362,132.25210742602758 185.90281030445476,132.383290745287 186.3006440281024,132.49030817065977 186.4112997658085,132.56280356737443 186.4244730679202,132.71469795482153 186.18471896956908,133.16692312486157 186.19262295082444,133.31190949413576 186.35333723653457,133.36369012224714 186.75907494145213,133.06681296378338 186.8987119437952,133.1047858339989 186.92242388757586,134.25775086958674 186.9856557377061,134.45796055680148 187.1490046838444,134.58222777562514 187.86826697892684,134.72030168803394 188.0,134.84111569205197 187.98946135831648,137.00185495260848 187.8735362997686,136.9845974433465 187.54420374706388,136.74299097556104 187.022540983613,136.59112277431814 186.77751756440557,136.64634768897668 184.9411592505785,137.35735680775178 183.51053864169808,137.37116259594404 183.48682669790287,137.3297452068964 183.7134074941423,136.83618233765264 184.10860655737633,136.42544724726758 184.10597189696273,135.85592866361003 184.43266978922475,135.26223390793712 184.5986533957912,135.06548289929378 184.5986533957912,134.95502546651733 184.54332552693086,134.87908567857266 184.25351288056117,134.59258334735568 183.99795081968477,134.50973864497428 183.73975409836567,134.50973864497428 183.05737704917556,134.06789527099863 182.85450819671678,133.9885006541117 182.66217798594153,133.8262586414694 182.0746487119468,133.66401550215596 181.89285714285506,133.38785437609658 182.04566744730982,133.16001898958348 182.0140515222447,133.01157958784097 181.71896955503325,133.0046754066734 181.5714285714348,132.82516597993708 181.15251756439102,132.7285064865373 180.96809133488568,132.71124582062112 180.6334894613683,132.79064477820612 180.4227166276396,132.7216022217035 180.254098360645,132.81135750536487 180.0986533957912,133.41201860494766 179.84309133490024,133.8538743827594 179.86680327869544,134.1162222970197 179.81674473069143,134.1956164798812 179.7377049180359,134.19906839476062 179.32933255269018,133.75031518461037 179.00263466042816,133.55355144345776 178.91569086651725,133.43273078120546 178.84455503513163,133.2704849090078 178.88407494146668,132.59387295425404 178.82347775176459,132.48340383542745 178.33606557376334,132.421264726534 177.41920374707843,132.50066466968565 176.60509367681516,132.00009529845738 176.51288056204794,131.81367361909543 176.41539812646806,131.03344822569125 176.82640515222738,130.12545400588897 176.83430913348275,129.9666377020203 175.82786885245878,128.39222636312843 174.91627634660108,127.53937590616442 174.63700234191492,127.35291862110535 174.80825526932313,127.43233579489424 174.76346604214632,127.56009329039625 174.25497658079257,128.2333982735363 173.6279274004628,128.79619728899706 172.67944964871276,130.49487036171195 171.37265807963558,133.6778234727699 171.24882903980324,134.75136820587613 170.89578454331786,135.81450858875542 170.3846604215505,136.6118321326121 169.8050351287966,136.4772209756611 168.59309133490024,136.3564154309679 167.26785714285506,136.43925358605884 165.4604800936795,136.17693175414206 165.23389929742552,136.33570584630797 164.41978922716225,136.19073823977487 164.15105386417417,135.990543399761 162.42008196721144,135.7282165303477 160.27019906323403,134.64781298576418 158.5840163934481,134.33369267704438 158.41539812646806,134.31643319702562 158.2783957845386,134.36130781855354 157.59074941452127,134.24739514944486 157.33782201404392,134.28191419873474 155.87558548008383,134.8307602304667 155.05884074940695,134.97228447481393 154.69525761123805,135.09309717588621 154.51083138173271,135.04477217042404 154.0181498829188,135.13451852960316 153.68354800935776,135.33817245060527 153.08021077283775,135.4624349880487 152.89841920376057,135.2553303918212 152.92740046838298,134.58913149062755 152.38729508197866,134.39237481373857 152.05269320841762,133.94707726862725 152.0,133.7882869438945 152.21867681498406,133.77447903857137 152.26873536300263,133.71579534988268 152.21604215457046,133.67437148088538" stroke="yellow" stroke-linecap="round" stroke-linejoin="round" stroke-width="0.5"><title>2025-04-05 35.9km</title><desc>1743843004000</desc></polyline><polyline fill="none" points="36.86927389539778,167.4286078987643 34.4159617908299,173.21432175906375 29.018675157800317,160.35716940369457 27.546687895432115,179.6428836886771 33.43463695049286,166.14289266522974 35.887949055060744,177.71431610779837 28.037350315600634,179.00002792431042 32.45331210643053,160.35716940369457 24.60271336697042,160.35716940369457 39.81324842385948,184.14287138869986 27.546687895432115,168.07146537536755 35.39728663302958,173.85717837931588 27.546687895432115,178.35717206215486 33.92529936879873,162.28574467916042 34.906624210998416,170.64289432717487 24.112050944939256,171.92860823264346 31.96264968626201,175.7857476696372 30.0,187.35714546963573 33.92529936879873,171.92860823264346 34.4159617908299,180.92859493382275 25.584038207307458,167.4286078987643 34.906624210998416,179.00002792431042 28.037350315600634,173.85717837931588 28.037350315600634,179.6428836886771 26.074700631201267,170.00003723194823 37.85059873946011,170.00003723194823 28.037350315600634,152.0 34.4159617908299,181.57145041553304 32.45331210643053,162.92860291339457 33.43463695049286,179.00002792431042 19.696089152246714,170.64289432717487 31.471987264230847,177.07146005611867 29.018675157800317,168.07146537536755 34.906624210998416,177.07146005611867 35.887949055060744,164.85717704892159 31.471987264230847,180.28573935851455 26.074700631201267,174.50003490503877 30.0,186.07143612066284 23.130726102739573,182.21430580224842 29.50933757983148,168.71432275511324 32.45331210643053,181.57145041553304 29.50933757983148,169.3571800403297 39.81324842385948,174.50003490503877 33.92529936879873,164.85717704892159 28.528012735769153,177.71431610779837 25.09337578713894,167.4286078987643 31.96264968626201,174.50003490503877 39.81324842385948,160.35716940369457 30.49066242016852,168.71432275511324 31.471987264230847,188.0 30.49066242016852,166.78575032949448 40.30391084589064,178.35717206215486 34.4159617908299,165.50003490550444 32.45331210643053,180.92859493382275 24.112050944939256,168.07146537536755 32.94397452659905,158.42859327280894 33.43463695049286,182.8571610939689 27.546687895432115,173.85717837931588 31.471987264230847,164.21431909874082 30.0,179.6428836886771 37.85059873946011,171.92860823264346 30.0,182.8571610939689 27.546687895432115,167.4286078987643 39.81324842385948,180.92859493382275 28.037350315600634,173.21432175906375 30.0,186.7142908424139 33.43463695049286,172.57146504241973 25.584038207307458,172.57146504241973 27.056025471538305,180.28573935851455 33.92529936879873,170.64289432717487 25.09337578713894,168.71432275511324 30.981324840337038,182.8571610939689 29.018675157800317,170.64289432717487 33.92529936879873,175.7857476696372 27.056025471538305,184.14287138869986 26.074700631201267,164.85717704892159 33.43463695049286,177.07146005611867" stroke="#4DD2FF" stroke-linecap="round" stroke-linejoin="round" stroke-width="0.5"><title>2025-04-04 1.7km</title><desc>1743771861000</desc></polyline><polyline fill="none" points="83.32776254229248,152.0 75.33444749191403,154.18184316472616 71.00473517272621,160.29098687530495 72.17042695078999,183.85459016391542 77.166248857975,187.34546237858012 80.8298515882343,186.25456569774542 83.66081733535975,181.01825041428674 82.99470774736255,158.98188677895814 75.33444749191403,155.49094751640223 69.33946120459586,163.5637320377864 71.33778996672481,183.41823055769783 73.16959133278579,186.4727450988721 80.16374200116843,186.69092446670402 84.16039952635765,181.45461073040497 81.66248857229948,160.07280360651202 76.16708447597921,155.27276353805792 69.83904339466244,161.1637196277734 71.00473517272621,184.07276991941035 80.49679679516703,186.4727450988721 84.8265091124922,180.58188996906392 81.99554336629808,158.32733629574068 76.16708447597921,155.27276353805792 71.00473517272621,157.8909691462759 70.17209818866104,181.6727908399189 75.50097488798201,187.34546237858012 84.32692692242563,182.98187082156073 83.66081733535975,161.1637196277734 76.33361187204719,155.49094751640223 68.50682422053069,161.8182688539382 69.33946120459586,179.27280785981566 74.33528311084956,187.1272831070237 81.3294337792322,186.036386265303 84.8265091124922,180.36370969796553 83.49428993836045,161.6000858108746 75.50097488798201,155.27276353805792 68.83987901359797,162.0364518649876 71.00473517272621,184.94548861775547 80.663324191235,186.036386265303 84.8265091124922,179.27280785981566 81.4959611762315,159.41825360700022 73.50264612585306,156.36368310532998 68.83987901359797,162.2546348439064 70.67168037872761,183.85459016391542 78.16541323903948,187.34546237858012 83.66081733535975,183.85459016391542 84.8265091124922,179.27280785981566 82.32859816029668,158.5455198227428 73.50264612585306,155.7091314616846 69.33946120459586,162.9091835861327 70.33862558566034,182.32733097556047 75.16792009491473,187.34546237858012 84.32692692242563,182.32733097556047 83.66081733535975,160.29098687530495 75.33444749191403,155.49094751640223 68.83987901359797,160.94553648820147 70.33862558566034,184.07276991941035 73.50264612585306,187.1272831070237 80.9963789852336,186.4727450988721 84.49345431942493,180.14552939496934 83.66081733535975,160.50917011196725 78.66499542910606,155.27276353805792 71.33778996672481,156.80005070671905 68.83987901359797,160.50917011196725 71.17126257065684,185.60002730274573 78.66499542910606,188.0 84.65998171642423,182.5455109566683 84.16039952635765,166.18192294659093" stroke="#4DD2FF" stroke-linecap="round" stroke-linejoin="round" stroke-width="0.5"><title>2025-04-02 4.0km</title><desc>1743590878000</desc></polyline><polyline fill="none" points="117.99543372076005,160.02555003669113 115.02021098602563,160.02555003669113 114.67018478177488,177.22301750944462 119.39553853683174,186.39492224424612 130.24635086301714,181.80897665210068 129.54629845544696,167.82175890379585 132.17149498593062,166.67526005604304 127.79616743512452,154.75162183039356 115.54525029286742,156.586033673957 115.54525029286742,178.14021042198874 119.39553853683174,185.47773420985322 128.84624604694545,182.49686935462523 129.37128535378724,161.17205379600637 124.8209447003901,153.14650968881324 115.02021098602563,158.19114225823432 114.67018478177488,177.6816140334122 119.04551233258098,185.2484371169703 124.8209447003901,186.39492224424612 130.07133776228875,181.57967901730444 129.8963246596977,159.56694829533808 121.67070886399597,152.917207818944 115.89527649618685,157.04463629599195 115.37023719027638,178.82810475083534 122.0207350673154,185.93632829515263 126.04603641480207,185.47773420985322 130.7713901689276,179.05740279285237 129.8963246596977,158.42044334928505 123.59585298597813,152.917207818944 115.54525029286742,155.89812948706094 115.89527649618685,180.8917859076755 123.42083988431841,186.62421916797757 129.72131155710667,180.20389249373693 130.5963770672679,157.5032387826359 122.7207874758169,152.45860397734214 115.54525029286742,159.56694829533808 116.42031580209732,180.43319033202715 123.59585298597813,186.62421916797757 129.37128535378724,183.64335651532747 131.47144257836044,177.6816140334122 129.37128535378724,156.81533500226215 123.24582678172737,152.45860397734214 116.07028959784657,157.27393755677622 116.2453027004376,179.97459462156985 121.67070886399597,186.1656252866378 129.54629845544696,182.72616685472894 130.7713901689276,158.42044334928505 123.07081368006766,152.68790591543075 114.49517168011516,158.19114225823432 115.72026339452714,182.26757182134315 122.7207874758169,187.54140652553178 130.24635086301714,182.26757182134315 129.72131155710667,157.04463629599195 122.7207874758169,152.917207818944 115.02021098602563,157.9618411338888 116.7703420072794,183.64335651532747 122.37076127156615,187.3121097368421 127.97118053771555,186.85351605829783 130.42136396560818,182.49686935462523 130.07133776228875,158.42044334928505 122.54577437415719,152.0 115.37023719027638,158.19114225823432 117.99543372076005,183.4140591508476 120.445617149584,186.62421916797757 129.37128535378724,188.0 131.47144257836044,160.02555003669113" stroke="#4DD2FF" stroke-linecap="round" stroke-linejoin="round" stroke-width="0.5"><title>2025-03-30 4.0km</title><desc>1743343343000</desc></polyline><polyline fill="none" points="178.05654509179294,156.88893945061136 176.19081886019558,158.88895555469207 171.95053196977824,155.11114512523636 173.98586967680603,156.88893945061136 174.15548115316778,154.22224717505742 168.72791393194348,152.0 162.96112376172096,154.66669621597975 160.75617457926273,176.22231705696322 163.46995818894356,184.66670286364388 171.2720860671252,188.0 178.05654509179294,183.33338194037788 179.41343689709902,177.55564428295474 179.58304837252945,172.00010637566447 175.00353853031993,155.33336953085382 166.692576225847,153.33334869891405 160.41695162840188,161.77786301041488 164.31801556702703,184.44448279123753 172.12014344614,187.11112148559187 178.3957680426538,181.11117777589243 177.03887623734772,156.66671527468134 168.55830245744437,153.11112399830017 161.94345490913838,159.77785074769054 164.1484040915966,183.77782237925567 172.7985893478617,186.44446225487627 177.8869336163625,181.11117777589243 177.03887623734772,155.7778182439506 167.03179917670786,153.7777980028186 162.28267785999924,159.77785074769054 163.13073523715138,180.44451588590164 168.04946803022176,186.22224244626705 173.8162582013756,186.22224244626705 178.73499099444598,181.11117777589243 177.20848771370947,157.11116359382868 166.692576225847,154.22224717505742 160.92578605562449,160.6667454149574 163.46995818894356,181.55561887170188 171.61130901798606,186.44446225487627 178.56537951808423,180.2222951905569 177.8869336163625,159.33340321690775 170.59364016540349,154.44447171175852 166.52296474948525,154.66669621597975 162.6219008108601,160.00007446401287 164.48762704245746,183.55560217646416 173.8162582013756,186.88890177547 178.05654509179294,180.88895717915148 176.19081886019558,156.44449106638785 170.25441721267998,152.88889926392585 162.96112376172096,158.22228381584864 163.97879261616617,181.11117777589243 168.89752540830523,186.88890177547 173.98586967680603,186.22224244626705 177.8869336163625,181.33339833980426 177.54771066457033,158.6667316746898 170.25441721267998,153.55557336693164 162.96112376172096,159.1111794023309 162.96112376172096,180.0000744619174 167.2014106521383,185.7778027295135 172.2897549206391,186.88890177547 177.71732214093208,182.22228026844095 176.86926476284862,159.55562699853908 169.7455827863887,153.7777980028186 162.28267785999924,159.77785074769054 163.13073523715138,182.66672103572637 169.7455827863887,187.33334116323385 177.71732214093208,181.11117777589243 176.53004181105644,156.66671527468134 169.40635983552784,153.11112399830017 161.60423195641488,161.55563955719117 163.13073523715138,182.22228026844095 171.95053196977824,187.11112148559187 177.8869336163625,178.88897032791283 176.69965328648686,157.5556117813103 169.06713688466698,153.7777980028186 162.45228933542967,160.88896899926476 163.639569664374,182.66672103572637 168.72791393194348,187.33334116323385 177.03887623734772,183.55560217646416" stroke="#4DD2FF" stroke-linecap="round" stroke-linejoin="round" stroke-width="0.5"><title>2025-03-30 4.5km</title><desc>1743327729000</desc></polyline><polyline fill="none" points="35.84771573590115,193.41971751028905 35.93908629426733,194.61687433358748 29.90862944163382,197.84918892075075 26.984771573450416,197.96890402794816 29.360406091436744,205.63063411333133 22.598984771873802,206.1094898377778 22.96446700533852,209.94032544834772 17.75634517800063,207.66576898901258 13.553299492690712,208.98261824360816 12.0,213.53171738353558 12.913705583661795,224.78464236855507 16.659898477140814,227.17886156454915 20.95431472128257,224.78464236855507 22.87309644650668,206.4686314459541 27.258883249014616,205.98977593320888 31.005076142027974,206.82777289458318 39.22842639591545,216.04568226705305 40.96446700533852,216.28510708693648 42.79187817266211,212.45430147426669 48.0,216.88366882811533 46.53807106614113,223.228396097722 46.26395939057693,215.68654490390327 41.5126903555356,213.0528660453856 40.050761421211064,216.04568226705305 37.949238578788936,214.48941921128426 27.350253807380795,198.20833418983966 35.57360406126827,195.45488305727486 34.20304568530992,192.82113843545085" stroke="#4DD2FF" stroke-linecap="round" stroke-linejoin="round" stroke-width="0.5"><title>2025-03-29 1.5km</title><desc>1743247652000</desc></polyline><polyline fill="none" points="67.63836390746292,218.37714073283132 68.24838436406571,219.01654664808302 67.90677290828899,218.47305174065696 67.54076063435059,218.85669534644694 67.76036799885333,219.75186111481162 69.12681382172741,221.82991022861097 70.7616686456604,223.26854792442464 71.34728828421794,221.9577895222028 71.00567682844121,221.31839229830075 71.51809401193168,221.82991022861097 71.20088337454945,223.71612214576453 72.66493247065227,224.80308425755356 77.86230676167179,225.63428689427383 81.59563195658848,228.0 85.86577515362296,227.1048683529807 86.71980379289016,225.76216393953655 86.1829857910052,206.45187417141278 85.49976287956815,205.07706928388507 83.96251132863108,203.92606312465796 81.9616442307597,202.74307819140085 79.71676895010751,203.3505577488395 78.27712067228276,201.40022259052785 76.25185275601689,194.84568872128148 77.1058813954005,194.4939764122537 77.66710021544714,196.06069048054633 79.22875258466229,196.31647945508303 79.78997140482534,195.29332174221054 79.13114931154996,192.19184536012472 77.76470348855946,192.0 76.78867075778544,192.63948387214623 75.30022084363736,192.73540628993942 73.68976683786605,193.72660211673065 69.4928260956658,194.23818528278207 66.93074017763138,195.32529549402534 67.58956227079034,198.71448638438596 66.6623311766889,201.1764125134505 66.61352954024915,207.82667032310565 66.9063393593533,214.47672373245587 67.662764725741,217.60985114048526" stroke="#4DD2FF" stroke-linecap="round" stroke-linejoin="round" stroke-width="0.5"><title>2025-03-25 3.9km</title><desc>1742910133000</desc></polyline><polyline fill="none" points="129.0577028747648,192.0 117.03652683738619,202.31260436901357 116.32098064571619,206.62512316391803 120.04182084742934,226.31252281251363 124.90753495693207,227.06251295050606 129.63013982772827,223.50005584664177 128.05593820475042,204.75011679320596 125.33686267305166,200.81259439594578 119.18316541612148,201.1875970554538 117.03652683738619,209.06262730562594 118.89694693963975,225.56253223086242 125.0506441956386,227.25001041567884 129.20081211254,223.6875538387103 128.6283751586452,203.6251116405474 121.90224094782025,199.5000842155423 117.60896379221231,202.87510765134357 117.17963607702404,223.3125578276813 123.47644257172942,227.06251295050606 128.91459363605827,224.06254973821342 129.0577028747648,206.81262364948634 127.62661048863083,201.9376020419877 123.61955181043595,199.6875857532723 120.18493008520454,199.6875857532723 116.4640898834914,204.56261600344442 117.32274531479925,223.3125578276813 122.33156866300851,227.43750785302836 129.0577028747648,224.06254973821342 128.34215668216348,203.81261256861035 122.7608963791281,199.5000842155423 116.32098064571619,205.87512094830163 116.75030836090446,223.3125578276813 123.90577028691769,227.06251295050606 129.34392135124654,222.00007091695443 129.0577028747648,204.18761434138287 124.04887952562422,199.12508105742745 117.32274531479925,202.87510765134357 116.4640898834914,222.00007091695443 120.4711485626176,227.25001041567884 123.61955181043595,227.43750785302836 129.34392135124654,221.62507440743502 128.34215668216348,202.31260436901357 121.90224094782025,199.31258265057113 116.75030836090446,206.25012211152352 117.46585455350578,224.06254973821342 120.75736704003066,227.06251295050606 125.0506441956386,226.68751793680713 129.77324906736612,221.25007778697181 128.05593820475042,202.31260436901357 121.0435855165124,200.0625887446804 116.75030836090446,206.62512316391803 118.46761922352016,225.37503451644443 123.90577028691769,227.6250052631367 129.34392135124654,224.25004764692858 129.34392135124654,207.00012410641648 128.77148439642042,203.06260869046673 123.90577028691769,199.12508105742745 117.32274531479925,201.75010083708912 117.03652683738619,223.6875538387103 122.9040056169033,227.06251295050606 126.91106429602951,226.31252281251363 129.91635830514133,222.3750673151808 128.77148439642042,203.6251116405474 124.33509800210595,199.31258265057113 118.46761922352016,200.81259439594578 116.4640898834914,204.18761434138287 116.89341759867966,222.00007091695443 123.47644257172942,228.0 129.77324906736612,225.56253223086242 130.3456860203296,206.06262154399883" stroke="#4DD2FF" stroke-linecap="round" stroke-linejoin="round" stroke-width="0.5"><title>2025-03-24 4.1km</title><desc>1742817301000</desc></polyline><polyline fill="none" points="170.08921121712774,194.57145573501475 167.05602982267737,192.46753771742806 162.5954689476639,196.67537095607258 163.1307362532243,219.81825374194887 169.55394391342998,227.5324727811385 177.9397983578965,221.6883709024405 177.58295348845422,198.07797954848502 172.76554774306715,192.7013065238716 162.4170465124771,195.97406619309913 163.1307362532243,220.51954793580808 168.48340930230916,227.06494542537257 172.40870287269354,227.29870912083425 177.9397983578965,222.15589984657709 177.0476861828938,197.84421153645962 169.73236634768546,192.23376887559425 162.23862407822162,199.0130512531614 162.5954689476639,219.11695923667867 169.01867660786957,228.0 177.58295348845422,223.32472160388716 178.1182207930833,198.54551546974108 168.30498686805367,192.0 163.4875811226666,196.20783448161092 162.5954689476639,219.58448894124012 170.80290095787495,228.0 177.58295348845422,223.09095732169226 177.40453105326742,196.67537095607258 168.30498686805367,192.0 162.9523138180375,199.0130512531614 163.30915868841112,223.55848585197236 169.73236634768546,228.0 178.47506566345692,223.09095732169226 176.869263747707,196.67537095607258 171.15974582731724,192.0 163.1307362532243,198.07797954848502 163.4875811226666,221.6883709024405 169.37552147824317,227.5324727811385 177.9397983578965,223.55848585197236 177.0476861828938,199.71435466932599 168.30498686805367,192.0 161.34651190321892,199.0130512531614 162.7738913828507,220.28578323929105 167.23445225786418,227.06494542537257 177.2261086171493,223.55848585197236 177.7613759227097,197.84421153645962 171.51659069769084,192.23376887559425 161.881779207848,198.07797954848502 162.4170465124771,220.052018507733 169.55394391342998,227.06494542537257 173.65765991806984,226.8311816956848 178.6534880977124,220.75331259786617 177.9397983578965,198.77928337897174 175.08503939770162,193.87015003990382 168.66183173749596,192.23376887559425 162.4170465124771,200.18189010652713 163.30915868841112,220.987077225931 168.30498686805367,227.29870912083425 177.58295348845422,223.09095732169226 177.7613759227097,198.07797954848502 174.54977209307253,193.40261273703072 167.23445225786418,192.23376887559425 162.7738913828507,198.77928337897174 163.30915868841112,222.15589984657709 168.66183173749596,228.0 178.1182207930833,223.09095732169226 178.6534880977124,198.77928337897174 172.40870287269354,228.0" stroke="#4DD2FF" stroke-linecap="round" stroke-linejoin="round" stroke-width="0.5"><title>2025-03-23 4.2km</title><desc>1742719228000</desc></polyline><polyline fill="none" points="25.22502821404487,232.0 22.0417136894539,236.1707763823215 23.717142386361957,263.8293129665544 31.92674300260842,266.68294220173266 38.79600066039711,258.3415490334155 37.28811483364552,240.78056823613588 26.73291404172778,234.634175919462 21.874170820228755,242.75618893746287 23.2145137777552,263.1707823650213 29.07851421739906,266.9024519157829 37.28811483364552,261.8537202856969 36.45040048472583,239.4634863086976 27.57062838971615,233.97563237708528 21.874170820228755,239.68300004443154 22.711885168217123,262.292741109035 29.748685696162283,267.78049044741783 34.2723431782797,266.46343245508615 37.45565770287067,261.1951888083713 36.95302909333259,241.2195952855982 27.738171259872615,234.19514692388475 24.219770995900035,235.07320478535257 21.539085080847144,243.19521540403366 23.382056647911668,263.60980279848445 33.602171699516475,266.68294220173266 39.801257878541946,263.1707823650213 37.623200573027134,240.34154105675407 26.73291404172778,234.85369036893826 21.371542210690677,243.41472858807538 22.0417136894539,261.4146993330214 27.067999781109393,267.1219615973532 36.11531474534422,267.3414712463273 37.120571963489056,264.92686332121957 37.95828631147742,242.53667565598153 33.267085960134864,235.731747840764 28.24079986847937,234.634175919462 22.376799429766834,239.2439725410659 22.0417136894539,263.3902925977018 31.59165726415813,267.3414712463273 37.623200573027134,260.53665703942534 36.45040048472583,239.2439725410659 30.418857174925506,234.41466143820435 24.554856735281646,234.41466143820435 20.198742122389376,247.14644775819033 24.052228125743568,264.92686332121957 31.08902865368873,266.46343245508615 38.79600066039711,260.0976356975734 35.94777187611908,237.92688925145194 26.230285433121026,234.85369036893826 23.382056647911668,236.39029060467146 21.371542210690677,251.97571747808252 24.722399605438113,266.46343245508615 32.93200022075325,267.1219615973532 37.623200573027134,259.87812497792765 35.11005752719939,238.1464032138465 29.413599956780672,232.878059159033 22.209256558679044,237.26834716903977 22.376799429766834,262.95127209986094 28.910971347242594,268.0 38.12582918163389,262.51225147151854 36.45040048472583,238.58543104177807 28.74342847801745,232.878059159033 21.874170820228755,238.3659171438776 22.0417136894539,261.1951888083713 29.748685696162283,267.56098086340353 37.120571963489056,263.60980279848445 36.45040048472583,241.2195952855982" stroke="#4DD2FF" stroke-linecap="round" stroke-linejoin="round" stroke-width="0.5"><title>2025-03-21 4.2km</title><desc>1742565279000</desc></polyline><polyline fill="none" points="78.44123800378293,233.80003031750675 73.63272212259471,232.0 72.25886044185609,233.65002791257575 71.45744112785906,250.15015955013223 77.75430716341361,253.1501546743093 82.56282304460183,248.20015796588268 79.8150996840559,233.3500230370555 74.09067601524293,233.0500180728268 70.65602181479335,236.95007569319569 73.74721059529111,252.10015738906804 77.86879563657567,253.75015263538808 81.76140373153612,250.9001591624692 81.6469152579084,235.75005955935922 76.72391090309247,232.7500130198896 72.83130280859768,233.20002056611702 70.77051028748974,237.10007760988083 72.37334891501814,251.20015885180328 77.0673763230443,254.35015024163295 81.07447289070114,251.80015796527732 81.76140373153612,236.35006780351978 77.98328410973772,233.3500230370555 71.45744112785906,234.40003971371334 71.22846418153495,248.35015822085552 73.63272212259471,253.1501546743093 76.38044548267499,253.9001520703314 81.07447289070114,251.35015866381582 81.53242678428069,235.6000574431382 80.27305357763544,233.50002548575867 75.23556074965745,232.90001555765048 71.91539502190426,235.15005096106324 70.88499876111746,244.75014598818962 74.54862990928814,253.60015317809302 80.73100747121498,252.40015672438312 81.99038067786023,236.65007179265376 81.53242678428069,234.40003971371334 75.12107227602974,233.0500180728268 71.80090654827654,235.90006165369414 73.28925670171157,251.0501590182539 75.23556074965745,253.60015317809302 81.07447289070114,253.00015512865502 81.6469152579084,240.55011558323167 75.92249158909544,249.10015916253906 74.3196529620327,254.65014891175088 75.35004922235385,268.0 80.84549594437703,266.3500279117143 82.10486915148795,255.55014439101797 80.27305357763544,234.70004427887034 74.6631183824502,232.30000527447555 70.65602181479335,235.6000574431382 71.45744112785906,248.65015866374597 76.72391090309247,254.05015148292296 81.53242678428069,250.9001591624692 82.10486915148795,236.50006980914623 76.26595700951293,232.15000264858827 71.91539502190426,234.70004427887034 71.57192960148677,250.30015951674432 76.03698006272316,253.75015263538808 81.41793831111863,250.45015946147032 81.87589220423251,235.75005955935922 76.60942242993042,232.15000264858827 72.71681433543563,234.55004200723488 72.4878373881802,252.40015672438312 75.35004922235385,254.80014821409713 78.89919189643115,254.35015024163295 80.73100747121498,251.65015822008718 82.67731151822954,237.55008322768845" stroke="#4DD2FF" stroke-linecap="round" stroke-linejoin="round" stroke-width="0.5"><title>2025-03-10 4.0km</title><desc>1741591515000</desc></polyline><polyline fill="none" points="132.75654993858188,238.92314136272762 123.2452658880502,232.9230872882763 115.84760051593184,238.2308286074549 116.02373540494591,262.92312717915047 121.48391698952764,267.7692334119929 130.99520104005933,262.0000576203456 130.46679637022316,240.07699527335353 125.5350194554776,233.8461740303319 115.49533073604107,238.00005762127694 115.31919584516436,262.69235984014813 119.89870298095047,266.8461667174706 131.17133593000472,262.69235984014813 131.69974059984088,240.3077659533592 124.47821011673659,233.3846307278145 116.02373540494591,238.00005762127694 116.55214007478207,262.92312717915047 122.36459143925458,267.5384667891776 128.52931258268654,266.1538663385436 131.52360570896417,261.53852263628505 131.52360570896417,241.4616188404616 124.65434500668198,233.61540239606984 115.67146562598646,238.6923704787623 116.02373540494591,260.61545225942973 122.54072632826865,267.7692334119929 131.3474708199501,262.2308250613278 130.64293126016855,237.76928660005797 120.95551231969148,233.3846307278145 116.02373540494591,237.76928660005797 116.55214007478207,263.84619619173463 123.42140077799559,267.5384667891776 131.3474708199501,262.0000576203456 131.17133593000472,241.00007778790314 125.18274967651814,233.3846307278145 118.6657587531954,234.07694563106634 115.1430609561503,238.2308286074549 115.49533073604107,261.76929014502093 122.1884565493092,267.3077001328347 131.17133593000472,262.0000576203456 129.938391700387,237.30774445610587 124.12594033684582,232.0 114.9669260662049,238.00005762127694 115.49533073604107,261.76929014502093 124.47821011673659,267.3077001328347 130.81906615104526,261.76929014502093 130.2906614812091,237.76928660005797 123.94980544690043,232.23077187302988 113.9101167274639,239.15391221328173 115.84760051593184,263.38466175319627 126.23955901525915,267.3077001328347 130.99520104005933,262.461592467851 130.1145265912637,236.61543098511174 120.95551231969148,233.153859024751 115.49533073604107,237.76928660005797 115.49533073604107,261.76929014502093 124.47821011673659,267.5384667891776 131.3474708199501,262.0000576203456 131.69974059984088,239.15391221328173 123.77367055788636,233.153859024751 115.1430609561503,239.846224559471 115.67146562598646,264.0769633599557 121.48391698952764,268.0 130.46679637022316,262.0000576203456 132.5804150486365,238.92314136272762" stroke="#4DD2FF" stroke-linecap="round" stroke-linejoin="round" stroke-width="0.5"><title>2025-03-09 4.1km</title><desc>1741514669000</desc></polyline><polyline fill="none" points="163.69532675296068,252.95899855392054 169.5295019969344,265.04112517938484 174.42268123384565,265.2876982818125 180.25685647781938,259.3699337783037 177.24566925503314,232.2465779837221 164.25992435682565,232.0 159.3667451199144,237.6712844077265 166.70651397574693,261.83567153767217 178.18666526209563,264.05483240727335 181.5742508880794,253.45214829174802 177.4338684566319,237.6712844077265 180.82145408261567,235.4520884566009 161.43693633563817,243.34254954278003 162.37793234270066,240.38363100716379 169.5295019969344,244.82200684351847 166.70651397574693,250.24667239165865 168.58850598987192,265.04112517938484 176.8692708518356,264.7945520414505 181.00965328328311,258.38363765436225 173.6698844274506,234.2192005419638 162.37793234270066,232.98631171614397 158.42574911285192,239.150746735977 164.4481235584244,253.2055734412279 164.0717251552269,261.34252427797765 173.48168522678316,267.7534272982739 178.75126286689192,258.1370635323692 175.74007564317435,237.1781300068833 165.57731876708567,232.2465779837221 158.9903467176482,237.6712844077265 163.31892834976315,263.31511244538706 174.61088043544441,268.0 179.3158604707569,260.8493768715998 178.18666526209563,233.72604512050748 165.76551796868443,232.98631171614397 162.75433074496686,244.32885455572978" stroke="#4DD2FF" stroke-linecap="round" stroke-linejoin="round" stroke-width="0.5"><title>2025-03-05 1.9km</title><desc>1741161630000</desc></polyline></svg>