<?xml version="1.0" encoding="utf-8" ?>
<svg baseProfile="full" height="300mm" version="1.1" viewBox="0,0,200,300" width="200mm" xmlns="http://www.w3.org/2000/svg" xmlns:ev="http://www.w3.org/2001/xml-events" xmlns:xlink="http://www.w3.org/1999/xlink"><defs /><rect fill="#222222" height="300" width="200" x="0" y="0" /><text fill="#FFFFFF" style="font-size:12px; font-family:Arial; font-weight:bold;" x="10" y="20">Over 10km Runs</text><text fill="#FFFFFF" style="font-size:4px; font-family:Arial" x="10" y="280">ATHLETE</text><text fill="#FFFFFF" style="font-size:9px; font-family:Arial" x="10" y="290">TXyy2025</text><text fill="#FFFFFF" style="font-size:4px; font-family:Arial" x="65" y="280">SPECIAL TRACKS</text><rect fill="yellow" height="2.6" width="2.6" x="65" y="283" /><text fill="#FFFFFF" style="font-size:3px; font-family:Arial" x="70" y="285.5">Over 20.0 km</text><rect fill="red" height="2.6" width="2.6" x="65" y="287" /><text fill="#FFFFFF" style="font-size:3px; font-family:Arial" x="70" y="289.5">Over 40.0 km</text><text fill="#FFFFFF" style="font-size:4px; font-family:Arial" x="120" y="280">STATISTICS</text><text fill="#FFFFFF" style="font-size:3px; font-family:Arial" x="120" y="285">Number: 9</text><text fill="#FFFFFF" style="font-size:3px; font-family:Arial" x="120" y="290">Weekly: 2.2</text><text fill="#FFFFFF" style="font-size:3px; font-family:Arial" x="141" y="285">Total: 32.3 km</text><text fill="#FFFFFF" style="font-size:3px; font-family:Arial" x="141" y="290">Avg: 3.6 km</text><text fill="#FFFFFF" style="font-size:3px; font-family:Arial" x="167" y="285">Min: 1.5 km</text><text fill="#FFFFFF" style="font-size:3px; font-family:Arial" x="167" y="290">Max: 4.5 km</text><polyline fill="none" points="52.08481763675809,40.33340917597525 49.28622828889638,43.3334333319217 42.9257979542017,37.66671768785454 45.97880451474339,40.33340917597525 46.23322172835469,36.333370762644336 38.09187089744955,33.0 29.44168564211577,37.00004432396963 26.134261867962778,69.33347558556125 30.204937282949686,82.00005429540761 41.90812909975648,87.0 52.08481763675809,80.00007291068323 54.120155344717205,71.33346642460674 54.37457255739719,63.00015956349671 47.505307795479894,38.00005429633893 35.03886433877051,35.00002304860391 25.62542744167149,47.66679451568052 31.477023350074887,81.66672418708913 43.180215168744326,85.666682228446 52.5936520639807,76.66676666401327 50.55831435602158,40.00007291208021 37.83745368570089,34.666685997508466 27.91518236324191,44.66677612159401 31.222606136463583,80.66673356899992 44.19788402039558,84.66669338243082 51.83040042407811,76.66676666401327 50.55831435602158,38.66672736592591 35.547698765061796,35.666697004111484 28.424016789533198,44.66677612159401 29.696102855727077,75.66677382891066 37.0742020457983,84.33336366945878 45.72438730113208,84.33336366945878 53.10248649120331,76.66676666401327 50.81273156963289,40.66674539074302 35.03886433877051,36.333370762644336 26.388679082505405,46.000118122436106 30.204937282949686,77.33342830766924 42.41696352697909,84.66669338243082 52.84806927666068,75.33344278600998 51.83040042407811,44.00010482547805 40.890460247173905,36.666707567637786 34.78444712422788,37.00004432396963 28.932851215824485,45.00011169607751 31.73144056275487,80.33340326463804 45.72438730113208,85.33335266332142 52.08481763675809,76.33343576872721 49.28622828889638,39.666736599523574 40.38162581901997,34.333348896121606 29.44168564211577,42.333425723947585 30.9681889237836,76.66676666401327 38.34628811199218,85.33335266332142 45.97880451474339,84.33336366945878 51.83040042407811,77.00009750970639 51.321565995924175,43.0000975120347 40.38162581901997,35.33336005057208 29.44168564211577,43.66676910361275 29.44168564211577,75.00011169281788 35.80211597774178,83.66670409427024 43.434632380492985,85.33335266332142 51.5759832104668,78.33342040260322 50.3038971433416,44.33344049798325 39.618374180048704,35.666697004111484 28.424016789533198,44.66677612159401 29.696102855727077,79.00008155358955 39.618374180048704,86.00001174490899 51.5759832104668,76.66676666401327 49.79506271611899,40.00007291208021 39.10953975189477,34.666685997508466 27.40634793508798,47.333459335844964 29.696102855727077,78.33342040260322 42.9257979542017,85.666682228446 51.83040042407811,73.33345549204387 50.049479929730296,41.333417671965435 38.60070532653481,35.666697004111484 28.67843400221318,46.33345349901356 30.45935449656099,79.00008155358955 38.09187089744955,86.00001174490899 50.55831435602158,80.33340326463804" stroke="#4DD2FF" stroke-linecap="round" stroke-linejoin="round" stroke-width="0.5"><title>2025-03-30 4.5km</title><desc>1743327729000</desc></polyline><polyline fill="none" points="108.77157360315323,35.12957626534626 108.90862944116816,36.925311500323005 99.86294416198507,41.77378338109702 95.4771573599428,41.953356041922234 99.04060913668945,53.445951170055196 88.89847715757787,54.16423475672491 89.44670050777495,59.910488172550686 81.63451776653528,56.49865348357707 75.32994923833758,58.47392736538313 73.0,65.29757607530337 74.37055837502703,82.1769635528326 79.98984771547839,85.76829234685283 86.43147208169103,82.1769635528326 89.30964466976002,54.702947168960236 95.88832487305626,53.98466389987152 101.50761421304196,55.24165934184566 113.84263959387317,69.06852340057958 116.44670050777495,69.42766063043382 119.18781725876033,63.681452211458236 127.0,70.3255032422021 124.80710659874603,79.8425941466121 124.39593908563256,68.5298173557967 117.26903553307056,64.5792990680784 115.07614213135093,69.06852340057958 111.92385786771774,66.7341288169846 96.02538071060553,42.31250128475949 108.36040609097108,38.182324585854076 106.30456852726638,34.23170765314717" stroke="#4DD2FF" stroke-linecap="round" stroke-linejoin="round" stroke-width="0.5"><title>2025-03-29 1.5km</title><desc>1743247652000</desc></polyline><polyline fill="none" points="146.457545861369,72.56571109921788 147.3725765463896,73.52481997210998 146.8601593626663,72.70957761097816 146.3111409517005,73.28504301965586 146.64055199851282,74.62779167221743 148.69022073294036,77.74486534291646 151.1425029686652,79.90282188664423 152.02093242644332,77.93668428331148 151.50851524295285,76.97758844745113 152.27714101830497,77.74486534291646 151.801325062057,80.5741832186468 153.99739870615304,82.2046263863158 161.79346014279872,83.45143034140347 167.39344793511555,87.0 173.79866273072548,85.65730252946378 175.07970568956807,83.64324590930482 174.27447868674062,54.67781125710462 173.24964431952685,52.61560392580577 170.94376699323766,50.88909468697966 167.94246634631418,49.114617287094006 164.57515342533588,50.02583662327379 162.41568100848235,47.100333885784494 159.37777913408354,37.268533081922214 160.6588220933918,36.74096461839508 161.50065032346174,39.09103572080494 163.84312887722626,39.474719182617264 164.68495710752904,37.939982613315806 163.69672396755777,33.28776804020163 161.64705523313023,33.0 160.183006136911,33.95922580821207 157.95033126557246,34.103109434916405 155.5346502570901,35.58990317507414 149.23923914390616,36.35727792416583 145.3961102666799,37.98794324102346 146.38434340641834,43.071729576564394 144.99349676514976,46.76461877016118 144.92029431043193,56.740005484665744 145.35950903920457,66.71508559866925 146.49414708884433,71.41477671073517" stroke="#4DD2FF" stroke-linecap="round" stroke-linejoin="round" stroke-width="0.5"><title>2025-03-25 3.9km</title><desc>1742910133000</desc></polyline><polyline fill="none" points="48.58655431307852,123.0 30.55479025747627,138.46890655346215 29.481470968574286,144.93768474587705 35.062731271609664,174.46878421877045 42.361302436329424,175.5937694257591 49.44520974252373,170.25008377002086 47.08390730712563,142.12517518980894 43.005294010043144,136.21889159397688 33.77474812511355,136.7813955831807 30.55479025747627,148.59394095849711 33.34542040992528,173.34379834623542 42.57596629392356,175.87501562351827 48.80121816974133,170.53133075812366 47.9425627393648,140.4376674608793 37.85336142219603,134.25012632331345 31.413445689715445,139.31266147701535 30.769454116001725,169.96883674152195 40.214663858525455,175.5937694257591 48.37189045455307,171.09382460743655 48.58655431307852,145.21893547428772 46.43991573434323,137.90640306309797 40.42932771611959,134.53137862996664 35.277395129203796,134.53137862996664 29.696134826168418,141.8439240050502 30.984117973595858,169.96883674152195 38.49735299590975,176.15626177960075 48.58655431307852,171.09382460743655 47.513235023245215,140.7189188528573 39.14134456962347,134.25012632331345 29.481470968574286,143.81268142233603 30.125462542288005,169.96883674152195 40.85865543130785,175.5937694257591 49.01588202826679,168.00010637543164 48.58655431307852,141.2814215120161 41.07331928983331,133.68762158614118 30.984117973595858,139.31266147701535 29.696134826168418,168.00010637543164 35.70672284439206,175.87501562351827 40.42932771611959,176.15626177960075 49.01588202826679,167.43761161109433 47.513235023245215,138.46890655346215 37.85336142219603,133.9688739759149 30.125462542288005,144.3751831672853 31.19878183118999,171.09382460743655 36.13605056051165,175.5937694257591 42.57596629392356,175.0312769053271 49.659873601049185,166.87511668039951 47.08390730712563,138.46890655346215 36.56537827569991,135.0938831169624 30.125462542288005,144.93768474587705 32.70142883528024,173.06255177466664 40.85865543130785,176.43750789470505 49.01588202826679,171.37507147050928 49.01588202826679,145.50018615962472 48.15722659602761,139.5939130358165 40.85865543130785,133.68762158614118 30.984117973595858,137.6251512557501 30.55479025747627,170.53133075812366 39.3560084272176,175.5937694257591 45.366596445441246,174.46878421877045 49.87453745864332,168.5626009728294 48.15722659602761,140.4376674608793 41.50264700502157,133.9688739759149 32.70142883528024,136.21889159397688 29.696134826168418,141.2814215120161 30.340126398950815,168.00010637543164 40.214663858525455,177.0 49.659873601049185,173.34379834623542 50.518529031425714,144.09393231594004" stroke="#4DD2FF" stroke-linecap="round" stroke-linejoin="round" stroke-width="0.5"><title>2025-03-24 4.1km</title><desc>1742817301000</desc></polyline><polyline fill="none" points="100.13381682522595,126.85718360263854 95.58404473215342,123.70130657614209 88.89320342056453,130.0130564342253 89.69610437843949,164.72738061309792 99.33091586828232,176.29870917182416 111.9096975363791,167.5325563538354 111.37443023175001,132.11696932278574 104.14832161273807,124.05195978586562 88.62556976731867,128.9610992895905 89.69610437843949,165.77932190382853 97.72511395253241,175.59741813805886 103.61305430904031,175.94806368136778 111.9096975363791,168.23384976992384 110.57152927387506,131.76631730468944 99.59854952059686,123.350653313566 88.35793611593544,133.5195768799167 88.89320342056453,163.6754388550762 98.52801491040736,177.0 111.37443023175001,169.98708240594715 112.17733118962497,132.81827320461161 97.45748030114919,123.0 90.2313716839999,129.311751722591 88.89320342056453,164.3767334120348 101.20435143541545,177.0 111.37443023175001,169.6364359825384 111.10679657850415,130.0130564342253 97.45748030114919,123.0 89.42847072612494,133.5195768799167 89.96373803168535,170.33772877790034 99.59854952059686,177.0 112.71259849332273,169.6364359825384 110.30389562062919,130.0130564342253 101.73961874004453,123.0 89.69610437843949,132.11696932278574 90.2313716839999,167.5325563538354 99.06328221596777,176.29870917182416 111.9096975363791,170.33772877790034 110.57152927387506,134.57153200404719 97.45748030114919,123.0 87.01976785436273,133.5195768799167 89.1608370738104,165.42867485899478 95.85167838539928,175.59741813805886 110.83916292525828,170.33772877790034 111.64206388313323,131.76631730468944 102.27488604560494,123.350653313566 87.82266881037503,132.11696932278574 88.62556976731867,165.0780277615413 99.33091586828232,175.59741813805886 105.48648987617344,175.24677254376002 112.98023214563727,166.12996889674105 111.9096975363791,133.1689250683412 107.62755909562111,125.80522505985573 97.99274760577828,123.350653313566 88.62556976731867,135.27283515990712 89.96373803168535,166.48061583889648 97.45748030114919,175.94806368136778 111.37443023175001,169.6364359825384 111.64206388313323,132.11696932278574 106.8246581396088,125.10391910560429 95.85167838539928,123.350653313566 89.1608370738104,133.1689250683412 89.96373803168535,168.23384976992384 97.99274760577828,177.0 112.17733118962497,169.6364359825384 112.98023214563727,133.1689250683412 103.61305430904031,177.0" stroke="#4DD2FF" stroke-linecap="round" stroke-linejoin="round" stroke-width="0.5"><title>2025-03-23 4.2km</title><desc>1742719228000</desc></polyline><polyline fill="none" points="152.83754232060164,123.0 148.0625705337152,129.25616457359865 150.57571357954293,170.74396944977343 162.89011450391263,175.0244133027736 173.19400099106133,162.51232355018146 170.93217225000262,136.17085235426202 155.09937106166035,126.951263879193 147.81125622987747,139.1342834061943 149.82177066616714,169.75617354759015 158.61777132656425,175.35367787373252 170.93217225000262,167.78058042842895 169.67560072615743,134.19522946304642 156.35594258457422,125.96344856568612 147.81125622987747,134.5245000666473 149.06782775186002,168.43911166349426 159.62302854284644,176.67073567118496 166.4085147678852,174.69514868268743 171.18348655384034,166.79278321261518 170.42954363953322,136.82939292839728 156.60725688934326,126.29272038582712 151.32965649385005,127.60980717791244 147.30862762127072,139.7928231060505 150.07308497093618,170.41470419778489 165.40325754974037,175.0244133027736 174.7018868168816,169.75617354759015 171.43480085860938,135.5123115850147 155.09937106166035,127.28053555358201 147.05731331557035,140.12209288217127 148.0625705337152,167.12204899964854 155.60199967119843,175.68294239602983 169.17297211755067,176.01220686966553 170.68085794523358,172.39029498165473 171.93742946721613,138.80501348385587 164.9006289402023,128.5976217610296 157.36119980178773,126.951263879193 148.56519914325327,133.86595881171525 148.0625705337152,170.08543889643624 162.38748589530587,176.01220686966553 171.43480085860938,165.8049855590798 169.67560072615743,133.86595881171525 160.6282857619226,126.62199215730652 151.83228510338813,126.62199215730652 145.2981131831184,145.7196716372855 151.0783421881497,172.39029498165473 161.63354298006743,174.69514868268743 173.19400099106133,165.14645354636014 168.92165781278163,131.8903338771779 154.34542814828455,127.28053555358201 150.07308497093618,129.5854359071236 147.05731331557035,152.96357621718198 152.08359940722585,174.69514868268743 164.39800033159554,175.68294239602983 171.43480085860938,164.81718746689148 167.66508628986776,132.21960482071154 159.120399935171,124.3170887385495 148.31388483848423,130.90252075367607 148.56519914325327,169.42690814984962 158.3664570208639,177.0 172.1887437729165,168.76837720745243 169.67560072615743,132.8781465627253 158.11514271702617,124.3170887385495 147.81125622987747,132.5488757158164 148.0625705337152,166.79278321261518 159.62302854284644,176.3414712951053 170.68085794523358,170.41470419778489 169.67560072615743,136.82939292839728" stroke="#4DD2FF" stroke-linecap="round" stroke-linejoin="round" stroke-width="0.5"><title>2025-03-21 4.2km</title><desc>1742565279000</desc></polyline><polyline fill="none" points="42.66185700520873,215.70004547620192 35.44908318296075,213.0 33.38829066231847,215.47504186886363 32.18616169132292,240.22523932519834 41.63146074488759,244.72523201140575 48.84423456620425,237.30023694876581 44.72264952585101,215.02503455558326 36.1360140228644,214.57502710924018 30.984032722190022,220.4251135396771 35.62081589270383,243.15023608366027 41.80319345463067,245.6252289529657 47.64210559707135,241.3502387437038 47.470372886396945,218.62508933898062 40.08586635347456,214.1250195298344 34.2469542119652,214.80003084917553 31.155765431001782,220.65011641487945 33.56002337206155,241.8002382776467 40.60106448363513,246.5252253623912 46.61170933581889,242.7002369479742 47.64210559707135,219.52510170533787 41.974926164373755,215.02503455558326 32.18616169132292,216.6000595705118 31.842696271836758,237.52523733128328 35.44908318296075,244.72523201140575 39.57066822331399,245.85022810543887 46.61170933581889,242.02523799566552 47.29864017572254,218.40008616470732 45.409580365754664,215.2500382286962 37.85334112402052,214.35002333647572 32.8730925321579,217.72507644153666 31.327498141676188,232.12521898234263 36.82294486369938,245.40022976719774 46.09651120565832,243.60023508651648 47.985571016557515,219.97510768903885 47.29864017572254,216.6000595705118 37.68160841334611,214.57502710924018 32.70135982148349,218.8500924805412 34.933885051868856,241.57523852738086 37.85334112402052,245.40022976719774 46.61170933581889,244.50023269292433 47.470372886396945,225.8251733747311 38.88373738247901,238.65023874375038 36.479479442350566,246.9752233675681 38.02507383283228,267.0 46.2682439154014,264.5250418675132 48.15730372723192,248.32521658646874 45.409580365754664,217.0500664183637 36.99467757344246,213.45000791177154 30.984032722190022,218.40008616470732 32.18616169132292,237.97523799550254 40.08586635347456,246.07522722438443 47.29864017572254,241.3502387437038 48.15730372723192,219.75010471360292 39.398935513570905,213.2250039728824 32.8730925321579,217.0500664183637 32.35789440199733,240.45023927500006 39.05547009315342,245.6252289529657 47.12690746597946,240.67523919220548 47.81383830588311,218.62508933898062 39.914133643731475,213.2250039728824 34.07522150222212,216.82506301091053 33.73175608180463,243.60023508651648 38.02507383283228,247.2002223210875 43.34878784418106,246.5252253623912 46.09651120565832,242.47523733007256 49.015967276878655,221.32512484141625" stroke="#4DD2FF" stroke-linecap="round" stroke-linejoin="round" stroke-width="0.5"><title>2025-03-10 4.0km</title><desc>1741591515000</desc></polyline><polyline fill="none" points="114.13482490926981,223.38471204414964 99.86789883393794,214.38463093247265 88.77140077482909,222.34624291118234 89.03560310881585,259.3846907687839 97.22587548568845,266.653850118164 111.49280156102031,258.00008643069305 110.70019455626607,225.11549290991388 103.30252918414772,215.76926104538143 88.24299610499293,222.0000864318572 87.97879376914352,259.0385397602804 94.84805447235703,265.26925007626414 111.75700389686972,259.0385397602804 112.54961090069264,225.461648930097 101.71731517557055,215.07694609183818 89.03560310881585,222.0000864318572 89.8282101135701,259.3846907687839 98.54688716027886,266.30770018394105 107.79396887496114,264.2307995078154 112.28540856484324,257.307783954544 112.28540856484324,227.1924282608088 101.98151751141995,215.42310359422117 88.50719844084233,223.0385557182599 89.03560310881585,255.9231783892028 98.81108949426562,266.653850118164 112.02120623085648,258.3462375921663 110.96439689211547,221.65392990014516 96.4332684809342,215.07694609183818 89.03560310881585,221.65392990014516 89.8282101135701,260.76929428754374 100.13210116885602,266.30770018394105 112.02120623085648,258.00008643069305 111.75700389686972,226.5001166819129 102.7741245161742,215.07694609183818 92.99863813072443,216.11541844671592 87.71459143608809,222.34624291118234 88.24299610499293,257.6539352175314 98.28268482536077,265.9615501991939 111.75700389686972,258.00008643069305 109.90758755244315,220.961616684217 101.18891050759703,213.0 87.45038910023868,222.0000864318572 88.24299610499293,257.6539352175314 101.71731517557055,265.9615501991939 111.22859922796488,257.6539352175314 110.43599222321063,221.65392990014516 100.92470817174762,213.34615780971944 85.86517509166151,223.7308683199808 88.77140077482909,260.0769926297944 104.35933852475137,265.9615501991939 111.49280156102031,258.69238870195113 110.17178988736123,219.92314647766761 96.4332684809342,214.73078853730112 88.24299610499293,221.65392990014516 88.24299610499293,257.6539352175314 101.71731517557055,266.30770018394105 112.02120623085648,258.00008643069305 112.54961090069264,223.7308683199808 100.66050583869219,214.73078853730112 87.71459143608809,224.76933683943935 88.50719844084233,261.11544503993355 97.22587548568845,267.0 110.70019455626607,258.00008643069305 113.8706225734204,223.38471204414964" stroke="#4DD2FF" stroke-linecap="round" stroke-linejoin="round" stroke-width="0.5"><title>2025-03-09 4.1km</title><desc>1741514669000</desc></polyline><polyline fill="none" points="150.54299012944102,244.4384978308808 159.29425299540162,262.56168776913546 166.63402185030282,262.9315474226605 175.3852847162634,254.0549006673973 170.8685038825497,213.36986697558314 151.3898865347728,213.0 144.0501176789403,221.50692661153153 155.0597709622234,257.75350730656646 172.2799978936091,261.08224861091 177.36137633118778,245.17822243762203 171.15080268401653,221.50692661153153 176.23218112252653,218.17813268490136 147.15540450345725,230.01382431411184 148.56689851358533,225.57544651068747 159.29425299540162,232.2330102652777 155.0597709622234,240.37000858737156 157.88275898434222,262.56168776913546 170.3039062777534,262.1918280622922 176.51447992492467,252.57545648165978 165.50482664164156,216.32880081306212 148.56689851358533,214.47946757427417 142.63862366881222,223.72612010408193 151.67218533623964,244.80836016172543 151.107587733306,257.01378641696647 165.2225278392434,266.63014094741084 173.12689429987222,252.20559529867023 168.61011346429586,220.76719501032494 153.36597814969718,213.36986697558314 143.48552007600665,221.50692661153153 149.97839252464473,259.9726686680224 166.91632065270096,267.0 173.97379070613533,256.2740653073415 172.2799978936091,215.58906768076122 153.64827695209533,214.47946757427417 149.1314961174503,231.49328183359466" stroke="#4DD2FF" stroke-linecap="round" stroke-linejoin="round" stroke-width="0.5"><title>2025-03-05 1.9km</title><desc>1741161630000</desc></polyline></svg>