<?xml version="1.0" encoding="utf-8" ?>
<svg baseProfile="full" height="300mm" version="1.1" viewBox="0,0,200,300" width="200mm" xmlns="http://www.w3.org/2000/svg" xmlns:ev="http://www.w3.org/2001/xml-events" xmlns:xlink="http://www.w3.org/1999/xlink"><defs /><rect fill="#222222" height="300" width="200" x="0" y="0" /><text fill="#FFFFFF" style="font-size:12px; font-family:Arial; font-weight:bold;" x="10" y="20">Over 10km Runs</text><text fill="#FFFFFF" style="font-size:4px; font-family:Arial" x="10" y="280">ATHLETE</text><text fill="#FFFFFF" style="font-size:9px; font-family:Arial" x="10" y="290">TXyy2025</text><text fill="#FFFFFF" style="font-size:4px; font-family:Arial" x="65" y="280">SPECIAL TRACKS</text><rect fill="yellow" height="2.6" width="2.6" x="65" y="283" /><text fill="#FFFFFF" style="font-size:3px; font-family:Arial" x="70" y="285.5">Over 20.0 km</text><rect fill="red" height="2.6" width="2.6" x="65" y="287" /><text fill="#FFFFFF" style="font-size:3px; font-family:Arial" x="70" y="289.5">Over 40.0 km</text><text fill="#FFFFFF" style="font-size:4px; font-family:Arial" x="120" y="280">STATISTICS</text><text fill="#FFFFFF" style="font-size:3px; font-family:Arial" x="120" y="285">Number: 5</text><text fill="#FFFFFF" style="font-size:3px; font-family:Arial" x="120" y="290">Weekly: 1.7</text><text fill="#FFFFFF" style="font-size:3px; font-family:Arial" x="141" y="285">Total: 18.3 km</text><text fill="#FFFFFF" style="font-size:3px; font-family:Arial" x="141" y="290">Avg: 3.7 km</text><text fill="#FFFFFF" style="font-size:3px; font-family:Arial" x="167" y="285">Min: 1.9 km</text><text fill="#FFFFFF" style="font-size:3px; font-family:Arial" x="167" y="290">Max: 4.2 km</text><polyline fill="none" points="50.17842243425548,39.1429114700295 44.11205964535475,34.93507543485612 35.19093789532781,43.35074191214517 36.26147250644863,89.63650748389773 49.10788782685995,105.06494556227699 65.87959671579301,93.37674180488102 65.16590697690845,46.15595909697004 55.53109548613429,35.402613047743216 34.8340930249542,41.94813238619827 36.26147250644863,91.03909587161615 46.96681860461831,104.12989085074514 54.81740574538708,104.59741824166849 65.87959671579301,94.31179969315417 64.09537236578763,45.68842307291925 49.46473269537091,34.4675377511885 34.47724815644324,48.026102506322786 35.19093789532781,88.23391847335733 48.03735321573913,106.0 65.16590697690845,96.64944320777431 66.23644158616662,47.09103093948215 46.60997373610735,34.0 36.975162245333195,42.41566896322183 35.19093789532781,89.16897788248025 51.60580191574991,106.0 65.16590697690845,96.18191464338452 64.80906210653484,43.35074191214517 46.60997373610735,34.0 35.90462763607502,48.026102506322786 36.61831737682223,97.11697170394473 49.46473269537091,106.0 66.95013132691383,96.18191464338452 63.73852749541402,43.35074191214517 52.319491654634476,34.0 36.26147250644863,46.15595909697004 36.975162245333195,93.37674180488102 48.751042956486344,105.06494556227699 65.87959671579301,97.11697170394473 64.09537236578763,49.42870933865197 46.60997373610735,34.0 32.69302380643785,48.026102506322786 35.54778276570141,90.5715664785821 44.468904515728354,104.12989085074514 64.45221723429859,97.11697170394473 65.5227518454194,45.68842307291925 53.03318139538169,34.4675377511885 33.763558415696025,46.15595909697004 34.8340930249542,90.10403701546602 49.10788782685995,104.12989085074514 57.31531983613968,103.66236339136958 67.3069761954248,91.50662519573234 65.87959671579301,47.55856675794348 60.17007879540324,37.74030007980764 47.32366347499192,34.4675377511885 34.8340930249542,50.36378021305427 36.61831737682223,91.97415445186198 46.60997373610735,104.59741824166849 65.16590697690845,96.18191464338452 65.5227518454194,46.15595909697004 59.09954418614507,36.805225474061444 44.468904515728354,34.4675377511885 35.54778276570141,47.55856675794348 36.61831737682223,94.31179969315417 47.32366347499192,106.0 66.23644158616662,96.18191464338452 67.3069761954248,47.55856675794348 54.81740574538708,106.0" stroke="#4DD2FF" stroke-linecap="round" stroke-linejoin="round" stroke-width="0.5"><title>2025-03-23 4.2km</title><desc>1742719228000</desc></polyline><polyline fill="none" points="140.45005642808974,34.0 134.0834273789078,42.341552764642984 137.4342847727239,97.65862593310885 153.85348600521684,103.36588440346532 167.59200132079422,86.68309806683101 164.57622966729105,51.561136472271755 143.46582808345556,39.26835183892399 133.7483416404575,55.51237787492573 136.4290275555104,96.34156473004259 148.15702843479812,103.80490383156575 164.57622966729105,93.70744057139382 162.90080096945167,48.92697261739522 145.1412567794323,37.95126475417055 133.7483416404575,49.366000088863075 135.42377033643425,94.58548221806996 149.49737139232457,105.56098089483567 158.5446863565594,102.9268649101723 164.91131540574133,92.39037761674263 163.90605818666518,52.43919057119638 145.47634251974523,38.3902938477695 138.43954199180007,40.146409570705146 133.0781701616943,56.39043080806732 136.76411329582334,97.2196055969689 157.20434339903295,103.36588440346532 169.6025157570839,96.34156473004259 165.24640114605427,50.683082113508135 143.46582808345556,39.70738073787652 132.74308442138135,56.829457176150754 134.0834273789078,92.82939866604283 144.13599956221879,104.24392319470644 162.23062949068844,104.68294249265455 164.2411439269781,99.85372664243914 165.91657262295485,55.07335131196305 156.53417192026973,41.463495681528 146.48159973695874,39.26835183892399 134.75359885953367,48.48794508213177 134.0834273789078,96.78058519540355 153.18331452831626,104.68294249265455 165.24640114605427,91.07331407885067 162.90080096945167,48.48794508213177 150.837714349851,38.829322876408696 139.1097134705633,38.829322876408696 130.39748424477875,64.29289551638067 138.10445625148714,99.85372664243914 152.17805730737746,102.9268649101723 167.59200132079422,90.19527139514685 161.89554375223815,45.85377850290388 142.46057086624205,39.70738073787652 136.76411329582334,42.78058120934293 132.74308442138135,73.95143495616503 139.44479921087623,102.9268649101723 155.8640004415065,104.24392319470644 165.24640114605427,89.75624995585531 160.22011505439878,46.292806427692994 148.82719991356134,35.756118318066 134.4185131173581,44.53669433807954 134.75359885953367,95.90254419972189 147.8219426944852,106.0 166.25165836326778,95.02450294303708 162.90080096945167,47.17086208355613 147.4868569560349,35.756118318066 133.7483416404575,46.73183428775519 134.0834273789078,92.39037761674263 149.49737139232457,105.12196172680706 164.2411439269781,97.2196055969689 162.90080096945167,52.43919057119638" stroke="#4DD2FF" stroke-linecap="round" stroke-linejoin="round" stroke-width="0.5"><title>2025-03-21 4.2km</title><desc>1742565279000</desc></polyline><polyline fill="none" points="53.54914267454296,117.6000606350135 43.932110912166536,114.0 41.18438755068928,117.3000558251515 39.58154892269522,150.30031910026446 52.175280993804336,156.3003093486186 61.79231275618076,146.40031593176536 56.2968660350889,116.70004607411101 44.848018697462976,116.10003614565358 37.978710296563804,123.90015138639137 44.16108785755932,154.2003147781361 52.404257940128446,157.50030527077615 60.18947413004935,151.80031832493842 59.960497182793915,121.50011911871843 50.114488473162055,115.50002603977919 42.329272284172475,116.40004113223404 38.20768724195659,124.20015521976165 41.41336449701339,152.40031770360656 50.80141931306571,158.7003004832659 58.8156124483794,153.60031593055464 60.18947413004935,122.70013560703956 52.633234886452556,116.70004607411101 39.58154892269522,118.80007942742668 39.123595030047,146.70031644171104 43.932110912166536,156.3003093486186 49.42755763232708,157.80030414066277 58.8156124483794,152.70031732763164 59.73152023553848,121.20011488627642 57.21277382224798,117.00005097151734 47.13778816629201,115.80003111530095 40.49745671078563,120.30010192212649 38.436664189212024,139.50029197637923 45.763926485553384,157.20030635618605 58.12868160940707,154.80031344876625 60.64742802269757,123.30014358530752 59.73152023553848,118.80007942742668 46.90881121903658,116.10003614565358 40.268479763530195,121.80012330738828 43.24518007040024,152.10031803650782 47.13778816629201,157.20030635618605 58.8156124483794,156.00031025731005 59.960497182793915,131.10023116646335 48.511649845167994,148.20031832507811 45.30597259104252,159.30029782350175 47.3667651116848,186.0 58.35765855573118,182.70005582342856 60.876404969953,161.10028878203593 57.21277382224798,119.40008855774067 45.992903431877494,114.6000105489511 37.978710296563804,121.20011488627642 39.58154892269522,147.30031732749194 50.114488473162055,158.1003029658459 59.73152023553848,151.80031832493842 60.876404969953,123.00013961829245 49.19858068600297,114.30000529717654 40.49745671078563,119.40008855774067 39.81052586995065,150.60031903348863 48.74062679242343,157.50030527077615 59.50254328921437,150.90031892294064 60.418451075442135,121.50011911871843 49.885511526837945,114.30000529717654 42.100295337848365,119.10008401446976 41.6423414433375,154.80031344876625 47.3667651116848,159.60029642819427 54.465050459839404,158.7003004832659 58.12868160940707,153.30031644017436 62.021289703436196,125.1001664553769" stroke="#4DD2FF" stroke-linecap="round" stroke-linejoin="round" stroke-width="0.5"><title>2025-03-10 4.0km</title><desc>1741591515000</desc></polyline><polyline fill="none" points="168.84643321111798,127.84628272545524 149.8238651100546,115.84617457655258 135.0285343658179,126.46165721490979 135.38080414384604,175.84625435830094 146.3011673130095,185.5384668239858 165.32373541407287,174.00011524069123 164.26692607440054,130.15399054670706 154.4033722449094,117.69234806066379 134.32399480603635,126.00011524255387 133.97172502428293,175.38471968029626 143.13073929585516,183.69233343494125 165.67600519396365,175.38471968029626 166.73281453363597,130.6155319067184 152.2897535674274,116.76926145562902 135.38080414384604,126.00011524255387 136.43761348351836,175.84625435830094 148.06251621246338,185.07693357835524 160.3919584993273,182.3077326770872 166.38054475188255,173.0770452725701 166.38054475188255,132.9232376809232 152.64202334731817,117.23080479213968 134.67626458592713,127.38474095752463 135.38080414384604,171.23090451885946 148.4147859904915,185.5384668239858 166.02827497385442,174.46165012265556 164.61919585429132,125.53857320011593 145.24435797333717,116.76926145562902 135.38080414384604,125.53857320011593 136.43761348351836,177.69239238346927 150.1761348899454,185.07693357835524 166.02827497385442,174.00011524069123 165.67600519396365,132.00015557580628 153.6988326869905,116.76926145562902 140.66485084034503,118.15389126213267 133.6194552462548,126.46165721490979 134.32399480603635,173.53858029004186 147.7102464325726,184.61540026566945 165.67600519396365,174.00011524069123 163.21011673472822,124.61548891221173 151.58521400764585,114.0 133.26718546636403,126.00011524255387 134.32399480603635,173.53858029004186 152.2897535674274,184.61540026566945 164.97146563604474,173.53858029004186 163.9146562963724,125.53857320011593 151.23294422775507,114.46154374605976 131.15356678888202,128.30782442656346 135.0285343658179,176.76932350639254 155.8124513644725,184.61540026566945 165.32373541407287,174.923184935702 163.56238651648164,123.23086197022349 145.24435797333717,116.307718049502 134.32399480603635,125.53857320011593 134.32399480603635,173.53858029004186 152.2897535674274,185.07693357835524 166.02827497385442,174.00011524069123 166.73281453363597,128.30782442656346 150.88067444972694,116.307718049502 133.6194552462548,129.69244911894202 134.67626458592713,178.1539267199114 146.3011673130095,186.0 164.26692607440054,174.00011524069123 168.4941634312272,127.84628272545524" stroke="#4DD2FF" stroke-linecap="round" stroke-linejoin="round" stroke-width="0.5"><title>2025-03-09 4.1km</title><desc>1741514669000</desc></polyline><polyline fill="none" points="37.390653505921364,235.91799710784107 49.05900399386883,260.08225035876967 58.8453624676913,260.57539656362496 70.51371295563877,248.73986755660735 64.49133851006627,194.49315596744418 38.5198487136513,194.0 28.733490239828825,205.34256881545298 43.41302795149386,253.67134307534434 66.37333052419126,258.1096648145467 73.14850177615881,236.90429658349603 64.8677369132638,205.34256881545298 71.64290816523135,200.9041769132018 32.87387267127633,216.68509908556007 34.75586468540132,210.76726201432757 49.05900399386883,219.64401368703693 43.41302795149386,230.4933447833173 47.17701197974384,260.08225035876967 63.73854170367122,259.58910408290103 72.01930656656623,246.7672753087245 57.339768854901195,198.4384010839276 34.75586468540132,195.97262343228795 26.851498225703835,208.30149347195402 38.896247116848826,236.4111468824558 38.14345031045377,252.6850485559553 56.96337045356631,265.5068545965478 67.50252573378384,246.27412706473842 61.4801512863487,204.3562600137666 41.15463753417134,194.49315596744418 27.980693435296416,205.34256881545298 36.63785669952631,256.6302248907741 59.22176087088883,266.0 68.63172094151378,251.69875374319963 66.37333052419126,197.45209024101496 41.53103593736887,195.97262343228795 35.50866148993373,218.65770911145955" stroke="#4DD2FF" stroke-linecap="round" stroke-linejoin="round" stroke-width="0.5"><title>2025-03-05 1.9km</title><desc>1741161630000</desc></polyline></svg>