<?xml version="1.0" encoding="utf-8" ?>
<svg baseProfile="full" height="300mm" version="1.1" viewBox="0,0,200,300" width="200mm" xmlns="http://www.w3.org/2000/svg" xmlns:ev="http://www.w3.org/2001/xml-events" xmlns:xlink="http://www.w3.org/1999/xlink"><defs /><rect fill="#222222" height="300" width="200" x="0" y="0" /><text fill="#FFFFFF" style="font-size:12px; font-family:Arial; font-weight:bold;" x="10" y="20">Over 10km Runs</text><text fill="#FFFFFF" style="font-size:4px; font-family:Arial" x="10" y="280">ATHLETE</text><text fill="#FFFFFF" style="font-size:9px; font-family:Arial" x="10" y="290">TXyy2025</text><text fill="#FFFFFF" style="font-size:4px; font-family:Arial" x="65" y="280">SPECIAL TRACKS</text><rect fill="yellow" height="2.6" width="2.6" x="65" y="283" /><text fill="#FFFFFF" style="font-size:3px; font-family:Arial" x="70" y="285.5">Over 20.0 km</text><rect fill="red" height="2.6" width="2.6" x="65" y="287" /><text fill="#FFFFFF" style="font-size:3px; font-family:Arial" x="70" y="289.5">Over 40.0 km</text><text fill="#FFFFFF" style="font-size:4px; font-family:Arial" x="120" y="280">STATISTICS</text><text fill="#FFFFFF" style="font-size:3px; font-family:Arial" x="120" y="285">Number: 11</text><text fill="#FFFFFF" style="font-size:3px; font-family:Arial" x="120" y="290">Weekly: 2.2</text><text fill="#FFFFFF" style="font-size:3px; font-family:Arial" x="141" y="285">Total: 40.2 km</text><text fill="#FFFFFF" style="font-size:3px; font-family:Arial" x="141" y="290">Avg: 3.7 km</text><text fill="#FFFFFF" style="font-size:3px; font-family:Arial" x="167" y="285">Min: 1.5 km</text><text fill="#FFFFFF" style="font-size:3px; font-family:Arial" x="167" y="290">Max: 4.5 km</text><polyline fill="none" points="49.99164381250739,33.0 38.00167123693973,36.272764747263864 31.50710275862366,45.436480313073844 33.25564042571932,80.78188524604775 40.74937328603119,86.01819356810302 46.24477738235146,84.38184854667634 50.49122600257397,76.52737562148832 49.49206162057817,43.47283016843721 38.00167123693973,38.23642127471976 29.009191806428134,50.34559805667959 32.00668494962156,80.12734583672136 34.754386997781694,84.70911764842458 45.24561300128698,85.03638670011424 51.240599288605154,77.18191609578207 47.49373285844922,45.10920540988445 39.25062671303749,37.9091453072615 29.75856509245932,46.7455794417765 31.50710275862366,81.10915487911552 45.74519519228488,84.70911764842458 52.239763668738306,75.8728349537123 47.99331504944712,42.491004443727434 39.25062671303749,37.9091453072615 31.50710275862366,41.836453719530255 30.25814728345722,77.50918625993654 38.251462331973016,86.01819356810302 51.49039038363844,79.47280623251572 50.49122600257397,46.7455794417765 39.50041780807078,38.23642127471976 27.760236330330372,47.727403281023726 29.009191806428134,73.90921178995632 36.502924664877355,85.69092466076836 46.994150668382645,84.05457939812914 52.239763668738306,75.54556454718113 50.241434906609356,47.40012871660292 38.251462331973016,37.9091453072615 28.259818520396948,48.05467779771425 31.50710275862366,82.41823292686604 45.99498628638685,84.05457939812914 52.239763668738306,73.90921178995632 47.24394176341593,44.12738041067496 35.25396918784827,39.5455246581696 28.259818520396948,48.381952265976 31.00752056762576,80.78188524604775 42.24811985809356,86.01819356810302 50.49122600257397,80.78188524604775 52.239763668738306,73.90921178995632 48.492897239513695,42.818279734347016 35.25396918784827,38.563697192585096 29.009191806428134,49.36377537925728 30.507938378490508,78.49099646345712 37.75188014190644,86.01819356810302 51.49039038363844,78.49099646345712 50.49122600257397,45.436480313073844 38.00167123693973,38.23642127471976 28.259818520396948,46.418304732535034 30.507938378490508,81.10915487911552 35.25396918784827,85.69092466076836 46.494568477384746,84.70911764842458 51.74018147867173,75.21829409268685 50.49122600257397,45.76375516806729 42.997493143193424,37.9091453072615 32.00668494962156,40.20007606013678 28.259818520396948,45.76375516806729 31.756893855519593,83.40004095435143 42.997493143193424,87.0 51.98997257463634,78.81826643506065 51.240599288605154,54.272884420119226" stroke="#4DD2FF" stroke-linecap="round" stroke-linejoin="round" stroke-width="0.5"><title>2025-04-02 4.0km</title><desc>1743590878000</desc></polyline><polyline fill="none" points="91.99315058253706,45.03832505480386 87.53031648043543,45.03832505480386 87.00527717266232,70.83452626410872 94.09330780617893,84.59238336631097 110.36952629499137,77.71346497815102 109.31944768410176,56.732638355577365 113.2572424793616,55.01289008394815 106.69425115268677,37.12743274564855 88.31787543930113,39.879050510702655 88.31787543930113,72.21031563309953 94.09330780617893,83.21660131472163 108.2693690713495,78.74530403199606 109.0569280302152,46.758080693893135 102.23141705058515,34.71976453321986 87.53031648043543,42.28671338735148 87.00527717266232,71.52242105011828 93.56826849933714,82.87265567551367 102.23141705058515,84.59238336631097 110.10700664389879,77.36951852589846 109.84448699001223,44.350422442890704 97.50606329645962,34.37581172841601 88.8429147452116,40.56695444392972 88.05535578541458,73.24215712631121 98.03110260143876,83.90449244272895 104.06905462220311,83.21660131472163 111.1570852547884,73.58610418927856 109.84448699001223,42.63066502381116 100.39377947896719,34.37581172841601 88.31787543930113,38.84719423064962 88.8429147452116,76.33767886133865 100.13125982694328,84.93632875196636 109.58196733612567,75.3058387406636 110.89456560183316,41.25485817389563 99.08118121419102,33.68790596583858 88.31787543930113,44.350422442890704 89.6304737040773,75.64978549792431 100.39377947896719,84.93632875196636 109.0569280302152,80.46503477287479 112.20716386754066,71.52242105011828 109.0569280302152,40.22300250339322 99.86874017305672,33.68790596583858 89.10543439723551,40.91090633510612 89.36795405019075,74.96189193218015 97.50606329645962,84.2484379298985 109.31944768410176,79.0892502819188 111.1570852547884,42.63066502381116 99.60622052103281,34.03185887308791 86.7427575206384,42.28671338735148 88.58039509225637,78.40135773201473 99.08118121419102,86.31210978818126 110.36952629499137,78.40135773201473 109.58196733612567,40.56695444392972 99.08118121419102,34.37581172841601 87.53031648043543,41.942761700833216 90.1555130109191,80.46503477287479 98.55614190828055,85.96816460532136 106.95677080657333,85.28027408733033 110.63204594887793,78.74530403199606 110.10700664389879,42.63066502381116 98.81866156216711,33.0 88.05535578541458,42.28671338735148 91.99315058253706,80.1210887262132 95.66842572484165,84.93632875196636 109.0569280302152,87.0 112.20716386754066,45.03832505480386" stroke="#4DD2FF" stroke-linecap="round" stroke-linejoin="round" stroke-width="0.5"><title>2025-03-30 4.0km</title><desc>1743343343000</desc></polyline><polyline fill="none" points="172.0848176367581,40.33340917597525 169.28622828889638,43.3334333319217 162.9257979542017,37.66671768785454 165.9788045147434,40.33340917597525 166.2332217283547,36.333370762644336 158.09187089744955,33.0 149.44168564211577,37.00004432396963 146.13426186796278,69.33347558556125 150.2049372829497,82.00005429540761 161.90812909975648,87.0 172.0848176367581,80.00007291068323 174.1201553447172,71.33346642460674 174.3745725573972,63.00015956349671 167.5053077954799,38.00005429633893 155.0388643387705,35.00002304860391 145.6254274416715,47.66679451568052 151.4770233500749,81.66672418708913 163.18021516874433,85.666682228446 172.5936520639807,76.66676666401327 170.55831435602158,40.00007291208021 157.8374536857009,34.666685997508466 147.9151823632419,44.66677612159401 151.22260613646358,80.66673356899992 164.19788402039558,84.66669338243082 171.8304004240781,76.66676666401327 170.55831435602158,38.66672736592591 155.5476987650618,35.666697004111484 148.4240167895332,44.66677612159401 149.69610285572708,75.66677382891066 157.0742020457983,84.33336366945878 165.72438730113208,84.33336366945878 173.1024864912033,76.66676666401327 170.8127315696329,40.66674539074302 155.0388643387705,36.333370762644336 146.3886790825054,46.000118122436106 150.2049372829497,77.33342830766924 162.4169635269791,84.66669338243082 172.84806927666068,75.33344278600998 171.8304004240781,44.00010482547805 160.8904602471739,36.666707567637786 154.78444712422788,37.00004432396963 148.93285121582448,45.00011169607751 151.73144056275487,80.33340326463804 165.72438730113208,85.33335266332142 172.0848176367581,76.33343576872721 169.28622828889638,39.666736599523574 160.38162581901997,34.333348896121606 149.44168564211577,42.333425723947585 150.9681889237836,76.66676666401327 158.34628811199218,85.33335266332142 165.9788045147434,84.33336366945878 171.8304004240781,77.00009750970639 171.32156599592417,43.0000975120347 160.38162581901997,35.33336005057208 149.44168564211577,43.66676910361275 149.44168564211577,75.00011169281788 155.80211597774178,83.66670409427024 163.43463238049299,85.33335266332142 171.5759832104668,78.33342040260322 170.3038971433416,44.33344049798325 159.6183741800487,35.666697004111484 148.4240167895332,44.66677612159401 149.69610285572708,79.00008155358955 159.6183741800487,86.00001174490899 171.5759832104668,76.66676666401327 169.795062716119,40.00007291208021 159.10953975189477,34.666685997508466 147.40634793508798,47.333459335844964 149.69610285572708,78.33342040260322 162.9257979542017,85.666682228446 171.8304004240781,73.33345549204387 170.0494799297303,41.333417671965435 158.6007053265348,35.666697004111484 148.67843400221318,46.33345349901356 150.459354496561,79.00008155358955 158.09187089744955,86.00001174490899 170.55831435602158,80.33340326463804" stroke="#4DD2FF" stroke-linecap="round" stroke-linejoin="round" stroke-width="0.5"><title>2025-03-30 4.5km</title><desc>1743327729000</desc></polyline><polyline fill="none" points="48.77157360315323,95.12957626534626 48.90862944116816,96.925311500323 39.86294416198507,101.77378338109702 35.477157359942794,101.95335604192223 39.040609136689454,113.4459511700552 28.898477157577872,114.16423475672491 29.44670050777495,119.91048817255069 21.634517766535282,116.49865348357707 15.329949238337576,118.47392736538313 13.0,125.29757607530337 14.37055837502703,142.1769635528326 19.98984771547839,145.76829234685283 26.431472081691027,142.1769635528326 29.30964466976002,114.70294716896024 35.88832487305626,113.98466389987152 41.50761421304196,115.24165934184566 53.84263959387317,129.06852340057958 56.44670050777495,129.42766063043382 59.18781725876033,123.68145221145824 67.0,130.3255032422021 64.80710659874603,139.8425941466121 64.39593908563256,128.5298173557967 57.269035533070564,124.5792990680784 55.076142131350935,129.06852340057958 51.92385786771774,126.7341288169846 36.02538071060553,102.31250128475949 48.36040609097108,98.18232458585408 46.30456852726638,94.23170765314717" stroke="#4DD2FF" stroke-linecap="round" stroke-linejoin="round" stroke-width="0.5"><title>2025-03-29 1.5km</title><desc>1743247652000</desc></polyline><polyline fill="none" points="86.457545861369,132.56571109921788 87.37257654638961,133.52481997210998 86.86015936266631,132.70957761097816 86.31114095170051,133.28504301965586 86.64055199851282,134.62779167221743 88.69022073294036,137.74486534291646 91.14250296866521,139.90282188664423 92.02093242644332,137.93668428331148 91.50851524295285,136.97758844745113 92.27714101830497,137.74486534291646 91.801325062057,140.5741832186468 93.99739870615304,142.2046263863158 101.79346014279872,143.45143034140347 107.39344793511555,147.0 113.79866273072548,145.65730252946378 115.07970568956807,143.64324590930482 114.27447868674062,114.67781125710462 113.24964431952685,112.61560392580577 110.94376699323766,110.88909468697966 107.94246634631418,109.114617287094 104.57515342533588,110.02583662327379 102.41568100848235,107.1003338857845 99.37777913408354,97.26853308192221 100.65882209339179,96.74096461839508 101.50065032346174,99.09103572080494 103.84312887722626,99.47471918261726 104.68495710752904,97.9399826133158 103.69672396755777,93.28776804020163 101.64705523313023,93.0 100.18300613691099,93.95922580821207 97.95033126557246,94.1031094349164 95.5346502570901,95.58990317507414 89.23923914390616,96.35727792416583 85.3961102666799,97.98794324102346 86.38434340641834,103.0717295765644 84.99349676514976,106.76461877016118 84.92029431043193,116.74000548466574 85.35950903920457,126.71508559866925 86.49414708884433,131.41477671073517" stroke="#4DD2FF" stroke-linecap="round" stroke-linejoin="round" stroke-width="0.5"><title>2025-03-25 3.9km</title><desc>1742910133000</desc></polyline><polyline fill="none" points="168.58655431307852,93.0 150.55479025747627,108.46890655346215 149.48147096857429,114.93768474587705 155.06273127160966,144.46878421877045 162.36130243632942,145.5937694257591 169.44520974252373,140.25008377002086 167.08390730712563,112.12517518980894 163.00529401004314,106.21889159397688 153.77474812511355,106.78139558318071 150.55479025747627,118.59394095849711 153.34542040992528,143.34379834623542 162.57596629392356,145.87501562351827 168.80121816974133,140.53133075812366 167.9425627393648,110.43766746087931 157.85336142219603,104.25012632331345 151.41344568971545,109.31266147701535 150.76945411600173,139.96883674152195 160.21466385852545,145.5937694257591 168.37189045455307,141.09382460743655 168.58655431307852,115.21893547428772 166.43991573434323,107.90640306309797 160.4293277161196,104.53137862996664 155.2773951292038,104.53137862996664 149.69613482616842,111.84392400505021 150.98411797359586,139.96883674152195 158.49735299590975,146.15626177960075 168.58655431307852,141.09382460743655 167.51323502324522,110.71891885285731 159.14134456962347,104.25012632331345 149.48147096857429,113.81268142233603 150.125462542288,139.96883674152195 160.85865543130785,145.5937694257591 169.0158820282668,138.00010637543164 168.58655431307852,111.2814215120161 161.0733192898333,103.68762158614118 150.98411797359586,109.31266147701535 149.69613482616842,138.00010637543164 155.70672284439206,145.87501562351827 160.4293277161196,146.15626177960075 169.0158820282668,137.43761161109433 167.51323502324522,108.46890655346215 157.85336142219603,103.9688739759149 150.125462542288,114.37518316728529 151.19878183119,141.09382460743655 156.13605056051165,145.5937694257591 162.57596629392356,145.0312769053271 169.65987360104918,136.87511668039951 167.08390730712563,108.46890655346215 156.5653782756999,105.09388311696239 150.125462542288,114.93768474587705 152.70142883528024,143.06255177466664 160.85865543130785,146.43750789470505 169.0158820282668,141.37507147050928 169.0158820282668,115.50018615962472 168.1572265960276,109.59391303581651 160.85865543130785,103.68762158614118 150.98411797359586,107.6251512557501 150.55479025747627,140.53133075812366 159.3560084272176,145.5937694257591 165.36659644544125,144.46878421877045 169.87453745864332,138.5626009728294 168.1572265960276,110.43766746087931 161.50264700502157,103.9688739759149 152.70142883528024,106.21889159397688 149.69613482616842,111.2814215120161 150.34012639895082,138.00010637543164 160.21466385852545,147.0 169.65987360104918,143.34379834623542 170.51852903142571,114.09393231594004" stroke="#4DD2FF" stroke-linecap="round" stroke-linejoin="round" stroke-width="0.5"><title>2025-03-24 4.1km</title><desc>1742817301000</desc></polyline><polyline fill="none" points="40.13381682522595,156.85718360263854 35.584044732153416,153.7013065761421 28.893203420564532,160.0130564342253 29.696104378439486,194.72738061309792 39.33091586828232,206.29870917182416 51.9096975363791,197.5325563538354 51.37443023175001,162.11696932278574 44.14832161273807,154.05195978586562 28.625569767318666,158.9610992895905 29.696104378439486,195.77932190382853 37.72511395253241,205.59741813805886 43.61305430904031,205.94806368136778 51.9096975363791,198.23384976992384 50.57152927387506,161.76631730468944 39.59854952059686,153.350653313566 28.357936115935445,163.5195768799167 28.893203420564532,193.6754388550762 38.528014910407364,207.0 51.37443023175001,199.98708240594715 52.177331189624965,162.81827320461161 37.45748030114919,153.0 30.231371683999896,159.311751722591 28.893203420564532,194.3767334120348 41.20435143541545,207.0 51.37443023175001,199.6364359825384 51.106796578504145,160.0130564342253 37.45748030114919,153.0 29.428470726124942,163.5195768799167 29.963738031685352,200.33772877790034 39.59854952059686,207.0 52.71259849332273,199.6364359825384 50.30389562062919,160.0130564342253 41.739618740044534,153.0 29.696104378439486,162.11696932278574 30.231371683999896,197.5325563538354 39.063282215967774,206.29870917182416 51.9096975363791,200.33772877790034 50.57152927387506,164.57153200404719 37.45748030114919,153.0 27.019767854362726,163.5195768799167 29.1608370738104,195.42867485899478 35.85167838539928,205.59741813805886 50.83916292525828,200.33772877790034 51.64206388313323,161.76631730468944 42.274886045604944,153.350653313566 27.822668810375035,162.11696932278574 28.625569767318666,195.0780277615413 39.33091586828232,205.59741813805886 45.48648987617344,205.24677254376002 52.980232145637274,196.12996889674105 51.9096975363791,163.1689250683412 47.62755909562111,155.80522505985573 37.99274760577828,153.350653313566 28.625569767318666,165.27283515990712 29.963738031685352,196.48061583889648 37.45748030114919,205.94806368136778 51.37443023175001,199.6364359825384 51.64206388313323,162.11696932278574 46.8246581396088,155.1039191056043 35.85167838539928,153.350653313566 29.1608370738104,163.1689250683412 29.963738031685352,198.23384976992384 37.99274760577828,207.0 52.177331189624965,199.6364359825384 52.980232145637274,163.1689250683412 43.61305430904031,207.0" stroke="#4DD2FF" stroke-linecap="round" stroke-linejoin="round" stroke-width="0.5"><title>2025-03-23 4.2km</title><desc>1742719228000</desc></polyline><polyline fill="none" points="92.83754232060164,153.0 88.06257053371519,159.25616457359865 90.57571357954293,200.74396944977343 102.89011450391263,205.0244133027736 113.19400099106133,192.51232355018146 110.93217225000262,166.17085235426202 95.09937106166035,156.951263879193 87.81125622987747,169.1342834061943 89.82177066616714,199.75617354759015 98.61777132656425,205.35367787373252 110.93217225000262,197.78058042842895 109.67560072615743,164.19522946304642 96.35594258457422,155.96344856568612 87.81125622987747,164.5245000666473 89.06782775186002,198.43911166349426 99.62302854284644,206.67073567118496 106.40851476788521,204.69514868268743 111.18348655384034,196.79278321261518 110.42954363953322,166.82939292839728 96.60725688934326,156.29272038582712 91.32965649385005,157.60980717791244 87.30862762127072,169.7928231060505 90.07308497093618,200.41470419778489 105.40325754974037,205.0244133027736 114.7018868168816,199.75617354759015 111.43480085860938,165.5123115850147 95.09937106166035,157.280535553582 87.05731331557035,170.12209288217127 88.06257053371519,197.12204899964854 95.60199967119843,205.68294239602983 109.17297211755067,206.01220686966553 110.68085794523358,202.39029498165473 111.93742946721613,168.80501348385587 104.9006289402023,158.5976217610296 97.36119980178773,156.951263879193 88.56519914325327,163.86595881171525 88.06257053371519,200.08543889643624 102.38748589530587,206.01220686966553 111.43480085860938,195.8049855590798 109.67560072615743,163.86595881171525 100.6282857619226,156.62199215730652 91.83228510338813,156.62199215730652 85.2981131831184,175.7196716372855 91.07834218814969,202.39029498165473 101.63354298006743,204.69514868268743 113.19400099106133,195.14645354636014 108.92165781278163,161.8903338771779 94.34542814828455,157.280535553582 90.07308497093618,159.5854359071236 87.05731331557035,182.96357621718198 92.08359940722585,204.69514868268743 104.39800033159554,205.68294239602983 111.43480085860938,194.81718746689148 107.66508628986776,162.21960482071154 99.12039993517101,154.3170887385495 88.31388483848423,160.90252075367607 88.56519914325327,199.42690814984962 98.36645702086389,207.0 112.1887437729165,198.76837720745243 109.67560072615743,162.8781465627253 98.11514271702617,154.3170887385495 87.81125622987747,162.5488757158164 88.06257053371519,196.79278321261518 99.62302854284644,206.3414712951053 110.68085794523358,200.41470419778489 109.67560072615743,166.82939292839728" stroke="#4DD2FF" stroke-linecap="round" stroke-linejoin="round" stroke-width="0.5"><title>2025-03-21 4.2km</title><desc>1742565279000</desc></polyline><polyline fill="none" points="162.66185700520873,155.70004547620192 155.44908318296075,153.0 153.38829066231847,155.47504186886363 152.18616169132292,180.22523932519834 161.6314607448876,184.72523201140575 168.84423456620425,177.30023694876581 164.722649525851,155.02503455558326 156.1360140228644,154.57502710924018 150.98403272219002,160.4251135396771 155.62081589270383,183.15023608366027 161.80319345463067,185.6252289529657 167.64210559707135,181.3502387437038 167.47037288639694,158.62508933898062 160.08586635347456,154.1250195298344 154.2469542119652,154.80003084917553 151.15576543100178,160.65011641487945 153.56002337206155,181.8002382776467 160.60106448363513,186.5252253623912 166.6117093358189,182.7002369479742 167.64210559707135,159.52510170533787 161.97492616437376,155.02503455558326 152.18616169132292,156.6000595705118 151.84269627183676,177.52523733128328 155.44908318296075,184.72523201140575 159.570668223314,185.85022810543887 166.6117093358189,182.02523799566552 167.29864017572254,158.40008616470732 165.40958036575466,155.2500382286962 157.85334112402052,154.35002333647572 152.8730925321579,157.72507644153666 151.3274981416762,172.12521898234263 156.82294486369938,185.40022976719774 166.09651120565832,183.60023508651648 167.98557101655751,159.97510768903885 167.29864017572254,156.6000595705118 157.6816084133461,154.57502710924018 152.7013598214835,158.8500924805412 154.93388505186886,181.57523852738086 157.85334112402052,185.40022976719774 166.6117093358189,184.50023269292433 167.47037288639694,165.8251733747311 158.883737382479,178.65023874375038 156.47947944235057,186.9752233675681 158.02507383283228,207.0 166.2682439154014,204.5250418675132 168.15730372723192,188.32521658646874 165.40958036575466,157.0500664183637 156.99467757344246,153.45000791177154 150.98403272219002,158.40008616470732 152.18616169132292,177.97523799550254 160.08586635347456,186.07522722438443 167.29864017572254,181.3502387437038 168.15730372723192,159.75010471360292 159.3989355135709,153.2250039728824 152.8730925321579,157.0500664183637 152.35789440199733,180.45023927500006 159.05547009315342,185.6252289529657 167.12690746597946,180.67523919220548 167.8138383058831,158.62508933898062 159.91413364373147,153.2250039728824 154.07522150222212,156.82506301091053 153.73175608180463,183.60023508651648 158.02507383283228,187.2002223210875 163.34878784418106,186.5252253623912 166.09651120565832,182.47523733007256 169.01596727687865,161.32512484141625" stroke="#4DD2FF" stroke-linecap="round" stroke-linejoin="round" stroke-width="0.5"><title>2025-03-10 4.0km</title><desc>1741591515000</desc></polyline><polyline fill="none" points="54.13482490926981,223.38471204414964 39.86789883393794,214.38463093247265 28.77140077482909,222.34624291118234 29.03560310881585,259.3846907687839 37.22587548568845,266.653850118164 51.492801561020315,258.00008643069305 50.70019455626607,225.11549290991388 43.302529184147716,215.76926104538143 28.242996104992926,222.0000864318572 27.978793769143522,259.0385397602804 34.848054472357035,265.26925007626414 51.75700389686972,259.0385397602804 52.54961090069264,225.461648930097 41.71731517557055,215.07694609183818 29.03560310881585,222.0000864318572 29.828210113570094,259.3846907687839 38.54688716027886,266.30770018394105 47.79396887496114,264.2307995078154 52.28540856484324,257.307783954544 52.28540856484324,227.1924282608088 41.98151751141995,215.42310359422117 28.50719844084233,223.0385557182599 29.03560310881585,255.9231783892028 38.811089494265616,266.653850118164 52.02120623085648,258.3462375921663 50.964396892115474,221.65392990014516 36.4332684809342,215.07694609183818 29.03560310881585,221.65392990014516 29.828210113570094,260.76929428754374 40.132101168856025,266.30770018394105 52.02120623085648,258.00008643069305 51.75700389686972,226.5001166819129 42.7741245161742,215.07694609183818 32.99863813072443,216.11541844671592 27.714591436088085,222.34624291118234 28.242996104992926,257.6539352175314 38.282684825360775,265.9615501991939 51.75700389686972,258.00008643069305 49.90758755244315,220.961616684217 41.18891050759703,213.0 27.45038910023868,222.0000864318572 28.242996104992926,257.6539352175314 41.71731517557055,265.9615501991939 51.22859922796488,257.6539352175314 50.43599222321063,221.65392990014516 40.924708171747625,213.34615780971944 25.865175091661513,223.7308683199808 28.77140077482909,260.0769926297944 44.359338524751365,265.9615501991939 51.492801561020315,258.69238870195113 50.17178988736123,219.92314647766761 36.4332684809342,214.73078853730112 28.242996104992926,221.65392990014516 28.242996104992926,257.6539352175314 41.71731517557055,266.30770018394105 52.02120623085648,258.00008643069305 52.54961090069264,223.7308683199808 40.66050583869219,214.73078853730112 27.714591436088085,224.76933683943935 28.50719844084233,261.11544503993355 37.22587548568845,267.0 50.70019455626607,258.00008643069305 53.870622573420405,223.38471204414964" stroke="#4DD2FF" stroke-linecap="round" stroke-linejoin="round" stroke-width="0.5"><title>2025-03-09 4.1km</title><desc>1741514669000</desc></polyline><polyline fill="none" points="90.54299012944102,244.4384978308808 99.29425299540162,262.56168776913546 106.63402185030282,262.9315474226605 115.38528471626341,254.0549006673973 110.8685038825497,213.36986697558314 91.38988653477281,213.0 84.0501176789403,221.50692661153153 95.05977096222341,257.75350730656646 112.2799978936091,261.08224861091 117.36137633118778,245.17822243762203 111.15080268401653,221.50692661153153 116.23218112252653,218.17813268490136 87.15540450345725,230.01382431411184 88.56689851358533,225.57544651068747 99.29425299540162,232.2330102652777 95.05977096222341,240.37000858737156 97.88275898434222,262.56168776913546 110.30390627775341,262.1918280622922 116.51447992492467,252.57545648165978 105.50482664164156,216.32880081306212 88.56689851358533,214.47946757427417 82.63862366881222,223.72612010408193 91.67218533623964,244.80836016172543 91.10758773330599,257.01378641696647 105.22252783924341,266.63014094741084 113.12689429987222,252.20559529867023 108.61011346429586,220.76719501032494 93.36597814969718,213.36986697558314 83.48552007600665,221.50692661153153 89.97839252464473,259.9726686680224 106.91632065270096,267.0 113.97379070613533,256.2740653073415 112.2799978936091,215.58906768076122 93.64827695209533,214.47946757427417 89.1314961174503,231.49328183359466" stroke="#4DD2FF" stroke-linecap="round" stroke-linejoin="round" stroke-width="0.5"><title>2025-03-05 1.9km</title><desc>1741161630000</desc></polyline></svg>