<?xml version="1.0" encoding="utf-8" ?>
<svg baseProfile="full" height="300mm" version="1.1" viewBox="0,0,200,300" width="200mm" xmlns="http://www.w3.org/2000/svg" xmlns:ev="http://www.w3.org/2001/xml-events" xmlns:xlink="http://www.w3.org/1999/xlink"><defs /><rect fill="#222222" height="300" width="200" x="0" y="0" /><text fill="#FFFFFF" style="font-size:12px; font-family:Arial; font-weight:bold;" x="10" y="20">Over 10km Runs</text><text fill="#FFFFFF" style="font-size:4px; font-family:Arial" x="10" y="280">ATHLETE</text><text fill="#FFFFFF" style="font-size:9px; font-family:Arial" x="10" y="290">TXyy2025</text><text fill="#FFFFFF" style="font-size:4px; font-family:Arial" x="65" y="280">SPECIAL TRACKS</text><rect fill="yellow" height="2.6" width="2.6" x="65" y="283" /><text fill="#FFFFFF" style="font-size:3px; font-family:Arial" x="70" y="285.5">Over 20.0 km</text><rect fill="red" height="2.6" width="2.6" x="65" y="287" /><text fill="#FFFFFF" style="font-size:3px; font-family:Arial" x="70" y="289.5">Over 40.0 km</text><text fill="#FFFFFF" style="font-size:4px; font-family:Arial" x="120" y="280">STATISTICS</text><text fill="#FFFFFF" style="font-size:3px; font-family:Arial" x="120" y="285">Number: 20</text><text fill="#FFFFFF" style="font-size:3px; font-family:Arial" x="120" y="290">Weekly: 2.9</text><text fill="#FFFFFF" style="font-size:3px; font-family:Arial" x="141" y="285">Total: 158.7 km</text><text fill="#FFFFFF" style="font-size:3px; font-family:Arial" x="141" y="290">Avg: 7.9 km</text><text fill="#FFFFFF" style="font-size:3px; font-family:Arial" x="167" y="285">Min: 1.5 km</text><text fill="#FFFFFF" style="font-size:3px; font-family:Arial" x="167" y="290">Max: 35.9 km</text><polyline fill="none" points="40.12884016241878,53.278962662559934 21.30442937463522,39.77891678828746 26.456373379565775,65.22122447984293 32.59907584730536,72.49038758815732 38.3454749295488,71.71155012224335 43.101115548983216,66.00006482249591 41.71405370160937,42.375087511958554 34.97689615748823,33.54809140274301 31.013862307183444,34.06732769543305 26.258221687749028,41.07700262905564 27.64528353512287,66.25967819313519 33.39168261643499,72.75 41.5159020088613,69.89426135877147 41.119598624296486,39.77891678828746 35.96765461936593,32.25 26.852676764130592,35.884653511457145 27.84343522787094,64.7019973929273 33.39168261643499,72.230775138014 42.30850877985358,67.03851807618048 43.299267241731286,41.336619682610035 38.54362662229687,34.32694578473456 31.80646907631308,34.32694578473456 26.06006999500096,39.5192995055113 27.84343522787094,67.81735761335585 34.58059277292341,72.75 43.497418934479356,63.66354275832418 41.912205395288765,38.221212513162754 36.165806312114,32.50961835763883 25.267463224940002,41.336619682610035 28.437890305183828,68.85580979275983 36.36395800486207,72.75 42.90296385716647,67.55774447298609 41.912205395288765,39.25968218327034 38.93993000686169,34.586563834687695 31.80646907631308,33.28847319853958 26.258221687749028,41.59623669728171 27.248980149626732,66.51929152617231 30.815710614435375,71.19232495315373 38.54362662229687,71.71155012224335 43.299267241731286,63.66354275832418 41.912205395288765,39.77891678828746 32.995379231870174,34.06732769543305 26.06006999500096,41.85585367353633 27.64528353512287,67.81735761335585 31.80646907631308,72.49038758815732 42.90296385716647,67.55774447298609 42.90296385716647,42.894321195664816 34.58059277292341,32.50961835763883 26.456373379565775,38.4808299880242 26.258221687749028,64.7019973929273 28.834193689748645,70.15387415396981 35.571351234801114,72.75 43.6955706262961,66.51929152617231 41.912205395288765,39.00006482366007 35.175047849304974,32.76923667616211 25.86191830225289,41.59623669728171 27.050828457809985,64.44238379155286 31.80646907631308,72.230775138014 42.50666047260165,68.07697071530856 42.30850877985358,40.8173855378991 36.36395800486207,33.54809140274301 27.64528353512287,37.44235985807609 26.258221687749028,63.923156474367715 31.80646907631308,71.97116264945362 42.7048121644184,67.81735761335585 43.299267241731286,42.63470437307842" stroke="#4DD2FF" stroke-linecap="round" stroke-linejoin="round" stroke-width="0.5"><title>2025-04-19 4.1km</title><desc>1745066356000</desc></polyline><polyline fill="none" points="77.90673248190433,35.18095158133656 71.39901277702302,34.11515155725647 67.53505420312285,39.71059465617873 69.16198412887752,63.9573141366709 75.059605111368,71.41777762514539 86.85484707541764,66.62176892568823 87.26157955732197,40.776391373132356 85.43128339014947,35.98030118574388 77.2966337595135,32.25 68.95861788839102,38.91124670521822 70.58554781414568,67.95399484352674 75.66970383375883,72.48355560388882 83.39762098249048,71.68422217830084 86.24474835395813,64.75665098696481 87.05821331590414,40.50994225253817 85.43128339014947,35.44740148913115 77.70336624141783,33.04935090406798 69.16198412887752,38.378347874153405 71.60237901844084,68.22043990856037 80.95722609385848,71.68422217830084 87.26157955732197,65.02309652476106 86.24474835395813,42.10863638378214 77.09326751809567,33.848701453069225 68.55188540648669,39.977043894003145 69.77208285126835,64.49020540947095 77.90673248190433,72.48355560388882 83.80435346439481,70.35199901589658 86.44811459351331,62.625085266074166 86.0413821125403,38.64479730895255 78.51683120429516,32.78290064178873 68.75525164790452,41.30928949522786 69.56871661078185,62.625085266074166 77.09326751809567,71.95066669315565 85.83801587112248,67.4211045941338 86.24474835395813,40.776391373132356 78.51683120429516,32.78290064178873 69.77208285126835,39.44414537830744 69.56871661078185,64.75665098696481 72.41584398038685,69.81910947547294 80.95722609385848,70.88488839927595 86.65148083493114,63.69086844148114 85.83801587112248,37.845448885113 81.77069105673581,33.31580112618394 73.83940766658634,33.04935090406798 68.95861788839102,41.84218746074475 70.78891405556351,68.22043990856037 79.12692992668599,72.21711116831284 85.22791714873165,67.4211045941338 85.22791714873165,44.24022635363508 79.533662407659,34.914501634659246 74.85623886995018,33.848701453069225 68.34851916506886,39.17769606120419 69.56871661078185,63.42442270705942 79.33029616810381,72.75 85.02455090917647,69.28621977730654 87.46494579687715,46.10536551068071 85.6346496315673,36.24675097526051 81.16059233434498,32.78290064178873 69.56871661078185,39.71059465617873 70.38218157365918,67.95399484352674 74.24614014755934,71.95066669315565 85.02455090917647,68.48688493506052 85.6346496315673,44.50667492242064 78.31346496287733,33.848701453069225 70.17881533224136,37.046100107370876 69.56871661078185,64.49020540947095 73.025942703709,71.15133303124458 83.80435346439481,70.08555426553357 87.05821331590414,42.641534112393856" stroke="#4DD2FF" stroke-linecap="round" stroke-linejoin="round" stroke-width="0.5"><title>2025-04-17 3.9km</title><desc>1744894073000</desc></polyline><polyline fill="none" points="103.40659964008955,59.40811803972974 103.6220757374249,59.53266249120861 104.2399851341761,59.387360577486106 104.61073077224137,59.16317900825197 105.26983412877598,59.0344813734373 105.54868554885616,59.09260295891181 105.88774352554174,58.97635966773851 106.82252953603165,58.810296989066046 107.58303340896964,58.57365597636999 108.56535091150727,58.17094651392108 108.9899655738991,58.09206460306996 109.84236366480764,58.229069885499484 110.10854002034466,58.179249860080745 112.2157695016067,58.57780759025991 114.79514513730828,59.8647783300712 116.88653078788775,60.18443611810835 117.02595649793511,60.342187972262764 117.18756357092934,60.41276088349696 118.17938737188524,60.57881409320362 118.42021359830687,60.40030685322017 120.63518112823658,60.71165595454477 122.04211329316604,60.591268044374374 124.70070808230957,60.927522640011375 124.45354432359454,60.85279974421974 124.96054690556775,60.00177497016921 125.45487442296871,58.594414039682306 125.97455206948507,57.78898993839357 126.28509115091583,57.157919873096034 127.73638604178268,53.77813238518138 128.51273374540324,52.26249366929369 128.9817111337179,50.95441095509523 129.7295399420982,49.97850004960128 130.87980204992346,51.01670198940337 132.11878960957984,52.951807990075395 132.1219583757047,53.063923780369805 131.58326813239546,54.268102206351614 131.79557546357682,55.33936238921342 132.86028088568128,55.97462529790573 133.899636178714,55.86667313688122 134.48902668022492,55.94556129534794 134.56824583366688,56.086729026126704 134.52705187388347,56.89635378350431 134.58725843048887,57.04166857832024 134.76154056802625,57.26171526556209 135.05623581880354,57.41117995717286 135.30656834364345,57.647830759602584 135.58858852983394,57.9965756778638 135.67414521555474,58.0173341674672 135.75970190124644,57.93014840807882 135.73118300600618,57.61876848770771 135.99419059543288,57.14961622512055 136.21283545887854,56.35660653734885 136.3332485721039,56.261111714326034 136.45683045145415,56.23619996798698 136.6944879117509,56.31508708895308 137.21416555823816,56.232048008108904 137.79721852749935,56.369062359897725 137.99051326187328,56.59741812816719 138.32323370628,56.593266221665544 138.3739339644817,56.76349388488234 138.1838079962472,57.045820418552466 138.44364681949082,57.39457280847455 139.12176277286198,57.573099142569845 139.3784328299953,57.79729339741607 139.62876535482064,57.88447956901291 140.44630701822462,58.40343927886897 140.97865972928412,58.47816868766495 141.38426179485396,58.86426746727375 141.4159494562191,59.07599680389649 141.22265472184517,59.30848208112002 141.13392927001405,59.56587425172984 140.84240278539073,60.034986176278835 140.88676551131357,60.632781175107084 141.0673851811298,60.24670669263833 141.5078436742042,59.7692954284048 141.69480087629927,59.27527001642011 141.78035756200552,59.25036094212919 141.97048353024002,59.45378440269633 141.9292895704566,58.93069252892201 142.6105742899672,58.154339814254854 142.75,57.456849565463926 135.95933416791377,47.694320696264185 135.40163132775342,47.407746899009 135.21150535951892,46.822130481039494 134.91364134261676,46.489860416995725 134.72668414052168,46.30711020610579 134.01054299350653,45.875150434705574 133.42432125812047,45.27704132069084 133.09793834597804,44.15555239547393 132.28990298099234,44.072477359986806 132.2138525936898,44.163859885497004 132.16315233550267,44.63322908009286 132.06808935137815,46.186660553268666 131.95084500430676,46.572928301551656 131.31709177684388,47.64032875512021 130.01472889445722,49.55905558282029 129.04508645646274,50.78830085494883 128.26556998670276,51.49426199679874 127.28642125029,53.18849635593688 125.58796260075178,57.274170686900106 125.47705578593013,57.73501739493986 125.38833033409901,58.69405253009427 124.96688443783205,59.96856372481125 124.4155191299651,60.88600994463923 123.547277208374,60.7158072525981 122.15302010797313,60.60372199003723 120.61933729753946,60.6992020567086 118.43922619512887,60.371247427774506 118.16037477506325,60.57466277492313 117.2224199984339,60.408609540687394 117.00377513495914,60.31727984364261 116.88653078788775,60.16783060826856 114.77930130662571,59.84402120513914 112.22844456614985,58.55289789773269 110.24162819811318,58.17509818731378 110.00713950394129,58.13773310475517 109.82018230184622,58.19585654503135 108.98045927548083,58.05469941010233 108.55584461310355,58.13773310475517 106.86055472967564,58.77708433556654 105.94478131600772,58.93899565059837 105.46629762928933,59.084299882635605 105.25715906421829,59.03032982701552 104.6741060949862,59.12996677182127 104.52517408653512,59.17978511174624 104.29702292465663,59.36660309991021 103.56503794695891,59.53266249120861 103.3210429543833,59.25866396934725 103.34322431734472,58.43665237398818 102.75066504967981,58.27058650586696 102.33872545184568,57.77653474525505 102.25,57.52327795412748 102.52251388780132,57.502519099538404 102.56053908144531,57.46100134435983 102.50983882324363,57.3572066880206" stroke="yellow" stroke-linecap="round" stroke-linejoin="round" stroke-width="0.5"><title>2025-04-14 32.8km</title><desc>1744614550000</desc></polyline><polyline fill="none" points="173.52175184339285,45.39945167233236 170.51087592262775,35.1428877026774 161.87969828024507,33.564949538442306 158.2666471740231,40.66566026059445 158.2666471740231,65.12344704743009 164.08767395559698,72.22403187991586 170.71160098351538,71.96104776125867 174.92682727333158,66.70135723531712 173.92320196609944,40.13968266022857 165.09129926282912,33.82793932990171 158.46737223584205,40.66566026059445 158.0659221112728,65.12344704743009 163.48549877107143,71.69806360465009 173.92320196609944,69.3312044411432 175.12755233515054,40.13968266022857 169.50725061446428,33.82793932990171 158.46737223584205,40.13968266022857 158.46737223584205,63.28255005902611 163.88694889377803,72.48701595957391 171.11305110622197,71.43507940787822 175.7297275196761,65.64941726555116 174.72610221151263,39.08772699290421 164.68984914012253,33.82793932990171 157.46374692767859,41.71761499589775 159.87244766484946,68.27926602517255 165.89419950917363,72.48701595957391 175.7297275196761,66.17538732779212 175.52900245785713,41.45462637045421 169.9087007381022,33.564949538442306 165.69347444735467,32.77597993193194 158.46737223584205,39.08772699290421 158.86882235854864,64.59747667354532 164.28839901741594,72.75 175.52900245785713,68.01628132443875 174.72610221151263,38.56174892548006 167.09854987822473,32.25 162.08042334020138,33.564949538442306 158.0659221112728,41.1916377057787 159.0695474203676,66.43837230128702 166.6970997536555,72.22403187991586 176.13117764238268,66.17538732779212 175.7297275196761,41.1916377057787 169.1058004917577,33.03896983957384 164.28839901741594,33.301959708100185 157.8651970513165,39.87669380160514 158.2666471740231,64.59747667354532 160.07317272666842,69.06821989524178 168.10217518452555,72.48701595957391 176.73335282690823,63.54553545976523 175.32827739603817,38.035770703689195 167.09854987822473,33.301959708100185 158.0659221112728,40.13968266022857 159.0695474203676,66.964342131163 162.88332358654588,71.69806360465009 169.9087007381022,72.48701595957391 176.33190270327032,65.38643217575736 176.13117764238268,41.1916377057787 170.31015085987747,32.51298998587299 162.48187346477062,34.87989810539875 159.47099754214287,39.87669380160514 158.2666471740231,63.54553545976523 165.49274938553572,72.22403187991586 175.52900245785713,67.22732698789332 175.7297275196761,38.56174892548006 170.1094257980585,32.77597993193194 164.68984914012253,33.03896983957384 158.66809729672968,41.1916377057787 158.86882235854864,66.964342131163 166.09492457006127,72.48701595957391 176.93407788686454,69.85717341618147 177.53625307232141,40.928649002918974" stroke="#4DD2FF" stroke-linecap="round" stroke-linejoin="round" stroke-width="0.5"><title>2025-04-09 4.1km</title><desc>1744204461000</desc></polyline><polyline fill="none" points="16.85576081648469,121.5 21.75636586174369,115.57323202758562 20.813941814936697,111.62204170483164 26.28000128827989,114.09153675113339 26.28000128827989,109.1525430092588 26.46848609764129,112.11594100552611 25.14909243118018,108.16474250948522 24.960607622750103,111.86899137345608 22.51030509918928,110.38729281304404 24.583638004027307,117.05492599087302 20.43697219528258,108.65864283242263 24.206668384373188,112.36289060104173 22.69878990855068,120.01830997737125 24.206668384373188,116.80797708861064 21.379396243020892,114.58543532283511 24.960607622750103,108.41169268963858 22.51030509918928,117.05492599087302 23.82969876565039,113.8445874103345 25.903031669557095,118.78356728772633 24.206668384373188,113.35068862035405 20.24848738592118,119.52441301045474 21.944850670173764,114.83238455373794 24.772122812457383,117.05492599087302 21.379396243020892,118.78356728772633 24.206668384373188,114.33848605491221 24.583638004027307,118.28966995736118 21.567881051450968,111.37509199907072 22.51030509918928,120.2652584053576 26.65697090793401,105.94218925095629 22.51030509918928,120.51220679713879 23.264244337566197,111.37509199907072 24.960607622750103,120.01830997737125 22.133335480466485,110.88119247893337 24.960607622750103,107.9177922931267 21.75636586174369,103.96658387372736 25.526062050834298,112.36289060104173 21.944850670173764,111.62204170483164 20.813941814936697,118.78356728772633 22.321820289827883,111.62204170483164 24.395153193734586,113.8445874103345 21.567881051450968,115.32628290622961 25.526062050834298,111.62204170483164 27.410910145379603,113.8445874103345 25.71454686112702,112.11594100552611 24.395153193734586,117.3018748566974 27.033940525725484,115.57323202758562 22.69878990855068,118.53661864087917 25.71454686112702,119.52441301045474 22.133335480466485,114.33848605491221 25.526062050834298,114.58543532283511 24.018183575943112,119.27746447268873 24.395153193734586,108.41169268963858 31.55757595319301,111.12814225710463 22.321820289827883,116.0671301613329 23.82969876565039,118.28966995736118 23.452729145996273,113.35068862035405 24.583638004027307,120.2652584053576 21.75636586174369,114.58543532283511 28.353334193117917,116.31407917384058 25.337577240541577,120.01830997737125 25.71454686112702,110.88119247893337 22.69878990855068,113.5976380337961 25.903031669557095,113.5976380337961 24.018183575943112,117.54882368631661 21.75636586174369,106.43609023047611 25.337577240541577,107.9177922931267 23.0757595282048,116.56102814897895 21.190911433659494,113.35068862035405 27.033940525725484,112.85678968357388 24.583638004027307,109.39949304272886 32.123030382208526,111.37509199907072 35.704241761006415,88.90251608379185 48.14423918351531,88.16165678820107 47.57878475636244,81.0" stroke="#4DD2FF" stroke-linecap="round" stroke-linejoin="round" stroke-width="0.5"><title>2025-04-07 1.9km</title><desc>1744030807000</desc></polyline><polyline fill="none" points="78.1675824187696,100.37538905022666 57.25,93.96125606168061 75.05219780094922,92.79504894488491 66.15109890140593,93.37815254647285 77.27747252583504,82.88227453012951 68.82142857089639,83.46537959598936 72.38186813145876,106.20640999195166 75.94230769015849,92.21194525598548 71.04670329578221,102.70779846119694 71.49175824224949,84.04848457593471 71.04670329578221,113.78672433970496 74.60714285634458,102.70779846119694 79.94780219718814,107.95571459643543 74.16208791173995,109.70501842326485 68.82142857089639,86.96400818647817 73.71703296713531,113.78672433970496 66.59615384601057,94.54435949050821 74.16208791173995,97.45987534802407 74.16208791173995,87.54711264930665 79.94780219718814,107.37261314713396 75.94230769015849,103.2909005980473 73.71703296713531,112.62052308116108 68.82142857089639,95.71056609181687 71.49175824224949,101.54159392765723 79.5027472525835,96.29366926313378 72.38186813145876,119.61772546987049 80.83791208639741,105.04020649427548 71.93681318685412,112.03742232080549 68.82142857089639,102.70779846119694 73.27197802066803,109.70501842326485 83.95329670235515,99.20918382704258 75.4972527474165,103.2909005980473 79.94780219718814,111.45432147523388 75.4972527474165,106.78951161238365 75.94230769015849,83.46537959598936 70.15659340657294,104.45710461423732 76.38736263662577,96.29366926313378 70.15659340657294,85.21469427994452 73.27197802066803,100.37538905022666 77.72252747230232,95.12746283481829 69.26648351363838,113.20362375327386 67.04120878875256,95.12746283481829 72.38186813145876,109.70501842326485 73.27197802066803,97.45987534802407 65.26098901033401,102.70779846119694 62.14560439437628,86.96400818647817 75.94230769015849,114.95292525505647 71.93681318685412,105.62330828630365 81.72802197933197,89.29642552370206 75.94230769015849,112.62052308116108 70.15659340657294,102.12469623680227 74.60714285634458,87.54711264930665 68.3763736244291,110.28811952774413 63.03571428358555,100.37538905022666 75.94230769015849,95.12746283481829 78.1675824187696,103.2909005980473 71.49175824224949,96.87677234923467 70.15659340657294,102.70779846119694 82.1730769239366,95.12746283481829 71.93681318685412,107.37261314713396 75.94230769015849,119.03462574351579 69.26648351363838,93.96125606168061 76.38736263662577,99.79228648217395 80.83791208639741,92.79504894488491 67.04120878875256,91.0457376211416 71.49175824224949,106.20640999195166 75.4972527474165,85.21469427994452 69.71153846010566,100.37538905022666 67.04120878875256,89.29642552370206 63.48076923005283,116.1191258255858 69.26648351363838,89.87952964240685 78.61263736151159,98.62608108692802 69.71153846010566,96.87677234923467 69.26648351363838,84.04848457593471 68.82142857089639,118.45152593264356 70.15659340657294,101.54159392765723 79.5027472525835,99.20918382704258 71.04670329578221,84.63158947066404 80.83791208639741,104.45710461423732 73.27197802066803,85.79779900121503 67.93131867982447,94.54435949050821 77.27747252583504,90.46263367426582 68.82142857089639,102.12469623680227 74.16208791173995,117.86842603422701 62.14560439437628,86.96400818647817 68.3763736244291,107.37261314713396 78.1675824187696,110.28811952774413 75.4972527474165,95.12746283481829 97.75,91.0457376211416" stroke="#4DD2FF" stroke-linecap="round" stroke-linejoin="round" stroke-width="0.5"><title>2025-04-06 2.6km</title><desc>1743945103000</desc></polyline><polyline fill="none" points="106.01384468493052,107.6566829111598 107.89254455761693,106.96427625929573 108.2760184595827,106.95161012769859 108.97529439847858,107.07827119100511 109.19119987270096,107.01071869376574 111.42759388925333,107.4371411550037 114.0281269891857,108.74592283590209 116.17106938255893,109.07521975679083 116.29352323361672,109.2187582528586 116.48042647996044,109.30741402264903 117.48905951624329,109.4720597226169 117.75007956715126,109.28630553098083 119.95102641629637,109.60715292187888 121.41725015913835,109.48472473717447 122.69334818587231,109.61559622561799 123.77609802674851,109.80556990059449 123.87921705920598,109.74224548258462 124.36580999364378,108.95278929341112 124.86207033737446,107.52158049157515 125.58712603438471,106.32674066536856 127.05979471674073,102.87282375778886 127.99753341820906,101.0274671936877 128.49057129217545,99.66343137789772 129.23173933802173,98.69209682099608 130.40794080204796,99.76478612429855 131.64536919161037,101.69468080704428 131.63892425208178,101.86781597046138 131.11043921069358,103.06706488368764 131.23933800127998,103.87357369480196 131.35856938255893,104.17759205037328 132.2930856142484,104.74339537763626 132.48965626989957,104.79828614901635 133.40483768300328,104.69694925797194 134.08477880331338,104.77295195994157 134.15889560790674,104.90384502834968 134.10411362189916,105.72296867804471 134.21690006366407,105.96785675616957 134.36835614258598,106.11985519735936 134.65515595163743,106.26340853833062 135.2352005092398,106.87139116390426 135.30609484406887,106.85872499113975 135.37698917888338,106.74472918363244 135.35443189051875,106.4196275311424 135.6347867600416,105.93407921500147 135.82491247613507,105.20785242207057 135.92803150859254,105.08540538861598 136.09559993635048,105.04740447844415 136.34373010821582,105.13185087686543 136.8013208147895,105.0389598248712 137.4554821769707,105.19518551191322 137.62305060471408,105.41896676474607 137.9710773392726,105.42318903569867 138.02908179504448,105.5625236268479 137.84540101846505,105.82007971876192 137.84217854870076,105.92141262675796 138.10319859962328,106.23385349767341 138.83792170592642,106.45340449838113 139.03449236157758,106.63495501325815 139.34707192871429,106.77006162459293 140.12046467218897,107.26403973499873 140.69084182049846,107.34847958306091 141.09687301082886,107.75378738071231 141.11943029917893,107.94799532997422 140.9325270528352,108.16331129618266 140.82296308084915,108.47150583671646 140.54260821134085,108.88524122703711 140.53616327181226,109.48894640745675 140.59416772756958,109.50583308229761 140.74884627627034,109.1554325346442 141.24510662000102,108.60660376560736 141.40300763845153,108.15908943007707 141.5093491406733,108.12109260713441 141.68336250795983,108.31107621666888 141.64791534055257,107.80445045124361 142.21507001909777,107.18804365842698 142.37297103756282,106.93894399049168 142.57598663272802,105.72719090407008 142.53409452579217,105.36829946475882 142.57276416294917,104.82784267453462 142.74355506048596,104.60827918347786 142.75,103.93268862840705 142.6662157861283,103.7046732105955 142.51798217695614,103.53577172792575 141.20965945257922,102.8348199047723 140.70050922979135,102.49700565623789 140.55872056016233,102.27320151689673 140.60705760661222,101.88892994299931 140.34603755570424,101.54265882283653 140.33637014641135,101.07814219214015 139.7305458306946,100.63473290782531 139.64031667727977,100.50804327677724 139.7724379376159,100.14908627099067 139.75310311903013,100.00972527680278 139.67254137492273,99.95904838307979 139.37607415659295,100.07307126753767 138.88948122215515,100.08574044882516 138.51889719924657,99.55785313467095 137.83573360917217,98.94971485658971 137.05267345639004,97.8896650996976 136.26961330363702,97.18857472327909 136.0698201782361,96.63106888811672 135.00318268619594,96.07355217072836 134.84528166771634,95.57938052763166 134.68415817950154,95.33862714245515 134.24912476130703,94.91624787895307 133.61107574793277,94.53187732037986 132.94724697644415,93.85182442838413 132.6701145767147,92.7746888840029 132.46709898153495,92.7197750031246 131.84193984723242,92.69443009940733 131.7710455124179,92.74511988434278 131.7098185868963,93.26890906014705 131.60992202420312,94.81487592619851 131.47780076385243,95.24148046499431 130.87519891789998,96.26783953493032 129.50564926798688,98.28666045292448 128.4873488224257,99.56629940848507 127.94597390199488,100.00972527680278 127.70751113942242,100.28844658533853 126.76332749841094,101.93960341342427 124.99741406748944,106.19163195798865 124.9136298536032,106.5125140949749 124.86207033737446,107.38647743330148 124.43025938891515,108.73747927521435 123.8244350731984,109.77601852296903 122.85447167410166,109.60715292187888 121.45591979632445,109.48050306628829 119.90268936983193,109.59026630689004 117.71463239975856,109.28630553098083 117.51161680459336,109.45939470246049 117.40849777213589,109.4720597226169 116.47075907066755,109.28630553098083 116.17751432210207,109.07099802542325 114.00556970082107,108.72059214636101 111.39536919161037,107.39914337214395 109.21053469127219,107.0022746203922 108.94951464036421,107.06138308166373 108.14389719924657,106.91783374933584 107.82487269255216,106.95583217218882 105.99128739658045,107.64401708645892 104.9375397835829,107.82978195281794 104.55406588160258,107.95643912390733 104.36716263527342,107.90155441868956 103.72266868238512,108.01132372372376 103.34563971993339,108.25197034015582 102.62058402292314,108.42506577616223 102.29833704647899,108.18019875432765 102.31122692552162,108.13798009023776 102.25,108.23086106892151 102.2886696371861,108.15908943007707" stroke="yellow" stroke-linecap="round" stroke-linejoin="round" stroke-width="0.5"><title>2025-04-06 31.5km</title><desc>1743926920000</desc></polyline><polyline fill="none" points="148.2577576112235,107.1622466907993 148.52748097188305,107.41077213285644 149.2121633489296,107.2437943604782 149.47003073769156,107.05739931518292 150.11025322013302,106.94090174067242 150.34737265807053,106.98361757793282 151.55964578452404,106.72732151305172 153.30247365338437,106.08657041728111 153.5099531615706,106.05550330046572 154.2983752927248,106.16812142423441 154.53845872363308,106.11763749738566 156.58361387587502,106.5098562255007 158.93406030442566,107.69036044654786 160.91993559717957,107.99712753599852 161.07702722481918,108.16021744245336 161.2281908665027,108.22622973596845 162.14999268148676,108.3660199279966 162.41675204917556,108.20293129836682 164.4115193208272,108.49027725239466 165.74828015221283,108.37766907709738 167.9831308547873,108.64559808195372 168.5225775761064,107.78743902661154 168.98792447306914,106.49043959448136 169.6400029273791,105.40308536463817 171.03307962529652,102.156288610091 171.85114168617292,100.55216082782499 172.27795667445753,99.33249208970665 173.30942622949078,97.9806911625019 174.5246633489296,96.17429687307049 175.06411007023416,95.23414575497918 175.14710187351739,94.99327517804704 175.32494145198143,93.03903384574551 175.40200526930857,92.9574420795634 175.95923594845226,92.98463936312146 176.11929156907718,93.04680447692226 176.40976288054662,94.08027793945257 176.92549765807053,94.61642484454569 177.57461211942427,95.00104523111986 177.99549912176735,95.42450964844284 178.1081308547873,95.58379266253542 178.2652224824269,96.084945114535 179.2522321428405,96.57831842211817 179.39153981262643,97.06391302360316 180.13253805619024,97.72430727814753 180.83204039811972,98.67990722208924 181.48115485947346,99.25091986763437 181.83683401637245,99.74423372632191 181.9287177985825,99.7869612624927 182.337748829028,99.7325807498546 182.5185524004628,99.65489410799637 182.62525614752667,99.68985312525729 182.63414812643896,99.82580441688879 182.52744437937508,100.16373743734948 183.18545081965567,100.69976021074035 183.1587748828897,101.04545025751577 183.4255342505785,101.44939690980209 183.36625439109048,101.77177295586262 183.4492461943737,101.92713349354926 183.9116290983511,102.25727158645714 185.21874999998545,102.98744463775438 185.36398565572745,103.3331045920786 185.33434572597616,103.78362085428125 185.39066159249342,103.9312020884463 185.83822453160246,104.05159669199202 185.96271223652002,104.13315401329601 185.97753220138839,104.30403519917309 185.70780884074338,104.81278851546813 185.71670081965567,104.97589818090273 185.89750439109048,105.03415138752825 186.35395930912637,104.70016458425744 186.51105093675142,104.74288406324922 186.53772687351739,106.03996972828463 186.608862704903,106.26520562640144 186.79263026930857,106.40500624757806 187.60180035128724,106.56033939903864 187.75,106.69625515355983 187.73814402808785,109.1270868216834 187.60772833722876,109.10767212376413 187.2372292154323,108.83586484750595 186.6503586065519,108.66501312110813 186.3747072599508,108.72714115009876 184.308804156899,109.52702640872121 182.6993559718976,109.5425579204366 182.67268003511708,109.49596335775823 182.92758343089372,108.94070512985854 183.372182377032,108.47862815317603 183.36921838406124,107.83791974656015 183.73675351287238,107.17001314642948 183.92348507024872,106.94866826170437 183.92348507024872,106.82440364983086 183.86124121778994,106.73897138839311 183.53520199061313,106.4166562657756 183.247694672129,106.32345597559652 182.957223360645,106.32345597559652 182.18954918031523,105.82638217987369 181.96132172130456,105.7370632358743 181.74495023417694,105.5545409716542 181.0839798009256,105.37201743992591 180.87946428571013,105.06133617311025 181.0513758782181,104.80502136328141 181.0158079625253,104.63802703632246 180.68384074940695,104.63025983250736 180.51785714285506,104.42831172742808 180.0465822599217,104.31956979735514 179.83910275173548,104.30015154819921 179.4626756440266,104.38947537548302 179.2255562060891,104.31180249941826 179.03586065572745,104.41277719353457 178.86098507024872,105.08852093056521 178.57347775175003,105.58560868060522 178.600153688516,105.88075008414853 178.5438378220133,105.9700685398675 178.454918032774,105.97395194410637 177.99549912176735,105.46910458268758 177.62796399297076,105.24774537389021 177.53015222481918,105.11182212885797 177.45012441450672,104.92929552263377 177.49458430912637,104.1681070735358 177.42641247072606,104.04382931485634 176.8780737704801,103.9739228173512 175.84660421544686,104.06324775339635 174.93073038640432,103.50010721076615 174.82699063229666,103.29038282148395 174.71732289226202,102.41262925390402 175.17970579623943,101.39113575662486 175.18859777515172,101.21246741477262 174.05635245901067,99.44125465852085 173.03081088991894,98.48179789443566 172.71662763463974,98.27203344874215 172.90928717797215,98.36137776925716 172.85889929741097,98.50510495169692 172.28684865338437,99.26257305772924 171.58141832551337,99.8957219501226 170.51438085480186,101.80672915692594 169.04424033957184,105.3875514068659 168.90493266977137,106.59528923161088 168.5077576112235,107.79132216234939 167.93274297422613,108.68831114918976 167.28066451988707,108.53687359761898 165.91722775175003,108.40096735983752 164.42633928569558,108.49416028431551 162.39304010538035,108.19904822340868 162.13813670958916,108.37766907709738 161.22226288054662,108.21458051974696 160.91993559717957,107.98936132473136 158.97259221310378,107.69424359664117 156.55397394613829,106.47878960898561 154.65701844262367,106.12540426167652 154.46732289226202,106.10598734665473 154.31319525759318,106.1564712958716 153.53959309132188,106.02831954312569 153.25504976579396,106.06715347357567 151.6100336650852,106.68460525927549 150.69119584308646,106.84382003416431 150.28216481264099,106.97973432287108 150.0746853044402,106.92536869172727 149.52041861826729,107.02633334580241 149.1439915105293,107.2554440069307 148.46523711942427,107.39523936155456 148.2607216042088,107.1622466907993 148.29332552693086,106.41277292695668 147.68570696721144,106.19142166545498 147.30927985947346,105.69046192720634 147.25,105.51182281188267 147.4960114168498,105.49628891839347 147.55232728336705,105.43026976861802 147.4930474238936,105.38366791599583" stroke="yellow" stroke-linecap="round" stroke-linejoin="round" stroke-width="0.5"><title>2025-04-05 35.9km</title><desc>1743843004000</desc></polyline><polyline fill="none" points="40.227933133021,147.10718388669193 37.46795701608062,153.61611197935417 31.39600955322385,139.1518155792728 29.740023881196976,160.84824415063486 36.363966569304466,145.66075424849987 39.12394268810749,158.67860562168062 30.29201910458505,160.12503141490743 35.25997612066567,139.1518155792728 26.428052539005876,139.1518155792728 43.53990447707474,165.91073031257838 29.740023881196976,147.83039854746312 38.57194746285677,154.33932567713782 29.740023881196976,159.40181857068092 36.9159617908299,141.3214627644047 38.019952239468694,150.7232561185956 25.876057313755155,152.16968426201493 34.707980897277594,156.50896612880751 32.5,169.52678865380585 36.9159617908299,152.16968426201493 37.46795701608062,162.2946693012491 27.532042983919382,147.10718388669193 38.019952239468694,160.12503141490743 30.29201910458505,154.33932567713782 30.29201910458505,160.84824415063486 28.084038211032748,150.0000418862328 41.331923581659794,150.0000418862328 30.29201910458505,129.75 37.46795701608062,163.01788171753287 35.25997612066567,142.04467827780172 36.363966569304466,160.12503141490743 20.908100297674537,150.7232561185956 34.15598567202687,157.95539256371558 31.39600955322385,147.83039854746312 38.019952239468694,157.95539256371558 39.12394268810749,144.21432418050244 34.15598567202687,161.57145677879453 28.084038211032748,155.06253926828504 32.5,168.08036563638598 24.772066866979003,163.7410940276459 31.948004776611924,148.55361309973523 35.25997612066567,163.01788171753287 31.948004776611924,149.27682754583657 43.53990447707474,155.06253926828504 36.9159617908299,144.21432418050244 30.844014327973127,158.67860562168062 26.98004776239395,147.10718388669193 34.707980897277594,155.06253926828504 43.53990447707474,139.1518155792728 33.051995223388076,148.55361309973523 34.15598567202687,170.25 33.051995223388076,146.38396912114695 44.09189970232546,159.40181857068092 37.46795701608062,144.9375392687507 35.25997612066567,162.2946693012491 25.876057313755155,147.83039854746312 35.811971344053745,136.98216743208468 36.363966569304466,164.4643062306568 29.740023881196976,154.33932567713782 34.15598567202687,143.49110898654908 32.5,160.84824415063486 41.331923581659794,152.16968426201493 32.5,164.4643062306568 29.740023881196976,147.10718388669193 43.53990447707474,162.2946693012491 30.29201910458505,153.61611197935417 32.5,168.8035771981813 36.363966569304466,152.8928981735371 27.532042983919382,152.8928981735371 29.188028655946255,161.57145677879453 36.9159617908299,150.7232561185956 26.98004776239395,148.55361309973523 33.60399044677615,164.4643062306568 31.39600955322385,150.7232561185956 36.9159617908299,156.50896612880751 29.188028655946255,165.91073031257838 28.084038211032748,144.21432418050244 36.363966569304466,157.95539256371558" stroke="#4DD2FF" stroke-linecap="round" stroke-linejoin="round" stroke-width="0.5"><title>2025-04-04 1.7km</title><desc>1743771861000</desc></polyline><polyline fill="none" points="84.99373286031187,129.75 76.00125342886895,132.2045735603897 71.1303270701319,139.07736023480538 72.44173032045364,165.58641393459402 78.06202996522188,169.51364517596085 82.18358303699642,168.28638641000725 85.3684195028618,162.39553171617445 84.61904621589929,137.6046226263279 76.00125342886895,133.6773159559816 69.25689385551959,142.7591985425679 71.50501371361315,165.0955093774246 73.56579024903476,168.53183823626023 81.43420975189656,168.77729002514388 85.93044946715236,162.88643707183655 83.12029964476824,138.83190405741334 76.93797003570944,133.4318589803297 69.81892381981015,140.05918458127417 71.1303270701319,165.83186615933664 81.80889639444649,168.53183823626023 86.67982275225222,161.90462621522602 83.49498628731817,136.86825333279558 76.93797003570944,133.4318589803297 71.1303270701319,136.3773402896477 70.1936104632914,163.1318896949524 76.18859674967825,169.51364517596085 86.11779278796166,164.6046046743868 85.3684195028618,140.05918458127417 77.12531335651875,133.6773159559816 68.32017724774778,140.795552460826 69.25689385551959,160.43190884240903 74.87719349935651,169.26819349557627 82.7456130022183,168.04093454848044 86.67982275225222,161.65917341038585 85.18107618018985,140.55009653733578 76.18859674967825,133.4318589803297 68.69486389029771,141.04100834822748 71.1303270701319,166.81367469509132 81.9962397152558,168.04093454848044 86.67982275225222,160.43190884240903 82.93295632302761,138.09553530800622 73.9404768915847,134.65914349351078 68.69486389029771,141.2864641995402 70.75564042665064,165.58641393459402 79.18608989473432,169.51364517596085 85.3684195028618,165.58641393459402 86.67982275225222,160.43190884240903 83.8696729298681,137.11370980076026 73.9404768915847,133.92277289449703 69.25689385551959,142.02283153450117 70.38095378410071,163.86824734753463 75.81391010712832,169.51364517596085 86.11779278796166,163.86824734753463 85.3684195028618,139.07736023480538 76.00125342886895,133.6773159559816 68.69486389029771,139.81372854928486 70.38095378410071,165.83186615933664 73.9404768915847,169.26819349557627 82.37092635873705,168.53183823626023 86.30513610970229,161.41372056945693 85.3684195028618,139.32281637610868 79.74811985809356,133.4318589803297 71.50501371361315,135.1500570451608 68.69486389029771,139.32281637610868 71.31767039187253,167.55003071564715 79.74811985809356,170.25 86.49247943144292,164.1136998264119 85.93044946715236,145.704663314973" stroke="#4DD2FF" stroke-linecap="round" stroke-linejoin="round" stroke-width="0.5"><title>2025-04-02 4.0km</title><desc>1743590878000</desc></polyline><polyline fill="none" points="116.49486293643713,138.7787437911611 113.14773735962808,138.7787437911611 112.75395787879825,158.12589469808154 118.06998085416853,168.44428752467502 130.27714472077787,163.28509873361327 129.4895857628435,147.54947876674123 132.4429318588227,146.2596675629029 127.52068836428225,132.8455745590618 113.73840657901019,134.9092878830852 113.73840657901019,159.15773672470823 118.06998085416853,167.4124509858666 128.70202680304646,164.05897802393883 129.29269602242857,140.06856052030344 124.1735627874732,131.03982339974027 113.14773735962808,136.7150350403972 112.75395787879825,158.6418157875305 117.67620137427002,167.15449175657704 124.1735627874732,168.44428752467502 130.0802549822256,163.02713889430743 129.88336524181068,138.26281683216803 120.62954747118056,130.7818587962538 114.13218605797738,135.4252158330055 113.54151683859527,159.931617844617 121.02332695107907,167.9283693319885 125.55179096572101,167.4124509858666 130.86781394015998,160.1895781419007 129.88336524181068,136.97299876785837 122.79533460922539,130.7818587962538 113.73840657901019,134.1353956728708 114.13218605797738,162.25325914600398 122.5984448697418,168.70224656385835 129.68647550139576,161.47937905532308 130.67092420067638,135.94114363042172 121.8108859108761,130.26592947437894 113.73840657901019,138.26281683216803 114.72285527735949,161.73733912338503 122.79533460922539,168.70224656385835 129.29269602242857,165.3487760797143 131.655372899957,158.6418157875305 129.29269602242857,135.1672518774867 122.40155512932688,130.26592947437894 114.32907579746097,135.68317975127138 114.52596553694457,161.22141894919332 120.62954747118056,168.18632844742388 129.4895857628435,164.3169377114391 130.86781394015998,136.97299876785837 122.20466539077461,130.52389415481593 112.55706814024597,136.7150350403972 113.93529631849378,163.80101829895284 121.8108859108761,169.73408234107774 130.27714472077787,163.80101829895284 129.68647550139576,135.4252158330055 121.8108859108761,130.7818587962538 113.14773735962808,136.4570712755667 115.116634757258,165.3487760797143 121.41710643097758,169.4761234538164 127.71757810469717,168.96020556543954 130.4740344611928,164.05897802393883 130.0802549822256,136.97299876785837 121.6139961713925,129.75 113.54151683859527,136.7150350403972 116.49486293643713,165.0908165446017 119.25131929293275,168.70224656385835 129.29269602242857,170.25 131.655372899957,138.7787437911611" stroke="#4DD2FF" stroke-linecap="round" stroke-linejoin="round" stroke-width="0.5"><title>2025-03-30 4.0km</title><desc>1743343343000</desc></polyline><polyline fill="none" points="176.56361322756857,135.25005688192323 174.46467121690512,137.5000749990577 169.69434846565127,133.25003826594912 171.98410338629037,135.25005688192323 172.17491629626602,132.25002807192504 166.06890317332,129.75 159.581264231354,132.75003324309364 157.10069640073925,157.00010668905452 160.15370296221226,166.5000407216139 168.93109682481736,170.25 176.56361322756857,165.00005468295421 178.09011650830507,158.50009981833864 178.28092941828072,152.25011967262253 173.12898084707558,133.5000407223124 163.77914825361222,131.25001728639472 156.71907058171928,140.7500958867604 161.1077675120905,166.25004314025864 169.88516137655824,169.2500116713345 176.94523904751986,162.50007499800995 175.41873576678336,135.00005468411837 165.87809026427567,131.00001449813135 158.43638677243143,138.5000820911955 160.91695460211486,165.50005017674994 170.6484130155295,168.5000200367067 176.37280031852424,162.50007499800995 175.41873576678336,134.00004552444443 164.16077407356352,131.75002275314182 158.81801259238273,138.5000820911955 159.77207714226097,161.7500803717412 165.30565153434873,168.25002275209408 171.79329047631472,168.25002275209408 177.32686486840248,162.50007499800995 175.60954867769033,135.50005904317368 163.77914825361222,132.25002807192504 157.29150931164622,139.50008859182708 160.15370296221226,163.00007123069372 169.31272264569998,168.5000200367067 177.1360519574955,161.50008208944928 176.37280031852424,138.00007861910854 168.1678451858461,132.50003067567013 163.58833534363657,132.75003324309364 159.1996384114027,138.75008377211634 161.29858042206615,165.25005244847853 171.79329047631472,169.00001449743286 176.56361322756857,162.2500768265454 174.46467121690512,134.75005244964268 167.78621936403215,130.750011672033 159.581264231354,136.75006929284427 160.72614169307053,162.50007499800995 166.25971608422697,169.00001449743286 171.98410338629037,168.25002275209408 176.37280031852424,162.7500731322216 175.99117449764162,137.25007313408423 167.78621936403215,131.50002003787085 159.581264231354,137.75007682770956 159.581264231354,161.25008376967162 164.35158698353916,167.7500280707609 170.07597428560257,169.00001449743286 176.18198740761727,163.75006530201063 175.22792285773903,138.25008037337102 167.21378063503653,131.75002275314182 158.81801259238273,138.5000820911955 159.77207714226097,164.25006116519216 167.21378063503653,169.50000880868174 176.18198740761727,162.50007499800995 174.84629703778774,135.00005468411837 166.8321548141539,131.00001449813135 158.05476095154881,140.50009450188372 159.77207714226097,163.75006530201063 169.69434846565127,169.2500116713345 176.37280031852424,160.0000916189747 175.03710994683206,136.00006325403228 166.4505289942026,131.75002275314182 159.00882550142705,139.75009012431838 160.3445158721879,164.25006116519216 166.06890317332,169.50000880868174 175.41873576678336,165.25005244847853" stroke="#4DD2FF" stroke-linecap="round" stroke-linejoin="round" stroke-width="0.5"><title>2025-03-30 4.5km</title><desc>1743327729000</desc></polyline><polyline fill="none" points="39.07868020283058,180.0971821990679 39.181472081225365,181.44398362527136 32.39720812160522,185.08033753582276 29.107868019957095,185.21501703147078 31.780456852633506,193.8344633774832 24.173857868183404,194.37317606748547 24.585025380831212,198.6828661293839 18.72588832490146,196.1239901126246 13.997461928986013,197.60544552403735 12.25,202.72318205650663 13.277918781619519,215.38272266462445 17.49238578695804,218.07621926011052 22.32360406126827,215.38272266462445 24.48223350243643,194.77721037669107 29.416243655141443,194.23849792487454 33.6307106600143,195.18124450644245 42.881979695521295,205.5513925504638 44.83502538083121,205.82074547279626 46.89086294453591,201.51108915853547 52.75,206.49412743159337 51.10532994940877,213.63194560992997 50.79695431422442,205.14736301684752 45.451776650268584,202.1844743010588 43.80710659874603,205.5513925504638 41.44289340125397,203.80059661273845 29.519035533070564,185.48437596356962 38.77030456857756,182.38674343941966 37.22842639591545,179.42378073988948" stroke="#4DD2FF" stroke-linecap="round" stroke-linejoin="round" stroke-width="0.5"><title>2025-03-29 1.5km</title><desc>1743247652000</desc></polyline><polyline fill="none" points="67.34315939596854,208.17428332442068 68.02943240967579,208.89361497906793 67.64511952199973,208.2821832082118 67.23335571377538,208.71378226473462 67.48041399870999,209.72084375414124 69.01766554953065,212.0586490071728 70.85687722649891,213.67711641496862 71.5156993198907,212.20251321246906 71.13138643209822,211.48319133558834 71.70785576361232,212.0586490071728 71.35099379648454,214.18063741397054 72.99804902961478,215.40346978972957 78.84509510698263,216.33857275603805 83.04508595133666,219.0 87.84899704786949,217.99297689709056 88.80977926717605,216.48243443196407 88.20585901499726,194.7583584428212 87.43723323952872,193.2117029443616 85.70782524487004,191.91682101522747 83.45684975967743,190.58596296531323 80.93136506900191,191.2693774674408 79.31176075641997,189.07525041431654 77.03333435056265,181.7013998114271 77.99411656998564,181.30572346378176 78.62548774247989,183.06827679059643 80.38234665780328,183.35603938695567 81.01371783053037,182.2049869599723 80.27254297561012,178.71582603013667 78.73529142467305,178.5 77.63725460262503,179.21941935615905 75.96274844917934,179.32733207616548 74.15098769275937,180.4424273813056 69.429429357755,181.0179584431171 66.54708269995172,182.2409574307676 67.28825755475555,186.0537971824233 66.24512257392053,188.82346407760633 66.19022073282395,196.30500411348476 66.51963177940343,203.7863141990092 67.37061031651683,207.31108253303682" stroke="#4DD2FF" stroke-linecap="round" stroke-linejoin="round" stroke-width="0.5"><title>2025-03-25 3.9km</title><desc>1742910133000</desc></polyline><polyline fill="none" points="128.93991573434323,178.5 115.41609269287437,190.10167991521303 114.61110322643071,194.95326355937868 118.79704845417291,217.10158816410694 124.2709768274799,217.94532706937753 129.58390730712563,213.93756282748654 127.81293048057705,192.8438813923858 124.75397050753236,188.41416869556997 117.83106109406799,188.83604668744374 115.41609269287437,197.69545571890194 117.50906530767679,216.25784875964746 124.43197472020984,218.1562617176678 129.10091362707317,214.14849806868006 128.45692205429077,191.57825059560128 120.89002106711268,186.9375947425142 116.06008426751941,190.73449610779062 115.57709058746696,213.72662755625788 122.66099789366126,217.94532706937753 128.77891784068197,214.5703684556065 128.93991573434323,195.1642016057158 127.32993680052459,189.67980229726527 122.82199578732252,187.14853397244588 118.95804634690285,187.14853397244588 114.77210112009197,192.63294300390407 115.7380884801969,213.72662755625788 121.37301474716514,218.36719633475877 128.93991573434323,214.5703684556065 128.13492626789957,191.7891891397303 121.8560084272176,186.9375947425142 114.61110322643071,194.10951106681023 115.09409690648317,213.72662755625788 123.14399157371372,217.94532706937753 129.26191152073443,212.25007978163194 128.93991573434323,192.21106613404118 123.30498946737498,186.515716189635 115.7380884801969,190.73449610779062 114.77210112009197,212.25007978163194 119.28004213329405,218.1562617176678 122.82199578732252,218.36719633475877 129.26191152073443,211.82820870832074 128.13492626789957,190.10167991521303 120.89002106711268,186.72665548196528 115.09409690648317,194.53138737555128 115.89908637292683,214.5703684556065 119.60203792061657,217.94532706937753 124.43197472020984,217.52345767896622 129.7449052007869,211.40633751032874 127.81293048057705,190.10167991521303 119.92403370700777,187.57041233778 115.09409690648317,194.95326355937868 117.02607162669301,216.0469138310291 123.14399157371372,218.5781309211161 129.26191152073443,214.78130360285286 129.26191152073443,195.37513961968943 128.6179199470207,190.94543477683328 123.14399157371372,186.515716189635 115.7380884801969,189.46886344184168 115.41609269287437,214.14849806868006 122.01700631994754,217.94532706937753 126.52494733408093,217.10158816410694 129.90590309444815,212.67195072968025 128.6179199470207,191.57825059560128 123.62698525376618,186.72665548196528 117.02607162669301,188.41416869556997 114.77210112009197,192.21106613404118 115.25509479921311,212.25007978163194 122.66099789366126,219.0 129.7449052007869,216.25784875964746 130.3888967735693,194.32044923701324" stroke="#4DD2FF" stroke-linecap="round" stroke-linejoin="round" stroke-width="0.5"><title>2025-03-24 4.1km</title><desc>1742817301000</desc></polyline><polyline fill="none" points="167.60036261938512,181.3928877018625 164.18803355004638,179.02597993204836 159.16990256588906,183.75979232555255 159.77207828406245,209.79553545964882 166.99818690121174,218.4740318787517 176.43227315228432,211.89941726531833 176.0308226738125,185.3377269919729 170.61124121025205,179.288969839341 158.9691773261875,182.97082446725108 159.77207828406245,210.58449142775498 165.79383546486497,217.94806360348593 170.20979073178023,218.21104776102584 176.43227315228432,212.42538732732646 175.42864695563912,185.07473797851708 167.1989121409133,178.76298998505808 158.76845208741724,186.3896826597629 159.16990256588906,209.00657914124895 166.39601118303835,219.0 176.0308226738125,213.74031180434395 176.6329983919859,185.8637049034005 165.59311022609472,178.5 160.17352876253426,183.23381379188504 159.16990256588906,209.5325500589097 168.40326357726008,219.0 176.0308226738125,213.47732698684558 175.83009743411094,183.75979232555255 165.59311022609472,178.5 159.57135304436088,186.3896826597629 159.97280352376401,214.00329658342525 167.1989121409133,219.0 177.0344488704577,213.47732698684558 175.22792171593755,183.75979232555255 168.8047140557319,178.5 159.77207828406245,185.3377269919729 160.17352876253426,211.89941726531833 166.7974616624415,218.4740318787517 176.43227315228432,214.00329658342525 175.42864695563912,187.17864900291897 165.59311022609472,178.5 157.76482589077204,186.3896826597629 159.37062780559063,210.32150614412967 164.38875878974795,217.94806360348593 175.62937219440937,214.00329658342525 176.23154791258276,185.07473797851708 169.2061645342037,178.76298998505808 158.3670016080141,185.3377269919729 158.9691773261875,210.05852082115598 166.99818690121174,217.94806360348593 171.61486740782857,217.6850794076454 177.23517410922796,210.84747667249758 176.43227315228432,186.1266938012559 173.22066932171583,180.6039187948918 165.99456070456654,178.76298998505808 158.9691773261875,187.70462636975572 159.97280352376401,211.11046187917236 165.59311022609472,218.21104776102584 176.0308226738125,213.47732698684558 176.23154791258276,185.3377269919729 172.61849360447377,180.0779393290868 164.38875878974795,178.76298998505808 159.37062780559063,186.1266938012559 159.97280352376401,212.42538732732646 165.99456070456654,219.0 176.6329983919859,213.47732698684558 177.23517410922796,186.1266938012559 170.20979073178023,219.0" stroke="#4DD2FF" stroke-linecap="round" stroke-linejoin="round" stroke-width="0.5"><title>2025-03-23 4.2km</title><desc>1742719228000</desc></polyline><polyline fill="none" points="27.1281567402184,227.25 23.54692790005356,231.94212343008257 25.431785184890032,263.0579770873301 34.66758587770164,266.2683099769056 42.395500742830336,256.8842426625779 40.69912918750197,237.1281392655801 28.82452829554677,230.21344790933654 23.358442172408104,239.3507125545293 24.866327999159694,262.3171301606344 31.46332849469036,266.5152584052412 40.69912918750197,260.8354353213217 39.75670054461807,235.6464220972266 29.766956938430667,229.47258642420638 23.358442172408104,235.89337504992727 24.300870813429356,261.3293337476207 32.21727140713483,267.5030517532723 37.30638607498258,266.02136151189916 40.887614915147424,260.0945874094032 40.322157729417086,237.62204469623975 29.955442667007446,229.71954028925393 25.997242369689047,230.70735538343433 22.981470716185868,239.84461732942145 25.054813727736473,262.81102814828046 36.55244316160679,266.2683099769056 43.52641511242837,262.3171301606344 41.0761006437242,236.63423368881922 28.82452829554677,230.4604016650701 22.792984986677766,240.09156966151204 23.54692790005356,260.34153674962 29.20149975270033,266.76220679690596 39.37972908746451,267.00915515213273 40.51064345892519,264.29272123624105 41.45307209994644,239.1037601128919 36.17547170445323,231.4482163208304 30.52089985087514,230.21344790933654 23.92389935720712,235.39946910867002 23.54692790005356,262.5640791723272 34.290614421479404,267.00915515213273 41.0761006437242,259.35373916930985 39.75670054461807,235.39946910867002 32.97121432144195,229.96649411786348 26.374213826842606,229.96649411786348 21.473584887571633,244.2897537278477 25.808756641112268,264.29272123624105 33.72515723481774,266.02136151189916 42.395500742830336,258.8598401596537 39.191243359819055,233.91775040782522 28.259071111679077,230.4604016650701 25.054813727736473,232.18907693016808 22.792984986677766,249.72268216277007 26.562699555419385,266.02136151189916 35.798500248230994,266.76220679690596 41.0761006437242,258.6128906001104 38.24881471693516,234.16470361547545 31.840299950912595,228.23781655391213 23.73541362863034,233.17689056519885 23.92389935720712,262.0701811123872 31.274842765182257,267.75 41.64155782945454,261.5762829054147 39.75670054461807,234.65860992192756 31.0863570375368,228.23781655391213 23.358442172408104,234.4116567868041 23.54692790005356,260.0945874094032 32.21727140713483,267.2561034713872 40.51064345892519,262.81102814828046 39.75670054461807,237.62204469623975" stroke="#4DD2FF" stroke-linecap="round" stroke-linejoin="round" stroke-width="0.5"><title>2025-03-21 4.2km</title><desc>1742565279000</desc></polyline><polyline fill="none" points="79.49639275390655,229.27503410715144 74.08681238768622,227.25 72.54121799720451,229.1062814015895 71.63962126895785,247.66892949386965 78.72359555866569,251.04392400861252 84.13317592488602,245.47517771157436 81.04198714485392,228.76877591677476 74.60201051738113,228.43127033195924 70.73802454164252,232.81883515475783 74.2156119197607,249.8626770627452 78.85239509120584,251.7189217148116 83.23157919803634,248.51267905777786 83.10277966503054,231.46881700423546 77.56439976580441,228.0937646473758 73.18521565943956,228.60002313693985 70.866824073717,232.9875873111887 72.670017529279,248.85017870832235 77.95079836342484,252.3939190218225 82.45878200186417,249.52517771103885 83.23157919803634,232.1438262789743 78.98119462374598,228.76877591677476 71.63962126895785,229.95004467794206 71.38202220434323,245.64392799849156 74.08681238768622,251.04392400861252 77.17800116818398,251.88767107913736 82.45878200186417,249.01892849674914 82.97398013202474,231.3000646235887 81.55718527501449,228.93752867158037 75.89000584324822,228.262517502415 72.15481939958408,230.7938073311234 70.99562360625714,241.59391423675697 75.11720864800736,251.55017232545651 82.0723834047094,250.20017631491646 83.48917826265097,232.48133076680824 82.97398013202474,229.95004467794206 75.76120631024241,228.43127033195924 72.02601986657828,231.637569360435 73.70041378960013,248.68142889556475 75.89000584324822,251.55017232545651 82.45878200186417,250.87517451972235 83.10277966503054,236.86888003116474 76.66280303755775,246.487679057871 74.85960958199576,252.73141752567608 76.01880537485704,267.75 82.20118293724954,265.8937814006349 83.61797779565677,253.74391243990976 81.55718527501449,230.28754981374368 75.24600818008184,227.58750593382865 70.73802454164252,231.3000646235887 71.63962126895785,245.981428496656 77.56439976580441,252.05642041831743 82.97398013202474,248.51267905777786 83.61797779565677,232.3125785352895 77.04920163564384,227.41875297972 72.15481939958408,230.28754981374368 71.76842080196366,247.83767945633736 76.79160257056355,251.7189217148116 82.84518060041592,248.006429394125 83.36037872964516,231.46881700423546 77.43560023326427,227.41875297972 73.05641612736508,230.1187972582411 72.79881706181914,250.20017631491646 76.01880537485704,252.90016674087383 80.01159088360146,252.3939190218225 82.0723834047094,249.35642799758352 84.26197545789182,233.4938436311204" stroke="#4DD2FF" stroke-linecap="round" stroke-linejoin="round" stroke-width="0.5"><title>2025-03-10 4.0km</title><desc>1741591515000</desc></polyline><polyline fill="none" points="133.10111868195236,235.03853403311223 122.40092412568629,228.28847319935448 114.07855058088899,234.25968218350317 114.27670233231038,262.03851807664614 120.41940661426634,267.490387588623 131.1196011705324,261.0000648229616 130.52514591719955,236.33661968249362 124.97689688857645,229.32694578415249 113.68224707897753,234.0000648240093 113.48409532755613,261.7789048200939 118.63604085426778,266.4519375571981 131.31775292288512,261.7789048200939 131.91220817528665,236.59623669751454 123.78798638191074,228.80770956887864 114.27670233231038,234.0000648240093 114.87115758564323,262.03851807664614 121.41016537044197,267.2307751378976 128.34547665622085,265.67309963086154 131.71405642386526,260.4808379658498 131.71405642386526,237.8943211955484 123.98613813333213,229.06732769554947 113.88039883039892,234.7789167886367 114.27670233231038,259.4423837919021 121.60831712093204,267.490387588623 131.5159046733752,261.2596781940665 130.72329766955227,233.74044742505066 119.82495136093348,228.80770956887864 114.27670233231038,233.74044742505066 114.87115758564323,263.0769707157742 122.59907587617636,267.2307751378976 131.5159046733752,261.0000648229616 131.31775292288512,237.3750875114929 124.58059338666499,228.80770956887864 117.24897859804332,229.58656383503694 113.28594357706606,234.25968218350317 113.68224707897753,260.74045141320676 121.21201361902058,266.9711626494536 131.31775292288512,261.0000648229616 129.93069066479802,233.22121251316275 123.3916828809306,227.25 113.08779182564467,234.0000648240093 113.68224707897753,260.74045141320676 123.78798638191074,266.9711626494536 130.92144942097366,260.74045141320676 130.3269941676408,233.74044742505066 123.19353112857789,227.50961835728958 111.89888131897897,235.2981512399856 114.07855058088899,262.557744472404 125.7695038933307,266.9711626494536 131.1196011705324,261.51929152640514 130.1288424162194,232.44235985830892 119.82495136093348,228.54809140297584 113.68224707897753,233.74044742505066 113.68224707897753,260.74045141320676 123.78798638191074,267.2307751378976 131.5159046733752,261.0000648229616 131.91220817528665,235.2981512399856 122.99537937901914,228.54809140297584 113.28594357706606,236.0770026295213 113.88039883039892,263.33658378000837 120.41940661426634,267.75 130.52514591719955,261.0000648229616 132.90296693053097,235.03853403311223" stroke="#4DD2FF" stroke-linecap="round" stroke-linejoin="round" stroke-width="0.5"><title>2025-03-09 4.1km</title><desc>1741514669000</desc></polyline><polyline fill="none" points="160.40724259614944,250.8288733732188 166.9706897456199,264.4212658269098 172.47551638726145,264.6986605670536 179.0389635367319,258.0411755006062 175.65137791074812,227.52740023168735 161.04241490084678,227.25 155.53758825920522,233.63019495876506 163.7948282212019,260.81513047998305 176.70999841950834,263.31168645829894 180.52103224769235,251.38366682827473 175.8631020123139,233.63019495876506 179.67413584142923,231.13359951367602 157.8665533773601,240.0103682357585 158.92517388425767,236.68158488313202 166.9706897456199,241.6747576991329 163.7948282212019,247.77750644064508 165.912069237791,264.4212658269098 175.22792970761657,264.14387104671914 179.885859942995,256.93159236118663 171.62861998006701,229.74660060973838 158.92517388425767,228.35960068064742 154.47896775137633,235.29459007806145 161.25413900241256,251.1062701214105 160.830690799281,260.26033981284127 171.41689587943256,267.47260571061634 177.34517072420567,256.6541964740027 173.9575850982219,233.0753962578019 162.52448361180723,227.52740023168735 155.11414005607367,233.63019495876506 159.9837943930179,262.479501501075 172.68724048882723,267.75 177.980343028903,259.70554898062255 176.70999841950834,229.19180076068733 162.73620771430433,228.35960068064742 159.34862208738923,241.11996137537062" stroke="#4DD2FF" stroke-linecap="round" stroke-linejoin="round" stroke-width="0.5"><title>2025-03-05 1.9km</title><desc>1741161630000</desc></polyline></svg>