<?xml version="1.0" encoding="utf-8" ?>
<svg baseProfile="full" height="300mm" version="1.1" viewBox="0,0,200,300" width="200mm" xmlns="http://www.w3.org/2000/svg" xmlns:ev="http://www.w3.org/2001/xml-events" xmlns:xlink="http://www.w3.org/1999/xlink"><defs /><rect fill="#222222" height="300" width="200" x="0" y="0" /><text fill="#FFFFFF" style="font-size:12px; font-family:Arial; font-weight:bold;" x="10" y="20">Over 10km Runs</text><text fill="#FFFFFF" style="font-size:4px; font-family:Arial" x="10" y="280">ATHLETE</text><text fill="#FFFFFF" style="font-size:9px; font-family:Arial" x="10" y="290">TXyy2025</text><text fill="#FFFFFF" style="font-size:4px; font-family:Arial" x="65" y="280">SPECIAL TRACKS</text><rect fill="yellow" height="2.6" width="2.6" x="65" y="283" /><text fill="#FFFFFF" style="font-size:3px; font-family:Arial" x="70" y="285.5">Over 20.0 km</text><rect fill="red" height="2.6" width="2.6" x="65" y="287" /><text fill="#FFFFFF" style="font-size:3px; font-family:Arial" x="70" y="289.5">Over 40.0 km</text><text fill="#FFFFFF" style="font-size:4px; font-family:Arial" x="120" y="280">STATISTICS</text><text fill="#FFFFFF" style="font-size:3px; font-family:Arial" x="120" y="285">Number: 8</text><text fill="#FFFFFF" style="font-size:3px; font-family:Arial" x="120" y="290">Weekly: 2.0</text><text fill="#FFFFFF" style="font-size:3px; font-family:Arial" x="141" y="285">Total: 27.8 km</text><text fill="#FFFFFF" style="font-size:3px; font-family:Arial" x="141" y="290">Avg: 3.5 km</text><text fill="#FFFFFF" style="font-size:3px; font-family:Arial" x="167" y="285">Min: 1.5 km</text><text fill="#FFFFFF" style="font-size:3px; font-family:Arial" x="167" y="290">Max: 4.2 km</text><polyline fill="none" points="48.77157360315323,35.12957626534626 48.90862944116816,36.925311500323005 39.86294416198507,41.77378338109702 35.477157359942794,41.953356041922234 39.040609136689454,53.445951170055196 28.898477157577872,54.16423475672491 29.44670050777495,59.910488172550686 21.634517766535282,56.49865348357707 15.329949238337576,58.47392736538313 13.0,65.29757607530337 14.37055837502703,82.1769635528326 19.98984771547839,85.76829234685283 26.431472081691027,82.1769635528326 29.30964466976002,54.702947168960236 35.88832487305626,53.98466389987152 41.50761421304196,55.24165934184566 53.84263959387317,69.06852340057958 56.44670050777495,69.42766063043382 59.18781725876033,63.681452211458236 67.0,70.3255032422021 64.80710659874603,79.8425941466121 64.39593908563256,68.5298173557967 57.269035533070564,64.5792990680784 55.076142131350935,69.06852340057958 51.92385786771774,66.7341288169846 36.02538071060553,42.31250128475949 48.36040609097108,38.182324585854076 46.30456852726638,34.23170765314717" stroke="#4DD2FF" stroke-linecap="round" stroke-linejoin="round" stroke-width="0.5"><title>2025-03-29 1.5km</title><desc>1743247652000</desc></polyline><polyline fill="none" points="146.457545861369,72.56571109921788 147.3725765463896,73.52481997210998 146.8601593626663,72.70957761097816 146.3111409517005,73.28504301965586 146.64055199851282,74.62779167221743 148.69022073294036,77.74486534291646 151.1425029686652,79.90282188664423 152.02093242644332,77.93668428331148 151.50851524295285,76.97758844745113 152.27714101830497,77.74486534291646 151.801325062057,80.5741832186468 153.99739870615304,82.2046263863158 161.79346014279872,83.45143034140347 167.39344793511555,87.0 173.79866273072548,85.65730252946378 175.07970568956807,83.64324590930482 174.27447868674062,54.67781125710462 173.24964431952685,52.61560392580577 170.94376699323766,50.88909468697966 167.94246634631418,49.114617287094006 164.57515342533588,50.02583662327379 162.41568100848235,47.100333885784494 159.37777913408354,37.268533081922214 160.6588220933918,36.74096461839508 161.50065032346174,39.09103572080494 163.84312887722626,39.474719182617264 164.68495710752904,37.939982613315806 163.69672396755777,33.28776804020163 161.64705523313023,33.0 160.183006136911,33.95922580821207 157.95033126557246,34.103109434916405 155.5346502570901,35.58990317507414 149.23923914390616,36.35727792416583 145.3961102666799,37.98794324102346 146.38434340641834,43.071729576564394 144.99349676514976,46.76461877016118 144.92029431043193,56.740005484665744 145.35950903920457,66.71508559866925 146.49414708884433,71.41477671073517" stroke="#4DD2FF" stroke-linecap="round" stroke-linejoin="round" stroke-width="0.5"><title>2025-03-25 3.9km</title><desc>1742910133000</desc></polyline><polyline fill="none" points="48.58655431307852,93.0 30.55479025747627,108.46890655346215 29.481470968574286,114.93768474587705 35.062731271609664,144.46878421877045 42.361302436329424,145.5937694257591 49.44520974252373,140.25008377002086 47.08390730712563,112.12517518980894 43.005294010043144,106.21889159397688 33.77474812511355,106.78139558318071 30.55479025747627,118.59394095849711 33.34542040992528,143.34379834623542 42.57596629392356,145.87501562351827 48.80121816974133,140.53133075812366 47.9425627393648,110.43766746087931 37.85336142219603,104.25012632331345 31.413445689715445,109.31266147701535 30.769454116001725,139.96883674152195 40.214663858525455,145.5937694257591 48.37189045455307,141.09382460743655 48.58655431307852,115.21893547428772 46.43991573434323,107.90640306309797 40.42932771611959,104.53137862996664 35.277395129203796,104.53137862996664 29.696134826168418,111.84392400505021 30.984117973595858,139.96883674152195 38.49735299590975,146.15626177960075 48.58655431307852,141.09382460743655 47.513235023245215,110.71891885285731 39.14134456962347,104.25012632331345 29.481470968574286,113.81268142233603 30.125462542288005,139.96883674152195 40.85865543130785,145.5937694257591 49.01588202826679,138.00010637543164 48.58655431307852,111.2814215120161 41.07331928983331,103.68762158614118 30.984117973595858,109.31266147701535 29.696134826168418,138.00010637543164 35.70672284439206,145.87501562351827 40.42932771611959,146.15626177960075 49.01588202826679,137.43761161109433 47.513235023245215,108.46890655346215 37.85336142219603,103.9688739759149 30.125462542288005,114.37518316728529 31.19878183118999,141.09382460743655 36.13605056051165,145.5937694257591 42.57596629392356,145.0312769053271 49.659873601049185,136.87511668039951 47.08390730712563,108.46890655346215 36.56537827569991,105.09388311696239 30.125462542288005,114.93768474587705 32.70142883528024,143.06255177466664 40.85865543130785,146.43750789470505 49.01588202826679,141.37507147050928 49.01588202826679,115.50018615962472 48.15722659602761,109.59391303581651 40.85865543130785,103.68762158614118 30.984117973595858,107.6251512557501 30.55479025747627,140.53133075812366 39.3560084272176,145.5937694257591 45.366596445441246,144.46878421877045 49.87453745864332,138.5626009728294 48.15722659602761,110.43766746087931 41.50264700502157,103.9688739759149 32.70142883528024,106.21889159397688 29.696134826168418,111.2814215120161 30.340126398950815,138.00010637543164 40.214663858525455,147.0 49.659873601049185,143.34379834623542 50.518529031425714,114.09393231594004" stroke="#4DD2FF" stroke-linecap="round" stroke-linejoin="round" stroke-width="0.5"><title>2025-03-24 4.1km</title><desc>1742817301000</desc></polyline><polyline fill="none" points="160.13381682522595,96.85718360263854 155.58404473215342,93.70130657614209 148.89320342056453,100.01305643422529 149.6961043784395,134.72738061309792 159.33091586828232,146.29870917182416 171.9096975363791,137.5325563538354 171.37443023175,102.11696932278574 164.14832161273807,94.05195978586562 148.62556976731867,98.96109928959049 149.6961043784395,135.77932190382853 157.7251139525324,145.59741813805886 163.6130543090403,145.94806368136778 171.9096975363791,138.23384976992384 170.57152927387506,101.76631730468944 159.59854952059686,93.350653313566 148.35793611593544,103.51957687991671 148.89320342056453,133.6754388550762 158.52801491040736,147.0 171.37443023175,139.98708240594715 172.17733118962497,102.81827320461161 157.4574803011492,93.0 150.2313716839999,99.311751722591 148.89320342056453,134.3767334120348 161.20435143541545,147.0 171.37443023175,139.6364359825384 171.10679657850415,100.01305643422529 157.4574803011492,93.0 149.42847072612494,103.51957687991671 149.96373803168535,140.33772877790034 159.59854952059686,147.0 172.71259849332273,139.6364359825384 170.3038956206292,100.01305643422529 161.73961874004453,93.0 149.6961043784395,102.11696932278574 150.2313716839999,137.5325563538354 159.06328221596777,146.29870917182416 171.9096975363791,140.33772877790034 170.57152927387506,104.57153200404719 157.4574803011492,93.0 147.01976785436273,103.51957687991671 149.1608370738104,135.42867485899478 155.85167838539928,145.59741813805886 170.83916292525828,140.33772877790034 171.64206388313323,101.76631730468944 162.27488604560494,93.350653313566 147.82266881037503,102.11696932278574 148.62556976731867,135.0780277615413 159.33091586828232,145.59741813805886 165.48648987617344,145.24677254376002 172.98023214563727,136.12996889674105 171.9096975363791,103.1689250683412 167.6275590956211,95.80522505985573 157.99274760577828,93.350653313566 148.62556976731867,105.27283515990712 149.96373803168535,136.48061583889648 157.4574803011492,145.94806368136778 171.37443023175,139.6364359825384 171.64206388313323,102.11696932278574 166.8246581396088,95.10391910560429 155.85167838539928,93.350653313566 149.1608370738104,103.1689250683412 149.96373803168535,138.23384976992384 157.99274760577828,147.0 172.17733118962497,139.6364359825384 172.98023214563727,103.1689250683412 163.6130543090403,147.0" stroke="#4DD2FF" stroke-linecap="round" stroke-linejoin="round" stroke-width="0.5"><title>2025-03-23 4.2km</title><desc>1742719228000</desc></polyline><polyline fill="none" points="32.83754232060164,153.0 28.06257053371519,159.25616457359865 30.575713579542935,200.74396944977343 42.89011450391263,205.0244133027736 53.19400099106133,192.51232355018146 50.93217225000262,166.17085235426202 35.09937106166035,156.951263879193 27.811256229877472,169.1342834061943 29.82177066616714,199.75617354759015 38.61777132656425,205.35367787373252 50.93217225000262,197.78058042842895 49.67560072615743,164.19522946304642 36.35594258457422,155.96344856568612 27.811256229877472,164.5245000666473 29.067827751860023,198.43911166349426 39.62302854284644,206.67073567118496 46.40851476788521,204.69514868268743 51.18348655384034,196.79278321261518 50.42954363953322,166.82939292839728 36.60725688934326,156.29272038582712 31.329656493850052,157.60980717791244 27.308627621270716,169.7928231060505 30.07308497093618,200.41470419778489 45.403257549740374,205.0244133027736 54.7018868168816,199.75617354759015 51.43480085860938,165.5123115850147 35.09937106166035,157.280535553582 27.057313315570354,170.12209288217127 28.06257053371519,197.12204899964854 35.60199967119843,205.68294239602983 49.17297211755067,206.01220686966553 50.68085794523358,202.39029498165473 51.937429467216134,168.80501348385587 44.900628940202296,158.5976217610296 37.361199801787734,156.951263879193 28.565199143253267,163.86595881171525 28.06257053371519,200.08543889643624 42.38748589530587,206.01220686966553 51.43480085860938,195.8049855590798 49.67560072615743,163.86595881171525 40.6282857619226,156.62199215730652 31.83228510338813,156.62199215730652 25.298113183118403,175.7196716372855 31.07834218814969,202.39029498165473 41.63354298006743,204.69514868268743 53.19400099106133,195.14645354636014 48.92165781278163,161.8903338771779 34.345428148284554,157.280535553582 30.07308497093618,159.5854359071236 27.057313315570354,182.96357621718198 32.08359940722585,204.69514868268743 44.39800033159554,205.68294239602983 51.43480085860938,194.81718746689148 47.66508628986776,162.21960482071154 39.12039993517101,154.3170887385495 28.313884838484228,160.90252075367607 28.565199143253267,199.42690814984962 38.36645702086389,207.0 52.188743772916496,198.76837720745243 49.67560072615743,162.8781465627253 38.115142717026174,154.3170887385495 27.811256229877472,162.5488757158164 28.06257053371519,196.79278321261518 39.62302854284644,206.3414712951053 50.68085794523358,200.41470419778489 49.67560072615743,166.82939292839728" stroke="#4DD2FF" stroke-linecap="round" stroke-linejoin="round" stroke-width="0.5"><title>2025-03-21 4.2km</title><desc>1742565279000</desc></polyline><polyline fill="none" points="162.66185700520873,155.70004547620192 155.44908318296075,153.0 153.38829066231847,155.47504186886363 152.18616169132292,180.22523932519834 161.6314607448876,184.72523201140575 168.84423456620425,177.30023694876581 164.722649525851,155.02503455558326 156.1360140228644,154.57502710924018 150.98403272219002,160.4251135396771 155.62081589270383,183.15023608366027 161.80319345463067,185.6252289529657 167.64210559707135,181.3502387437038 167.47037288639694,158.62508933898062 160.08586635347456,154.1250195298344 154.2469542119652,154.80003084917553 151.15576543100178,160.65011641487945 153.56002337206155,181.8002382776467 160.60106448363513,186.5252253623912 166.6117093358189,182.7002369479742 167.64210559707135,159.52510170533787 161.97492616437376,155.02503455558326 152.18616169132292,156.6000595705118 151.84269627183676,177.52523733128328 155.44908318296075,184.72523201140575 159.570668223314,185.85022810543887 166.6117093358189,182.02523799566552 167.29864017572254,158.40008616470732 165.40958036575466,155.2500382286962 157.85334112402052,154.35002333647572 152.8730925321579,157.72507644153666 151.3274981416762,172.12521898234263 156.82294486369938,185.40022976719774 166.09651120565832,183.60023508651648 167.98557101655751,159.97510768903885 167.29864017572254,156.6000595705118 157.6816084133461,154.57502710924018 152.7013598214835,158.8500924805412 154.93388505186886,181.57523852738086 157.85334112402052,185.40022976719774 166.6117093358189,184.50023269292433 167.47037288639694,165.8251733747311 158.883737382479,178.65023874375038 156.47947944235057,186.9752233675681 158.02507383283228,207.0 166.2682439154014,204.5250418675132 168.15730372723192,188.32521658646874 165.40958036575466,157.0500664183637 156.99467757344246,153.45000791177154 150.98403272219002,158.40008616470732 152.18616169132292,177.97523799550254 160.08586635347456,186.07522722438443 167.29864017572254,181.3502387437038 168.15730372723192,159.75010471360292 159.3989355135709,153.2250039728824 152.8730925321579,157.0500664183637 152.35789440199733,180.45023927500006 159.05547009315342,185.6252289529657 167.12690746597946,180.67523919220548 167.8138383058831,158.62508933898062 159.91413364373147,153.2250039728824 154.07522150222212,156.82506301091053 153.73175608180463,183.60023508651648 158.02507383283228,187.2002223210875 163.34878784418106,186.5252253623912 166.09651120565832,182.47523733007256 169.01596727687865,161.32512484141625" stroke="#4DD2FF" stroke-linecap="round" stroke-linejoin="round" stroke-width="0.5"><title>2025-03-10 4.0km</title><desc>1741591515000</desc></polyline><polyline fill="none" points="54.13482490926981,223.38471204414964 39.86789883393794,214.38463093247265 28.77140077482909,222.34624291118234 29.03560310881585,259.3846907687839 37.22587548568845,266.653850118164 51.492801561020315,258.00008643069305 50.70019455626607,225.11549290991388 43.302529184147716,215.76926104538143 28.242996104992926,222.0000864318572 27.978793769143522,259.0385397602804 34.848054472357035,265.26925007626414 51.75700389686972,259.0385397602804 52.54961090069264,225.461648930097 41.71731517557055,215.07694609183818 29.03560310881585,222.0000864318572 29.828210113570094,259.3846907687839 38.54688716027886,266.30770018394105 47.79396887496114,264.2307995078154 52.28540856484324,257.307783954544 52.28540856484324,227.1924282608088 41.98151751141995,215.42310359422117 28.50719844084233,223.0385557182599 29.03560310881585,255.9231783892028 38.811089494265616,266.653850118164 52.02120623085648,258.3462375921663 50.964396892115474,221.65392990014516 36.4332684809342,215.07694609183818 29.03560310881585,221.65392990014516 29.828210113570094,260.76929428754374 40.132101168856025,266.30770018394105 52.02120623085648,258.00008643069305 51.75700389686972,226.5001166819129 42.7741245161742,215.07694609183818 32.99863813072443,216.11541844671592 27.714591436088085,222.34624291118234 28.242996104992926,257.6539352175314 38.282684825360775,265.9615501991939 51.75700389686972,258.00008643069305 49.90758755244315,220.961616684217 41.18891050759703,213.0 27.45038910023868,222.0000864318572 28.242996104992926,257.6539352175314 41.71731517557055,265.9615501991939 51.22859922796488,257.6539352175314 50.43599222321063,221.65392990014516 40.924708171747625,213.34615780971944 25.865175091661513,223.7308683199808 28.77140077482909,260.0769926297944 44.359338524751365,265.9615501991939 51.492801561020315,258.69238870195113 50.17178988736123,219.92314647766761 36.4332684809342,214.73078853730112 28.242996104992926,221.65392990014516 28.242996104992926,257.6539352175314 41.71731517557055,266.30770018394105 52.02120623085648,258.00008643069305 52.54961090069264,223.7308683199808 40.66050583869219,214.73078853730112 27.714591436088085,224.76933683943935 28.50719844084233,261.11544503993355 37.22587548568845,267.0 50.70019455626607,258.00008643069305 53.870622573420405,223.38471204414964" stroke="#4DD2FF" stroke-linecap="round" stroke-linejoin="round" stroke-width="0.5"><title>2025-03-09 4.1km</title><desc>1741514669000</desc></polyline><polyline fill="none" points="150.54299012944102,244.4384978308808 159.29425299540162,262.56168776913546 166.63402185030282,262.9315474226605 175.3852847162634,254.0549006673973 170.8685038825497,213.36986697558314 151.3898865347728,213.0 144.0501176789403,221.50692661153153 155.0597709622234,257.75350730656646 172.2799978936091,261.08224861091 177.36137633118778,245.17822243762203 171.15080268401653,221.50692661153153 176.23218112252653,218.17813268490136 147.15540450345725,230.01382431411184 148.56689851358533,225.57544651068747 159.29425299540162,232.2330102652777 155.0597709622234,240.37000858737156 157.88275898434222,262.56168776913546 170.3039062777534,262.1918280622922 176.51447992492467,252.57545648165978 165.50482664164156,216.32880081306212 148.56689851358533,214.47946757427417 142.63862366881222,223.72612010408193 151.67218533623964,244.80836016172543 151.107587733306,257.01378641696647 165.2225278392434,266.63014094741084 173.12689429987222,252.20559529867023 168.61011346429586,220.76719501032494 153.36597814969718,213.36986697558314 143.48552007600665,221.50692661153153 149.97839252464473,259.9726686680224 166.91632065270096,267.0 173.97379070613533,256.2740653073415 172.2799978936091,215.58906768076122 153.64827695209533,214.47946757427417 149.1314961174503,231.49328183359466" stroke="#4DD2FF" stroke-linecap="round" stroke-linejoin="round" stroke-width="0.5"><title>2025-03-05 1.9km</title><desc>1741161630000</desc></polyline></svg>