<?xml version="1.0" encoding="utf-8" ?>
<svg baseProfile="full" height="300mm" version="1.1" viewBox="0,0,200,300" width="200mm" xmlns="http://www.w3.org/2000/svg" xmlns:ev="http://www.w3.org/2001/xml-events" xmlns:xlink="http://www.w3.org/1999/xlink"><defs /><rect fill="#222222" height="300" width="200" x="0" y="0" /><text fill="#FFFFFF" style="font-size:12px; font-family:Arial; font-weight:bold;" x="10" y="20">Over 10km Runs</text><text fill="#FFFFFF" style="font-size:4px; font-family:Arial" x="10" y="280">ATHLETE</text><text fill="#FFFFFF" style="font-size:9px; font-family:Arial" x="10" y="290">TXyy2025</text><text fill="#FFFFFF" style="font-size:4px; font-family:Arial" x="65" y="280">SPECIAL TRACKS</text><rect fill="yellow" height="2.6" width="2.6" x="65" y="283" /><text fill="#FFFFFF" style="font-size:3px; font-family:Arial" x="70" y="285.5">Over 20.0 km</text><rect fill="red" height="2.6" width="2.6" x="65" y="287" /><text fill="#FFFFFF" style="font-size:3px; font-family:Arial" x="70" y="289.5">Over 40.0 km</text><text fill="#FFFFFF" style="font-size:4px; font-family:Arial" x="120" y="280">STATISTICS</text><text fill="#FFFFFF" style="font-size:3px; font-family:Arial" x="120" y="285">Number: 25</text><text fill="#FFFFFF" style="font-size:3px; font-family:Arial" x="120" y="290">Weekly: 2.8</text><text fill="#FFFFFF" style="font-size:3px; font-family:Arial" x="141" y="285">Total: 176.0 km</text><text fill="#FFFFFF" style="font-size:3px; font-family:Arial" x="141" y="290">Avg: 7.0 km</text><text fill="#FFFFFF" style="font-size:3px; font-family:Arial" x="167" y="285">Min: 1.5 km</text><text fill="#FFFFFF" style="font-size:3px; font-family:Arial" x="167" y="290">Max: 35.9 km</text><polyline fill="none" points="13.333727811463177,50.251526925712824 15.250887574627995,56.755849013105035 37.10650887619704,55.75518568686675 43.433136095292866,53.00335851998534 41.899408283643425,40.745165522093885 17.168047337792814,38.743819544208236 12.950295858085155,45.74852021760307 14.100591716356575,56.755849013105035 41.324260354973376,54.50435570534319 42.282840237021446,39.49432456016075 16.401183432899415,39.744492825935595 14.292307693511248,44.747850448824465 15.442603551782668,56.755849013105035 42.666272189468145,54.25418959965464 41.7076923083514,40.745165522093885 15.059171598404646,40.49499740253668 13.908875739201903,56.25551742245443 42.474556213244796,53.5036910623312 41.899408283643425,41.49566965957638 17.359763314016163,40.24482924735639 13.908875739201903,41.74583763256669 14.292307693511248,56.505683236173354 44.00828402303159,51.752526527037844 43.049704141914845,41.74583763256669 19.660355030559003,39.744492825935595 14.292307693511248,41.245501649798825 12.375147929415107,55.50501976360101 42.666272189468145,54.50435570534319 43.624852071516216,39.994661055272445 14.867455621249974,40.49499740253668 15.250887574627995,57.256180455791764 39.023668638430536,55.00468780763913 44.200000000186265,49.751193432020955 43.624852071516216,41.996005568420514 39.79053254425526,40.24482924735639 13.908875739201903,40.24482924735639 12.375147929415107,50.251526925712824 14.484023669734597,56.505683236173354 44.00828402303159,54.004023457178846 42.666272189468145,39.744492825935595 16.401183432899415,39.744492825935595 14.100591716356575,56.25551742245443 43.433136095292866,52.25285943422932 42.85798816662282,40.49499740253668 38.83195266313851,38.993987919879146 13.908875739201903,40.99533360416535 14.867455621249974,56.505683236173354 44.200000000186265,53.00335851998534 43.049704141914845,40.24482924735639 12.566863905638456,40.99533360416535 14.292307693511248,56.25551742245443 38.06508875731379,54.25418959965464 43.433136095292866,52.25285943422932 42.282840237021446,40.99533360416535 15.826035503298044,39.49432456016075 11.799999999813735,49.00069291878026" stroke="#4DD2FF" stroke-linecap="round" stroke-linejoin="round" stroke-width="0.5"><title>2025-05-01 4.2km</title><desc>1746070962000</desc></polyline><polyline fill="none" points="76.72857142984867,39.91432598698884 78.27142857387662,60.128528938861564 72.87142857350409,48.000021503074095 60.528571428731084,55.58034369000234 48.57142857275903,53.05357149336487 64.77142857387662,45.47324370755814 75.18571428768337,49.01073209871538 54.74285714328289,53.558926082681865 64.77142857387662,42.44110788893886 57.05714285746217,52.5482168297749 53.20000000111759,47.49466609349474 60.142857141792774,55.07498939940706 62.842857144773006,46.989310609176755 78.27142857387662,50.52679743152112 58.21428571455181,52.04286209214479 66.31428571604192,51.53750728047453 64.38571428880095,43.451820126734674 61.68571428582072,50.52679743152112 72.10000000149012,50.52679743152112 66.31428571604192,43.451820126734674 68.6285714302212,48.000021503074095 73.2571428604424,41.935751657234505 77.50000000186265,45.97859941562638 64.00000000186265,48.50537683768198 70.55714285932481,44.967887924052775 79.81428571790457,52.04286209214479 49.342857144773006,47.49466609349474 78.65714286081493,46.989310609176755 77.50000000186265,55.07498939940706 56.6714285723865,44.967887924052775 63.22857142984867,43.451820126734674 65.5428571458906,50.52679743152112 55.514285715296865,42.44110788893886 70.1714285723865,41.935751657234505 62.07142857275903,46.48395505012013 73.2571428604424,44.46253206720576 77.11428571678698,53.05357149336487 53.58571428619325,48.000021503074095 54.357142858207226,36.37682818877511 76.342857144773,44.46253206720576 66.31428571604192,43.451820126734674 72.10000000149012,38.39825594960712 57.82857143133879,46.48395505012013 75.9571428578347,45.97859941562638 47.80000000074506,51.53750728047453 67.85714286006987,45.47324370755814 64.00000000186265,37.89289912185632 62.4571428578347,47.49466609349474 50.5,45.97859941562638 79.04285714402795,47.49466609349474 63.614285714924335,43.95717613468878 64.00000000186265,50.02144239586778 77.88571428880095,45.47324370755814 60.91428571566939,49.51608728407882 79.42857143096626,42.44110788893886 55.90000000037253,41.43039535195567 78.65714286081493,49.51608728407882 48.18571428582072,47.49466609349474 64.77142857387662,45.97859941562638 61.30000000074506,56.59105204464868 60.91428571566939,51.032152394298464 49.342857144773006,50.02144239586778 69.01428571529686,52.04286209214479 77.50000000186265,44.46253206720576 78.27142857387662,52.5482168297749 69.78571428731084,56.59105204464868 53.20000000111759,47.49466609349474 62.07142857275903,46.48395505012013 58.600000001490116,53.05357149336487 58.98571428656578,45.97859941562638 55.128571428358555,50.52679743152112 74.02857143059373,49.51608728407882 79.04285714402795,41.43039535195567 79.04285714402795,52.5482168297749 68.24285714328289,45.97859941562638 77.88571428880095,55.58034369000234 72.87142857350409,52.5482168297749 77.88571428880095,45.47324370755814 65.92857142910361,48.50537683768198 79.42857143096626,43.451820126734674 80.20000000111759,35.871471061138436" stroke="#4DD2FF" stroke-linecap="round" stroke-linejoin="round" stroke-width="0.5"><title>2025-04-27 2.3km</title><desc>1745759770000</desc></polyline><polyline fill="none" points="102.04466019570827,48.41215143608861 108.33592233248055,42.23009452782571 93.23689320497215,42.64223208138719 93.23689320497215,48.82428807672113 108.96504854597151,47.587877973215654 102.04466019570827,51.709242852404714 99.8427184484899,45.52719325060025 87.57475728355348,43.466507006203756 92.2932038847357,42.23009452782571 113.05436893180013,48.00001473445445 95.43883495219052,48.41215143608861 105.50485436990857,49.648561174282804 87.88932039029896,54.594194644130766 105.81941747665405,47.587877973215654 109.27961165085435,52.94565112818964 88.51844660378993,47.587877973215654 97.64077669940889,53.769923007814214 93.55145631171763,51.297106637619436 107.07766990363598,48.41215143608861 101.7300970889628,55.006330370670184 94.18058252520859,47.175741149811074 103.3029126226902,47.175741149811074 106.7631067968905,49.236424655653536 100.47184466011822,52.94565112818964 102.04466019570827,47.175741149811074 88.20388349704444,52.94565112818964 83.80000000074506,49.648561174282804 100.47184466011822,54.594194644130766 107.70679611898959,50.4728340273723 89.14757281728089,50.06069763121195 101.41553398221731,53.35778709803708 94.49514563195407,52.533515096409246 97.95533980615437,56.654872668441385 105.81941747665405,51.297106637619436 89.46213592402637,46.76360426680185 104.24660194292665,45.93933031684719 98.58446602150798,49.648561174282804 103.61747572943568,50.88497036276385 91.3495145663619,50.4728340273723 112.42524272017181,51.297106637619436 87.88932039029896,52.94565112818964 100.15728155337274,56.654872668441385 92.2932038847357,53.35778709803708 104.24660194292665,52.12137900479138 102.67378640919924,57.067008091369644 89.7766990289092,54.594194644130766 97.64077669940889,52.12137900479138 101.10097087547183,57.067008091369644 104.87572815641761,51.709242852404714 93.23689320497215,52.533515096409246 105.19029126316309,54.594194644130766 108.65048543736339,48.82428807672113 97.01165048591793,54.18205885589123 105.50485436990857,47.587877973215654 97.32621359452605,52.533515096409246 113.68349514715374,48.82428807672113 104.24660194292665,52.94565112818964 96.38252427242696,45.52719325060025 98.89902912639081,49.648561174282804 109.90873786620796,47.175741149811074 97.95533980615437,54.18205885589123 113.99805825203657,44.290781687013805 108.33592233248055,50.06069763121195 95.43883495219052,50.06069763121195 91.66407767124474,56.654872668441385 90.40582524426281,50.06069763121195 108.02135922387242,55.830601641209796 102.67378640919924,53.769923007814214 108.33592233248055,50.06069763121195 94.80970873869956,52.94565112818964 105.81941747665405,50.88497036276385 106.44854369200766,38.932991908397526 102.98834951594472,51.297106637619436 111.16699029318988,51.709242852404714 102.04466019570827,55.41846603597514 103.93203883804381,48.82428807672113 99.52815534174442,50.06069763121195 113.05436893180013,51.297106637619436 87.88932039029896,55.006330370670184 92.60776699148118,50.06069763121195 86.63106796331704,48.41215143608861 102.04466019570827,50.06069763121195 101.7300970889628,54.18205885589123 91.66407767124474,54.594194644130766 104.87572815641761,54.594194644130766 109.59417475946248,48.41215143608861 97.95533980615437,43.87864437629469 99.8427184484899,47.175741149811074 88.8330097105354,50.06069763121195 94.49514563195407,40.99368150252849 100.78640776872635,45.93933031684719 94.18058252520859,51.297106637619436 113.36893204040825,50.4728340273723 114.62718446739018,45.93933031684719 104.87572815641761,51.297106637619436 101.10097087547183,47.587877973215654 111.16699029318988,45.93933031684719 107.70679611898959,50.88497036276385 94.49514563195407,46.351467322558165 106.7631067968905,50.88497036276385 91.66407767124474,49.648561174282804 99.21359223499894,53.35778709803708 113.36893204040825,49.236424655653536 108.65048543736339,52.94565112818964 101.7300970889628,47.587877973215654 108.02135922387242,48.41215143608861 100.78640776872635,55.41846603597514 102.98834951594472,49.648561174282804 116.20000000111759,48.00001473445445" stroke="#4DD2FF" stroke-linecap="round" stroke-linejoin="round" stroke-width="0.5"><title>2025-04-26 3.2km</title><desc>1745672895000</desc></polyline><polyline fill="none" points="132.96517150395084,57.17778588780493 131.9108179421164,57.289933533698786 130.17255936691072,56.09368940681452 128.69076517166104,53.02828793770459 129.37467018479947,52.953521582865505 130.0870712401811,55.23388543663896 131.39788918220438,56.729194805637235 136.64116094994824,58.07496565899055 137.23957783647347,57.925435918790754 136.66965699219145,58.00020080000104 135.9287598945666,56.018923960538814 133.76306068594567,53.36473626033694 133.64907651720569,52.76660559876473 133.25013192615006,52.72922238537285 133.7915567283053,51.94417362328386 133.9625329816481,49.77593101623643 134.95989445922896,49.88808195304591 135.3588390502846,48.46749973643455 134.87440633261576,47.57028579332109 134.70343007927295,48.018893163709436 134.87440633261576,47.04690951931116 132.167282321956,45.47677418155945 131.6543535621604,44.35524295637151 127.86437994730659,41.06538926085341 126.55356200528331,38.56058551619935 124.01741424808279,38.07457593800791 121.59525065962225,39.34567593340762 119.80000000004657,37.925034341024 121.56675461761188,39.27090552273148 124.18839050130919,38.14934670329967 126.6105540896533,38.635356137296185 128.0923482850194,41.40185354044661 132.167282321956,45.215084008377744 137.38205804757308,48.31796430084796 139.17730870726518,48.84133793757064 140.54511873354204,48.13104488175304 141.8844327176921,49.476861607821775 147.15620052767918,46.59830042014073 148.69498680741526,46.44876387646946 151.259630606859,49.140408099468914 152.20000000006985,49.36471048828389 150.00580474932212,48.24319654981082 148.83746701839846,46.59830042014073 147.3841688655084,46.673068658681586 141.9414248020621,49.476861607821775 140.20316622697283,48.09366098133614 139.23430079163518,48.91610551121994 134.95989445922896,47.04690951931116 134.07651715050451,49.177791844747844 133.7345646439353,52.1684735189192 134.21899736160412,56.168454830898554 133.76306068594567,57.289933533698786 130.2010554090375,56.056306686470634 129.31767810031306,54.48622742819134 129.34617414243985,53.439502493303735" stroke="#4DD2FF" stroke-linecap="round" stroke-linejoin="round" stroke-width="0.5"><title>2025-04-24 3.3km</title><desc>1745457116000</desc></polyline><polyline fill="none" points="188.20000000018626,45.78377331380034 186.83373493980616,48.85245267674327 184.03614457859658,49.704860714264214 164.19277108437382,50.983470409177244 165.55903614475392,49.193416042777244 163.1518072290346,42.37411043420434 160.41927710874006,42.20362676127115 157.29638554225676,45.86901462759124 156.58072289149277,52.60303862183355 160.093975903932,54.81928249303019 161.98072289163247,54.478322451526765 163.2819277108647,51.66539442125941 162.30602409644052,41.010239640192594 159.76867469889112,41.777417358534876 157.3614457831718,45.69853198749479 157.94698795187287,53.88164189422969 161.59036144590937,53.79640176426619 163.21686747018248,51.32443251617951 162.95662650628947,43.65273637534119 160.67951807240024,41.43644960952224 159.05301204835996,41.777417358534876 156.71084337378852,46.12473849358503 157.6867469882127,53.625921466446016 159.89879518095404,54.904522471828386 162.95662650628947,53.966882011678535 162.7614457833115,40.92499760829378 160.02891566301696,41.43644960952224 157.8168674702756,43.82321962027345 157.2313253013417,47.40335612272611 158.07710843370296,53.45544111827621 159.3783132529352,54.64880249759881 162.2409638557583,54.137362208683044 163.4120481929276,51.40967301122146 162.56626506033354,43.567494734190404 161.46024096407928,42.11838490597438 158.53253012080677,42.03314303793013 155.80000000004657,45.27232516638469 157.3614457831718,53.37020092521561 161.59036144590937,54.904522471828386 163.4120481929276,52.347317627456505 162.8915662651416,43.482253080408555 160.22409638552926,41.86265926423948 157.8168674702756,42.97080289275618 156.71084337378852,45.27232516638469 158.98795180744492,54.22260228829691 161.46024096407928,54.989762438170146 163.60722891567275,51.83587529853685 163.1518072290346,44.93135948322015 162.2409638557583,42.97080289275618 159.18313253019005,41.86265926423948 156.9710843374487,44.16418595856521 157.8168674702756,52.60303862183355 159.3783132529352,54.39308240986429 162.69638554239646,54.052122116379905 163.2819277108647,47.91480238089571 162.69638554239646,43.31176973495167 158.53253012080677,41.86265926423948 156.90602409653366,44.24942751170602 157.42650602431968,50.55726749263704 157.8168674702756,53.540681298589334 159.96385542186908,55.07500239170622 163.08674698788673,53.199720501783304 162.95662650628947,43.567494734190404 160.093975903932,41.777417358534876 157.29638554225676,44.078944392851554 157.62168674729764,52.7735192218679 160.41927710874006,54.81928249303019 163.2819277108647,52.60303862183355 163.2819277108647,44.334669052041136" stroke="#4DD2FF" stroke-linecap="round" stroke-linejoin="round" stroke-width="0.5"><title>2025-04-20 4.3km</title><desc>1745155370000</desc></polyline><polyline fill="none" points="34.10307212918997,99.62317012995481 19.04354349989444,88.82313343056012 23.165098703466356,109.17697958392091 28.079260677099228,114.99231007054914 32.67637994326651,114.36924009770155 36.48089243937284,109.80005185795017 35.37124296091497,90.90007000952028 29.981516925618052,83.83847312221769 26.811089845374227,84.25386215629987 23.0065773492679,89.86160210322123 24.116226827725768,110.00774255441502 28.71334609296173,115.19999999995343 35.212721606716514,112.91540908697061 34.895678899250925,88.82313343056012 30.774123694747686,82.79999999993015 23.482141410931945,85.7077228090493 24.274748181924224,108.76159791427199 28.71334609296173,114.7846201104112 35.84680702351034,110.6308144609211 36.63941379263997,90.06929574604146 32.83490129746497,84.46155662776437 27.445175260305405,84.46155662776437 22.848055996000767,88.61543960438576 24.274748181924224,111.25388609059155 29.664474218152463,115.19999999995343 36.79793514776975,107.93083420663606 35.52976431604475,87.5769700105302 30.932645049877465,83.0076946860645 22.213970579206944,90.06929574604146 24.75031224358827,112.08464783418458 31.091166403144598,115.19999999995343 36.32237108517438,111.04619557829574 35.52976431604475,88.40774574654642 33.15194400586188,84.6692510676803 27.445175260305405,83.6307785587851 23.0065773492679,90.2769893577788 23.799184119328856,110.21543322084472 26.65256849117577,113.95385996252298 32.83490129746497,114.36924009770155 36.63941379263997,107.93083420663606 35.52976431604475,88.82313343056012 28.39630338549614,84.25386215629987 22.848055996000767,90.48468293889891 24.116226827725768,111.25388609059155 27.445175260305405,114.99231007054914 36.32237108517438,111.04619557829574 36.32237108517438,91.31545695650857 29.664474218152463,83.0076946860645 23.165098703466356,87.78466399037279 23.0065773492679,108.76159791427199 25.06735495198518,113.1230993232457 30.457080987282097,115.19999999995343 36.95645650103688,110.21543322084472 35.52976431604475,88.20005185890477 30.140038278885186,83.21538934088312 22.68953464180231,90.2769893577788 23.6406627651304,108.55390703317244 27.445175260305405,114.7846201104112 36.00532837770879,111.46157657227013 35.84680702351034,89.65390843036585 31.091166403144598,83.83847312221769 24.116226827725768,86.95388788648415 23.0065773492679,108.13852517947089 27.445175260305405,114.57693011953961 36.163849730975926,111.25388609059155 36.63941379263997,91.10776349843945" stroke="#4DD2FF" stroke-linecap="round" stroke-linejoin="round" stroke-width="0.5"><title>2025-04-19 4.1km</title><desc>1745066356000</desc></polyline><polyline fill="none" points="64.32538598496467,85.14476126502268 59.11921022180468,84.29212124575861 56.02804336231202,88.76847572484985 57.32958730310202,108.16585130931344 62.047684089280665,114.13422210002318 71.48387765977532,110.29741514043417 71.80926364567131,89.62111309845932 70.34502671193331,85.78424094850197 63.837307007052004,82.79999999993015 57.16689431015402,88.12899736419786 58.46843825094402,111.36319587472826 62.53576306719333,114.98684448306449 68.71809678617865,114.34737774264067 70.99579868279397,108.80532078957185 71.64657065272331,89.40795380191412 70.34502671193331,85.35792119125836 64.162692992948,83.43948072311468 57.32958730310202,87.70267829927616 59.281903214752674,111.57635192677844 66.76578087452799,114.34737774264067 71.80926364567131,109.018477219739 70.99579868279397,90.68690910702571 63.67461401410401,84.07896116247866 56.84150832518935,88.98163511510938 57.81766628101468,108.59216432750691 64.32538598496467,114.98684448306449 69.04348277114332,113.2815992126707 71.15849167481065,107.10006821283605 70.83310568984598,87.91583784704562 64.81346496287733,83.2263205134077 57.00420131813735,90.04743159608915 57.654973288066685,107.10006821283605 63.67461401410401,114.56053335440811 70.67041269689798,110.93688367528375 70.99579868279397,89.62111309845932 64.81346496287733,83.2263205134077 57.81766628101468,88.5553163025761 57.654973288066685,108.80532078957185 59.93267518375069,112.85528758028522 66.76578087452799,113.70791071932763 71.32118466775864,107.95269475318491 70.67041269689798,87.27635910804383 67.41655284538865,83.65264090092387 61.071526133455336,83.43948072311468 57.16689431015402,90.4737499684561 58.631131243892014,111.57635192677844 65.30154394079,114.77368893462699 70.18233371898532,110.93688367528375 70.18233371898532,92.3921810828615 65.62692992575467,84.93160130770411 61.88499109540135,84.07896116247866 56.678815332241356,88.34215684887022 57.654973288066685,107.73953816562425 65.464236933738,115.19999999995343 70.01964072696865,112.42897582182195 71.97195663768798,93.88429240847472 70.50771970488131,85.997400780092 66.92847386747599,83.2263205134077 57.654973288066685,88.76847572484985 58.305745258927345,111.36319587472826 61.39691211748868,114.56053335440811 70.01964072696865,111.78950794797856 70.50771970488131,92.60533993784338 64.65077196992934,84.07896116247866 58.14305226597935,86.63688008580357 57.654973288066685,108.59216432750691 60.420754162594676,113.92106642492581 69.04348277114332,113.06844341242686 71.64657065272331,91.11322728986852" stroke="#4DD2FF" stroke-linecap="round" stroke-linejoin="round" stroke-width="0.5"><title>2025-04-17 3.9km</title><desc>1744894073000</desc></polyline><polyline fill="none" points="84.72527971207455,104.52649443178416 84.89766058995156,104.62612999296834 85.39198810735252,104.50988846198925 85.68858461780474,104.33054320660267 86.21586730303534,104.22758509874984 86.43894843908492,104.27408236713018 86.7101948204363,104.18108773419226 87.45802362883114,104.04823759125429 88.06642672717862,103.858924781096 88.8522807292029,103.53675721113723 89.19197245912801,103.47365168245778 89.87389093184902,103.58325590840104 90.08683201628446,103.54339988806532 91.77261560129409,103.86224607220902 93.83611610985827,104.89182266405805 95.50922463032475,105.14754889448704 95.62076519835682,105.27375037781167 95.75005085674638,105.33020870679866 96.54350989751401,105.46305127456435 96.73617087864841,105.32024548257687 98.50814490260382,105.56932476363727 99.63369063453865,105.47301443550168 101.76056646586221,105.74201811200874 101.56283545888436,105.68223979537652 101.9684375244542,105.00141997613537 102.36389953838079,103.87553123174621 102.77964165559388,103.23119195071558 103.02807292074431,102.72633589847646 104.18910883343779,100.02250590814583 104.81018699632841,98.8099949354364 105.18536890698306,97.76352876407691 105.78363195368729,96.98280003968284 106.70384163994459,97.81336159152306 107.69503168767551,99.36144639206032 107.69756670057541,99.45113902429694 107.26661450591928,100.41448176508311 107.43646037086728,101.27148991137074 108.28822470855084,101.77970023832495 109.11970894297701,101.69333850950534 109.59122134419158,101.75644903628017 109.65459666693641,101.869383220901 109.62164149910677,102.51708302680345 109.66980674439401,102.63333486265765 109.80923245442682,102.8093722124504 110.04498865504866,102.92894396573865 110.2452546749264,103.11826460768316 110.47087082387588,103.3972605422914 110.53931617244962,103.41386733397485 110.6077615210088,103.34411872646342 110.5849464048224,103.09501479016762 110.79535247635795,102.71969298009753 110.97026836710575,102.08528522987945 111.06659885769477,102.00888937146192 111.16546436116914,101.98895997438922 111.35559032940364,102.05206967116283 111.77133244660217,101.98563840648785 112.23777482201695,102.09524988791964 112.39241060950735,102.27793450253375 112.65858696502983,102.27461297733316 112.69914717158827,102.41079510790587 112.54704639699776,102.63665633484197 112.7549174556043,102.91565824678037 113.2974102182925,103.05847931405697 113.50274626399914,103.23783471793467 113.70301228386234,103.30758365521069 114.35704561459715,103.72275142309627 114.78292778343894,103.78253495013269 115.1074094358919,104.09141397381973 115.13275956497819,104.26079744311755 114.97812377748778,104.4467856648971 114.90714341601415,104.65269940138387 114.67392222832132,105.02798894102307 114.70941240905086,105.50622494008712 114.85390814491257,105.19736535411175 115.20627493936627,104.81543634272566 115.35584070104233,104.42021601313718 115.42428604961606,104.40028875370263 115.57638682419201,104.56302752215743 115.54343165637692,104.14455402313797 116.08845943197957,103.52347185140388 116.20000000001164,102.96547965237187 110.76746733434265,95.15545655701317 110.32130506221438,94.92619751920756 110.16920428762387,94.45770438483305 109.93091307410214,94.1918883335984 109.78134731242608,94.04568816488427 109.20843439480814,93.70012034776482 108.73945700650802,93.2216330565534 108.47835067678534,92.32444191638024 107.83192238479387,92.25798188798944 107.77108207496349,92.33108790839833 107.73052186840505,92.70658326407465 107.65447148110252,93.94932844261712 107.5606760034425,94.25834264124205 107.05367342148384,95.11226300409726 106.01178311556578,96.64724446625769 105.23606916518474,97.63064068395943 104.61245598936512,98.19540959743972 103.82913700024073,99.55079708475023 102.47037008059851,102.81933654952081 102.38164462875284,103.18801391595298 102.31066426727921,103.95524202407614 101.97350755026855,104.97485097985009 101.53241530398373,105.70880795571247 100.83782176670502,105.57264580207811 99.72241608638433,105.48297759202978 98.49546983804612,105.55936164536797 96.751380956106,105.2969979422196 96.52829982005642,105.45973021993814 95.77793599876168,105.326887632551 95.60302010798478,105.25382387491481 95.50922463032475,105.1342644866163 93.82344104530057,104.87521696411204 91.78275565292279,103.84231831818761 90.19330255850218,103.54007854985139 90.00571160315303,103.51018648380523 89.85614584149153,103.55668523602617 89.18436742038466,103.4437595280815 88.84467569048866,103.51018648380523 87.48844378374633,104.02166746845432 86.75582505280909,104.15119652047906 86.3730381034402,104.26743990610885 86.20572725139209,104.22426386161351 85.73928487599187,104.30397341745811 85.620139269231,104.34382808939881 85.43761833973986,104.4932824799289 84.85203035757877,104.62612999296834 84.65683436351537,104.40693117547926 84.67457945388742,103.74932189919127 84.2005320397584,103.61646920469502 83.87098036147654,103.2212277962044 83.80000000000291,103.01862236330271 84.01801111023815,103.00201527963145 84.04843126516789,102.96880107548895 84.00787105860945,102.8857653504183" stroke="yellow" stroke-linecap="round" stroke-linejoin="round" stroke-width="0.5"><title>2025-04-14 32.8km</title><desc>1744614550000</desc></polyline><polyline fill="none" points="140.81740147527307,93.31956133781932 138.4087007381022,85.11431016214192 131.50375862419605,83.85195963073056 128.61331773921847,89.53252820845228 128.61331773921847,109.0987576378975 133.27013916429132,114.7792255039094 138.56928078643978,114.5688382089138 141.94146181922406,110.36108578823041 141.13856157287955,89.11174612818286 134.0730394097045,84.06235146394465 128.77389778848737,89.53252820845228 128.45273768901825,109.0987576378975 132.78839901741594,114.35845088365022 141.13856157287955,112.46496355289128 142.10204186849296,89.11174612818286 137.6058004917577,84.06235146394465 128.77389778848737,89.11174612818286 128.77389778848737,107.62604004726745 133.10955911502242,114.98961276758928 138.89044088497758,114.14806352625601 142.58378201629966,109.51953381241765 141.78088176902384,88.27018159430008 133.75187931209803,84.06235146394465 127.97099754214287,90.37409199669491 129.89795813243836,111.62341282016132 134.71535960771143,114.98961276758928 142.58378201629966,109.94030986214057 142.42320196609944,90.1637010963168 137.9269605902955,83.85195963073056 134.5547795575112,83.22078394552227 128.77389778848737,88.27018159430008 129.09505788702518,108.67798133881297 133.43071921356022,115.19999999995343 142.42320196609944,111.41302505950443 141.78088176902384,87.84939914033748 135.67883990239352,82.80000000004657 131.66433867253363,83.85195963073056 128.45273768901825,89.95331016462296 129.25563793629408,110.15069784095977 135.3576798029244,114.7792255039094 142.90494211390615,109.94030986214057 142.58378201629966,89.95331016462296 137.2846403932199,83.43117587163579 133.43071921356022,83.64156776643358 128.29215764068067,88.90135504119098 128.61331773921847,108.67798133881297 130.05853818170726,112.2545759161003 136.4817401478067,114.98961276758928 143.38668226171285,107.83642836776562 142.26262191683054,87.42861656297464 135.67883990239352,83.64156776643358 128.45273768901825,89.11174612818286 129.25563793629408,110.57147370488383 132.30665886960924,114.35845088365022 137.9269605902955,114.98961276758928 143.06552216317505,109.30914574058261 142.90494211390615,89.95331016462296 138.24812068790197,83.01039198867511 131.98549877200276,84.90391848422587 129.57679803390056,88.90135504119098 128.61331773921847,107.83642836776562 134.3941995082423,114.7792255039094 142.42320196609944,110.78186159033794 142.58378201629966,87.84939914033748 138.08754063863307,83.22078394552227 133.75187931209803,83.43117587163579 128.93447783775628,89.95331016462296 129.09505788702518,110.57147370488383 134.875939656049,114.98961276758928 143.54726231005043,112.88573873299174 144.02900245785713,89.7429192023119" stroke="#4DD2FF" stroke-linecap="round" stroke-linejoin="round" stroke-width="0.5"><title>2025-04-09 4.1km</title><desc>1744204461000</desc></polyline><polyline fill="none" points="159.4846086530015,115.19999999995343 163.40509269014,110.45858562202193 162.65115345269442,107.2976333637489 167.0240010311827,109.27322940086015 167.0240010311827,105.32203440740705 167.1747888782993,107.69275280437432 166.1192739456892,104.53179400751833 165.9684860985726,107.49519309867173 164.008244080469,106.30983425036538 165.6669104034081,111.64394079265185 162.3495777565986,104.92691426596139 165.3653347082436,107.89031248085666 164.1590319275856,114.01464798185043 165.3653347082436,111.44638167088851 163.1035169949755,109.6683482582448 165.9684860985726,104.72935415164102 164.008244080469,111.64394079265185 165.0637590130791,109.07566992822103 166.7224253360182,113.02685383020435 165.3653347082436,108.6805508963298 162.198789909482,113.61953040829394 163.55588053632528,109.86590764299035 165.8176982505247,111.64394079265185 163.1035169949755,113.02685383020435 165.3653347082436,109.47078884392977 165.6669104034081,112.63173596584238 163.2543048420921,107.10007359914016 164.008244080469,114.21220672421623 167.3255767263472,102.75375140074175 164.008244080469,114.40976543771103 164.6113954698667,107.10007359914016 165.9684860985726,114.01464798185043 163.7066683843732,106.70495398307685 165.9684860985726,104.33423383440822 163.40509269014,101.1732670989586 166.4208496408537,107.89031248085666 163.55588053632528,107.2976333637489 162.65115345269442,113.02685383020435 163.8574562324211,107.2976333637489 165.5161225553602,109.07566992822103 163.2543048420921,110.26102632493712 166.4208496408537,107.2976333637489 167.9287281166762,109.07566992822103 166.57163748890162,107.69275280437432 165.5161225553602,111.84149988531135 167.6271524215117,110.45858562202193 164.1590319275856,112.82929491263349 166.57163748890162,113.61953040829394 163.7066683843732,109.47078884392977 166.4208496408537,109.6683482582448 165.21454686112702,113.42197157815099 165.5161225553602,104.72935415164102 171.24606076348573,106.90251380566042 163.8574562324211,110.85370412899647 165.0637590130791,112.63173596584238 164.7621833179146,108.6805508963298 165.6669104034081,114.21220672421623 163.40509269014,109.6683482582448 168.68266735505313,111.05126333900262 166.2700617928058,114.01464798185043 166.57163748890162,106.70495398307685 164.1590319275856,108.87811042706016 166.7224253360182,108.87811042706016 165.21454686112702,112.03905894898344 163.40509269014,103.14887218433432 166.2700617928058,104.33423383440822 164.4606076227501,111.24882251920644 162.9527291469276,108.6805508963298 167.6271524215117,108.28543174674269 165.6669104034081,105.51959443418309 171.69842430576682,107.10007359914016 174.56339340936393,89.12201286689378 184.51539134792984,88.52932543051429 184.06302780564874,82.79999999993015" stroke="#4DD2FF" stroke-linecap="round" stroke-linejoin="round" stroke-width="0.5"><title>2025-04-07 1.9km</title><desc>1744030807000</desc></polyline><polyline fill="none" points="28.534065935760736,149.30031124013476 11.800000000745058,144.16900484939106 26.041758242994547,143.2360391560942 18.920879121869802,143.70252203708515 27.821978021413088,135.3058196241036 21.057142857462168,135.7723036769312 23.905494505539536,153.9651279936079 26.753846153616905,142.7695562047884 22.837362637743354,151.16623876895756 23.193406594917178,136.2387876608409 22.837362637743354,160.02937947190367 25.685714285820723,151.16623876895756 29.9582417588681,155.3645716770552 25.329670330509543,156.76401473861188 21.057142857462168,138.57120654918253 24.97362637333572,160.02937947190367 19.276923079043627,144.63548759231344 25.329670330509543,146.9679002785124 25.329670330509543,139.0376901193522 29.9582417588681,154.89809051784687 26.753846153616905,151.63272047857754 24.97362637333572,159.096418465022 21.057142857462168,145.56845287350006 23.193406594917178,150.23327514226548 29.60219780355692,146.03493541060016 23.905494505539536,164.6941803758964 30.670329669490457,153.03216519556008 23.549450550228357,158.62993785669096 21.057142857462168,151.16623876895756 24.617582416161895,156.76401473861188 33.162637362256646,148.36734706163406 26.397802198305726,151.63272047857754 29.9582417588681,158.16345718014054 26.397802198305726,154.43160928995349 26.753846153616905,135.7723036769312 22.12527472525835,152.56568369152956 27.10989011079073,146.03493541060016 22.12527472525835,137.17175542400219 24.617582416161895,149.30031124013476 28.178021978586912,145.10197026794776 21.413186812773347,159.56289900280535 19.63296703249216,145.10197026794776 23.905494505539536,156.76401473861188 24.617582416161895,146.9679002785124 18.2087912093848,151.16623876895756 15.71648351661861,138.57120654918253 26.753846153616905,160.96234020404518 23.549450550228357,153.49864662904292 31.382417583838105,140.43714041891508 26.753846153616905,159.096418465022 22.12527472525835,150.69975698948838 25.685714285820723,139.0376901193522 20.701098900288343,157.23049562214874 16.428571427240968,149.30031124013476 26.753846153616905,145.10197026794776 28.534065935760736,151.63272047857754 23.193406594917178,146.50141787924804 22.12527472525835,151.16623876895756 31.738461539149284,145.10197026794776 23.549450550228357,154.89809051784687 26.753846153616905,164.22770059481263 21.413186812773347,144.16900484939106 27.10989011079073,148.8338291856926 30.670329669490457,143.2360391560942 19.63296703249216,141.83659009705298 23.193406594917178,153.9651279936079 26.397802198305726,137.17175542400219 21.76923076994717,149.30031124013476 19.63296703249216,140.43714041891508 16.784615384414792,161.8953006605152 21.413186812773347,140.90362371387891 28.89010988920927,147.900864869589 21.76923076994717,146.50141787924804 21.413186812773347,136.2387876608409 21.057142857462168,163.76122074597515 22.12527472525835,150.23327514226548 29.60219780355692,148.36734706163406 22.837362637743354,136.70527157653123 30.670329669490457,152.56568369152956 24.617582416161895,137.63823920092545 20.345054944977164,144.63548759231344 27.821978021413088,141.37010693945922 21.057142857462168,150.69975698948838 25.329670330509543,163.29474082728848 15.71648351661861,138.57120654918253 20.701098900288343,154.89809051784687 28.534065935760736,157.23049562214874 26.397802198305726,145.10197026794776 44.20000000111759,141.83659009705298" stroke="#4DD2FF" stroke-linecap="round" stroke-linejoin="round" stroke-width="0.5"><title>2025-04-06 2.6km</title><desc>1743945103000</desc></polyline><polyline fill="none" points="50.811075747944415,155.12534632892675 52.314035646093544,154.57142100743658 52.62081476766616,154.56128810215887 53.180235518782865,154.66261695280446 53.35295989815495,154.60857495501295 55.142075111405575,154.9497129240026 57.222501591357286,155.99673826872095 58.93685550605005,156.2601758054334 59.03481858689338,156.3750066022876 59.184341183965444,156.44593121811886 59.99124761298299,156.5776477780928 60.20006365372683,156.4290444247854 61.96082113303419,156.68572233750274 63.13380012731068,156.58777978973922 64.15467854870076,156.69247698049367 65.02087842140463,156.8444559204745 65.10337364736188,156.79379638606588 65.49264799492084,156.1622314347278 65.88965626989375,155.01726439326012 66.46970082751068,154.06139253229412 67.64783577340131,151.2982590062311 68.39802673456143,149.8219737549498 68.79245703374909,148.7307451023189 69.38539147040865,147.95367745679687 70.32635264164128,148.8118288994392 71.3162953532883,150.35574464563615 71.31113940167415,150.49425277636874 70.88835136855778,151.45365190694974 70.99147040101525,152.09885895584193 71.08685550604423,152.34207364029862 71.83446849140455,152.794716302109 71.99172501591966,152.83862891921308 72.72387014640844,152.75755940637828 73.26782304263907,152.8183615679518 73.3271164863254,152.9230760226783 73.2832908975106,153.5783749424354 73.37352005092544,153.77428540493565 73.49468491406878,153.89588415788785 73.72412476131285,154.01072683066377 74.18816040738602,154.4971129311234 74.244875875258,154.48697999291107 74.30159134310088,154.39578334690668 74.283545512415,154.13570202491246 74.50782940803037,153.74726337200082 74.65992998091679,153.1662819376561 74.74242520687403,153.06832431089242 74.87647994908912,153.03792358275496 75.07498408657557,153.10548070149343 75.44105665183451,153.0311678598955 75.96438574157946,153.15614840952912 76.09844048376544,153.33517341179686 76.3768618714239,153.33855122855857 76.42326543603849,153.45001890147796 76.27632081478077,153.65606377500808 76.27374283896643,153.73713010140636 76.48255887969572,153.98708279813764 77.07033736474114,154.16272359870345 77.22759388925624,154.30796401060616 77.47765754297143,154.41604929967434 78.09637173774536,154.81123178799862 78.55267345640459,154.87878366644873 78.87749840866309,155.20302990456912 78.89554423934896,155.35839626397865 78.7460216422769,155.53064903694576 78.65837046467641,155.77720466937353 78.43408656907559,156.10819298162824 78.4289306174469,156.59115712596395 78.47533418204694,156.60466646583882 78.59907702101918,156.32434602771355 78.99608529599209,155.88528301248516 79.12240611076413,155.52727154406057 79.20747931255028,155.49687408570753 79.34669000636495,155.6488609733351 79.31833227243624,155.2435603609938 79.77205601528112,154.75043492674013 79.89837683005317,154.5511551923919 80.06078930618241,153.5817527232557 80.027275620625,153.29463957180633 80.05821133036807,152.86227413962843 80.19484404838295,152.68662334678265 80.20000000001164,152.1461509027249 80.13297262889682,151.9637385684764 80.01438574156782,151.82861738233987 78.96772756206337,151.26785592381748 78.56040738383308,150.99760452498958 78.44697644813277,150.81856121351666 78.48564608528977,150.5111439543998 78.27683004457504,150.23412705826922 78.269096117132,149.86251375371103 77.7844366645586,149.50778632625952 77.71225334182964,149.4064346214218 77.81795035010146,149.11926901679362 77.80248249522992,149.00778022144186 77.738033099944,148.96723870646383 77.500859325286,149.05845701402905 77.11158497772703,149.06859235906086 76.81511775939725,148.64628250773603 76.26858688733773,148.15977188527177 75.64213876512076,147.31173207975735 75.01569064290379,146.75085977862364 74.85585614258889,146.304855110493 74.00254614895675,145.8588417365827 73.87622533417016,145.46350442210496 73.74732654361287,145.27090171396412 73.3992998090398,144.9329983031621 72.88886059835204,144.62550185630244 72.35779758116405,144.0814595427073 72.13609166137758,143.21975110720268 71.97367918523378,143.17582000249968 71.47355187778885,143.1555440795255 71.41683640993142,143.19609590747314 71.36785486951703,143.61512724811655 71.28793761935958,144.85190074095772 71.18224061108776,145.1931843719958 70.70015913431416,146.01427162794425 69.60451941439533,147.62932836233813 68.78987905793474,148.65303952678732 68.35677912159008,149.00778022144186 68.16600891153212,149.23075726826937 67.41066199872876,150.55168273073832 65.99793125399447,153.95330556639055 65.9309038828942,154.21001127597992 65.88965626989375,154.90918194663936 65.54420751113503,155.98998342017148 65.05954805856163,156.82081481837486 64.28357733928715,156.68572233750274 63.16473583705374,156.58440245303063 61.922151495862636,156.67221304551276 60.171705919812666,156.4290444247854 60.00929344368342,156.56751576196802 59.92679821771162,156.5776477780928 59.176607256536954,156.4290444247854 58.942011457678746,156.25679842033787 57.204455760656856,155.97647371708808 55.11629535329121,154.91931469771407 53.36842775302648,154.6018196963123 53.15961171229719,154.649106465331 52.51511775939434,154.53426699946795 52.25989815405046,154.56466573775106 50.793029917258536,155.11521366916713 49.950031826869235,155.26382556225508 49.643252705282066,155.3651512991255 49.49373010821,155.32124353495055 48.978134945908096,155.40905897897755 48.67651177594962,155.60157627212539 48.09646721833269,155.74005262092942 47.838669637189014,155.54415900346248 47.8489815404173,155.51038407218948 47.80000000000291,155.58468885513685 47.83093570974597,155.52727154406057" stroke="yellow" stroke-linecap="round" stroke-linejoin="round" stroke-width="0.5"><title>2025-04-06 31.5km</title><desc>1743926920000</desc></polyline><polyline fill="none" points="84.60620608899626,154.72979735264016 84.82198477751808,154.92861770628588 85.36973067915824,154.7950354883851 85.57602459016198,154.6459194521467 86.08820257612388,154.55272139253975 86.27789812647097,154.5868940623477 87.24771662763669,154.38185721044283 88.64197892272205,153.86925633382634 88.80796252927394,153.84440264037403 89.43870023419731,153.93449713938753 89.63076697892393,153.89410999790925 91.26689110072039,154.207884980402 93.14724824354926,155.15228835723974 94.7359484777553,155.39770202880027 94.86162177986989,155.52817395396414 94.98255269321089,155.58098378877548 95.7199941452127,155.69281594239874 95.933401639355,155.56234503869382 97.5292154566705,155.79222180191755 98.59862412179064,155.70213526167936 100.38650468383275,155.91647846556407 100.8180620609055,155.22995122129032 101.19033957846113,154.1923516755851 101.71200234191201,153.32246829171163 102.82646370024304,150.7250308880739 103.48091334894707,149.4417286622629 103.82236533958348,148.46599367176714 104.647540983613,147.38455293000334 105.61973067915824,145.93943749845675 106.05128805620188,145.18731660398407 106.11768149882846,144.9946201424391 106.2599531615997,143.4312270765986 106.32160421546723,143.36595366365145 106.76738875877345,143.387711490499 106.89543325526756,143.4374435815389 107.12781030444603,144.26422235156315 107.54039812646806,144.69313987563692 108.05968969555397,145.0008361848977 108.39639929741679,145.33960771875536 108.48650468383858,145.4670341300298 108.61217798595317,145.86795609162982 109.40178571428987,146.2626547376949 109.51323185011279,146.65113041888435 110.10603044496384,147.17944582251948 110.66563231851615,147.94392577767212 111.1849238875875,148.40073589410895 111.46946721311542,148.79538698105898 111.54297423888056,148.8295690099967 111.87019906323985,148.7860645998844 112.01484192037606,148.72391528639855 112.1002049180388,148.751882500208 112.10731850116281,148.8606435335132 112.02195550351462,149.13098994988104 112.54836065573909,149.559808168593 112.5270199063234,149.83636020601443 112.74042740048026,150.1595175278435 112.6930035128753,150.4174183646919 112.75939695551642,150.54170679484014 113.12930327869253,150.80581726916716 114.17500000000291,151.38995571020496 114.29118852458487,151.6664836736636 114.26747658078966,152.02689668342646 114.31252927400055,152.14496167075959 114.67057962529361,152.24127735359616 114.77016978923348,152.30652321063826 114.78202576113108,152.44322815933992 114.56624707260926,152.85023081237705 114.57336065574782,152.98071854472437 114.71800351288402,153.02732111002297 115.08316744731565,152.76013166740813 115.20884074941569,152.79430725060047 115.23018149883137,153.83197578263025 115.28709016393987,154.01216450112224 115.43410421545559,154.12400499806427 116.08144028103561,154.24827151923273 116.20000000001164,154.3570041228486 116.19051522247901,156.3016694573489 116.08618266979465,156.28613769901312 115.78978337235458,156.06869187800658 115.32028688525315,155.93201049688832 115.09976580797229,155.9817129200801 113.44704332553374,156.62162112697843 112.15948477752681,156.63404633635037 112.13814402811113,156.5967706862084 112.34206674473535,156.15256410388793 112.69774590164889,155.78290252254192 112.69537470726937,155.27033579724957 112.98940281031537,154.73601051714468 113.13878805621061,154.55893460936568 113.13878805621061,154.45952291986578 113.08899297424068,154.39117711071594 112.82816159250797,154.13332501262266 112.59815573770902,154.05876478047867 112.36577868853055,154.05876478047867 111.75163934426382,153.6611057439004 111.56905737705529,153.58965058870126 111.39596018735028,153.44363277732373 110.86718384076084,153.29761395194146 110.70357142857392,153.04906893848965 110.84110070258612,152.84401709062695 110.81264637003187,152.71042162905906 110.54707259952556,152.70420786600698 110.41428571428696,152.542649381945 110.03726580795774,152.45565583788448 109.87128220140585,152.4401212385601 109.57014051523583,152.51158030038823 109.38044496487419,152.44944199953534 109.22868852458487,152.53022175483056 109.0887880562077,153.07081674445362 108.85878220140876,153.46848694448636 108.88012295082444,153.70460006731992 108.8350702576281,153.77605483189473 108.76393442622793,153.77916155528692 108.39639929741679,153.37528366615152 108.10237119438534,153.198196299114 108.02412177986116,153.08945770308674 107.9600995316141,152.94343641810883 107.99566744732147,152.3344856588301 107.94112997659249,152.23506345188616 107.50245901639573,152.17913825388132 106.67728337238077,152.2505982027178 105.94458430913801,151.80008576861474 105.86159250585479,151.63230625718825 105.77385831382708,150.93010340312503 106.14376463700319,150.11290860530244 106.1508782201272,149.96997393182028 105.24508196720853,148.55300372681813 104.42464871195261,147.78543831554998 104.17330210772343,147.61762675899627 104.32742974239227,147.68910221540682 104.28711943794042,147.80408396135863 103.82947892272205,148.41005844618485 103.26513466042525,148.91657756009954 102.41150468384149,150.44538332554112 101.23539227167203,153.31004112549454 101.12394613583456,154.27623138529088 100.80620608899335,155.2330577298817 100.34619437939546,155.95064891935363 99.82453161591548,155.82949887809627 98.73378220140876,155.72077388787147 97.5410714285681,155.79532822745387 95.91443208431883,155.5592385787295 95.71050936768006,155.70213526167936 94.97781030445185,155.57166441580011 94.7359484777553,155.39148905978618 93.17807377049758,155.1553948773144 91.24317915692518,154.1830316871892 89.72561475410475,153.90032340934158 89.57385831381544,153.8847898773256 89.45055620608036,153.9251770366991 88.83167447306914,153.82265563450164 88.60403981264972,153.853722778862 87.28802693208854,154.34768420742148 86.55295667448081,154.47505602733327 86.22573185012152,154.5837874582994 86.05974824356963,154.54029495338182 85.61633489462838,154.62106667664375 85.31519320842926,154.80435520554602 84.77218969554815,154.91619148924474 84.60857728337578,154.72979735264016 84.6346604215505,154.13021834156643 84.14856557377789,153.95313733236617 83.84742388757877,153.5523695417669 83.80000000000291,153.40945824950722 83.99680913348857,153.39703113471478 84.04186182669946,153.3442158148955 83.9944379391236,153.30693433279885" stroke="yellow" stroke-linecap="round" stroke-linejoin="round" stroke-width="0.5"><title>2025-04-05 35.9km</title><desc>1743843004000</desc></polyline><polyline fill="none" points="142.1823465079069,147.6857471091207 139.97436561249197,152.89288958301768 135.11680764332414,141.32145246327855 133.7920191064477,158.6785953200888 139.0911732558161,146.52860339847393 141.29915415123105,156.94288449711166 134.23361528478563,158.1000251318328 138.2079808972776,141.32145246327855 131.14244203083217,141.32145246327855 144.8319235816598,162.72858424996957 133.7920191064477,148.26431883778423 140.85755796916783,153.4714605412446 133.7920191064477,157.5214548560325 139.5327694322914,143.05717021110468 140.4159617908299,150.57860489469022 130.7008458506316,151.73574740928598 137.76638471893966,155.20717290299945 136.0,165.62143092276528 139.5327694322914,151.73574740928598 139.97436561249197,159.83573544071987 132.02563438750803,147.6857471091207 140.4159617908299,158.1000251318328 134.23361528478563,153.4714605412446 134.23361528478563,158.6785953200888 132.4672305677086,150.0000335087534 143.06553886644542,150.0000335087534 134.23361528478563,133.79999999981374 139.97436561249197,160.41430537379347 138.2079808972776,143.63574262196198 139.0911732558161,158.1000251318328 126.72648023813963,150.57860489469022 137.32478853873909,156.3643140506465 135.11680764332414,148.26431883778423 140.4159617908299,156.3643140506465 141.29915415123105,145.37145934416912 137.32478853873909,159.2571654226631 132.4672305677086,154.05003141448833 136.0,164.46429250878282 129.81765349395573,160.99287522188388 135.55840382166207,148.84289047960192 138.2079808972776,160.41430537379347 135.55840382166207,149.42146203643642 144.8319235816598,154.05003141448833 139.5327694322914,145.37145934416912 134.67521146312356,156.94288449711166 131.5840382091701,147.6857471091207 137.76638471893966,154.05003141448833 144.8319235816598,141.32145246327855 136.44159617833793,148.84289047960192 137.32478853873909,166.19999999995343 136.44159617833793,147.10717529663816 145.27351976186037,157.5214548560325 139.97436561249197,145.95003141486086 138.2079808972776,159.83573544071987 130.7008458506316,148.26431883778423 138.64957707561553,139.58573394548148 139.0911732558161,161.57144498452544 133.7920191064477,153.4714605412446 137.32478853873909,144.79288718895987 136.0,158.6785953200888 143.06553886644542,151.73574740928598 136.0,161.57144498452544 133.7920191064477,147.6857471091207 144.8319235816598,159.83573544071987 134.23361528478563,152.89288958301768 136.0,165.0428617580328 139.0911732558161,152.3143185384106 132.02563438750803,152.3143185384106 133.35042292624712,159.2571654226631 139.5327694322914,150.57860489469022 131.5840382091701,148.84289047960192 136.8831923585385,161.57144498452544 135.11680764332414,150.57860489469022 139.5327694322914,155.20717290299945 133.35042292624712,162.72858424996957 132.4672305677086,145.37145934416912 139.0911732558161,156.3643140506465" stroke="#4DD2FF" stroke-linecap="round" stroke-linejoin="round" stroke-width="0.5"><title>2025-04-04 1.7km</title><desc>1743771861000</desc></polyline><polyline fill="none" points="177.99498628731817,133.79999999993015 170.8010027417913,135.7636588482419 166.9042616551742,141.2618881877279 167.95338425505906,162.46913114748895 172.44962397124618,165.6109161407221 175.7468664292246,164.62910912791267 178.29473560117185,159.91642537282314 177.69523697160184,140.08369810099248 170.8010027417913,136.94185276469216 165.40551508311182,144.20735883398447 167.2040109699592,162.07640750182327 168.85263219848275,164.82547058886848 175.14736780058593,165.02183202002198 178.74435957241803,160.3091496573761 176.4962397152558,141.06552324583754 171.5503760278225,136.74548718414735 165.85513905528933,142.04734766494948 166.9042616551742,162.66549292742275 175.44711711537093,164.82547058886848 179.34385820105672,159.52370097208768 176.79598902910948,139.49460266612004 171.5503760278225,136.74548718414735 166.9042616551742,139.10187223157845 166.15488837007433,160.50551175593864 170.9508773991838,165.6109161407221 178.89423422981054,161.68368373939302 178.29473560117185,142.04734766494948 171.70025068428367,136.94185276469216 164.65614179801196,142.63644196849782 165.40551508311182,158.3455270738341 169.90175479929894,165.41455479629803 176.1964904004708,164.43274763866793 179.34385820105672,159.3273387281224 178.14486094377935,142.4400772297522 170.9508773991838,136.74548718414735 164.95589111186564,142.83280667848885 166.9042616551742,163.4509397560032 175.5969917718321,164.43274763866793 179.34385820105672,158.3455270738341 176.3463650578633,140.476428246242 169.15238151233643,137.72731479466893 164.95589111186564,143.02917135949247 166.6045123403892,162.46913114748895 173.34887191466987,165.6109161407221 178.29473560117185,162.46913114748895 179.34385820105672,158.3455270738341 177.09573834296316,139.6909678404918 169.15238151233643,137.13821831555106 165.40551508311182,143.61826522741467 166.3047630265355,161.09459787793458 170.65112808533013,165.6109161407221 178.89423422981054,161.09459787793458 178.29473560117185,141.2618881877279 170.8010027417913,136.94185276469216 164.95589111186564,141.85098283935804 166.3047630265355,162.66549292742275 169.15238151233643,165.41455479629803 175.8967410866171,164.82547058886848 179.04410888720304,159.13097645540256 178.29473560117185,141.45825310074724 173.79849588591605,136.74548718414735 167.2040109699592,138.12004563596565 164.95589111186564,141.45825310074724 167.0541363125667,164.0400245724013 173.79849588591605,166.19999999995343 179.19398354459554,161.2909598610131 178.74435957241803,146.563730651862" stroke="#4DD2FF" stroke-linecap="round" stroke-linejoin="round" stroke-width="0.5"><title>2025-04-02 4.0km</title><desc>1743590878000</desc></polyline><polyline fill="none" points="23.195890348404646,192.02299503283575 20.5181898875162,192.02299503283575 20.20316630322486,207.50071575830225 24.455984682776034,215.75543001969345 34.221715776249766,211.6280789867742 33.591668609529734,199.03958301327657 35.95434548705816,198.00773405027576 32.01655069086701,187.27645964722615 20.990725263021886,188.92743030632846 20.990725263021886,208.32618937967345 24.455984682776034,214.92996078869328 32.96162144187838,212.24718241905794 33.434156817384064,193.05484841624275 29.33885022997856,185.8318587198155 20.5181898875162,190.37202803231776 20.20316630322486,207.91345262993127 24.140961099416018,214.72359340521507 29.33885022997856,215.75543001969345 34.06420398596674,211.42171111539938 33.90669219288975,191.61025346559472 26.503637976944447,185.62548703700304 21.305748846381903,189.34017266624141 20.833213470876217,208.94529427564703 26.818661560304463,215.34269546554424 30.44143277220428,214.92996078869328 34.69425115175545,209.15166251338087 33.90669219288975,190.57839901419356 28.23626768682152,185.62548703700304 20.990725263021886,188.3083165382268 21.305748846381903,210.80260731675662 28.078755895607173,215.96179725101683 33.74918040074408,210.1835032441886 34.536739360541105,189.75291490426753 27.448708727955818,185.21274357941002 20.990725263021886,191.61025346559472 21.77828422188759,210.38987129868474 28.23626768682152,215.96179725101683 33.434156817384064,213.2790208637016 35.32429832033813,207.91345262993127 33.434156817384064,189.1338015019428 27.921244103461504,185.21274357941002 21.46326063759625,189.54654380097054 21.62077242974192,209.9771351593081 26.503637976944447,215.54906275786925 33.591668609529734,212.453550169128 34.69425115175545,190.57839901419356 27.763732312247157,185.41911532380618 20.045654512010515,190.37202803231776 21.148237055167556,212.04081463906914 27.448708727955818,216.78726587281562 34.221715776249766,212.04081463906914 33.74918040074408,189.34017266624141 27.448708727955818,185.62548703700304 20.5181898875162,190.1656570204068 22.093307806178927,213.2790208637016 27.133685144595802,216.58089876302984 32.174062483012676,216.16816445230506 34.379227568395436,212.24718241905794 34.06420398596674,190.57839901419356 27.29119693674147,184.79999999993015 20.833213470876217,190.37202803231776 23.195890348404646,213.0726532356348 25.401055433787405,215.96179725101683 33.434156817384064,217.19999999995343 35.32429832033813,192.02299503283575" stroke="#4DD2FF" stroke-linecap="round" stroke-linejoin="round" stroke-width="0.5"><title>2025-03-30 4.0km</title><desc>1743343343000</desc></polyline><polyline fill="none" points="71.25089058093727,189.20004550553858 69.57173697277904,191.0000599991763 65.75547877140343,187.60003061266616 67.58728270791471,189.20004550553858 67.73993303626776,186.80002245749347 62.85512253828347,184.79999999993015 57.665011384524405,187.2000265943352 55.6805571205914,206.6000853512669 58.12296236958355,214.20003257726785 65.14487745892256,217.19999999995343 71.25089058093727,213.0000437463168 72.472093205899,207.8000798546709 72.62474353425205,202.8000957381446 68.50318467617035,187.80003257782664 61.02331860270351,186.0000138290925 55.37525646481663,193.6000767092919 58.88621400948614,214.00003451213706 65.9081291006878,216.40000933699775 71.55619123764336,211.0000599983614 70.33498861268163,189.00004374724813 62.70247221086174,185.80001159838866 56.74910941720009,191.80006567284 58.73356368113309,213.40004014130682 66.51873041223735,215.80001602938864 71.09824025444686,211.0000599983614 70.33498861268163,188.20003641955554 61.328619258478284,186.40001820249017 57.05441007297486,191.80006567284 57.81766171287745,210.40006429725327 62.24452122673392,215.6000182016287 67.43463238049299,215.6000182016287 71.86149189434946,211.0000599983614 70.48763894103467,189.40004723449238 61.02331860270351,186.80002245749347 55.83320744894445,192.60007087339181 58.12296236958355,211.4000569845084 65.45017811562866,215.80001602938864 71.70884156506509,210.2000656715827 71.09824025444686,191.40006289514713 64.53427614737302,187.00002454058267 60.870668274350464,187.2000265943352 57.35971072874963,192.00006701762322 59.038864336907864,213.20004195871297 67.43463238049299,216.2000115979463 71.25089058093727,210.80006146116648 69.57173697277904,188.80004195973743 64.22897549066693,185.60000933753327 57.665011384524405,190.40005543420557 58.58091335371137,211.0000599983614 63.007772866636515,216.2000115979463 67.58728270791471,215.6000182016287 71.09824025444686,211.200058505754 70.79293959680945,190.8000585072441 64.22897549066693,186.20001603022683 57.665011384524405,191.20006146212108 57.665011384524405,210.00006701564416 61.48126958590001,215.20002245658543 66.0607794271782,216.2000115979463 70.9455899251625,212.00005224149209 70.1823382852599,191.6000642987201 63.77102450747043,186.40001820249017 57.05441007297486,191.80006567284 57.81766171287745,212.4000489320606 63.77102450747043,216.6000070469454 70.9455899251625,211.0000599983614 69.87703762948513,189.00004374724813 63.465723850764334,185.80001159838866 56.443808760493994,193.40007560141385 57.81766171287745,212.00005224149209 65.75547877140343,216.40000933699775 71.09824025444686,209.00007329508662 70.02968795690686,189.80005060322583 63.16042319498956,186.40001820249017 57.207060400396585,192.800072099315 58.27561269700527,212.4000489320606 62.85512253828347,216.6000070469454 70.33498861268163,213.20004195871297" stroke="#4DD2FF" stroke-linecap="round" stroke-linejoin="round" stroke-width="0.5"><title>2025-03-30 4.5km</title><desc>1743327729000</desc></polyline><polyline fill="none" points="105.26294416189194,186.0777457592194 105.34517766488716,187.15518690022873 99.91776649747044,190.06427002866985 97.28629441605881,190.17201362515334 99.42436548182741,197.0675707019982 93.33908629463986,197.4985408540233 93.6680203047581,200.94629290350713 88.98071066010743,198.89919209014624 85.19796954328194,200.08435641927645 83.79999999981374,204.1785456452053 84.62233502510935,214.30617813166464 87.99390862928703,216.46097540808842 91.85888324910775,214.30617813166464 93.58578680176288,197.8217683013645 97.53299492411315,197.39079833991127 100.90456852782518,198.1449956051656 108.30558375641704,206.44111404038267 109.8680203044787,206.65659637824865 111.5126903555356,203.20887132687494 116.20000000018626,207.19530194532126 114.88426395924762,212.90555648796726 114.63756345119327,206.1178904135013 110.36142132012174,203.74757944088196 109.04568527871743,206.44111404038267 107.15431472100317,205.04047729016747 97.61522842617705,190.3875007708557 105.01624365476891,187.90939475153573 103.78274111635983,185.53902459191158" stroke="#4DD2FF" stroke-linecap="round" stroke-linejoin="round" stroke-width="0.5"><title>2025-03-29 1.5km</title><desc>1743247652000</desc></polyline><polyline fill="none" points="127.87452751677483,208.53942665953946 128.42354592774063,209.11489198326308 128.11609561752994,208.62574656658398 127.78668457095046,208.97102581179934 127.984331198968,209.77667500331881 129.21413243957795,211.6469192057557 130.68550178117584,212.94169313198654 131.21255945588928,211.76201056997525 130.90510914567858,211.1865530684736 131.36628461082,211.6469192057557 131.08079503721092,213.34450993117935 132.39843922364525,214.32277583178075 137.07607608556282,215.07085820483917 140.43606876104604,217.1999999999971 144.2791976382723,216.39438151767536 145.04782341374084,215.1859475455858 144.5646872119978,197.80668675426568 143.94978659169283,196.56936235548346 142.5662601958029,195.5334568121907 140.76547980774194,194.4687703722593 138.74509205517825,195.01550197396136 137.4494086051127,193.2602003314678 135.62666748045012,187.36111984915624 136.39529325591866,187.04457877103414 136.90039019403048,188.45462143248005 138.3058773262892,188.68483150957036 138.810974264401,187.76398956798948 138.21803438046481,184.97266082411807 136.98823313973844,184.8000000000029 136.10980368207674,185.37553548492724 134.77019875927363,185.4618656609382 133.32079015416093,186.3539419050503 129.54354348615743,186.81436675449368 127.23766615986824,187.79276594461408 127.83060604380444,190.84303774594446 126.99609805911314,193.0587712620909 126.95217658625916,199.04400329079363 127.21570542349946,205.02905135920446 127.89648825326003,207.8488660264411" stroke="#4DD2FF" stroke-linecap="round" stroke-linejoin="round" stroke-width="0.5"><title>2025-03-25 3.9km</title><desc>1742910133000</desc></polyline><polyline fill="none" points="177.1519325878471,184.79999999993015 166.33287415467203,194.0813439320773 165.68888258142397,197.9626108475495 169.03763876343146,215.68127053126227 173.41678146226332,216.35626165545546 177.66712584579363,213.15005026198924 176.2503443849273,196.27510511386208 173.80317640630528,192.73133495636284 168.26484887488186,193.06883734988514 166.33287415467203,200.15636457502842 168.00725224614143,215.00627900776453 173.54557977663353,216.52500937413424 177.28073090175167,213.31879845482763 176.76553764380515,195.2626004765043 170.71201685350388,191.55007579398807 166.84806741401553,194.5875968862092 166.4616724695079,212.98130204493646 172.12879831530154,216.35626165545546 177.02313427301124,213.6562947644852 177.1519325878471,198.13136128452606 175.86394944041967,193.74384183785878 172.25759662967175,191.71882717800327 169.16643707780167,191.71882717800327 165.81768089625984,196.1063544030767 166.59047078434378,212.98130204493646 171.09841179754585,216.69375706778374 177.1519325878471,213.6562947644852 176.5079410141334,195.43135131173767 171.48480674158782,191.55007579398807 165.68888258142397,197.2876088534249 166.07527752546594,212.98130204493646 172.51519325887784,216.35626165545546 177.4095292170532,211.80006382521242 177.1519325878471,195.76885290723294 172.64399157417938,191.2125729516847 166.59047078434378,194.5875968862092 165.81768089625984,211.80006382521242 169.42403370700777,216.52500937413424 172.25759662967175,216.69375706778374 177.4095292170532,211.4625669666566 176.5079410141334,194.0813439320773 170.71201685350388,191.38132438552566 166.07527752546594,197.62510990037117 166.719269098714,213.6562947644852 169.68163033621386,216.35626165545546 173.54557977663353,216.0187661431264 177.79592416109517,211.12507000821643 176.2503443849273,194.0813439320773 169.93922696541995,192.05632987013087 166.07527752546594,197.9626108475495 167.6208573016338,214.83753106475342 172.51519325887784,216.8625047368696 177.4095292170532,213.82504288223572 177.4095292170532,198.30011169577483 176.8943359577097,194.75634782144334 172.51519325887784,191.2125729516847 166.59047078434378,193.5750907533802 166.33287415467203,213.31879845482763 171.6136050564237,216.35626165545546 175.21995786763728,215.68127053126227 177.9247224754654,212.13756058365107 176.8943359577097,195.2626004765043 172.9015882029198,191.38132438552566 167.6208573016338,192.73133495636284 165.81768089625984,195.76885290723294 166.20407583983615,211.80006382521242 172.12879831530154,217.19999999995343 177.79592416109517,215.00627900776453 178.3111174190417,197.4563593895873" stroke="#4DD2FF" stroke-linecap="round" stroke-linejoin="round" stroke-width="0.5"><title>2025-03-24 4.1km</title><desc>1742817301000</desc></polyline><polyline fill="none" points="28.080290095880628,238.11431016144343 25.35042683966458,236.2207839456387 21.335922053083777,240.00783386046533 21.81766262743622,260.8364283677656 27.598549521528184,267.7792255029781 35.14581852219999,262.5195338121848 34.8246581396088,241.2701815936016 30.488992968574166,236.43117587140296 21.1753418603912,239.3766595737543 21.81766262743622,261.4675931421807 26.635068371891975,267.3584508827189 30.16783258598298,267.568838208681 35.14581852219999,262.9403098617913 34.34291756525636,241.0597903827438 27.759129712358117,236.01039198797662 21.01476167049259,242.1117461278336 21.335922053083777,260.205263312906 27.11680894717574,268.19999999995343 34.8246581396088,263.9922494434286 35.306398713961244,241.69096392265055 26.474488181062043,235.79999999993015 22.13882301095873,239.58705103339162 21.335922053083777,260.6260400470346 28.722610861994326,268.19999999995343 34.8246581396088,263.7818615894066 34.664077947847545,240.00783386046533 26.474488181062043,235.79999999993015 21.657082435674965,242.1117461278336 21.978242819197476,264.2026372667169 27.759129712358117,268.19999999995343 35.62755909655243,263.7818615894066 34.18233737256378,240.00783386046533 29.043771244585514,235.79999999993015 21.81766262743622,241.2701815936016 22.13882301095873,262.5195338121848 27.43796932976693,267.7792255029781 35.14581852219999,264.2026372667169 34.34291756525636,242.7429192023119 26.474488181062043,235.79999999993015 20.211860712617636,242.1117461278336 21.496502244845033,261.25720491528045 25.511007032357156,267.3584508827189 34.50349775515497,264.2026372667169 34.98523833043873,241.0597903827438 29.364931628108025,236.01039198797662 20.69360128697008,241.2701815936016 21.1753418603912,261.04681665694807 27.598549521528184,267.3584508827189 31.29189392644912,267.1480635261396 35.78813928831369,261.67798133799806 35.14581852219999,241.90135504095815 32.576535457745194,237.4831350358436 26.79564856365323,236.01039198797662 21.1753418603912,243.16370109573472 21.978242819197476,261.8883695033146 26.474488181062043,267.568838208681 34.8246581396088,263.7818615894066 34.98523833043873,241.2701815936016 32.094794884324074,237.06235146324616 25.511007032357156,236.01039198797662 21.496502244845033,241.90135504095815 21.978242819197476,262.9403098617913 26.79564856365323,268.19999999995343 35.306398713961244,263.7818615894066 35.78813928831369,241.90135504095815 30.16783258598298,268.19999999995343" stroke="#4DD2FF" stroke-linecap="round" stroke-linejoin="round" stroke-width="0.5"><title>2025-03-23 4.2km</title><desc>1742719228000</desc></polyline><polyline fill="none" points="59.70252539310604,235.80000000004657 56.83754232060164,239.55369874404278 58.345428148284554,264.4463816698408 65.73406870290637,267.0146479816176 71.9164005946368,259.5073941301089 70.55930335074663,243.70251141255721 61.05962263699621,238.17075832746923 56.68675373867154,245.48057004367 57.893062399700284,263.8537041285308 63.170662796124816,267.21220672421623 70.55930335074663,262.66834825708065 69.80536043643951,242.51713767787442 61.81356555130333,237.5780691393884 56.68675373867154,242.71470003994182 57.440696652047336,263.06346699805 63.77381712663919,268.0024414026411 67.84510886110365,266.8170892095659 70.71009193267673,262.07566992752254 70.25772618409246,244.09763575706165 61.96435413416475,237.77563223149627 58.797793896868825,238.56588430679403 56.385176572948694,245.875693863607 58.04385098349303,264.24882251862437 67.24195452965796,267.0146479816176 72.82113209087402,263.8537041285308 70.86088051553816,243.30738695105538 61.05962263699621,238.3683213320328 56.23438799008727,246.07325572927948 56.83754232060164,262.273229399696 61.36119980271906,267.4097654375946 69.50378327071667,267.60732412175275 70.40851476788521,265.4341769890161 71.162457681261,245.2830080903368 66.94037736393511,239.1585730566876 62.4167198818177,238.17075832746923 57.13911948632449,242.31957528693601 56.83754232060164,264.05126333783846 65.43249153718352,267.60732412175275 70.86088051553816,261.4829913354479 69.80536043643951,242.31957528693601 64.37697145808488,237.9731952942675 59.09937106259167,237.9731952942675 55.178867910057306,249.43180298234802 58.64700531307608,265.4341769890161 64.98012578859925,266.8170892095659 71.9164005946368,261.0878721277695 69.35299468878657,241.13420032628346 60.60725688934326,238.3683213320328 58.04385098349303,239.75126154418103 56.23438799008727,253.77814573026262 59.25015964452177,266.8170892095659 66.63880019914359,267.4097654375946 70.86088051553816,260.8903124801582 68.59905177447945,241.33176289242692 63.47223996091634,236.59025324310642 56.988330903463066,240.54151245218236 57.13911948632449,263.6561448898865 63.01987421326339,268.19999999995343 71.31324626412243,263.26102632435504 69.80536043643951,241.72688793751877 62.86908563040197,236.59025324310642 56.68675373867154,241.52932542946655 56.83754232060164,262.07566992752254 63.77381712663919,267.8048827770399 70.40851476788521,264.24882251862437 69.80536043643951,244.09763575706165" stroke="#4DD2FF" stroke-linecap="round" stroke-linejoin="round" stroke-width="0.5"><title>2025-03-21 4.2km</title><desc>1742565279000</desc></polyline><polyline fill="none" points="101.5971142030321,237.42002728569787 97.26944991014898,235.79999999998836 96.03297439776361,237.2850251212949 95.31169701507315,252.13514359510737 100.97887644683942,254.83513920684345 105.30654074018821,250.38014216924785 102.83358971588314,237.01502073334996 97.68160841381177,236.7450162655441 94.59041963331401,240.25506812380627 97.37248953571543,253.89014165016124 101.08191607287154,255.37513737182599 104.58526335842907,252.810143246199 104.4822237319313,239.1750536033651 100.0515198125504,236.47501171787735 96.54817252745852,236.88001850951696 94.69345925888047,240.39006984891603 96.13601402333006,253.08014296658803 100.36063869064674,255.91513521742309 103.96702560177073,253.62014216877287 104.58526335842907,239.71506102313288 101.18495569890365,237.01502073334996 95.31169701507315,237.96003574226052 95.10561776300892,250.51514239876997 97.26944991014898,254.83513920684345 99.74240093445405,255.51013686321676 103.96702560177073,253.21514279738767 104.37918410543352,239.0400516988011 103.24574822001159,237.15002293721773 98.71200467459857,236.61001400183886 95.72385551966727,238.63504586491035 94.79649888491258,247.2751313893823 98.09376691840589,255.24013786029536 103.65790672367439,254.16014105186332 104.79134261002764,239.98506461340003 104.37918410543352,237.96003574226052 98.6089650481008,236.7450162655441 95.62081589316949,239.31005548831308 96.96033103158697,252.94514311646344 98.71200467459857,255.24013786029536 103.96702560177073,254.70013961574296 104.4822237319313,243.49510402482701 99.33024242985994,251.19014324626187 97.88768766541034,256.1851340205176 98.81504430016503,268.20000000001164 103.7609463497065,266.7150251205312 104.89438223652542,256.99512995185796 103.24574822001159,238.2300398509833 98.19680654397234,236.07000474701636 94.59041963331401,239.0400516988011 95.31169701507315,250.78514279733645 100.0515198125504,255.6451363345841 104.37918410543352,252.810143246199 104.89438223652542,239.85006282816175 99.63936130842194,235.9350023837178 95.72385551966727,238.2300398509833 95.41473664157093,252.2701435649651 99.43328205635771,255.37513737182599 104.27614447986707,252.4051435153233 104.68830298352987,239.1750536033651 99.94848018651828,235.9350023837178 96.44513290189207,238.09503780654632 96.23905364936218,254.16014105186332 98.81504430016503,256.32013339264086 102.0092727066949,255.91513521742309 103.65790672367439,253.48514239798533 105.40958036622033,240.7950749048614" stroke="#4DD2FF" stroke-linecap="round" stroke-linejoin="round" stroke-width="0.5"><title>2025-03-10 4.0km</title><desc>1741591515000</desc></polyline><polyline fill="none" points="144.4808949455619,242.0308272264665 135.9207392996177,236.63077855936717 129.2628404647112,241.40774574666284 129.42136186547577,263.63081446127035 134.33552529104054,267.99231007078197 142.8956809360534,262.8000518582994 142.42011673375964,243.06929574592505 137.98151751048863,237.4615566271823 128.9457976622507,241.2000518591376 128.7872762614861,263.4231238560751 132.90883268322796,267.1615500457119 143.0542023377493,263.4231238560751 143.52976654004306,243.27698935789522 137.0303891049698,237.04616765503306 129.42136186547577,241.2000518591376 129.89692606776953,263.63081446127035 135.12813229579479,267.7846201102948 140.6763813244179,266.53847970464267 143.37124513834715,262.3846703725867 143.37124513834715,244.31545695639215 137.1889105066657,237.2538621564163 129.1043190639466,241.82313343079295 129.42136186547577,261.5539070335217 135.28665369655937,267.99231007078197 143.2127237385139,263.0077425552299 142.57863813452423,240.9923579399474 133.8599610887468,237.04616765503306 129.42136186547577,240.9923579399474 129.89692606776953,264.46157657250296 136.0792607003823,267.7846201102948 143.2127237385139,262.8000518582994 143.0542023377493,243.90007000905462 137.66447470895946,237.04616765503306 131.79918287787586,237.66925106791314 128.62875486165285,241.40774574666284 128.9457976622507,262.59236113051884 134.9696108950302,267.5769301194232 143.0542023377493,262.8000518582994 141.94455253053457,240.5769700104138 136.71334630344063,235.79999999993015 128.47023345995694,241.2000518591376 128.9457976622507,262.59236113051884 137.0303891049698,267.5769301194232 142.73715953622013,262.59236113051884 142.26159533392638,240.9923579399474 136.55482490267605,236.00769468571525 127.51910505443811,242.23852099187206 129.2628404647112,264.0461955778301 138.6156031144783,267.5769301194232 142.8956809360534,263.21543322107755 142.10307393223047,239.95388788660057 133.8599610887468,236.8384731222177 128.9457976622507,240.9923579399474 128.9457976622507,262.59236113051884 137.0303891049698,267.7846201102948 143.2127237385139,262.8000518582994 143.52976654004306,242.23852099187206 136.39630350284278,236.8384731222177 128.62875486165285,242.86160210357048 129.1043190639466,264.66926702391356 134.33552529104054,268.19999999995343 142.42011673375964,262.8000518582994 144.32237354386598,242.0308272264665" stroke="#4DD2FF" stroke-linecap="round" stroke-linejoin="round" stroke-width="0.5"><title>2025-03-09 4.1km</title><desc>1741514669000</desc></polyline><polyline fill="none" points="166.32579407840967,254.66309869848192 171.57655179779977,265.5370126615744 175.98041311092675,265.75892845366616 181.23117083031684,260.4329404005548 178.5211023297161,236.02192018541973 166.83393192104995,235.80000000004657 162.43007060792297,240.9041559670586 169.0358625780791,262.652104384033 179.36799873691052,264.64934916666243 182.41682579927146,255.10693346254993 178.69048161059618,240.9041559670586 181.73930867388844,238.9068796109641 164.2932427022606,246.00829458853696 165.14013910852373,243.34526790643577 171.57655179779977,247.33980615925975 169.0358625780791,252.22200515249278 170.72965539060533,265.5370126615744 178.18234376702458,265.31509683735203 181.90868795569986,259.5452738889726 175.30289598554373,237.79728048783727 165.14013910852373,236.6876805445645 161.58317420165986,242.23567206249572 167.00331120286137,254.8850160971051 166.66455264016986,262.20827185024973 175.13351670466363,267.97808456851635 179.87613658048213,259.32335717917886 177.16606807895005,240.46031700621825 168.01958689000458,236.02192018541973 162.09131204616278,240.9041559670586 165.98703551571816,263.98360120086 176.14979239180684,268.19999999995343 180.38427442405373,261.7644391844515 179.36799873691052,237.35344060859643 168.188966171816,236.6876805445645 165.47889767121524,246.8959691002965" stroke="#4DD2FF" stroke-linecap="round" stroke-linejoin="round" stroke-width="0.5"><title>2025-03-05 1.9km</title><desc>1741161630000</desc></polyline></svg>