<?xml version="1.0" encoding="utf-8" ?>
<svg baseProfile="full" height="300mm" version="1.1" viewBox="0,0,200,300" width="200mm" xmlns="http://www.w3.org/2000/svg" xmlns:ev="http://www.w3.org/2001/xml-events" xmlns:xlink="http://www.w3.org/1999/xlink"><defs /><rect fill="#222222" height="300" width="200" x="0" y="0" /><text fill="#FFFFFF" style="font-size:12px; font-family:Arial; font-weight:bold;" x="10" y="20">Over 10km Runs</text><text fill="#FFFFFF" style="font-size:4px; font-family:Arial" x="10" y="280">ATHLETE</text><text fill="#FFFFFF" style="font-size:9px; font-family:Arial" x="10" y="290">TXyy2025</text><text fill="#FFFFFF" style="font-size:4px; font-family:Arial" x="65" y="280">SPECIAL TRACKS</text><rect fill="yellow" height="2.6" width="2.6" x="65" y="283" /><text fill="#FFFFFF" style="font-size:3px; font-family:Arial" x="70" y="285.5">Over 20.0 km</text><rect fill="red" height="2.6" width="2.6" x="65" y="287" /><text fill="#FFFFFF" style="font-size:3px; font-family:Arial" x="70" y="289.5">Over 40.0 km</text><text fill="#FFFFFF" style="font-size:4px; font-family:Arial" x="120" y="280">STATISTICS</text><text fill="#FFFFFF" style="font-size:3px; font-family:Arial" x="120" y="285">Number: 12</text><text fill="#FFFFFF" style="font-size:3px; font-family:Arial" x="120" y="290">Weekly: 2.4</text><text fill="#FFFFFF" style="font-size:3px; font-family:Arial" x="141" y="285">Total: 41.8 km</text><text fill="#FFFFFF" style="font-size:3px; font-family:Arial" x="141" y="290">Avg: 3.5 km</text><text fill="#FFFFFF" style="font-size:3px; font-family:Arial" x="167" y="285">Min: 1.5 km</text><text fill="#FFFFFF" style="font-size:3px; font-family:Arial" x="167" y="290">Max: 4.5 km</text><polyline fill="none" points="50.303910847753286,56.14291184861213 46.62394268810749,64.82148263882846 38.52801274135709,45.535754105541855 36.320031844079494,74.46432553371415 45.15195542946458,54.21433899784461 48.831923585385084,71.57147416193038 37.056025475263596,73.5000418862328 43.679968163371086,45.535754105541855 31.904070053249598,45.535754105541855 54.71987263858318,81.21430708328262 36.320031844079494,57.10719806328416 48.09592995047569,65.78576756920666 36.320031844079494,72.53575809393078 45.88794905692339,48.428617018740624 47.35993631929159,60.96434149099514 31.168076418340206,62.89291234919801 42.943974532186985,68.67862150492147 40.00000000372529,86.03571820445359 45.88794905692339,62.89291234919801 46.62394268810749,76.39289240119979 33.3760573156178,56.14291184861213 47.35993631929159,73.5000418862328 37.056025475263596,65.78576756920666 37.056025475263596,74.46432553371415 34.11205095052719,60.00005584815517 51.77589811012149,60.00005584815517 37.056025475263596,33.0 46.62394268810749,77.35717562353238 43.679968163371086,49.392904370091856 45.15195542946458,73.5000418862328 24.544133730232716,60.96434149099514 42.207980897277594,70.60719008464366 38.52801274135709,57.10719806328416 47.35993631929159,70.60719008464366 48.831923585385084,52.28576557384804 42.207980897277594,75.42860903823748 34.11205095052719,66.75005235755816 40.00000000372529,84.10715418169275 29.696089155972004,78.32145870337263 39.26400637254119,58.071484132669866 43.679968163371086,77.35717562353238 39.26400637254119,59.0357700609602 54.71987263858318,66.75005235755816 45.88794905692339,52.28576557384804 37.7920191064477,71.57147416193038 32.6400636844337,56.14291184861213 42.943974532186985,66.75005235755816 54.71987263858318,45.535754105541855 40.73599363490939,58.071484132669866 42.207980897277594,87.0 40.73599363490939,55.178625494707376 55.455866273492575,72.53575809393078 46.62394268810749,53.250052358489484 43.679968163371086,76.39289240119979 31.168076418340206,57.10719806328416 44.41596179455519,42.64288990944624 45.15195542946458,79.28574164072052 36.320031844079494,65.78576756920666 42.207980897277594,51.321478648576885 40.00000000372529,74.46432553371415 51.77589811012149,62.89291234919801 40.00000000372529,79.28574164072052 36.320031844079494,56.14291184861213 54.71987263858318,76.39289240119979 37.056025475263596,64.82148263882846 40.00000000372529,85.07143626362085 45.15195542946458,63.85719756409526 33.3760573156178,63.85719756409526 35.5840382091701,75.42860903823748 45.88794905692339,60.96434149099514 32.6400636844337,58.071484132669866 41.4719872623682,79.28574164072052 38.52801274135709,60.96434149099514 45.88794905692339,68.67862150492147 35.5840382091701,81.21430708328262 34.11205095052719,52.28576557384804 45.15195542946458,70.60719008464366" stroke="#4DD2FF" stroke-linecap="round" stroke-linejoin="round" stroke-width="0.5"><title>2025-04-04 1.7km</title><desc>1743771861000</desc></polyline><polyline fill="none" points="109.99164381250739,33.0 98.00167123693973,36.272764747263864 91.50710275862366,45.436480313073844 93.25564042571932,80.78188524604775 100.74937328603119,86.01819356810302 106.24477738235146,84.38184854667634 110.49122600257397,76.52737562148832 109.49206162057817,43.47283016843721 98.00167123693973,38.23642127471976 89.00919180642813,50.34559805667959 92.00668494962156,80.12734583672136 94.7543869977817,84.70911764842458 105.24561300128698,85.03638670011424 111.24059928860515,77.18191609578207 107.49373285844922,45.10920540988445 99.25062671303749,37.9091453072615 89.75856509245932,46.7455794417765 91.50710275862366,81.10915487911552 105.74519519228488,84.70911764842458 112.2397636687383,75.8728349537123 107.99331504944712,42.491004443727434 99.25062671303749,37.9091453072615 91.50710275862366,41.836453719530255 90.25814728345722,77.50918625993654 98.25146233197302,86.01819356810302 111.49039038363844,79.47280623251572 110.49122600257397,46.7455794417765 99.50041780807078,38.23642127471976 87.76023633033037,47.727403281023726 89.00919180642813,73.90921178995632 96.50292466487736,85.69092466076836 106.99415066838264,84.05457939812914 112.2397636687383,75.54556454718113 110.24143490660936,47.40012871660292 98.25146233197302,37.9091453072615 88.25981852039695,48.05467779771425 91.50710275862366,82.41823292686604 105.99498628638685,84.05457939812914 112.2397636687383,73.90921178995632 107.24394176341593,44.12738041067496 95.25396918784827,39.5455246581696 88.25981852039695,48.381952265976 91.00752056762576,80.78188524604775 102.24811985809356,86.01819356810302 110.49122600257397,80.78188524604775 112.2397636687383,73.90921178995632 108.4928972395137,42.818279734347016 95.25396918784827,38.563697192585096 89.00919180642813,49.36377537925728 90.50793837849051,78.49099646345712 97.75188014190644,86.01819356810302 111.49039038363844,78.49099646345712 110.49122600257397,45.436480313073844 98.00167123693973,38.23642127471976 88.25981852039695,46.418304732535034 90.50793837849051,81.10915487911552 95.25396918784827,85.69092466076836 106.49456847738475,84.70911764842458 111.74018147867173,75.21829409268685 110.49122600257397,45.76375516806729 102.99749314319342,37.9091453072615 92.00668494962156,40.20007606013678 88.25981852039695,45.76375516806729 91.75689385551959,83.40004095435143 102.99749314319342,87.0 111.98997257463634,78.81826643506065 111.24059928860515,54.272884420119226" stroke="#4DD2FF" stroke-linecap="round" stroke-linejoin="round" stroke-width="0.5"><title>2025-04-02 4.0km</title><desc>1743590878000</desc></polyline><polyline fill="none" points="151.99315058253706,45.03832505480386 147.53031648043543,45.03832505480386 147.00527717266232,70.83452626410872 154.09330780617893,84.59238336631097 170.36952629499137,77.71346497815102 169.31944768410176,56.732638355577365 173.2572424793616,55.01289008394815 166.69425115268677,37.12743274564855 148.31787543930113,39.879050510702655 148.31787543930113,72.21031563309953 154.09330780617893,83.21660131472163 168.2693690713495,78.74530403199606 169.0569280302152,46.758080693893135 162.23141705058515,34.71976453321986 147.53031648043543,42.28671338735148 147.00527717266232,71.52242105011828 153.56826849933714,82.87265567551367 162.23141705058515,84.59238336631097 170.10700664389879,77.36951852589846 169.84448699001223,44.350422442890704 157.50606329645962,34.37581172841601 148.8429147452116,40.56695444392972 148.05535578541458,73.24215712631121 158.03110260143876,83.90449244272895 164.0690546222031,83.21660131472163 171.1570852547884,73.58610418927856 169.84448699001223,42.63066502381116 160.3937794789672,34.37581172841601 148.31787543930113,38.84719423064962 148.8429147452116,76.33767886133865 160.13125982694328,84.93632875196636 169.58196733612567,75.3058387406636 170.89456560183316,41.25485817389563 159.08118121419102,33.68790596583858 148.31787543930113,44.350422442890704 149.6304737040773,75.64978549792431 160.3937794789672,84.93632875196636 169.0569280302152,80.46503477287479 172.20716386754066,71.52242105011828 169.0569280302152,40.22300250339322 159.86874017305672,33.68790596583858 149.1054343972355,40.91090633510612 149.36795405019075,74.96189193218015 157.50606329645962,84.2484379298985 169.31944768410176,79.0892502819188 171.1570852547884,42.63066502381116 159.6062205210328,34.03185887308791 146.7427575206384,42.28671338735148 148.58039509225637,78.40135773201473 159.08118121419102,86.31210978818126 170.36952629499137,78.40135773201473 169.58196733612567,40.56695444392972 159.08118121419102,34.37581172841601 147.53031648043543,41.942761700833216 150.1555130109191,80.46503477287479 158.55614190828055,85.96816460532136 166.95677080657333,85.28027408733033 170.63204594887793,78.74530403199606 170.10700664389879,42.63066502381116 158.8186615621671,33.0 148.05535578541458,42.28671338735148 151.99315058253706,80.1210887262132 155.66842572484165,84.93632875196636 169.0569280302152,87.0 172.20716386754066,45.03832505480386" stroke="#4DD2FF" stroke-linecap="round" stroke-linejoin="round" stroke-width="0.5"><title>2025-03-30 4.0km</title><desc>1743343343000</desc></polyline><polyline fill="none" points="52.08481763675809,100.33340917597525 49.28622828889638,103.3334333319217 42.9257979542017,97.66671768785454 45.97880451474339,100.33340917597525 46.23322172835469,96.33337076264434 38.09187089744955,93.0 29.44168564211577,97.00004432396963 26.134261867962778,129.33347558556125 30.204937282949686,142.0000542954076 41.90812909975648,147.0 52.08481763675809,140.00007291068323 54.120155344717205,131.33346642460674 54.37457255739719,123.00015956349671 47.505307795479894,98.00005429633893 35.03886433877051,95.00002304860391 25.62542744167149,107.66679451568052 31.477023350074887,141.66672418708913 43.180215168744326,145.666682228446 52.5936520639807,136.66676666401327 50.55831435602158,100.00007291208021 37.83745368570089,94.66668599750847 27.91518236324191,104.66677612159401 31.222606136463583,140.66673356899992 44.19788402039558,144.66669338243082 51.83040042407811,136.66676666401327 50.55831435602158,98.66672736592591 35.547698765061796,95.66669700411148 28.424016789533198,104.66677612159401 29.696102855727077,135.66677382891066 37.0742020457983,144.33336366945878 45.72438730113208,144.33336366945878 53.10248649120331,136.66676666401327 50.81273156963289,100.66674539074302 35.03886433877051,96.33337076264434 26.388679082505405,106.0001181224361 30.204937282949686,137.33342830766924 42.41696352697909,144.66669338243082 52.84806927666068,135.33344278600998 51.83040042407811,104.00010482547805 40.890460247173905,96.66670756763779 34.78444712422788,97.00004432396963 28.932851215824485,105.00011169607751 31.73144056275487,140.33340326463804 45.72438730113208,145.33335266332142 52.08481763675809,136.3334357687272 49.28622828889638,99.66673659952357 40.38162581901997,94.3333488961216 29.44168564211577,102.33342572394758 30.9681889237836,136.66676666401327 38.34628811199218,145.33335266332142 45.97880451474339,144.33336366945878 51.83040042407811,137.0000975097064 51.321565995924175,103.0000975120347 40.38162581901997,95.33336005057208 29.44168564211577,103.66676910361275 29.44168564211577,135.00011169281788 35.80211597774178,143.66670409427024 43.434632380492985,145.33335266332142 51.5759832104668,138.33342040260322 50.3038971433416,104.33344049798325 39.618374180048704,95.66669700411148 28.424016789533198,104.66677612159401 29.696102855727077,139.00008155358955 39.618374180048704,146.000011744909 51.5759832104668,136.66676666401327 49.79506271611899,100.00007291208021 39.10953975189477,94.66668599750847 27.40634793508798,107.33345933584496 29.696102855727077,138.33342040260322 42.9257979542017,145.666682228446 51.83040042407811,133.33345549204387 50.049479929730296,101.33341767196544 38.60070532653481,95.66669700411148 28.67843400221318,106.33345349901356 30.45935449656099,139.00008155358955 38.09187089744955,146.000011744909 50.55831435602158,140.33340326463804" stroke="#4DD2FF" stroke-linecap="round" stroke-linejoin="round" stroke-width="0.5"><title>2025-03-30 4.5km</title><desc>1743327729000</desc></polyline><polyline fill="none" points="108.77157360315323,95.12957626534626 108.90862944116816,96.925311500323 99.86294416198507,101.77378338109702 95.4771573599428,101.95335604192223 99.04060913668945,113.4459511700552 88.89847715757787,114.16423475672491 89.44670050777495,119.91048817255069 81.63451776653528,116.49865348357707 75.32994923833758,118.47392736538313 73.0,125.29757607530337 74.37055837502703,142.1769635528326 79.98984771547839,145.76829234685283 86.43147208169103,142.1769635528326 89.30964466976002,114.70294716896024 95.88832487305626,113.98466389987152 101.50761421304196,115.24165934184566 113.84263959387317,129.06852340057958 116.44670050777495,129.42766063043382 119.18781725876033,123.68145221145824 127.0,130.3255032422021 124.80710659874603,139.8425941466121 124.39593908563256,128.5298173557967 117.26903553307056,124.5792990680784 115.07614213135093,129.06852340057958 111.92385786771774,126.7341288169846 96.02538071060553,102.31250128475949 108.36040609097108,98.18232458585408 106.30456852726638,94.23170765314717" stroke="#4DD2FF" stroke-linecap="round" stroke-linejoin="round" stroke-width="0.5"><title>2025-03-29 1.5km</title><desc>1743247652000</desc></polyline><polyline fill="none" points="146.457545861369,132.56571109921788 147.3725765463896,133.52481997210998 146.8601593626663,132.70957761097816 146.3111409517005,133.28504301965586 146.64055199851282,134.62779167221743 148.69022073294036,137.74486534291646 151.1425029686652,139.90282188664423 152.02093242644332,137.93668428331148 151.50851524295285,136.97758844745113 152.27714101830497,137.74486534291646 151.801325062057,140.5741832186468 153.99739870615304,142.2046263863158 161.79346014279872,143.45143034140347 167.39344793511555,147.0 173.79866273072548,145.65730252946378 175.07970568956807,143.64324590930482 174.27447868674062,114.67781125710462 173.24964431952685,112.61560392580577 170.94376699323766,110.88909468697966 167.94246634631418,109.114617287094 164.57515342533588,110.02583662327379 162.41568100848235,107.1003338857845 159.37777913408354,97.26853308192221 160.6588220933918,96.74096461839508 161.50065032346174,99.09103572080494 163.84312887722626,99.47471918261726 164.68495710752904,97.9399826133158 163.69672396755777,93.28776804020163 161.64705523313023,93.0 160.183006136911,93.95922580821207 157.95033126557246,94.1031094349164 155.5346502570901,95.58990317507414 149.23923914390616,96.35727792416583 145.3961102666799,97.98794324102346 146.38434340641834,103.0717295765644 144.99349676514976,106.76461877016118 144.92029431043193,116.74000548466574 145.35950903920457,126.71508559866925 146.49414708884433,131.41477671073517" stroke="#4DD2FF" stroke-linecap="round" stroke-linejoin="round" stroke-width="0.5"><title>2025-03-25 3.9km</title><desc>1742910133000</desc></polyline><polyline fill="none" points="48.58655431307852,153.0 30.55479025747627,168.46890655346215 29.481470968574286,174.93768474587705 35.062731271609664,204.46878421877045 42.361302436329424,205.5937694257591 49.44520974252373,200.25008377002086 47.08390730712563,172.12517518980894 43.005294010043144,166.21889159397688 33.77474812511355,166.7813955831807 30.55479025747627,178.59394095849711 33.34542040992528,203.34379834623542 42.57596629392356,205.87501562351827 48.80121816974133,200.53133075812366 47.9425627393648,170.4376674608793 37.85336142219603,164.25012632331345 31.413445689715445,169.31266147701535 30.769454116001725,199.96883674152195 40.214663858525455,205.5937694257591 48.37189045455307,201.09382460743655 48.58655431307852,175.21893547428772 46.43991573434323,167.90640306309797 40.42932771611959,164.53137862996664 35.277395129203796,164.53137862996664 29.696134826168418,171.8439240050502 30.984117973595858,199.96883674152195 38.49735299590975,206.15626177960075 48.58655431307852,201.09382460743655 47.513235023245215,170.7189188528573 39.14134456962347,164.25012632331345 29.481470968574286,173.81268142233603 30.125462542288005,199.96883674152195 40.85865543130785,205.5937694257591 49.01588202826679,198.00010637543164 48.58655431307852,171.2814215120161 41.07331928983331,163.68762158614118 30.984117973595858,169.31266147701535 29.696134826168418,198.00010637543164 35.70672284439206,205.87501562351827 40.42932771611959,206.15626177960075 49.01588202826679,197.43761161109433 47.513235023245215,168.46890655346215 37.85336142219603,163.9688739759149 30.125462542288005,174.3751831672853 31.19878183118999,201.09382460743655 36.13605056051165,205.5937694257591 42.57596629392356,205.0312769053271 49.659873601049185,196.87511668039951 47.08390730712563,168.46890655346215 36.56537827569991,165.0938831169624 30.125462542288005,174.93768474587705 32.70142883528024,203.06255177466664 40.85865543130785,206.43750789470505 49.01588202826679,201.37507147050928 49.01588202826679,175.50018615962472 48.15722659602761,169.5939130358165 40.85865543130785,163.68762158614118 30.984117973595858,167.6251512557501 30.55479025747627,200.53133075812366 39.3560084272176,205.5937694257591 45.366596445441246,204.46878421877045 49.87453745864332,198.5626009728294 48.15722659602761,170.4376674608793 41.50264700502157,163.9688739759149 32.70142883528024,166.21889159397688 29.696134826168418,171.2814215120161 30.340126398950815,198.00010637543164 40.214663858525455,207.0 49.659873601049185,203.34379834623542 50.518529031425714,174.09393231594004" stroke="#4DD2FF" stroke-linecap="round" stroke-linejoin="round" stroke-width="0.5"><title>2025-03-24 4.1km</title><desc>1742817301000</desc></polyline><polyline fill="none" points="100.13381682522595,156.85718360263854 95.58404473215342,153.7013065761421 88.89320342056453,160.0130564342253 89.69610437843949,194.72738061309792 99.33091586828232,206.29870917182416 111.9096975363791,197.5325563538354 111.37443023175001,162.11696932278574 104.14832161273807,154.05195978586562 88.62556976731867,158.9610992895905 89.69610437843949,195.77932190382853 97.72511395253241,205.59741813805886 103.61305430904031,205.94806368136778 111.9096975363791,198.23384976992384 110.57152927387506,161.76631730468944 99.59854952059686,153.350653313566 88.35793611593544,163.5195768799167 88.89320342056453,193.6754388550762 98.52801491040736,207.0 111.37443023175001,199.98708240594715 112.17733118962497,162.81827320461161 97.45748030114919,153.0 90.2313716839999,159.311751722591 88.89320342056453,194.3767334120348 101.20435143541545,207.0 111.37443023175001,199.6364359825384 111.10679657850415,160.0130564342253 97.45748030114919,153.0 89.42847072612494,163.5195768799167 89.96373803168535,200.33772877790034 99.59854952059686,207.0 112.71259849332273,199.6364359825384 110.30389562062919,160.0130564342253 101.73961874004453,153.0 89.69610437843949,162.11696932278574 90.2313716839999,197.5325563538354 99.06328221596777,206.29870917182416 111.9096975363791,200.33772877790034 110.57152927387506,164.57153200404719 97.45748030114919,153.0 87.01976785436273,163.5195768799167 89.1608370738104,195.42867485899478 95.85167838539928,205.59741813805886 110.83916292525828,200.33772877790034 111.64206388313323,161.76631730468944 102.27488604560494,153.350653313566 87.82266881037503,162.11696932278574 88.62556976731867,195.0780277615413 99.33091586828232,205.59741813805886 105.48648987617344,205.24677254376002 112.98023214563727,196.12996889674105 111.9096975363791,163.1689250683412 107.62755909562111,155.80522505985573 97.99274760577828,153.350653313566 88.62556976731867,165.27283515990712 89.96373803168535,196.48061583889648 97.45748030114919,205.94806368136778 111.37443023175001,199.6364359825384 111.64206388313323,162.11696932278574 106.8246581396088,155.1039191056043 95.85167838539928,153.350653313566 89.1608370738104,163.1689250683412 89.96373803168535,198.23384976992384 97.99274760577828,207.0 112.17733118962497,199.6364359825384 112.98023214563727,163.1689250683412 103.61305430904031,207.0" stroke="#4DD2FF" stroke-linecap="round" stroke-linejoin="round" stroke-width="0.5"><title>2025-03-23 4.2km</title><desc>1742719228000</desc></polyline><polyline fill="none" points="152.83754232060164,153.0 148.0625705337152,159.25616457359865 150.57571357954293,200.74396944977343 162.89011450391263,205.0244133027736 173.19400099106133,192.51232355018146 170.93217225000262,166.17085235426202 155.09937106166035,156.951263879193 147.81125622987747,169.1342834061943 149.82177066616714,199.75617354759015 158.61777132656425,205.35367787373252 170.93217225000262,197.78058042842895 169.67560072615743,164.19522946304642 156.35594258457422,155.96344856568612 147.81125622987747,164.5245000666473 149.06782775186002,198.43911166349426 159.62302854284644,206.67073567118496 166.4085147678852,204.69514868268743 171.18348655384034,196.79278321261518 170.42954363953322,166.82939292839728 156.60725688934326,156.29272038582712 151.32965649385005,157.60980717791244 147.30862762127072,169.7928231060505 150.07308497093618,200.41470419778489 165.40325754974037,205.0244133027736 174.7018868168816,199.75617354759015 171.43480085860938,165.5123115850147 155.09937106166035,157.280535553582 147.05731331557035,170.12209288217127 148.0625705337152,197.12204899964854 155.60199967119843,205.68294239602983 169.17297211755067,206.01220686966553 170.68085794523358,202.39029498165473 171.93742946721613,168.80501348385587 164.9006289402023,158.5976217610296 157.36119980178773,156.951263879193 148.56519914325327,163.86595881171525 148.0625705337152,200.08543889643624 162.38748589530587,206.01220686966553 171.43480085860938,195.8049855590798 169.67560072615743,163.86595881171525 160.6282857619226,156.62199215730652 151.83228510338813,156.62199215730652 145.2981131831184,175.7196716372855 151.0783421881497,202.39029498165473 161.63354298006743,204.69514868268743 173.19400099106133,195.14645354636014 168.92165781278163,161.8903338771779 154.34542814828455,157.280535553582 150.07308497093618,159.5854359071236 147.05731331557035,182.96357621718198 152.08359940722585,204.69514868268743 164.39800033159554,205.68294239602983 171.43480085860938,194.81718746689148 167.66508628986776,162.21960482071154 159.120399935171,154.3170887385495 148.31388483848423,160.90252075367607 148.56519914325327,199.42690814984962 158.3664570208639,207.0 172.1887437729165,198.76837720745243 169.67560072615743,162.8781465627253 158.11514271702617,154.3170887385495 147.81125622987747,162.5488757158164 148.0625705337152,196.79278321261518 159.62302854284644,206.3414712951053 170.68085794523358,200.41470419778489 169.67560072615743,166.82939292839728" stroke="#4DD2FF" stroke-linecap="round" stroke-linejoin="round" stroke-width="0.5"><title>2025-03-21 4.2km</title><desc>1742565279000</desc></polyline><polyline fill="none" points="42.66185700520873,215.70004547620192 35.44908318296075,213.0 33.38829066231847,215.47504186886363 32.18616169132292,240.22523932519834 41.63146074488759,244.72523201140575 48.84423456620425,237.30023694876581 44.72264952585101,215.02503455558326 36.1360140228644,214.57502710924018 30.984032722190022,220.4251135396771 35.62081589270383,243.15023608366027 41.80319345463067,245.6252289529657 47.64210559707135,241.3502387437038 47.470372886396945,218.62508933898062 40.08586635347456,214.1250195298344 34.2469542119652,214.80003084917553 31.155765431001782,220.65011641487945 33.56002337206155,241.8002382776467 40.60106448363513,246.5252253623912 46.61170933581889,242.7002369479742 47.64210559707135,219.52510170533787 41.974926164373755,215.02503455558326 32.18616169132292,216.6000595705118 31.842696271836758,237.52523733128328 35.44908318296075,244.72523201140575 39.57066822331399,245.85022810543887 46.61170933581889,242.02523799566552 47.29864017572254,218.40008616470732 45.409580365754664,215.2500382286962 37.85334112402052,214.35002333647572 32.8730925321579,217.72507644153666 31.327498141676188,232.12521898234263 36.82294486369938,245.40022976719774 46.09651120565832,243.60023508651648 47.985571016557515,219.97510768903885 47.29864017572254,216.6000595705118 37.68160841334611,214.57502710924018 32.70135982148349,218.8500924805412 34.933885051868856,241.57523852738086 37.85334112402052,245.40022976719774 46.61170933581889,244.50023269292433 47.470372886396945,225.8251733747311 38.88373738247901,238.65023874375038 36.479479442350566,246.9752233675681 38.02507383283228,267.0 46.2682439154014,264.5250418675132 48.15730372723192,248.32521658646874 45.409580365754664,217.0500664183637 36.99467757344246,213.45000791177154 30.984032722190022,218.40008616470732 32.18616169132292,237.97523799550254 40.08586635347456,246.07522722438443 47.29864017572254,241.3502387437038 48.15730372723192,219.75010471360292 39.398935513570905,213.2250039728824 32.8730925321579,217.0500664183637 32.35789440199733,240.45023927500006 39.05547009315342,245.6252289529657 47.12690746597946,240.67523919220548 47.81383830588311,218.62508933898062 39.914133643731475,213.2250039728824 34.07522150222212,216.82506301091053 33.73175608180463,243.60023508651648 38.02507383283228,247.2002223210875 43.34878784418106,246.5252253623912 46.09651120565832,242.47523733007256 49.015967276878655,221.32512484141625" stroke="#4DD2FF" stroke-linecap="round" stroke-linejoin="round" stroke-width="0.5"><title>2025-03-10 4.0km</title><desc>1741591515000</desc></polyline><polyline fill="none" points="114.13482490926981,223.38471204414964 99.86789883393794,214.38463093247265 88.77140077482909,222.34624291118234 89.03560310881585,259.3846907687839 97.22587548568845,266.653850118164 111.49280156102031,258.00008643069305 110.70019455626607,225.11549290991388 103.30252918414772,215.76926104538143 88.24299610499293,222.0000864318572 87.97879376914352,259.0385397602804 94.84805447235703,265.26925007626414 111.75700389686972,259.0385397602804 112.54961090069264,225.461648930097 101.71731517557055,215.07694609183818 89.03560310881585,222.0000864318572 89.8282101135701,259.3846907687839 98.54688716027886,266.30770018394105 107.79396887496114,264.2307995078154 112.28540856484324,257.307783954544 112.28540856484324,227.1924282608088 101.98151751141995,215.42310359422117 88.50719844084233,223.0385557182599 89.03560310881585,255.9231783892028 98.81108949426562,266.653850118164 112.02120623085648,258.3462375921663 110.96439689211547,221.65392990014516 96.4332684809342,215.07694609183818 89.03560310881585,221.65392990014516 89.8282101135701,260.76929428754374 100.13210116885602,266.30770018394105 112.02120623085648,258.00008643069305 111.75700389686972,226.5001166819129 102.7741245161742,215.07694609183818 92.99863813072443,216.11541844671592 87.71459143608809,222.34624291118234 88.24299610499293,257.6539352175314 98.28268482536077,265.9615501991939 111.75700389686972,258.00008643069305 109.90758755244315,220.961616684217 101.18891050759703,213.0 87.45038910023868,222.0000864318572 88.24299610499293,257.6539352175314 101.71731517557055,265.9615501991939 111.22859922796488,257.6539352175314 110.43599222321063,221.65392990014516 100.92470817174762,213.34615780971944 85.86517509166151,223.7308683199808 88.77140077482909,260.0769926297944 104.35933852475137,265.9615501991939 111.49280156102031,258.69238870195113 110.17178988736123,219.92314647766761 96.4332684809342,214.73078853730112 88.24299610499293,221.65392990014516 88.24299610499293,257.6539352175314 101.71731517557055,266.30770018394105 112.02120623085648,258.00008643069305 112.54961090069264,223.7308683199808 100.66050583869219,214.73078853730112 87.71459143608809,224.76933683943935 88.50719844084233,261.11544503993355 97.22587548568845,267.0 110.70019455626607,258.00008643069305 113.8706225734204,223.38471204414964" stroke="#4DD2FF" stroke-linecap="round" stroke-linejoin="round" stroke-width="0.5"><title>2025-03-09 4.1km</title><desc>1741514669000</desc></polyline><polyline fill="none" points="150.54299012944102,244.4384978308808 159.29425299540162,262.56168776913546 166.63402185030282,262.9315474226605 175.3852847162634,254.0549006673973 170.8685038825497,213.36986697558314 151.3898865347728,213.0 144.0501176789403,221.50692661153153 155.0597709622234,257.75350730656646 172.2799978936091,261.08224861091 177.36137633118778,245.17822243762203 171.15080268401653,221.50692661153153 176.23218112252653,218.17813268490136 147.15540450345725,230.01382431411184 148.56689851358533,225.57544651068747 159.29425299540162,232.2330102652777 155.0597709622234,240.37000858737156 157.88275898434222,262.56168776913546 170.3039062777534,262.1918280622922 176.51447992492467,252.57545648165978 165.50482664164156,216.32880081306212 148.56689851358533,214.47946757427417 142.63862366881222,223.72612010408193 151.67218533623964,244.80836016172543 151.107587733306,257.01378641696647 165.2225278392434,266.63014094741084 173.12689429987222,252.20559529867023 168.61011346429586,220.76719501032494 153.36597814969718,213.36986697558314 143.48552007600665,221.50692661153153 149.97839252464473,259.9726686680224 166.91632065270096,267.0 173.97379070613533,256.2740653073415 172.2799978936091,215.58906768076122 153.64827695209533,214.47946757427417 149.1314961174503,231.49328183359466" stroke="#4DD2FF" stroke-linecap="round" stroke-linejoin="round" stroke-width="0.5"><title>2025-03-05 1.9km</title><desc>1741161630000</desc></polyline></svg>