<?xml version="1.0" encoding="utf-8" ?>
<svg baseProfile="full" height="300mm" version="1.1" viewBox="0,0,200,300" width="200mm" xmlns="http://www.w3.org/2000/svg" xmlns:ev="http://www.w3.org/2001/xml-events" xmlns:xlink="http://www.w3.org/1999/xlink"><defs /><rect fill="#222222" height="300" width="200" x="0" y="0" /><text fill="#FFFFFF" style="font-size:12px; font-family:Arial; font-weight:bold;" x="10" y="20">Over 10km Runs</text><text fill="#FFFFFF" style="font-size:4px; font-family:Arial" x="10" y="280">ATHLETE</text><text fill="#FFFFFF" style="font-size:9px; font-family:Arial" x="10" y="290">TXyy2025</text><text fill="#FFFFFF" style="font-size:4px; font-family:Arial" x="65" y="280">SPECIAL TRACKS</text><rect fill="yellow" height="2.6" width="2.6" x="65" y="283" /><text fill="#FFFFFF" style="font-size:3px; font-family:Arial" x="70" y="285.5">Over 20.0 km</text><rect fill="red" height="2.6" width="2.6" x="65" y="287" /><text fill="#FFFFFF" style="font-size:3px; font-family:Arial" x="70" y="289.5">Over 40.0 km</text><text fill="#FFFFFF" style="font-size:4px; font-family:Arial" x="120" y="280">STATISTICS</text><text fill="#FFFFFF" style="font-size:3px; font-family:Arial" x="120" y="285">Number: 19</text><text fill="#FFFFFF" style="font-size:3px; font-family:Arial" x="120" y="290">Weekly: 2.7</text><text fill="#FFFFFF" style="font-size:3px; font-family:Arial" x="141" y="285">Total: 154.6 km</text><text fill="#FFFFFF" style="font-size:3px; font-family:Arial" x="141" y="290">Avg: 8.1 km</text><text fill="#FFFFFF" style="font-size:3px; font-family:Arial" x="167" y="285">Min: 1.5 km</text><text fill="#FFFFFF" style="font-size:3px; font-family:Arial" x="167" y="290">Max: 35.9 km</text><polyline fill="none" points="32.90673248190433,35.18095158133656 26.399012777023017,34.11515155725647 22.535054203122854,39.71059465617873 24.16198412887752,63.9573141366709 30.059605111368,71.41777762514539 41.85484707541764,66.62176892568823 42.261579557321966,40.776391373132356 40.431283390149474,35.98030118574388 32.2966337595135,32.25 23.958617888391018,38.91124670521822 25.585547814145684,67.95399484352674 30.66970383375883,72.48355560388882 38.39762098249048,71.68422217830084 41.24474835395813,64.75665098696481 42.05821331590414,40.50994225253817 40.431283390149474,35.44740148913115 32.703366241417825,33.04935090406798 24.16198412887752,38.378347874153405 26.602379018440843,68.22043990856037 35.95722609385848,71.68422217830084 42.261579557321966,65.02309652476106 41.24474835395813,42.10863638378214 32.09326751809567,33.848701453069225 23.55188540648669,39.977043894003145 24.77208285126835,64.49020540947095 32.90673248190433,72.48355560388882 38.80435346439481,70.35199901589658 41.44811459351331,62.625085266074166 41.041382112540305,38.64479730895255 33.51683120429516,32.78290064178873 23.755251647904515,41.30928949522786 24.56871661078185,62.625085266074166 32.09326751809567,71.95066669315565 40.83801587112248,67.4211045941338 41.24474835395813,40.776391373132356 33.51683120429516,32.78290064178873 24.77208285126835,39.44414537830744 24.56871661078185,64.75665098696481 27.415843980386853,69.81910947547294 35.95722609385848,70.88488839927595 41.651480834931135,63.69086844148114 40.83801587112248,37.845448885113 36.770691056735814,33.31580112618394 28.83940766658634,33.04935090406798 23.958617888391018,41.84218746074475 25.78891405556351,68.22043990856037 34.12692992668599,72.21711116831284 40.22791714873165,67.4211045941338 40.22791714873165,44.24022635363508 34.533662407658994,34.914501634659246 29.856238869950175,33.848701453069225 23.348519165068865,39.17769606120419 24.56871661078185,63.42442270705942 34.330296168103814,72.75 40.02455090917647,69.28621977730654 42.464945796877146,46.10536551068071 40.6346496315673,36.24675097526051 36.16059233434498,32.78290064178873 24.56871661078185,39.71059465617873 25.38218157365918,67.95399484352674 29.246140147559345,71.95066669315565 40.02455090917647,68.48688493506052 40.6346496315673,44.50667492242064 33.31346496287733,33.848701453069225 25.178815332241356,37.046100107370876 24.56871661078185,64.49020540947095 28.025942703709006,71.15133303124458 38.80435346439481,70.08555426553357 42.05821331590414,42.641534112393856" stroke="#4DD2FF" stroke-linecap="round" stroke-linejoin="round" stroke-width="0.5"><title>2025-04-17 3.9km</title><desc>1744894073000</desc></polyline><polyline fill="none" points="58.40659964008955,59.40811803972974 58.62207573742489,59.53266249120861 59.239985134176095,59.387360577486106 59.61073077224137,59.16317900825197 60.26983412877598,59.0344813734373 60.548685548856156,59.09260295891181 60.88774352554174,58.97635966773851 61.82252953603165,58.810296989066046 62.58303340896964,58.57365597636999 63.56535091150727,58.17094651392108 63.9899655738991,58.09206460306996 64.84236366480764,58.229069885499484 65.10854002034466,58.179249860080745 67.2157695016067,58.57780759025991 69.79514513730828,59.8647783300712 71.88653078788775,60.18443611810835 72.02595649793511,60.342187972262764 72.18756357092934,60.41276088349696 73.17938737188524,60.57881409320362 73.42021359830687,60.40030685322017 75.63518112823658,60.71165595454477 77.04211329316604,60.591268044374374 79.70070808230957,60.927522640011375 79.45354432359454,60.85279974421974 79.96054690556775,60.00177497016921 80.45487442296871,58.594414039682306 80.97455206948507,57.78898993839357 81.28509115091583,57.157919873096034 82.73638604178268,53.77813238518138 83.51273374540324,52.26249366929369 83.98171113371791,50.95441095509523 84.7295399420982,49.97850004960128 85.87980204992346,51.01670198940337 87.11878960957984,52.951807990075395 87.12195837570471,53.063923780369805 86.58326813239546,54.268102206351614 86.79557546357682,55.33936238921342 87.86028088568128,55.97462529790573 88.89963617871399,55.86667313688122 89.48902668022492,55.94556129534794 89.56824583366688,56.086729026126704 89.52705187388347,56.89635378350431 89.58725843048887,57.04166857832024 89.76154056802625,57.26171526556209 90.05623581880354,57.41117995717286 90.30656834364345,57.647830759602584 90.58858852983394,57.9965756778638 90.67414521555474,58.0173341674672 90.75970190124644,57.93014840807882 90.73118300600618,57.61876848770771 90.99419059543288,57.14961622512055 91.21283545887854,56.35660653734885 91.33324857210391,56.261111714326034 91.45683045145415,56.23619996798698 91.69448791175091,56.31508708895308 92.21416555823816,56.232048008108904 92.79721852749935,56.369062359897725 92.99051326187328,56.59741812816719 93.32323370628,56.593266221665544 93.3739339644817,56.76349388488234 93.1838079962472,57.045820418552466 93.44364681949082,57.39457280847455 94.12176277286198,57.573099142569845 94.37843282999529,57.79729339741607 94.62876535482064,57.88447956901291 95.44630701822462,58.40343927886897 95.97865972928412,58.47816868766495 96.38426179485396,58.86426746727375 96.4159494562191,59.07599680389649 96.22265472184517,59.30848208112002 96.13392927001405,59.56587425172984 95.84240278539073,60.034986176278835 95.88676551131357,60.632781175107084 96.0673851811298,60.24670669263833 96.5078436742042,59.7692954284048 96.69480087629927,59.27527001642011 96.78035756200552,59.25036094212919 96.97048353024002,59.45378440269633 96.9292895704566,58.93069252892201 97.61057428996719,58.154339814254854 97.75,57.456849565463926 90.95933416791377,47.694320696264185 90.40163132775342,47.407746899009 90.21150535951892,46.822130481039494 89.91364134261676,46.489860416995725 89.72668414052168,46.30711020610579 89.01054299350653,45.875150434705574 88.42432125812047,45.27704132069084 88.09793834597804,44.15555239547393 87.28990298099234,44.072477359986806 87.21385259368981,44.163859885497004 87.16315233550267,44.63322908009286 87.06808935137815,46.186660553268666 86.95084500430676,46.572928301551656 86.31709177684388,47.64032875512021 85.01472889445722,49.55905558282029 84.04508645646274,50.78830085494883 83.26556998670276,51.49426199679874 82.28642125029,53.18849635593688 80.58796260075178,57.274170686900106 80.47705578593013,57.73501739493986 80.38833033409901,58.69405253009427 79.96688443783205,59.96856372481125 79.4155191299651,60.88600994463923 78.547277208374,60.7158072525981 77.15302010797313,60.60372199003723 75.61933729753946,60.6992020567086 73.43922619512887,60.371247427774506 73.16037477506325,60.57466277492313 72.2224199984339,60.408609540687394 72.00377513495914,60.31727984364261 71.88653078788775,60.16783060826856 69.77930130662571,59.84402120513914 67.22844456614985,58.55289789773269 65.24162819811318,58.17509818731378 65.00713950394129,58.13773310475517 64.82018230184622,58.19585654503135 63.980459275480825,58.05469941010233 63.555844613103545,58.13773310475517 61.86055472967564,58.77708433556654 60.94478131600772,58.93899565059837 60.46629762928933,59.084299882635605 60.257159064218285,59.03032982701552 59.6741060949862,59.12996677182127 59.52517408653512,59.17978511174624 59.29702292465663,59.36660309991021 58.56503794695891,59.53266249120861 58.3210429543833,59.25866396934725 58.34322431734472,58.43665237398818 57.75066504967981,58.27058650586696 57.338725451845676,57.77653474525505 57.25,57.52327795412748 57.522513887801324,57.502519099538404 57.56053908144531,57.46100134435983 57.509838823243626,57.3572066880206" stroke="yellow" stroke-linecap="round" stroke-linejoin="round" stroke-width="0.5"><title>2025-04-14 32.8km</title><desc>1744614550000</desc></polyline><polyline fill="none" points="128.52175184339285,45.39945167233236 125.51087592262775,35.1428877026774 116.87969828024507,33.564949538442306 113.26664717402309,40.66566026059445 113.26664717402309,65.12344704743009 119.08767395559698,72.22403187991586 125.71160098351538,71.96104776125867 129.92682727333158,66.70135723531712 128.92320196609944,40.13968266022857 120.09129926282912,33.82793932990171 113.46737223584205,40.66566026059445 113.06592211127281,65.12344704743009 118.48549877107143,71.69806360465009 128.92320196609944,69.3312044411432 130.12755233515054,40.13968266022857 124.50725061446428,33.82793932990171 113.46737223584205,40.13968266022857 113.46737223584205,63.28255005902611 118.88694889377803,72.48701595957391 126.11305110622197,71.43507940787822 130.7297275196761,65.64941726555116 129.72610221151263,39.08772699290421 119.68984914012253,33.82793932990171 112.46374692767859,41.71761499589775 114.87244766484946,68.27926602517255 120.89419950917363,72.48701595957391 130.7297275196761,66.17538732779212 130.52900245785713,41.45462637045421 124.9087007381022,33.564949538442306 120.69347444735467,32.77597993193194 113.46737223584205,39.08772699290421 113.86882235854864,64.59747667354532 119.28839901741594,72.75 130.52900245785713,68.01628132443875 129.72610221151263,38.56174892548006 122.09854987822473,32.25 117.08042334020138,33.564949538442306 113.06592211127281,41.1916377057787 114.0695474203676,66.43837230128702 121.6970997536555,72.22403187991586 131.13117764238268,66.17538732779212 130.7297275196761,41.1916377057787 124.10580049175769,33.03896983957384 119.28839901741594,33.301959708100185 112.8651970513165,39.87669380160514 113.26664717402309,64.59747667354532 115.07317272666842,69.06821989524178 123.10217518452555,72.48701595957391 131.73335282690823,63.54553545976523 130.32827739603817,38.035770703689195 122.09854987822473,33.301959708100185 113.06592211127281,40.13968266022857 114.0695474203676,66.964342131163 117.88332358654588,71.69806360465009 124.9087007381022,72.48701595957391 131.33190270327032,65.38643217575736 131.13117764238268,41.1916377057787 125.31015085987747,32.51298998587299 117.48187346477062,34.87989810539875 114.47099754214287,39.87669380160514 113.26664717402309,63.54553545976523 120.49274938553572,72.22403187991586 130.52900245785713,67.22732698789332 130.7297275196761,38.56174892548006 125.10942579805851,32.77597993193194 119.68984914012253,33.03896983957384 113.66809729672968,41.1916377057787 113.86882235854864,66.964342131163 121.09492457006127,72.48701595957391 131.93407788686454,69.85717341618147 132.53625307232141,40.928649002918974" stroke="#4DD2FF" stroke-linecap="round" stroke-linejoin="round" stroke-width="0.5"><title>2025-04-09 4.1km</title><desc>1744204461000</desc></polyline><polyline fill="none" points="151.8557608164847,72.75 156.7563658617437,66.82323202758562 155.8139418149367,62.872041704831645 161.2800012882799,65.34153675113339 161.2800012882799,60.40254300925881 161.4684860976413,63.36594100552611 160.14909243118018,59.41474250948522 159.9606076227501,63.11899137345608 157.51030509918928,61.63729281304404 159.5836380040273,68.30492599087302 155.43697219528258,59.90864283242263 159.2066683843732,63.61289060104173 157.69878990855068,71.26830997737125 159.2066683843732,68.05797708861064 156.3793962430209,65.83543532283511 159.9606076227501,59.661692689638585 157.51030509918928,68.30492599087302 158.8296987656504,65.0945874103345 160.9030316695571,70.03356728772633 159.2066683843732,64.60068862035405 155.24848738592118,70.77441301045474 156.94485067017376,66.08238455373794 159.77212281245738,68.30492599087302 156.3793962430209,70.03356728772633 159.2066683843732,65.58848605491221 159.5836380040273,69.53966995736118 156.56788105145097,62.62509199907072 157.51030509918928,71.5152584053576 161.656970907934,57.19218925095629 157.51030509918928,71.76220679713879 158.2642443375662,62.62509199907072 159.9606076227501,71.26830997737125 157.13333548046649,62.13119247893337 159.9606076227501,59.167792293126695 156.7563658617437,55.21658387372736 160.5260620508343,63.61289060104173 156.94485067017376,62.872041704831645 155.8139418149367,70.03356728772633 157.32182028982788,62.872041704831645 159.3951531937346,65.0945874103345 156.56788105145097,66.57628290622961 160.5260620508343,62.872041704831645 162.4109101453796,65.0945874103345 160.71454686112702,63.36594100552611 159.3951531937346,68.5518748566974 162.03394052572548,66.82323202758562 157.69878990855068,69.78661864087917 160.71454686112702,70.77441301045474 157.13333548046649,65.58848605491221 160.5260620508343,65.83543532283511 159.0181835759431,70.52746447268873 159.3951531937346,59.661692689638585 166.557575953193,62.37814225710463 157.32182028982788,67.3171301613329 158.8296987656504,69.53966995736118 158.45272914599627,64.60068862035405 159.5836380040273,71.5152584053576 156.7563658617437,65.83543532283511 163.35333419311792,67.56407917384058 160.33757724054158,71.26830997737125 160.71454686112702,62.13119247893337 157.69878990855068,64.8476380337961 160.9030316695571,64.8476380337961 159.0181835759431,68.79882368631661 156.7563658617437,57.68609023047611 160.33757724054158,59.167792293126695 158.0757595282048,67.81102814897895 156.1909114336595,64.60068862035405 162.03394052572548,64.10678968357388 159.5836380040273,60.649493042728864 167.12303038220853,62.62509199907072 170.70424176100641,40.15251608379185 183.1442391835153,39.41165678820107 182.57878475636244,32.25" stroke="#4DD2FF" stroke-linecap="round" stroke-linejoin="round" stroke-width="0.5"><title>2025-04-07 1.9km</title><desc>1744030807000</desc></polyline><polyline fill="none" points="33.1675824187696,100.37538905022666 12.25,93.96125606168061 30.052197800949216,92.79504894488491 21.15109890140593,93.37815254647285 32.27747252583504,82.88227453012951 23.821428570896387,83.46537959598936 27.38186813145876,106.20640999195166 30.942307690158486,92.21194525598548 26.04670329578221,102.70779846119694 26.49175824224949,84.04848457593471 26.04670329578221,113.78672433970496 29.60714285634458,102.70779846119694 34.94780219718814,107.95571459643543 29.162087911739945,109.70501842326485 23.821428570896387,86.96400818647817 28.71703296713531,113.78672433970496 21.596153846010566,94.54435949050821 29.162087911739945,97.45987534802407 29.162087911739945,87.54711264930665 34.94780219718814,107.37261314713396 30.942307690158486,103.2909005980473 28.71703296713531,112.62052308116108 23.821428570896387,95.71056609181687 26.49175824224949,101.54159392765723 34.502747252583504,96.29366926313378 27.38186813145876,119.61772546987049 35.83791208639741,105.04020649427548 26.936813186854124,112.03742232080549 23.821428570896387,102.70779846119694 28.27197802066803,109.70501842326485 38.953296702355146,99.20918382704258 30.497252747416496,103.2909005980473 34.94780219718814,111.45432147523388 30.497252747416496,106.78951161238365 30.942307690158486,83.46537959598936 25.156593406572938,104.45710461423732 31.387362636625767,96.29366926313378 25.156593406572938,85.21469427994452 28.27197802066803,100.37538905022666 32.72252747230232,95.12746283481829 24.266483513638377,113.20362375327386 22.041208788752556,95.12746283481829 27.38186813145876,109.70501842326485 28.27197802066803,97.45987534802407 20.260989010334015,102.70779846119694 17.145604394376278,86.96400818647817 30.942307690158486,114.95292525505647 26.936813186854124,105.62330828630365 36.72802197933197,89.29642552370206 30.942307690158486,112.62052308116108 25.156593406572938,102.12469623680227 29.60714285634458,87.54711264930665 23.376373624429107,110.28811952774413 18.03571428358555,100.37538905022666 30.942307690158486,95.12746283481829 33.1675824187696,103.2909005980473 26.49175824224949,96.87677234923467 25.156593406572938,102.70779846119694 37.173076923936605,95.12746283481829 26.936813186854124,107.37261314713396 30.942307690158486,119.03462574351579 24.266483513638377,93.96125606168061 31.387362636625767,99.79228648217395 35.83791208639741,92.79504894488491 22.041208788752556,91.0457376211416 26.49175824224949,106.20640999195166 30.497252747416496,85.21469427994452 24.711538460105658,100.37538905022666 22.041208788752556,89.29642552370206 18.48076923005283,116.1191258255858 24.266483513638377,89.87952964240685 33.61263736151159,98.62608108692802 24.711538460105658,96.87677234923467 24.266483513638377,84.04848457593471 23.821428570896387,118.45152593264356 25.156593406572938,101.54159392765723 34.502747252583504,99.20918382704258 26.04670329578221,84.63158947066404 35.83791208639741,104.45710461423732 28.27197802066803,85.79779900121503 22.93131867982447,94.54435949050821 32.27747252583504,90.46263367426582 23.821428570896387,102.12469623680227 29.162087911739945,117.86842603422701 17.145604394376278,86.96400818647817 23.376373624429107,107.37261314713396 33.1675824187696,110.28811952774413 30.497252747416496,95.12746283481829 52.75,91.0457376211416" stroke="#4DD2FF" stroke-linecap="round" stroke-linejoin="round" stroke-width="0.5"><title>2025-04-06 2.6km</title><desc>1743945103000</desc></polyline><polyline fill="none" points="61.01384468493052,107.6566829111598 62.89254455761693,106.96427625929573 63.2760184595827,106.95161012769859 63.97529439847858,107.07827119100511 64.19119987270096,107.01071869376574 66.42759388925333,107.4371411550037 69.0281269891857,108.74592283590209 71.17106938255893,109.07521975679083 71.29352323361672,109.2187582528586 71.48042647996044,109.30741402264903 72.48905951624329,109.4720597226169 72.75007956715126,109.28630553098083 74.95102641629637,109.60715292187888 76.41725015913835,109.48472473717447 77.69334818587231,109.61559622561799 78.77609802674851,109.80556990059449 78.87921705920598,109.74224548258462 79.36580999364378,108.95278929341112 79.86207033737446,107.52158049157515 80.58712603438471,106.32674066536856 82.05979471674073,102.87282375778886 82.99753341820906,101.0274671936877 83.49057129217545,99.66343137789772 84.23173933802173,98.69209682099608 85.40794080204796,99.76478612429855 86.64536919161037,101.69468080704428 86.63892425208178,101.86781597046138 86.11043921069358,103.06706488368764 86.23933800127998,103.87357369480196 86.35856938255893,104.17759205037328 87.29308561424841,104.74339537763626 87.48965626989957,104.79828614901635 88.40483768300328,104.69694925797194 89.08477880331338,104.77295195994157 89.15889560790674,104.90384502834968 89.10411362189916,105.72296867804471 89.21690006366407,105.96785675616957 89.36835614258598,106.11985519735936 89.65515595163743,106.26340853833062 90.2352005092398,106.87139116390426 90.30609484406887,106.85872499113975 90.37698917888338,106.74472918363244 90.35443189051875,106.4196275311424 90.6347867600416,105.93407921500147 90.82491247613507,105.20785242207057 90.92803150859254,105.08540538861598 91.09559993635048,105.04740447844415 91.34373010821582,105.13185087686543 91.8013208147895,105.0389598248712 92.45548217697069,105.19518551191322 92.62305060471408,105.41896676474607 92.9710773392726,105.42318903569867 93.02908179504448,105.5625236268479 92.84540101846505,105.82007971876192 92.84217854870076,105.92141262675796 93.10319859962328,106.23385349767341 93.83792170592642,106.45340449838113 94.03449236157758,106.63495501325815 94.34707192871429,106.77006162459293 95.12046467218897,107.26403973499873 95.69084182049846,107.34847958306091 96.09687301082886,107.75378738071231 96.11943029917893,107.94799532997422 95.93252705283521,108.16331129618266 95.82296308084915,108.47150583671646 95.54260821134085,108.88524122703711 95.53616327181226,109.48894640745675 95.59416772756958,109.50583308229761 95.74884627627034,109.1554325346442 96.24510662000102,108.60660376560736 96.40300763845153,108.15908943007707 96.5093491406733,108.12109260713441 96.68336250795983,108.31107621666888 96.64791534055257,107.80445045124361 97.21507001909777,107.18804365842698 97.37297103756282,106.93894399049168 97.57598663272802,105.72719090407008 97.53409452579217,105.36829946475882 97.57276416294917,104.82784267453462 97.74355506048596,104.60827918347786 97.75,103.93268862840705 97.6662157861283,103.7046732105955 97.51798217695614,103.53577172792575 96.20965945257922,102.8348199047723 95.70050922979135,102.49700565623789 95.55872056016233,102.27320151689673 95.60705760661222,101.88892994299931 95.34603755570424,101.54265882283653 95.33637014641135,101.07814219214015 94.73054583069461,100.63473290782531 94.64031667727977,100.50804327677724 94.7724379376159,100.14908627099067 94.75310311903013,100.00972527680278 94.67254137492273,99.95904838307979 94.37607415659295,100.07307126753767 93.88948122215515,100.08574044882516 93.51889719924657,99.55785313467095 92.83573360917217,98.94971485658971 92.05267345639004,97.8896650996976 91.26961330363702,97.18857472327909 91.06982017823611,96.63106888811672 90.00318268619594,96.07355217072836 89.84528166771634,95.57938052763166 89.68415817950154,95.33862714245515 89.24912476130703,94.91624787895307 88.61107574793277,94.53187732037986 87.94724697644415,93.85182442838413 87.6701145767147,92.7746888840029 87.46709898153495,92.7197750031246 86.84193984723242,92.69443009940733 86.77104551241791,92.74511988434278 86.70981858689629,93.26890906014705 86.60992202420312,94.81487592619851 86.47780076385243,95.24148046499431 85.87519891789998,96.26783953493032 84.50564926798688,98.28666045292448 83.4873488224257,99.56629940848507 82.94597390199488,100.00972527680278 82.70751113942242,100.28844658533853 81.76332749841094,101.93960341342427 79.99741406748944,106.19163195798865 79.9136298536032,106.5125140949749 79.86207033737446,107.38647743330148 79.43025938891515,108.73747927521435 78.8244350731984,109.77601852296903 77.85447167410166,109.60715292187888 76.45591979632445,109.48050306628829 74.90268936983193,109.59026630689004 72.71463239975856,109.28630553098083 72.51161680459336,109.45939470246049 72.40849777213589,109.4720597226169 71.47075907066755,109.28630553098083 71.17751432210207,109.07099802542325 69.00556970082107,108.72059214636101 66.39536919161037,107.39914337214395 64.21053469127219,107.0022746203922 63.949514640364214,107.06138308166373 63.14389719924657,106.91783374933584 62.82487269255216,106.95583217218882 60.99128739658045,107.64401708645892 59.937539783582906,107.82978195281794 59.55406588160258,107.95643912390733 59.36716263527342,107.90155441868956 58.72266868238512,108.01132372372376 58.34563971993339,108.25197034015582 57.62058402292314,108.42506577616223 57.29833704647899,108.18019875432765 57.31122692552162,108.13798009023776 57.25,108.23086106892151 57.2886696371861,108.15908943007707" stroke="yellow" stroke-linecap="round" stroke-linejoin="round" stroke-width="0.5"><title>2025-04-06 31.5km</title><desc>1743926920000</desc></polyline><polyline fill="none" points="103.2577576112235,107.1622466907993 103.52748097188305,107.41077213285644 104.21216334892961,107.2437943604782 104.47003073769156,107.05739931518292 105.11025322013302,106.94090174067242 105.34737265807053,106.98361757793282 106.55964578452404,106.72732151305172 108.30247365338437,106.08657041728111 108.50995316157059,106.05550330046572 109.29837529272481,106.16812142423441 109.53845872363308,106.11763749738566 111.58361387587502,106.5098562255007 113.93406030442566,107.69036044654786 115.91993559717957,107.99712753599852 116.07702722481918,108.16021744245336 116.2281908665027,108.22622973596845 117.14999268148676,108.3660199279966 117.41675204917556,108.20293129836682 119.41151932082721,108.49027725239466 120.74828015221283,108.37766907709738 122.9831308547873,108.64559808195372 123.52257757610641,107.78743902661154 123.98792447306914,106.49043959448136 124.6400029273791,105.40308536463817 126.03307962529652,102.156288610091 126.85114168617292,100.55216082782499 127.27795667445753,99.33249208970665 128.30942622949078,97.9806911625019 129.5246633489296,96.17429687307049 130.06411007023416,95.23414575497918 130.14710187351739,94.99327517804704 130.32494145198143,93.03903384574551 130.40200526930857,92.9574420795634 130.95923594845226,92.98463936312146 131.11929156907718,93.04680447692226 131.40976288054662,94.08027793945257 131.92549765807053,94.61642484454569 132.57461211942427,95.00104523111986 132.99549912176735,95.42450964844284 133.1081308547873,95.58379266253542 133.2652224824269,96.084945114535 134.2522321428405,96.57831842211817 134.39153981262643,97.06391302360316 135.13253805619024,97.72430727814753 135.83204039811972,98.67990722208924 136.48115485947346,99.25091986763437 136.83683401637245,99.74423372632191 136.9287177985825,99.7869612624927 137.337748829028,99.7325807498546 137.5185524004628,99.65489410799637 137.62525614752667,99.68985312525729 137.63414812643896,99.82580441688879 137.52744437937508,100.16373743734948 138.18545081965567,100.69976021074035 138.1587748828897,101.04545025751577 138.4255342505785,101.44939690980209 138.36625439109048,101.77177295586262 138.4492461943737,101.92713349354926 138.9116290983511,102.25727158645714 140.21874999998545,102.98744463775438 140.36398565572745,103.3331045920786 140.33434572597616,103.78362085428125 140.39066159249342,103.9312020884463 140.83822453160246,104.05159669199202 140.96271223652002,104.13315401329601 140.97753220138839,104.30403519917309 140.70780884074338,104.81278851546813 140.71670081965567,104.97589818090273 140.89750439109048,105.03415138752825 141.35395930912637,104.70016458425744 141.51105093675142,104.74288406324922 141.53772687351739,106.03996972828463 141.608862704903,106.26520562640144 141.79263026930857,106.40500624757806 142.60180035128724,106.56033939903864 142.75,106.69625515355983 142.73814402808785,109.1270868216834 142.60772833722876,109.10767212376413 142.2372292154323,108.83586484750595 141.6503586065519,108.66501312110813 141.3747072599508,108.72714115009876 139.308804156899,109.52702640872121 137.6993559718976,109.5425579204366 137.67268003511708,109.49596335775823 137.92758343089372,108.94070512985854 138.372182377032,108.47862815317603 138.36921838406124,107.83791974656015 138.73675351287238,107.17001314642948 138.92348507024872,106.94866826170437 138.92348507024872,106.82440364983086 138.86124121778994,106.73897138839311 138.53520199061313,106.4166562657756 138.247694672129,106.32345597559652 137.957223360645,106.32345597559652 137.18954918031523,105.82638217987369 136.96132172130456,105.7370632358743 136.74495023417694,105.5545409716542 136.0839798009256,105.37201743992591 135.87946428571013,105.06133617311025 136.0513758782181,104.80502136328141 136.0158079625253,104.63802703632246 135.68384074940695,104.63025983250736 135.51785714285506,104.42831172742808 135.0465822599217,104.31956979735514 134.83910275173548,104.30015154819921 134.4626756440266,104.38947537548302 134.2255562060891,104.31180249941826 134.03586065572745,104.41277719353457 133.86098507024872,105.08852093056521 133.57347775175003,105.58560868060522 133.600153688516,105.88075008414853 133.5438378220133,105.9700685398675 133.454918032774,105.97395194410637 132.99549912176735,105.46910458268758 132.62796399297076,105.24774537389021 132.53015222481918,105.11182212885797 132.45012441450672,104.92929552263377 132.49458430912637,104.1681070735358 132.42641247072606,104.04382931485634 131.8780737704801,103.9739228173512 130.84660421544686,104.06324775339635 129.93073038640432,103.50010721076615 129.82699063229666,103.29038282148395 129.71732289226202,102.41262925390402 130.17970579623943,101.39113575662486 130.18859777515172,101.21246741477262 129.05635245901067,99.44125465852085 128.03081088991894,98.48179789443566 127.71662763463974,98.27203344874215 127.90928717797215,98.36137776925716 127.85889929741097,98.50510495169692 127.28684865338437,99.26257305772924 126.58141832551337,99.8957219501226 125.51438085480186,101.80672915692594 124.04424033957184,105.3875514068659 123.90493266977137,106.59528923161088 123.5077576112235,107.79132216234939 122.93274297422613,108.68831114918976 122.28066451988707,108.53687359761898 120.91722775175003,108.40096735983752 119.42633928569558,108.49416028431551 117.39304010538035,108.19904822340868 117.13813670958916,108.37766907709738 116.22226288054662,108.21458051974696 115.91993559717957,107.98936132473136 113.97259221310378,107.69424359664117 111.55397394613829,106.47878960898561 109.65701844262367,106.12540426167652 109.46732289226202,106.10598734665473 109.31319525759318,106.1564712958716 108.53959309132188,106.02831954312569 108.25504976579396,106.06715347357567 106.61003366508521,106.68460525927549 105.69119584308646,106.84382003416431 105.28216481264099,106.97973432287108 105.07468530444021,106.92536869172727 104.52041861826729,107.02633334580241 104.1439915105293,107.2554440069307 103.46523711942427,107.39523936155456 103.26072160420881,107.1622466907993 103.29332552693086,106.41277292695668 102.68570696721144,106.19142166545498 102.30927985947346,105.69046192720634 102.25,105.51182281188267 102.4960114168498,105.49628891839347 102.55232728336705,105.43026976861802 102.49304742389359,105.38366791599583" stroke="yellow" stroke-linecap="round" stroke-linejoin="round" stroke-width="0.5"><title>2025-04-05 35.9km</title><desc>1743843004000</desc></polyline><polyline fill="none" points="175.227933133021,98.35718388669193 172.46795701608062,104.86611197935417 166.39600955322385,90.4018155792728 164.74002388119698,112.09824415063486 171.36396656930447,96.91075424849987 174.1239426881075,109.92860562168062 165.29201910458505,111.37503141490743 170.25997612066567,90.4018155792728 161.42805253900588,90.4018155792728 178.53990447707474,117.16073031257838 164.74002388119698,99.08039854746312 173.57194746285677,105.58932567713782 164.74002388119698,110.65181857068092 171.9159617908299,92.57146276440471 173.0199522394687,101.9732561185956 160.87605731375515,103.41968426201493 169.7079808972776,107.75896612880751 167.5,120.77678865380585 171.9159617908299,103.41968426201493 172.46795701608062,113.54466930124909 162.53204298391938,98.35718388669193 173.0199522394687,111.37503141490743 165.29201910458505,105.58932567713782 165.29201910458505,112.09824415063486 163.08403821103275,101.2500418862328 176.3319235816598,101.2500418862328 165.29201910458505,81.0 172.46795701608062,114.26788171753287 170.25997612066567,93.29467827780172 171.36396656930447,111.37503141490743 155.90810029767454,101.9732561185956 169.15598567202687,109.20539256371558 166.39600955322385,99.08039854746312 173.0199522394687,109.20539256371558 174.1239426881075,95.46432418050244 169.15598567202687,112.82145677879453 163.08403821103275,106.31253926828504 167.5,119.33036563638598 159.772066866979,114.99109402764589 166.94800477661192,99.80361309973523 170.25997612066567,114.26788171753287 166.94800477661192,100.52682754583657 178.53990447707474,106.31253926828504 171.9159617908299,95.46432418050244 165.84401432797313,109.92860562168062 161.98004776239395,98.35718388669193 169.7079808972776,106.31253926828504 178.53990447707474,90.4018155792728 168.05199522338808,99.80361309973523 169.15598567202687,121.5 168.05199522338808,97.63396912114695 179.09189970232546,110.65181857068092 172.46795701608062,96.1875392687507 170.25997612066567,113.54466930124909 160.87605731375515,99.08039854746312 170.81197134405375,88.23216743208468 171.36396656930447,115.7143062306568 164.74002388119698,105.58932567713782 169.15598567202687,94.74110898654908 167.5,112.09824415063486 176.3319235816598,103.41968426201493 167.5,115.7143062306568 164.74002388119698,98.35718388669193 178.53990447707474,113.54466930124909 165.29201910458505,104.86611197935417 167.5,120.0535771981813 171.36396656930447,104.1428981735371 162.53204298391938,104.1428981735371 164.18802865594625,112.82145677879453 171.9159617908299,101.9732561185956 161.98004776239395,99.80361309973523 168.60399044677615,115.7143062306568 166.39600955322385,101.9732561185956 171.9159617908299,107.75896612880751 164.18802865594625,117.16073031257838 163.08403821103275,95.46432418050244 171.36396656930447,109.20539256371558" stroke="#4DD2FF" stroke-linecap="round" stroke-linejoin="round" stroke-width="0.5"><title>2025-04-04 1.7km</title><desc>1743771861000</desc></polyline><polyline fill="none" points="39.993732860311866,129.75 31.00125342886895,132.2045735603897 26.130327070131898,139.07736023480538 27.441730320453644,165.58641393459402 33.06202996522188,169.51364517596085 37.183583036996424,168.28638641000725 40.3684195028618,162.39553171617445 39.61904621589929,137.6046226263279 31.00125342886895,133.6773159559816 24.256893855519593,142.7591985425679 26.505013713613153,165.0955093774246 28.565790249034762,168.53183823626023 36.43420975189656,168.77729002514388 40.93044946715236,162.88643707183655 38.12029964476824,138.83190405741334 31.93797003570944,133.4318589803297 24.818923819810152,140.05918458127417 26.130327070131898,165.83186615933664 36.80889639444649,168.53183823626023 41.67982275225222,161.90462621522602 38.49498628731817,136.86825333279558 31.93797003570944,133.4318589803297 26.130327070131898,136.3773402896477 25.193610463291407,163.1318896949524 31.188596749678254,169.51364517596085 41.11779278796166,164.6046046743868 40.3684195028618,140.05918458127417 32.125313356518745,133.6773159559816 23.32017724774778,140.795552460826 24.256893855519593,160.43190884240903 29.87719349935651,169.26819349557627 37.745613002218306,168.04093454848044 41.67982275225222,161.65917341038585 40.18107618018985,140.55009653733578 31.188596749678254,133.4318589803297 23.69486389029771,141.04100834822748 26.130327070131898,166.81367469509132 36.9962397152558,168.04093454848044 41.67982275225222,160.43190884240903 37.93295632302761,138.09553530800622 28.940476891584694,134.65914349351078 23.69486389029771,141.2864641995402 25.755640426650643,165.58641393459402 34.18608989473432,169.51364517596085 40.3684195028618,165.58641393459402 41.67982275225222,160.43190884240903 38.8696729298681,137.11370980076026 28.940476891584694,133.92277289449703 24.256893855519593,142.02283153450117 25.38095378410071,163.86824734753463 30.813910107128322,169.51364517596085 41.11779278796166,163.86824734753463 40.3684195028618,139.07736023480538 31.00125342886895,133.6773159559816 23.69486389029771,139.81372854928486 25.38095378410071,165.83186615933664 28.940476891584694,169.26819349557627 37.37092635873705,168.53183823626023 41.30513610970229,161.41372056945693 40.3684195028618,139.32281637610868 34.74811985809356,133.4318589803297 26.505013713613153,135.1500570451608 23.69486389029771,139.32281637610868 26.317670391872525,167.55003071564715 34.74811985809356,170.25 41.492479431442916,164.1136998264119 40.93044946715236,145.704663314973" stroke="#4DD2FF" stroke-linecap="round" stroke-linejoin="round" stroke-width="0.5"><title>2025-04-02 4.0km</title><desc>1743590878000</desc></polyline><polyline fill="none" points="71.49486293643713,138.7787437911611 68.14773735962808,138.7787437911611 67.75395787879825,158.12589469808154 73.06998085416853,168.44428752467502 85.27714472077787,163.28509873361327 84.48958576284349,147.54947876674123 87.4429318588227,146.2596675629029 82.52068836428225,132.8455745590618 68.73840657901019,134.9092878830852 68.73840657901019,159.15773672470823 73.06998085416853,167.4124509858666 83.70202680304646,164.05897802393883 84.29269602242857,140.06856052030344 79.1735627874732,131.03982339974027 68.14773735962808,136.7150350403972 67.75395787879825,158.6418157875305 72.67620137427002,167.15449175657704 79.1735627874732,168.44428752467502 85.0802549822256,163.02713889430743 84.88336524181068,138.26281683216803 75.62954747118056,130.7818587962538 69.13218605797738,135.4252158330055 68.54151683859527,159.931617844617 76.02332695107907,167.9283693319885 80.55179096572101,167.4124509858666 85.86781394015998,160.1895781419007 84.88336524181068,136.97299876785837 77.79533460922539,130.7818587962538 68.73840657901019,134.1353956728708 69.13218605797738,162.25325914600398 77.5984448697418,168.70224656385835 84.68647550139576,161.47937905532308 85.67092420067638,135.94114363042172 76.8108859108761,130.26592947437894 68.73840657901019,138.26281683216803 69.72285527735949,161.73733912338503 77.79533460922539,168.70224656385835 84.29269602242857,165.3487760797143 86.655372899957,158.6418157875305 84.29269602242857,135.1672518774867 77.40155512932688,130.26592947437894 69.32907579746097,135.68317975127138 69.52596553694457,161.22141894919332 75.62954747118056,168.18632844742388 84.48958576284349,164.3169377114391 85.86781394015998,136.97299876785837 77.20466539077461,130.52389415481593 67.55706814024597,136.7150350403972 68.93529631849378,163.80101829895284 76.8108859108761,169.73408234107774 85.27714472077787,163.80101829895284 84.68647550139576,135.4252158330055 76.8108859108761,130.7818587962538 68.14773735962808,136.4570712755667 70.116634757258,165.3487760797143 76.41710643097758,169.4761234538164 82.71757810469717,168.96020556543954 85.47403446119279,164.05897802393883 85.0802549822256,136.97299876785837 76.6139961713925,129.75 68.54151683859527,136.7150350403972 71.49486293643713,165.0908165446017 74.25131929293275,168.70224656385835 84.29269602242857,170.25 86.655372899957,138.7787437911611" stroke="#4DD2FF" stroke-linecap="round" stroke-linejoin="round" stroke-width="0.5"><title>2025-03-30 4.0km</title><desc>1743343343000</desc></polyline><polyline fill="none" points="131.56361322756857,135.25005688192323 129.46467121690512,137.5000749990577 124.69434846565127,133.25003826594912 126.98410338629037,135.25005688192323 127.17491629626602,132.25002807192504 121.06890317332,129.75 114.581264231354,132.75003324309364 112.10069640073925,157.00010668905452 115.15370296221226,166.5000407216139 123.93109682481736,170.25 131.56361322756857,165.00005468295421 133.09011650830507,158.50009981833864 133.28092941828072,152.25011967262253 128.12898084707558,133.5000407223124 118.77914825361222,131.25001728639472 111.71907058171928,140.7500958867604 116.1077675120905,166.25004314025864 124.88516137655824,169.2500116713345 131.94523904751986,162.50007499800995 130.41873576678336,135.00005468411837 120.87809026427567,131.00001449813135 113.43638677243143,138.5000820911955 115.91695460211486,165.50005017674994 125.64841301552951,168.5000200367067 131.37280031852424,162.50007499800995 130.41873576678336,134.00004552444443 119.16077407356352,131.75002275314182 113.81801259238273,138.5000820911955 114.77207714226097,161.7500803717412 120.30565153434873,168.25002275209408 126.79329047631472,168.25002275209408 132.32686486840248,162.50007499800995 130.60954867769033,135.50005904317368 118.77914825361222,132.25002807192504 112.29150931164622,139.50008859182708 115.15370296221226,163.00007123069372 124.31272264569998,168.5000200367067 132.1360519574955,161.50008208944928 131.37280031852424,138.00007861910854 123.16784518584609,132.50003067567013 118.58833534363657,132.75003324309364 114.1996384114027,138.75008377211634 116.29858042206615,165.25005244847853 126.79329047631472,169.00001449743286 131.56361322756857,162.2500768265454 129.46467121690512,134.75005244964268 122.78621936403215,130.750011672033 114.581264231354,136.75006929284427 115.72614169307053,162.50007499800995 121.25971608422697,169.00001449743286 126.98410338629037,168.25002275209408 131.37280031852424,162.7500731322216 130.99117449764162,137.25007313408423 122.78621936403215,131.50002003787085 114.581264231354,137.75007682770956 114.581264231354,161.25008376967162 119.35158698353916,167.7500280707609 125.07597428560257,169.00001449743286 131.18198740761727,163.75006530201063 130.22792285773903,138.25008037337102 122.21378063503653,131.75002275314182 113.81801259238273,138.5000820911955 114.77207714226097,164.25006116519216 122.21378063503653,169.50000880868174 131.18198740761727,162.50007499800995 129.84629703778774,135.00005468411837 121.83215481415391,131.00001449813135 113.05476095154881,140.50009450188372 114.77207714226097,163.75006530201063 124.69434846565127,169.2500116713345 131.37280031852424,160.0000916189747 130.03710994683206,136.00006325403228 121.45052899420261,131.75002275314182 114.00882550142705,139.75009012431838 115.34451587218791,164.25006116519216 121.06890317332,169.50000880868174 130.41873576678336,165.25005244847853" stroke="#4DD2FF" stroke-linecap="round" stroke-linejoin="round" stroke-width="0.5"><title>2025-03-30 4.5km</title><desc>1743327729000</desc></polyline><polyline fill="none" points="174.07868020283058,131.3471821990679 174.18147208122537,132.69398362527136 167.39720812160522,136.33033753582276 164.1078680199571,136.46501703147078 166.7804568526335,145.0844633774832 159.1738578681834,145.62317606748547 159.5850253808312,149.9328661293839 153.72588832490146,147.3739901126246 148.997461928986,148.85544552403735 147.25,153.97318205650663 148.27791878161952,166.63272266462445 152.49238578695804,169.32621926011052 157.32360406126827,166.63272266462445 159.48223350243643,146.02721037669107 164.41624365514144,145.48849792487454 168.6307106600143,146.43124450644245 177.8819796955213,156.8013925504638 179.8350253808312,157.07074547279626 181.8908629445359,152.76108915853547 187.75,157.74412743159337 186.10532994940877,164.88194560992997 185.79695431422442,156.39736301684752 180.45177665026858,153.4344743010588 178.80710659874603,156.8013925504638 176.44289340125397,155.05059661273845 164.51903553307056,136.73437596356962 173.77030456857756,133.63674343941966 172.22842639591545,130.67378073988948" stroke="#4DD2FF" stroke-linecap="round" stroke-linejoin="round" stroke-width="0.5"><title>2025-03-29 1.5km</title><desc>1743247652000</desc></polyline><polyline fill="none" points="22.34315939596854,208.17428332442068 23.029432409675792,208.89361497906793 22.64511952199973,208.2821832082118 22.23335571377538,208.71378226473462 22.48041399870999,209.72084375414124 24.017665549530648,212.0586490071728 25.85687722649891,213.67711641496862 26.5156993198907,212.20251321246906 26.131386432098225,211.48319133558834 26.707855763612315,212.0586490071728 26.350993796484545,214.18063741397054 27.998049029614776,215.40346978972957 33.845095106982626,216.33857275603805 38.04508595133666,219.0 42.84899704786949,217.99297689709056 43.809779267176054,216.48243443196407 43.20585901499726,194.7583584428212 42.43723323952872,193.2117029443616 40.70782524487004,191.91682101522747 38.456849759677425,190.58596296531323 35.93136506900191,191.2693774674408 34.31176075641997,189.07525041431654 32.033334350562654,181.7013998114271 32.994116569985636,181.30572346378176 33.62548774247989,183.06827679059643 35.38234665780328,183.35603938695567 36.01371783053037,182.2049869599723 35.27254297561012,178.71582603013667 33.73529142467305,178.5 32.637254602625035,179.21941935615905 30.962748449179344,179.32733207616548 29.150987692759372,180.4424273813056 24.429429357754998,181.0179584431171 21.547082699951716,182.2409574307676 22.288257554755546,186.0537971824233 21.245122573920526,188.82346407760633 21.190220732823946,196.30500411348476 21.519631779403426,203.7863141990092 22.37061031651683,207.31108253303682" stroke="#4DD2FF" stroke-linecap="round" stroke-linejoin="round" stroke-width="0.5"><title>2025-03-25 3.9km</title><desc>1742910133000</desc></polyline><polyline fill="none" points="83.93991573434323,178.5 70.41609269287437,190.10167991521303 69.61110322643071,194.95326355937868 73.79704845417291,217.10158816410694 79.2709768274799,217.94532706937753 84.58390730712563,213.93756282748654 82.81293048057705,192.8438813923858 79.75397050753236,188.41416869556997 72.83106109406799,188.83604668744374 70.41609269287437,197.69545571890194 72.50906530767679,216.25784875964746 79.43197472020984,218.1562617176678 84.10091362707317,214.14849806868006 83.45692205429077,191.57825059560128 75.89002106711268,186.9375947425142 71.06008426751941,190.73449610779062 70.57709058746696,213.72662755625788 77.66099789366126,217.94532706937753 83.77891784068197,214.5703684556065 83.93991573434323,195.1642016057158 82.32993680052459,189.67980229726527 77.82199578732252,187.14853397244588 73.95804634690285,187.14853397244588 69.77210112009197,192.63294300390407 70.7380884801969,213.72662755625788 76.37301474716514,218.36719633475877 83.93991573434323,214.5703684556065 83.13492626789957,191.7891891397303 76.8560084272176,186.9375947425142 69.61110322643071,194.10951106681023 70.09409690648317,213.72662755625788 78.14399157371372,217.94532706937753 84.26191152073443,212.25007978163194 83.93991573434323,192.21106613404118 78.30498946737498,186.515716189635 70.7380884801969,190.73449610779062 69.77210112009197,212.25007978163194 74.28004213329405,218.1562617176678 77.82199578732252,218.36719633475877 84.26191152073443,211.82820870832074 83.13492626789957,190.10167991521303 75.89002106711268,186.72665548196528 70.09409690648317,194.53138737555128 70.89908637292683,214.5703684556065 74.60203792061657,217.94532706937753 79.43197472020984,217.52345767896622 84.74490520078689,211.40633751032874 82.81293048057705,190.10167991521303 74.92403370700777,187.57041233778 70.09409690648317,194.95326355937868 72.02607162669301,216.0469138310291 78.14399157371372,218.5781309211161 84.26191152073443,214.78130360285286 84.26191152073443,195.37513961968943 83.61791994702071,190.94543477683328 78.14399157371372,186.515716189635 70.7380884801969,189.46886344184168 70.41609269287437,214.14849806868006 77.01700631994754,217.94532706937753 81.52494733408093,217.10158816410694 84.90590309444815,212.67195072968025 83.61791994702071,191.57825059560128 78.62698525376618,186.72665548196528 72.02607162669301,188.41416869556997 69.77210112009197,192.21106613404118 70.25509479921311,212.25007978163194 77.66099789366126,219.0 84.74490520078689,216.25784875964746 85.38889677356929,194.32044923701324" stroke="#4DD2FF" stroke-linecap="round" stroke-linejoin="round" stroke-width="0.5"><title>2025-03-24 4.1km</title><desc>1742817301000</desc></polyline><polyline fill="none" points="122.60036261938512,181.3928877018625 119.18803355004638,179.02597993204836 114.16990256588906,183.75979232555255 114.77207828406245,209.79553545964882 121.99818690121174,218.4740318787517 131.43227315228432,211.89941726531833 131.0308226738125,185.3377269919729 125.61124121025205,179.288969839341 113.96917732618749,182.97082446725108 114.77207828406245,210.58449142775498 120.79383546486497,217.94806360348593 125.20979073178023,218.21104776102584 131.43227315228432,212.42538732732646 130.42864695563912,185.07473797851708 122.19891214091331,178.76298998505808 113.76845208741724,186.3896826597629 114.16990256588906,209.00657914124895 121.39601118303835,219.0 131.0308226738125,213.74031180434395 131.6329983919859,185.8637049034005 120.59311022609472,178.5 115.17352876253426,183.23381379188504 114.16990256588906,209.5325500589097 123.40326357726008,219.0 131.0308226738125,213.47732698684558 130.83009743411094,183.75979232555255 120.59311022609472,178.5 114.57135304436088,186.3896826597629 114.97280352376401,214.00329658342525 122.19891214091331,219.0 132.0344488704577,213.47732698684558 130.22792171593755,183.75979232555255 123.80471405573189,178.5 114.77207828406245,185.3377269919729 115.17352876253426,211.89941726531833 121.79746166244149,218.4740318787517 131.43227315228432,214.00329658342525 130.42864695563912,187.17864900291897 120.59311022609472,178.5 112.76482589077204,186.3896826597629 114.37062780559063,210.32150614412967 119.38875878974795,217.94806360348593 130.62937219440937,214.00329658342525 131.23154791258276,185.07473797851708 124.20616453420371,178.76298998505808 113.3670016080141,185.3377269919729 113.96917732618749,210.05852082115598 121.99818690121174,217.94806360348593 126.61486740782857,217.6850794076454 132.23517410922796,210.84747667249758 131.43227315228432,186.1266938012559 128.22066932171583,180.6039187948918 120.99456070456654,178.76298998505808 113.96917732618749,187.70462636975572 114.97280352376401,211.11046187917236 120.59311022609472,218.21104776102584 131.0308226738125,213.47732698684558 131.23154791258276,185.3377269919729 127.61849360447377,180.0779393290868 119.38875878974795,178.76298998505808 114.37062780559063,186.1266938012559 114.97280352376401,212.42538732732646 120.99456070456654,219.0 131.6329983919859,213.47732698684558 132.23517410922796,186.1266938012559 125.20979073178023,219.0" stroke="#4DD2FF" stroke-linecap="round" stroke-linejoin="round" stroke-width="0.5"><title>2025-03-23 4.2km</title><desc>1742719228000</desc></polyline><polyline fill="none" points="162.1281567402184,178.5 158.54692790005356,183.19212343008257 160.43178518489003,214.30797708733007 169.66758587770164,217.51830997690558 177.39550074283034,208.1342426625779 175.69912918750197,188.3781392655801 163.82452829554677,181.46344790933654 158.3584421724081,190.6007125545293 159.8663279991597,213.5671301606344 166.46332849469036,217.76525840524118 175.69912918750197,212.0854353213217 174.75670054461807,186.8964220972266 164.76695693843067,180.72258642420638 158.3584421724081,187.14337504992727 159.30087081342936,212.5793337476207 167.21727140713483,218.7530517532723 172.30638607498258,217.27136151189916 175.88761491514742,211.34458740940318 175.32215772941709,188.87204469623975 164.95544266700745,180.96954028925393 160.99724236968905,181.95735538343433 157.98147071618587,191.09461732942145 160.05481372773647,214.06102814828046 171.5524431616068,217.51830997690558 178.52641511242837,213.5671301606344 176.0761006437242,187.88423368881922 163.82452829554677,181.7104016650701 157.79298498667777,191.34156966151204 158.54692790005356,211.59153674962 164.20149975270033,218.01220679690596 174.3797290874645,218.25915515213273 175.5106434589252,215.54272123624105 176.45307209994644,190.3537601128919 171.17547170445323,182.6982163208304 165.52089985087514,181.46344790933654 158.92389935720712,186.64946910867002 158.54692790005356,213.81407917232718 169.2906144214794,218.25915515213273 176.0761006437242,210.60373916930985 174.75670054461807,186.64946910867002 167.97121432144195,181.21649411786348 161.3742138268426,181.21649411786348 156.47358488757163,195.5397537278477 160.80875664111227,215.54272123624105 168.72515723481774,217.27136151189916 177.39550074283034,210.1098401596537 174.19124335981905,185.16775040782522 163.25907111167908,181.7104016650701 160.05481372773647,183.43907693016808 157.79298498667777,200.97268216277007 161.56269955541939,217.27136151189916 170.798500248231,218.01220679690596 176.0761006437242,209.8628906001104 173.24881471693516,185.41470361547545 166.8402999509126,179.48781655391213 158.73541362863034,184.42689056519885 158.92389935720712,213.32018111238722 166.27484276518226,219.0 176.64155782945454,212.8262829054147 174.75670054461807,185.90860992192756 166.0863570375368,179.48781655391213 158.3584421724081,185.6616567868041 158.54692790005356,211.34458740940318 167.21727140713483,218.50610347138718 175.5106434589252,214.06102814828046 174.75670054461807,188.87204469623975" stroke="#4DD2FF" stroke-linecap="round" stroke-linejoin="round" stroke-width="0.5"><title>2025-03-21 4.2km</title><desc>1742565279000</desc></polyline><polyline fill="none" points="34.49639275390655,229.27503410715144 29.086812387686223,227.25 27.541217997204512,229.1062814015895 26.639621268957853,247.66892949386965 33.72359555866569,251.04392400861252 39.13317592488602,245.47517771157436 36.04198714485392,228.76877591677476 29.60201051738113,228.43127033195924 25.738024541642517,232.81883515475783 29.215611919760704,249.8626770627452 33.852395091205835,251.7189217148116 38.23157919803634,248.51267905777786 38.10277966503054,231.46881700423546 32.56439976580441,228.0937646473758 28.185215659439564,228.60002313693985 25.866824073716998,232.9875873111887 27.670017529278994,248.85017870832235 32.95079836342484,252.3939190218225 37.458782001864165,249.52517771103885 38.23157919803634,232.1438262789743 33.98119462374598,228.76877591677476 26.639621268957853,229.95004467794206 26.38202220434323,245.64392799849156 29.086812387686223,251.04392400861252 32.17800116818398,251.88767107913736 37.458782001864165,249.01892849674914 37.973980132024735,231.3000646235887 36.55718527501449,228.93752867158037 30.89000584324822,228.262517502415 27.154819399584085,230.7938073311234 25.99562360625714,241.59391423675697 30.117208648007363,251.55017232545651 37.0723834047094,250.20017631491646 38.48917826265097,232.48133076680824 37.973980132024735,229.95004467794206 30.761206310242414,228.43127033195924 27.02601986657828,231.637569360435 28.700413789600134,248.68142889556475 30.89000584324822,251.55017232545651 37.458782001864165,250.87517451972235 38.10277966503054,236.86888003116474 31.66280303755775,246.487679057871 29.859609581995755,252.73141752567608 31.01880537485704,267.75 37.20118293724954,265.8937814006349 38.61797779565677,253.74391243990976 36.55718527501449,230.28754981374368 30.246008180081844,227.58750593382865 25.738024541642517,231.3000646235887 26.639621268957853,245.981428496656 32.56439976580441,252.05642041831743 37.973980132024735,248.51267905777786 38.61797779565677,232.3125785352895 32.04920163564384,227.41875297972 27.154819399584085,230.28754981374368 26.768420801963657,247.83767945633736 31.791602570563555,251.7189217148116 37.845180600415915,248.006429394125 38.36037872964516,231.46881700423546 32.43560023326427,227.41875297972 28.056416127365083,230.1187972582411 27.798817061819136,250.20017631491646 31.01880537485704,252.90016674087383 35.01159088360146,252.3939190218225 37.0723834047094,249.35642799758352 39.26197545789182,233.4938436311204" stroke="#4DD2FF" stroke-linecap="round" stroke-linejoin="round" stroke-width="0.5"><title>2025-03-10 4.0km</title><desc>1741591515000</desc></polyline><polyline fill="none" points="88.10111868195236,235.03853403311223 77.40092412568629,228.28847319935448 69.07855058088899,234.25968218350317 69.27670233231038,262.03851807664614 75.41940661426634,267.490387588623 86.1196011705324,261.0000648229616 85.52514591719955,236.33661968249362 79.97689688857645,229.32694578415249 68.68224707897753,234.0000648240093 68.48409532755613,261.7789048200939 73.63604085426778,266.4519375571981 86.31775292288512,261.7789048200939 86.91220817528665,236.59623669751454 78.78798638191074,228.80770956887864 69.27670233231038,234.0000648240093 69.87115758564323,262.03851807664614 76.41016537044197,267.2307751378976 83.34547665622085,265.67309963086154 86.71405642386526,260.4808379658498 86.71405642386526,237.8943211955484 78.98613813333213,229.06732769554947 68.88039883039892,234.7789167886367 69.27670233231038,259.4423837919021 76.60831712093204,267.490387588623 86.51590467337519,261.2596781940665 85.72329766955227,233.74044742505066 74.82495136093348,228.80770956887864 69.27670233231038,233.74044742505066 69.87115758564323,263.0769707157742 77.59907587617636,267.2307751378976 86.51590467337519,261.0000648229616 86.31775292288512,237.3750875114929 79.58059338666499,228.80770956887864 72.24897859804332,229.58656383503694 68.28594357706606,234.25968218350317 68.68224707897753,260.74045141320676 76.21201361902058,266.9711626494536 86.31775292288512,261.0000648229616 84.93069066479802,233.22121251316275 78.3916828809306,227.25 68.08779182564467,234.0000648240093 68.68224707897753,260.74045141320676 78.78798638191074,266.9711626494536 85.92144942097366,260.74045141320676 85.3269941676408,233.74044742505066 78.19353112857789,227.50961835728958 66.89888131897897,235.2981512399856 69.07855058088899,262.557744472404 80.7695038933307,266.9711626494536 86.1196011705324,261.51929152640514 85.12884241621941,232.44235985830892 74.82495136093348,228.54809140297584 68.68224707897753,233.74044742505066 68.68224707897753,260.74045141320676 78.78798638191074,267.2307751378976 86.51590467337519,261.0000648229616 86.91220817528665,235.2981512399856 77.99537937901914,228.54809140297584 68.28594357706606,236.0770026295213 68.88039883039892,263.33658378000837 75.41940661426634,267.75 85.52514591719955,261.0000648229616 87.90296693053097,235.03853403311223" stroke="#4DD2FF" stroke-linecap="round" stroke-linejoin="round" stroke-width="0.5"><title>2025-03-09 4.1km</title><desc>1741514669000</desc></polyline><polyline fill="none" points="115.40724259614944,250.8288733732188 121.9706897456199,264.4212658269098 127.47551638726145,264.6986605670536 134.0389635367319,258.0411755006062 130.65137791074812,227.52740023168735 116.04241490084678,227.25 110.53758825920522,233.63019495876506 118.7948282212019,260.81513047998305 131.70999841950834,263.31168645829894 135.52103224769235,251.38366682827473 130.8631020123139,233.63019495876506 134.67413584142923,231.13359951367602 112.8665533773601,240.0103682357585 113.92517388425767,236.68158488313202 121.9706897456199,241.6747576991329 118.7948282212019,247.77750644064508 120.912069237791,264.4212658269098 130.22792970761657,264.14387104671914 134.885859942995,256.93159236118663 126.62861998006701,229.74660060973838 113.92517388425767,228.35960068064742 109.47896775137633,235.29459007806145 116.25413900241256,251.1062701214105 115.830690799281,260.26033981284127 126.41689587943256,267.47260571061634 132.34517072420567,256.6541964740027 128.9575850982219,233.0753962578019 117.52448361180723,227.52740023168735 110.11414005607367,233.63019495876506 114.98379439301789,262.479501501075 127.68724048882723,267.75 132.980343028903,259.70554898062255 131.70999841950834,229.19180076068733 117.73620771430433,228.35960068064742 114.34862208738923,241.11996137537062" stroke="#4DD2FF" stroke-linecap="round" stroke-linejoin="round" stroke-width="0.5"><title>2025-03-05 1.9km</title><desc>1741161630000</desc></polyline></svg>