<?xml version="1.0" encoding="utf-8" ?>
<svg baseProfile="full" height="300mm" version="1.1" viewBox="0,0,200,300" width="200mm" xmlns="http://www.w3.org/2000/svg" xmlns:ev="http://www.w3.org/2001/xml-events" xmlns:xlink="http://www.w3.org/1999/xlink"><defs /><rect fill="#222222" height="300" width="200" x="0" y="0" /><text fill="#FFFFFF" style="font-size:12px; font-family:Arial; font-weight:bold;" x="10" y="20">Over 10km Runs</text><text fill="#FFFFFF" style="font-size:4px; font-family:Arial" x="10" y="280">ATHLETE</text><text fill="#FFFFFF" style="font-size:9px; font-family:Arial" x="10" y="290">TXyy2025</text><text fill="#FFFFFF" style="font-size:4px; font-family:Arial" x="65" y="280">SPECIAL TRACKS</text><rect fill="yellow" height="2.6" width="2.6" x="65" y="283" /><text fill="#FFFFFF" style="font-size:3px; font-family:Arial" x="70" y="285.5">Over 20.0 km</text><rect fill="red" height="2.6" width="2.6" x="65" y="287" /><text fill="#FFFFFF" style="font-size:3px; font-family:Arial" x="70" y="289.5">Over 40.0 km</text><text fill="#FFFFFF" style="font-size:4px; font-family:Arial" x="120" y="280">STATISTICS</text><text fill="#FFFFFF" style="font-size:3px; font-family:Arial" x="120" y="285">Number: 26</text><text fill="#FFFFFF" style="font-size:3px; font-family:Arial" x="120" y="290">Weekly: 2.9</text><text fill="#FFFFFF" style="font-size:3px; font-family:Arial" x="141" y="285">Total: 181.1 km</text><text fill="#FFFFFF" style="font-size:3px; font-family:Arial" x="141" y="290">Avg: 7.0 km</text><text fill="#FFFFFF" style="font-size:3px; font-family:Arial" x="167" y="285">Min: 1.5 km</text><text fill="#FFFFFF" style="font-size:3px; font-family:Arial" x="167" y="290">Max: 35.9 km</text><polyline fill="none" points="22.06811471056426,64.19999999999709 22.08099611173384,63.32489951081516 22.892524392460473,61.69248267621151 24.283715730707627,60.497606141507276 25.21117662283359,59.067103775909345 24.87626018951414,57.48511567643436 26.061349107301794,55.65065534281166 26.731181973882485,55.330884024362604 26.87287738797022,54.96062138380512 26.679656368796714,54.506206509206095 27.220675222517457,54.05178983396763 27.619998662208673,53.260763918697194 27.723049872438423,51.79651006012864 27.323726432805415,50.53420724445459 27.5555916557787,49.67583339277917 29.29458082857309,48.564987105317414 29.526446051662788,47.571948738594074 29.83559968235204,47.353142518535606 29.616615860606544,45.11456258789258 29.165766815829556,43.869017989200074 29.47492044651881,41.546209486274165 30.53119535150472,39.66099697736354 31.67764006537618,38.71837909885653 32.74679637164809,38.38172797852167 32.57933815498836,38.26389985280548 32.84984758187784,37.79258613926504 32.630863760074135,37.75892079987534 33.017305798479356,37.32127048827533 32.811203378019854,37.35493595614389 33.33934083051281,37.001448050214094 33.54544325103052,37.42226686228241 33.893241085577756,36.546961998297775 33.86747828300577,35.890478964938666 33.455273442028556,35.738982346512785 33.5712060535443,35.284491290090955 33.120357008767314,35.065661620341416 33.223408218997065,34.88049772740487 33.03018719976535,34.829998431989225 32.66950796393212,35.536986543818784 32.7210335690761,34.49333589401067 33.043068601051345,34.106172753177816 32.785440575447865,32.97834223918471 33.043068601051345,32.47333990535844 32.811203378019854,32.03566941670579 32.18001471529715,31.80000000000291 31.097977007797454,32.742674760200316 30.750179173308425,32.65850768603559 31.407130638544913,32.54067367838434 32.19289611658314,31.901001237878518 32.79832197673386,32.08616994300246 33.00442439725157,32.42283954965387 32.785440575447865,33.146675856085494 33.017305798479356,34.022006679959304 32.708152167790104,34.49333589401067 32.69527076650411,35.3854894582837 33.00442439725157,34.89733082089515 33.5712060535443,35.200326081889216 33.41662923822878,35.72214937652461 33.93188528943574,35.83998011435324 33.91900388809154,36.42913198707538 33.67425726383226,36.44596485319926 33.7773084740038,36.95094968898047 33.59696885611629,36.934116896940395 33.481036244600546,37.47276501592569 33.26205242279684,37.11927747327718 32.862728983163834,37.43909958265431 33.08171280490933,37.3381032234538 32.682389365218114,37.843084129803174 32.66950796393212,38.482723418397654 31.703402867889963,38.836206757463515 30.363737134844996,39.980811996851116 29.642378663120326,41.5630416011918 29.15288541454356,43.81852265256748 29.642378663120326,45.03040459527256 29.745429873408284,46.49474485403334 30.054583504097536,46.84820349414076 29.9128880900098,47.43729880641331 29.384750637575053,47.858079319426906 29.333225032431073,48.76695995804039 28.083729108271655,49.27189053337497 27.491184649406932,49.928296957303246 27.452540445548948,51.2242678387629 27.954915095528122,51.661865088484774 27.697287069866434,53.395407013034855 26.53796095465077,54.72499908100872 26.679656368796714,55.28039373465435 26.087111909873784,55.78529563112534 25.00507420237409,57.56926452911284 25.314227833005134,59.067103775909345 24.863378788286354,59.9590661686816 23.98744350124616,60.98565580754075 22.944049997546244,61.69248267621151 22.699303373286966,62.180527257500216" stroke="#4DD2FF" stroke-linecap="round" stroke-linejoin="round" stroke-width="0.5"><title>2025-05-02 5.2km</title><desc>1746153801000</desc></polyline><polyline fill="none" points="49.33372781146318,50.251526925712824 51.250887574627995,56.755849013105035 73.10650887619704,55.75518568686675 79.43313609529287,53.00335851998534 77.89940828364342,40.745165522093885 53.168047337792814,38.743819544208236 48.950295858085155,45.74852021760307 50.100591716356575,56.755849013105035 77.32426035497338,54.50435570534319 78.28284023702145,39.49432456016075 52.401183432899415,39.744492825935595 50.29230769351125,44.747850448824465 51.44260355178267,56.755849013105035 78.66627218946815,54.25418959965464 77.7076923083514,40.745165522093885 51.059171598404646,40.49499740253668 49.9088757392019,56.25551742245443 78.4745562132448,53.5036910623312 77.89940828364342,41.49566965957638 53.35976331401616,40.24482924735639 49.9088757392019,41.74583763256669 50.29230769351125,56.505683236173354 80.00828402303159,51.752526527037844 79.04970414191484,41.74583763256669 55.660355030559,39.744492825935595 50.29230769351125,41.245501649798825 48.37514792941511,55.50501976360101 78.66627218946815,54.50435570534319 79.62485207151622,39.994661055272445 50.867455621249974,40.49499740253668 51.250887574627995,57.256180455791764 75.02366863843054,55.00468780763913 80.20000000018626,49.751193432020955 79.62485207151622,41.996005568420514 75.79053254425526,40.24482924735639 49.9088757392019,40.24482924735639 48.37514792941511,50.251526925712824 50.4840236697346,56.505683236173354 80.00828402303159,54.004023457178846 78.66627218946815,39.744492825935595 52.401183432899415,39.744492825935595 50.100591716356575,56.25551742245443 79.43313609529287,52.25285943422932 78.85798816662282,40.49499740253668 74.83195266313851,38.993987919879146 49.9088757392019,40.99533360416535 50.867455621249974,56.505683236173354 80.20000000018626,53.00335851998534 79.04970414191484,40.24482924735639 48.566863905638456,40.99533360416535 50.29230769351125,56.25551742245443 74.06508875731379,54.25418959965464 79.43313609529287,52.25285943422932 78.28284023702145,40.99533360416535 51.826035503298044,39.49432456016075 47.799999999813735,49.00069291878026" stroke="#4DD2FF" stroke-linecap="round" stroke-linejoin="round" stroke-width="0.5"><title>2025-05-01 4.2km</title><desc>1746070962000</desc></polyline><polyline fill="none" points="112.72857142984867,39.91432598698884 114.27142857387662,60.128528938861564 108.87142857350409,48.000021503074095 96.52857142873108,55.58034369000234 84.57142857275903,53.05357149336487 100.77142857387662,45.47324370755814 111.18571428768337,49.01073209871538 90.74285714328289,53.558926082681865 100.77142857387662,42.44110788893886 93.05714285746217,52.5482168297749 89.20000000111759,47.49466609349474 96.14285714179277,55.07498939940706 98.842857144773,46.989310609176755 114.27142857387662,50.52679743152112 94.2142857145518,52.04286209214479 102.31428571604192,51.53750728047453 100.38571428880095,43.451820126734674 97.68571428582072,50.52679743152112 108.10000000149012,50.52679743152112 102.31428571604192,43.451820126734674 104.6285714302212,48.000021503074095 109.2571428604424,41.935751657234505 113.50000000186265,45.97859941562638 100.00000000186265,48.50537683768198 106.55714285932481,44.967887924052775 115.81428571790457,52.04286209214479 85.342857144773,47.49466609349474 114.65714286081493,46.989310609176755 113.50000000186265,55.07498939940706 92.6714285723865,44.967887924052775 99.22857142984867,43.451820126734674 101.5428571458906,50.52679743152112 91.51428571529686,42.44110788893886 106.1714285723865,41.935751657234505 98.07142857275903,46.48395505012013 109.2571428604424,44.46253206720576 113.11428571678698,53.05357149336487 89.58571428619325,48.000021503074095 90.35714285820723,36.37682818877511 112.342857144773,44.46253206720576 102.31428571604192,43.451820126734674 108.10000000149012,38.39825594960712 93.82857143133879,46.48395505012013 111.9571428578347,45.97859941562638 83.80000000074506,51.53750728047453 103.85714286006987,45.47324370755814 100.00000000186265,37.89289912185632 98.4571428578347,47.49466609349474 86.5,45.97859941562638 115.04285714402795,47.49466609349474 99.61428571492434,43.95717613468878 100.00000000186265,50.02144239586778 113.88571428880095,45.47324370755814 96.9142857156694,49.51608728407882 115.42857143096626,42.44110788893886 91.90000000037253,41.43039535195567 114.65714286081493,49.51608728407882 84.18571428582072,47.49466609349474 100.77142857387662,45.97859941562638 97.30000000074506,56.59105204464868 96.9142857156694,51.032152394298464 85.342857144773,50.02144239586778 105.01428571529686,52.04286209214479 113.50000000186265,44.46253206720576 114.27142857387662,52.5482168297749 105.78571428731084,56.59105204464868 89.20000000111759,47.49466609349474 98.07142857275903,46.48395505012013 94.60000000149012,53.05357149336487 94.98571428656578,45.97859941562638 91.12857142835855,50.52679743152112 110.02857143059373,49.51608728407882 115.04285714402795,41.43039535195567 115.04285714402795,52.5482168297749 104.24285714328289,45.97859941562638 113.88571428880095,55.58034369000234 108.87142857350409,52.5482168297749 113.88571428880095,45.47324370755814 101.92857142910361,48.50537683768198 115.42857143096626,43.451820126734674 116.20000000111759,35.871471061138436" stroke="#4DD2FF" stroke-linecap="round" stroke-linejoin="round" stroke-width="0.5"><title>2025-04-27 2.3km</title><desc>1745759770000</desc></polyline><polyline fill="none" points="138.04466019570827,48.41215143608861 144.33592233248055,42.23009452782571 129.23689320497215,42.64223208138719 129.23689320497215,48.82428807672113 144.9650485459715,47.587877973215654 138.04466019570827,51.709242852404714 135.8427184484899,45.52719325060025 123.57475728355348,43.466507006203756 128.2932038847357,42.23009452782571 149.05436893180013,48.00001473445445 131.43883495219052,48.41215143608861 141.50485436990857,49.648561174282804 123.88932039029896,54.594194644130766 141.81941747665405,47.587877973215654 145.27961165085435,52.94565112818964 124.51844660378993,47.587877973215654 133.6407766994089,53.769923007814214 129.55145631171763,51.297106637619436 143.07766990363598,48.41215143608861 137.7300970889628,55.006330370670184 130.1805825252086,47.175741149811074 139.3029126226902,47.175741149811074 142.7631067968905,49.236424655653536 136.47184466011822,52.94565112818964 138.04466019570827,47.175741149811074 124.20388349704444,52.94565112818964 119.80000000074506,49.648561174282804 136.47184466011822,54.594194644130766 143.7067961189896,50.4728340273723 125.14757281728089,50.06069763121195 137.4155339822173,53.35778709803708 130.49514563195407,52.533515096409246 133.95533980615437,56.654872668441385 141.81941747665405,51.297106637619436 125.46213592402637,46.76360426680185 140.24660194292665,45.93933031684719 134.58446602150798,49.648561174282804 139.61747572943568,50.88497036276385 127.3495145663619,50.4728340273723 148.4252427201718,51.297106637619436 123.88932039029896,52.94565112818964 136.15728155337274,56.654872668441385 128.2932038847357,53.35778709803708 140.24660194292665,52.12137900479138 138.67378640919924,57.067008091369644 125.7766990289092,54.594194644130766 133.6407766994089,52.12137900479138 137.10097087547183,57.067008091369644 140.8757281564176,51.709242852404714 129.23689320497215,52.533515096409246 141.1902912631631,54.594194644130766 144.6504854373634,48.82428807672113 133.01165048591793,54.18205885589123 141.50485436990857,47.587877973215654 133.32621359452605,52.533515096409246 149.68349514715374,48.82428807672113 140.24660194292665,52.94565112818964 132.38252427242696,45.52719325060025 134.89902912639081,49.648561174282804 145.90873786620796,47.175741149811074 133.95533980615437,54.18205885589123 149.99805825203657,44.290781687013805 144.33592233248055,50.06069763121195 131.43883495219052,50.06069763121195 127.66407767124474,56.654872668441385 126.40582524426281,50.06069763121195 144.02135922387242,55.830601641209796 138.67378640919924,53.769923007814214 144.33592233248055,50.06069763121195 130.80970873869956,52.94565112818964 141.81941747665405,50.88497036276385 142.44854369200766,38.932991908397526 138.98834951594472,51.297106637619436 147.16699029318988,51.709242852404714 138.04466019570827,55.41846603597514 139.9320388380438,48.82428807672113 135.52815534174442,50.06069763121195 149.05436893180013,51.297106637619436 123.88932039029896,55.006330370670184 128.60776699148118,50.06069763121195 122.63106796331704,48.41215143608861 138.04466019570827,50.06069763121195 137.7300970889628,54.18205885589123 127.66407767124474,54.594194644130766 140.8757281564176,54.594194644130766 145.59417475946248,48.41215143608861 133.95533980615437,43.87864437629469 135.8427184484899,47.175741149811074 124.8330097105354,50.06069763121195 130.49514563195407,40.99368150252849 136.78640776872635,45.93933031684719 130.1805825252086,51.297106637619436 149.36893204040825,50.4728340273723 150.62718446739018,45.93933031684719 140.8757281564176,51.297106637619436 137.10097087547183,47.587877973215654 147.16699029318988,45.93933031684719 143.7067961189896,50.88497036276385 130.49514563195407,46.351467322558165 142.7631067968905,50.88497036276385 127.66407767124474,49.648561174282804 135.21359223499894,53.35778709803708 149.36893204040825,49.236424655653536 144.6504854373634,52.94565112818964 137.7300970889628,47.587877973215654 144.02135922387242,48.41215143608861 136.78640776872635,55.41846603597514 138.98834951594472,49.648561174282804 152.2000000011176,48.00001473445445" stroke="#4DD2FF" stroke-linecap="round" stroke-linejoin="round" stroke-width="0.5"><title>2025-04-26 3.2km</title><desc>1745672895000</desc></polyline><polyline fill="none" points="168.96517150395084,57.17778588780493 167.9108179421164,57.289933533698786 166.17255936691072,56.09368940681452 164.69076517166104,53.02828793770459 165.37467018479947,52.953521582865505 166.0870712401811,55.23388543663896 167.39788918220438,56.729194805637235 172.64116094994824,58.07496565899055 173.23957783647347,57.925435918790754 172.66965699219145,58.00020080000104 171.9287598945666,56.018923960538814 169.76306068594567,53.36473626033694 169.64907651720569,52.76660559876473 169.25013192615006,52.72922238537285 169.7915567283053,51.94417362328386 169.9625329816481,49.77593101623643 170.95989445922896,49.88808195304591 171.3588390502846,48.46749973643455 170.87440633261576,47.57028579332109 170.70343007927295,48.018893163709436 170.87440633261576,47.04690951931116 168.167282321956,45.47677418155945 167.6543535621604,44.35524295637151 163.8643799473066,41.06538926085341 162.5535620052833,38.56058551619935 160.0174142480828,38.07457593800791 157.59525065962225,39.34567593340762 155.80000000004657,37.925034341024 157.56675461761188,39.27090552273148 160.1883905013092,38.14934670329967 162.6105540896533,38.635356137296185 164.0923482850194,41.40185354044661 168.167282321956,45.215084008377744 173.38205804757308,48.31796430084796 175.17730870726518,48.84133793757064 176.54511873354204,48.13104488175304 177.8844327176921,49.476861607821775 183.15620052767918,46.59830042014073 184.69498680741526,46.44876387646946 187.259630606859,49.140408099468914 188.20000000006985,49.36471048828389 186.00580474932212,48.24319654981082 184.83746701839846,46.59830042014073 183.3841688655084,46.673068658681586 177.9414248020621,49.476861607821775 176.20316622697283,48.09366098133614 175.23430079163518,48.91610551121994 170.95989445922896,47.04690951931116 170.07651715050451,49.177791844747844 169.7345646439353,52.1684735189192 170.21899736160412,56.168454830898554 169.76306068594567,57.289933533698786 166.2010554090375,56.056306686470634 165.31767810031306,54.48622742819134 165.34617414243985,53.439502493303735" stroke="#4DD2FF" stroke-linecap="round" stroke-linejoin="round" stroke-width="0.5"><title>2025-04-24 3.3km</title><desc>1745457116000</desc></polyline><polyline fill="none" points="44.200000000186265,86.5837733137887 42.83373493980616,89.65245267673163 40.03614457859658,90.50486071425257 20.192771084373817,91.7834704091656 21.559036144753918,89.9934160427656 19.151807229034603,83.1741104341927 16.41927710874006,83.00362676125951 13.296385542256758,86.6690146275796 12.58072289149277,93.4030386218219 16.093975903932005,95.61928249301855 17.980722891632468,95.27832245151512 19.281927710864693,92.46539442124777 18.306024096440524,81.81023964018095 15.768674698891118,82.57741735852323 13.361445783171803,86.49853198748315 13.94698795187287,94.68164189421805 17.590361445909366,94.59640176425455 19.21686747018248,92.12443251616787 18.956626506289467,84.45273637532955 16.679518072400242,82.2364496095106 15.05301204835996,82.57741735852323 12.71084337378852,86.92473849357339 13.68674698821269,94.42592146643437 15.898795180954039,95.70452247181674 18.956626506289467,94.7668820116669 18.7614457833115,81.72499760828214 16.02891566301696,82.2364496095106 13.81686747027561,84.6232196202618 13.231325301341712,88.20335612271447 14.07710843370296,94.25544111826457 15.378313252935186,95.44880249758717 18.24096385575831,94.9373622086714 19.412048192927614,92.20967301120982 18.566265060333535,84.36749473417876 17.460240964079276,82.91838490596274 14.532530120806769,82.83314303791849 11.800000000046566,86.07232516637305 13.361445783171803,94.17020092520397 17.590361445909366,95.70452247181674 19.412048192927614,93.14731762744486 18.89156626514159,84.28225308039691 16.224096385529265,82.66265926422784 13.81686747027561,83.77080289274454 12.71084337378852,86.07232516637305 14.987951807444915,95.02260228828527 17.460240964079276,95.7897624381585 19.60722891567275,92.6358752985252 19.151807229034603,85.73135948320851 18.24096385575831,83.77080289274454 15.18313253019005,82.66265926422784 12.971084337448701,84.96418595855357 13.81686747027561,93.4030386218219 15.378313252935186,95.19308240985265 18.696385542396456,94.85212211636826 19.281927710864693,88.71480238088407 18.696385542396456,84.11176973494003 14.532530120806769,82.66265926422784 12.906024096533656,85.04942751169438 13.426506024319679,91.3572674926254 13.81686747027561,94.34068129857769 15.963855421869084,95.87500239169458 19.086746987886727,93.99972050177166 18.956626506289467,84.36749473417876 16.093975903932005,82.57741735852323 13.296385542256758,84.87894439283991 13.621686747297645,93.57351922185626 16.41927710874006,95.61928249301855 19.281927710864693,93.4030386218219 19.281927710864693,85.1346690520295" stroke="#4DD2FF" stroke-linecap="round" stroke-linejoin="round" stroke-width="0.5"><title>2025-04-20 4.3km</title><desc>1745155370000</desc></polyline><polyline fill="none" points="70.10307212918997,89.42317013000138 55.04354349989444,78.62313343060669 59.165098703466356,98.97697958396748 64.07926067709923,104.7923100705957 68.67637994326651,104.16924009774812 72.48089243937284,99.60005185799673 71.37124296091497,80.70007000956684 65.98151692561805,73.63847312226426 62.81108984537423,74.05386215634644 59.0065773492679,79.6616021032678 60.11622682772577,99.80774255446158 64.71334609296173,105.0 71.21272160671651,102.71540908701718 70.89567889925092,78.62313343060669 66.77412369474769,72.59999999997672 59.482141410931945,75.50772280909587 60.274748181924224,98.56159791431855 64.71334609296173,104.58462011045776 71.84680702351034,100.43081446096767 72.63941379263997,79.86929574608803 68.83490129746497,74.26155662781093 63.445175260305405,74.26155662781093 58.84805599600077,78.41543960443232 60.274748181924224,101.05388609063812 65.66447421815246,105.0 72.79793514776975,97.73083420668263 71.52976431604475,77.37697001057677 66.93264504987746,72.80769468611106 58.21397057920694,79.86929574608803 60.75031224358827,101.88464783423115 67.0911664031446,105.0 72.32237108517438,100.8461955783423 71.52976431604475,78.20774574659299 69.15194400586188,74.46925106772687 63.445175260305405,73.43077855883166 59.0065773492679,80.07698935782537 59.79918411932886,100.01543322089128 62.65256849117577,103.75385996256955 68.83490129746497,104.16924009774812 72.63941379263997,97.73083420668263 71.52976431604475,78.62313343060669 64.39630338549614,74.05386215634644 58.84805599600077,80.28468293894548 60.11622682772577,101.05388609063812 63.445175260305405,104.7923100705957 72.32237108517438,100.8461955783423 72.32237108517438,81.11545695655514 65.66447421815246,72.80769468611106 59.165098703466356,77.58466399041936 59.0065773492679,98.56159791431855 61.06735495198518,102.92309932329226 66.4570809872821,105.0 72.95645650103688,100.01543322089128 71.52976431604475,78.00005185895134 66.14003827888519,73.01538934092969 58.68953464180231,80.07698935782537 59.6406627651304,98.353907033219 63.445175260305405,104.58462011045776 72.00532837770879,101.2615765723167 71.84680702351034,79.45390843041241 67.0911664031446,73.63847312226426 60.11622682772577,76.75388788653072 59.0065773492679,97.93852517951746 63.445175260305405,104.37693011958618 72.16384973097593,101.05388609063812 72.63941379263997,80.90776349848602" stroke="#4DD2FF" stroke-linecap="round" stroke-linejoin="round" stroke-width="0.5"><title>2025-04-19 4.1km</title><desc>1745066356000</desc></polyline><polyline fill="none" points="100.32538598496467,74.94476126506925 95.11921022180468,74.09212124580517 92.02804336231202,78.56847572489642 93.32958730310202,97.96585130936 98.04768408928066,103.93422210006975 107.48387765977532,100.09741514048073 107.80926364567131,79.42111309850588 106.34502671193331,75.58424094854854 99.837307007052,72.59999999997672 93.16689431015402,77.92899736424442 94.46843825094402,101.16319587477483 98.53576306719333,104.78684448311105 104.71809678617865,104.14737774268724 106.99579868279397,98.60532078961842 107.64657065272331,79.20795380196068 106.34502671193331,75.15792119130492 100.162692992948,73.23948072316125 93.32958730310202,77.50267829932272 95.28190321475267,101.37635192682501 102.76578087452799,104.14737774268724 107.80926364567131,98.81847721978556 106.99579868279397,80.48690910707228 99.67461401410401,73.87896116252523 92.84150832518935,78.78163511515595 93.81766628101468,98.39216432755347 100.32538598496467,104.78684448311105 105.04348277114332,103.08159921271726 107.15849167481065,96.90006821288262 106.83310568984598,77.71583784709219 100.81346496287733,73.02632051345427 93.00420131813735,79.84743159613572 93.65497328806669,96.90006821288262 99.67461401410401,104.36053335445467 106.67041269689798,100.73688367533032 106.99579868279397,79.42111309850588 100.81346496287733,73.02632051345427 93.81766628101468,78.35531630262267 93.65497328806669,98.60532078961842 95.93267518375069,102.65528758033179 102.76578087452799,103.5079107193742 107.32118466775864,97.75269475323148 106.67041269689798,77.0763591080904 103.41655284538865,73.45264090097044 97.07152613345534,73.23948072316125 93.16689431015402,80.27374996850267 94.63113124389201,101.37635192682501 101.30154394079,104.57368893467356 106.18233371898532,100.73688367533032 106.18233371898532,82.19218108290806 101.62692992575467,74.73160130775068 97.88499109540135,73.87896116252523 92.67881533224136,78.14215684891678 93.65497328806669,97.53953816567082 101.464236933738,105.0 106.01964072696865,102.22897582186852 107.97195663768798,83.68429240852129 106.50771970488131,75.79740078013856 102.92847386747599,73.02632051345427 93.65497328806669,78.56847572489642 94.30574525892735,101.16319587477483 97.39691211748868,104.36053335445467 106.01964072696865,101.58950794802513 106.50771970488131,82.40533993788995 100.65077196992934,73.87896116252523 94.14305226597935,76.43688008585013 93.65497328806669,98.39216432755347 96.42075416259468,103.72106642497238 105.04348277114332,102.86844341247343 107.64657065272331,80.91322728991508" stroke="#4DD2FF" stroke-linecap="round" stroke-linejoin="round" stroke-width="0.5"><title>2025-04-17 3.9km</title><desc>1744894073000</desc></polyline><polyline fill="none" points="120.72527971207455,94.32649443178525 120.89766058995156,94.42612999296944 121.39198810735252,94.30988846199034 121.68858461780474,94.13054320660376 122.21586730303534,94.02758509875093 122.43894843908492,94.07408236713127 122.7101948204363,93.98108773419335 123.45802362883114,93.84823759125538 124.06642672717862,93.65892478109708 124.8522807292029,93.33675721113832 125.19197245912801,93.27365168245888 125.87389093184902,93.38325590840213 126.08683201628446,93.34339988806641 127.77261560129409,93.66224607221011 129.83611610985827,94.69182266405915 131.50922463032475,94.94754889448814 131.62076519835682,95.07375037781276 131.75005085674638,95.13020870679975 132.543509897514,95.26305127456544 132.7361708786484,95.12024548257796 134.50814490260382,95.36932476363836 135.63369063453865,95.27301443550277 137.7605664658622,95.54201811200983 137.56283545888436,95.48223979537761 137.9684375244542,94.80141997613646 138.3638995383808,93.6755312317473 138.77964165559388,93.03119195071667 139.0280729207443,92.52633589847756 140.18910883343779,89.82250590814692 140.8101869963284,88.6099949354375 141.18536890698306,87.563528764078 141.7836319536873,86.78280003968393 142.70384163994459,87.61336159152415 143.6950316876755,89.1614463920614 143.6975667005754,89.25113902429803 143.26661450591928,90.2144817650842 143.43646037086728,91.07148991137183 144.28822470855084,91.57970023832604 145.119708942977,91.49333850950643 145.59122134419158,91.55644903628126 145.6545966669364,91.66938322090209 145.62164149910677,92.31708302680454 145.669806744394,92.43333486265874 145.80923245442682,92.60937221245149 146.04498865504866,92.72894396573975 146.2452546749264,92.91826460768425 146.47087082387588,93.1972605422925 146.53931617244962,93.21386733397594 146.6077615210088,93.14411872646451 146.5849464048224,92.89501479016872 146.79535247635795,92.51969298009863 146.97026836710575,91.88528522988054 147.06659885769477,91.80888937146301 147.16546436116914,91.78895997439031 147.35559032940364,91.85206967116392 147.77133244660217,91.78563840648894 148.23777482201695,91.89524988792073 148.39241060950735,92.07793450253484 148.65858696502983,92.07461297733425 148.69914717158827,92.21079510790696 148.54704639699776,92.43665633484306 148.7549174556043,92.71565824678146 149.2974102182925,92.85847931405806 149.50274626399914,93.03783471793577 149.70301228386234,93.10758365521178 150.35704561459715,93.52275142309736 150.78292778343894,93.58253495013378 151.1074094358919,93.89141397382082 151.1327595649782,94.06079744311864 150.97812377748778,94.2467856648982 150.90714341601415,94.45269940138496 150.67392222832132,94.82798894102416 150.70941240905086,95.30622494008821 150.85390814491257,94.99736535411284 151.20627493936627,94.61543634272675 151.35584070104233,94.22021601313827 151.42428604961606,94.20028875370372 151.576386824192,94.36302752215852 151.54343165637692,93.94455402313906 152.08845943197957,93.32347185140497 152.20000000001164,92.76547965237296 146.76746733434265,84.95545655701426 146.32130506221438,84.72619751920865 146.16920428762387,84.25770438483414 145.93091307410214,83.99188833359949 145.78134731242608,83.84568816488536 145.20843439480814,83.50012034776591 144.73945700650802,83.02163305655449 144.47835067678534,82.12444191638133 143.83192238479387,82.05798188799054 143.7710820749635,82.13108790839942 143.73052186840505,82.50658326407574 143.65447148110252,83.74932844261821 143.5606760034425,84.05834264124314 143.05367342148384,84.91226300409835 142.01178311556578,86.44724446625878 141.23606916518474,87.43064068396052 140.61245598936512,87.99540959744081 139.82913700024073,89.35079708475132 138.4703700805985,92.6193365495219 138.38164462875284,92.98801391595407 138.3106642672792,93.75524202407723 137.97350755026855,94.77485097985118 137.53241530398373,95.50880795571356 136.83782176670502,95.3726458020792 135.72241608638433,95.28297759203087 134.49546983804612,95.35936164536906 132.751380956106,95.0969979422207 132.52829982005642,95.25973021993923 131.77793599876168,95.1268876325521 131.60302010798478,95.0538238749159 131.50922463032475,94.9342644866174 129.82344104530057,94.67521696411313 127.78275565292279,93.6423183181887 126.19330255850218,93.34007854985248 126.00571160315303,93.31018648380632 125.85614584149153,93.35668523602726 125.18436742038466,93.24375952808259 124.84467569048866,93.31018648380632 123.48844378374633,93.82166746845542 122.75582505280909,93.95119652048015 122.3730381034402,94.06743990610994 122.20572725139209,94.0242638616146 121.73928487599187,94.1039734174592 121.620139269231,94.1438280893999 121.43761833973986,94.29328247992999 120.85203035757877,94.42612999296944 120.65683436351537,94.20693117548035 120.67457945388742,93.54932189919236 120.2005320397584,93.41646920469611 119.87098036147654,93.0212277962055 119.80000000000291,92.8186223633038 120.01801111023815,92.80201527963254 120.04843126516789,92.76880107549005 120.00787105860945,92.68576535041939" stroke="yellow" stroke-linecap="round" stroke-linejoin="round" stroke-width="0.5"><title>2025-04-14 32.8km</title><desc>1744614550000</desc></polyline><polyline fill="none" points="176.81740147527307,83.11956133786589 174.4087007381022,74.91431016218849 167.50375862419605,73.65195963077713 164.61331773921847,79.33252820849884 164.61331773921847,98.89875763794407 169.27013916429132,104.57922550395597 174.56928078643978,104.36883820896037 177.94146181922406,100.16108578827698 177.13856157287955,78.91174612822942 170.0730394097045,73.86235146399122 164.77389778848737,79.33252820849884 164.45273768901825,98.89875763794407 168.78839901741594,104.15845088369679 177.13856157287955,102.26496355293784 178.10204186849296,78.91174612822942 173.6058004917577,73.86235146399122 164.77389778848737,78.91174612822942 164.77389778848737,97.42604004731402 169.10955911502242,104.78961276763584 174.89044088497758,103.94806352630258 178.58378201629966,99.31953381246421 177.78088176902384,78.07018159434665 169.75187931209803,73.86235146399122 163.97099754214287,80.17409199674148 165.89795813243836,101.42341282020789 170.71535960771143,104.78961276763584 178.58378201629966,99.74030986218713 178.42320196609944,79.96370109636337 173.9269605902955,73.65195963077713 170.5547795575112,73.02078394556884 164.77389778848737,78.07018159434665 165.09505788702518,98.47798133885954 169.43071921356022,105.0 178.42320196609944,101.213025059551 177.78088176902384,77.64939914038405 171.67883990239352,72.60000000009313 167.66433867253363,73.65195963077713 164.45273768901825,79.75331016466953 165.25563793629408,99.95069784100633 171.3576798029244,104.57922550395597 178.90494211390615,99.74030986218713 178.58378201629966,79.75331016466953 173.2846403932199,73.23117587168235 169.43071921356022,73.44156776648015 164.29215764068067,78.70135504123755 164.61331773921847,98.47798133885954 166.05853818170726,102.05457591614686 172.4817401478067,104.78961276763584 179.38668226171285,97.63642836781219 178.26262191683054,77.2286165630212 171.67883990239352,73.44156776648015 164.45273768901825,78.91174612822942 165.25563793629408,100.3714737049304 168.30665886960924,104.15845088369679 173.9269605902955,104.78961276763584 179.06552216317505,99.10914574062917 178.90494211390615,79.75331016466953 174.24812068790197,72.81039198872168 167.98549877200276,74.70391848427244 165.57679803390056,78.70135504123755 164.61331773921847,97.63642836781219 170.3941995082423,104.57922550395597 178.42320196609944,100.5818615903845 178.58378201629966,77.64939914038405 174.08754063863307,73.02078394556884 169.75187931209803,73.23117587168235 164.93447783775628,79.75331016466953 165.09505788702518,100.3714737049304 170.875939656049,104.78961276763584 179.54726231005043,102.6857387330383 180.02900245785713,79.54291920235846" stroke="#4DD2FF" stroke-linecap="round" stroke-linejoin="round" stroke-width="0.5"><title>2025-04-09 4.1km</title><desc>1744204461000</desc></polyline><polyline fill="none" points="15.484608653001487,145.80000000004657 19.40509269014001,141.05858562211506 18.651153452694416,137.89763336384203 23.024001031182706,139.87322940095328 23.024001031182706,135.92203440750018 23.174788878299296,138.29275280446745 22.1192739456892,135.13179400761146 21.968486098572612,138.09519309876487 20.008244080469012,136.90983425045852 21.66691040340811,142.24394079274498 18.349577756598592,135.52691426605452 21.36533470824361,138.4903124809498 20.159031927585602,144.61464798194356 21.36533470824361,142.04638167098165 19.103516994975507,140.26834825833794 21.968486098572612,135.32935415173415 20.008244080469012,142.24394079274498 21.063759013079107,139.67566992831416 22.722425336018205,143.62685383029748 21.36533470824361,139.28055089642294 18.198789909482002,144.21953040838707 19.555880536325276,140.46590764308348 21.8176982505247,142.24394079274498 19.103516994975507,143.62685383029748 21.36533470824361,140.0707888440229 21.66691040340811,143.2317359659355 19.254304842092097,137.7000735992333 20.008244080469012,144.81220672430936 23.325576726347208,133.35375140083488 20.008244080469012,145.00976543780416 20.611395469866693,137.7000735992333 21.968486098572612,144.61464798194356 19.706668384373188,137.30495398316998 21.968486098572612,134.93423383450136 19.40509269014001,131.77326709905174 22.420849640853703,138.4903124809498 19.555880536325276,137.89763336384203 18.651153452694416,143.62685383029748 19.8574562324211,137.89763336384203 21.516122555360198,139.67566992831416 19.254304842092097,140.86102632503025 22.420849640853703,137.89763336384203 23.92872811667621,139.67566992831416 22.571637488901615,138.29275280446745 21.516122555360198,142.44149988540448 23.62715242151171,141.05858562211506 20.159031927585602,143.42929491272662 22.571637488901615,144.21953040838707 19.706668384373188,140.0707888440229 22.420849640853703,140.26834825833794 21.21454686112702,144.02197157824412 21.516122555360198,135.32935415173415 27.24606076348573,137.50251380575355 19.8574562324211,141.4537041290896 21.063759013079107,143.2317359659355 20.762183317914605,139.28055089642294 21.66691040340811,144.81220672430936 19.40509269014001,140.26834825833794 24.682667355053127,141.65126333909575 22.27006179280579,144.61464798194356 22.571637488901615,137.30495398316998 20.159031927585602,139.4781104271533 22.722425336018205,139.4781104271533 21.21454686112702,142.63905894907657 19.40509269014001,133.74887218442746 22.27006179280579,134.93423383450136 20.460607622750103,141.84882251929957 18.952729146927595,139.28055089642294 23.62715242151171,138.88543174683582 21.66691040340811,136.11959443427622 27.69842430576682,137.7000735992333 30.563393409363925,119.72201286698692 40.515391347929835,119.12932543060742 40.063027805648744,113.40000000002328" stroke="#4DD2FF" stroke-linecap="round" stroke-linejoin="round" stroke-width="0.5"><title>2025-04-07 1.9km</title><desc>1744030807000</desc></polyline><polyline fill="none" points="64.53406593576074,128.90031123999506 47.80000000074506,123.76900484925136 62.04175824299455,122.8360391559545 54.9208791218698,123.30252203694545 63.82197802141309,114.90581962396391 57.05714285746217,115.37230367679149 59.90549450553954,133.5651279934682 62.753846153616905,122.36955620464869 58.837362637743354,130.76623876881786 59.19340659491718,115.8387876607012 58.837362637743354,139.62937947176397 61.68571428582072,130.76623876881786 65.9582417588681,134.9645716769155 61.32967033050954,136.36401473847218 57.05714285746217,118.17120654904284 60.97362637333572,139.62937947176397 55.27692307904363,124.23548759217374 61.32967033050954,126.56790027837269 61.32967033050954,118.6376901192125 65.9582417588681,134.49809051770717 62.753846153616905,131.23272047843784 60.97362637333572,138.6964184648823 57.05714285746217,125.16845287336037 59.19340659491718,129.83327514212579 65.60219780355692,125.63493541046046 59.90549450553954,144.2941803757567 66.67032966949046,132.63216519542038 59.54945055022836,138.22993785655126 57.05714285746217,130.76623876881786 60.617582416161895,136.36401473847218 69.16263736225665,127.96734706149437 62.397802198305726,131.23272047843784 65.9582417588681,137.76345718000084 62.397802198305726,134.0316092898138 62.753846153616905,115.37230367679149 58.12527472525835,132.16568369138986 63.10989011079073,125.63493541046046 58.12527472525835,116.77175542386249 60.617582416161895,128.90031123999506 64.17802197858691,124.70197026780806 57.41318681277335,139.16289900266565 55.63296703249216,124.70197026780806 59.90549450553954,136.36401473847218 60.617582416161895,126.56790027837269 54.2087912093848,130.76623876881786 51.71648351661861,118.17120654904284 62.753846153616905,140.56234020390548 59.54945055022836,133.09864662890323 67.3824175838381,120.03714041877538 62.753846153616905,138.6964184648823 58.12527472525835,130.29975698934868 61.68571428582072,118.6376901192125 56.70109890028834,136.83049562200904 52.42857142724097,128.90031123999506 62.753846153616905,124.70197026780806 64.53406593576074,131.23272047843784 59.19340659491718,126.10141787910834 58.12527472525835,130.76623876881786 67.73846153914928,124.70197026780806 59.54945055022836,134.49809051770717 62.753846153616905,143.82770059467293 57.41318681277335,123.76900484925136 63.10989011079073,128.4338291855529 66.67032966949046,122.8360391559545 55.63296703249216,121.43659009691328 59.19340659491718,133.5651279934682 62.397802198305726,116.77175542386249 57.76923076994717,128.90031123999506 55.63296703249216,120.03714041877538 52.78461538441479,141.4953006603755 57.41318681277335,120.50362371373922 64.89010988920927,127.50086486944929 57.76923076994717,126.10141787910834 57.41318681277335,115.8387876607012 57.05714285746217,143.36122074583545 58.12527472525835,129.83327514212579 65.60219780355692,127.96734706149437 58.837362637743354,116.30527157639153 66.67032966949046,132.16568369138986 60.617582416161895,117.23823920078576 56.345054944977164,124.23548759217374 63.82197802141309,120.97010693931952 57.05714285746217,130.29975698934868 61.32967033050954,142.89474082714878 51.71648351661861,118.17120654904284 56.70109890028834,134.49809051770717 64.53406593576074,136.83049562200904 62.397802198305726,124.70197026780806 80.20000000111759,121.43659009691328" stroke="#4DD2FF" stroke-linecap="round" stroke-linejoin="round" stroke-width="0.5"><title>2025-04-06 2.6km</title><desc>1743945103000</desc></polyline><polyline fill="none" points="86.81107574794441,134.72534632892712 88.31403564609354,134.17142100743695 88.62081476766616,134.16128810215923 89.18023551878287,134.26261695280482 89.35295989815495,134.20857495501332 91.14207511140557,134.54971292400296 93.22250159135729,135.5967382687213 94.93685550605005,135.86017580543376 95.03481858689338,135.97500660228798 95.18434118396544,136.04593121811922 95.99124761298299,136.17764777809316 96.20006365372683,136.02904442478575 97.96082113303419,136.2857223375031 99.13380012731068,136.18777978973958 100.15467854870076,136.29247698049403 101.02087842140463,136.44445592047487 101.10337364736188,136.39379638606624 101.49264799492084,135.76223143472816 101.88965626989375,134.61726439326048 102.46970082751068,133.66139253229449 103.64783577340131,130.89825900623146 104.39802673456143,129.42197375495016 104.79245703374909,128.33074510231927 105.38539147040865,127.55367745679723 106.32635264164128,128.41182889943957 107.3162953532883,129.9557446456365 107.31113940167415,130.0942527763691 106.88835136855778,131.0536519069501 106.99147040101525,131.6988589558423 107.08685550604423,131.942073640299 107.83446849140455,132.39471630210937 107.99172501591966,132.43862891921344 108.72387014640844,132.35755940637864 109.26782304263907,132.41836156795216 109.3271164863254,132.52307602267865 109.2832908975106,133.17837494243577 109.37352005092544,133.37428540493602 109.49468491406878,133.4958841578882 109.72412476131285,133.61072683066413 110.18816040738602,134.09711293112377 110.244875875258,134.08697999291144 110.30159134310088,133.99578334690705 110.283545512415,133.73570202491283 110.50782940803037,133.34726337200118 110.65992998091679,132.76628193765646 110.74242520687403,132.66832431089279 110.87647994908912,132.63792358275532 111.07498408657557,132.7054807014938 111.44105665183451,132.63116785989587 111.96438574157946,132.7561484095295 112.09844048376544,132.93517341179722 112.3768618714239,132.93855122855894 112.42326543603849,133.05001890147832 112.27632081478077,133.25606377500844 112.27374283896643,133.33713010140673 112.48255887969572,133.587082798138 113.07033736474114,133.76272359870381 113.22759388925624,133.90796401060652 113.47765754297143,134.0160492996747 114.09637173774536,134.411231787999 114.55267345640459,134.4787836664491 114.87749840866309,134.80302990456948 114.89554423934896,134.958396263979 114.7460216422769,135.13064903694612 114.65837046467641,135.3772046693739 114.43408656907559,135.7081929816286 114.4289306174469,136.1911571259643 114.47533418204694,136.20466646583918 114.59907702101918,135.9243460277139 114.99608529599209,135.48528301248552 115.12240611076413,135.12727154406093 115.20747931255028,135.0968740857079 115.34669000636495,135.24886097333547 115.31833227243624,134.84356036099416 115.77205601528112,134.3504349267405 115.89837683005317,134.15115519239225 116.06078930618241,133.18175272325607 116.027275620625,132.8946395718067 116.05821133036807,132.4622741396288 116.19484404838295,132.28662334678302 116.20000000001164,131.74615090272528 116.13297262889682,131.56373856847677 116.01438574156782,131.42861738234024 114.96772756206337,130.86785592381784 114.56040738383308,130.59760452498995 114.44697644813277,130.41856121351702 114.48564608528977,130.11114395440018 114.27683004457504,129.8341270582696 114.269096117132,129.4625137537114 113.7844366645586,129.10778632625988 113.71225334182964,129.00643462142216 113.81795035010146,128.719269016794 113.80248249522992,128.60778022144223 113.738033099944,128.5672387064642 113.500859325286,128.6584570140294 113.11158497772703,128.66859235906122 112.81511775939725,128.2462825077364 112.26858688733773,127.75977188527213 111.64213876512076,126.91173207975771 111.01569064290379,126.350859778624 110.85585614258889,125.90485511049337 110.00254614895675,125.45884173658305 109.87622533417016,125.06350442210532 109.74732654361287,124.87090171396449 109.3992998090398,124.53299830316246 108.88886059835204,124.2255018563028 108.35779758116405,123.68145954270767 108.13609166137758,122.81975110720305 107.97367918523378,122.77582000250004 107.47355187778885,122.75554407952586 107.41683640993142,122.7960959074735 107.36785486951703,123.21512724811691 107.28793761935958,124.45190074095808 107.18224061108776,124.79318437199618 106.70015913431416,125.61427162794462 105.60451941439533,127.22932836233849 104.78987905793474,128.2530395267877 104.35677912159008,128.60778022144223 104.16600891153212,128.83075726826974 103.41066199872876,130.15168273073868 101.99793125399447,133.55330556639092 101.9309038828942,133.8100112759803 101.88965626989375,134.50918194663973 101.54420751113503,135.58998342017185 101.05954805856163,136.42081481837522 100.28357733928715,136.2857223375031 99.16473583705374,136.184402453031 97.92215149586264,136.27221304551313 96.17170591981267,136.02904442478575 96.00929344368342,136.1675157619684 95.92679821771162,136.17764777809316 95.17660725653695,136.02904442478575 94.94201145767875,135.85679842033824 93.20445576065686,135.57647371708845 91.1162953532912,134.51931469771444 89.36842775302648,134.20181969631267 89.15961171229719,134.24910646533135 88.51511775939434,134.1342669994683 88.25989815405046,134.16466573775142 86.79302991725854,134.7152136691675 85.95003182686924,134.86382556225544 85.64325270528207,134.96515129912586 85.49373010821,134.92124353495092 84.9781349459081,135.00905897897792 84.67651177594962,135.20157627212575 84.09646721833269,135.34005262092978 83.83866963718901,135.14415900346285 83.8489815404173,135.11038407218985 83.80000000000291,135.1846888551372 83.83093570974597,135.12727154406093" stroke="yellow" stroke-linecap="round" stroke-linejoin="round" stroke-width="0.5"><title>2025-04-06 31.5km</title><desc>1743926920000</desc></polyline><polyline fill="none" points="120.60620608899626,134.3297973526387 120.82198477751808,134.52861770628442 121.36973067915824,134.39503548838366 121.57602459016198,134.24591945214524 122.08820257612388,134.1527213925383 122.27789812647097,134.18689406234625 123.24771662763669,133.98185721044138 124.64197892272205,133.4692563338249 124.80796252927394,133.44440264037257 125.43870023419731,133.53449713938608 125.63076697892393,133.4941099979078 127.26689110072039,133.80788498040056 129.14724824354926,134.75228835723829 130.7359484777553,134.9977020287988 130.8616217798699,135.1281739539627 130.9825526932109,135.18098378877403 131.7199941452127,135.29281594239728 131.933401639355,135.16234503869237 133.5292154566705,135.3922218019161 134.59862412179064,135.3021352616779 136.38650468383275,135.5164784655626 136.8180620609055,134.82995122128887 137.19033957846113,133.79235167558363 137.712002341912,132.92246829171017 138.82646370024304,130.32503088807243 139.48091334894707,129.04172866226145 139.82236533958348,128.06599367176568 140.647540983613,126.98455293000188 141.61973067915824,125.5394374984553 142.05128805620188,124.78731660398262 142.11768149882846,124.59462014243763 142.2599531615997,123.03122707659713 142.32160421546723,122.96595366365 142.76738875877345,122.98771149049753 142.89543325526756,123.03744358153745 143.12781030444603,123.8642223515617 143.54039812646806,124.29313987563546 144.05968969555397,124.60083618489625 144.3963992974168,124.9396077187539 144.48650468383858,125.06703413002833 144.61217798595317,125.46795609162837 145.40178571428987,125.86265473769345 145.5132318501128,126.2511304188829 146.10603044496384,126.77944582251803 146.66563231851615,127.54392577767067 147.1849238875875,128.0007358941075 147.46946721311542,128.39538698105753 147.54297423888056,128.42956900999525 147.87019906323985,128.38606459988296 148.01484192037606,128.3239152863971 148.1002049180388,128.35188250020656 148.1073185011628,128.46064353351176 148.02195550351462,128.73098994987959 148.5483606557391,129.15980816859155 148.5270199063234,129.43636020601298 148.74042740048026,129.75951752784204 148.6930035128753,130.01741836469046 148.75939695551642,130.14170679483868 149.12930327869253,130.4058172691657 150.1750000000029,130.9899557102035 150.29118852458487,131.26648367366215 150.26747658078966,131.626896683425 150.31252927400055,131.74496167075813 150.6705796252936,131.8412773535947 150.77016978923348,131.9065232106368 150.78202576113108,132.04322815933847 150.56624707260926,132.4502308123756 150.57336065574782,132.5807185447229 150.71800351288402,132.6273211100215 151.08316744731565,132.36013166740668 151.20884074941569,132.394307250599 151.23018149883137,133.4319757826288 151.28709016393987,133.6121645011208 151.4341042154556,133.7240049980628 152.0814402810356,133.84827151923128 152.20000000001164,133.95700412284714 152.190515222479,135.90166945734745 152.08618266979465,135.88613769901167 151.78978337235458,135.66869187800512 151.32028688525315,135.53201049688687 151.0997658079723,135.58171292007864 149.44704332553374,136.22162112697697 148.1594847775268,136.2340463363489 148.13814402811113,136.19677068620695 148.34206674473535,135.75256410388647 148.6977459016489,135.38290252254046 148.69537470726937,134.87033579724812 148.98940281031537,134.33601051714322 149.13878805621061,134.15893460936422 149.13878805621061,134.05952291986432 149.08899297424068,133.9911771107145 148.82816159250797,133.7333250126212 148.59815573770902,133.6587647804772 148.36577868853055,133.6587647804772 147.75163934426382,133.26110574389895 147.5690573770553,133.1896505886998 147.39596018735028,133.04363277732227 146.86718384076084,132.89761395194 146.70357142857392,132.6490689384882 146.84110070258612,132.4440170906255 146.81264637003187,132.3104216290576 146.54707259952556,132.30420786600553 146.41428571428696,132.14264938194356 146.03726580795774,132.05565583788302 145.87128220140585,132.04012123855864 145.57014051523583,132.11158030038678 145.3804449648742,132.04944199953388 145.22868852458487,132.1302217548291 145.0887880562077,132.67081674445217 144.85878220140876,133.0684869444849 144.88012295082444,133.30460006731846 144.8350702576281,133.37605483189327 144.76393442622793,133.37916155528546 144.3963992974168,132.97528366615006 144.10237119438534,132.79819629911253 144.02412177986116,132.68945770308528 143.9600995316141,132.54343641810738 143.99566744732147,131.93448565882863 143.9411299765925,131.8350634518847 143.50245901639573,131.77913825387986 142.67728337238077,131.85059820271636 141.944584309138,131.40008576861328 141.8615925058548,131.2323062571868 141.77385831382708,130.53010340312358 142.1437646370032,129.71290860530098 142.1508782201272,129.56997393181882 141.24508196720853,128.15300372681668 140.4246487119526,127.38543831554853 140.17330210772343,127.21762675899481 140.32742974239227,127.28910221540536 140.28711943794042,127.40408396135717 139.82947892272205,128.0100584461834 139.26513466042525,128.51657756009809 138.41150468384149,130.04538332553966 137.23539227167203,132.91004112549308 137.12394613583456,133.87623138528943 136.80620608899335,134.83305772988024 136.34619437939546,135.55064891935217 135.82453161591548,135.42949887809482 134.73378220140876,135.32077388787002 133.5410714285681,135.3953282274524 131.91443208431883,135.15923857872804 131.71050936768006,135.3021352616779 130.97781030445185,135.17166441579866 130.7359484777553,134.99148905978473 129.17807377049758,134.75539487731294 127.24317915692518,133.78303168718776 125.72561475410475,133.50032340934013 125.57385831381544,133.48478987732415 125.45055620608036,133.52517703669764 124.83167447306914,133.4226556345002 124.60403981264972,133.45372277886054 123.28802693208854,133.94768420742002 122.55295667448081,134.0750560273318 122.22573185012152,134.18378745829796 122.05974824356963,134.14029495338036 121.61633489462838,134.2210666766423 121.31519320842926,134.40435520554456 120.77218969554815,134.51619148924328 120.60857728337578,134.3297973526387 120.6346604215505,133.73021834156498 120.14856557377789,133.5531373323647 119.84742388757877,133.15236954176544 119.80000000000291,133.00945824950577 119.99680913348857,132.99703113471332 120.04186182669946,132.94421581489405 119.9944379391236,132.9069343327974" stroke="yellow" stroke-linecap="round" stroke-linejoin="round" stroke-width="0.5"><title>2025-04-05 35.9km</title><desc>1743843004000</desc></polyline><polyline fill="none" points="178.1823465079069,127.28574710921384 175.97436561249197,132.4928895831108 171.11680764332414,120.92145246337168 169.7920191064477,138.27859532018192 175.0911732558161,126.12860339856707 177.29915415123105,136.5428844972048 170.23361528478563,137.70002513192594 174.2079808972776,120.92145246337168 167.14244203083217,120.92145246337168 180.8319235816598,142.3285842500627 169.7920191064477,127.86431883787736 176.85755796916783,133.07146054133773 169.7920191064477,137.12145485612564 175.5327694322914,122.65717021119781 176.4159617908299,130.17860489478335 166.7008458506316,131.3357474093791 173.76638471893966,134.80717290309258 172.0,145.22143092285842 175.5327694322914,131.3357474093791 175.97436561249197,139.435735440813 168.02563438750803,127.28574710921384 176.4159617908299,137.70002513192594 170.23361528478563,133.07146054133773 170.23361528478563,138.27859532018192 168.4672305677086,129.60003350884654 179.06553886644542,129.60003350884654 170.23361528478563,113.39999999990687 175.97436561249197,140.0143053738866 174.2079808972776,123.23574262205511 175.0911732558161,137.70002513192594 162.72648023813963,130.17860489478335 173.32478853873909,135.96431405073963 171.11680764332414,127.86431883787736 176.4159617908299,135.96431405073963 177.29915415123105,124.97145934426226 173.32478853873909,138.85716542275622 168.4672305677086,133.65003141458146 172.0,144.06429250887595 165.81765349395573,140.592875221977 171.55840382166207,128.44289047969505 174.2079808972776,140.0143053738866 171.55840382166207,129.02146203652956 180.8319235816598,133.65003141458146 175.5327694322914,124.97145934426226 170.67521146312356,136.5428844972048 167.5840382091701,127.28574710921384 173.76638471893966,133.65003141458146 180.8319235816598,120.92145246337168 172.44159617833793,128.44289047969505 173.32478853873909,145.80000000004657 172.44159617833793,126.7071752967313 181.27351976186037,137.12145485612564 175.97436561249197,125.55003141495399 174.2079808972776,139.435735440813 166.7008458506316,127.86431883787736 174.64957707561553,119.18573394557461 175.0911732558161,141.17144498461857 169.7920191064477,133.07146054133773 173.32478853873909,124.392887189053 172.0,138.27859532018192 179.06553886644542,131.3357474093791 172.0,141.17144498461857 169.7920191064477,127.28574710921384 180.8319235816598,139.435735440813 170.23361528478563,132.4928895831108 172.0,144.64286175812595 175.0911732558161,131.91431853850372 168.02563438750803,131.91431853850372 169.35042292624712,138.85716542275622 175.5327694322914,130.17860489478335 167.5840382091701,128.44289047969505 172.8831923585385,141.17144498461857 171.11680764332414,130.17860489478335 175.5327694322914,134.80717290309258 169.35042292624712,142.3285842500627 168.4672305677086,124.97145934426226 175.0911732558161,135.96431405073963" stroke="#4DD2FF" stroke-linecap="round" stroke-linejoin="round" stroke-width="0.5"><title>2025-04-04 1.7km</title><desc>1743771861000</desc></polyline><polyline fill="none" points="33.99498628731817,154.19999999995343 26.801002741791308,156.1636588482652 22.904261655174196,161.66188818775117 23.953384255059063,182.86913114751223 28.449623971246183,186.0109161407454 31.74686642922461,185.02910912793595 34.29473560117185,180.31642537284642 33.695236971601844,160.48369810101576 26.801002741791308,157.34185276471544 21.405515083111823,164.60735883400775 23.2040109699592,182.47640750184655 24.852632198482752,185.22547058889177 31.147367800585926,185.42183202004526 34.744359572418034,180.7091496573994 32.4962397152558,161.46552324586082 27.550376027822495,157.14548718417063 21.855139055289328,162.44734766497277 22.904261655174196,183.06549292744603 31.44711711537093,185.22547058889177 35.34385820105672,179.92370097211096 32.79598902910948,159.89460266614333 27.550376027822495,157.14548718417063 22.904261655174196,159.50187223160174 22.15488837007433,180.90551175596192 26.95087739918381,186.0109161407454 34.894234229810536,182.0836837394163 34.29473560117185,162.44734766497277 27.700250684283674,157.34185276471544 20.65614179801196,163.0364419685211 21.405515083111823,178.74552707385737 25.901754799298942,185.81455479632132 32.19649040047079,184.83274763869122 35.34385820105672,179.7273387281457 34.14486094377935,162.8400772297755 26.95087739918381,157.14548718417063 20.95589111186564,163.23280667851213 22.904261655174196,183.8509397560265 31.59699177183211,184.83274763869122 35.34385820105672,178.74552707385737 32.346365057863295,160.87642824626528 25.152381512336433,158.1273147946922 20.95589111186564,163.42917135951575 22.604512340389192,182.86913114751223 29.34887191466987,186.0109161407454 34.29473560117185,182.86913114751223 35.34385820105672,178.74552707385737 33.09573834296316,160.09096784051508 25.152381512336433,157.53821831557434 21.405515083111823,164.01826522743795 22.30476302653551,181.49459787795786 26.65112808533013,186.0109161407454 34.894234229810536,181.49459787795786 34.29473560117185,161.66188818775117 26.801002741791308,157.34185276471544 20.95589111186564,162.25098283938132 22.30476302653551,183.06549292744603 25.152381512336433,185.81455479632132 31.896741086617112,185.22547058889177 35.04410888720304,179.53097645542584 34.29473560117185,161.85825310077053 29.798495885916054,157.14548718417063 23.2040109699592,158.52004563598894 20.95589111186564,161.85825310077053 23.054136312566698,184.4400245724246 29.798495885916054,186.59999999997672 35.19398354459554,181.6909598610364 34.744359572418034,166.96373065188527" stroke="#4DD2FF" stroke-linecap="round" stroke-linejoin="round" stroke-width="0.5"><title>2025-04-02 4.0km</title><desc>1743590878000</desc></polyline><polyline fill="none" points="59.195890348404646,161.42299503285903 56.5181898875162,161.42299503285903 56.20316630322486,176.90071575832553 60.455984682776034,185.15543001971673 70.22171577624977,181.02807898679748 69.59166860952973,168.43958301329985 71.95434548705816,167.40773405029904 68.016550690867,156.67645964724943 56.990725263021886,158.32743030635174 56.990725263021886,177.72618937969673 60.455984682776034,184.32996078871656 68.96162144187838,181.64718241908122 69.43415681738406,162.45484841626603 65.33885022997856,155.23185871983878 56.5181898875162,159.77202803234104 56.20316630322486,177.31345262995455 60.14096109941602,184.12359340523835 65.33885022997856,185.15543001971673 70.06420398596674,180.82171111542266 69.90669219288975,161.010253465618 62.50363797694445,155.02548703702632 57.3057488463819,158.7401726662647 56.83321347087622,178.3452942756703 62.81866156030446,184.74269546556752 66.44143277220428,184.32996078871656 70.69425115175545,178.55166251340415 69.90669219288975,159.97839901421685 64.23626768682152,155.02548703702632 56.990725263021886,157.70831653825007 57.3057488463819,180.2026073167799 64.07875589560717,185.36179725104012 69.74918040074408,179.5835032442119 70.5367393605411,159.1529149042908 63.44870872795582,154.6127435794333 56.990725263021886,161.010253465618 57.77828422188759,179.78987129870802 64.23626768682152,185.36179725104012 69.43415681738406,182.67902086372487 71.32429832033813,177.31345262995455 69.43415681738406,158.53380150196608 63.921244103461504,154.6127435794333 57.46326063759625,158.94654380099382 57.62077242974192,179.37713515933137 62.50363797694445,184.94906275789253 69.59166860952973,181.85355016915128 70.69425115175545,159.97839901421685 63.76373231224716,154.81911532382946 56.045654512010515,159.77202803234104 57.148237055167556,181.44081463909242 63.44870872795582,186.1872658728389 70.22171577624977,181.44081463909242 69.74918040074408,158.7401726662647 63.44870872795582,155.02548703702632 56.5181898875162,159.56565702043008 58.09330780617893,182.67902086372487 63.1336851445958,185.98089876305312 68.17406248301268,185.56816445232835 70.37922756839544,181.64718241908122 70.06420398596674,159.97839901421685 63.29119693674147,154.19999999995343 56.83321347087622,159.77202803234104 59.195890348404646,182.47265323565807 61.401055433787405,185.36179725104012 69.43415681738406,186.59999999997672 71.32429832033813,161.42299503285903" stroke="#4DD2FF" stroke-linecap="round" stroke-linejoin="round" stroke-width="0.5"><title>2025-03-30 4.0km</title><desc>1743343343000</desc></polyline><polyline fill="none" points="107.25089058093727,158.60004550556187 105.57173697277904,160.40005999919958 101.75547877140343,157.00003061268944 103.58728270791471,158.60004550556187 103.73993303626776,156.20002245751675 98.85512253828347,154.19999999995343 93.6650113845244,156.6000265943585 91.6805571205914,176.00008535129018 94.12296236958355,183.60003257729113 101.14487745892256,186.59999999997672 107.25089058093727,182.4000437463401 108.472093205899,177.2000798546942 108.62474353425205,172.20009573816787 104.50318467617035,157.20003257784992 97.02331860270351,155.40001382911578 91.37525646481663,163.00007670931518 94.88621400948614,183.40003451216035 101.9081291006878,185.80000933702104 107.55619123764336,180.40005999838468 106.33498861268163,158.4000437472714 98.70247221086174,155.20001159841195 92.74910941720009,161.20006567286327 94.73356368113309,182.8000401413301 102.51873041223735,185.20001602941193 107.09824025444686,180.40005999838468 106.33498861268163,157.60003641957883 97.32861925847828,155.80001820251346 93.05441007297486,161.20006567286327 93.81766171287745,179.80006429727655 98.24452122673392,185.00001820165198 103.43463238049299,185.00001820165198 107.86149189434946,180.40005999838468 106.48763894103467,158.80004723451566 97.02331860270351,156.20002245751675 91.83320744894445,162.0000708734151 94.12296236958355,180.8000569845317 101.45017811562866,185.20001602941193 107.70884156506509,179.600065671606 107.09824025444686,160.8000628951704 100.53427614737302,156.40002454060595 96.87066827435046,156.6000265943585 93.35971072874963,161.4000670176465 95.03886433690786,182.60004195873626 103.43463238049299,185.60001159796957 107.25089058093727,180.20006146118976 105.57173697277904,158.2000419597607 100.22897549066693,155.00000933755655 93.6650113845244,159.80005543422885 94.58091335371137,180.40005999838468 99.00777286663651,185.60001159796957 103.58728270791471,185.00001820165198 107.09824025444686,180.60005850577727 106.79293959680945,160.20005850726739 100.22897549066693,155.60001603025012 93.6650113845244,160.60006146214437 93.6650113845244,179.40006701566745 97.48126958590001,184.6000224566087 102.0607794271782,185.60001159796957 106.9455899251625,181.40005224151537 106.1823382852599,161.00006429874338 99.77102450747043,155.80001820251346 93.05441007297486,161.20006567286327 93.81766171287745,181.80004893208388 99.77102450747043,186.00000704696868 106.9455899251625,180.40005999838468 105.87703762948513,158.4000437472714 99.46572385076433,155.20001159841195 92.443808760494,162.80007560143713 93.81766171287745,181.40005224151537 101.75547877140343,185.80000933702104 107.09824025444686,178.4000732951099 106.02968795690686,159.2000506032491 99.16042319498956,155.80001820251346 93.20706040039659,162.20007209933829 94.27561269700527,181.80004893208388 98.85512253828347,186.00000704696868 106.33498861268163,182.60004195873626" stroke="#4DD2FF" stroke-linecap="round" stroke-linejoin="round" stroke-width="0.5"><title>2025-03-30 4.5km</title><desc>1743327729000</desc></polyline><polyline fill="none" points="141.26294416189194,155.47774575924268 141.34517766488716,156.555186900252 135.91776649747044,159.46427002869314 133.2862944160588,159.57201362517662 135.4243654818274,166.46757070202148 129.33908629463986,166.8985408540466 129.6680203047581,170.3462929035304 124.98071066010743,168.29919209016953 121.19796954328194,169.48435641929973 119.79999999981374,173.5785456452286 120.62233502510935,183.70617813168792 123.99390862928703,185.8609754081117 127.85888324910775,183.70617813168792 129.58578680176288,167.22176830138778 133.53299492411315,166.79079833993455 136.90456852782518,167.5449956051889 144.30558375641704,175.84111404040596 145.8680203044787,176.05659637827193 147.5126903555356,172.60887132689822 152.20000000018626,176.59530194534454 150.88426395924762,182.30555648799054 150.63756345119327,175.51789041352458 146.36142132012174,173.14757944090525 145.04568527871743,175.84111404040596 143.15431472100317,174.44047729019076 133.61522842617705,159.78750077087898 141.0162436547689,157.309394751559 139.78274111635983,154.93902459193487" stroke="#4DD2FF" stroke-linecap="round" stroke-linejoin="round" stroke-width="0.5"><title>2025-03-29 1.5km</title><desc>1743247652000</desc></polyline><polyline fill="none" points="163.87452751677483,177.9394266595482 164.42354592774063,178.5148919832718 164.11609561752994,178.02574656659272 163.78668457095046,178.37102581180807 163.984331198968,179.17667500332755 165.21413243957795,181.04691920576442 166.68550178117584,182.34169313199527 167.21255945588928,181.16201056998398 166.90510914567858,180.58655306848232 167.36628461082,181.04691920576442 167.08079503721092,182.74450993118808 168.39843922364525,183.72277583178948 173.07607608556282,184.4708582048479 176.43606876104604,186.60000000000582 180.2791976382723,185.7943815176841 181.04782341374084,184.58594754559454 180.5646872119978,167.20668675427441 179.94978659169283,165.9693623554922 178.5662601958029,164.93345681219944 176.76547980774194,163.86877037226805 174.74509205517825,164.4155019739701 173.4494086051127,162.66020033147652 171.62666748045012,156.76111984916497 172.39529325591866,156.44457877104287 172.90039019403048,157.85462143248878 174.3058773262892,158.0848315095791 174.810974264401,157.16398956799821 174.21803438046481,154.3726608241268 172.98823313973844,154.20000000001164 172.10980368207674,154.77553548493597 170.77019875927363,154.86186566094693 169.32079015416093,155.75394190505904 165.54354348615743,156.2143667545024 163.23766615986824,157.1927659446228 163.83060604380444,160.2430377459532 162.99609805911314,162.45877126209962 162.95217658625916,168.44400329080236 163.21570542349946,174.4290513592132 163.89648825326003,177.24886602644983" stroke="#4DD2FF" stroke-linecap="round" stroke-linejoin="round" stroke-width="0.5"><title>2025-03-25 3.9km</title><desc>1742910133000</desc></polyline><polyline fill="none" points="33.151932587847114,195.0 22.332874154672027,204.28134393214714 21.688882581423968,208.16261084761936 25.03763876343146,225.88127053133212 29.416781462263316,226.5562616555253 33.667125845793635,223.35005026205909 32.2503443849273,206.47510511393193 29.803176406305283,202.9313349564327 24.264848874881864,203.268837349955 22.332874154672027,210.35636457509827 24.007252246141434,225.20627900783438 29.54557977663353,226.7250093742041 33.28073090175167,223.51879845489748 32.765537643805146,205.46260047657415 26.712016853503883,201.75007579405792 22.84806741401553,204.78759688627906 22.461672469507903,223.1813020450063 28.128798315301538,226.5562616555253 33.02313427301124,223.85629476455506 33.151932587847114,208.3313612845959 31.863949440419674,203.94384183792863 28.257596629671752,201.91882717807312 25.166437077801675,201.91882717807312 21.817680896259844,206.30635440314654 22.59047078434378,223.1813020450063 27.09841179754585,226.89375706785358 33.151932587847114,223.85629476455506 32.507941014133394,205.63135131180752 27.484806741587818,201.75007579405792 21.688882581423968,207.48760885349475 22.075277525465935,223.1813020450063 28.515193258877844,226.5562616555253 33.409529217053205,222.00006382528227 33.151932587847114,205.9688529073028 28.64399157417938,201.41257295175456 22.59047078434378,204.78759688627906 21.817680896259844,222.00006382528227 25.424033707007766,226.7250093742041 28.257596629671752,226.89375706785358 33.409529217053205,221.66256696672644 32.507941014133394,204.28134393214714 26.712016853503883,201.5813243855955 22.075277525465935,207.82510990044102 22.719269098713994,223.85629476455506 25.681630336213857,226.5562616555253 29.54557977663353,226.21876614319626 33.79592416109517,221.32507000828627 32.2503443849273,204.28134393214714 25.939226965419948,202.25632987020072 22.075277525465935,208.16261084761936 23.620857301633805,225.03753106482327 28.515193258877844,227.06250473693945 33.409529217053205,224.02504288230557 33.409529217053205,208.50011169584468 32.8943359577097,204.9563478215132 28.515193258877844,201.41257295175456 22.59047078434378,203.77509075345006 22.332874154672027,223.51879845489748 27.613605056423694,226.5562616555253 31.219957867637277,225.88127053133212 33.92472247546539,222.33756058372092 32.8943359577097,205.46260047657415 28.90158820291981,201.5813243855955 23.620857301633805,202.9313349564327 21.817680896259844,205.9688529073028 22.20407583983615,222.00006382528227 28.128798315301538,227.40000000002328 33.79592416109517,225.20627900783438 34.31111741904169,207.65635938965715" stroke="#4DD2FF" stroke-linecap="round" stroke-linejoin="round" stroke-width="0.5"><title>2025-03-24 4.1km</title><desc>1742817301000</desc></polyline><polyline fill="none" points="64.08029009588063,197.31431016151328 61.35042683966458,195.42078394570854 57.33592205308378,199.20783386053517 57.81766262743622,220.03642836783547 63.598549521528184,226.97922550304793 71.14581852219999,221.71953381225467 70.8246581396088,200.47018159367144 66.48899296857417,195.6311758714728 57.1753418603912,198.57665957382414 57.81766262743622,220.66759314225055 62.635068371891975,226.55845088278875 66.16783258598298,226.76883820875082 71.14581852219999,222.14030986186117 70.34291756525636,200.25979038281366 63.75912971235812,195.21039198804647 57.01476167049259,201.31174612790346 57.33592205308378,219.40526331297588 63.11680894717574,227.40000000002328 70.8246581396088,223.19224944349844 71.30639871396124,200.8909639227204 62.47448818106204,195.0 58.13882301095873,198.78705103346147 57.33592205308378,219.82604004710447 64.72261086199433,227.40000000002328 70.8246581396088,222.98186158947647 70.66407794784755,199.20783386053517 62.47448818106204,195.0 57.657082435674965,201.31174612790346 57.978242819197476,223.40263726678677 63.75912971235812,227.40000000002328 71.62755909655243,222.98186158947647 70.18233737256378,199.20783386053517 65.04377124458551,195.0 57.81766262743622,200.47018159367144 58.13882301095873,221.71953381225467 63.43796932976693,226.97922550304793 71.14581852219999,223.40263726678677 70.34291756525636,201.94291920238174 62.47448818106204,195.0 56.211860712617636,201.31174612790346 57.49650224484503,220.4572049153503 61.511007032357156,226.55845088278875 70.50349775515497,223.40263726678677 70.98523833043873,200.25979038281366 65.36493162810802,195.21039198804647 56.69360128697008,200.47018159367144 57.1753418603912,220.24681665701792 63.598549521528184,226.55845088278875 67.29189392644912,226.34806352620944 71.78813928831369,220.8779813380679 71.14581852219999,201.101355041028 68.5765354577452,196.68313503591344 62.79564856365323,195.21039198804647 57.1753418603912,202.36370109580457 57.978242819197476,221.08836950338446 62.47448818106204,226.76883820875082 70.8246581396088,222.98186158947647 70.98523833043873,200.47018159367144 68.09479488432407,196.262351463316 61.511007032357156,195.21039198804647 57.49650224484503,201.101355041028 57.978242819197476,222.14030986186117 62.79564856365323,227.40000000002328 71.30639871396124,222.98186158947647 71.78813928831369,201.101355041028 66.16783258598298,227.40000000002328" stroke="#4DD2FF" stroke-linecap="round" stroke-linejoin="round" stroke-width="0.5"><title>2025-03-23 4.2km</title><desc>1742719228000</desc></polyline><polyline fill="none" points="95.70252539310604,195.00000000011642 92.83754232060164,198.75369874411263 94.34542814828455,223.64638166991062 101.73406870290637,226.21464798168745 107.9164005946368,218.70739413017873 106.55930335074663,202.90251141262706 97.05962263699621,197.37075832753908 92.68675373867154,204.68057004373986 93.89306239970028,223.05370412860066 99.17066279612482,226.41220672428608 106.55930335074663,221.8683482571505 105.80536043643951,201.71713767794427 97.81356555130333,196.77806913945824 92.68675373867154,201.91470004001167 93.44069665204734,222.26346699811984 99.77381712663919,227.20244140271097 103.84510886110365,226.01708920963574 106.71009193267673,221.2756699275924 106.25772618409246,203.2976357571315 97.96435413416475,196.97563223156612 94.79779389686882,197.76588430686388 92.3851765729487,205.07569386367686 94.04385098349303,223.44882251869421 103.24195452965796,226.21464798168745 108.82113209087402,223.05370412860066 106.86088051553816,202.50738695112523 97.05962263699621,197.56832133210264 92.23438799008727,205.27325572934933 92.83754232060164,221.47322939976584 97.36119980271906,226.60976543766446 105.50378327071667,226.8073241218226 106.40851476788521,224.63417698908597 107.162457681261,204.48300809040666 102.94037736393511,198.35857305675745 98.4167198818177,197.37075832753908 93.13911948632449,201.51957528700586 92.83754232060164,223.2512633379083 101.43249153718352,226.8073241218226 106.86088051553816,220.68299133551773 105.80536043643951,201.51957528700586 100.37697145808488,197.17319529433735 95.09937106259167,197.17319529433735 91.1788679100573,208.63180298241787 94.64700531307608,224.63417698908597 100.98012578859925,226.01708920963574 107.9164005946368,220.28787212783936 105.35299468878657,200.3342003263533 96.60725688934326,197.56832133210264 94.04385098349303,198.95126154425088 92.23438799008727,212.97814573033247 95.25015964452177,226.01708920963574 102.63880019914359,226.60976543766446 106.86088051553816,220.09031248022802 104.59905177447945,200.53176289249677 99.47223996091634,195.79025324317627 92.98833090346307,199.7415124522522 93.13911948632449,222.85614488995634 99.01987421326339,227.40000000002328 107.31324626412243,222.4610263244249 105.80536043643951,200.92688793758862 98.86908563040197,195.79025324317627 92.68675373867154,200.7293254295364 92.83754232060164,221.2756699275924 99.77381712663919,227.00488277710974 106.40851476788521,223.44882251869421 105.80536043643951,203.2976357571315" stroke="#4DD2FF" stroke-linecap="round" stroke-linejoin="round" stroke-width="0.5"><title>2025-03-21 4.2km</title><desc>1742565279000</desc></polyline><polyline fill="none" points="137.5971142030321,196.6200272857095 133.26944991014898,195.0 132.0329743977636,196.48502512130653 131.31169701507315,211.335143595119 136.97887644683942,214.0351392068551 141.3065407401882,209.5801421692595 138.83358971588314,196.2150207333616 133.68160841381177,195.94501626555575 130.590419633314,199.4550681238179 133.37248953571543,213.09014165017288 137.08191607287154,214.57513737183763 140.58526335842907,212.01014324621065 140.4822237319313,198.37505360337673 136.0515198125504,195.675011717889 132.54817252745852,196.0800185095286 130.69345925888047,199.59006984892767 132.13601402333006,212.28014296659967 136.36063869064674,215.11513521743473 139.96702560177073,212.8201421687845 140.58526335842907,198.91506102314452 137.18495569890365,196.2150207333616 131.31169701507315,197.16003574227216 131.10561776300892,209.7151423987816 133.26944991014898,214.0351392068551 135.74240093445405,214.7101368632284 139.96702560177073,212.4151427973993 140.37918410543352,198.24005169881275 139.2457482200116,196.35002293722937 134.71200467459857,195.8100140018505 131.72385551966727,197.835045864922 130.79649888491258,206.47513138939394 134.0937669184059,214.440137860307 139.6579067236744,213.36014105187496 140.79134261002764,199.18506461341167 140.37918410543352,197.16003574227216 134.6089650481008,195.94501626555575 131.6208158931695,198.51005548832472 132.96033103158697,212.14514311647508 134.71200467459857,214.440137860307 139.96702560177073,213.9001396157546 140.4822237319313,202.69510402483866 135.33024242985994,210.3901432462735 133.88768766541034,215.38513402052922 134.81504430016503,227.40000000002328 139.7609463497065,225.91502512054285 140.89438223652542,216.1951299518696 139.2457482200116,197.43003985099494 134.19680654397234,195.270004747028 130.590419633314,198.24005169881275 131.31169701507315,209.9851427973481 136.0515198125504,214.84513633459574 140.37918410543352,212.01014324621065 140.89438223652542,199.0500628281734 135.63936130842194,195.13500238372944 131.72385551966727,197.43003985099494 131.41473664157093,211.47014356497675 135.4332820563577,214.57513737183763 140.27614447986707,211.60514351533493 140.68830298352987,198.37505360337673 135.94848018651828,195.13500238372944 132.44513290189207,197.29503780655796 132.23905364936218,213.36014105187496 134.81504430016503,215.5201333926525 138.0092727066949,215.11513521743473 139.6579067236744,212.68514239799697 141.40958036622033,199.99507490487304" stroke="#4DD2FF" stroke-linecap="round" stroke-linejoin="round" stroke-width="0.5"><title>2025-03-10 4.0km</title><desc>1741591515000</desc></polyline><polyline fill="none" points="180.4808949455619,201.23082722653635 171.9207392996177,195.83077855943702 165.2628404647112,200.6077457467327 165.42136186547577,222.8308144613402 170.33552529104054,227.19231007085182 178.8956809360534,222.00005185836926 178.42011673375964,202.2692957459949 173.98151751048863,196.66155662725214 164.9457976622507,200.40005185920745 164.7872762614861,222.62312385614496 168.90883268322796,226.36155004578177 179.0542023377493,222.62312385614496 179.52976654004306,202.47698935796507 173.0303891049698,196.2461676551029 165.42136186547577,200.40005185920745 165.89692606776953,222.8308144613402 171.12813229579479,226.98462011036463 176.6763813244179,225.73847970471252 179.37124513834715,221.58467037265655 179.37124513834715,203.515456956462 173.1889105066657,196.45386215648614 165.1043190639466,201.0231334308628 165.42136186547577,220.75390703359153 171.28665369655937,227.19231007085182 179.2127237385139,222.20774255529977 178.57863813452423,200.19235794001725 169.8599610887468,196.2461676551029 165.42136186547577,200.19235794001725 165.89692606776953,223.6615765725728 172.0792607003823,226.98462011036463 179.2127237385139,222.00005185836926 179.0542023377493,203.10007000912447 173.66447470895946,196.2461676551029 167.79918287787586,196.869251067983 164.62875486165285,200.6077457467327 164.9457976622507,221.7923611305887 170.9696108950302,226.77693011949304 179.0542023377493,222.00005185836926 177.94455253053457,199.77697001048364 172.71334630344063,195.0 164.47023345995694,200.40005185920745 164.9457976622507,221.7923611305887 173.0303891049698,226.77693011949304 178.73715953622013,221.7923611305887 178.26159533392638,200.19235794001725 172.55482490267605,195.2076946857851 163.5191050544381,201.4385209919419 165.2628404647112,223.24619557789993 174.6156031144783,226.77693011949304 178.8956809360534,222.4154332211474 178.10307393223047,199.15388788667042 169.8599610887468,196.03847312228754 164.9457976622507,200.19235794001725 164.9457976622507,221.7923611305887 173.0303891049698,226.98462011036463 179.2127237385139,222.00005185836926 179.52976654004306,201.4385209919419 172.39630350284278,196.03847312228754 164.62875486165285,202.06160210364033 165.1043190639466,223.8692670239834 170.33552529104054,227.40000000002328 178.42011673375964,222.00005185836926 180.32237354386598,201.23082722653635" stroke="#4DD2FF" stroke-linecap="round" stroke-linejoin="round" stroke-width="0.5"><title>2025-03-09 4.1km</title><desc>1741514669000</desc></polyline><polyline fill="none" points="22.325794078409672,254.66309869848192 27.576551797799766,265.5370126615744 31.980413110926747,265.75892845366616 37.23117083031684,260.4329404005548 34.521102329716086,236.02192018541973 22.833931921049953,235.80000000004657 18.43007060792297,240.9041559670586 25.035862578079104,262.652104384033 35.36799873691052,264.64934916666243 38.416825799271464,255.10693346254993 34.69048161059618,240.9041559670586 37.739308673888445,238.9068796109641 20.293242702260613,246.00829458853696 21.140139108523726,243.34526790643577 27.576551797799766,247.33980615925975 25.035862578079104,252.22200515249278 26.72965539060533,265.5370126615744 34.18234376702458,265.31509683735203 37.90868795569986,259.5452738889726 31.302895985543728,237.79728048783727 21.140139108523726,236.6876805445645 17.58317420165986,242.23567206249572 23.00331120286137,254.8850160971051 22.66455264016986,262.20827185024973 31.133516704663634,267.97808456851635 35.876136580482125,259.32335717917886 33.16606807895005,240.46031700621825 24.019586890004575,236.02192018541973 18.091312046162784,240.9041559670586 21.987035515718162,263.98360120086 32.14979239180684,268.19999999995343 36.38427442405373,261.7644391844515 35.36799873691052,237.35344060859643 24.18896617181599,236.6876805445645 21.478897671215236,246.8959691002965" stroke="#4DD2FF" stroke-linecap="round" stroke-linejoin="round" stroke-width="0.5"><title>2025-03-05 1.9km</title><desc>1741161630000</desc></polyline></svg>