<?xml version="1.0" encoding="utf-8" ?>
<svg baseProfile="full" height="300mm" version="1.1" viewBox="0,0,200,300" width="200mm" xmlns="http://www.w3.org/2000/svg" xmlns:ev="http://www.w3.org/2001/xml-events" xmlns:xlink="http://www.w3.org/1999/xlink"><defs /><rect fill="#222222" height="300" width="200" x="0" y="0" /><text fill="#FFFFFF" style="font-size:12px; font-family:Arial; font-weight:bold;" x="10" y="20">Over 10km Runs</text><text fill="#FFFFFF" style="font-size:4px; font-family:Arial" x="10" y="280">ATHLETE</text><text fill="#FFFFFF" style="font-size:9px; font-family:Arial" x="10" y="290">TXyy2025</text><text fill="#FFFFFF" style="font-size:4px; font-family:Arial" x="65" y="280">SPECIAL TRACKS</text><rect fill="yellow" height="2.6" width="2.6" x="65" y="283" /><text fill="#FFFFFF" style="font-size:3px; font-family:Arial" x="70" y="285.5">Over 20.0 km</text><rect fill="red" height="2.6" width="2.6" x="65" y="287" /><text fill="#FFFFFF" style="font-size:3px; font-family:Arial" x="70" y="289.5">Over 40.0 km</text><text fill="#FFFFFF" style="font-size:4px; font-family:Arial" x="120" y="280">STATISTICS</text><text fill="#FFFFFF" style="font-size:3px; font-family:Arial" x="120" y="285">Number: 18</text><text fill="#FFFFFF" style="font-size:3px; font-family:Arial" x="120" y="290">Weekly: 2.6</text><text fill="#FFFFFF" style="font-size:3px; font-family:Arial" x="141" y="285">Total: 150.7 km</text><text fill="#FFFFFF" style="font-size:3px; font-family:Arial" x="141" y="290">Avg: 8.4 km</text><text fill="#FFFFFF" style="font-size:3px; font-family:Arial" x="167" y="285">Min: 1.5 km</text><text fill="#FFFFFF" style="font-size:3px; font-family:Arial" x="167" y="290">Max: 35.9 km</text><polyline fill="none" points="13.406599640089553,59.40811803972974 13.622075737424893,59.53266249120861 14.239985134176095,59.387360577486106 14.610730772241368,59.16317900825197 15.269834128775983,59.0344813734373 15.548685548856156,59.09260295891181 15.887743525541737,58.97635966773851 16.822529536031652,58.810296989066046 17.58303340896964,58.57365597636999 18.565350911507267,58.17094651392108 18.9899655738991,58.09206460306996 19.842363664807635,58.229069885499484 20.108540020344662,58.179249860080745 22.2157695016067,58.57780759025991 24.795145137308282,59.8647783300712 26.88653078788775,60.18443611810835 27.025956497935113,60.342187972262764 27.187563570929342,60.41276088349696 28.17938737188524,60.57881409320362 28.420213598306873,60.40030685322017 30.63518112823658,60.71165595454477 32.04211329316604,60.591268044374374 34.700708082309575,60.927522640011375 34.45354432359454,60.85279974421974 34.96054690556775,60.00177497016921 35.454874422968714,58.594414039682306 35.97455206948507,57.78898993839357 36.28509115091583,57.157919873096034 37.73638604178268,53.77813238518138 38.51273374540324,52.26249366929369 38.98171113371791,50.95441095509523 39.7295399420982,49.97850004960128 40.879802049923455,51.01670198940337 42.118789609579835,52.951807990075395 42.12195837570471,53.063923780369805 41.58326813239546,54.268102206351614 41.795575463576824,55.33936238921342 42.86028088568128,55.97462529790573 43.89963617871399,55.86667313688122 44.489026680224924,55.94556129534794 44.56824583366688,56.086729026126704 44.527051873883465,56.89635378350431 44.58725843048887,57.04166857832024 44.76154056802625,57.26171526556209 45.05623581880354,57.41117995717286 45.30656834364345,57.647830759602584 45.58858852983394,57.9965756778638 45.674145215554745,58.0173341674672 45.759701901246444,57.93014840807882 45.73118300600618,57.61876848770771 45.99419059543288,57.14961622512055 46.212835458878544,56.35660653734885 46.33324857210391,56.261111714326034 46.45683045145415,56.23619996798698 46.69448791175091,56.31508708895308 47.214165558238165,56.232048008108904 47.79721852749935,56.369062359897725 47.990513261873275,56.59741812816719 48.32323370628001,56.593266221665544 48.373933964481694,56.76349388488234 48.1838079962472,57.045820418552466 48.44364681949082,57.39457280847455 49.121762772861985,57.573099142569845 49.37843282999529,57.79729339741607 49.62876535482064,57.88447956901291 50.446307018224616,58.40343927886897 50.97865972928412,58.47816868766495 51.384261794853956,58.86426746727375 51.415949456219096,59.07599680389649 51.222654721845174,59.30848208112002 51.13392927001405,59.56587425172984 50.84240278539073,60.034986176278835 50.88676551131357,60.632781175107084 51.067385181129794,60.24670669263833 51.507843674204196,59.7692954284048 51.69480087629927,59.27527001642011 51.78035756200552,59.25036094212919 51.97048353024002,59.45378440269633 51.9292895704566,58.93069252892201 52.61057428996719,58.154339814254854 52.75,57.456849565463926 45.95933416791377,47.694320696264185 45.40163132775342,47.407746899009 45.211505359518924,46.822130481039494 44.913641342616756,46.489860416995725 44.726684140521684,46.30711020610579 44.01054299350653,45.875150434705574 43.42432125812047,45.27704132069084 43.09793834597804,44.15555239547393 42.28990298099234,44.072477359986806 42.21385259368981,44.163859885497004 42.16315233550267,44.63322908009286 42.06808935137815,46.186660553268666 41.95084500430676,46.572928301551656 41.31709177684388,47.64032875512021 40.01472889445722,49.55905558282029 39.04508645646274,50.78830085494883 38.26556998670276,51.49426199679874 37.286421250290005,53.18849635593688 35.58796260075178,57.274170686900106 35.47705578593013,57.73501739493986 35.38833033409901,58.69405253009427 34.96688443783205,59.96856372481125 34.415519129965105,60.88600994463923 33.547277208374,60.7158072525981 32.153020107973134,60.60372199003723 30.61933729753946,60.6992020567086 28.439226195128867,60.371247427774506 28.160374775063246,60.57466277492313 27.222419998433907,60.408609540687394 27.00377513495914,60.31727984364261 26.88653078788775,60.16783060826856 24.77930130662571,59.84402120513914 22.228444566149847,58.55289789773269 20.241628198113176,58.17509818731378 20.00713950394129,58.13773310475517 19.820182301846216,58.19585654503135 18.980459275480825,58.05469941010233 18.555844613103545,58.13773310475517 16.86055472967564,58.77708433556654 15.94478131600772,58.93899565059837 15.466297629289329,59.084299882635605 15.257159064218285,59.03032982701552 14.6741060949862,59.12996677182127 14.525174086535117,59.17978511174624 14.29702292465663,59.36660309991021 13.56503794695891,59.53266249120861 13.321042954383302,59.25866396934725 13.34322431734472,58.43665237398818 12.75066504967981,58.27058650586696 12.338725451845676,57.77653474525505 12.25,57.52327795412748 12.522513887801324,57.502519099538404 12.560539081445313,57.46100134435983 12.509838823243626,57.3572066880206" stroke="yellow" stroke-linecap="round" stroke-linejoin="round" stroke-width="0.5"><title>2025-04-14 32.8km</title><desc>1744614550000</desc></polyline><polyline fill="none" points="83.52175184339285,45.39945167233236 80.51087592262775,35.1428877026774 71.87969828024507,33.564949538442306 68.26664717402309,40.66566026059445 68.26664717402309,65.12344704743009 74.08767395559698,72.22403187991586 80.71160098351538,71.96104776125867 84.92682727333158,66.70135723531712 83.92320196609944,40.13968266022857 75.09129926282912,33.82793932990171 68.46737223584205,40.66566026059445 68.06592211127281,65.12344704743009 73.48549877107143,71.69806360465009 83.92320196609944,69.3312044411432 85.12755233515054,40.13968266022857 79.50725061446428,33.82793932990171 68.46737223584205,40.13968266022857 68.46737223584205,63.28255005902611 73.88694889377803,72.48701595957391 81.11305110622197,71.43507940787822 85.72972751967609,65.64941726555116 84.72610221151263,39.08772699290421 74.68984914012253,33.82793932990171 67.46374692767859,41.71761499589775 69.87244766484946,68.27926602517255 75.89419950917363,72.48701595957391 85.72972751967609,66.17538732779212 85.52900245785713,41.45462637045421 79.9087007381022,33.564949538442306 75.69347444735467,32.77597993193194 68.46737223584205,39.08772699290421 68.86882235854864,64.59747667354532 74.28839901741594,72.75 85.52900245785713,68.01628132443875 84.72610221151263,38.56174892548006 77.09854987822473,32.25 72.08042334020138,33.564949538442306 68.06592211127281,41.1916377057787 69.0695474203676,66.43837230128702 76.6970997536555,72.22403187991586 86.13117764238268,66.17538732779212 85.72972751967609,41.1916377057787 79.10580049175769,33.03896983957384 74.28839901741594,33.301959708100185 67.8651970513165,39.87669380160514 68.26664717402309,64.59747667354532 70.07317272666842,69.06821989524178 78.10217518452555,72.48701595957391 86.73335282690823,63.54553545976523 85.32827739603817,38.035770703689195 77.09854987822473,33.301959708100185 68.06592211127281,40.13968266022857 69.0695474203676,66.964342131163 72.88332358654588,71.69806360465009 79.9087007381022,72.48701595957391 86.33190270327032,65.38643217575736 86.13117764238268,41.1916377057787 80.31015085987747,32.51298998587299 72.48187346477062,34.87989810539875 69.47099754214287,39.87669380160514 68.26664717402309,63.54553545976523 75.49274938553572,72.22403187991586 85.52900245785713,67.22732698789332 85.72972751967609,38.56174892548006 80.10942579805851,32.77597993193194 74.68984914012253,33.03896983957384 68.66809729672968,41.1916377057787 68.86882235854864,66.964342131163 76.09492457006127,72.48701595957391 86.93407788686454,69.85717341618147 87.53625307232141,40.928649002918974" stroke="#4DD2FF" stroke-linecap="round" stroke-linejoin="round" stroke-width="0.5"><title>2025-04-09 4.1km</title><desc>1744204461000</desc></polyline><polyline fill="none" points="106.85576081648469,72.75 111.75636586174369,66.82323202758562 110.8139418149367,62.872041704831645 116.28000128827989,65.34153675113339 116.28000128827989,60.40254300925881 116.46848609764129,63.36594100552611 115.14909243118018,59.41474250948522 114.9606076227501,63.11899137345608 112.51030509918928,61.63729281304404 114.5836380040273,68.30492599087302 110.43697219528258,59.90864283242263 114.20666838437319,63.61289060104173 112.69878990855068,71.26830997737125 114.20666838437319,68.05797708861064 111.37939624302089,65.83543532283511 114.9606076227501,59.661692689638585 112.51030509918928,68.30492599087302 113.82969876565039,65.0945874103345 115.9030316695571,70.03356728772633 114.20666838437319,64.60068862035405 110.24848738592118,70.77441301045474 111.94485067017376,66.08238455373794 114.77212281245738,68.30492599087302 111.37939624302089,70.03356728772633 114.20666838437319,65.58848605491221 114.5836380040273,69.53966995736118 111.56788105145097,62.62509199907072 112.51030509918928,71.5152584053576 116.65697090793401,57.19218925095629 112.51030509918928,71.76220679713879 113.2642443375662,62.62509199907072 114.9606076227501,71.26830997737125 112.13333548046649,62.13119247893337 114.9606076227501,59.167792293126695 111.75636586174369,55.21658387372736 115.5260620508343,63.61289060104173 111.94485067017376,62.872041704831645 110.8139418149367,70.03356728772633 112.32182028982788,62.872041704831645 114.39515319373459,65.0945874103345 111.56788105145097,66.57628290622961 115.5260620508343,62.872041704831645 117.4109101453796,65.0945874103345 115.71454686112702,63.36594100552611 114.39515319373459,68.5518748566974 117.03394052572548,66.82323202758562 112.69878990855068,69.78661864087917 115.71454686112702,70.77441301045474 112.13333548046649,65.58848605491221 115.5260620508343,65.83543532283511 114.01818357594311,70.52746447268873 114.39515319373459,59.661692689638585 121.55757595319301,62.37814225710463 112.32182028982788,67.3171301613329 113.82969876565039,69.53966995736118 113.45272914599627,64.60068862035405 114.5836380040273,71.5152584053576 111.75636586174369,65.83543532283511 118.35333419311792,67.56407917384058 115.33757724054158,71.26830997737125 115.71454686112702,62.13119247893337 112.69878990855068,64.8476380337961 115.9030316695571,64.8476380337961 114.01818357594311,68.79882368631661 111.75636586174369,57.68609023047611 115.33757724054158,59.167792293126695 113.0757595282048,67.81102814897895 111.1909114336595,64.60068862035405 117.03394052572548,64.10678968357388 114.5836380040273,60.649493042728864 122.12303038220853,62.62509199907072 125.70424176100641,40.15251608379185 138.1442391835153,39.41165678820107 137.57878475636244,32.25" stroke="#4DD2FF" stroke-linecap="round" stroke-linejoin="round" stroke-width="0.5"><title>2025-04-07 1.9km</title><desc>1744030807000</desc></polyline><polyline fill="none" points="168.1675824187696,51.62538905022666 147.25,45.211256061680615 165.05219780094922,44.04504894488491 156.15109890140593,44.62815254647285 167.27747252583504,34.13227453012951 158.8214285708964,34.71537959598936 162.38186813145876,57.45640999195166 165.9423076901585,43.46194525598548 161.0467032957822,53.957798461196944 161.4917582422495,35.29848457593471 161.0467032957822,65.03672433970496 164.60714285634458,53.957798461196944 169.94780219718814,59.20571459643543 164.16208791173995,60.955018423264846 158.8214285708964,38.21400818647817 163.7170329671353,65.03672433970496 156.59615384601057,45.794359490508214 164.16208791173995,48.70987534802407 164.16208791173995,38.797112649306655 169.94780219718814,58.62261314713396 165.9423076901585,54.5409005980473 163.7170329671353,63.87052308116108 158.8214285708964,46.96056609181687 161.4917582422495,52.79159392765723 169.5027472525835,47.54366926313378 162.38186813145876,70.86772546987049 170.8379120863974,56.29020649427548 161.93681318685412,63.28742232080549 158.8214285708964,53.957798461196944 163.27197802066803,60.955018423264846 173.95329670235515,50.45918382704258 165.4972527474165,54.5409005980473 169.94780219718814,62.70432147523388 165.4972527474165,58.03951161238365 165.9423076901585,34.71537959598936 160.15659340657294,55.70710461423732 166.38736263662577,47.54366926313378 160.15659340657294,36.464694279944524 163.27197802066803,51.62538905022666 167.72252747230232,46.37746283481829 159.26648351363838,64.45362375327386 157.04120878875256,46.37746283481829 162.38186813145876,60.955018423264846 163.27197802066803,48.70987534802407 155.26098901033401,53.957798461196944 152.14560439437628,38.21400818647817 165.9423076901585,66.20292525505647 161.93681318685412,56.873308286303654 171.72802197933197,40.546425523702055 165.9423076901585,63.87052308116108 160.15659340657294,53.374696236802265 164.60714285634458,38.797112649306655 158.3763736244291,61.53811952774413 153.03571428358555,51.62538905022666 165.9423076901585,46.37746283481829 168.1675824187696,54.5409005980473 161.4917582422495,48.12677234923467 160.15659340657294,53.957798461196944 172.1730769239366,46.37746283481829 161.93681318685412,58.62261314713396 165.9423076901585,70.28462574351579 159.26648351363838,45.211256061680615 166.38736263662577,51.04228648217395 170.8379120863974,44.04504894488491 157.04120878875256,42.2957376211416 161.4917582422495,57.45640999195166 165.4972527474165,36.464694279944524 159.71153846010566,51.62538905022666 157.04120878875256,40.546425523702055 153.48076923005283,67.3691258255858 159.26648351363838,41.12952964240685 168.6126373615116,49.876081086928025 159.71153846010566,48.12677234923467 159.26648351363838,35.29848457593471 158.8214285708964,69.70152593264356 160.15659340657294,52.79159392765723 169.5027472525835,50.45918382704258 161.0467032957822,35.88158947066404 170.8379120863974,55.70710461423732 163.27197802066803,37.047799001215026 157.93131867982447,45.794359490508214 167.27747252583504,41.71263367426582 158.8214285708964,53.374696236802265 164.16208791173995,69.11842603422701 152.14560439437628,38.21400818647817 158.3763736244291,58.62261314713396 168.1675824187696,61.53811952774413 165.4972527474165,46.37746283481829 187.75,42.2957376211416" stroke="#4DD2FF" stroke-linecap="round" stroke-linejoin="round" stroke-width="0.5"><title>2025-04-06 2.6km</title><desc>1743945103000</desc></polyline><polyline fill="none" points="16.01384468493052,107.6566829111598 17.89254455761693,106.96427625929573 18.2760184595827,106.95161012769859 18.97529439847858,107.07827119100511 19.191199872700963,107.01071869376574 21.42759388925333,107.4371411550037 24.028126989185694,108.74592283590209 26.171069382558926,109.07521975679083 26.293523233616725,109.2187582528586 26.480426479960443,109.30741402264903 27.489059516243287,109.4720597226169 27.75007956715126,109.28630553098083 29.951026416296372,109.60715292187888 31.417250159138348,109.48472473717447 32.69334818587231,109.61559622561799 33.776098026748514,109.80556990059449 33.879217059205985,109.74224548258462 34.36580999364378,108.95278929341112 34.86207033737446,107.52158049157515 35.58712603438471,106.32674066536856 37.059794716740726,102.87282375778886 37.99753341820906,101.0274671936877 38.490571292175446,99.66343137789772 39.231739338021725,98.69209682099608 40.40794080204796,99.76478612429855 41.64536919161037,101.69468080704428 41.63892425208178,101.86781597046138 41.110439210693585,103.06706488368764 41.239338001279975,103.87357369480196 41.358569382558926,104.17759205037328 42.29308561424841,104.74339537763626 42.48965626989957,104.79828614901635 43.40483768300328,104.69694925797194 44.084778803313384,104.77295195994157 44.15889560790674,104.90384502834968 44.10411362189916,105.72296867804471 44.21690006366407,105.96785675616957 44.36835614258598,106.11985519735936 44.655155951637425,106.26340853833062 45.2352005092398,106.87139116390426 45.306094844068866,106.85872499113975 45.37698917888338,106.74472918363244 45.354431890518754,106.4196275311424 45.63478676004161,105.93407921500147 45.82491247613507,105.20785242207057 45.92803150859254,105.08540538861598 46.09559993635048,105.04740447844415 46.34373010821582,105.13185087686543 46.801320814789506,105.0389598248712 47.45548217697069,105.19518551191322 47.62305060471408,105.41896676474607 47.9710773392726,105.42318903569867 48.029081795044476,105.5625236268479 47.845401018465054,105.82007971876192 47.84217854870076,105.92141262675796 48.10319859962328,106.23385349767341 48.83792170592642,106.45340449838113 49.03449236157758,106.63495501325815 49.347071928714286,106.77006162459293 50.12046467218897,107.26403973499873 50.69084182049846,107.34847958306091 51.09687301082886,107.75378738071231 51.11943029917893,107.94799532997422 50.93252705283521,108.16331129618266 50.82296308084915,108.47150583671646 50.54260821134085,108.88524122703711 50.536163271812256,109.48894640745675 50.594167727569584,109.50583308229761 50.74884627627034,109.1554325346442 51.245106620001025,108.60660376560736 51.40300763845153,108.15908943007707 51.509349140673294,108.12109260713441 51.68336250795983,108.31107621666888 51.64791534055257,107.80445045124361 52.215070019097766,107.18804365842698 52.37297103756282,106.93894399049168 52.57598663272802,105.72719090407008 52.53409452579217,105.36829946475882 52.57276416294917,104.82784267453462 52.74355506048596,104.60827918347786 52.75,103.93268862840705 52.666215786128305,103.7046732105955 52.51798217695614,103.53577172792575 51.20965945257922,102.8348199047723 50.70050922979135,102.49700565623789 50.55872056016233,102.27320151689673 50.607057606612216,101.88892994299931 50.34603755570424,101.54265882283653 50.336370146411355,101.07814219214015 49.73054583069461,100.63473290782531 49.64031667727977,100.50804327677724 49.772437937615905,100.14908627099067 49.75310311903013,100.00972527680278 49.67254137492273,99.95904838307979 49.37607415659295,100.07307126753767 48.889481222155155,100.08574044882516 48.51889719924657,99.55785313467095 47.835733609172166,98.94971485658971 47.05267345639004,97.8896650996976 46.269613303637016,97.18857472327909 46.069820178236114,96.63106888811672 45.00318268619594,96.07355217072836 44.845281667716336,95.57938052763166 44.68415817950154,95.33862714245515 44.24912476130703,94.91624787895307 43.61107574793277,94.53187732037986 42.94724697644415,93.85182442838413 42.670114576714695,92.7746888840029 42.467098981534946,92.7197750031246 41.841939847232425,92.69443009940733 41.77104551241791,92.74511988434278 41.70981858689629,93.26890906014705 41.609922024203115,94.81487592619851 41.47780076385243,95.24148046499431 40.87519891789998,96.26783953493032 39.50564926798688,98.28666045292448 38.4873488224257,99.56629940848507 37.945973901994876,100.00972527680278 37.70751113942242,100.28844658533853 36.763327498410945,101.93960341342427 34.997414067489444,106.19163195798865 34.9136298536032,106.5125140949749 34.86207033737446,107.38647743330148 34.43025938891515,108.73747927521435 33.8244350731984,109.77601852296903 32.85447167410166,109.60715292187888 31.45591979632445,109.48050306628829 29.902689369831933,109.59026630689004 27.714632399758557,109.28630553098083 27.51161680459336,109.45939470246049 27.40849777213589,109.4720597226169 26.470759070667555,109.28630553098083 26.17751432210207,109.07099802542325 24.00556970082107,108.72059214636101 21.39536919161037,107.39914337214395 19.210534691272187,107.0022746203922 18.949514640364214,107.06138308166373 18.143897199246567,106.91783374933584 17.824872692552162,106.95583217218882 15.991287396580447,107.64401708645892 14.937539783582906,107.82978195281794 14.554065881602583,107.95643912390733 14.367162635273417,107.90155441868956 13.72266868238512,108.01132372372376 13.345639719933388,108.25197034015582 12.62058402292314,108.42506577616223 12.298337046478991,108.18019875432765 12.311226925521623,108.13798009023776 12.25,108.23086106892151 12.288669637186104,108.15908943007707" stroke="yellow" stroke-linecap="round" stroke-linejoin="round" stroke-width="0.5"><title>2025-04-06 31.5km</title><desc>1743926920000</desc></polyline><polyline fill="none" points="58.2577576112235,107.1622466907993 58.52748097188305,107.41077213285644 59.21216334892961,107.2437943604782 59.47003073769156,107.05739931518292 60.11025322013302,106.94090174067242 60.347372658070526,106.98361757793282 61.55964578452404,106.72732151305172 63.30247365338437,106.08657041728111 63.50995316157059,106.05550330046572 64.29837529272481,106.16812142423441 64.53845872363308,106.11763749738566 66.58361387587502,106.5098562255007 68.93406030442566,107.69036044654786 70.91993559717957,107.99712753599852 71.07702722481918,108.16021744245336 71.2281908665027,108.22622973596845 72.14999268148676,108.3660199279966 72.41675204917556,108.20293129836682 74.41151932082721,108.49027725239466 75.74828015221283,108.37766907709738 77.9831308547873,108.64559808195372 78.52257757610641,107.78743902661154 78.98792447306914,106.49043959448136 79.6400029273791,105.40308536463817 81.03307962529652,102.156288610091 81.85114168617292,100.55216082782499 82.27795667445753,99.33249208970665 83.30942622949078,97.9806911625019 84.52466334892961,96.17429687307049 85.06411007023416,95.23414575497918 85.14710187351739,94.99327517804704 85.32494145198143,93.03903384574551 85.40200526930857,92.9574420795634 85.95923594845226,92.98463936312146 86.11929156907718,93.04680447692226 86.40976288054662,94.08027793945257 86.92549765807053,94.61642484454569 87.57461211942427,95.00104523111986 87.99549912176735,95.42450964844284 88.1081308547873,95.58379266253542 88.2652224824269,96.084945114535 89.25223214284051,96.57831842211817 89.39153981262643,97.06391302360316 90.13253805619024,97.72430727814753 90.83204039811972,98.67990722208924 91.48115485947346,99.25091986763437 91.83683401637245,99.74423372632191 91.92871779858251,99.7869612624927 92.33774882902799,99.7325807498546 92.5185524004628,99.65489410799637 92.62525614752667,99.68985312525729 92.63414812643896,99.82580441688879 92.52744437937508,100.16373743734948 93.18545081965567,100.69976021074035 93.1587748828897,101.04545025751577 93.4255342505785,101.44939690980209 93.36625439109048,101.77177295586262 93.4492461943737,101.92713349354926 93.91162909835111,102.25727158645714 95.21874999998545,102.98744463775438 95.36398565572745,103.3331045920786 95.33434572597616,103.78362085428125 95.39066159249342,103.9312020884463 95.83822453160246,104.05159669199202 95.96271223652002,104.13315401329601 95.97753220138839,104.30403519917309 95.70780884074338,104.81278851546813 95.71670081965567,104.97589818090273 95.89750439109048,105.03415138752825 96.35395930912637,104.70016458425744 96.51105093675142,104.74288406324922 96.53772687351739,106.03996972828463 96.608862704903,106.26520562640144 96.79263026930857,106.40500624757806 97.60180035128724,106.56033939903864 97.75,106.69625515355983 97.73814402808785,109.1270868216834 97.60772833722876,109.10767212376413 97.23722921543231,108.83586484750595 96.65035860655189,108.66501312110813 96.37470725995081,108.72714115009876 94.30880415689899,109.52702640872121 92.6993559718976,109.5425579204366 92.67268003511708,109.49596335775823 92.92758343089372,108.94070512985854 93.372182377032,108.47862815317603 93.36921838406124,107.83791974656015 93.73675351287238,107.17001314642948 93.92348507024872,106.94866826170437 93.92348507024872,106.82440364983086 93.86124121778994,106.73897138839311 93.53520199061313,106.4166562657756 93.247694672129,106.32345597559652 92.957223360645,106.32345597559652 92.18954918031523,105.82638217987369 91.96132172130456,105.7370632358743 91.74495023417694,105.5545409716542 91.08397980092559,105.37201743992591 90.87946428571013,105.06133617311025 91.0513758782181,104.80502136328141 91.01580796252529,104.63802703632246 90.68384074940695,104.63025983250736 90.51785714285506,104.42831172742808 90.0465822599217,104.31956979735514 89.83910275173548,104.30015154819921 89.4626756440266,104.38947537548302 89.2255562060891,104.31180249941826 89.03586065572745,104.41277719353457 88.86098507024872,105.08852093056521 88.57347775175003,105.58560868060522 88.600153688516,105.88075008414853 88.5438378220133,105.9700685398675 88.454918032774,105.97395194410637 87.99549912176735,105.46910458268758 87.62796399297076,105.24774537389021 87.53015222481918,105.11182212885797 87.45012441450672,104.92929552263377 87.49458430912637,104.1681070735358 87.42641247072606,104.04382931485634 86.87807377048011,103.9739228173512 85.84660421544686,104.06324775339635 84.93073038640432,103.50010721076615 84.82699063229666,103.29038282148395 84.71732289226202,102.41262925390402 85.17970579623943,101.39113575662486 85.18859777515172,101.21246741477262 84.05635245901067,99.44125465852085 83.03081088991894,98.48179789443566 82.71662763463974,98.27203344874215 82.90928717797215,98.36137776925716 82.85889929741097,98.50510495169692 82.28684865338437,99.26257305772924 81.58141832551337,99.8957219501226 80.51438085480186,101.80672915692594 79.04424033957184,105.3875514068659 78.90493266977137,106.59528923161088 78.5077576112235,107.79132216234939 77.93274297422613,108.68831114918976 77.28066451988707,108.53687359761898 75.91722775175003,108.40096735983752 74.42633928569558,108.49416028431551 72.39304010538035,108.19904822340868 72.13813670958916,108.37766907709738 71.22226288054662,108.21458051974696 70.91993559717957,107.98936132473136 68.97259221310378,107.69424359664117 66.55397394613829,106.47878960898561 64.65701844262367,106.12540426167652 64.46732289226202,106.10598734665473 64.31319525759318,106.1564712958716 63.539593091321876,106.02831954312569 63.255049765793956,106.06715347357567 61.61003366508521,106.68460525927549 60.69119584308646,106.84382003416431 60.282164812640985,106.97973432287108 60.07468530444021,106.92536869172727 59.520418618267286,107.02633334580241 59.143991510529304,107.2554440069307 58.46523711942427,107.39523936155456 58.26072160420881,107.1622466907993 58.29332552693086,106.41277292695668 57.685706967211445,106.19142166545498 57.30927985947346,105.69046192720634 57.25,105.51182281188267 57.4960114168498,105.49628891839347 57.55232728336705,105.43026976861802 57.493047423893586,105.38366791599583" stroke="yellow" stroke-linecap="round" stroke-linejoin="round" stroke-width="0.5"><title>2025-04-05 35.9km</title><desc>1743843004000</desc></polyline><polyline fill="none" points="130.227933133021,98.35718388669193 127.46795701608062,104.86611197935417 121.39600955322385,90.4018155792728 119.74002388119698,112.09824415063486 126.36396656930447,96.91075424849987 129.1239426881075,109.92860562168062 120.29201910458505,111.37503141490743 125.25997612066567,90.4018155792728 116.42805253900588,90.4018155792728 133.53990447707474,117.16073031257838 119.74002388119698,99.08039854746312 128.57194746285677,105.58932567713782 119.74002388119698,110.65181857068092 126.9159617908299,92.57146276440471 128.0199522394687,101.9732561185956 115.87605731375515,103.41968426201493 124.7079808972776,107.75896612880751 122.5,120.77678865380585 126.9159617908299,103.41968426201493 127.46795701608062,113.54466930124909 117.53204298391938,98.35718388669193 128.0199522394687,111.37503141490743 120.29201910458505,105.58932567713782 120.29201910458505,112.09824415063486 118.08403821103275,101.2500418862328 131.3319235816598,101.2500418862328 120.29201910458505,81.0 127.46795701608062,114.26788171753287 125.25997612066567,93.29467827780172 126.36396656930447,111.37503141490743 110.90810029767454,101.9732561185956 124.15598567202687,109.20539256371558 121.39600955322385,99.08039854746312 128.0199522394687,109.20539256371558 129.1239426881075,95.46432418050244 124.15598567202687,112.82145677879453 118.08403821103275,106.31253926828504 122.5,119.33036563638598 114.772066866979,114.99109402764589 121.94800477661192,99.80361309973523 125.25997612066567,114.26788171753287 121.94800477661192,100.52682754583657 133.53990447707474,106.31253926828504 126.9159617908299,95.46432418050244 120.84401432797313,109.92860562168062 116.98004776239395,98.35718388669193 124.7079808972776,106.31253926828504 133.53990447707474,90.4018155792728 123.05199522338808,99.80361309973523 124.15598567202687,121.5 123.05199522338808,97.63396912114695 134.09189970232546,110.65181857068092 127.46795701608062,96.1875392687507 125.25997612066567,113.54466930124909 115.87605731375515,99.08039854746312 125.81197134405375,88.23216743208468 126.36396656930447,115.7143062306568 119.74002388119698,105.58932567713782 124.15598567202687,94.74110898654908 122.5,112.09824415063486 131.3319235816598,103.41968426201493 122.5,115.7143062306568 119.74002388119698,98.35718388669193 133.53990447707474,113.54466930124909 120.29201910458505,104.86611197935417 122.5,120.0535771981813 126.36396656930447,104.1428981735371 117.53204298391938,104.1428981735371 119.18802865594625,112.82145677879453 126.9159617908299,101.9732561185956 116.98004776239395,99.80361309973523 123.60399044677615,115.7143062306568 121.39600955322385,101.9732561185956 126.9159617908299,107.75896612880751 119.18802865594625,117.16073031257838 118.08403821103275,95.46432418050244 126.36396656930447,109.20539256371558" stroke="#4DD2FF" stroke-linecap="round" stroke-linejoin="round" stroke-width="0.5"><title>2025-04-04 1.7km</title><desc>1743771861000</desc></polyline><polyline fill="none" points="174.99373286031187,81.0 166.00125342886895,83.45457356038969 161.1303270701319,90.32736023480538 162.44173032045364,116.83641393459402 168.06202996522188,120.76364517596085 172.18358303699642,119.53638641000725 175.3684195028618,113.64553171617445 174.6190462158993,88.85462262632791 166.00125342886895,84.92731595598161 159.2568938555196,94.0091985425679 161.50501371361315,116.3455093774246 163.56579024903476,119.78183823626023 171.43420975189656,120.02729002514388 175.93044946715236,114.13643707183655 173.12029964476824,90.08190405741334 166.93797003570944,84.68185898032971 159.81892381981015,91.30918458127417 161.1303270701319,117.08186615933664 171.8088963944465,119.78183823626023 176.67982275225222,113.15462621522602 173.49498628731817,88.11825333279558 166.93797003570944,84.68185898032971 161.1303270701319,87.62734028964769 160.1936104632914,114.3818896949524 166.18859674967825,120.76364517596085 176.11779278796166,115.85460467438679 175.3684195028618,91.30918458127417 167.12531335651875,84.92731595598161 158.32017724774778,92.045552460826 159.2568938555196,111.68190884240903 164.8771934993565,120.51819349557627 172.7456130022183,119.29093454848044 176.67982275225222,112.90917341038585 175.18107618018985,91.80009653733578 166.18859674967825,84.68185898032971 158.6948638902977,92.29100834822748 161.1303270701319,118.06367469509132 171.9962397152558,119.29093454848044 176.67982275225222,111.68190884240903 172.9329563230276,89.34553530800622 163.9404768915847,85.90914349351078 158.6948638902977,92.5364641995402 160.75564042665064,116.83641393459402 169.18608989473432,120.76364517596085 175.3684195028618,116.83641393459402 176.67982275225222,111.68190884240903 173.8696729298681,88.36370980076026 163.9404768915847,85.17277289449703 159.2568938555196,93.27283153450117 160.3809537841007,115.11824734753463 165.81391010712832,120.76364517596085 176.11779278796166,115.11824734753463 175.3684195028618,90.32736023480538 166.00125342886895,84.92731595598161 158.6948638902977,91.06372854928486 160.3809537841007,117.08186615933664 163.9404768915847,120.51819349557627 172.37092635873705,119.78183823626023 176.3051361097023,112.66372056945693 175.3684195028618,90.57281637610868 169.74811985809356,84.68185898032971 161.50501371361315,86.40005704516079 158.6948638902977,90.57281637610868 161.31767039187253,118.80003071564715 169.74811985809356,121.5 176.49247943144292,115.3636998264119 175.93044946715236,96.954663314973" stroke="#4DD2FF" stroke-linecap="round" stroke-linejoin="round" stroke-width="0.5"><title>2025-04-02 4.0km</title><desc>1743590878000</desc></polyline><polyline fill="none" points="26.49486293643713,138.7787437911611 23.14773735962808,138.7787437911611 22.753957878798246,158.12589469808154 28.069980854168534,168.44428752467502 40.27714472077787,163.28509873361327 39.48958576284349,147.54947876674123 42.4429318588227,146.2596675629029 37.52068836428225,132.8455745590618 23.73840657901019,134.9092878830852 23.73840657901019,159.15773672470823 28.069980854168534,167.4124509858666 38.702026803046465,164.05897802393883 39.29269602242857,140.06856052030344 34.1735627874732,131.03982339974027 23.14773735962808,136.7150350403972 22.753957878798246,158.6418157875305 27.676201374270022,167.15449175657704 34.1735627874732,168.44428752467502 40.0802549822256,163.02713889430743 39.88336524181068,138.26281683216803 30.629547471180558,130.7818587962538 24.13218605797738,135.4252158330055 23.54151683859527,159.931617844617 31.02332695107907,167.9283693319885 35.55179096572101,167.4124509858666 40.86781394015998,160.1895781419007 39.88336524181068,136.97299876785837 32.79533460922539,130.7818587962538 23.73840657901019,134.1353956728708 24.13218605797738,162.25325914600398 32.5984448697418,168.70224656385835 39.68647550139576,161.47937905532308 40.67092420067638,135.94114363042172 31.810885910876095,130.26592947437894 23.73840657901019,138.26281683216803 24.722855277359486,161.73733912338503 32.79533460922539,168.70224656385835 39.29269602242857,165.3487760797143 41.655372899957,158.6418157875305 39.29269602242857,135.1672518774867 32.40155512932688,130.26592947437894 24.329075797460973,135.68317975127138 24.525965536944568,161.22141894919332 30.629547471180558,168.18632844742388 39.48958576284349,164.3169377114391 40.86781394015998,136.97299876785837 32.20466539077461,130.52389415481593 22.557068140245974,136.7150350403972 23.935296318493783,163.80101829895284 31.810885910876095,169.73408234107774 40.27714472077787,163.80101829895284 39.68647550139576,135.4252158330055 31.810885910876095,130.7818587962538 23.14773735962808,136.4570712755667 25.116634757257998,165.3487760797143 31.417106430977583,169.4761234538164 37.71757810469717,168.96020556543954 40.47403446119279,164.05897802393883 40.0802549822256,136.97299876785837 31.6139961713925,129.75 23.54151683859527,136.7150350403972 26.49486293643713,165.0908165446017 29.25131929293275,168.70224656385835 39.29269602242857,170.25 41.655372899957,138.7787437911611" stroke="#4DD2FF" stroke-linecap="round" stroke-linejoin="round" stroke-width="0.5"><title>2025-03-30 4.0km</title><desc>1743343343000</desc></polyline><polyline fill="none" points="86.56361322756857,135.25005688192323 84.46467121690512,137.5000749990577 79.69434846565127,133.25003826594912 81.98410338629037,135.25005688192323 82.17491629626602,132.25002807192504 76.06890317332,129.75 69.581264231354,132.75003324309364 67.10069640073925,157.00010668905452 70.15370296221226,166.5000407216139 78.93109682481736,170.25 86.56361322756857,165.00005468295421 88.09011650830507,158.50009981833864 88.28092941828072,152.25011967262253 83.12898084707558,133.5000407223124 73.77914825361222,131.25001728639472 66.71907058171928,140.7500958867604 71.1077675120905,166.25004314025864 79.88516137655824,169.2500116713345 86.94523904751986,162.50007499800995 85.41873576678336,135.00005468411837 75.87809026427567,131.00001449813135 68.43638677243143,138.5000820911955 70.91695460211486,165.50005017674994 80.64841301552951,168.5000200367067 86.37280031852424,162.50007499800995 85.41873576678336,134.00004552444443 74.16077407356352,131.75002275314182 68.81801259238273,138.5000820911955 69.77207714226097,161.7500803717412 75.30565153434873,168.25002275209408 81.79329047631472,168.25002275209408 87.32686486840248,162.50007499800995 85.60954867769033,135.50005904317368 73.77914825361222,132.25002807192504 67.29150931164622,139.50008859182708 70.15370296221226,163.00007123069372 79.31272264569998,168.5000200367067 87.13605195749551,161.50008208944928 86.37280031852424,138.00007861910854 78.16784518584609,132.50003067567013 73.58833534363657,132.75003324309364 69.1996384114027,138.75008377211634 71.29858042206615,165.25005244847853 81.79329047631472,169.00001449743286 86.56361322756857,162.2500768265454 84.46467121690512,134.75005244964268 77.78621936403215,130.750011672033 69.581264231354,136.75006929284427 70.72614169307053,162.50007499800995 76.25971608422697,169.00001449743286 81.98410338629037,168.25002275209408 86.37280031852424,162.7500731322216 85.99117449764162,137.25007313408423 77.78621936403215,131.50002003787085 69.581264231354,137.75007682770956 69.581264231354,161.25008376967162 74.35158698353916,167.7500280707609 80.07597428560257,169.00001449743286 86.18198740761727,163.75006530201063 85.22792285773903,138.25008037337102 77.21378063503653,131.75002275314182 68.81801259238273,138.5000820911955 69.77207714226097,164.25006116519216 77.21378063503653,169.50000880868174 86.18198740761727,162.50007499800995 84.84629703778774,135.00005468411837 76.83215481415391,131.00001449813135 68.05476095154881,140.50009450188372 69.77207714226097,163.75006530201063 79.69434846565127,169.2500116713345 86.37280031852424,160.0000916189747 85.03710994683206,136.00006325403228 76.45052899420261,131.75002275314182 69.00882550142705,139.75009012431838 70.34451587218791,164.25006116519216 76.06890317332,169.50000880868174 85.41873576678336,165.25005244847853" stroke="#4DD2FF" stroke-linecap="round" stroke-linejoin="round" stroke-width="0.5"><title>2025-03-30 4.5km</title><desc>1743327729000</desc></polyline><polyline fill="none" points="129.07868020283058,131.3471821990679 129.18147208122537,132.69398362527136 122.39720812160522,136.33033753582276 119.1078680199571,136.46501703147078 121.7804568526335,145.0844633774832 114.1738578681834,145.62317606748547 114.58502538083121,149.9328661293839 108.72588832490146,147.3739901126246 103.99746192898601,148.85544552403735 102.25,153.97318205650663 103.27791878161952,166.63272266462445 107.49238578695804,169.32621926011052 112.32360406126827,166.63272266462445 114.48223350243643,146.02721037669107 119.41624365514144,145.48849792487454 123.6307106600143,146.43124450644245 132.8819796955213,156.8013925504638 134.8350253808312,157.07074547279626 136.8908629445359,152.76108915853547 142.75,157.74412743159337 141.10532994940877,164.88194560992997 140.79695431422442,156.39736301684752 135.45177665026858,153.4344743010588 133.80710659874603,156.8013925504638 131.44289340125397,155.05059661273845 119.51903553307056,136.73437596356962 128.77030456857756,133.63674343941966 127.22842639591545,130.67378073988948" stroke="#4DD2FF" stroke-linecap="round" stroke-linejoin="round" stroke-width="0.5"><title>2025-03-29 1.5km</title><desc>1743247652000</desc></polyline><polyline fill="none" points="157.34315939596854,159.42428332442068 158.0294324096758,160.14361497906793 157.64511952199973,159.5321832082118 157.23335571377538,159.96378226473462 157.48041399871,160.97084375414124 159.01766554953065,163.3086490071728 160.8568772264989,164.92711641496862 161.5156993198907,163.45251321246906 161.13138643209822,162.73319133558834 161.70785576361232,163.3086490071728 161.35099379648454,165.43063741397054 162.99804902961478,166.65346978972957 168.84509510698263,167.58857275603805 173.04508595133666,170.25 177.8489970478695,169.24297689709056 178.80977926717605,167.73243443196407 178.20585901499726,146.0083584428212 177.43723323952872,144.4617029443616 175.70782524487004,143.16682101522747 173.45684975967743,141.83596296531323 170.9313650690019,142.5193774674408 169.31176075641997,140.32525041431654 167.03333435056265,132.9513998114271 167.99411656998564,132.55572346378176 168.6254877424799,134.31827679059643 170.38234665780328,134.60603938695567 171.01371783053037,133.4549869599723 170.27254297561012,129.96582603013667 168.73529142467305,129.75 167.63725460262503,130.46941935615905 165.96274844917934,130.57733207616548 164.15098769275937,131.6924273813056 159.429429357755,132.2679584431171 156.54708269995172,133.4909574307676 157.28825755475555,137.3037971824233 156.24512257392053,140.07346407760633 156.19022073282395,147.55500411348476 156.51963177940343,155.0363141990092 157.37061031651683,158.56108253303682" stroke="#4DD2FF" stroke-linecap="round" stroke-linejoin="round" stroke-width="0.5"><title>2025-03-25 3.9km</title><desc>1742910133000</desc></polyline><polyline fill="none" points="38.93991573434323,178.5 25.416092692874372,190.10167991521303 24.611103226430714,194.95326355937868 28.79704845417291,217.10158816410694 34.2709768274799,217.94532706937753 39.58390730712563,213.93756282748654 37.81293048057705,192.8438813923858 34.75397050753236,188.41416869556997 27.83106109406799,188.83604668744374 25.416092692874372,197.69545571890194 27.509065307676792,216.25784875964746 34.43197472020984,218.1562617176678 39.10091362707317,214.14849806868006 38.45692205429077,191.57825059560128 30.890021067112684,186.9375947425142 26.060084267519414,190.73449610779062 25.577090587466955,213.72662755625788 32.66099789366126,217.94532706937753 38.77891784068197,214.5703684556065 38.93991573434323,195.1642016057158 37.32993680052459,189.67980229726527 32.82199578732252,187.14853397244588 28.958046346902847,187.14853397244588 24.772101120091975,192.63294300390407 25.738088480196893,213.72662755625788 31.373014747165143,218.36719633475877 38.93991573434323,214.5703684556065 38.13492626789957,191.7891891397303 31.856008427217603,186.9375947425142 24.611103226430714,194.10951106681023 25.094096906483173,213.72662755625788 33.14399157371372,217.94532706937753 39.26191152073443,212.25007978163194 38.93991573434323,192.21106613404118 33.30498946737498,186.515716189635 25.738088480196893,190.73449610779062 24.772101120091975,212.25007978163194 29.280042133294046,218.1562617176678 32.82199578732252,218.36719633475877 39.26191152073443,211.82820870832074 38.13492626789957,190.10167991521303 30.890021067112684,186.72665548196528 25.094096906483173,194.53138737555128 25.89908637292683,214.5703684556065 29.602037920616567,217.94532706937753 34.43197472020984,217.52345767896622 39.74490520078689,211.40633751032874 37.81293048057705,190.10167991521303 29.924033707007766,187.57041233778 25.094096906483173,194.95326355937868 27.02607162669301,216.0469138310291 33.14399157371372,218.5781309211161 39.26191152073443,214.78130360285286 39.26191152073443,195.37513961968943 38.61791994702071,190.94543477683328 33.14399157371372,186.515716189635 25.738088480196893,189.46886344184168 25.416092692874372,214.14849806868006 32.01700631994754,217.94532706937753 36.524947334080935,217.10158816410694 39.90590309444815,212.67195072968025 38.61791994702071,191.57825059560128 33.62698525376618,186.72665548196528 27.02607162669301,188.41416869556997 24.772101120091975,192.21106613404118 25.25509479921311,212.25007978163194 32.66099789366126,219.0 39.74490520078689,216.25784875964746 40.388896773569286,194.32044923701324" stroke="#4DD2FF" stroke-linecap="round" stroke-linejoin="round" stroke-width="0.5"><title>2025-03-24 4.1km</title><desc>1742817301000</desc></polyline><polyline fill="none" points="77.60036261938512,181.3928877018625 74.18803355004638,179.02597993204836 69.16990256588906,183.75979232555255 69.77207828406245,209.79553545964882 76.99818690121174,218.4740318787517 86.43227315228432,211.89941726531833 86.03082267381251,185.3377269919729 80.61124121025205,179.288969839341 68.96917732618749,182.97082446725108 69.77207828406245,210.58449142775498 75.79383546486497,217.94806360348593 80.20979073178023,218.21104776102584 86.43227315228432,212.42538732732646 85.42864695563912,185.07473797851708 77.19891214091331,178.76298998505808 68.76845208741724,186.3896826597629 69.16990256588906,209.00657914124895 76.39601118303835,219.0 86.03082267381251,213.74031180434395 86.6329983919859,185.8637049034005 75.59311022609472,178.5 70.17352876253426,183.23381379188504 69.16990256588906,209.5325500589097 78.40326357726008,219.0 86.03082267381251,213.47732698684558 85.83009743411094,183.75979232555255 75.59311022609472,178.5 69.57135304436088,186.3896826597629 69.97280352376401,214.00329658342525 77.19891214091331,219.0 87.03444887045771,213.47732698684558 85.22792171593755,183.75979232555255 78.80471405573189,178.5 69.77207828406245,185.3377269919729 70.17352876253426,211.89941726531833 76.79746166244149,218.4740318787517 86.43227315228432,214.00329658342525 85.42864695563912,187.17864900291897 75.59311022609472,178.5 67.76482589077204,186.3896826597629 69.37062780559063,210.32150614412967 74.38875878974795,217.94806360348593 85.62937219440937,214.00329658342525 86.23154791258276,185.07473797851708 79.20616453420371,178.76298998505808 68.3670016080141,185.3377269919729 68.96917732618749,210.05852082115598 76.99818690121174,217.94806360348593 81.61486740782857,217.6850794076454 87.23517410922796,210.84747667249758 86.43227315228432,186.1266938012559 83.22066932171583,180.6039187948918 75.99456070456654,178.76298998505808 68.96917732618749,187.70462636975572 69.97280352376401,211.11046187917236 75.59311022609472,218.21104776102584 86.03082267381251,213.47732698684558 86.23154791258276,185.3377269919729 82.61849360447377,180.0779393290868 74.38875878974795,178.76298998505808 69.37062780559063,186.1266938012559 69.97280352376401,212.42538732732646 75.99456070456654,219.0 86.6329983919859,213.47732698684558 87.23517410922796,186.1266938012559 80.20979073178023,219.0" stroke="#4DD2FF" stroke-linecap="round" stroke-linejoin="round" stroke-width="0.5"><title>2025-03-23 4.2km</title><desc>1742719228000</desc></polyline><polyline fill="none" points="117.1281567402184,178.5 113.54692790005356,183.19212343008257 115.43178518489003,214.30797708733007 124.66758587770164,217.51830997690558 132.39550074283034,208.1342426625779 130.69912918750197,188.3781392655801 118.82452829554677,181.46344790933654 113.3584421724081,190.6007125545293 114.8663279991597,213.5671301606344 121.46332849469036,217.76525840524118 130.69912918750197,212.0854353213217 129.75670054461807,186.8964220972266 119.76695693843067,180.72258642420638 113.3584421724081,187.14337504992727 114.30087081342936,212.5793337476207 122.21727140713483,218.7530517532723 127.30638607498258,217.27136151189916 130.88761491514742,211.34458740940318 130.32215772941709,188.87204469623975 119.95544266700745,180.96954028925393 115.99724236968905,181.95735538343433 112.98147071618587,191.09461732942145 115.05481372773647,214.06102814828046 126.55244316160679,217.51830997690558 133.52641511242837,213.5671301606344 131.0761006437242,187.88423368881922 118.82452829554677,181.7104016650701 112.79298498667777,191.34156966151204 113.54692790005356,211.59153674962 119.20149975270033,218.01220679690596 129.3797290874645,218.25915515213273 130.5106434589252,215.54272123624105 131.45307209994644,190.3537601128919 126.17547170445323,182.6982163208304 120.52089985087514,181.46344790933654 113.92389935720712,186.64946910867002 113.54692790005356,213.81407917232718 124.2906144214794,218.25915515213273 131.0761006437242,210.60373916930985 129.75670054461807,186.64946910867002 122.97121432144195,181.21649411786348 116.3742138268426,181.21649411786348 111.47358488757163,195.5397537278477 115.80875664111227,215.54272123624105 123.72515723481774,217.27136151189916 132.39550074283034,210.1098401596537 129.19124335981905,185.16775040782522 118.25907111167908,181.7104016650701 115.05481372773647,183.43907693016808 112.79298498667777,200.97268216277007 116.56269955541939,217.27136151189916 125.798500248231,218.01220679690596 131.0761006437242,209.8628906001104 128.24881471693516,185.41470361547545 121.8402999509126,179.48781655391213 113.73541362863034,184.42689056519885 113.92389935720712,213.32018111238722 121.27484276518226,219.0 131.64155782945454,212.8262829054147 129.75670054461807,185.90860992192756 121.0863570375368,179.48781655391213 113.3584421724081,185.6616567868041 113.54692790005356,211.34458740940318 122.21727140713483,218.50610347138718 130.5106434589252,214.06102814828046 129.75670054461807,188.87204469623975" stroke="#4DD2FF" stroke-linecap="round" stroke-linejoin="round" stroke-width="0.5"><title>2025-03-21 4.2km</title><desc>1742565279000</desc></polyline><polyline fill="none" points="169.49639275390655,180.52503410715144 164.08681238768622,178.5 162.5412179972045,180.3562814015895 161.63962126895785,198.91892949386965 168.7235955586657,202.29392400861252 174.13317592488602,196.72517771157436 171.04198714485392,180.01877591677476 164.60201051738113,179.68127033195924 160.73802454164252,184.06883515475783 164.2156119197607,201.1126770627452 168.85239509120584,202.9689217148116 173.23157919803634,199.76267905777786 173.10277966503054,182.71881700423546 167.5643997658044,179.3437646473758 163.18521565943956,179.85002313693985 160.866824073717,184.2375873111887 162.670017529279,200.10017870832235 167.95079836342484,203.6439190218225 172.45878200186417,200.77517771103885 173.23157919803634,183.3938262789743 168.98119462374598,180.01877591677476 161.63962126895785,181.20004467794206 161.38202220434323,196.89392799849156 164.08681238768622,202.29392400861252 167.17800116818398,203.13767107913736 172.45878200186417,200.26892849674914 172.97398013202474,182.5500646235887 171.5571852750145,180.18752867158037 165.89000584324822,179.512517502415 162.15481939958408,182.0438073311234 160.99562360625714,192.84391423675697 165.11720864800736,202.80017232545651 172.0723834047094,201.45017631491646 173.48917826265097,183.73133076680824 172.97398013202474,181.20004467794206 165.76120631024241,179.68127033195924 162.02601986657828,182.887569360435 163.70041378960013,199.93142889556475 165.89000584324822,202.80017232545651 172.45878200186417,202.12517451972235 173.10277966503054,188.11888003116474 166.66280303755775,197.737679057871 164.85960958199576,203.98141752567608 166.01880537485704,219.0 172.20118293724954,217.1437814006349 173.61797779565677,204.99391243990976 171.5571852750145,181.53754981374368 165.24600818008184,178.83750593382865 160.73802454164252,182.5500646235887 161.63962126895785,197.231428496656 167.5643997658044,203.30642041831743 172.97398013202474,199.76267905777786 173.61797779565677,183.5625785352895 167.04920163564384,178.66875297972 162.15481939958408,181.53754981374368 161.76842080196366,199.08767945633736 166.79160257056355,202.9689217148116 172.84518060041592,199.256429394125 173.36037872964516,182.71881700423546 167.43560023326427,178.66875297972 163.05641612736508,181.3687972582411 162.79881706181914,201.45017631491646 166.01880537485704,204.15016674087383 170.01159088360146,203.6439190218225 172.0723834047094,200.60642799758352 174.26197545789182,184.7438436311204" stroke="#4DD2FF" stroke-linecap="round" stroke-linejoin="round" stroke-width="0.5"><title>2025-03-10 4.0km</title><desc>1741591515000</desc></polyline><polyline fill="none" points="43.10111868195236,235.03853403311223 32.40092412568629,228.28847319935448 24.078550580888987,234.25968218350317 24.27670233231038,262.03851807664614 30.419406614266336,267.490387588623 41.119601170532405,261.0000648229616 40.52514591719955,236.33661968249362 34.97689688857645,229.32694578415249 23.682247078977525,234.0000648240093 23.484095327556133,261.7789048200939 28.636040854267776,266.4519375571981 41.31775292288512,261.7789048200939 41.91220817528665,236.59623669751454 33.78798638191074,228.80770956887864 24.27670233231038,234.0000648240093 24.871157585643232,262.03851807664614 31.410165370441973,267.2307751378976 38.34547665622085,265.67309963086154 41.71405642386526,260.4808379658498 41.71405642386526,237.8943211955484 33.98613813333213,229.06732769554947 23.880398830398917,234.7789167886367 24.27670233231038,259.4423837919021 31.608317120932043,267.490387588623 41.51590467337519,261.2596781940665 40.72329766955227,233.74044742505066 29.824951360933483,228.80770956887864 24.27670233231038,233.74044742505066 24.871157585643232,263.0769707157742 32.59907587617636,267.2307751378976 41.51590467337519,261.0000648229616 41.31775292288512,237.3750875114929 34.58059338666499,228.80770956887864 27.248978598043323,229.58656383503694 23.285943577066064,234.25968218350317 23.682247078977525,260.74045141320676 31.21201361902058,266.9711626494536 41.31775292288512,261.0000648229616 39.93069066479802,233.22121251316275 33.3916828809306,227.25 23.087791825644672,234.0000648240093 23.682247078977525,260.74045141320676 33.78798638191074,266.9711626494536 40.92144942097366,260.74045141320676 40.326994167640805,233.74044742505066 33.19353112857789,227.50961835728958 21.898881318978965,235.2981512399856 24.078550580888987,262.557744472404 35.76950389333069,266.9711626494536 41.119601170532405,261.51929152640514 40.12884241621941,232.44235985830892 29.824951360933483,228.54809140297584 23.682247078977525,233.74044742505066 23.682247078977525,260.74045141320676 33.78798638191074,267.2307751378976 41.51590467337519,261.0000648229616 41.91220817528665,235.2981512399856 32.99537937901914,228.54809140297584 23.285943577066064,236.0770026295213 23.880398830398917,263.33658378000837 30.419406614266336,267.75 40.52514591719955,261.0000648229616 42.902966930530965,235.03853403311223" stroke="#4DD2FF" stroke-linecap="round" stroke-linejoin="round" stroke-width="0.5"><title>2025-03-09 4.1km</title><desc>1741514669000</desc></polyline><polyline fill="none" points="70.40724259614944,250.8288733732188 76.9706897456199,264.4212658269098 82.47551638726145,264.6986605670536 89.0389635367319,258.0411755006062 85.65137791074812,227.52740023168735 71.04241490084678,227.25 65.53758825920522,233.63019495876506 73.7948282212019,260.81513047998305 86.70999841950834,263.31168645829894 90.52103224769235,251.38366682827473 85.8631020123139,233.63019495876506 89.67413584142923,231.13359951367602 67.8665533773601,240.0103682357585 68.92517388425767,236.68158488313202 76.9706897456199,241.6747576991329 73.7948282212019,247.77750644064508 75.912069237791,264.4212658269098 85.22792970761657,264.14387104671914 89.88585994299501,256.93159236118663 81.62861998006701,229.74660060973838 68.92517388425767,228.35960068064742 64.47896775137633,235.29459007806145 71.25413900241256,251.1062701214105 70.830690799281,260.26033981284127 81.41689587943256,267.47260571061634 87.34517072420567,256.6541964740027 83.9575850982219,233.0753962578019 72.52448361180723,227.52740023168735 65.11414005607367,233.63019495876506 69.98379439301789,262.479501501075 82.68724048882723,267.75 87.98034302890301,259.70554898062255 86.70999841950834,229.19180076068733 72.73620771430433,228.35960068064742 69.34862208738923,241.11996137537062" stroke="#4DD2FF" stroke-linecap="round" stroke-linejoin="round" stroke-width="0.5"><title>2025-03-05 1.9km</title><desc>1741161630000</desc></polyline></svg>