<?xml version="1.0" encoding="utf-8" ?>
<svg baseProfile="full" height="300mm" version="1.1" viewBox="0,0,200,300" width="200mm" xmlns="http://www.w3.org/2000/svg" xmlns:ev="http://www.w3.org/2001/xml-events" xmlns:xlink="http://www.w3.org/1999/xlink"><defs /><rect fill="#222222" height="300" width="200" x="0" y="0" /><text fill="#FFFFFF" style="font-size:12px; font-family:Arial; font-weight:bold;" x="10" y="20">Over 10km Runs</text><text fill="#FFFFFF" style="font-size:4px; font-family:Arial" x="10" y="280">ATHLETE</text><text fill="#FFFFFF" style="font-size:9px; font-family:Arial" x="10" y="290">TXyy2025</text><text fill="#FFFFFF" style="font-size:4px; font-family:Arial" x="65" y="280">SPECIAL TRACKS</text><rect fill="yellow" height="2.6" width="2.6" x="65" y="283" /><text fill="#FFFFFF" style="font-size:3px; font-family:Arial" x="70" y="285.5">Over 20.0 km</text><rect fill="red" height="2.6" width="2.6" x="65" y="287" /><text fill="#FFFFFF" style="font-size:3px; font-family:Arial" x="70" y="289.5">Over 40.0 km</text><text fill="#FFFFFF" style="font-size:4px; font-family:Arial" x="120" y="280">STATISTICS</text><text fill="#FFFFFF" style="font-size:3px; font-family:Arial" x="120" y="285">Number: 13</text><text fill="#FFFFFF" style="font-size:3px; font-family:Arial" x="120" y="290">Weekly: 2.6</text><text fill="#FFFFFF" style="font-size:3px; font-family:Arial" x="141" y="285">Total: 77.7 km</text><text fill="#FFFFFF" style="font-size:3px; font-family:Arial" x="141" y="290">Avg: 6.0 km</text><text fill="#FFFFFF" style="font-size:3px; font-family:Arial" x="167" y="285">Min: 1.5 km</text><text fill="#FFFFFF" style="font-size:3px; font-family:Arial" x="167" y="290">Max: 35.9 km</text><polyline fill="none" points="13.474941451990162,60.30639647018688 13.762646370014409,60.57149027504602 14.492974238863098,60.39338065117772 14.768032786872936,60.19455926952833 15.450936768145766,60.07029519005118 15.703864168623113,60.115858749795734 16.996955503505887,59.842476280589835 18.855971896948176,59.15900844509997 19.077283372345846,59.125870187162946 19.9182669789152,59.245996185849435 20.174355971888872,59.19214666387779 22.355854800945963,59.61051330719965 24.862997658070526,60.869717809651775 26.981264636997366,61.196936038399144 27.14882903981197,61.37089860528249 27.31007025760482,61.44131171836489 28.293325526930857,61.590421256529226 28.577868852458778,61.41646005159055 30.70562060888915,61.72296240255491 32.13149882903963,61.60284701557066 34.51533957844367,61.888637954083606 35.09074941452127,60.97326829505255 35.58711943794333,59.58980223411345 36.282669789216015,58.42995772228096 37.76861826698587,54.96670785076276 38.64121779859124,53.255638216347506 39.096487119430094,51.954658229020424 40.196721311469446,50.512737240002025 41.4929742388631,48.585916664607794 42.06838407492614,47.58308880531149 42.15690866508521,47.32616018991757 42.34660421546141,45.24163610212963 42.428805620613275,45.154604884866785 43.02318501169793,45.183615320662284 43.19391100702342,45.24992477538399 43.503747072594706,46.352296468750865 44.05386416861438,46.92418650084801 44.74625292739074,47.334448246529064 45.19519906322239,47.786143625005934 45.31533957844658,47.95604550670396 45.48290398126119,48.49060812217067 46.53571428571013,49.0168729835932 46.68430913348857,49.53484055851004 47.47470725995663,50.239261096690825 48.22084309134516,51.25856770356222 48.91323185010697,51.867647858811324 49.29262295081571,52.393849308076824 49.390632318507414,52.439425346659846 49.8269320843101,52.38141946651194 50.019789227168076,52.29855371519625 50.13360655737051,52.335843333607045 50.143091334888595,52.48085804468246 50.02927400468616,52.84131993317351 50.7311475409806,53.413077558123405 50.70269320842635,53.78181360801682 50.987236533968826,54.21269003712223 50.924004683838575,54.5565578195874 51.01252927399764,54.7222757264517 51.505737704908825,55.07442302555501 52.89999999999418,55.85327428027085 53.054918032779824,56.221978231551475 53.0233021077147,56.70252891123346 53.08337236533407,56.85994889434369 53.560772833719966,56.988369804792455 53.69355971897312,57.07536428084859 53.70936768149841,57.257637545784746 53.42166276347416,57.80030774983243 53.43114754097769,57.974291392964005 53.624004683835665,58.03642814669547 54.11088992973964,57.680175556541144 54.27845433255425,57.72574300079941 54.30690866509394,59.109301043503365 54.3827868852386,59.34955266816178 54.578805620607454,59.498673330750535 55.4419203747093,59.66436202564182 55.60000000000582,59.809338830462366 55.58735362996231,62.40222594312945 55.4482435597165,62.381516932015074 55.05304449646792,62.091589170673615 54.427049180318136,61.90934732918322 54.133021077286685,61.97561722677165 51.9293911006971,62.82882816930214 50.21264637002605,62.845395115133215 50.1841920374718,62.79569424827423 50.45608899297076,62.2034188051839 50.93032786884578,61.710536696722556 50.92716627634945,61.027114396330944 51.319203747072606,60.31468068952563 51.518384074937785,60.07857947915181 51.518384074937785,59.94603055982043 51.45199063231121,59.854902814286106 51.10421545666759,59.511100016827186 50.79754098360718,59.41168637397095 50.487704918021336,59.41168637397095 49.66885245901358,58.881474325198724 49.425409836068866,58.78620078493259 49.19461358313856,58.591510369764364 48.48957845433324,58.39681860258679 48.2714285714319,58.06542525131772 48.45480093677179,57.79202278750017 48.41686182669946,57.613895505410255 48.062763466034085,57.6056104880081 47.88571428571595,57.390199175923044 47.38302107727213,57.27420778384476 47.16170960185991,57.253494984744975 46.76018735363323,57.34877373384916 46.50725995317043,57.2659226660453 46.304918032779824,57.37362900643711 46.118384074943606,58.09442232593756 45.81170960186864,58.62464925931272 45.84016393442289,58.939466756424736 45.78009367681807,59.034739775857815 45.685245901637245,59.03888207371347 45.19519906322239,58.50037822153354 44.80316159249924,58.26426173214895 44.69882903981488,58.119276937448376 44.61346604215214,57.92458189081117 44.66088992974255,57.112647545103755 44.58817330210877,56.98008460251367 44.00327868851309,56.90551767184115 42.90304449648829,57.00079760362314 41.92611241216946,56.40011435814995 41.81545667446335,56.17640834291524 41.69847775175003,55.24013787083095 42.191686182661215,54.15054480706749 42.201170960164745,53.959965242424005 40.99344262294471,52.07067163575448 39.89953161592712,51.04725108739876 39.564402810297906,50.82350234532532 39.76990632318484,50.91880295387273 39.71615925057267,51.07211194847514 39.105971896948176,51.880077928244646 38.353512880552444,52.55543674679757 37.215339578455314,54.59384443405361 35.64718969554815,58.41338816732423 35.49859484776971,59.70164184705209 35.07494145198143,60.9774103065065 34.46159250586061,61.93419855913453 33.766042154544266,61.77266517079261 32.31170960186864,61.62769851716075 30.721428571414435,61.72710430327061 28.552576112400857,61.41231810496902 28.280679156901897,61.60284701557066 27.303747072597616,61.42888588773167 26.981264636997366,61.1886520797143 24.904098360653734,60.87385983641798 22.324238875880837,59.57737558291774 20.30081967213482,59.20043121245544 20.098477751744213,59.179719836431104 19.934074941440485,59.23356938226425 19.108899297425523,59.09687417933492 18.805386416861438,59.13829703848205 17.050702576103504,59.79691227656076 16.070608899288345,59.96674136977708 15.634309133485658,60.11171661106346 15.412997658073436,60.05372660450848 14.821779859485105,60.16142223552379 14.420257611229317,60.4058069407256 13.696252927402384,60.55492198565844 13.47810304450104,60.30639647018688 13.512880562062492,59.506957788753425 12.864754098365665,59.27084977648519 12.463231850109878,58.73649272235343 12.39999999999418,58.54594433267448 12.662412177975057,58.52937484628637 12.72248243559443,58.458954419858856 12.659250585493282,58.409245777063916" stroke="yellow" stroke-linecap="round" stroke-linejoin="round" stroke-width="0.5"><title>2025-04-05 35.9km</title><desc>1743843004000</desc></polyline><polyline fill="none" points="108.24312867596745,50.914329478982836 105.29915415123105,57.8571861111559 98.82241019234061,42.428603284526616 97.0560254752636,65.57146042725071 104.12156433984637,49.371471198275685 107.06553886830807,63.25717932963744 97.64482037723064,64.80003350926563 102.9439745284617,42.428603284526616 93.52325604110956,42.428603284526616 111.77589811012149,70.97144566709176 97.0560254752636,51.685758450534195 106.47674395889044,58.628614055458456 97.0560254752636,64.02860647533089 104.71035924181342,44.742893615271896 105.8879490531981,54.77147319307551 92.93446113541722,56.31432987935841 102.35517962276936,60.9428972043097 100.0,74.82857456384227 104.71035924181342,56.31432987935841 105.29915415123105,67.11431392142549 94.70084584876895,50.914329478982836 105.8879490531981,64.80003350926563 97.64482037723064,58.628614055458456 97.64482037723064,65.57146042725071 95.28964075818658,54.00004467880353 109.42071848735213,54.00004467880353 97.64482037723064,32.40000000037253 105.29915415123105,67.88574049901217 102.9439745284617,45.51432349625975 104.12156433984637,64.80003350926563 87.63530698418617,54.77147319307551 101.76638471707702,62.485752067994326 98.82241019234061,51.685758450534195 105.8879490531981,62.485752067994326 107.06553886830807,47.82861245935783 101.76638471707702,66.34288723068312 95.28964075818658,59.40004188613966 100.0,73.2857233453542 91.75687132403255,68.6571669629775 99.41120509430766,52.45718730613589 102.9439745284617,67.88574049901217 99.41120509430766,53.22861604904756 111.77589811012149,59.40004188613966 104.71035924181342,47.82861245935783 98.23361528292298,63.25717932963744 94.1120509468019,50.914329478982836 102.35517962276936,59.40004188613966 111.77589811012149,42.428603284526616 100.58879490569234,52.45718730613589 101.76638471707702,75.60000000009313 100.58879490569234,50.14290039567277 112.36469301581383,64.02860647533089 105.29915415123105,48.60004188679159 102.9439745284617,67.11431392142549 92.93446113541722,51.685758450534195 103.53276943415403,40.11431192746386 104.12156433984637,69.42859331285581 97.0560254752636,58.628614055458456 101.76638471707702,47.057182918768376 100.0,65.57146042725071 109.42071848735213,56.31432987935841 100.0,69.42859331285581 97.0560254752636,50.914329478982836 111.77589811012149,67.11431392142549 97.64482037723064,57.8571861111559 100.0,74.05714901117608 104.12156433984637,57.08575805136934 94.70084584876895,57.08575805136934 96.46723056584597,66.34288723068312 104.71035924181342,54.77147319307551 94.1120509468019,52.45718730613589 101.17758981138468,69.42859331285581 98.82241019234061,54.77147319307551 104.71035924181342,60.9428972043097 96.46723056584597,70.97144566709176 95.28964075818658,47.82861245935783 104.12156433984637,62.485752067994326" stroke="#4DD2FF" stroke-linecap="round" stroke-linejoin="round" stroke-width="0.5"><title>2025-04-04 1.7km</title><desc>1743771861000</desc></polyline><polyline fill="none" points="173.99331505037844,32.39999999990687 164.40133699029684,35.018211797694676 159.20568220783025,42.34918425034266 160.60451234132051,70.62550819676835 166.59949862957,74.81455485429615 170.9958219062537,73.50547883717809 174.3929808018729,67.22190049709752 173.59364929609,40.77826413465664 164.40133699029684,36.58913701958954 157.20735344476998,46.276478445273824 159.60534796025604,70.1018766692141 161.80350959859788,73.76729411853012 170.19649040140212,74.0291093600681 174.9924794305116,67.74553287646268 171.99498628731817,42.08736432774458 165.40050137043,36.327316245646216 157.80685207340866,43.396463553304784 159.20568220783025,70.88732390315272 170.5961561538279,73.76729411853012 175.79181093536317,66.69826796278358 172.39465203974396,39.99280355486553 165.40050137043,36.327316245646216 159.20568220783025,39.469162975554354 158.20651782676578,68.00734900787938 164.6011698655784,74.81455485429615 175.1923123067245,69.57824498589616 174.3929808018729,43.396463553304784 165.6003342466429,36.58913701958954 156.20818906463683,44.181922624702565 157.20735344476998,65.12736943177879 163.20233973208815,74.55273972847499 171.59532053489238,73.24366351834033 175.79181093536317,66.43645163753536 174.19314792566,43.920102973119356 164.6011698655784,36.327316245646216 156.6078548161313,44.443742237985134 159.20568220783025,71.93458634137642 170.79598902910948,73.24366351834033 175.79181093536317,65.12736943177879 171.79515341110528,41.30190432840027 162.20317535102367,37.63641972630285 156.6078548161313,44.70556181273423 158.80601645447314,70.62550819676835 167.79849588684738,74.81455485429615 174.3929808018729,70.62550819676835 175.79181093536317,65.12736943177879 172.79431779123843,40.2546237873612 162.20317535102367,36.85095775406808 157.20735344476998,45.49102030333597 158.40635070297867,68.79279717057943 164.20150411408395,74.81455485429615 175.1923123067245,68.79279717057943 174.3929808018729,42.34918425034266 164.40133699029684,36.58913701958954 156.6078548161313,43.13464378588833 158.40635070297867,70.88732390315272 162.20317535102367,74.55273972847499 171.1956547824666,73.76729411853012 175.39214518293738,66.1746352739865 174.3929808018729,42.61100413440727 168.39799451455474,36.327316245646216 159.60534796025604,38.16006084799301 156.6078548161313,42.61100413440727 159.40551508404315,72.72003276331816 168.39799451455474,75.59999999997672 175.5919780600816,69.05461314797867 174.9924794305116,49.4183075359324" stroke="#4DD2FF" stroke-linecap="round" stroke-linejoin="round" stroke-width="0.5"><title>2025-04-02 4.0km</title><desc>1743590878000</desc></polyline><polyline fill="none" points="27.594520464539528,90.03066004393622 24.024253183044493,90.03066004393622 23.604221737012267,110.66762101126369 29.27464624401182,121.67390669311862 42.29562103562057,116.17077198252082 41.455558146350086,99.38611068448517 44.60579398274422,98.01031206711195 39.35540092084557,83.70194619649556 24.65430035069585,85.90324040863197 24.65430035069585,111.76825250638649 29.27464624401182,120.57328105170745 40.61549525614828,116.996243225527 41.245542423799634,91.40646455506794 35.78513363935053,81.77581162645947 24.024253183044493,87.82937070983462 23.604221737012267,111.21793684002478 28.854614798910916,120.29812454036437 35.78513363935053,121.67390669311862 42.08560531400144,115.89561482064892 41.87558959051967,89.48033795435913 32.00485063623637,81.50064938270953 25.07433179486543,86.45356355526019 24.444284628145397,112.59372570097912 32.42488208040595,121.1235939541366 37.255243697203696,120.57328105170745 42.9256682023406,112.86888335132971 41.87558959051967,88.10453201911878 34.315023582428694,81.50064938270953 24.65430035069585,85.07775538449641 25.07433179486543,115.07014308916405 34.105007860809565,121.9490630015498 41.665573867969215,114.24467099248432 42.715652480721474,87.00388653913978 33.26494497060776,80.95032477274071 24.65430035069585,89.48033795435913 25.704378962516785,114.51982839836273 34.315023582428694,121.9490630015498 41.245542423799634,118.3720278183464 43.76573109347373,111.21793684002478 41.245542423799634,86.17840200266801 33.89499213732779,80.95032477274071 25.28434751741588,86.72872506803833 25.494363239966333,113.96951354586054 32.00485063623637,121.39875034394208 41.455558146350086,117.2714002255816 42.9256682023406,88.10453201911878 33.68497641570866,81.22548709844705 23.39420601632446,87.82937070983462 24.8643160732463,116.72108618565835 33.26494497060776,123.04968783061486 42.29562103562057,116.72108618565835 41.665573867969215,86.45356355526019 33.26494497060776,81.50064938270953 24.024253183044493,87.55420936062 26.124410407617688,118.3720278183464 32.844913525506854,122.77453168411739 39.56541664432734,122.2242192698177 42.50563675817102,116.996243225527 42.08560531400144,88.10453201911878 33.05492924898863,80.40000000002328 24.444284628145397,87.82937070983462 27.594520464539528,118.096870980924 30.53474057931453,121.9490630015498 41.245542423799634,123.59999999997672 43.76573109347373,90.03066004393622" stroke="#4DD2FF" stroke-linecap="round" stroke-linejoin="round" stroke-width="0.5"><title>2025-03-30 4.0km</title><desc>1743343343000</desc></polyline><polyline fill="none" points="109.667854109779,86.26672734075692 107.42898263223469,88.6667466656072 102.34063836373389,84.13337415037677 104.78304361179471,86.26672734075692 104.98657738324255,83.0666966100689 98.4734967192635,80.40000000002328 91.55334851425141,83.60003545926884 88.90740949474275,109.46678046835586 92.16394982673228,119.60004343639594 101.5265032807365,123.59999999997672 109.667854109779,118.00005832850002 111.29612427577376,111.06677313963883 111.49965804629028,104.40012765082065 106.00424623675644,84.400043437141 96.03109147120267,82.00001843879 88.50034195370972,92.13343561254442 93.18161868024617,119.33337934955489 102.54417213518173,122.53334578278009 110.07492165174335,115.33341333118733 108.44665148481727,86.00005832966417 98.26996294874698,81.73334879789036 90.33214589115232,89.7334208971588 92.97808490972966,118.53338685515337 103.35830721724778,121.73335470585153 109.46432034019381,115.33341333118733 108.44665148481727,84.93338189274073 96.4381590122357,82.53335760335904 90.73921343218535,89.7334208971588 91.75688228476793,114.53341906308196 97.65936163719743,121.46669093554374 104.5795098412782,121.46669093554374 110.4819891937077,115.33341333118733 108.6501852562651,86.5333963126177 96.03109147120267,83.0666966100689 89.11094326619059,90.80009449797217 92.16394982673228,115.86674264608882 101.93357082176954,121.73335470585153 110.27845542225987,114.26675422873814 109.46432034019381,89.20008386031259 100.71236819867045,83.33336605411023 95.82755769975483,83.60003545926884 91.14628097321838,90.00008935690857 93.38515245076269,118.26672261173371 104.5795098412782,122.26668213063385 109.667854109779,115.06674861488864 107.42898263223469,85.7333892795723 100.30530065577477,81.46667911682744 91.55334851425141,87.86674057901837 92.77455113921314,115.33341333118733 98.67703048978001,122.26668213063385 104.78304361179471,121.46669093554374 109.46432034019381,115.60007800767198 109.05725279729813,88.40007800969761 100.30530065577477,82.26668804034125 91.55334851425141,88.93341528286692 91.55334851425141,114.00008935434744 96.64169278275222,120.93336327536963 102.74770590476692,122.26668213063385 109.26078656874597,116.66673632210586 108.24311771523207,89.46675239829347 99.69469934422523,82.53335760335904 90.73921343218535,89.7334208971588 91.75688228476793,117.20006524282508 99.69469934422523,122.80000939592719 109.26078656874597,115.33341333118733 107.83605017326772,86.00005832966417 99.28763180226088,81.73334879789036 89.92507834825665,91.8667674686294 91.75688228476793,116.66673632210586 102.34063836373389,122.53334578278009 109.46432034019381,112.66676439356524 108.03958394378424,87.06673413759563 98.88056426122785,82.53335760335904 90.94274720270187,91.06676279916428 92.36748359724879,117.20006524282508 98.4734967192635,122.80000939592719 108.44665148481727,118.26672261173371" stroke="#4DD2FF" stroke-linecap="round" stroke-linejoin="round" stroke-width="0.5"><title>2025-03-30 4.5km</title><desc>1743327729000</desc></polyline><polyline fill="none" points="173.01725888298824,82.10366101231193 173.12690355302766,83.54024920024676 165.89035532949492,87.41902670485433 162.38172588776797,87.56268483353779 165.23248730925843,96.75676093599759 157.11878172587603,97.331387805345 157.5573604060337,101.9283905380289 151.30761421332136,99.19892278680345 146.2639593910426,100.77914189232979 144.39999999990687,106.23806086025434 145.49644670030102,119.74157084221952 149.9918781723827,122.61463387747062 155.14517766516656,119.74157084221952 157.44771573599428,97.76235773513326 162.71065989835188,97.18773111986229 167.20609137043357,98.19332747353474 177.07411167491227,109.25481872045202 179.15736040612683,109.54212850431213 181.3502538073808,104.94516176910838 187.60000000009313,110.26040259370347 185.84568527899683,117.87407531728968 185.51675126841292,108.823853884649 179.81522842636332,105.66343925445108 178.060913705267,109.25481872045202 175.53908629436046,107.38730305357603 162.8203045683913,87.8500010278076 172.68832487287,84.5458596686949 171.04365482227877,81.38536612252938" stroke="#4DD2FF" stroke-linecap="round" stroke-linejoin="round" stroke-width="0.5"><title>2025-03-29 1.5km</title><desc>1743247652000</desc></polyline><polyline fill="none" points="23.1660366889555,160.05256887938594 23.898061236948706,160.8198559776938 23.488127490039915,160.16766208878835 23.048912761267275,160.62803441574215 23.31244159862399,161.70223333776812 24.95217658614274,164.19589227432152 26.91400237486232,165.9222575093154 27.616745941108093,164.34934742664336 27.2068121941993,163.58207075795508 27.821712814387865,164.19589227432152 27.441060049575754,166.4593465749058 29.197918964899145,167.763701109041 35.43476811412256,168.7611442731286 39.91475834802259,171.60000000000582 45.03893018432427,170.52584202357684 46.06376455153804,168.91459672743804 45.4195829492528,145.74224900567788 44.59971545555163,144.09248314064462 42.75501359440386,142.7112757495779 40.35397307691164,141.29169382966938 37.66012274019886,142.02066929859575 35.932544806739315,139.68026710863342 33.50222330726683,131.81482646553195 34.52705767459702,131.39277169469278 35.200520258629695,133.27282857664977 37.07450310164131,133.5797753460938 37.747965685790405,132.35198609065264 36.957379173953086,128.63021443213802 35.31764418631792,128.39999999999418 34.14640490943566,129.16738064656965 32.360265012364835,129.2824875479273 30.427720205509104,130.47192254007678 25.39139131491538,131.0858223393152 22.316888213157654,132.39035459281877 23.107474724994972,136.45738366126898 21.99479741207324,139.41169501614058 21.936235448345542,147.39200438771513 22.287607231293805,155.37206847892958 23.195317670935765,159.13182136858813" stroke="#4DD2FF" stroke-linecap="round" stroke-linejoin="round" stroke-width="0.5"><title>2025-03-25 3.9km</title><desc>1742910133000</desc></polyline><polyline fill="none" points="106.86924345046282,128.39999999990687 92.44383220560849,140.77512524276972 91.58517677523196,145.95014779665507 96.05018501728773,169.57502737501636 101.88904194906354,170.47501554060727 107.55616779439151,166.20006701606326 105.66712584532797,143.7001401517773 102.40423520747572,138.97511327522807 95.01979849953204,139.42511646659113 92.44383220560849,148.87515276682097 94.6763363275677,168.67503867694177 102.06077303551137,170.70001249876805 107.04097453504801,166.42506460647564 106.35405019111931,142.3501339686336 98.2826891373843,137.40010105865076 93.13075655139983,141.45012918161228 92.61556329205632,165.9750693932874 100.17173108644783,170.47501554060727 106.69751236308366,166.87505968590267 106.86924345046282,146.1751483794069 105.15193258691579,140.32512245047837 100.34346217289567,137.62510290392675 96.22191610280424,137.62510290392675 91.75690786074847,143.47513920406345 92.78729437850416,165.9750693932874 98.7978823967278,170.92500942363404 106.86924345046282,166.87505968590267 106.01058801822364,142.5751350823557 99.31307565513998,137.40010105865076 91.58517677523196,145.05014513793867 92.10037003364414,165.9750693932874 100.68692434486002,170.47501554060727 107.21270562242717,164.40008510032203 106.86924345046282,143.0251372095663 100.85865543130785,136.95009726891294 92.78729437850416,141.45012918161228 91.75690786074847,164.40008510032203 96.56537827569991,170.70001249876805 100.34346217289567,170.92500942363404 107.21270562242717,163.95008928887546 106.01058801822364,140.77512524276972 98.2826891373843,137.17509918066207 92.10037003364414,145.50014653382823 92.95902546495199,166.87505968590267 96.90884044766426,170.47501554060727 102.06077303551137,170.02502152416855 107.72789888083935,163.50009334424976 105.66712584532797,140.77512524276972 97.25230261962861,138.07510649354663 92.10037003364414,145.95014779665507 94.16114306822419,168.45004141971003 100.68692434486002,171.15000631578732 107.21270562242717,167.1000571764307 107.21270562242717,146.40014892769977 106.52578127663583,141.67513042862993 100.68692434486002,136.95009726891294 92.78729437850416,140.10012100462336 92.44383220560849,166.42506460647564 99.48480674158782,170.47501554060727 104.29327715653926,169.57502737501636 107.89962996728718,164.85008077824023 106.52578127663583,142.3501339686336 101.2021176032722,137.17509918066207 94.16114306822419,138.97511327522807 91.75690786074847,143.0251372095663 92.27210111916065,164.40008510032203 100.17173108644783,171.59999999997672 107.72789888083935,168.67503867694177 108.41482322476804,145.27514585282188" stroke="#4DD2FF" stroke-linecap="round" stroke-linejoin="round" stroke-width="0.5"><title>2025-03-24 4.1km</title><desc>1742817301000</desc></polyline><polyline fill="none" points="166.10705345962197,131.48574688204098 162.467235785909,128.9610452608904 157.11456273682415,134.0104451472871 157.75688350293785,161.78190449031536 165.4647326944396,171.0389673373429 175.52775802928954,164.0260450829519 175.09954418521374,135.69357545813546 169.31865729019046,129.2415678286925 156.90045581385493,133.1688794316724 157.75688350293785,162.62345752306283 164.1800911622122,170.47793451044708 168.89044344704598,170.75845094502438 175.52775802928954,164.58707981591579 174.45722341910005,135.41305384365842 165.6788396164775,128.6805226507131 156.68634889274836,136.81566150381695 157.11456273682415,160.94035108399112 164.8224119283259,171.59999999997672 175.09954418521374,165.98966592468787 175.74186495132744,136.2546185636893 163.96598424110562,128.40000000002328 158.18509734701365,133.4494013779331 157.11456273682415,161.50138672953472 166.9634811487049,171.59999999997672 175.09954418521374,165.7091487860307 174.88543726317585,134.0104451472871 163.96598424110562,128.40000000002328 157.54277658089995,136.81566150381695 157.97099042497575,166.27018302236684 165.6788396164775,171.59999999997672 176.17007879540324,165.7091487860307 174.24311649706215,134.0104451472871 167.39169499184936,128.40000000002328 157.75688350293785,135.69357545813546 158.18509734701365,164.0260450829519 165.250625773333,171.0389673373429 175.52775802928954,166.27018302236684 174.45722341910005,137.65722560312133 163.96598424110562,128.40000000002328 155.61581428349018,136.81566150381695 157.32866965886205,162.3429398870794 162.68134270887822,170.47793451044708 174.67133034020662,166.27018302236684 175.31365110632032,135.41305384365842 167.81990883685648,128.6805226507131 156.25813504867256,135.69357545813546 156.90045581385493,162.0624222093029 165.4647326944396,170.47793451044708 170.38919190131128,170.1974180348916 176.38418571650982,162.90397511736955 175.52775802928954,136.53514005464967 172.10204727668315,130.64418004790787 164.3941980842501,128.6805226507131 156.90045581385493,138.2182681277627 157.97099042497575,163.18449267116375 163.96598424110562,170.75845094502438 175.09954418521374,165.7091487860307 175.31365110632032,135.69357545813546 171.45972651150078,130.08313528448343 162.68134270887822,128.6805226507131 157.32866965886205,136.53514005464967 157.97099042497575,164.58707981591579 164.3941980842501,171.59999999997672 175.74186495132744,165.7091487860307 176.38418571650982,136.53514005464967 168.89044344704598,171.59999999997672" stroke="#4DD2FF" stroke-linecap="round" stroke-linejoin="round" stroke-width="0.5"><title>2025-03-23 4.2km</title><desc>1742719228000</desc></polyline><polyline fill="none" points="28.270033856853843,176.39999999990687 24.450056427158415,181.4049316587625 26.460570863448083,214.5951755597489 36.31209160294384,218.0195306420792 44.555200792849064,208.00985884002876 42.74573780037463,186.9366818832932 30.07949684932828,179.5610111033311 24.249004984274507,189.30742672481574 25.857416532933712,213.80493883800227 32.89421706087887,218.28294229891617 42.74573780037463,212.2244643426966 41.74048058129847,185.35618357046042 31.084754068404436,178.77075885247905 24.249004984274507,185.61960005317815 25.254262201488018,212.75128933077212 33.698422835208476,219.33658853685483 39.12681181449443,217.75611894612666 42.946789243258536,211.43422657006886 42.34363491181284,187.46351434267126 31.285805511288345,179.03417630854528 27.063725194893777,180.08784574235324 23.846902096644044,189.83425848477054 26.058467976748943,214.33176335820463 38.322606039233506,218.0195306420792 45.76150945387781,213.80493883800227 43.14784068707377,186.40984926803503 30.07949684932828,179.8244284427492 23.645850652828813,190.09767430566717 24.450056427158415,211.69763919955585 30.481599736958742,218.54635391675401 41.33837769366801,218.80976549559273 42.544686356559396,215.91223598539364 43.54994357377291,189.04401078703813 37.92050315160304,180.8780974088004 31.888959841802716,179.5610111033311 24.852159314788878,185.09276704920921 24.450056427158415,214.06835111719556 35.9099887162447,218.80976549559273 43.14784068707377,210.64398844726384 41.74048058129847,185.09276704920921 34.5026286104694,179.2975937257288 27.46582808252424,179.2975937257288 22.238490546122193,194.57573730975855 26.862673751078546,215.91223598539364 35.306834384799004,217.75611894612666 44.555200792849064,210.11716283706482 41.1373262507841,183.51226710167248 29.476342518813908,179.8244284427492 26.058467976748943,181.6683487255359 23.645850652828813,200.3708609736059 27.66687952633947,217.75611894612666 37.5184002649039,218.54635391675401 43.14784068707377,209.85374997346662 40.13206903170794,183.77568385656923 33.29631994757801,177.45367099088617 24.651107870973647,182.722016602871 24.852159314788878,213.54152651980985 32.69316561706364,219.59999999997672 43.75099501851946,213.01470176584553 41.74048058129847,184.30251725006383 32.49211417324841,177.45367099088617 24.249004984274507,184.03910057258327 24.450056427158415,211.43422657006886 33.698422835208476,219.0731770361308 42.544686356559396,214.33176335820463 41.74048058129847,187.46351434267126" stroke="#4DD2FF" stroke-linecap="round" stroke-linejoin="round" stroke-width="0.5"><title>2025-03-21 4.2km</title><desc>1742565279000</desc></polyline><polyline fill="none" points="102.12948560481891,178.5600363810081 96.35926654748619,176.40000000002328 94.7106325305067,178.38003349513747 93.74892935389653,198.18019146018196 101.305168596562,201.7801856091246 107.07538765389472,195.84018955903593 103.77811962133273,178.0200276444666 96.90881121903658,177.66002168739215 92.78722617821768,182.3400908317417 96.49665271444246,200.52018886688165 101.44255476398394,202.50018316239584 106.11368447821587,199.08019099500962 105.97629830939695,180.90007147111464 100.06869308371097,177.30001562391408 95.39756337041035,177.84002467943355 92.92461234563962,182.52009313192684 94.8480186983943,199.44019062211737 100.48085158783942,203.22018028993625 105.28936746902764,200.16018955840264 106.11368447821587,181.62008136429358 101.57994093187153,178.0200276444666 93.74892935389653,179.28004765638616 93.47415701812133,196.02018986502662 96.35926654748619,201.7801856091246 99.65653457958251,202.68018248432782 105.28936746902764,199.6201903965557 105.83891214104369,180.72006893181242 104.32766429334879,178.20003058295697 98.2826728997752,177.4800186691573 94.29847402637824,180.1800611532526 93.06199851399288,191.70017518592067 97.4583558915183,202.32018381380476 104.87720896536484,200.8801880691899 106.38845681399107,181.98008615116123 105.83891214104369,179.28004765638616 98.14528673142195,177.66002168739215 94.16108785802498,181.08007398445625 95.94710804242641,199.26019082195126 98.2826728997752,202.32018381380476 105.28936746902764,201.60018615436275 105.97629830939695,186.66013869980816 99.1069899071008,196.92019099509344 97.18358355434611,203.58017869410105 98.42005906719714,219.59999999997672 105.01459513325244,217.62003349408042 106.52584298234433,204.66017326922156 104.32766429334879,179.64005313476082 97.5957420594059,176.76000632939395 92.78722617821768,180.72006893181242 93.74892935389653,196.3801903964486 100.06869308371097,202.86018177948426 105.83891214104369,199.08019099500962 106.52584298234433,181.80008377088234 99.51914841169491,176.5800031783292 94.29847402637824,179.64005313476082 93.88631552224979,198.3601914200699 99.24437607545406,202.50018316239584 105.70152597408742,198.54019135376438 106.25107064517215,180.90007147111464 99.93130691582337,176.5800031783292 95.26017720252275,179.46005040872842 94.9854048662819,200.8801880691899 98.42005906719714,203.76017785689328 102.6790302763693,203.22018028993625 104.87720896536484,199.98018986405805 107.21277382224798,183.06009987322614" stroke="#4DD2FF" stroke-linecap="round" stroke-linejoin="round" stroke-width="0.5"><title>2025-03-10 4.0km</title><desc>1741591515000</desc></polyline><polyline fill="none" points="177.30785992741585,184.70776963524986 165.89431906677783,177.5077047458617 157.01712061930448,183.8769943289226 157.22848248668015,213.50775261502713 163.7807003883645,219.32308009441476 175.1942412480712,212.40006914443802 174.56015564501286,186.09239432797767 168.64202334731817,178.61540883628186 156.5943968836218,183.6000691454392 156.38303501531482,213.23083180806134 161.87844357732683,218.21540006098803 175.4056031163782,213.23083180806134 176.03968872036785,186.3693191439379 167.37385214027017,178.0615568733774 157.22848248668015,183.6000691454392 157.8625680906698,213.50775261502713 164.8375097271055,219.0461601470597 172.23517509922385,217.38463960622903 175.82832685206085,211.84622716344893 175.82832685206085,187.75394260848407 167.58521400857717,178.33848287526052 156.8057587519288,184.4308445744682 157.22848248668015,210.73854271124583 165.04887159448117,219.32308009441476 175.61696498375386,212.6769900736399 174.77151751331985,183.32314391992986 163.14661478437483,178.0615568733774 157.22848248668015,183.32314391992986 157.8625680906698,214.61543543008156 166.1056809341535,219.0461601470597 175.61696498375386,212.40006914443802 175.4056031163782,187.20009334548377 168.21929961256683,178.0615568733774 160.3989105038345,178.89233475725632 156.17167314887047,183.8769943289226 156.5943968836218,212.12314817402512 164.62614785972983,218.76924015930854 175.4056031163782,212.40006914443802 173.9260700410232,182.7692933472572 166.95112840551883,176.39999999990687 155.96031127963215,183.6000691454392 156.5943968836218,212.12314817402512 167.37385214027017,218.76924015930854 174.98287938162684,212.12314817402512 174.3487937785685,183.32314391992986 166.73976653721184,176.67692624765914 154.69214007351547,184.98469465586822 157.01712061930448,214.06159410381224 169.4874708186835,218.76924015930854 175.1942412480712,212.95391096139792 174.1374319102615,181.9385171821341 163.14661478437483,177.7846308297012 156.5943968836218,183.32314391992986 156.5943968836218,212.12314817402512 167.37385214027017,219.0461601470597 175.61696498375386,212.40006914443802 176.03968872036785,184.98469465586822 166.52840466983616,177.7846308297012 156.17167314887047,185.8154694713885 156.8057587519288,214.89235603192355 163.7807003883645,219.59999999997672 174.56015564501286,212.40006914443802 177.09649805817753,184.70776963524986" stroke="#4DD2FF" stroke-linecap="round" stroke-linejoin="round" stroke-width="0.5"><title>2025-03-09 4.1km</title><desc>1741514669000</desc></polyline><polyline fill="none" points="26.434392103925347,249.55079826468136 33.43540239613503,264.04935021535493 39.30721748061478,264.34523793822154 46.308227772824466,257.24392053391784 42.69480310566723,224.69589358044323 27.111909228377044,224.40000000002328 21.240094143897295,231.20554128929507 30.047816770151258,260.20280584529974 43.82399831432849,262.865798888728 47.88910106476396,250.14257795002777 42.92064214684069,231.20554128929507 46.985744898207486,228.54250614787452 23.72432360239327,238.0110594513826 24.853518811054528,234.46035720861983 33.43540239613503,239.78640821226873 30.047816770151258,246.29600686999038 32.306207187473774,264.04935021535493 42.243125022388995,263.7534624497639 47.211583940312266,256.060365185258 38.40386131312698,227.0630406504497 24.853518811054528,225.58357405941933 20.110898935236037,232.9808960831724 27.337748269550502,249.84668812947348 26.886070186272264,259.6110291336663 38.17802227195352,267.3041127580218 44.50151543971151,255.76447623886634 40.888090771622956,230.6137560082134 28.69278251938522,224.69589358044323 20.788416060619056,231.20554128929507 25.982714019715786,261.9781349344412 39.53305652178824,267.5999999999767 45.17903256509453,259.0192522458965 43.82399831432849,226.47125414467882 28.918621562421322,225.58357405941933 25.305196893401444,239.19462546694558" stroke="#4DD2FF" stroke-linecap="round" stroke-linejoin="round" stroke-width="0.5"><title>2025-03-05 1.9km</title><desc>1741161630000</desc></polyline></svg>