<?xml version="1.0" encoding="utf-8" ?>
<svg baseProfile="full" height="300mm" version="1.1" viewBox="0,0,200,300" width="200mm" xmlns="http://www.w3.org/2000/svg" xmlns:ev="http://www.w3.org/2001/xml-events" xmlns:xlink="http://www.w3.org/1999/xlink"><defs /><rect fill="#222222" height="300" width="200" x="0" y="0" /><text fill="#FFFFFF" style="font-size:12px; font-family:Arial; font-weight:bold;" x="10" y="20">Over 10km Runs</text><text fill="#FFFFFF" style="font-size:4px; font-family:Arial" x="10" y="280">ATHLETE</text><text fill="#FFFFFF" style="font-size:9px; font-family:Arial" x="10" y="290">TXyy2025</text><text fill="#FFFFFF" style="font-size:4px; font-family:Arial" x="65" y="280">SPECIAL TRACKS</text><rect fill="yellow" height="2.6" width="2.6" x="65" y="283" /><text fill="#FFFFFF" style="font-size:3px; font-family:Arial" x="70" y="285.5">Over 20.0 km</text><rect fill="red" height="2.6" width="2.6" x="65" y="287" /><text fill="#FFFFFF" style="font-size:3px; font-family:Arial" x="70" y="289.5">Over 40.0 km</text><text fill="#FFFFFF" style="font-size:4px; font-family:Arial" x="120" y="280">STATISTICS</text><text fill="#FFFFFF" style="font-size:3px; font-family:Arial" x="120" y="285">Number: 10</text><text fill="#FFFFFF" style="font-size:3px; font-family:Arial" x="120" y="290">Weekly: 2.5</text><text fill="#FFFFFF" style="font-size:3px; font-family:Arial" x="141" y="285">Total: 36.2 km</text><text fill="#FFFFFF" style="font-size:3px; font-family:Arial" x="141" y="290">Avg: 3.6 km</text><text fill="#FFFFFF" style="font-size:3px; font-family:Arial" x="167" y="285">Min: 1.5 km</text><text fill="#FFFFFF" style="font-size:3px; font-family:Arial" x="167" y="290">Max: 4.5 km</text><polyline fill="none" points="31.993150582537055,45.03832505480386 27.53031648043543,45.03832505480386 27.005277172662318,70.83452626410872 34.09330780617893,84.59238336631097 50.369526294991374,77.71346497815102 49.31944768410176,56.732638355577365 53.257242479361594,55.01289008394815 46.694251152686775,37.12743274564855 28.317875439301133,39.879050510702655 28.317875439301133,72.21031563309953 34.09330780617893,83.21660131472163 48.2693690713495,78.74530403199606 49.056928030215204,46.758080693893135 42.23141705058515,34.71976453321986 27.53031648043543,42.28671338735148 27.005277172662318,71.52242105011828 33.56826849933714,82.87265567551367 42.23141705058515,84.59238336631097 50.107006643898785,77.36951852589846 49.84448699001223,44.350422442890704 37.506063296459615,34.37581172841601 28.8429147452116,40.56695444392972 28.055355785414577,73.24215712631121 38.03110260143876,83.90449244272895 44.06905462220311,83.21660131472163 51.1570852547884,73.58610418927856 49.84448699001223,42.63066502381116 40.39377947896719,34.37581172841601 28.317875439301133,38.84719423064962 28.8429147452116,76.33767886133865 40.13125982694328,84.93632875196636 49.58196733612567,75.3058387406636 50.894565601833165,41.25485817389563 39.08118121419102,33.68790596583858 28.317875439301133,44.350422442890704 29.630473704077303,75.64978549792431 40.39377947896719,84.93632875196636 49.056928030215204,80.46503477287479 52.20716386754066,71.52242105011828 49.056928030215204,40.22300250339322 39.86874017305672,33.68790596583858 29.105434397235513,40.91090633510612 29.367954050190747,74.96189193218015 37.506063296459615,84.2484379298985 49.31944768410176,79.0892502819188 51.1570852547884,42.63066502381116 39.60622052103281,34.03185887308791 26.742757520638406,42.28671338735148 28.580395092256367,78.40135773201473 39.08118121419102,86.31210978818126 50.369526294991374,78.40135773201473 49.58196733612567,40.56695444392972 39.08118121419102,34.37581172841601 27.53031648043543,41.942761700833216 30.155513010919094,80.46503477287479 38.55614190828055,85.96816460532136 46.95677080657333,85.28027408733033 50.63204594887793,78.74530403199606 50.107006643898785,42.63066502381116 38.81866156216711,33.0 28.055355785414577,42.28671338735148 31.993150582537055,80.1210887262132 35.668425724841654,84.93632875196636 49.056928030215204,87.0 52.20716386754066,45.03832505480386" stroke="#4DD2FF" stroke-linecap="round" stroke-linejoin="round" stroke-width="0.5"><title>2025-03-30 4.0km</title><desc>1743343343000</desc></polyline><polyline fill="none" points="112.08481763675809,40.33340917597525 109.28622828889638,43.3334333319217 102.9257979542017,37.66671768785454 105.97880451474339,40.33340917597525 106.23322172835469,36.333370762644336 98.09187089744955,33.0 89.44168564211577,37.00004432396963 86.13426186796278,69.33347558556125 90.20493728294969,82.00005429540761 101.90812909975648,87.0 112.08481763675809,80.00007291068323 114.1201553447172,71.33346642460674 114.37457255739719,63.00015956349671 107.5053077954799,38.00005429633893 95.03886433877051,35.00002304860391 85.62542744167149,47.66679451568052 91.47702335007489,81.66672418708913 103.18021516874433,85.666682228446 112.5936520639807,76.66676666401327 110.55831435602158,40.00007291208021 97.8374536857009,34.666685997508466 87.91518236324191,44.66677612159401 91.22260613646358,80.66673356899992 104.19788402039558,84.66669338243082 111.8304004240781,76.66676666401327 110.55831435602158,38.66672736592591 95.5476987650618,35.666697004111484 88.4240167895332,44.66677612159401 89.69610285572708,75.66677382891066 97.0742020457983,84.33336366945878 105.72438730113208,84.33336366945878 113.10248649120331,76.66676666401327 110.81273156963289,40.66674539074302 95.03886433877051,36.333370762644336 86.3886790825054,46.000118122436106 90.20493728294969,77.33342830766924 102.41696352697909,84.66669338243082 112.84806927666068,75.33344278600998 111.8304004240781,44.00010482547805 100.8904602471739,36.666707567637786 94.78444712422788,37.00004432396963 88.93285121582448,45.00011169607751 91.73144056275487,80.33340326463804 105.72438730113208,85.33335266332142 112.08481763675809,76.33343576872721 109.28622828889638,39.666736599523574 100.38162581901997,34.333348896121606 89.44168564211577,42.333425723947585 90.9681889237836,76.66676666401327 98.34628811199218,85.33335266332142 105.97880451474339,84.33336366945878 111.8304004240781,77.00009750970639 111.32156599592417,43.0000975120347 100.38162581901997,35.33336005057208 89.44168564211577,43.66676910361275 89.44168564211577,75.00011169281788 95.80211597774178,83.66670409427024 103.43463238049299,85.33335266332142 111.5759832104668,78.33342040260322 110.3038971433416,44.33344049798325 99.6183741800487,35.666697004111484 88.4240167895332,44.66677612159401 89.69610285572708,79.00008155358955 99.6183741800487,86.00001174490899 111.5759832104668,76.66676666401327 109.79506271611899,40.00007291208021 99.10953975189477,34.666685997508466 87.40634793508798,47.333459335844964 89.69610285572708,78.33342040260322 102.9257979542017,85.666682228446 111.8304004240781,73.33345549204387 110.0494799297303,41.333417671965435 98.60070532653481,35.666697004111484 88.67843400221318,46.33345349901356 90.45935449656099,79.00008155358955 98.09187089744955,86.00001174490899 110.55831435602158,80.33340326463804" stroke="#4DD2FF" stroke-linecap="round" stroke-linejoin="round" stroke-width="0.5"><title>2025-03-30 4.5km</title><desc>1743327729000</desc></polyline><polyline fill="none" points="168.77157360315323,35.12957626534626 168.90862944116816,36.925311500323005 159.86294416198507,41.77378338109702 155.4771573599428,41.953356041922234 159.04060913668945,53.445951170055196 148.89847715757787,54.16423475672491 149.44670050777495,59.910488172550686 141.63451776653528,56.49865348357707 135.32994923833758,58.47392736538313 133.0,65.29757607530337 134.37055837502703,82.1769635528326 139.9898477154784,85.76829234685283 146.43147208169103,82.1769635528326 149.30964466976002,54.702947168960236 155.88832487305626,53.98466389987152 161.50761421304196,55.24165934184566 173.84263959387317,69.06852340057958 176.44670050777495,69.42766063043382 179.18781725876033,63.681452211458236 187.0,70.3255032422021 184.80710659874603,79.8425941466121 184.39593908563256,68.5298173557967 177.26903553307056,64.5792990680784 175.07614213135093,69.06852340057958 171.92385786771774,66.7341288169846 156.02538071060553,42.31250128475949 168.36040609097108,38.182324585854076 166.30456852726638,34.23170765314717" stroke="#4DD2FF" stroke-linecap="round" stroke-linejoin="round" stroke-width="0.5"><title>2025-03-29 1.5km</title><desc>1743247652000</desc></polyline><polyline fill="none" points="26.457545861369,132.56571109921788 27.37257654638961,133.52481997210998 26.86015936266631,132.70957761097816 26.31114095170051,133.28504301965586 26.64055199851282,134.62779167221743 28.69022073294036,137.74486534291646 31.142502968665212,139.90282188664423 32.02093242644332,137.93668428331148 31.508515242952853,136.97758844745113 32.277141018304974,137.74486534291646 31.801325062057003,140.5741832186468 33.997398706153035,142.2046263863158 41.79346014279872,143.45143034140347 47.393447935115546,147.0 53.79866273072548,145.65730252946378 55.07970568956807,143.64324590930482 54.27447868674062,114.67781125710462 53.24964431952685,112.61560392580577 50.94376699323766,110.88909468697966 47.94246634631418,109.114617287094 44.575153425335884,110.02583662327379 42.41568100848235,107.1003338857845 39.37777913408354,97.26853308192221 40.65882209339179,96.74096461839508 41.50065032346174,99.09103572080494 43.84312887722626,99.47471918261726 44.684957107529044,97.9399826133158 43.69672396755777,93.28776804020163 41.64705523313023,93.0 40.18300613691099,93.95922580821207 37.95033126557246,94.1031094349164 35.53465025709011,95.58990317507414 29.23923914390616,96.35727792416583 25.396110266679898,97.98794324102346 26.38434340641834,103.0717295765644 24.993496765149757,106.76461877016118 24.920294310431927,116.74000548466574 25.359509039204568,126.71508559866925 26.49414708884433,131.41477671073517" stroke="#4DD2FF" stroke-linecap="round" stroke-linejoin="round" stroke-width="0.5"><title>2025-03-25 3.9km</title><desc>1742910133000</desc></polyline><polyline fill="none" points="108.58655431307852,93.0 90.55479025747627,108.46890655346215 89.48147096857429,114.93768474587705 95.06273127160966,144.46878421877045 102.36130243632942,145.5937694257591 109.44520974252373,140.25008377002086 107.08390730712563,112.12517518980894 103.00529401004314,106.21889159397688 93.77474812511355,106.78139558318071 90.55479025747627,118.59394095849711 93.34542040992528,143.34379834623542 102.57596629392356,145.87501562351827 108.80121816974133,140.53133075812366 107.9425627393648,110.43766746087931 97.85336142219603,104.25012632331345 91.41344568971545,109.31266147701535 90.76945411600173,139.96883674152195 100.21466385852545,145.5937694257591 108.37189045455307,141.09382460743655 108.58655431307852,115.21893547428772 106.43991573434323,107.90640306309797 100.42932771611959,104.53137862996664 95.2773951292038,104.53137862996664 89.69613482616842,111.84392400505021 90.98411797359586,139.96883674152195 98.49735299590975,146.15626177960075 108.58655431307852,141.09382460743655 107.51323502324522,110.71891885285731 99.14134456962347,104.25012632331345 89.48147096857429,113.81268142233603 90.125462542288,139.96883674152195 100.85865543130785,145.5937694257591 109.01588202826679,138.00010637543164 108.58655431307852,111.2814215120161 101.07331928983331,103.68762158614118 90.98411797359586,109.31266147701535 89.69613482616842,138.00010637543164 95.70672284439206,145.87501562351827 100.42932771611959,146.15626177960075 109.01588202826679,137.43761161109433 107.51323502324522,108.46890655346215 97.85336142219603,103.9688739759149 90.125462542288,114.37518316728529 91.19878183118999,141.09382460743655 96.13605056051165,145.5937694257591 102.57596629392356,145.0312769053271 109.65987360104918,136.87511668039951 107.08390730712563,108.46890655346215 96.56537827569991,105.09388311696239 90.125462542288,114.93768474587705 92.70142883528024,143.06255177466664 100.85865543130785,146.43750789470505 109.01588202826679,141.37507147050928 109.01588202826679,115.50018615962472 108.15722659602761,109.59391303581651 100.85865543130785,103.68762158614118 90.98411797359586,107.6251512557501 90.55479025747627,140.53133075812366 99.3560084272176,145.5937694257591 105.36659644544125,144.46878421877045 109.87453745864332,138.5626009728294 108.15722659602761,110.43766746087931 101.50264700502157,103.9688739759149 92.70142883528024,106.21889159397688 89.69613482616842,111.2814215120161 90.34012639895082,138.00010637543164 100.21466385852545,147.0 109.65987360104918,143.34379834623542 110.51852903142571,114.09393231594004" stroke="#4DD2FF" stroke-linecap="round" stroke-linejoin="round" stroke-width="0.5"><title>2025-03-24 4.1km</title><desc>1742817301000</desc></polyline><polyline fill="none" points="160.13381682522595,96.85718360263854 155.58404473215342,93.70130657614209 148.89320342056453,100.01305643422529 149.6961043784395,134.72738061309792 159.33091586828232,146.29870917182416 171.9096975363791,137.5325563538354 171.37443023175,102.11696932278574 164.14832161273807,94.05195978586562 148.62556976731867,98.96109928959049 149.6961043784395,135.77932190382853 157.7251139525324,145.59741813805886 163.6130543090403,145.94806368136778 171.9096975363791,138.23384976992384 170.57152927387506,101.76631730468944 159.59854952059686,93.350653313566 148.35793611593544,103.51957687991671 148.89320342056453,133.6754388550762 158.52801491040736,147.0 171.37443023175,139.98708240594715 172.17733118962497,102.81827320461161 157.4574803011492,93.0 150.2313716839999,99.311751722591 148.89320342056453,134.3767334120348 161.20435143541545,147.0 171.37443023175,139.6364359825384 171.10679657850415,100.01305643422529 157.4574803011492,93.0 149.42847072612494,103.51957687991671 149.96373803168535,140.33772877790034 159.59854952059686,147.0 172.71259849332273,139.6364359825384 170.3038956206292,100.01305643422529 161.73961874004453,93.0 149.6961043784395,102.11696932278574 150.2313716839999,137.5325563538354 159.06328221596777,146.29870917182416 171.9096975363791,140.33772877790034 170.57152927387506,104.57153200404719 157.4574803011492,93.0 147.01976785436273,103.51957687991671 149.1608370738104,135.42867485899478 155.85167838539928,145.59741813805886 170.83916292525828,140.33772877790034 171.64206388313323,101.76631730468944 162.27488604560494,93.350653313566 147.82266881037503,102.11696932278574 148.62556976731867,135.0780277615413 159.33091586828232,145.59741813805886 165.48648987617344,145.24677254376002 172.98023214563727,136.12996889674105 171.9096975363791,103.1689250683412 167.6275590956211,95.80522505985573 157.99274760577828,93.350653313566 148.62556976731867,105.27283515990712 149.96373803168535,136.48061583889648 157.4574803011492,145.94806368136778 171.37443023175,139.6364359825384 171.64206388313323,102.11696932278574 166.8246581396088,95.10391910560429 155.85167838539928,93.350653313566 149.1608370738104,103.1689250683412 149.96373803168535,138.23384976992384 157.99274760577828,147.0 172.17733118962497,139.6364359825384 172.98023214563727,103.1689250683412 163.6130543090403,147.0" stroke="#4DD2FF" stroke-linecap="round" stroke-linejoin="round" stroke-width="0.5"><title>2025-03-23 4.2km</title><desc>1742719228000</desc></polyline><polyline fill="none" points="32.83754232060164,153.0 28.06257053371519,159.25616457359865 30.575713579542935,200.74396944977343 42.89011450391263,205.0244133027736 53.19400099106133,192.51232355018146 50.93217225000262,166.17085235426202 35.09937106166035,156.951263879193 27.811256229877472,169.1342834061943 29.82177066616714,199.75617354759015 38.61777132656425,205.35367787373252 50.93217225000262,197.78058042842895 49.67560072615743,164.19522946304642 36.35594258457422,155.96344856568612 27.811256229877472,164.5245000666473 29.067827751860023,198.43911166349426 39.62302854284644,206.67073567118496 46.40851476788521,204.69514868268743 51.18348655384034,196.79278321261518 50.42954363953322,166.82939292839728 36.60725688934326,156.29272038582712 31.329656493850052,157.60980717791244 27.308627621270716,169.7928231060505 30.07308497093618,200.41470419778489 45.403257549740374,205.0244133027736 54.7018868168816,199.75617354759015 51.43480085860938,165.5123115850147 35.09937106166035,157.280535553582 27.057313315570354,170.12209288217127 28.06257053371519,197.12204899964854 35.60199967119843,205.68294239602983 49.17297211755067,206.01220686966553 50.68085794523358,202.39029498165473 51.937429467216134,168.80501348385587 44.900628940202296,158.5976217610296 37.361199801787734,156.951263879193 28.565199143253267,163.86595881171525 28.06257053371519,200.08543889643624 42.38748589530587,206.01220686966553 51.43480085860938,195.8049855590798 49.67560072615743,163.86595881171525 40.6282857619226,156.62199215730652 31.83228510338813,156.62199215730652 25.298113183118403,175.7196716372855 31.07834218814969,202.39029498165473 41.63354298006743,204.69514868268743 53.19400099106133,195.14645354636014 48.92165781278163,161.8903338771779 34.345428148284554,157.280535553582 30.07308497093618,159.5854359071236 27.057313315570354,182.96357621718198 32.08359940722585,204.69514868268743 44.39800033159554,205.68294239602983 51.43480085860938,194.81718746689148 47.66508628986776,162.21960482071154 39.12039993517101,154.3170887385495 28.313884838484228,160.90252075367607 28.565199143253267,199.42690814984962 38.36645702086389,207.0 52.188743772916496,198.76837720745243 49.67560072615743,162.8781465627253 38.115142717026174,154.3170887385495 27.811256229877472,162.5488757158164 28.06257053371519,196.79278321261518 39.62302854284644,206.3414712951053 50.68085794523358,200.41470419778489 49.67560072615743,166.82939292839728" stroke="#4DD2FF" stroke-linecap="round" stroke-linejoin="round" stroke-width="0.5"><title>2025-03-21 4.2km</title><desc>1742565279000</desc></polyline><polyline fill="none" points="102.66185700520873,155.70004547620192 95.44908318296075,153.0 93.38829066231847,155.47504186886363 92.18616169132292,180.22523932519834 101.63146074488759,184.72523201140575 108.84423456620425,177.30023694876581 104.72264952585101,155.02503455558326 96.1360140228644,154.57502710924018 90.98403272219002,160.4251135396771 95.62081589270383,183.15023608366027 101.80319345463067,185.6252289529657 107.64210559707135,181.3502387437038 107.47037288639694,158.62508933898062 100.08586635347456,154.1250195298344 94.2469542119652,154.80003084917553 91.15576543100178,160.65011641487945 93.56002337206155,181.8002382776467 100.60106448363513,186.5252253623912 106.61170933581889,182.7002369479742 107.64210559707135,159.52510170533787 101.97492616437376,155.02503455558326 92.18616169132292,156.6000595705118 91.84269627183676,177.52523733128328 95.44908318296075,184.72523201140575 99.57066822331399,185.85022810543887 106.61170933581889,182.02523799566552 107.29864017572254,158.40008616470732 105.40958036575466,155.2500382286962 97.85334112402052,154.35002333647572 92.8730925321579,157.72507644153666 91.32749814167619,172.12521898234263 96.82294486369938,185.40022976719774 106.09651120565832,183.60023508651648 107.98557101655751,159.97510768903885 107.29864017572254,156.6000595705118 97.68160841334611,154.57502710924018 92.70135982148349,158.8500924805412 94.93388505186886,181.57523852738086 97.85334112402052,185.40022976719774 106.61170933581889,184.50023269292433 107.47037288639694,165.8251733747311 98.88373738247901,178.65023874375038 96.47947944235057,186.9752233675681 98.02507383283228,207.0 106.2682439154014,204.5250418675132 108.15730372723192,188.32521658646874 105.40958036575466,157.0500664183637 96.99467757344246,153.45000791177154 90.98403272219002,158.40008616470732 92.18616169132292,177.97523799550254 100.08586635347456,186.07522722438443 107.29864017572254,181.3502387437038 108.15730372723192,159.75010471360292 99.3989355135709,153.2250039728824 92.8730925321579,157.0500664183637 92.35789440199733,180.45023927500006 99.05547009315342,185.6252289529657 107.12690746597946,180.67523919220548 107.81383830588311,158.62508933898062 99.91413364373147,153.2250039728824 94.07522150222212,156.82506301091053 93.73175608180463,183.60023508651648 98.02507383283228,187.2002223210875 103.34878784418106,186.5252253623912 106.09651120565832,182.47523733007256 109.01596727687865,161.32512484141625" stroke="#4DD2FF" stroke-linecap="round" stroke-linejoin="round" stroke-width="0.5"><title>2025-03-10 4.0km</title><desc>1741591515000</desc></polyline><polyline fill="none" points="174.1348249092698,163.38471204414964 159.86789883393794,154.38463093247265 148.7714007748291,162.34624291118234 149.03560310881585,199.3846907687839 157.22587548568845,206.65385011816397 171.49280156102031,198.00008643069305 170.70019455626607,165.11549290991388 163.30252918414772,155.76926104538143 148.24299610499293,162.0000864318572 147.97879376914352,199.0385397602804 154.84805447235703,205.26925007626414 171.75700389686972,199.0385397602804 172.54961090069264,165.461648930097 161.71731517557055,155.07694609183818 149.03560310881585,162.0000864318572 149.8282101135701,199.3846907687839 158.54688716027886,206.30770018394105 167.79396887496114,204.2307995078154 172.28540856484324,197.307783954544 172.28540856484324,167.1924282608088 161.98151751141995,155.42310359422117 148.50719844084233,163.0385557182599 149.03560310881585,195.9231783892028 158.81108949426562,206.65385011816397 172.02120623085648,198.3462375921663 170.96439689211547,161.65392990014516 156.4332684809342,155.07694609183818 149.03560310881585,161.65392990014516 149.8282101135701,200.76929428754374 160.13210116885602,206.30770018394105 172.02120623085648,198.00008643069305 171.75700389686972,166.5001166819129 162.7741245161742,155.07694609183818 152.99863813072443,156.11541844671592 147.71459143608809,162.34624291118234 148.24299610499293,197.6539352175314 158.28268482536077,205.96155019919388 171.75700389686972,198.00008643069305 169.90758755244315,160.961616684217 161.18891050759703,153.0 147.45038910023868,162.0000864318572 148.24299610499293,197.6539352175314 161.71731517557055,205.96155019919388 171.22859922796488,197.6539352175314 170.43599222321063,161.65392990014516 160.92470817174762,153.34615780971944 145.8651750916615,163.7308683199808 148.7714007748291,200.0769926297944 164.35933852475137,205.96155019919388 171.49280156102031,198.69238870195113 170.17178988736123,159.92314647766761 156.4332684809342,154.73078853730112 148.24299610499293,161.65392990014516 148.24299610499293,197.6539352175314 161.71731517557055,206.30770018394105 172.02120623085648,198.00008643069305 172.54961090069264,163.7308683199808 160.6605058386922,154.73078853730112 147.71459143608809,164.76933683943935 148.50719844084233,201.11544503993355 157.22587548568845,207.0 170.70019455626607,198.00008643069305 173.8706225734204,163.38471204414964" stroke="#4DD2FF" stroke-linecap="round" stroke-linejoin="round" stroke-width="0.5"><title>2025-03-09 4.1km</title><desc>1741514669000</desc></polyline><polyline fill="none" points="30.542990129441023,244.4384978308808 39.29425299540162,262.56168776913546 46.634021850302815,262.9315474226605 55.38528471626341,254.0549006673973 50.8685038825497,213.36986697558314 31.389886534772813,213.0 24.050117678940296,221.50692661153153 35.05977096222341,257.75350730656646 52.27999789360911,261.08224861091 57.361376331187785,245.17822243762203 51.150802684016526,221.50692661153153 56.23218112252653,218.17813268490136 27.155404503457248,230.01382431411184 28.56689851358533,225.57544651068747 39.29425299540162,232.2330102652777 35.05977096222341,240.37000858737156 37.88275898434222,262.56168776913546 50.30390627775341,262.1918280622922 56.51447992492467,252.57545648165978 45.50482664164156,216.32880081306212 28.56689851358533,214.47946757427417 22.638623668812215,223.72612010408193 31.672185336239636,244.80836016172543 31.10758773330599,257.01378641696647 45.22252783924341,266.63014094741084 53.12689429987222,252.20559529867023 48.610113464295864,220.76719501032494 33.365978149697185,213.36986697558314 23.48552007600665,221.50692661153153 29.978392524644732,259.9726686680224 46.91632065270096,267.0 53.97379070613533,256.2740653073415 52.27999789360911,215.58906768076122 33.64827695209533,214.47946757427417 29.131496117450297,231.49328183359466" stroke="#4DD2FF" stroke-linecap="round" stroke-linejoin="round" stroke-width="0.5"><title>2025-03-05 1.9km</title><desc>1741161630000</desc></polyline></svg>