<?xml version="1.0" encoding="utf-8" ?>
<svg baseProfile="full" height="300mm" version="1.1" viewBox="0,0,200,300" width="200mm" xmlns="http://www.w3.org/2000/svg" xmlns:ev="http://www.w3.org/2001/xml-events" xmlns:xlink="http://www.w3.org/1999/xlink"><defs /><rect fill="#222222" height="300" width="200" x="0" y="0" /><text fill="#FFFFFF" style="font-size:12px; font-family:Arial; font-weight:bold;" x="10" y="20">Over 10km Runs</text><text fill="#FFFFFF" style="font-size:4px; font-family:Arial" x="10" y="280">ATHLETE</text><text fill="#FFFFFF" style="font-size:9px; font-family:Arial" x="10" y="290">TXyy2025</text><text fill="#FFFFFF" style="font-size:4px; font-family:Arial" x="65" y="280">SPECIAL TRACKS</text><rect fill="yellow" height="2.6" width="2.6" x="65" y="283" /><text fill="#FFFFFF" style="font-size:3px; font-family:Arial" x="70" y="285.5">Over 20.0 km</text><rect fill="red" height="2.6" width="2.6" x="65" y="287" /><text fill="#FFFFFF" style="font-size:3px; font-family:Arial" x="70" y="289.5">Over 40.0 km</text><text fill="#FFFFFF" style="font-size:4px; font-family:Arial" x="120" y="280">STATISTICS</text><text fill="#FFFFFF" style="font-size:3px; font-family:Arial" x="120" y="285">Number: 16</text><text fill="#FFFFFF" style="font-size:3px; font-family:Arial" x="120" y="290">Weekly: 2.7</text><text fill="#FFFFFF" style="font-size:3px; font-family:Arial" x="141" y="285">Total: 113.7 km</text><text fill="#FFFFFF" style="font-size:3px; font-family:Arial" x="141" y="290">Avg: 7.1 km</text><text fill="#FFFFFF" style="font-size:3px; font-family:Arial" x="167" y="285">Min: 1.5 km</text><text fill="#FFFFFF" style="font-size:3px; font-family:Arial" x="167" y="290">Max: 35.9 km</text><polyline fill="none" points="16.85576081648469,72.75 21.75636586174369,66.82323202758562 20.813941814936697,62.872041704831645 26.28000128827989,65.34153675113339 26.28000128827989,60.40254300925881 26.46848609764129,63.36594100552611 25.14909243118018,59.41474250948522 24.960607622750103,63.11899137345608 22.51030509918928,61.63729281304404 24.583638004027307,68.30492599087302 20.43697219528258,59.90864283242263 24.206668384373188,63.61289060104173 22.69878990855068,71.26830997737125 24.206668384373188,68.05797708861064 21.379396243020892,65.83543532283511 24.960607622750103,59.661692689638585 22.51030509918928,68.30492599087302 23.82969876565039,65.0945874103345 25.903031669557095,70.03356728772633 24.206668384373188,64.60068862035405 20.24848738592118,70.77441301045474 21.944850670173764,66.08238455373794 24.772122812457383,68.30492599087302 21.379396243020892,70.03356728772633 24.206668384373188,65.58848605491221 24.583638004027307,69.53966995736118 21.567881051450968,62.62509199907072 22.51030509918928,71.5152584053576 26.65697090793401,57.19218925095629 22.51030509918928,71.76220679713879 23.264244337566197,62.62509199907072 24.960607622750103,71.26830997737125 22.133335480466485,62.13119247893337 24.960607622750103,59.167792293126695 21.75636586174369,55.21658387372736 25.526062050834298,63.61289060104173 21.944850670173764,62.872041704831645 20.813941814936697,70.03356728772633 22.321820289827883,62.872041704831645 24.395153193734586,65.0945874103345 21.567881051450968,66.57628290622961 25.526062050834298,62.872041704831645 27.410910145379603,65.0945874103345 25.71454686112702,63.36594100552611 24.395153193734586,68.5518748566974 27.033940525725484,66.82323202758562 22.69878990855068,69.78661864087917 25.71454686112702,70.77441301045474 22.133335480466485,65.58848605491221 25.526062050834298,65.83543532283511 24.018183575943112,70.52746447268873 24.395153193734586,59.661692689638585 31.55757595319301,62.37814225710463 22.321820289827883,67.3171301613329 23.82969876565039,69.53966995736118 23.452729145996273,64.60068862035405 24.583638004027307,71.5152584053576 21.75636586174369,65.83543532283511 28.353334193117917,67.56407917384058 25.337577240541577,71.26830997737125 25.71454686112702,62.13119247893337 22.69878990855068,64.8476380337961 25.903031669557095,64.8476380337961 24.018183575943112,68.79882368631661 21.75636586174369,57.68609023047611 25.337577240541577,59.167792293126695 23.0757595282048,67.81102814897895 21.190911433659494,64.60068862035405 27.033940525725484,64.10678968357388 24.583638004027307,60.649493042728864 32.123030382208526,62.62509199907072 35.704241761006415,40.15251608379185 48.14423918351531,39.41165678820107 47.57878475636244,32.25" stroke="#4DD2FF" stroke-linecap="round" stroke-linejoin="round" stroke-width="0.5"><title>2025-04-07 1.9km</title><desc>1744030807000</desc></polyline><polyline fill="none" points="78.1675824187696,51.62538905022666 57.25,45.211256061680615 75.05219780094922,44.04504894488491 66.15109890140593,44.62815254647285 77.27747252583504,34.13227453012951 68.82142857089639,34.71537959598936 72.38186813145876,57.45640999195166 75.94230769015849,43.46194525598548 71.04670329578221,53.957798461196944 71.49175824224949,35.29848457593471 71.04670329578221,65.03672433970496 74.60714285634458,53.957798461196944 79.94780219718814,59.20571459643543 74.16208791173995,60.955018423264846 68.82142857089639,38.21400818647817 73.71703296713531,65.03672433970496 66.59615384601057,45.794359490508214 74.16208791173995,48.70987534802407 74.16208791173995,38.797112649306655 79.94780219718814,58.62261314713396 75.94230769015849,54.5409005980473 73.71703296713531,63.87052308116108 68.82142857089639,46.96056609181687 71.49175824224949,52.79159392765723 79.5027472525835,47.54366926313378 72.38186813145876,70.86772546987049 80.83791208639741,56.29020649427548 71.93681318685412,63.28742232080549 68.82142857089639,53.957798461196944 73.27197802066803,60.955018423264846 83.95329670235515,50.45918382704258 75.4972527474165,54.5409005980473 79.94780219718814,62.70432147523388 75.4972527474165,58.03951161238365 75.94230769015849,34.71537959598936 70.15659340657294,55.70710461423732 76.38736263662577,47.54366926313378 70.15659340657294,36.464694279944524 73.27197802066803,51.62538905022666 77.72252747230232,46.37746283481829 69.26648351363838,64.45362375327386 67.04120878875256,46.37746283481829 72.38186813145876,60.955018423264846 73.27197802066803,48.70987534802407 65.26098901033401,53.957798461196944 62.14560439437628,38.21400818647817 75.94230769015849,66.20292525505647 71.93681318685412,56.873308286303654 81.72802197933197,40.546425523702055 75.94230769015849,63.87052308116108 70.15659340657294,53.374696236802265 74.60714285634458,38.797112649306655 68.3763736244291,61.53811952774413 63.03571428358555,51.62538905022666 75.94230769015849,46.37746283481829 78.1675824187696,54.5409005980473 71.49175824224949,48.12677234923467 70.15659340657294,53.957798461196944 82.1730769239366,46.37746283481829 71.93681318685412,58.62261314713396 75.94230769015849,70.28462574351579 69.26648351363838,45.211256061680615 76.38736263662577,51.04228648217395 80.83791208639741,44.04504894488491 67.04120878875256,42.2957376211416 71.49175824224949,57.45640999195166 75.4972527474165,36.464694279944524 69.71153846010566,51.62538905022666 67.04120878875256,40.546425523702055 63.48076923005283,67.3691258255858 69.26648351363838,41.12952964240685 78.61263736151159,49.876081086928025 69.71153846010566,48.12677234923467 69.26648351363838,35.29848457593471 68.82142857089639,69.70152593264356 70.15659340657294,52.79159392765723 79.5027472525835,50.45918382704258 71.04670329578221,35.88158947066404 80.83791208639741,55.70710461423732 73.27197802066803,37.047799001215026 67.93131867982447,45.794359490508214 77.27747252583504,41.71263367426582 68.82142857089639,53.374696236802265 74.16208791173995,69.11842603422701 62.14560439437628,38.21400818647817 68.3763736244291,58.62261314713396 78.1675824187696,61.53811952774413 75.4972527474165,46.37746283481829 97.75,42.2957376211416" stroke="#4DD2FF" stroke-linecap="round" stroke-linejoin="round" stroke-width="0.5"><title>2025-04-06 2.6km</title><desc>1743945103000</desc></polyline><polyline fill="none" points="106.01384468493052,58.906682911159805 107.89254455761693,58.21427625929573 108.2760184595827,58.201610127698586 108.97529439847858,58.328271191005115 109.19119987270096,58.26071869376574 111.42759388925333,58.6871411550037 114.0281269891857,59.99592283590209 116.17106938255893,60.32521975679083 116.29352323361672,60.468758252858606 116.48042647996044,60.55741402264903 117.48905951624329,60.722059722616905 117.75007956715126,60.536305530980826 119.95102641629637,60.85715292187888 121.41725015913835,60.734724737174474 122.69334818587231,60.86559622561799 123.77609802674851,61.05556990059449 123.87921705920598,60.99224548258462 124.36580999364378,60.202789293411115 124.86207033737446,58.77158049157515 125.58712603438471,57.57674066536856 127.05979471674073,54.122823757788865 127.99753341820906,52.2774671936877 128.49057129217545,50.91343137789772 129.23173933802173,49.942096820996085 130.40794080204796,51.01478612429855 131.64536919161037,52.94468080704428 131.63892425208178,53.11781597046138 131.11043921069358,54.317064883687635 131.23933800127998,55.12357369480196 131.35856938255893,55.42759205037328 132.2930856142484,55.99339537763626 132.48965626989957,56.04828614901635 133.40483768300328,55.94694925797194 134.08477880331338,56.022951959941565 134.15889560790674,56.15384502834968 134.10411362189916,56.97296867804471 134.21690006366407,57.21785675616957 134.36835614258598,57.36985519735936 134.65515595163743,57.51340853833062 135.2352005092398,58.12139116390426 135.30609484406887,58.10872499113975 135.37698917888338,57.994729183632444 135.35443189051875,57.669627531142396 135.6347867600416,57.184079215001475 135.82491247613507,56.45785242207057 135.92803150859254,56.33540538861598 136.09559993635048,56.29740447844415 136.34373010821582,56.38185087686543 136.8013208147895,56.2889598248712 137.4554821769707,56.44518551191322 137.62305060471408,56.668966764746074 137.9710773392726,56.67318903569867 138.02908179504448,56.812523626847906 137.84540101846505,57.07007971876192 137.84217854870076,57.171412626757956 138.10319859962328,57.48385349767341 138.83792170592642,57.70340449838113 139.03449236157758,57.88495501325815 139.34707192871429,58.02006162459293 140.12046467218897,58.51403973499873 140.69084182049846,58.59847958306091 141.09687301082886,59.00378738071231 141.11943029917893,59.19799532997422 140.9325270528352,59.413311296182655 140.82296308084915,59.72150583671646 140.54260821134085,60.13524122703711 140.53616327181226,60.73894640745675 140.59416772756958,60.75583308229761 140.74884627627034,60.405432534644206 141.24510662000102,59.85660376560736 141.40300763845153,59.409089430077074 141.5093491406733,59.371092607134415 141.68336250795983,59.56107621666888 141.64791534055257,59.05445045124361 142.21507001909777,58.43804365842698 142.37297103756282,58.18894399049168 142.57598663272802,56.977190904070085 142.53409452579217,56.61829946475882 142.57276416294917,56.07784267453462 142.74355506048596,55.85827918347786 142.75,55.18268862840705 142.6662157861283,54.9546732105955 142.51798217695614,54.78577172792575 141.20965945257922,54.0848199047723 140.70050922979135,53.74700565623789 140.55872056016233,53.523201516896734 140.60705760661222,53.13892994299931 140.34603755570424,52.79265882283653 140.33637014641135,52.32814219214015 139.7305458306946,51.88473290782531 139.64031667727977,51.758043276777244 139.7724379376159,51.399086270990665 139.75310311903013,51.25972527680278 139.67254137492273,51.20904838307979 139.37607415659295,51.32307126753767 138.88948122215515,51.33574044882516 138.51889719924657,50.80785313467095 137.83573360917217,50.19971485658971 137.05267345639004,49.139665099697595 136.26961330363702,48.43857472327909 136.0698201782361,47.881068888116715 135.00318268619594,47.32355217072836 134.84528166771634,46.829380527631656 134.68415817950154,46.58862714245515 134.24912476130703,46.16624787895307 133.61107574793277,45.78187732037986 132.94724697644415,45.101824428384134 132.6701145767147,44.0246888840029 132.46709898153495,43.969775003124596 131.84193984723242,43.94443009940733 131.7710455124179,43.995119884342785 131.7098185868963,44.51890906014705 131.60992202420312,46.06487592619851 131.47780076385243,46.49148046499431 130.87519891789998,47.51783953493032 129.50564926798688,49.53666045292448 128.4873488224257,50.816299408485065 127.94597390199488,51.25972527680278 127.70751113942242,51.538446585338534 126.76332749841094,53.189603413424265 124.99741406748944,57.44163195798865 124.9136298536032,57.762514094974904 124.86207033737446,58.63647743330148 124.43025938891515,59.987479275214355 123.8244350731984,61.026018522969025 122.85447167410166,60.85715292187888 121.45591979632445,60.73050306628829 119.90268936983193,60.840266306890044 117.71463239975856,60.536305530980826 117.51161680459336,60.709394702460486 117.40849777213589,60.722059722616905 116.47075907066755,60.536305530980826 116.17751432210207,60.32099802542325 114.00556970082107,59.970592146361014 111.39536919161037,58.64914337214395 109.21053469127219,58.2522746203922 108.94951464036421,58.311383081663735 108.14389719924657,58.16783374933584 107.82487269255216,58.20583217218882 105.99128739658045,58.894017086458916 104.9375397835829,59.07978195281794 104.55406588160258,59.20643912390733 104.36716263527342,59.15155441868956 103.72266868238512,59.26132372372376 103.34563971993339,59.50197034015582 102.62058402292314,59.67506577616223 102.29833704647899,59.43019875432765 102.31122692552162,59.38798009023776 102.25,59.48086106892151 102.2886696371861,59.409089430077074" stroke="yellow" stroke-linecap="round" stroke-linejoin="round" stroke-width="0.5"><title>2025-04-06 31.5km</title><desc>1743926920000</desc></polyline><polyline fill="none" points="148.2577576112235,58.41224669079929 148.52748097188305,58.66077213285644 149.2121633489296,58.493794360478205 149.47003073769156,58.30739931518292 150.11025322013302,58.190901740672416 150.34737265807053,58.23361757793282 151.55964578452404,57.97732151305172 153.30247365338437,57.33657041728111 153.5099531615706,57.305503300465716 154.2983752927248,57.418121424234414 154.53845872363308,57.36763749738566 156.58361387587502,57.7598562255007 158.93406030442566,58.94036044654786 160.91993559717957,59.247127535998516 161.07702722481918,59.41021744245336 161.2281908665027,59.476229735968445 162.14999268148676,59.616019927996604 162.41675204917556,59.45293129836682 164.4115193208272,59.74027725239466 165.74828015221283,59.62766907709738 167.9831308547873,59.89559808195372 168.5225775761064,59.03743902661154 168.98792447306914,57.74043959448136 169.6400029273791,56.65308536463817 171.03307962529652,53.406288610090996 171.85114168617292,51.80216082782499 172.27795667445753,50.58249208970665 173.30942622949078,49.2306911625019 174.5246633489296,47.42429687307049 175.06411007023416,46.48414575497918 175.14710187351739,46.24327517804704 175.32494145198143,44.28903384574551 175.40200526930857,44.20744207956341 175.95923594845226,44.23463936312146 176.11929156907718,44.29680447692226 176.40976288054662,45.33027793945257 176.92549765807053,45.86642484454569 177.57461211942427,46.25104523111986 177.99549912176735,46.674509648442836 178.1081308547873,46.833792662535416 178.2652224824269,47.334945114535 179.2522321428405,47.82831842211817 179.39153981262643,48.31391302360316 180.13253805619024,48.974307278147535 180.83204039811972,49.92990722208924 181.48115485947346,50.500919867634366 181.83683401637245,50.99423372632191 181.9287177985825,51.036961262492696 182.337748829028,50.982580749854606 182.5185524004628,50.90489410799637 182.62525614752667,50.93985312525729 182.63414812643896,51.075804416888786 182.52744437937508,51.41373743734948 183.18545081965567,51.94976021074035 183.1587748828897,52.29545025751577 183.4255342505785,52.69939690980209 183.36625439109048,53.021772955862616 183.4492461943737,53.17713349354926 183.9116290983511,53.507271586457136 185.21874999998545,54.23744463775438 185.36398565572745,54.5831045920786 185.33434572597616,55.03362085428125 185.39066159249342,55.1812020884463 185.83822453160246,55.30159669199202 185.96271223652002,55.38315401329601 185.97753220138839,55.554035199173086 185.70780884074338,56.06278851546813 185.71670081965567,56.22589818090273 185.89750439109048,56.284151387528254 186.35395930912637,55.950164584257436 186.51105093675142,55.99288406324922 186.53772687351739,57.28996972828463 186.608862704903,57.51520562640144 186.79263026930857,57.65500624757806 187.60180035128724,57.81033939903864 187.75,57.94625515355983 187.73814402808785,60.377086821683406 187.60772833722876,60.35767212376413 187.2372292154323,60.085864847505945 186.6503586065519,59.91501312110813 186.3747072599508,59.97714115009876 184.308804156899,60.77702640872121 182.6993559718976,60.79255792043659 182.67268003511708,60.74596335775823 182.92758343089372,60.19070512985854 183.372182377032,59.72862815317603 183.36921838406124,59.08791974656015 183.73675351287238,58.42001314642948 183.92348507024872,58.19866826170437 183.92348507024872,58.074403649830856 183.86124121778994,57.98897138839311 183.53520199061313,57.6666562657756 183.247694672129,57.57345597559652 182.957223360645,57.57345597559652 182.18954918031523,57.07638217987369 181.96132172130456,56.9870632358743 181.74495023417694,56.804540971654205 181.0839798009256,56.62201743992591 180.87946428571013,56.31133617311025 181.0513758782181,56.05502136328141 181.0158079625253,55.888027036322455 180.68384074940695,55.88025983250736 180.51785714285506,55.67831172742808 180.0465822599217,55.56956979735514 179.83910275173548,55.55015154819921 179.4626756440266,55.639475375483016 179.2255562060891,55.56180249941826 179.03586065572745,55.662777193534566 178.86098507024872,56.33852093056521 178.57347775175003,56.83560868060522 178.600153688516,57.13075008414853 178.5438378220133,57.2200685398675 178.454918032774,57.223951944106375 177.99549912176735,56.71910458268758 177.62796399297076,56.49774537389021 177.53015222481918,56.361822128857966 177.45012441450672,56.179295522633765 177.49458430912637,55.41810707353579 177.42641247072606,55.29382931485634 176.8780737704801,55.223922817351195 175.84660421544686,55.313247753396354 174.93073038640432,54.750107210766146 174.82699063229666,54.540382821483945 174.71732289226202,53.662629253904015 175.17970579623943,52.64113575662486 175.18859777515172,52.46246741477262 174.05635245901067,50.69125465852085 173.03081088991894,49.73179789443566 172.71662763463974,49.52203344874215 172.90928717797215,49.61137776925716 172.85889929741097,49.75510495169692 172.28684865338437,50.51257305772924 171.58141832551337,51.145721950122606 170.51438085480186,53.05672915692594 169.04424033957184,56.637551406865896 168.90493266977137,57.84528923161088 168.5077576112235,59.04132216234939 167.93274297422613,59.93831114918976 167.28066451988707,59.78687359761898 165.91722775175003,59.65096735983752 164.42633928569558,59.74416028431551 162.39304010538035,59.44904822340868 162.13813670958916,59.62766907709738 161.22226288054662,59.46458051974696 160.91993559717957,59.23936132473136 158.97259221310378,58.94424359664117 156.55397394613829,57.72878960898561 154.65701844262367,57.37540426167652 154.46732289226202,57.35598734665473 154.31319525759318,57.4064712958716 153.53959309132188,57.27831954312569 153.25504976579396,57.31715347357567 151.6100336650852,57.934605259275486 150.69119584308646,58.09382003416431 150.28216481264099,58.22973432287108 150.0746853044402,58.17536869172727 149.52041861826729,58.27633334580241 149.1439915105293,58.5054440069307 148.46523711942427,58.64523936155456 148.2607216042088,58.41224669079929 148.29332552693086,57.66277292695668 147.68570696721144,57.44142166545498 147.30927985947346,56.94046192720634 147.25,56.761822811882666 147.4960114168498,56.746288918393475 147.55232728336705,56.68026976861802 147.4930474238936,56.63366791599583" stroke="yellow" stroke-linecap="round" stroke-linejoin="round" stroke-width="0.5"><title>2025-04-05 35.9km</title><desc>1743843004000</desc></polyline><polyline fill="none" points="40.227933133021,114.60718388669193 37.46795701608062,121.11611197935417 31.39600955322385,106.6518155792728 29.740023881196976,128.34824415063486 36.363966569304466,113.16075424849987 39.12394268810749,126.17860562168062 30.29201910458505,127.62503141490743 35.25997612066567,106.6518155792728 26.428052539005876,106.6518155792728 43.53990447707474,133.41073031257838 29.740023881196976,115.33039854746312 38.57194746285677,121.83932567713782 29.740023881196976,126.90181857068092 36.9159617908299,108.82146276440471 38.019952239468694,118.2232561185956 25.876057313755155,119.66968426201493 34.707980897277594,124.00896612880751 32.5,137.02678865380585 36.9159617908299,119.66968426201493 37.46795701608062,129.7946693012491 27.532042983919382,114.60718388669193 38.019952239468694,127.62503141490743 30.29201910458505,121.83932567713782 30.29201910458505,128.34824415063486 28.084038211032748,117.5000418862328 41.331923581659794,117.5000418862328 30.29201910458505,97.25 37.46795701608062,130.51788171753287 35.25997612066567,109.54467827780172 36.363966569304466,127.62503141490743 20.908100297674537,118.2232561185956 34.15598567202687,125.45539256371558 31.39600955322385,115.33039854746312 38.019952239468694,125.45539256371558 39.12394268810749,111.71432418050244 34.15598567202687,129.07145677879453 28.084038211032748,122.56253926828504 32.5,135.58036563638598 24.772066866979003,131.2410940276459 31.948004776611924,116.05361309973523 35.25997612066567,130.51788171753287 31.948004776611924,116.77682754583657 43.53990447707474,122.56253926828504 36.9159617908299,111.71432418050244 30.844014327973127,126.17860562168062 26.98004776239395,114.60718388669193 34.707980897277594,122.56253926828504 43.53990447707474,106.6518155792728 33.051995223388076,116.05361309973523 34.15598567202687,137.75 33.051995223388076,113.88396912114695 44.09189970232546,126.90181857068092 37.46795701608062,112.4375392687507 35.25997612066567,129.7946693012491 25.876057313755155,115.33039854746312 35.811971344053745,104.48216743208468 36.363966569304466,131.9643062306568 29.740023881196976,121.83932567713782 34.15598567202687,110.99110898654908 32.5,128.34824415063486 41.331923581659794,119.66968426201493 32.5,131.9643062306568 29.740023881196976,114.60718388669193 43.53990447707474,129.7946693012491 30.29201910458505,121.11611197935417 32.5,136.3035771981813 36.363966569304466,120.3928981735371 27.532042983919382,120.3928981735371 29.188028655946255,129.07145677879453 36.9159617908299,118.2232561185956 26.98004776239395,116.05361309973523 33.60399044677615,131.9643062306568 31.39600955322385,118.2232561185956 36.9159617908299,124.00896612880751 29.188028655946255,133.41073031257838 28.084038211032748,111.71432418050244 36.363966569304466,125.45539256371558" stroke="#4DD2FF" stroke-linecap="round" stroke-linejoin="round" stroke-width="0.5"><title>2025-04-04 1.7km</title><desc>1743771861000</desc></polyline><polyline fill="none" points="84.99373286031187,97.25 76.00125342886895,99.70457356038969 71.1303270701319,106.57736023480538 72.44173032045364,133.08641393459402 78.06202996522188,137.01364517596085 82.18358303699642,135.78638641000725 85.3684195028618,129.89553171617445 84.61904621589929,105.10462262632791 76.00125342886895,101.17731595598161 69.25689385551959,110.2591985425679 71.50501371361315,132.5955093774246 73.56579024903476,136.03183823626023 81.43420975189656,136.27729002514388 85.93044946715236,130.38643707183655 83.12029964476824,106.33190405741334 76.93797003570944,100.93185898032971 69.81892381981015,107.55918458127417 71.1303270701319,133.33186615933664 81.80889639444649,136.03183823626023 86.67982275225222,129.40462621522602 83.49498628731817,104.36825333279558 76.93797003570944,100.93185898032971 71.1303270701319,103.87734028964769 70.1936104632914,130.6318896949524 76.18859674967825,137.01364517596085 86.11779278796166,132.1046046743868 85.3684195028618,107.55918458127417 77.12531335651875,101.17731595598161 68.32017724774778,108.295552460826 69.25689385551959,127.93190884240903 74.87719349935651,136.76819349557627 82.7456130022183,135.54093454848044 86.67982275225222,129.15917341038585 85.18107618018985,108.05009653733578 76.18859674967825,100.93185898032971 68.69486389029771,108.54100834822748 71.1303270701319,134.31367469509132 81.9962397152558,135.54093454848044 86.67982275225222,127.93190884240903 82.93295632302761,105.59553530800622 73.9404768915847,102.15914349351078 68.69486389029771,108.7864641995402 70.75564042665064,133.08641393459402 79.18608989473432,137.01364517596085 85.3684195028618,133.08641393459402 86.67982275225222,127.93190884240903 83.8696729298681,104.61370980076026 73.9404768915847,101.42277289449703 69.25689385551959,109.52283153450117 70.38095378410071,131.36824734753463 75.81391010712832,137.01364517596085 86.11779278796166,131.36824734753463 85.3684195028618,106.57736023480538 76.00125342886895,101.17731595598161 68.69486389029771,107.31372854928486 70.38095378410071,133.33186615933664 73.9404768915847,136.76819349557627 82.37092635873705,136.03183823626023 86.30513610970229,128.91372056945693 85.3684195028618,106.82281637610868 79.74811985809356,100.93185898032971 71.50501371361315,102.65005704516079 68.69486389029771,106.82281637610868 71.31767039187253,135.05003071564715 79.74811985809356,137.75 86.49247943144292,131.6136998264119 85.93044946715236,113.204663314973" stroke="#4DD2FF" stroke-linecap="round" stroke-linejoin="round" stroke-width="0.5"><title>2025-04-02 4.0km</title><desc>1743590878000</desc></polyline><polyline fill="none" points="116.49486293643713,106.2787437911611 113.14773735962808,106.2787437911611 112.75395787879825,125.62589469808154 118.06998085416853,135.94428752467502 130.27714472077787,130.78509873361327 129.4895857628435,115.04947876674123 132.4429318588227,113.7596675629029 127.52068836428225,100.34557455906179 113.73840657901019,102.4092878830852 113.73840657901019,126.65773672470823 118.06998085416853,134.9124509858666 128.70202680304646,131.55897802393883 129.29269602242857,107.56856052030344 124.1735627874732,98.53982339974027 113.14773735962808,104.2150350403972 112.75395787879825,126.1418157875305 117.67620137427002,134.65449175657704 124.1735627874732,135.94428752467502 130.0802549822256,130.52713889430743 129.88336524181068,105.76281683216803 120.62954747118056,98.2818587962538 114.13218605797738,102.9252158330055 113.54151683859527,127.431617844617 121.02332695107907,135.4283693319885 125.55179096572101,134.9124509858666 130.86781394015998,127.68957814190071 129.88336524181068,104.47299876785837 122.79533460922539,98.2818587962538 113.73840657901019,101.6353956728708 114.13218605797738,129.75325914600398 122.5984448697418,136.20224656385835 129.68647550139576,128.97937905532308 130.67092420067638,103.44114363042172 121.8108859108761,97.76592947437894 113.73840657901019,105.76281683216803 114.72285527735949,129.23733912338503 122.79533460922539,136.20224656385835 129.29269602242857,132.8487760797143 131.655372899957,126.1418157875305 129.29269602242857,102.6672518774867 122.40155512932688,97.76592947437894 114.32907579746097,103.18317975127138 114.52596553694457,128.72141894919332 120.62954747118056,135.68632844742388 129.4895857628435,131.8169377114391 130.86781394015998,104.47299876785837 122.20466539077461,98.02389415481593 112.55706814024597,104.2150350403972 113.93529631849378,131.30101829895284 121.8108859108761,137.23408234107774 130.27714472077787,131.30101829895284 129.68647550139576,102.9252158330055 121.8108859108761,98.2818587962538 113.14773735962808,103.9570712755667 115.116634757258,132.8487760797143 121.41710643097758,136.9761234538164 127.71757810469717,136.46020556543954 130.4740344611928,131.55897802393883 130.0802549822256,104.47299876785837 121.6139961713925,97.25 113.54151683859527,104.2150350403972 116.49486293643713,132.5908165446017 119.25131929293275,136.20224656385835 129.29269602242857,137.75 131.655372899957,106.2787437911611" stroke="#4DD2FF" stroke-linecap="round" stroke-linejoin="round" stroke-width="0.5"><title>2025-03-30 4.0km</title><desc>1743343343000</desc></polyline><polyline fill="none" points="176.56361322756857,102.75005688192323 174.46467121690512,105.00007499905769 169.69434846565127,100.75003826594912 171.98410338629037,102.75005688192323 172.17491629626602,99.75002807192504 166.06890317332,97.25 159.581264231354,100.25003324309364 157.10069640073925,124.50010668905452 160.15370296221226,134.0000407216139 168.93109682481736,137.75 176.56361322756857,132.50005468295421 178.09011650830507,126.00009981833864 178.28092941828072,119.75011967262253 173.12898084707558,101.0000407223124 163.77914825361222,98.75001728639472 156.71907058171928,108.25009588676039 161.1077675120905,133.75004314025864 169.88516137655824,136.7500116713345 176.94523904751986,130.00007499800995 175.41873576678336,102.50005468411837 165.87809026427567,98.50001449813135 158.43638677243143,106.00008209119551 160.91695460211486,133.00005017674994 170.6484130155295,136.0000200367067 176.37280031852424,130.00007499800995 175.41873576678336,101.50004552444443 164.16077407356352,99.25002275314182 158.81801259238273,106.00008209119551 159.77207714226097,129.2500803717412 165.30565153434873,135.75002275209408 171.79329047631472,135.75002275209408 177.32686486840248,130.00007499800995 175.60954867769033,103.00005904317368 163.77914825361222,99.75002807192504 157.29150931164622,107.00008859182708 160.15370296221226,130.50007123069372 169.31272264569998,136.0000200367067 177.1360519574955,129.00008208944928 176.37280031852424,105.50007861910854 168.1678451858461,100.00003067567013 163.58833534363657,100.25003324309364 159.1996384114027,106.25008377211634 161.29858042206615,132.75005244847853 171.79329047631472,136.50001449743286 176.56361322756857,129.7500768265454 174.46467121690512,102.25005244964268 167.78621936403215,98.250011672033 159.581264231354,104.25006929284427 160.72614169307053,130.00007499800995 166.25971608422697,136.50001449743286 171.98410338629037,135.75002275209408 176.37280031852424,130.2500731322216 175.99117449764162,104.75007313408423 167.78621936403215,99.00002003787085 159.581264231354,105.25007682770956 159.581264231354,128.75008376967162 164.35158698353916,135.2500280707609 170.07597428560257,136.50001449743286 176.18198740761727,131.25006530201063 175.22792285773903,105.75008037337102 167.21378063503653,99.25002275314182 158.81801259238273,106.00008209119551 159.77207714226097,131.75006116519216 167.21378063503653,137.00000880868174 176.18198740761727,130.00007499800995 174.84629703778774,102.50005468411837 166.8321548141539,98.50001449813135 158.05476095154881,108.00009450188372 159.77207714226097,131.25006530201063 169.69434846565127,136.7500116713345 176.37280031852424,127.5000916189747 175.03710994683206,103.50006325403228 166.4505289942026,99.25002275314182 159.00882550142705,107.25009012431838 160.3445158721879,131.75006116519216 166.06890317332,137.00000880868174 175.41873576678336,132.75005244847853" stroke="#4DD2FF" stroke-linecap="round" stroke-linejoin="round" stroke-width="0.5"><title>2025-03-30 4.5km</title><desc>1743327729000</desc></polyline><polyline fill="none" points="39.07868020283058,163.8471821990679 39.181472081225365,165.19398362527136 32.39720812160522,168.83033753582276 29.107868019957095,168.96501703147078 31.780456852633506,177.5844633774832 24.173857868183404,178.12317606748547 24.585025380831212,182.4328661293839 18.72588832490146,179.8739901126246 13.997461928986013,181.35544552403735 12.25,186.47318205650663 13.277918781619519,199.13272266462445 17.49238578695804,201.82621926011052 22.32360406126827,199.13272266462445 24.48223350243643,178.52721037669107 29.416243655141443,177.98849792487454 33.6307106600143,178.93124450644245 42.881979695521295,189.3013925504638 44.83502538083121,189.57074547279626 46.89086294453591,185.26108915853547 52.75,190.24412743159337 51.10532994940877,197.38194560992997 50.79695431422442,188.89736301684752 45.451776650268584,185.9344743010588 43.80710659874603,189.3013925504638 41.44289340125397,187.55059661273845 29.519035533070564,169.23437596356962 38.77030456857756,166.13674343941966 37.22842639591545,163.17378073988948" stroke="#4DD2FF" stroke-linecap="round" stroke-linejoin="round" stroke-width="0.5"><title>2025-03-29 1.5km</title><desc>1743247652000</desc></polyline><polyline fill="none" points="67.34315939596854,191.92428332442068 68.02943240967579,192.64361497906793 67.64511952199973,192.0321832082118 67.23335571377538,192.46378226473462 67.48041399870999,193.47084375414124 69.01766554953065,195.8086490071728 70.85687722649891,197.42711641496862 71.5156993198907,195.95251321246906 71.13138643209822,195.23319133558834 71.70785576361232,195.8086490071728 71.35099379648454,197.93063741397054 72.99804902961478,199.15346978972957 78.84509510698263,200.08857275603805 83.04508595133666,202.75 87.84899704786949,201.74297689709056 88.80977926717605,200.23243443196407 88.20585901499726,178.5083584428212 87.43723323952872,176.9617029443616 85.70782524487004,175.66682101522747 83.45684975967743,174.33596296531323 80.93136506900191,175.0193774674408 79.31176075641997,172.82525041431654 77.03333435056265,165.4513998114271 77.99411656998564,165.05572346378176 78.62548774247989,166.81827679059643 80.38234665780328,167.10603938695567 81.01371783053037,165.9549869599723 80.27254297561012,162.46582603013667 78.73529142467305,162.25 77.63725460262503,162.96941935615905 75.96274844917934,163.07733207616548 74.15098769275937,164.1924273813056 69.429429357755,164.7679584431171 66.54708269995172,165.9909574307676 67.28825755475555,169.8037971824233 66.24512257392053,172.57346407760633 66.19022073282395,180.05500411348476 66.51963177940343,187.5363141990092 67.37061031651683,191.06108253303682" stroke="#4DD2FF" stroke-linecap="round" stroke-linejoin="round" stroke-width="0.5"><title>2025-03-25 3.9km</title><desc>1742910133000</desc></polyline><polyline fill="none" points="128.93991573434323,162.25 115.41609269287437,173.85167991521303 114.61110322643071,178.70326355937868 118.79704845417291,200.85158816410694 124.2709768274799,201.69532706937753 129.58390730712563,197.68756282748654 127.81293048057705,176.5938813923858 124.75397050753236,172.16416869556997 117.83106109406799,172.58604668744374 115.41609269287437,181.44545571890194 117.50906530767679,200.00784875964746 124.43197472020984,201.9062617176678 129.10091362707317,197.89849806868006 128.45692205429077,175.32825059560128 120.89002106711268,170.6875947425142 116.06008426751941,174.48449610779062 115.57709058746696,197.47662755625788 122.66099789366126,201.69532706937753 128.77891784068197,198.3203684556065 128.93991573434323,178.9142016057158 127.32993680052459,173.42980229726527 122.82199578732252,170.89853397244588 118.95804634690285,170.89853397244588 114.77210112009197,176.38294300390407 115.7380884801969,197.47662755625788 121.37301474716514,202.11719633475877 128.93991573434323,198.3203684556065 128.13492626789957,175.5391891397303 121.8560084272176,170.6875947425142 114.61110322643071,177.85951106681023 115.09409690648317,197.47662755625788 123.14399157371372,201.69532706937753 129.26191152073443,196.00007978163194 128.93991573434323,175.96106613404118 123.30498946737498,170.265716189635 115.7380884801969,174.48449610779062 114.77210112009197,196.00007978163194 119.28004213329405,201.9062617176678 122.82199578732252,202.11719633475877 129.26191152073443,195.57820870832074 128.13492626789957,173.85167991521303 120.89002106711268,170.47665548196528 115.09409690648317,178.28138737555128 115.89908637292683,198.3203684556065 119.60203792061657,201.69532706937753 124.43197472020984,201.27345767896622 129.7449052007869,195.15633751032874 127.81293048057705,173.85167991521303 119.92403370700777,171.32041233778 115.09409690648317,178.70326355937868 117.02607162669301,199.7969138310291 123.14399157371372,202.3281309211161 129.26191152073443,198.53130360285286 129.26191152073443,179.12513961968943 128.6179199470207,174.69543477683328 123.14399157371372,170.265716189635 115.7380884801969,173.21886344184168 115.41609269287437,197.89849806868006 122.01700631994754,201.69532706937753 126.52494733408093,200.85158816410694 129.90590309444815,196.42195072968025 128.6179199470207,175.32825059560128 123.62698525376618,170.47665548196528 117.02607162669301,172.16416869556997 114.77210112009197,175.96106613404118 115.25509479921311,196.00007978163194 122.66099789366126,202.75 129.7449052007869,200.00784875964746 130.3888967735693,178.07044923701324" stroke="#4DD2FF" stroke-linecap="round" stroke-linejoin="round" stroke-width="0.5"><title>2025-03-24 4.1km</title><desc>1742817301000</desc></polyline><polyline fill="none" points="167.60036261938512,165.1428877018625 164.18803355004638,162.77597993204836 159.16990256588906,167.50979232555255 159.77207828406245,193.54553545964882 166.99818690121174,202.2240318787517 176.43227315228432,195.64941726531833 176.0308226738125,169.0877269919729 170.61124121025205,163.038969839341 158.9691773261875,166.72082446725108 159.77207828406245,194.33449142775498 165.79383546486497,201.69806360348593 170.20979073178023,201.96104776102584 176.43227315228432,196.17538732732646 175.42864695563912,168.82473797851708 167.1989121409133,162.51298998505808 158.76845208741724,170.1396826597629 159.16990256588906,192.75657914124895 166.39601118303835,202.75 176.0308226738125,197.49031180434395 176.6329983919859,169.6137049034005 165.59311022609472,162.25 160.17352876253426,166.98381379188504 159.16990256588906,193.2825500589097 168.40326357726008,202.75 176.0308226738125,197.22732698684558 175.83009743411094,167.50979232555255 165.59311022609472,162.25 159.57135304436088,170.1396826597629 159.97280352376401,197.75329658342525 167.1989121409133,202.75 177.0344488704577,197.22732698684558 175.22792171593755,167.50979232555255 168.8047140557319,162.25 159.77207828406245,169.0877269919729 160.17352876253426,195.64941726531833 166.7974616624415,202.2240318787517 176.43227315228432,197.75329658342525 175.42864695563912,170.92864900291897 165.59311022609472,162.25 157.76482589077204,170.1396826597629 159.37062780559063,194.07150614412967 164.38875878974795,201.69806360348593 175.62937219440937,197.75329658342525 176.23154791258276,168.82473797851708 169.2061645342037,162.51298998505808 158.3670016080141,169.0877269919729 158.9691773261875,193.80852082115598 166.99818690121174,201.69806360348593 171.61486740782857,201.4350794076454 177.23517410922796,194.59747667249758 176.43227315228432,169.8766938012559 173.22066932171583,164.3539187948918 165.99456070456654,162.51298998505808 158.9691773261875,171.45462636975572 159.97280352376401,194.86046187917236 165.59311022609472,201.96104776102584 176.0308226738125,197.22732698684558 176.23154791258276,169.0877269919729 172.61849360447377,163.8279393290868 164.38875878974795,162.51298998505808 159.37062780559063,169.8766938012559 159.97280352376401,196.17538732732646 165.99456070456654,202.75 176.6329983919859,197.22732698684558 177.23517410922796,169.8766938012559 170.20979073178023,202.75" stroke="#4DD2FF" stroke-linecap="round" stroke-linejoin="round" stroke-width="0.5"><title>2025-03-23 4.2km</title><desc>1742719228000</desc></polyline><polyline fill="none" points="27.1281567402184,227.25 23.54692790005356,231.94212343008257 25.431785184890032,263.0579770873301 34.66758587770164,266.2683099769056 42.395500742830336,256.8842426625779 40.69912918750197,237.1281392655801 28.82452829554677,230.21344790933654 23.358442172408104,239.3507125545293 24.866327999159694,262.3171301606344 31.46332849469036,266.5152584052412 40.69912918750197,260.8354353213217 39.75670054461807,235.6464220972266 29.766956938430667,229.47258642420638 23.358442172408104,235.89337504992727 24.300870813429356,261.3293337476207 32.21727140713483,267.5030517532723 37.30638607498258,266.02136151189916 40.887614915147424,260.0945874094032 40.322157729417086,237.62204469623975 29.955442667007446,229.71954028925393 25.997242369689047,230.70735538343433 22.981470716185868,239.84461732942145 25.054813727736473,262.81102814828046 36.55244316160679,266.2683099769056 43.52641511242837,262.3171301606344 41.0761006437242,236.63423368881922 28.82452829554677,230.4604016650701 22.792984986677766,240.09156966151204 23.54692790005356,260.34153674962 29.20149975270033,266.76220679690596 39.37972908746451,267.00915515213273 40.51064345892519,264.29272123624105 41.45307209994644,239.1037601128919 36.17547170445323,231.4482163208304 30.52089985087514,230.21344790933654 23.92389935720712,235.39946910867002 23.54692790005356,262.5640791723272 34.290614421479404,267.00915515213273 41.0761006437242,259.35373916930985 39.75670054461807,235.39946910867002 32.97121432144195,229.96649411786348 26.374213826842606,229.96649411786348 21.473584887571633,244.2897537278477 25.808756641112268,264.29272123624105 33.72515723481774,266.02136151189916 42.395500742830336,258.8598401596537 39.191243359819055,233.91775040782522 28.259071111679077,230.4604016650701 25.054813727736473,232.18907693016808 22.792984986677766,249.72268216277007 26.562699555419385,266.02136151189916 35.798500248230994,266.76220679690596 41.0761006437242,258.6128906001104 38.24881471693516,234.16470361547545 31.840299950912595,228.23781655391213 23.73541362863034,233.17689056519885 23.92389935720712,262.0701811123872 31.274842765182257,267.75 41.64155782945454,261.5762829054147 39.75670054461807,234.65860992192756 31.0863570375368,228.23781655391213 23.358442172408104,234.4116567868041 23.54692790005356,260.0945874094032 32.21727140713483,267.2561034713872 40.51064345892519,262.81102814828046 39.75670054461807,237.62204469623975" stroke="#4DD2FF" stroke-linecap="round" stroke-linejoin="round" stroke-width="0.5"><title>2025-03-21 4.2km</title><desc>1742565279000</desc></polyline><polyline fill="none" points="79.49639275390655,229.27503410715144 74.08681238768622,227.25 72.54121799720451,229.1062814015895 71.63962126895785,247.66892949386965 78.72359555866569,251.04392400861252 84.13317592488602,245.47517771157436 81.04198714485392,228.76877591677476 74.60201051738113,228.43127033195924 70.73802454164252,232.81883515475783 74.2156119197607,249.8626770627452 78.85239509120584,251.7189217148116 83.23157919803634,248.51267905777786 83.10277966503054,231.46881700423546 77.56439976580441,228.0937646473758 73.18521565943956,228.60002313693985 70.866824073717,232.9875873111887 72.670017529279,248.85017870832235 77.95079836342484,252.3939190218225 82.45878200186417,249.52517771103885 83.23157919803634,232.1438262789743 78.98119462374598,228.76877591677476 71.63962126895785,229.95004467794206 71.38202220434323,245.64392799849156 74.08681238768622,251.04392400861252 77.17800116818398,251.88767107913736 82.45878200186417,249.01892849674914 82.97398013202474,231.3000646235887 81.55718527501449,228.93752867158037 75.89000584324822,228.262517502415 72.15481939958408,230.7938073311234 70.99562360625714,241.59391423675697 75.11720864800736,251.55017232545651 82.0723834047094,250.20017631491646 83.48917826265097,232.48133076680824 82.97398013202474,229.95004467794206 75.76120631024241,228.43127033195924 72.02601986657828,231.637569360435 73.70041378960013,248.68142889556475 75.89000584324822,251.55017232545651 82.45878200186417,250.87517451972235 83.10277966503054,236.86888003116474 76.66280303755775,246.487679057871 74.85960958199576,252.73141752567608 76.01880537485704,267.75 82.20118293724954,265.8937814006349 83.61797779565677,253.74391243990976 81.55718527501449,230.28754981374368 75.24600818008184,227.58750593382865 70.73802454164252,231.3000646235887 71.63962126895785,245.981428496656 77.56439976580441,252.05642041831743 82.97398013202474,248.51267905777786 83.61797779565677,232.3125785352895 77.04920163564384,227.41875297972 72.15481939958408,230.28754981374368 71.76842080196366,247.83767945633736 76.79160257056355,251.7189217148116 82.84518060041592,248.006429394125 83.36037872964516,231.46881700423546 77.43560023326427,227.41875297972 73.05641612736508,230.1187972582411 72.79881706181914,250.20017631491646 76.01880537485704,252.90016674087383 80.01159088360146,252.3939190218225 82.0723834047094,249.35642799758352 84.26197545789182,233.4938436311204" stroke="#4DD2FF" stroke-linecap="round" stroke-linejoin="round" stroke-width="0.5"><title>2025-03-10 4.0km</title><desc>1741591515000</desc></polyline><polyline fill="none" points="133.10111868195236,235.03853403311223 122.40092412568629,228.28847319935448 114.07855058088899,234.25968218350317 114.27670233231038,262.03851807664614 120.41940661426634,267.490387588623 131.1196011705324,261.0000648229616 130.52514591719955,236.33661968249362 124.97689688857645,229.32694578415249 113.68224707897753,234.0000648240093 113.48409532755613,261.7789048200939 118.63604085426778,266.4519375571981 131.31775292288512,261.7789048200939 131.91220817528665,236.59623669751454 123.78798638191074,228.80770956887864 114.27670233231038,234.0000648240093 114.87115758564323,262.03851807664614 121.41016537044197,267.2307751378976 128.34547665622085,265.67309963086154 131.71405642386526,260.4808379658498 131.71405642386526,237.8943211955484 123.98613813333213,229.06732769554947 113.88039883039892,234.7789167886367 114.27670233231038,259.4423837919021 121.60831712093204,267.490387588623 131.5159046733752,261.2596781940665 130.72329766955227,233.74044742505066 119.82495136093348,228.80770956887864 114.27670233231038,233.74044742505066 114.87115758564323,263.0769707157742 122.59907587617636,267.2307751378976 131.5159046733752,261.0000648229616 131.31775292288512,237.3750875114929 124.58059338666499,228.80770956887864 117.24897859804332,229.58656383503694 113.28594357706606,234.25968218350317 113.68224707897753,260.74045141320676 121.21201361902058,266.9711626494536 131.31775292288512,261.0000648229616 129.93069066479802,233.22121251316275 123.3916828809306,227.25 113.08779182564467,234.0000648240093 113.68224707897753,260.74045141320676 123.78798638191074,266.9711626494536 130.92144942097366,260.74045141320676 130.3269941676408,233.74044742505066 123.19353112857789,227.50961835728958 111.89888131897897,235.2981512399856 114.07855058088899,262.557744472404 125.7695038933307,266.9711626494536 131.1196011705324,261.51929152640514 130.1288424162194,232.44235985830892 119.82495136093348,228.54809140297584 113.68224707897753,233.74044742505066 113.68224707897753,260.74045141320676 123.78798638191074,267.2307751378976 131.5159046733752,261.0000648229616 131.91220817528665,235.2981512399856 122.99537937901914,228.54809140297584 113.28594357706606,236.0770026295213 113.88039883039892,263.33658378000837 120.41940661426634,267.75 130.52514591719955,261.0000648229616 132.90296693053097,235.03853403311223" stroke="#4DD2FF" stroke-linecap="round" stroke-linejoin="round" stroke-width="0.5"><title>2025-03-09 4.1km</title><desc>1741514669000</desc></polyline><polyline fill="none" points="160.40724259614944,250.8288733732188 166.9706897456199,264.4212658269098 172.47551638726145,264.6986605670536 179.0389635367319,258.0411755006062 175.65137791074812,227.52740023168735 161.04241490084678,227.25 155.53758825920522,233.63019495876506 163.7948282212019,260.81513047998305 176.70999841950834,263.31168645829894 180.52103224769235,251.38366682827473 175.8631020123139,233.63019495876506 179.67413584142923,231.13359951367602 157.8665533773601,240.0103682357585 158.92517388425767,236.68158488313202 166.9706897456199,241.6747576991329 163.7948282212019,247.77750644064508 165.912069237791,264.4212658269098 175.22792970761657,264.14387104671914 179.885859942995,256.93159236118663 171.62861998006701,229.74660060973838 158.92517388425767,228.35960068064742 154.47896775137633,235.29459007806145 161.25413900241256,251.1062701214105 160.830690799281,260.26033981284127 171.41689587943256,267.47260571061634 177.34517072420567,256.6541964740027 173.9575850982219,233.0753962578019 162.52448361180723,227.52740023168735 155.11414005607367,233.63019495876506 159.9837943930179,262.479501501075 172.68724048882723,267.75 177.980343028903,259.70554898062255 176.70999841950834,229.19180076068733 162.73620771430433,228.35960068064742 159.34862208738923,241.11996137537062" stroke="#4DD2FF" stroke-linecap="round" stroke-linejoin="round" stroke-width="0.5"><title>2025-03-05 1.9km</title><desc>1741161630000</desc></polyline></svg>