<?xml version="1.0" encoding="utf-8" ?>
<svg baseProfile="full" height="300mm" version="1.1" viewBox="0,0,200,300" width="200mm" xmlns="http://www.w3.org/2000/svg" xmlns:ev="http://www.w3.org/2001/xml-events" xmlns:xlink="http://www.w3.org/1999/xlink"><defs /><rect fill="#222222" height="300" width="200" x="0" y="0" /><text fill="#FFFFFF" style="font-size:12px; font-family:Arial; font-weight:bold;" x="10" y="20">Over 10km Runs</text><text fill="#FFFFFF" style="font-size:4px; font-family:Arial" x="10" y="280">ATHLETE</text><text fill="#FFFFFF" style="font-size:9px; font-family:Arial" x="10" y="290">TXyy2025</text><text fill="#FFFFFF" style="font-size:4px; font-family:Arial" x="65" y="280">SPECIAL TRACKS</text><rect fill="yellow" height="2.6" width="2.6" x="65" y="283" /><text fill="#FFFFFF" style="font-size:3px; font-family:Arial" x="70" y="285.5">Over 20.0 km</text><rect fill="red" height="2.6" width="2.6" x="65" y="287" /><text fill="#FFFFFF" style="font-size:3px; font-family:Arial" x="70" y="289.5">Over 40.0 km</text><text fill="#FFFFFF" style="font-size:4px; font-family:Arial" x="120" y="280">STATISTICS</text><text fill="#FFFFFF" style="font-size:3px; font-family:Arial" x="120" y="285">Number: 29</text><text fill="#FFFFFF" style="font-size:3px; font-family:Arial" x="120" y="290">Weekly: 2.9</text><text fill="#FFFFFF" style="font-size:3px; font-family:Arial" x="141" y="285">Total: 288.0 km</text><text fill="#FFFFFF" style="font-size:3px; font-family:Arial" x="141" y="290">Avg: 9.9 km</text><text fill="#FFFFFF" style="font-size:3px; font-family:Arial" x="167" y="285">Min: 1.5 km</text><text fill="#FFFFFF" style="font-size:3px; font-family:Arial" x="167" y="290">Max: 98.7 km</text><polyline fill="none" points="18.269625870514574,31.818922892773116 18.29894692937887,31.800000000000182 18.343932663521628,31.800525637264855 18.37767196413006,31.818397258217374 18.42667428167806,31.869383449495217 18.4780865492703,31.884626602310163 18.792183371597275,31.847832674043957 18.831947547312666,31.848883934402238 18.87452333141482,31.86990907653785 18.93557539918038,31.93350937721266 18.9833727417099,31.949277871410686 19.009882192185614,31.947701025126435 19.049244709562117,31.934034994809963 19.134797936103496,31.864652802620412 19.34366027319993,31.83469189341554 19.40109741590095,31.847832674043957 19.45130470847289,31.868857822375503 19.498700392659885,31.89934406737234 19.54850602689112,31.949803486683322 19.586663569245502,32.01550478603485 19.64088744522269,32.15110844247306 20.036520910683976,32.92573750578663 20.12247579556606,33.053424798163405 20.221685405686003,33.2294471158275 20.38556200863968,33.488998518702374 20.511281069237157,33.6602710934535 20.539798811416404,33.722788790029654 20.571128161982415,33.828908760382774 20.57273479534706,33.86883426930308 20.57072650364171,33.88354355479191 20.56470162853475,33.88301822420863 20.57313645368413,33.88879685635061 20.565103286875456,33.89142350423208 20.57072650364171,33.88459421572088 20.574341428706248,33.896676794197674 20.576751378750487,34.07003102737417 20.590809420671576,34.26491316206898 20.622942087915362,34.35263291614069 20.779187182397436,34.583740514768124 21.039060128747224,34.841092741765806 21.124211696947896,34.936675989395326 21.44674334442425,35.249666966127734 21.478876011671673,35.290101719630684 21.526271695858668,35.3783214115208 21.559609338126393,35.48596748953264 21.58571713026322,35.53690133266696 21.77047996692636,35.832513323246985 21.79498112570036,35.89551804584789 21.880936010582445,36.02572428580447 22.31874360180518,36.76119545580514 22.352081244071087,36.801613110294966 22.411928336814526,36.90029325588807 22.469365479517364,36.99897067757729 22.479808596372095,37.04253484280912 22.505916388508922,37.0929216489526 22.5597386061454,37.15223020879034 22.69911405032508,37.38420645299789 22.739681542721883,37.46922565140562 22.79511039371755,37.56158989687788 22.844514369609897,37.67809139486599 22.871827136768843,37.70223087018826 22.977864938678977,37.85650975500744 23.041326956490593,37.96565542225517 23.057393290113396,38.01078198442406 23.428525596798863,38.64669112913566 23.583967374599524,38.88748859745351 23.639797883939536,39.00604523094171 23.68960351816895,39.06532207449618 23.83138891239105,39.30189509396155 23.91654048059172,39.460301100093375 23.91172058050506,39.50121277021685 23.88842439675318,39.551040454656686 23.886817763390354,39.569922343280496 23.898465855267204,39.59824498941725 23.918147113956366,39.62027355922032 23.94465656443208,39.62551843680535 24.04426783289273,39.68898084639159 24.088048592015184,39.743001680250245 24.244695344837965,40.00155612802064 24.293697662389604,40.120600273581886 24.321412087889257,40.16569966467159 24.361176263604648,40.208176478509586 24.3655945053506,40.2281036989516 24.34470827163932,40.27372612802901 24.349528171727798,40.29732370801639 24.37161938045756,40.31672604613709 24.43106481486393,40.3382258114932 24.442311248400074,40.351335361142674 24.49774009939938,40.43943028949434 24.64153378532137,40.7042263976316 24.894578539880968,41.12733517255651 24.937957640662717,41.220129296844334 24.95040904921916,41.278845240680084 24.944384174110382,41.32078461114679 24.931129448872525,41.34961764343052 24.93996593236625,41.391031956336974 24.926711207126573,41.39941960695933 24.948802415856335,41.385265435140354 24.970893624587916,41.39312887083429 24.980533424761234,41.40885569042507 25.06046343453636,41.75744912690516 25.103440876977402,41.99174775430538 25.117900577239197,41.99908571883839 25.12713871907181,41.99436845765126 25.134770227541594,42.01428574041074 25.320738039225034,42.00537539076049 25.58543088566148,42.00694780701451 25.623588428015864,42.02476847632897 25.67660732897093,43.421842704284245 25.675000695608105,43.45013490465453 25.61957184461062,43.45223061431648 25.617965211247792,43.4611373667085 25.62037516129203,43.471091946129036 25.739266030099316,43.471615870596 25.629613303124643,43.47528333972082 25.613948627842547,43.48576180225109 25.62399008635657,43.875014979543494 25.626801694739697,43.89701726170301 25.66736918713832,43.90382746452724 25.700305171065338,43.92897271672382 25.70151014608564,43.9368305718649 25.72360135481904,44.531358327046746 25.70833833787583,44.540786166971884 25.618768527927386,44.540786166971884 25.60551380269135,44.55492788038214 25.612743652822246,44.807897998026874 25.534821934748834,44.814182742706635 25.480999717114173,44.8560807590934 25.42396423275204,44.85346214740957 25.391028248825023,44.842463957460495 25.244824612858793,44.84560630088822 25.202248828756638,44.83617926234592 25.127942035751403,44.83617926234592 25.14119676099108,45.033618171776425 25.128343694093928,45.22633320271893 25.137180177585833,45.436317956055746 25.167706211468612,45.59707104301833 25.17132113653315,45.66671102342184 25.440030566374844,45.65414451038464 25.67781230399305,45.652573693158956 25.90836419148036,45.64210156074728 26.046534660636098,45.62482247543244 26.318055698860917,45.614873873405486 26.335728665846545,45.86933996851462 26.330908765759887,45.960964286829494 26.33854027423149,45.9955191363706 26.360229824622365,46.316444491697666 26.35380329117106,46.415386324460314 26.413248725575613,46.40753389771771 26.602028145645818,46.40229893701007 26.614077895861556,46.390258498398225 26.598814878920166,46.37507701821528 26.604438095688238,46.36617749997163 26.66267855507249,46.43580255357165 26.582346886956657,46.3127799269796 26.575117036827578,46.30702131771909 26.58435517866019,46.32429711777786 26.573108745124046,46.3159209826822 26.567485528357793,46.320109052673615 26.582346886956657,46.354660443596 26.593994978833507,46.35099591790595 26.606848045732477,46.37507701821528 26.601224828962586,46.35518394695964 26.610864629137723,46.370889012380076 26.61729116258539,46.38973500015095 26.606848045732477,46.38083551826071 26.61488121254297,46.3996814537918 26.601224828962586,46.32900868517663 26.602028145645818,46.35570745024893 26.58997839542826,46.330055699314244 26.606848045732477,46.363559990405065 26.60283146232723,46.3441903602677 26.632554179528597,46.35937197112639 26.61809447926862,46.35727795965431 26.606044729051064,46.36617749997163 26.61367623752085,46.37403001721577 26.61729116258539,46.621113782690145 26.637775737954144,46.71271890672574 26.677539913671353,46.799610749183785 26.692802930612743,46.87236796283787 26.70967258091696,47.310450367462636 26.707664289215245,47.41826173351319 26.718509064410682,47.434485493748525 26.72332896449734,47.49728645503319 26.71529579768685,47.55903966234018 26.724935597858348,47.600905639365465 26.72011569777169,47.62916489785994 26.74100193148115,48.18383864469092 26.722525647815928,49.31175984422862 26.735378714714898,49.383943112415864 26.779962790516947,49.482277404989645 26.78438103226472,49.56334886669447 26.77835615715594,49.67527678176225 26.73859198143873,49.76837304562264 26.731362131307833,49.80132226895262 26.725337256200874,49.91533471020739 26.73979695646085,50.00424098435724 26.770724648686155,50.09000730552907 26.994046686040747,50.41788772397513 27.0217611115404,50.479590742280834 27.039032420185322,50.5632541599598 27.051483828743585,51.49492388706449 27.08482147101131,51.84253901379907 27.067550162366388,51.92198918204417 27.019752819836867,51.97948491959619 27.010916336344962,52.015027279429205 27.061926945598316,52.085065607498336 27.078796595900712,52.14883066033008 27.06032031223549,52.289946020205434 27.066746845684975,52.31764579264359 27.044655636953394,52.55125614228018 27.073575037475166,52.86166789866434 27.07076342909022,52.902949599210615 27.08723142105555,53.01738626718361 27.121774038343574,53.01581866618449 27.134627105240725,53.02783692305843 27.30372526661995,53.039855139788415 27.455953777698596,53.088450128527256 27.515399212103148,53.097855534408836 27.604969022047953,53.09419787948673 27.698153757060936,53.07016176892898 27.784510300285547,53.061278817868924 27.946378611532054,53.71437851617338 28.059646263574905,54.20961030999547 28.0837457640082,54.25087655062248 28.1560442653099,54.505776512932925 28.186971957535206,54.58725712022601 28.212678091333146,54.62068452820745 28.323937451668826,54.704251690321826 28.361693335682503,54.762747549702 28.396637611313054,54.99724373024969 28.40185916974042,55.098558068098555 28.445238270522168,55.21240273719468 28.448853195586707,55.205613935823976 28.465722845890923,55.247390972071116 28.610319848494328,55.3810742312437 28.821993793975707,55.62545111195482 29.158985141715675,56.16062033657522 29.352986120211426,56.45140578672067 29.57590649922713,56.75469558605619 29.84622256243165,57.15190918952476 30.233019544399212,57.788090486895726 30.27318537845713,57.87523701465079 30.32781091277502,57.96133780243417 30.343475588057117,57.97177412182259 30.382436447091095,57.969686860361435 30.5479196834076,57.89558829553471 30.762806895612812,57.818357184422666 30.834703738573808,57.813138806427105 30.998580341529305,57.84131795785697 30.98532561628781,57.83766511732051 30.98412064126569,57.83088126078928 31.000990291569906,57.820444533505 30.996170391485066,57.83453410819993 31.00982677506363,57.80270202777592 31.004605216634445,57.846014461680625 30.998580341529305,57.817835346962966 30.98532561628781,57.825662900924954 30.984923957945284,57.83349043788985 31.325931889092317,57.934725051241685 31.73120515472874,58.07926645337534 32.13808505372435,58.24258604631041 32.58513078677788,58.43929023955047 32.82492081609962,58.607289038144245 32.98960073573289,58.6991111603063 33.107286629519876,58.74710815729304 33.24746539037915,58.782583787958856 33.865215918176546,58.88170502386197 34.12348223116351,58.9349163529796 34.2026089242554,58.961000051085875 34.278120692282755,59.0022119095961 34.34158271009255,59.05907306783638 34.472523329117394,59.23434585998734 34.528353838457406,59.293811479374654 34.59703741469457,59.343365413312995 34.67054089101839,59.378313567878195 34.76894718445874,59.40074280212093 34.84727056087104,59.40022119360515 34.90229775352964,59.39344027605193 35.17663040013758,59.328238495142614 35.222017792622864,59.33501953527002 35.38187781216948,59.405437275357826 35.46702938037197,59.45655447737704 35.614839649699206,59.567653653064326 35.87551591273041,59.81070376866978 35.986775273069725,59.89519375015493 36.207687360383716,60.04539327640555 36.45069065642747,60.24147769254091 36.51696428262039,60.27224529064415 36.776837228972,60.35150975859165 37.163232552598856,60.57417102115528 37.67735522852854,60.798904172742596 37.676953570186015,60.82758141034287 37.61630316076298,61.064811637032335 37.53476651762685,61.7576431917214 37.519101842342934,61.95571957184393 37.603048435523306,62.876632046014265 37.730374129485426,64.08175022155615 37.714307795862624,64.10050374853063 37.59300697700746,64.1156106856015 37.58497381019879,64.1333221865757 37.59983516879947,64.20000000000005 37.58015391011031,64.12915478238983 37.52271676740929,64.14217790451403 37.516691892298695,64.13384311176173" stroke="red" stroke-linecap="round" stroke-linejoin="round" stroke-width="0.5"><title>2025-05-10 98.7km</title><desc>1746841181000</desc></polyline><polyline fill="none" points="58.40795380808413,33.7537958342582 56.54393841093406,31.79999999993015 59.402095353230834,37.82419269694947 62.26025229599327,58.99001402268186 64.49707077257335,62.083446167525835 67.60376310162246,62.73469393362757 70.95899081695825,58.82720156421419 68.97070772619918,40.917684256564826 66.11255078436807,37.82419269694947 61.63891383027658,41.73175953968894 64.37280307989568,62.57188202801626 70.71045543020591,60.129700560471974 70.08911696448922,42.708649085485376 65.73974770447239,37.661377110751346 62.508787682279944,38.14982379646972 59.65063073998317,42.54583422164433 60.644772285129875,56.87345018412452 63.130126148462296,62.083446167525835 68.8464400335215,62.409070098772645 71.08325850917026,57.524701029178686 70.33765235124156,40.42923879832961 65.61548001132905,37.98700825846754 60.644772285129875,40.917684256564826 61.3903784439899,58.82720156421419 63.37866153428331,62.409070098772645 70.71045543020591,59.80407595564611 71.20752620277926,53.12875035672914 69.46777849877253,40.10360837250482 65.1184092387557,38.14982379646972 62.13598460331559,40.42923879832961 61.01757536455989,55.57094733940903 63.37866153428331,61.92063416587189 70.58618773752823,60.78094948071521 71.4560615895316,50.03529307525605 69.09497541934252,37.17293020908255 61.3903784439899,40.42923879832961 60.520504591520876,57.36188835359644 63.130126148462296,62.73469393362757 70.46192004391924,60.45532506832387 70.46192004391924,42.383019333006814 66.85815694229677,37.82419269694947 61.14184305816889,40.59205397509504 60.76903997827321,53.78000341448933 64.12426769314334,62.73469393362757 70.71045543020591,58.664389081764966 70.83472312334925,43.03427874168847 65.98828309075907,37.49856150068808 60.3962368988432,41.89457452390343 61.51464613713324,59.15282645763364 64.37280307989568,62.89750581502449 68.22510156733915,62.73469393362757 70.46192004391924,59.64126361743547 70.58618773752823,41.2433144422248 68.10083387419581,37.661377110751346 64.86987385246903,37.49856150068808 60.3962368988432,41.08049936173484 61.14184305816889,57.524701029178686 63.50292922789231,62.73469393362757 70.21338465763256,59.80407595564611 70.71045543020591,41.73175953968894 66.36108617018908,37.49856150068808 61.266110750846565,38.96390112407971 60.520504591520876,41.08049936173484 61.14184305816889,59.15282645763364 66.23681847658008,62.73469393362757 70.33765235124156,58.82720156421419 71.4560615895316,40.917684256564826 57.41381226293743,36.19603575579822 61.76318152388558,62.57188202801626 68.10083387419581,63.711564860655926 69.96484927181154,61.757822140003555 69.84058157820255,43.52272304520011 64.37280307989568,39.45234723179601 60.14770151255652,42.54583422164433 60.89330767188221,60.618137286626734 63.25439384113997,63.54875309986528 66.85815694229677,63.54875309986528 70.83472312334925,59.15282645763364 70.71045543020591,43.84835246100556 67.7280307947658,39.12671651726123 65.1184092387557,38.96390112407971 59.52636304683983,45.31368363997899 63.005858454853296,64.19999999995343 67.8522984883748,64.19999999995343 70.33765235124156,60.943761650822125 70.08911696448922,43.19709353346843 64.12426769314334,39.615162552916445 59.52636304683983,44.98805465758778 60.3962368988432,60.943761650822125 63.37866153428331,64.19999999995343 65.98828309075907,63.87437659816351 70.33765235124156,60.129700560471974 70.21338465763256,43.19709353346843 67.47949540847912,39.12671651726123 64.37280307989568,38.63827026472427 59.52636304683983,44.3367964043282 60.023433819878846,60.943761650822125 65.36694462504238,63.87437659816351 69.71631388505921,60.943761650822125 70.08911696448922,45.964941316866316" stroke="#4dd2ff" stroke-linecap="round" stroke-linejoin="round" stroke-width="0.5"><title>2025-05-04 6.1km</title><desc>1746359904000</desc></polyline><polyline fill="none" points="96.06511627929285,45.66919887790573 94.26511627924629,44.73681238727295 91.46046511619352,44.84650503686862 90.62325581395999,45.88858359406004 91.7953488372732,48.13726946042152 90.83255813946016,49.67294954121462 89.11627906979993,49.67294954121462 88.3627906977199,51.0989324990951 85.68372093024664,50.00202301767422 84.17674418608658,50.98924169692327 83.80000000004657,57.95454332331428 86.98139534913935,58.72236385161523 88.44651162810624,57.18672120699193 88.73953488375992,49.72779514105059 90.0372093024198,49.17933877953328 92.33953488385305,49.45356706154416 96.27441860479303,53.89603700576117 97.65581395360641,51.48285005192156 96.98604651167989,51.0989324990951 98.70232558134012,50.33109620245523 112.47441860451363,50.715014549321495 114.94418604648672,46.711275125446264 116.19999999995343,39.9651507435774 103.09767441870645,38.813361156819155 99.70697674411349,37.27763614838477 94.30697674420662,37.71641537055257 94.18139534885995,38.97790274510044" stroke="#4dd2ff" stroke-linecap="round" stroke-linejoin="round" stroke-width="0.5"><title>2025-05-03 2.0km</title><desc>1746279724000</desc></polyline><polyline fill="none" points="130.06811471056426,64.19999999999709 130.08099611173384,63.32489951081516 130.89252439246047,61.69248267621151 132.28371573070763,60.497606141507276 133.2111766228336,59.067103775909345 132.87626018951414,57.48511567643436 134.0613491073018,55.65065534281166 134.73118197388249,55.330884024362604 134.87287738797022,54.96062138380512 134.6796563687967,54.506206509206095 135.22067522251746,54.05178983396763 135.61999866220867,53.260763918697194 135.72304987243842,51.79651006012864 135.32372643280542,50.53420724445459 135.5555916557787,49.67583339277917 137.2945808285731,48.564987105317414 137.5264460516628,47.571948738594074 137.83559968235204,47.353142518535606 137.61661586060654,45.11456258789258 137.16576681582956,43.869017989200074 137.4749204465188,41.546209486274165 138.53119535150472,39.66099697736354 139.67764006537618,38.71837909885653 140.7467963716481,38.38172797852167 140.57933815498836,38.26389985280548 140.84984758187784,37.79258613926504 140.63086376007413,37.75892079987534 141.01730579847936,37.32127048827533 140.81120337801985,37.35493595614389 141.3393408305128,37.001448050214094 141.54544325103052,37.42226686228241 141.89324108557776,36.546961998297775 141.86747828300577,35.890478964938666 141.45527344202856,35.738982346512785 141.5712060535443,35.284491290090955 141.12035700876731,35.065661620341416 141.22340821899706,34.88049772740487 141.03018719976535,34.829998431989225 140.66950796393212,35.536986543818784 140.7210335690761,34.49333589401067 141.04306860105135,34.106172753177816 140.78544057544786,32.97834223918471 141.04306860105135,32.47333990535844 140.81120337801985,32.03566941670579 140.18001471529715,31.80000000000291 139.09797700779745,32.742674760200316 138.75017917330842,32.65850768603559 139.4071306385449,32.54067367838434 140.19289611658314,31.901001237878518 140.79832197673386,32.08616994300246 141.00442439725157,32.42283954965387 140.78544057544786,33.146675856085494 141.01730579847936,34.022006679959304 140.7081521677901,34.49333589401067 140.6952707665041,35.3854894582837 141.00442439725157,34.89733082089515 141.5712060535443,35.200326081889216 141.41662923822878,35.72214937652461 141.93188528943574,35.83998011435324 141.91900388809154,36.42913198707538 141.67425726383226,36.44596485319926 141.7773084740038,36.95094968898047 141.5969688561163,36.934116896940395 141.48103624460055,37.47276501592569 141.26205242279684,37.11927747327718 140.86272898316383,37.43909958265431 141.08171280490933,37.3381032234538 140.6823893652181,37.843084129803174 140.66950796393212,38.482723418397654 139.70340286788996,38.836206757463515 138.363737134845,39.980811996851116 137.64237866312033,41.5630416011918 137.15288541454356,43.81852265256748 137.64237866312033,45.03040459527256 137.74542987340828,46.49474485403334 138.05458350409754,46.84820349414076 137.9128880900098,47.43729880641331 137.38475063757505,47.858079319426906 137.33322503243107,48.76695995804039 136.08372910827165,49.27189053337497 135.49118464940693,49.928296957303246 135.45254044554895,51.2242678387629 135.95491509552812,51.661865088484774 135.69728706986643,53.395407013034855 134.53796095465077,54.72499908100872 134.6796563687967,55.28039373465435 134.08711190987378,55.78529563112534 133.0050742023741,57.56926452911284 133.31422783300513,59.067103775909345 132.86337878828635,59.9590661686816 131.98744350124616,60.98565580754075 130.94404999754624,61.69248267621151 130.69930337328697,62.180527257500216" stroke="#4dd2ff" stroke-linecap="round" stroke-linejoin="round" stroke-width="0.5"><title>2025-05-02 5.2km</title><desc>1746153801000</desc></polyline><polyline fill="none" points="157.33372781146318,50.251526925712824 159.250887574628,56.755849013105035 181.10650887619704,55.75518568686675 187.43313609529287,53.00335851998534 185.89940828364342,40.745165522093885 161.1680473377928,38.743819544208236 156.95029585808516,45.74852021760307 158.10059171635658,56.755849013105035 185.32426035497338,54.50435570534319 186.28284023702145,39.49432456016075 160.40118343289942,39.744492825935595 158.29230769351125,44.747850448824465 159.44260355178267,56.755849013105035 186.66627218946815,54.25418959965464 185.7076923083514,40.745165522093885 159.05917159840465,40.49499740253668 157.9088757392019,56.25551742245443 186.4745562132448,53.5036910623312 185.89940828364342,41.49566965957638 161.35976331401616,40.24482924735639 157.9088757392019,41.74583763256669 158.29230769351125,56.505683236173354 188.0082840230316,51.752526527037844 187.04970414191484,41.74583763256669 163.660355030559,39.744492825935595 158.29230769351125,41.245501649798825 156.3751479294151,55.50501976360101 186.66627218946815,54.50435570534319 187.62485207151622,39.994661055272445 158.86745562124997,40.49499740253668 159.250887574628,57.256180455791764 183.02366863843054,55.00468780763913 188.20000000018626,49.751193432020955 187.62485207151622,41.996005568420514 183.79053254425526,40.24482924735639 157.9088757392019,40.24482924735639 156.3751479294151,50.251526925712824 158.4840236697346,56.505683236173354 188.0082840230316,54.004023457178846 186.66627218946815,39.744492825935595 160.40118343289942,39.744492825935595 158.10059171635658,56.25551742245443 187.43313609529287,52.25285943422932 186.85798816662282,40.49499740253668 182.8319526631385,38.993987919879146 157.9088757392019,40.99533360416535 158.86745562124997,56.505683236173354 188.20000000018626,53.00335851998534 187.04970414191484,40.24482924735639 156.56686390563846,40.99533360416535 158.29230769351125,56.25551742245443 182.0650887573138,54.25418959965464 187.43313609529287,52.25285943422932 186.28284023702145,40.99533360416535 159.82603550329804,39.49432456016075 155.79999999981374,49.00069291878026" stroke="#4dd2ff" stroke-linecap="round" stroke-linejoin="round" stroke-width="0.5"><title>2025-05-01 4.2km</title><desc>1746070962000</desc></polyline><polyline fill="none" points="40.72857142984867,80.71432598703541 42.27142857387662,100.92852893890813 36.87142857350409,88.80002150312066 24.528571428731084,96.3803436900489 12.571428572759032,93.85357149341144 28.77142857387662,86.2732437076047 39.18571428768337,89.81073209876195 18.74285714328289,94.35892608272843 28.77142857387662,83.24110788898543 21.057142857462168,93.34821682982147 17.200000001117587,88.29466609354131 24.142857141792774,95.87498939945363 26.842857144773006,87.78931060922332 42.27142857387662,91.32679743156768 22.214285714551806,92.84286209219135 30.314285716041923,92.3375072805211 28.385714288800955,84.25182012678124 25.685714285820723,91.32679743156768 36.100000001490116,91.32679743156768 30.314285716041923,84.25182012678124 32.6285714302212,88.80002150312066 37.2571428604424,82.73575165728107 41.500000001862645,86.77859941567294 28.000000001862645,89.30537683772855 34.55714285932481,85.76788792409934 43.81428571790457,92.84286209219135 13.342857144773006,88.29466609354131 42.65714286081493,87.78931060922332 41.500000001862645,95.87498939945363 20.671428572386503,85.76788792409934 27.22857142984867,84.25182012678124 29.542857145890594,91.32679743156768 19.514285715296865,83.24110788898543 34.1714285723865,82.73575165728107 26.071428572759032,87.2839550501667 37.2571428604424,85.26253206725232 41.11428571678698,93.85357149341144 17.58571428619325,88.80002150312066 18.357142858207226,77.17682818882167 40.342857144773006,85.26253206725232 30.314285716041923,84.25182012678124 36.100000001490116,79.19825594965369 21.828571431338787,87.2839550501667 39.9571428578347,86.77859941567294 11.800000000745058,92.3375072805211 31.85714286006987,86.2732437076047 28.000000001862645,78.69289912190288 26.457142857834697,88.29466609354131 14.5,86.77859941567294 43.04285714402795,88.29466609354131 27.614285714924335,84.75717613473535 28.000000001862645,90.82144239591435 41.885714288800955,86.2732437076047 24.914285715669394,90.31608728412539 43.42857143096626,83.24110788898543 19.90000000037253,82.23039535200223 42.65714286081493,90.31608728412539 12.185714285820723,88.29466609354131 28.77142857387662,86.77859941567294 25.300000000745058,97.39105204469524 24.914285715669394,91.83215239434503 13.342857144773006,90.82144239591435 33.014285715296865,92.84286209219135 41.500000001862645,85.26253206725232 42.27142857387662,93.34821682982147 33.78571428731084,97.39105204469524 17.200000001117587,88.29466609354131 26.071428572759032,87.2839550501667 22.600000001490116,93.85357149341144 22.98571428656578,86.77859941567294 19.128571428358555,91.32679743156768 38.02857143059373,90.31608728412539 43.04285714402795,82.23039535200223 43.04285714402795,93.34821682982147 32.24285714328289,86.77859941567294 41.885714288800955,96.3803436900489 36.87142857350409,93.34821682982147 41.885714288800955,86.2732437076047 29.928571429103613,89.30537683772855 43.42857143096626,84.25182012678124 44.20000000111759,76.671471061185" stroke="#4dd2ff" stroke-linecap="round" stroke-linejoin="round" stroke-width="0.5"><title>2025-04-27 2.3km</title><desc>1745759770000</desc></polyline><polyline fill="none" points="66.04466019570827,89.21215143613517 72.33592233248055,83.03009452787228 57.23689320497215,83.44223208143376 57.23689320497215,89.6242880767677 72.96504854597151,88.38787797326222 66.04466019570827,92.50924285245128 63.842718448489904,86.32719325064681 51.57475728355348,84.26650700625032 56.2932038847357,83.03009452787228 77.05436893180013,88.80001473450102 59.43883495219052,89.21215143613517 69.50485436990857,90.44856117432937 51.88932039029896,95.39419464417733 69.81941747665405,88.38787797326222 73.27961165085435,93.7456511282362 52.518446603789926,88.38787797326222 61.64077669940889,94.56992300786078 57.55145631171763,92.097106637666 71.07766990363598,89.21215143613517 65.7300970889628,95.80633037071675 58.18058252520859,87.97574114985764 67.3029126226902,87.97574114985764 70.7631067968905,90.0364246557001 64.47184466011822,93.7456511282362 66.04466019570827,87.97574114985764 52.203883497044444,93.7456511282362 47.80000000074506,90.44856117432937 64.47184466011822,95.39419464417733 71.70679611898959,91.27283402741887 53.14757281728089,90.86069763125852 65.41553398221731,94.15778709808365 58.495145631954074,93.33351509645581 61.95533980615437,97.45487266848795 69.81941747665405,92.097106637666 53.46213592402637,87.56360426684842 68.24660194292665,86.73933031689376 62.58446602150798,90.44856117432937 67.61747572943568,91.68497036281042 55.349514566361904,91.27283402741887 76.42524272017181,92.097106637666 51.88932039029896,93.7456511282362 64.15728155337274,97.45487266848795 56.2932038847357,94.15778709808365 68.24660194292665,92.92137900483795 66.67378640919924,97.86700809141621 53.776699028909206,95.39419464417733 61.64077669940889,92.92137900483795 65.10097087547183,97.86700809141621 68.87572815641761,92.50924285245128 57.23689320497215,93.33351509645581 69.19029126316309,95.39419464417733 72.65048543736339,89.6242880767677 61.011650485917926,94.9820588559378 69.50485436990857,88.38787797326222 61.32621359452605,93.33351509645581 77.68349514715374,89.6242880767677 68.24660194292665,93.7456511282362 60.38252427242696,86.32719325064681 62.899029126390815,90.44856117432937 73.90873786620796,87.97574114985764 61.95533980615437,94.9820588559378 77.99805825203657,85.09078168706037 72.33592233248055,90.86069763125852 59.43883495219052,90.86069763125852 55.66407767124474,97.45487266848795 54.405825244262815,90.86069763125852 72.02135922387242,96.63060164125636 66.67378640919924,94.56992300786078 72.33592233248055,90.86069763125852 58.809708738699555,93.7456511282362 69.81941747665405,91.68497036281042 70.44854369200766,79.73299190844409 66.98834951594472,92.097106637666 75.16699029318988,92.50924285245128 66.04466019570827,96.21846603602171 67.93203883804381,89.6242880767677 63.52815534174442,90.86069763125852 77.05436893180013,92.097106637666 51.88932039029896,95.80633037071675 56.607766991481185,90.86069763125852 50.63106796331704,89.21215143613517 66.04466019570827,90.86069763125852 65.7300970889628,94.9820588559378 55.66407767124474,95.39419464417733 68.87572815641761,95.39419464417733 73.59417475946248,89.21215143613517 61.95533980615437,84.67864437634125 63.842718448489904,87.97574114985764 52.83300971053541,90.86069763125852 58.495145631954074,81.79368150257505 64.78640776872635,86.73933031689376 58.18058252520859,92.097106637666 77.36893204040825,91.27283402741887 78.62718446739018,86.73933031689376 68.87572815641761,92.097106637666 65.10097087547183,88.38787797326222 75.16699029318988,86.73933031689376 71.70679611898959,91.68497036281042 58.495145631954074,87.15146732260473 70.7631067968905,91.68497036281042 55.66407767124474,90.44856117432937 63.21359223499894,94.15778709808365 77.36893204040825,90.0364246557001 72.65048543736339,93.7456511282362 65.7300970889628,88.38787797326222 72.02135922387242,89.21215143613517 64.78640776872635,96.21846603602171 66.98834951594472,90.44856117432937 80.20000000111759,88.80001473450102" stroke="#4dd2ff" stroke-linecap="round" stroke-linejoin="round" stroke-width="0.5"><title>2025-04-26 3.2km</title><desc>1745672895000</desc></polyline><polyline fill="none" points="96.96517150395084,97.97778588779329 95.91081794211641,98.08993353368714 94.17255936691072,96.89368940680288 92.69076517166104,93.82828793769295 93.37467018479947,93.75352158285386 94.0870712401811,96.03388543662732 95.39788918220438,97.5291948056256 100.64116094994824,98.87496565897891 101.23957783647347,98.72543591877911 100.66965699219145,98.8002007999894 99.92875989456661,96.81892396052717 97.76306068594567,94.1647362603253 97.64907651720569,93.56660559875309 97.25013192615006,93.52922238536121 97.7915567283053,92.74417362327222 97.96253298164811,90.57593101622479 98.95989445922896,90.68808195303427 99.35883905028459,89.2674997364229 98.87440633261576,88.37028579330945 98.70343007927295,88.8188931636978 98.87440633261576,87.84690951929952 96.16728232195601,86.27677418154781 95.6543535621604,85.15524295635987 91.86437994730659,81.86538926084177 90.55356200528331,79.36058551618771 88.01741424808279,78.87457593799627 85.59525065962225,80.14567593339598 83.80000000004657,78.72503434101236 85.56675461761188,80.07090552271984 88.18839050130919,78.94934670328803 90.6105540896533,79.43535613728454 92.0923482850194,82.20185354043497 96.16728232195601,86.0150840083661 101.38205804757308,89.11796430083632 103.17730870726518,89.641337937559 104.54511873354204,88.9310448817414 105.8844327176921,90.27686160781013 111.15620052767918,87.39830042012909 112.69498680741526,87.24876387645782 115.25963060685899,89.94040809945727 116.20000000006985,90.16471048827225 114.00580474932212,89.04319654979918 112.83746701839846,87.39830042012909 111.3841688655084,87.47306865866994 105.9414248020621,90.27686160781013 104.20316622697283,88.8936609813245 103.23430079163518,89.7161055112083 98.95989445922896,87.84690951929952 98.07651715050451,89.9777918447362 97.7345646439353,92.96847351890756 98.21899736160412,96.96845483088691 97.76306068594567,98.08993353368714 94.20105540903751,96.85630668645899 93.31767810031306,95.2862274281797 93.34617414243985,94.2395024932921" stroke="#4dd2ff" stroke-linecap="round" stroke-linejoin="round" stroke-width="0.5"><title>2025-04-24 3.3km</title><desc>1745457116000</desc></polyline><polyline fill="none" points="152.20000000018626,86.5837733137887 150.83373493980616,89.65245267673163 148.03614457859658,90.50486071425257 128.19277108437382,91.7834704091656 129.55903614475392,89.9934160427656 127.1518072290346,83.1741104341927 124.41927710874006,83.00362676125951 121.29638554225676,86.6690146275796 120.58072289149277,93.4030386218219 124.093975903932,95.61928249301855 125.98072289163247,95.27832245151512 127.2819277108647,92.46539442124777 126.30602409644052,81.81023964018095 123.76867469889112,82.57741735852323 121.3614457831718,86.49853198748315 121.94698795187287,94.68164189421805 125.59036144590937,94.59640176425455 127.21686747018248,92.12443251616787 126.95662650628947,84.45273637532955 124.67951807240024,82.2364496095106 123.05301204835996,82.57741735852323 120.71084337378852,86.92473849357339 121.68674698821269,94.42592146643437 123.89879518095404,95.70452247181674 126.95662650628947,94.7668820116669 126.7614457833115,81.72499760828214 124.02891566301696,82.2364496095106 121.81686747027561,84.6232196202618 121.23132530134171,88.20335612271447 122.07710843370296,94.25544111826457 123.37831325293519,95.44880249758717 126.24096385575831,94.9373622086714 127.41204819292761,92.20967301120982 126.56626506033354,84.36749473417876 125.46024096407928,82.91838490596274 122.53253012080677,82.83314303791849 119.80000000004657,86.07232516637305 121.3614457831718,94.17020092520397 125.59036144590937,95.70452247181674 127.41204819292761,93.14731762744486 126.89156626514159,84.28225308039691 124.22409638552926,82.66265926422784 121.81686747027561,83.77080289274454 120.71084337378852,86.07232516637305 122.98795180744492,95.02260228828527 125.46024096407928,95.7897624381585 127.60722891567275,92.6358752985252 127.1518072290346,85.73135948320851 126.24096385575831,83.77080289274454 123.18313253019005,82.66265926422784 120.9710843374487,84.96418595855357 121.81686747027561,93.4030386218219 123.37831325293519,95.19308240985265 126.69638554239646,94.85212211636826 127.2819277108647,88.71480238088407 126.69638554239646,84.11176973494003 122.53253012080677,82.66265926422784 120.90602409653366,85.04942751169438 121.42650602431968,91.3572674926254 121.81686747027561,94.34068129857769 123.96385542186908,95.87500239169458 127.08674698788673,93.99972050177166 126.95662650628947,84.36749473417876 124.093975903932,82.57741735852323 121.29638554225676,84.87894439283991 121.62168674729764,93.57351922185626 124.41927710874006,95.61928249301855 127.2819277108647,93.4030386218219 127.2819277108647,85.1346690520295" stroke="#4dd2ff" stroke-linecap="round" stroke-linejoin="round" stroke-width="0.5"><title>2025-04-20 4.3km</title><desc>1745155370000</desc></polyline><polyline fill="none" points="178.10307212918997,89.42317013000138 163.04354349989444,78.62313343060669 167.16509870346636,98.97697958396748 172.07926067709923,104.7923100705957 176.6763799432665,104.16924009774812 180.48089243937284,99.60005185799673 179.37124296091497,80.70007000956684 173.98151692561805,73.63847312226426 170.81108984537423,74.05386215634644 167.0065773492679,79.6616021032678 168.11622682772577,99.80774255446158 172.71334609296173,105.0 179.2127216067165,102.71540908701718 178.89567889925092,78.62313343060669 174.7741236947477,72.59999999997672 167.48214141093194,75.50772280909587 168.27474818192422,98.56159791431855 172.71334609296173,104.58462011045776 179.84680702351034,100.43081446096767 180.63941379263997,79.86929574608803 176.83490129746497,74.26155662781093 171.4451752603054,74.26155662781093 166.84805599600077,78.41543960443232 168.27474818192422,101.05388609063812 173.66447421815246,105.0 180.79793514776975,97.73083420668263 179.52976431604475,77.37697001057677 174.93264504987746,72.80769468611106 166.21397057920694,79.86929574608803 168.75031224358827,101.88464783423115 175.0911664031446,105.0 180.32237108517438,100.8461955783423 179.52976431604475,78.20774574659299 177.15194400586188,74.46925106772687 171.4451752603054,73.43077855883166 167.0065773492679,80.07698935782537 167.79918411932886,100.01543322089128 170.65256849117577,103.75385996256955 176.83490129746497,104.16924009774812 180.63941379263997,97.73083420668263 179.52976431604475,78.62313343060669 172.39630338549614,74.05386215634644 166.84805599600077,80.28468293894548 168.11622682772577,101.05388609063812 171.4451752603054,104.7923100705957 180.32237108517438,100.8461955783423 180.32237108517438,81.11545695655514 173.66447421815246,72.80769468611106 167.16509870346636,77.58466399041936 167.0065773492679,98.56159791431855 169.06735495198518,102.92309932329226 174.4570809872821,105.0 180.95645650103688,100.01543322089128 179.52976431604475,78.00005185895134 174.14003827888519,73.01538934092969 166.6895346418023,80.07698935782537 167.6406627651304,98.353907033219 171.4451752603054,104.58462011045776 180.0053283777088,101.2615765723167 179.84680702351034,79.45390843041241 175.0911664031446,73.63847312226426 168.11622682772577,76.75388788653072 167.0065773492679,97.93852517951746 171.4451752603054,104.37693011958618 180.16384973097593,101.05388609063812 180.63941379263997,80.90776349848602" stroke="#4dd2ff" stroke-linecap="round" stroke-linejoin="round" stroke-width="0.5"><title>2025-04-19 4.1km</title><desc>1745066356000</desc></polyline><polyline fill="none" points="28.32538598496467,115.74476126511581 23.11921022180468,114.89212124585174 20.02804336231202,119.36847572494298 21.329587303102016,138.76585130940657 26.047684089280665,144.7342221001163 35.48387765977532,140.8974151405273 35.80926364567131,120.22111309855245 34.345026711933315,116.3842409485951 27.837307007052004,113.40000000002328 21.16689431015402,118.72899736429099 22.46843825094402,141.9631958748214 26.53576306719333,145.58684448315762 32.71809678617865,144.9473777427338 34.995798682793975,139.40532078966498 35.64657065272331,120.00795380200725 34.345026711933315,115.95792119135149 28.162692992947996,114.03948072320782 21.329587303102016,118.30267829936929 23.281903214752674,142.17635192687158 30.76578087452799,144.9473777427338 35.80926364567131,139.61847721983213 34.995798682793975,121.28690910711884 27.67461401410401,114.6789611625718 20.841508325189352,119.58163511520252 21.81766628101468,139.19216432760004 28.32538598496467,145.58684448315762 33.04348277114332,143.88159921276383 35.15849167481065,137.70006821292918 34.83310568984598,118.51583784713876 28.813464962877333,113.82632051350083 21.004201318137348,120.64743159618229 21.654973288066685,137.70006821292918 27.67461401410401,145.16053335450124 34.67041269689798,141.53688367537688 34.995798682793975,120.22111309855245 28.813464962877333,113.82632051350083 21.81766628101468,119.15531630266923 21.654973288066685,139.40532078966498 23.93267518375069,143.45528758037835 30.76578087452799,144.30791071942076 35.321184667758644,138.55269475327805 34.67041269689798,117.87635910813697 31.41655284538865,114.252640901017 25.071526133455336,114.03948072320782 21.16689431015402,121.07374996854924 22.631131243892014,142.17635192687158 29.301543940789998,145.37368893472012 34.18233371898532,141.53688367537688 34.18233371898532,122.99218108295463 29.626929925754666,115.53160130779725 25.884991095401347,114.6789611625718 20.678815332241356,118.94215684896335 21.654973288066685,138.33953816571739 29.464236933737993,145.80000000004657 34.019640726968646,143.02897582191508 35.97195663768798,124.48429240856785 34.50771970488131,116.59740078018513 30.928473867475986,113.82632051350083 21.654973288066685,119.36847572494298 22.305745258927345,141.9631958748214 25.396912117488682,145.16053335450124 34.019640726968646,142.3895079480717 34.50771970488131,123.20533993793651 28.650771969929338,114.6789611625718 22.14305226597935,117.2368800858967 21.654973288066685,139.19216432760004 24.420754162594676,144.52106642501894 33.04348277114332,143.66844341252 35.64657065272331,121.71322728996165" stroke="#4dd2ff" stroke-linecap="round" stroke-linejoin="round" stroke-width="0.5"><title>2025-04-17 3.9km</title><desc>1744894073000</desc></polyline><polyline fill="none" points="48.72527971207455,135.12649443178452 48.897660589951556,135.2261299929687 49.39198810735252,135.1098884619896 49.688584617804736,134.93054320660303 50.21586730303534,134.8275850987502 50.438948439084925,134.87408236713054 50.7101948204363,134.78108773419262 51.45802362883114,134.64823759125466 52.06642672717862,134.45892478109636 52.8522807292029,134.1367572111376 53.19197245912801,134.07365168245815 53.87389093184902,134.1832559084014 54.08683201628446,134.1433998880657 55.77261560129409,134.46224607220938 57.83611610985827,135.49182266405842 59.50922463032475,135.7475488944874 59.62076519835682,135.87375037781203 59.750050856746384,135.93020870679902 60.543509897514014,136.0630512745647 60.73617087864841,135.92024548257723 62.50814490260382,136.16932476363763 63.63369063453865,136.07301443550205 65.76056646586221,136.3420181120091 65.56283545888436,136.28223979537688 65.9684375244542,135.60141997613573 66.36389953838079,134.47553123174657 66.77964165559388,133.83119195071595 67.02807292074431,133.32633589847683 68.18910883343779,130.6225059081462 68.81018699632841,129.40999493543677 69.18536890698306,128.36352876407727 69.78363195368729,127.5828000396832 70.70384163994459,128.41336159152343 71.69503168767551,129.96144639206068 71.69756670057541,130.0511390242973 71.26661450591928,131.01448176508347 71.43646037086728,131.8714899113711 72.28822470855084,132.3797002383253 73.11970894297701,132.2933385095057 73.59122134419158,132.35644903628054 73.65459666693641,132.46938322090136 73.62164149910677,133.1170830268038 73.66980674439401,133.233334862658 73.80923245442682,133.40937221245076 74.04498865504866,133.52894396573902 74.2452546749264,133.71826460768352 74.47087082387588,133.99726054229177 74.53931617244962,134.0138673339752 74.6077615210088,133.94411872646378 74.5849464048224,133.695014790168 74.79535247635795,133.3196929800979 74.97026836710575,132.6852852298798 75.06659885769477,132.60888937146228 75.16546436116914,132.58895997438958 75.35559032940364,132.6520696711632 75.77133244660217,132.58563840648821 76.23777482201695,132.69524988792 76.39241060950735,132.87793450253412 76.65858696502983,132.87461297733353 76.69914717158827,133.01079510790623 76.54704639699776,133.23665633484234 76.7549174556043,133.51565824678073 77.2974102182925,133.65847931405733 77.50274626399914,133.83783471793504 77.70301228386234,133.90758365521106 78.35704561459715,134.32275142309663 78.78292778343894,134.38253495013305 79.1074094358919,134.6914139738201 79.13275956497819,134.86079744311792 78.97812377748778,135.04678566489747 78.90714341601415,135.25269940138423 78.67392222832132,135.62798894102343 78.70941240905086,136.1062249400875 78.85390814491257,135.79736535411212 79.20627493936627,135.41543634272603 79.35584070104233,135.02021601313754 79.42428604961606,135.000288753703 79.57638682419201,135.1630275221578 79.54343165637692,134.74455402313833 80.08845943197957,134.12347185140425 80.20000000001164,133.56547965237223 74.76746733434265,125.75545655701353 74.32130506221438,125.52619751920793 74.16920428762387,125.05770438483341 73.93091307410214,124.79188833359876 73.78134731242608,124.64568816488463 73.20843439480814,124.30012034776519 72.73945700650802,123.82163305655376 72.47835067678534,122.9244419163806 71.83192238479387,122.85798188798981 71.77108207496349,122.9310879083987 71.73052186840505,123.30658326407502 71.65447148110252,124.54932844261748 71.5606760034425,124.85834264124242 71.05367342148384,125.71226300409762 70.01178311556578,127.24724446625805 69.23606916518474,128.2306406839598 68.61245598936512,128.79540959744008 67.82913700024073,130.1507970847506 66.47037008059851,133.41933654952118 66.38164462875284,133.78801391595334 66.31066426727921,134.5552420240765 65.97350755026855,135.57485097985045 65.53241530398373,136.30880795571284 64.83782176670502,136.17264580207848 63.72241608638433,136.08297759203015 62.49546983804612,136.15936164536834 60.751380956106004,135.89699794221997 60.52829982005642,136.0597302199385 59.77793599876168,135.92688763255137 59.603020107984776,135.85382387491518 59.50922463032475,135.73426448661667 57.82344104530057,135.4752169641124 55.78275565292279,134.44231831818797 54.19330255850218,134.14007854985175 54.00571160315303,134.1101864838056 53.856145841491525,134.15668523602653 53.18436742038466,134.04375952808186 52.84467569048866,134.1101864838056 51.488443783746334,134.6216674684547 50.75582505280909,134.75119652047943 50.373038103440194,134.8674399061092 50.20572725139209,134.82426386161387 49.73928487599187,134.90397341745847 49.620139269231004,134.94382808939918 49.437618339739856,135.09328247992926 48.85203035757877,135.2261299929687 48.65683436351537,135.00693117547962 48.67457945388742,134.34932189919164 48.2005320397584,134.2164692046954 47.87098036147654,133.82122779620477 47.80000000000291,133.61862236330307 48.01801111023815,133.60201527963181 48.04843126516789,133.56880107548932 48.00787105860945,133.48576535041866" stroke="#ffad00" stroke-linecap="round" stroke-linejoin="round" stroke-width="0.5"><title>2025-04-14 32.8km</title><desc>1744614550000</desc></polyline><polyline fill="none" points="104.81740147527307,123.91956133791246 102.4087007381022,115.71431016223505 95.50375862419605,114.4519596308237 92.61331773921847,120.13252820854541 92.61331773921847,139.69875763799064 97.27013916429132,145.37922550400253 102.56928078643978,145.16883820900694 105.94146181922406,140.96108578832354 105.13856157287955,119.71174612827599 98.0730394097045,114.66235146403778 92.77389778848737,120.13252820854541 92.45273768901825,139.69875763799064 96.78839901741594,144.95845088374335 105.13856157287955,143.0649635529844 106.10204186849296,119.71174612827599 101.60580049175769,114.66235146403778 92.77389778848737,119.71174612827599 92.77389778848737,138.22604004736058 97.10955911502242,145.5896127676824 102.89044088497758,144.74806352634914 106.58378201629966,140.11953381251078 105.78088176902384,118.87018159439322 97.75187931209803,114.66235146403778 91.97099754214287,120.97409199678805 93.89795813243836,142.22341282025445 98.71535960771143,145.5896127676824 106.58378201629966,140.5403098622337 106.42320196609944,120.76370109640993 101.9269605902955,114.4519596308237 98.55477955751121,113.8207839456154 92.77389778848737,118.87018159439322 93.09505788702518,139.2779813389061 97.43071921356022,145.80000000004657 106.42320196609944,142.01302505959757 105.78088176902384,118.44939914043061 99.67883990239352,113.4000000001397 95.66433867253363,114.4519596308237 92.45273768901825,120.5533101647161 93.25563793629408,140.7506978410529 99.3576798029244,145.37922550400253 106.90494211390615,140.5403098622337 106.58378201629966,120.5533101647161 101.28464039321989,114.03117587172892 97.43071921356022,114.24156776652671 92.29215764068067,119.50135504128411 92.61331773921847,139.2779813389061 94.05853818170726,142.85457591619343 100.4817401478067,145.5896127676824 107.38668226171285,138.43642836785875 106.26262191683054,118.02861656306777 99.67883990239352,114.24156776652671 92.45273768901825,119.71174612827599 93.25563793629408,141.17147370497696 96.30665886960924,144.95845088374335 101.9269605902955,145.5896127676824 107.06552216317505,139.90914574067574 106.90494211390615,120.5533101647161 102.24812068790197,113.61039198876824 95.98549877200276,115.503918484319 93.57679803390056,119.50135504128411 92.61331773921847,138.43642836785875 98.39419950824231,145.37922550400253 106.42320196609944,141.38186159043107 106.58378201629966,118.44939914043061 102.08754063863307,113.8207839456154 97.75187931209803,114.03117587172892 92.93447783775628,120.5533101647161 93.09505788702518,141.17147370497696 98.87593965604901,145.5896127676824 107.54726231005043,143.48573873308487 108.02900245785713,120.34291920240503" stroke="#4dd2ff" stroke-linecap="round" stroke-linejoin="round" stroke-width="0.5"><title>2025-04-09 4.1km</title><desc>1744204461000</desc></polyline><polyline fill="none" points="123.48460865300149,145.80000000004657 127.40509269014001,141.05858562211506 126.65115345269442,137.89763336384203 131.0240010311827,139.87322940095328 131.0240010311827,135.92203440750018 131.1747888782993,138.29275280446745 130.1192739456892,135.13179400761146 129.9684860985726,138.09519309876487 128.008244080469,136.90983425045852 129.6669104034081,142.24394079274498 126.34957775659859,135.52691426605452 129.3653347082436,138.4903124809498 128.1590319275856,144.61464798194356 129.3653347082436,142.04638167098165 127.10351699497551,140.26834825833794 129.9684860985726,135.32935415173415 128.008244080469,142.24394079274498 129.0637590130791,139.67566992831416 130.7224253360182,143.62685383029748 129.3653347082436,139.28055089642294 126.198789909482,144.21953040838707 127.55588053632528,140.46590764308348 129.8176982505247,142.24394079274498 127.10351699497551,143.62685383029748 129.3653347082436,140.0707888440229 129.6669104034081,143.2317359659355 127.2543048420921,137.7000735992333 128.008244080469,144.81220672430936 131.3255767263472,133.35375140083488 128.008244080469,145.00976543780416 128.6113954698667,137.7000735992333 129.9684860985726,144.61464798194356 127.70666838437319,137.30495398316998 129.9684860985726,134.93423383450136 127.40509269014001,131.77326709905174 130.4208496408537,138.4903124809498 127.55588053632528,137.89763336384203 126.65115345269442,143.62685383029748 127.8574562324211,137.89763336384203 129.5161225553602,139.67566992831416 127.2543048420921,140.86102632503025 130.4208496408537,137.89763336384203 131.9287281166762,139.67566992831416 130.57163748890162,138.29275280446745 129.5161225553602,142.44149988540448 131.6271524215117,141.05858562211506 128.1590319275856,143.42929491272662 130.57163748890162,144.21953040838707 127.70666838437319,140.0707888440229 130.4208496408537,140.26834825833794 129.21454686112702,144.02197157824412 129.5161225553602,135.32935415173415 135.24606076348573,137.50251380575355 127.8574562324211,141.4537041290896 129.0637590130791,143.2317359659355 128.7621833179146,139.28055089642294 129.6669104034081,144.81220672430936 127.40509269014001,140.26834825833794 132.68266735505313,141.65126333909575 130.2700617928058,144.61464798194356 130.57163748890162,137.30495398316998 128.1590319275856,139.4781104271533 130.7224253360182,139.4781104271533 129.21454686112702,142.63905894907657 127.40509269014001,133.74887218442746 130.2700617928058,134.93423383450136 128.4606076227501,141.84882251929957 126.9527291469276,139.28055089642294 131.6271524215117,138.88543174683582 129.6669104034081,136.11959443427622 135.69842430576682,137.7000735992333 138.56339340936393,119.72201286698692 148.51539134792984,119.12932543060742 148.06302780564874,113.40000000002328" stroke="#4dd2ff" stroke-linecap="round" stroke-linejoin="round" stroke-width="0.5"><title>2025-04-07 1.9km</title><desc>1744030807000</desc></polyline><polyline fill="none" points="172.53406593576074,128.90031123999506 155.80000000074506,123.76900484925136 170.04175824299455,122.8360391559545 162.9208791218698,123.30252203694545 171.8219780214131,114.90581962396391 165.05714285746217,115.37230367679149 167.90549450553954,133.5651279934682 170.7538461536169,122.36955620464869 166.83736263774335,130.76623876881786 167.19340659491718,115.8387876607012 166.83736263774335,139.62937947176397 169.68571428582072,130.76623876881786 173.9582417588681,134.9645716769155 169.32967033050954,136.36401473847218 165.05714285746217,118.17120654904284 168.97362637333572,139.62937947176397 163.27692307904363,124.23548759217374 169.32967033050954,126.56790027837269 169.32967033050954,118.6376901192125 173.9582417588681,134.49809051770717 170.7538461536169,131.23272047843784 168.97362637333572,138.6964184648823 165.05714285746217,125.16845287336037 167.19340659491718,129.83327514212579 173.60219780355692,125.63493541046046 167.90549450553954,144.2941803757567 174.67032966949046,132.63216519542038 167.54945055022836,138.22993785655126 165.05714285746217,130.76623876881786 168.6175824161619,136.36401473847218 177.16263736225665,127.96734706149437 170.39780219830573,131.23272047843784 173.9582417588681,137.76345718000084 170.39780219830573,134.0316092898138 170.7538461536169,115.37230367679149 166.12527472525835,132.16568369138986 171.10989011079073,125.63493541046046 166.12527472525835,116.77175542386249 168.6175824161619,128.90031123999506 172.1780219785869,124.70197026780806 165.41318681277335,139.16289900266565 163.63296703249216,124.70197026780806 167.90549450553954,136.36401473847218 168.6175824161619,126.56790027837269 162.2087912093848,130.76623876881786 159.7164835166186,118.17120654904284 170.7538461536169,140.56234020390548 167.54945055022836,133.09864662890323 175.3824175838381,120.03714041877538 170.7538461536169,138.6964184648823 166.12527472525835,130.29975698934868 169.68571428582072,118.6376901192125 164.70109890028834,136.83049562200904 160.42857142724097,128.90031123999506 170.7538461536169,124.70197026780806 172.53406593576074,131.23272047843784 167.19340659491718,126.10141787910834 166.12527472525835,130.76623876881786 175.73846153914928,124.70197026780806 167.54945055022836,134.49809051770717 170.7538461536169,143.82770059467293 165.41318681277335,123.76900484925136 171.10989011079073,128.4338291855529 174.67032966949046,122.8360391559545 163.63296703249216,121.43659009691328 167.19340659491718,133.5651279934682 170.39780219830573,116.77175542386249 165.76923076994717,128.90031123999506 163.63296703249216,120.03714041877538 160.7846153844148,141.4953006603755 165.41318681277335,120.50362371373922 172.89010988920927,127.50086486944929 165.76923076994717,126.10141787910834 165.41318681277335,115.8387876607012 165.05714285746217,143.36122074583545 166.12527472525835,129.83327514212579 173.60219780355692,127.96734706149437 166.83736263774335,116.30527157639153 174.67032966949046,132.16568369138986 168.6175824161619,117.23823920078576 164.34505494497716,124.23548759217374 171.8219780214131,120.97010693931952 165.05714285746217,130.29975698934868 169.32967033050954,142.89474082714878 159.7164835166186,118.17120654904284 164.70109890028834,134.49809051770717 172.53406593576074,136.83049562200904 170.39780219830573,124.70197026780806 188.2000000011176,121.43659009691328" stroke="#4dd2ff" stroke-linecap="round" stroke-linejoin="round" stroke-width="0.5"><title>2025-04-06 2.6km</title><desc>1743945103000</desc></polyline><polyline fill="none" points="14.811075747944415,175.5253463289264 16.314035646093544,174.97142100743622 16.62081476766616,174.9612881021585 17.180235518782865,175.0626169528041 17.35295989815495,175.0085749550126 19.142075111405575,175.34971292400223 21.222501591357286,176.39673826872058 22.93685550605005,176.66017580543303 23.03481858689338,176.77500660228725 23.184341183965444,176.8459312181185 23.99124761298299,176.97764777809243 24.20006365372683,176.82904442478502 25.960821133034187,177.08572233750238 27.13380012731068,176.98777978973885 28.15467854870076,177.0924769804933 29.020878421404632,177.24445592047414 29.103373647361877,177.19379638606551 29.492647994920844,176.56223143472744 29.88965626989375,175.41726439325976 30.469700827510678,174.46139253229376 31.64783577340131,171.69825900623073 32.39802673456143,170.22197375494943 32.79245703374909,169.13074510231854 33.38539147040865,168.3536774567965 34.32635264164128,169.21182889943884 35.3162953532883,170.7557446456358 35.311139401674154,170.89425277636838 34.88835136855778,171.85365190694938 34.99147040101525,172.49885895584157 35.08685550604423,172.74207364029826 35.83446849140455,173.19471630210865 35.991725015919656,173.23862891921272 36.723870146408444,173.1575594063779 37.267823042639066,173.21836156795143 37.327116486325394,173.32307602267792 37.2832908975106,173.97837494243504 37.373520050925435,174.1742854049353 37.494684914068785,174.29588415788749 37.72412476131285,174.4107268306634 38.18816040738602,174.89711293112305 38.244875875258,174.8869799929107 38.30159134310088,174.79578334690632 38.283545512415,174.5357020249121 38.507829408030375,174.14726337200045 38.659929980916786,173.56628193765573 38.74242520687403,173.46832431089206 38.876479949089116,173.4379235827546 39.07498408657557,173.50548070149307 39.441056651834515,173.43116785989514 39.96438574157946,173.55614840952876 40.098440483765444,173.7351734117965 40.3768618714239,173.7385512285582 40.42326543603849,173.8500189014776 40.276320814780775,174.05606377500771 40.27374283896643,174.137130101406 40.482558879695716,174.38708279813727 41.070337364741135,174.5627235987031 41.22759388925624,174.7079640106058 41.47765754297143,174.81604929967398 42.09637173774536,175.21123178799826 42.55267345640459,175.27878366644836 42.87749840866309,175.60302990456876 42.895544239348965,175.75839626397828 42.7460216422769,175.9306490369454 42.65837046467641,176.17720466937317 42.43408656907559,176.50819298162787 42.428930617446895,176.99115712596358 42.475334182046936,177.00466646583845 42.599077021019184,176.72434602771318 42.99608529599209,176.2852830124848 43.12240611076413,175.9272715440602 43.20747931255028,175.89687408570717 43.34669000636495,176.04886097333474 43.31833227243624,175.64356036099343 43.77205601528112,175.15043492673976 43.89837683005317,174.95115519239152 44.060789306182414,173.98175272325534 44.027275620625005,173.69463957180596 44.05821133036807,173.26227413962806 44.19484404838295,173.0866233467823 44.20000000001164,172.54615090272455 44.13297262889682,172.36373856847604 44.01438574156782,172.2286173823395 42.967727562063374,171.66785592381711 42.56040738383308,171.39760452498922 42.44697644813277,171.2185612135163 42.48564608528977,170.91114395439945 42.276830044575036,170.63412705826886 42.269096117131994,170.26251375371066 41.7844366645586,169.90778632625916 41.71225334182964,169.80643462142143 41.817950350101455,169.51926901679326 41.802482495229924,169.4077802214415 41.738033099944005,169.36723870646347 41.500859325286,169.45845701402868 41.111584977727034,169.4685923590605 40.81511775939725,169.04628250773567 40.26858688733773,168.5597718852714 39.64213876512076,167.71173207975698 39.01569064290379,167.15085977862327 38.85585614258889,166.70485511049264 38.00254614895675,166.25884173658233 37.87622533417016,165.8635044221046 37.74732654361287,165.67090171396376 37.3992998090398,165.33299830316173 36.88886059835204,165.02550185630207 36.35779758116405,164.48145954270694 36.13609166137758,163.61975110720232 35.97367918523378,163.5758200024993 35.47355187778885,163.55554407952513 35.41683640993142,163.59609590747277 35.36785486951703,164.0151272481162 35.28793761935958,165.25190074095735 35.182240611087764,165.59318437199545 34.70015913431416,166.4142716279439 33.60451941439533,168.02932836233776 32.78987905793474,169.05303952678696 32.35677912159008,169.4077802214415 32.16600891153212,169.630757268269 31.410661998728756,170.95168273073796 29.997931253994466,174.3533055663902 29.9309038828942,174.61001127597956 29.88965626989375,175.309181946639 29.544207511135028,176.38998342017112 29.05954805856163,177.2208148183745 28.28357733928715,177.08572233750238 27.16473583705374,176.98440245303027 25.922151495862636,177.0722130455124 24.171705919812666,176.82904442478502 24.00929344368342,176.96751576196766 23.92679821771162,176.97764777809243 23.176607256536954,176.82904442478502 22.942011457678746,176.6567984203375 21.204455760656856,176.37647371708772 19.116295353291207,175.3193146977137 17.36842775302648,175.00181969631194 17.159611712297192,175.04910646533062 16.515117759394343,174.93426699946758 16.25989815405046,174.9646657377507 14.793029917258536,175.51521366916677 13.950031826869235,175.66382556225471 13.643252705282066,175.76515129912514 13.493730108210002,175.7212435349502 12.978134945908096,175.8090589789772 12.67651177594962,176.00157627212502 12.096467218332691,176.14005262092905 11.838669637189014,175.94415900346212 11.848981540417299,175.91038407218912 11.80000000000291,175.98468885513648 11.830935709745972,175.9272715440602" stroke="#ffb000" stroke-linecap="round" stroke-linejoin="round" stroke-width="0.5"><title>2025-04-06 31.5km</title><desc>1743926920000</desc></polyline><polyline fill="none" points="48.60620608899626,175.1297973526398 48.82198477751808,175.3286177062855 49.36973067915824,175.19503548838475 49.57602459016198,175.04591945214634 50.08820257612388,174.9527213925394 50.27789812647097,174.98689406234735 51.24771662763669,174.78185721044247 52.641978922722046,174.26925633382598 52.80796252927394,174.24440264037366 53.43870023419731,174.33449713938717 53.63076697892393,174.2941099979089 55.266891100720386,174.60788498040165 57.14724824354926,175.55228835723938 58.7359484777553,175.7977020287999 58.86162177986989,175.92817395396378 58.98255269321089,175.98098378877512 59.719994145212695,176.09281594239837 59.933401639355,175.96234503869346 61.5292154566705,176.19222180191719 62.598624121790635,176.102135261679 64.38650468383275,176.3164784655637 64.8180620609055,175.62995122128996 65.19033957846113,174.59235167558472 65.71200234191201,173.72246829171127 66.82646370024304,171.12503088807352 67.48091334894707,169.84172866226254 67.82236533958348,168.86599367176677 68.647540983613,167.78455293000297 69.61973067915824,166.3394374984564 70.05128805620188,165.5873166039837 70.11768149882846,165.39462014243873 70.2599531615997,163.83122707659822 70.32160421546723,163.7659536636511 70.76738875877345,163.78771149049862 70.89543325526756,163.83744358153854 71.12781030444603,164.66422235156278 71.54039812646806,165.09313987563655 72.05968969555397,165.40083618489734 72.39639929741679,165.739607718755 72.48650468383858,165.86703413002942 72.61217798595317,166.26795609162946 73.40178571428987,166.66265473769454 73.51323185011279,167.051130418884 74.10603044496384,167.57944582251912 74.66563231851615,168.34392577767176 75.1849238875875,168.80073589410858 75.46946721311542,169.19538698105862 75.54297423888056,169.22956900999634 75.87019906323985,169.18606459988405 76.01484192037606,169.1239152863982 76.1002049180388,169.15188250020765 76.10731850116281,169.26064353351285 76.02195550351462,169.53098994988068 76.54836065573909,169.95980816859264 76.5270199063234,170.23636020601407 76.74042740048026,170.55951752784313 76.6930035128753,170.81741836469155 76.75939695551642,170.94170679483977 77.12930327869253,171.2058172691668 78.17500000000291,171.7899557102046 78.29118852458487,172.06648367366324 78.26747658078966,172.4268966834261 78.31252927400055,172.54496167075922 78.67057962529361,172.6412773535958 78.77016978923348,172.7065232106379 78.78202576113108,172.84322815933956 78.56624707260926,173.25023081237669 78.57336065574782,173.380718544724 78.71800351288402,173.4273211100226 79.08316744731565,173.16013166740777 79.20884074941569,173.1943072506001 79.23018149883137,174.2319757826299 79.28709016393987,174.41216450112188 79.43410421545559,174.5240049980639 80.08144028103561,174.64827151923237 80.20000000001164,174.75700412284823 80.19051522247901,176.70166945734854 80.08618266979465,176.68613769901276 79.78978337235458,176.4686918780062 79.32028688525315,176.33201049688796 79.09976580797229,176.38171292007974 77.44704332553374,177.02162112697806 76.15948477752681,177.03404633635 76.13814402811113,176.99677068620804 76.34206674473535,176.55256410388756 76.69774590164889,176.18290252254155 76.69537470726937,175.6703357972492 76.98940281031537,175.1360105171443 77.13878805621061,174.95893460936531 77.13878805621061,174.8595229198654 77.08899297424068,174.79117711071558 76.82816159250797,174.5333250126223 76.59815573770902,174.4587647804783 76.36577868853055,174.4587647804783 75.75163934426382,174.06110574390004 75.56905737705529,173.9896505887009 75.39596018735028,173.84363277732336 74.86718384076084,173.6976139519411 74.70357142857392,173.4490689384893 74.84110070258612,173.24401709062658 74.81264637003187,173.1104216290587 74.54707259952556,173.10420786600662 74.41428571428696,172.94264938194465 74.03726580795774,172.85565583788411 73.87128220140585,172.84012123855973 73.57014051523583,172.91158030038787 73.38044496487419,172.84944199953497 73.22868852458487,172.9302217548302 73.0887880562077,173.47081674445326 72.85878220140876,173.868486944486 72.88012295082444,174.10460006731955 72.8350702576281,174.17605483189436 72.76393442622793,174.17916155528656 72.39639929741679,173.77528366615115 72.10237119438534,173.59819629911362 72.02412177986116,173.48945770308637 71.9600995316141,173.34343641810847 71.99566744732147,172.73448565882973 71.94112997659249,172.6350634518858 71.50245901639573,172.57913825388096 70.67728337238077,172.65059820271745 69.94458430913801,172.20008576861437 69.86159250585479,172.03230625718788 69.77385831382708,171.33010340312467 70.14376463700319,170.51290860530207 70.1508782201272,170.3699739318199 69.24508196720853,168.95300372681777 68.42464871195261,168.18543831554962 68.17330210772343,168.0176267589959 68.32742974239227,168.08910221540646 68.28711943794042,168.20408396135826 67.82947892272205,168.81005844618448 67.26513466042525,169.31657756009918 66.41150468384149,170.84538332554075 65.23539227167203,173.71004112549417 65.12394613583456,174.67623138529052 64.80620608899335,175.63305772988133 64.34619437939546,176.35064891935326 63.824531615915475,176.2294988780959 62.73378220140876,176.1207738878711 61.5410714285681,176.1953282274535 59.91443208431883,175.95923857872913 59.71050936768006,176.102135261679 58.97781030445185,175.97166441579975 58.7359484777553,175.79148905978582 57.178073770497576,175.55539487731403 55.24317915692518,174.58303168718885 53.725614754104754,174.30032340934122 53.573858313815435,174.28478987732524 53.450556206080364,174.32517703669873 52.83167447306914,174.22265563450128 52.60403981264972,174.25372277886163 51.28802693208854,174.74768420742112 50.55295667448081,174.8750560273329 50.22573185012152,174.98378745829905 50.05974824356963,174.94029495338145 49.61633489462838,175.0210666766434 49.315193208429264,175.20435520554565 48.77218969554815,175.31619148924437 48.60857728337578,175.1297973526398 48.63466042155051,174.53021834156607 48.14856557377789,174.3531373323658 47.84742388757877,173.95236954176653 47.80000000000291,173.80945824950686 47.99680913348857,173.79703113471442 48.04186182669946,173.74421581489514 47.9944379391236,173.70693433279848" stroke="#ffa500" stroke-linecap="round" stroke-linejoin="round" stroke-width="0.5"><title>2025-04-05 35.9km</title><desc>1743843004000</desc></polyline><polyline fill="none" points="106.18234650790691,168.0857471092604 103.97436561249197,173.29288958315738 99.11680764332414,161.72145246341825 97.7920191064477,179.0785953202285 103.0911732558161,166.92860339861363 105.29915415123105,177.34288449725136 98.23361528478563,178.5000251319725 102.2079808972776,161.72145246341825 95.14244203083217,161.72145246341825 108.8319235816598,183.12858425010927 97.7920191064477,168.66431883792393 104.85755796916783,173.8714605413843 97.7920191064477,177.9214548561722 103.53276943229139,163.45717021124437 104.4159617908299,170.9786048948299 94.7008458506316,172.13574740942568 101.76638471893966,175.60717290313914 100.0,186.02143092290498 103.53276943229139,172.13574740942568 103.97436561249197,180.23573544085957 96.02563438750803,168.0857471092604 104.4159617908299,178.5000251319725 98.23361528478563,173.8714605413843 98.23361528478563,179.0785953202285 96.46723056770861,170.4000335088931 107.06553886644542,170.4000335088931 98.23361528478563,154.19999999995343 103.97436561249197,180.81430537393317 102.2079808972776,164.03574262210168 103.0911732558161,178.5000251319725 90.72648023813963,170.9786048948299 101.32478853873909,176.7643140507862 99.11680764332414,168.66431883792393 104.4159617908299,176.7643140507862 105.29915415123105,165.77145934430882 101.32478853873909,179.6571654228028 96.46723056770861,174.45003141462803 100.0,184.86429250892252 93.81765349395573,181.39287522202358 99.55840382166207,169.24289047974162 102.2079808972776,180.81430537393317 99.55840382166207,169.82146203657612 108.8319235816598,174.45003141462803 103.53276943229139,165.77145934430882 98.67521146312356,177.34288449725136 95.5840382091701,168.0857471092604 101.76638471893966,174.45003141462803 108.8319235816598,161.72145246341825 100.44159617833793,169.24289047974162 101.32478853873909,186.60000000009313 100.44159617833793,167.50717529677786 109.27351976186037,177.9214548561722 103.97436561249197,166.35003141500056 102.2079808972776,180.23573544085957 94.7008458506316,168.66431883792393 102.64957707561553,159.98573394562118 103.0911732558161,181.97144498466514 97.7920191064477,173.8714605413843 101.32478853873909,165.19288718909957 100.0,179.0785953202285 107.06553886644542,172.13574740942568 100.0,181.97144498466514 97.7920191064477,168.0857471092604 108.8319235816598,180.23573544085957 98.23361528478563,173.29288958315738 100.0,185.4428617581725 103.0911732558161,172.7143185385503 96.02563438750803,172.7143185385503 97.35042292624712,179.6571654228028 103.53276943229139,170.9786048948299 95.5840382091701,169.24289047974162 100.88319235853851,181.97144498466514 99.11680764332414,170.9786048948299 103.53276943229139,175.60717290313914 97.35042292624712,183.12858425010927 96.46723056770861,165.77145934430882 103.0911732558161,176.7643140507862" stroke="#4dd2ff" stroke-linecap="round" stroke-linejoin="round" stroke-width="0.5"><title>2025-04-04 1.7km</title><desc>1743771861000</desc></polyline><polyline fill="none" points="141.99498628731817,154.19999999995343 134.8010027417913,156.1636588482652 130.9042616551742,161.66188818775117 131.95338425505906,182.86913114751223 136.44962397124618,186.0109161407454 139.7468664292246,185.02910912793595 142.29473560117185,180.31642537284642 141.69523697160184,160.48369810101576 134.8010027417913,157.34185276471544 129.40551508311182,164.60735883400775 131.2040109699592,182.47640750184655 132.85263219848275,185.22547058889177 139.14736780058593,185.42183202004526 142.74435957241803,180.7091496573994 140.4962397152558,161.46552324586082 135.5503760278225,157.14548718417063 129.85513905528933,162.44734766497277 130.9042616551742,183.06549292744603 139.44711711537093,185.22547058889177 143.34385820105672,179.92370097211096 140.79598902910948,159.89460266614333 135.5503760278225,157.14548718417063 130.9042616551742,159.50187223160174 130.15488837007433,180.90551175596192 134.9508773991838,186.0109161407454 142.89423422981054,182.0836837394163 142.29473560117185,162.44734766497277 135.70025068428367,157.34185276471544 128.65614179801196,163.0364419685211 129.40551508311182,178.74552707385737 133.90175479929894,185.81455479632132 140.1964904004708,184.83274763869122 143.34385820105672,179.7273387281457 142.14486094377935,162.8400772297755 134.9508773991838,157.14548718417063 128.95589111186564,163.23280667851213 130.9042616551742,183.8509397560265 139.5969917718321,184.83274763869122 143.34385820105672,178.74552707385737 140.3463650578633,160.87642824626528 133.15238151233643,158.1273147946922 128.95589111186564,163.42917135951575 130.6045123403892,182.86913114751223 137.34887191466987,186.0109161407454 142.29473560117185,182.86913114751223 143.34385820105672,178.74552707385737 141.09573834296316,160.09096784051508 133.15238151233643,157.53821831557434 129.40551508311182,164.01826522743795 130.3047630265355,181.49459787795786 134.65112808533013,186.0109161407454 142.89423422981054,181.49459787795786 142.29473560117185,161.66188818775117 134.8010027417913,157.34185276471544 128.95589111186564,162.25098283938132 130.3047630265355,183.06549292744603 133.15238151233643,185.81455479632132 139.8967410866171,185.22547058889177 143.04410888720304,179.53097645542584 142.29473560117185,161.85825310077053 137.79849588591605,157.14548718417063 131.2040109699592,158.52004563598894 128.95589111186564,161.85825310077053 131.0541363125667,184.4400245724246 137.79849588591605,186.59999999997672 143.19398354459554,181.6909598610364 142.74435957241803,166.96373065188527" stroke="#4dd2ff" stroke-linecap="round" stroke-linejoin="round" stroke-width="0.5"><title>2025-04-02 4.0km</title><desc>1743590878000</desc></polyline><polyline fill="none" points="167.19589034840465,161.42299503285903 164.5181898875162,161.42299503285903 164.20316630322486,176.90071575832553 168.45598468277603,185.15543001971673 178.22171577624977,181.02807898679748 177.59166860952973,168.43958301329985 179.95434548705816,167.40773405029904 176.016550690867,156.67645964724943 164.9907252630219,158.32743030635174 164.9907252630219,177.72618937969673 168.45598468277603,184.32996078871656 176.96162144187838,181.64718241908122 177.43415681738406,162.45484841626603 173.33885022997856,155.23185871983878 164.5181898875162,159.77202803234104 164.20316630322486,177.31345262995455 168.14096109941602,184.12359340523835 173.33885022997856,185.15543001971673 178.06420398596674,180.82171111542266 177.90669219288975,161.010253465618 170.50363797694445,155.02548703702632 165.3057488463819,158.7401726662647 164.83321347087622,178.3452942756703 170.81866156030446,184.74269546556752 174.44143277220428,184.32996078871656 178.69425115175545,178.55166251340415 177.90669219288975,159.97839901421685 172.23626768682152,155.02548703702632 164.9907252630219,157.70831653825007 165.3057488463819,180.2026073167799 172.07875589560717,185.36179725104012 177.74918040074408,179.5835032442119 178.5367393605411,159.1529149042908 171.44870872795582,154.6127435794333 164.9907252630219,161.010253465618 165.7782842218876,179.78987129870802 172.23626768682152,185.36179725104012 177.43415681738406,182.67902086372487 179.32429832033813,177.31345262995455 177.43415681738406,158.53380150196608 171.9212441034615,154.6127435794333 165.46326063759625,158.94654380099382 165.62077242974192,179.37713515933137 170.50363797694445,184.94906275789253 177.59166860952973,181.85355016915128 178.69425115175545,159.97839901421685 171.76373231224716,154.81911532382946 164.04565451201051,159.77202803234104 165.14823705516756,181.44081463909242 171.44870872795582,186.1872658728389 178.22171577624977,181.44081463909242 177.74918040074408,158.7401726662647 171.44870872795582,155.02548703702632 164.5181898875162,159.56565702043008 166.09330780617893,182.67902086372487 171.1336851445958,185.98089876305312 176.17406248301268,185.56816445232835 178.37922756839544,181.64718241908122 178.06420398596674,159.97839901421685 171.29119693674147,154.19999999995343 164.83321347087622,159.77202803234104 167.19589034840465,182.47265323565807 169.4010554337874,185.36179725104012 177.43415681738406,186.59999999997672 179.32429832033813,161.42299503285903" stroke="#4dd2ff" stroke-linecap="round" stroke-linejoin="round" stroke-width="0.5"><title>2025-03-30 4.0km</title><desc>1743343343000</desc></polyline><polyline fill="none" points="35.250890580937266,199.40004550560843 33.571736972779036,201.20005999924615 29.755478771403432,197.800030612736 31.58728270791471,199.40004550560843 31.739933036267757,197.00002245756332 26.855122538283467,195.0 21.665011384524405,197.40002659440506 19.680557120591402,216.80008535133675 22.122962369583547,224.4000325773377 29.144877458922565,227.40000000002328 35.250890580937266,223.20004374638665 36.472093205899,218.00007985474076 36.62474353425205,213.00009573821444 32.50318467617035,198.0000325778965 25.02331860270351,196.20001382916234 19.37525646481663,203.80007670936175 22.88621400948614,224.2000345122069 29.908129100687802,226.6000093370676 35.55619123764336,221.20005999843124 34.33498861268163,199.20004374731798 26.702472210861742,196.0000115984585 20.74910941720009,202.00006567290984 22.73356368113309,223.60004014137667 30.518730412237346,226.0000160294585 35.098240254446864,221.20005999843124 34.33498861268163,198.4000364196254 25.328619258478284,196.60001820256002 21.05441007297486,202.00006567290984 21.817661712877452,220.60006429732312 26.244521226733923,225.80001820169855 31.434632380492985,225.80001820169855 35.861491894349456,221.20005999843124 34.487638941034675,199.60004723456223 25.02331860270351,197.00002245756332 19.83320744894445,202.80007087346166 22.122962369583547,221.60005698457826 29.45017811562866,226.0000160294585 35.708841565065086,220.40006567165256 35.098240254446864,201.60006289521698 28.53427614737302,197.20002454065252 24.870668274350464,197.40002659440506 21.359710728749633,202.20006701769307 23.038864336907864,223.40004195878282 31.434632380492985,226.40001159801614 35.250890580937266,221.00006146123633 33.571736972779036,199.00004195980728 28.228975490666926,195.80000933760311 21.665011384524405,200.60005543427542 22.580913353711367,221.20005999843124 27.007772866636515,226.40001159801614 31.58728270791471,225.80001820169855 35.098240254446864,221.40005850582384 34.79293959680945,201.00005850731395 28.228975490666926,196.40001603029668 21.665011384524405,201.40006146219093 21.665011384524405,220.200067015714 25.48126958590001,225.40002245665528 30.060779427178204,226.40001159801614 34.945589925162494,222.20005224156193 34.1823382852599,201.80006429878995 27.77102450747043,196.60001820256002 21.05441007297486,202.00006567290984 21.817661712877452,222.60004893213045 27.77102450747043,226.80000704701524 34.945589925162494,221.20005999843124 33.87703762948513,199.20004374731798 27.465723850764334,196.0000115984585 20.443808760493994,203.6000756014837 21.817661712877452,222.20005224156193 29.755478771403432,226.6000093370676 35.098240254446864,219.20007329515647 34.029687956906855,200.00005060329568 27.160423194989562,196.60001820256002 21.207060400396585,203.00007209938485 22.275612697005272,222.60004893213045 26.855122538283467,226.80000704701524 34.33498861268163,223.40004195878282" stroke="#4dd2ff" stroke-linecap="round" stroke-linejoin="round" stroke-width="0.5"><title>2025-03-30 4.5km</title><desc>1743327729000</desc></polyline><polyline fill="none" points="69.26294416189194,196.27774575923104 69.34517766488716,197.35518690024037 63.91776649747044,200.2642700286815 61.28629441605881,200.37201362516498 63.42436548182741,207.26757070200983 57.339086294639856,207.69854085403495 57.6680203047581,211.14629290351877 52.980710660107434,209.09919209015789 49.19796954328194,210.2843564192881 47.799999999813735,214.37854564521695 48.62233502510935,224.50617813167628 51.993908629287034,226.66097540810006 55.85888324910775,224.50617813167628 57.58578680176288,208.02176830137614 61.532994924113154,207.5907983399229 64.90456852782518,208.34499560517725 72.30558375641704,216.6411140403943 73.8680203044787,216.8565963782603 75.5126903555356,213.40887132688658 80.20000000018626,217.3953019453329 78.88426395924762,223.1055564879789 78.63756345119327,216.31789041351294 74.36142132012174,213.9475794408936 73.04568527871743,216.6411140403943 71.15431472100317,215.24047729017911 61.615228426177055,200.58750077086734 69.01624365476891,198.10939475154737 67.78274111635983,195.73902459192323" stroke="#4dd2ff" stroke-linecap="round" stroke-linejoin="round" stroke-width="0.5"><title>2025-03-29 1.5km</title><desc>1743247652000</desc></polyline><polyline fill="none" points="91.87452751677483,218.73942665953655 92.42354592774063,219.31489198326017 92.11609561752994,218.82574656658107 91.78668457095046,219.17102581179643 91.984331198968,219.9766750033159 93.21413243957795,221.84691920575278 94.68550178117584,223.14169313198363 95.21255945588928,221.96201056997234 94.90510914567858,221.38655306847068 95.36628461082,221.84691920575278 95.08079503721092,223.54450993117644 96.39843922364525,224.52277583177784 101.07607608556282,225.27085820483626 104.43606876104604,227.39999999999418 108.27919763827231,226.59438151767245 109.04782341374084,225.3859475455829 108.5646872119978,208.00668675426277 107.94978659169283,206.76936235548055 106.5662601958029,205.7334568121878 104.76547980774194,204.6687703722564 102.74509205517825,205.21550197395845 101.4494086051127,203.46020033146488 99.62666748045012,197.56111984915333 100.39529325591866,197.24457877103123 100.90039019403048,198.65462143247714 102.30587732628919,198.88483150956745 102.81097426440101,197.96398956798657 102.21803438046481,195.17266082411516 100.98823313973844,195.0 100.10980368207674,195.57553548492433 98.77019875927363,195.6618656609353 97.32079015416093,196.5539419050474 93.54354348615743,197.01436675449077 91.23766615986824,197.99276594461116 91.83060604380444,201.04303774594155 90.99609805911314,203.25877126208798 90.95217658625916,209.24400329079072 91.21570542349946,215.22905135920155 91.89648825326003,218.0488660264382" stroke="#4dd2ff" stroke-linecap="round" stroke-linejoin="round" stroke-width="0.5"><title>2025-03-25 3.9km</title><desc>1742910133000</desc></polyline><polyline fill="none" points="141.1519325878471,195.0 130.33287415467203,204.28134393214714 129.68888258142397,208.16261084761936 133.03763876343146,225.88127053133212 137.41678146226332,226.5562616555253 141.66712584579363,223.35005026205909 140.2503443849273,206.47510511393193 137.80317640630528,202.9313349564327 132.26484887488186,203.268837349955 130.33287415467203,210.35636457509827 132.00725224614143,225.20627900783438 137.54557977663353,226.7250093742041 141.28073090175167,223.51879845489748 140.76553764380515,205.46260047657415 134.71201685350388,201.75007579405792 130.84806741401553,204.78759688627906 130.4616724695079,223.1813020450063 136.12879831530154,226.5562616555253 141.02313427301124,223.85629476455506 141.1519325878471,208.3313612845959 139.86394944041967,203.94384183792863 136.25759662967175,201.91882717807312 133.16643707780167,201.91882717807312 129.81768089625984,206.30635440314654 130.59047078434378,223.1813020450063 135.09841179754585,226.89375706785358 141.1519325878471,223.85629476455506 140.5079410141334,205.63135131180752 135.48480674158782,201.75007579405792 129.68888258142397,207.48760885349475 130.07527752546594,223.1813020450063 136.51519325887784,226.5562616555253 141.4095292170532,222.00006382528227 141.1519325878471,205.9688529073028 136.64399157417938,201.41257295175456 130.59047078434378,204.78759688627906 129.81768089625984,222.00006382528227 133.42403370700777,226.7250093742041 136.25759662967175,226.89375706785358 141.4095292170532,221.66256696672644 140.5079410141334,204.28134393214714 134.71201685350388,201.5813243855955 130.07527752546594,207.82510990044102 130.719269098714,223.85629476455506 133.68163033621386,226.5562616555253 137.54557977663353,226.21876614319626 141.79592416109517,221.32507000828627 140.2503443849273,204.28134393214714 133.93922696541995,202.25632987020072 130.07527752546594,208.16261084761936 131.6208573016338,225.03753106482327 136.51519325887784,227.06250473693945 141.4095292170532,224.02504288230557 141.4095292170532,208.50011169584468 140.8943359577097,204.9563478215132 136.51519325887784,201.41257295175456 130.59047078434378,203.77509075345006 130.33287415467203,223.51879845489748 135.6136050564237,226.5562616555253 139.21995786763728,225.88127053133212 141.9247224754654,222.33756058372092 140.8943359577097,205.46260047657415 136.9015882029198,201.5813243855955 131.6208573016338,202.9313349564327 129.81768089625984,205.9688529073028 130.20407583983615,222.00006382528227 136.12879831530154,227.40000000002328 141.79592416109517,225.20627900783438 142.3111174190417,207.65635938965715" stroke="#4dd2ff" stroke-linecap="round" stroke-linejoin="round" stroke-width="0.5"><title>2025-03-24 4.1km</title><desc>1742817301000</desc></polyline><polyline fill="none" points="172.08029009588063,197.31431016151328 169.35042683966458,195.42078394570854 165.33592205308378,199.20783386053517 165.81766262743622,220.03642836783547 171.59854952152818,226.97922550304793 179.1458185222,221.71953381225467 178.8246581396088,200.47018159367144 174.48899296857417,195.6311758714728 165.1753418603912,198.57665957382414 165.81766262743622,220.66759314225055 170.63506837189198,226.55845088278875 174.16783258598298,226.76883820875082 179.1458185222,222.14030986186117 178.34291756525636,200.25979038281366 171.75912971235812,195.21039198804647 165.0147616704926,201.31174612790346 165.33592205308378,219.40526331297588 171.11680894717574,227.40000000002328 178.8246581396088,223.19224944349844 179.30639871396124,200.8909639227204 170.47448818106204,195.0 166.13882301095873,198.78705103346147 165.33592205308378,219.82604004710447 172.72261086199433,227.40000000002328 178.8246581396088,222.98186158947647 178.66407794784755,199.20783386053517 170.47448818106204,195.0 165.65708243567497,201.31174612790346 165.97824281919748,223.40263726678677 171.75912971235812,227.40000000002328 179.62755909655243,222.98186158947647 178.18233737256378,199.20783386053517 173.0437712445855,195.0 165.81766262743622,200.47018159367144 166.13882301095873,221.71953381225467 171.43796932976693,226.97922550304793 179.1458185222,223.40263726678677 178.34291756525636,201.94291920238174 170.47448818106204,195.0 164.21186071261764,201.31174612790346 165.49650224484503,220.4572049153503 169.51100703235716,226.55845088278875 178.50349775515497,223.40263726678677 178.98523833043873,200.25979038281366 173.36493162810802,195.21039198804647 164.69360128697008,200.47018159367144 165.1753418603912,220.24681665701792 171.59854952152818,226.55845088278875 175.29189392644912,226.34806352620944 179.7881392883137,220.8779813380679 179.1458185222,201.101355041028 176.5765354577452,196.68313503591344 170.79564856365323,195.21039198804647 165.1753418603912,202.36370109580457 165.97824281919748,221.08836950338446 170.47448818106204,226.76883820875082 178.8246581396088,222.98186158947647 178.98523833043873,200.47018159367144 176.09479488432407,196.262351463316 169.51100703235716,195.21039198804647 165.49650224484503,201.101355041028 165.97824281919748,222.14030986186117 170.79564856365323,227.40000000002328 179.30639871396124,222.98186158947647 179.7881392883137,201.101355041028 174.16783258598298,227.40000000002328" stroke="#4dd2ff" stroke-linecap="round" stroke-linejoin="round" stroke-width="0.5"><title>2025-03-23 4.2km</title><desc>1742719228000</desc></polyline><polyline fill="none" points="23.702525393106043,235.80000000004657 20.837542320601642,239.55369874404278 22.345428148284554,264.4463816698408 29.73406870290637,267.0146479816176 35.9164005946368,259.5073941301089 34.55930335074663,243.70251141255721 25.05962263699621,238.17075832746923 20.68675373867154,245.48057004367 21.893062399700284,263.8537041285308 27.170662796124816,267.21220672421623 34.55930335074663,262.66834825708065 33.805360436439514,242.51713767787442 25.813565551303327,237.5780691393884 20.68675373867154,242.71470003994182 21.440696652047336,263.06346699805 27.773817126639187,268.0024414026411 31.845108861103654,266.8170892095659 34.71009193267673,262.07566992752254 34.25772618409246,244.09763575706165 25.96435413416475,237.77563223149627 22.797793896868825,238.56588430679403 20.385176572948694,245.875693863607 22.04385098349303,264.24882251862437 31.24195452965796,267.0146479816176 36.821132090874016,263.8537041285308 34.860880515538156,243.30738695105538 25.05962263699621,238.3683213320328 20.23438799008727,246.07325572927948 20.837542320601642,262.273229399696 25.361199802719057,267.4097654375946 33.50378327071667,267.60732412175275 34.40851476788521,265.4341769890161 35.162457681261,245.2830080903368 30.940377363935113,239.1585730566876 26.4167198818177,238.17075832746923 21.13911948632449,242.31957528693601 20.837542320601642,264.05126333783846 29.432491537183523,267.60732412175275 34.860880515538156,261.4829913354479 33.805360436439514,242.31957528693601 28.37697145808488,237.9731952942675 23.099371062591672,237.9731952942675 19.178867910057306,249.43180298234802 22.64700531307608,265.4341769890161 28.980125788599253,266.8170892095659 35.9164005946368,261.0878721277695 33.352994688786566,241.13420032628346 24.60725688934326,238.3683213320328 22.04385098349303,239.75126154418103 20.23438799008727,253.77814573026262 23.250159644521773,266.8170892095659 30.63880019914359,267.4097654375946 34.860880515538156,260.8903124801582 32.59905177447945,241.33176289242692 27.47223996091634,236.59025324310642 20.988330903463066,240.54151245218236 21.13911948632449,263.6561448898865 27.019874213263392,268.19999999995343 35.31324626412243,263.26102632435504 33.805360436439514,241.72688793751877 26.86908563040197,236.59025324310642 20.68675373867154,241.52932542946655 20.837542320601642,262.07566992752254 27.773817126639187,267.8048827770399 34.40851476788521,264.24882251862437 33.805360436439514,244.09763575706165" stroke="#4dd2ff" stroke-linecap="round" stroke-linejoin="round" stroke-width="0.5"><title>2025-03-21 4.2km</title><desc>1742565279000</desc></polyline><polyline fill="none" points="65.5971142030321,237.42002728569787 61.26944991014898,235.79999999998836 60.03297439776361,237.2850251212949 59.31169701507315,252.13514359510737 64.97887644683942,254.83513920684345 69.30654074018821,250.38014216924785 66.83358971588314,237.01502073334996 61.68160841381177,236.7450162655441 58.59041963331401,240.25506812380627 61.37248953571543,253.89014165016124 65.08191607287154,255.37513737182599 68.58526335842907,252.810143246199 68.4822237319313,239.1750536033651 64.0515198125504,236.47501171787735 60.54817252745852,236.88001850951696 58.693459258880466,240.39006984891603 60.13601402333006,253.08014296658803 64.36063869064674,255.91513521742309 67.96702560177073,253.62014216877287 68.58526335842907,239.71506102313288 65.18495569890365,237.01502073334996 59.31169701507315,237.96003574226052 59.10561776300892,250.51514239876997 61.26944991014898,254.83513920684345 63.742400934454054,255.51013686321676 67.96702560177073,253.21514279738767 68.37918410543352,239.0400516988011 67.24574822001159,237.15002293721773 62.712004674598575,236.61001400183886 59.72385551966727,238.63504586491035 58.79649888491258,247.2751313893823 62.09376691840589,255.24013786029536 67.65790672367439,254.16014105186332 68.79134261002764,239.98506461340003 68.37918410543352,237.96003574226052 62.6089650481008,236.7450162655441 59.62081589316949,239.31005548831308 60.960331031586975,252.94514311646344 62.712004674598575,255.24013786029536 67.96702560177073,254.70013961574296 68.4822237319313,243.49510402482701 63.330242429859936,251.19014324626187 61.88768766541034,256.1851340205176 62.81504430016503,268.20000000001164 67.7609463497065,266.7150251205312 68.89438223652542,256.99512995185796 67.24574822001159,238.2300398509833 62.19680654397234,236.07000474701636 58.59041963331401,239.0400516988011 59.31169701507315,250.78514279733645 64.0515198125504,255.6451363345841 68.37918410543352,252.810143246199 68.89438223652542,239.85006282816175 63.63936130842194,235.9350023837178 59.72385551966727,238.2300398509833 59.414736641570926,252.2701435649651 63.43328205635771,255.37513737182599 68.27614447986707,252.4051435153233 68.68830298352987,239.1750536033651 63.94848018651828,235.9350023837178 60.445132901892066,238.09503780654632 60.23905364936218,254.16014105186332 62.81504430016503,256.32013339264086 66.0092727066949,255.91513521742309 67.65790672367439,253.48514239798533 69.40958036622033,240.7950749048614" stroke="#4dd2ff" stroke-linecap="round" stroke-linejoin="round" stroke-width="0.5"><title>2025-03-10 4.0km</title><desc>1741591515000</desc></polyline><polyline fill="none" points="108.48089494556189,242.0308272264665 99.92073929961771,236.63077855936717 93.26284046471119,241.40774574666284 93.42136186547577,263.63081446127035 98.33552529104054,267.99231007078197 106.8956809360534,262.8000518582994 106.42011673375964,243.06929574592505 101.98151751048863,237.4615566271823 92.9457976622507,241.2000518591376 92.78727626148611,263.4231238560751 96.90883268322796,267.1615500457119 107.0542023377493,263.4231238560751 107.52976654004306,243.27698935789522 101.0303891049698,237.04616765503306 93.42136186547577,241.2000518591376 93.89692606776953,263.63081446127035 99.12813229579479,267.7846201102948 104.67638132441789,266.53847970464267 107.37124513834715,262.3846703725867 107.37124513834715,244.31545695639215 101.1889105066657,237.2538621564163 93.1043190639466,241.82313343079295 93.42136186547577,261.5539070335217 99.28665369655937,267.99231007078197 107.21272373851389,263.0077425552299 106.57863813452423,240.9923579399474 97.85996108874679,237.04616765503306 93.42136186547577,240.9923579399474 93.89692606776953,264.46157657250296 100.07926070038229,267.7846201102948 107.21272373851389,262.8000518582994 107.0542023377493,243.90007000905462 101.66447470895946,237.04616765503306 95.79918287787586,237.66925106791314 92.62875486165285,241.40774574666284 92.9457976622507,262.59236113051884 98.9696108950302,267.5769301194232 107.0542023377493,262.8000518582994 105.94455253053457,240.5769700104138 100.71334630344063,235.79999999993015 92.47023345995694,241.2000518591376 92.9457976622507,262.59236113051884 101.0303891049698,267.5769301194232 106.73715953622013,262.59236113051884 106.26159533392638,240.9923579399474 100.55482490267605,236.00769468571525 91.51910505443811,242.23852099187206 93.26284046471119,264.0461955778301 102.61560311447829,267.5769301194232 106.8956809360534,263.21543322107755 106.10307393223047,239.95388788660057 97.85996108874679,236.8384731222177 92.9457976622507,240.9923579399474 92.9457976622507,262.59236113051884 101.0303891049698,267.7846201102948 107.21272373851389,262.8000518582994 107.52976654004306,242.23852099187206 100.39630350284278,236.8384731222177 92.62875486165285,242.86160210357048 93.1043190639466,264.66926702391356 98.33552529104054,268.19999999995343 106.42011673375964,262.8000518582994 108.32237354386598,242.0308272264665" stroke="#4dd2ff" stroke-linecap="round" stroke-linejoin="round" stroke-width="0.5"><title>2025-03-09 4.1km</title><desc>1741514669000</desc></polyline><polyline fill="none" points="130.32579407840967,254.66309869848192 135.57655179779977,265.5370126615744 139.98041311092675,265.75892845366616 145.23117083031684,260.4329404005548 142.5211023297161,236.02192018541973 130.83393192104995,235.80000000004657 126.43007060792297,240.9041559670586 133.0358625780791,262.652104384033 143.36799873691052,264.64934916666243 146.41682579927146,255.10693346254993 142.69048161059618,240.9041559670586 145.73930867388844,238.9068796109641 128.2932427022606,246.00829458853696 129.14013910852373,243.34526790643577 135.57655179779977,247.33980615925975 133.0358625780791,252.22200515249278 134.72965539060533,265.5370126615744 142.18234376702458,265.31509683735203 145.90868795569986,259.5452738889726 139.30289598554373,237.79728048783727 129.14013910852373,236.6876805445645 125.58317420165986,242.23567206249572 131.00331120286137,254.8850160971051 130.66455264016986,262.20827185024973 139.13351670466363,267.97808456851635 143.87613658048213,259.32335717917886 141.16606807895005,240.46031700621825 132.01958689000458,236.02192018541973 126.09131204616278,240.9041559670586 129.98703551571816,263.98360120086 140.14979239180684,268.19999999995343 144.38427442405373,261.7644391844515 143.36799873691052,237.35344060859643 132.188966171816,236.6876805445645 129.47889767121524,246.8959691002965" stroke="#4dd2ff" stroke-linecap="round" stroke-linejoin="round" stroke-width="0.5"><title>2025-03-05 1.9km</title><desc>1741161630000</desc></polyline></svg>