<?xml version="1.0" encoding="utf-8" ?>
<svg baseProfile="full" height="300mm" version="1.1" viewBox="0,0,200,300" width="200mm" xmlns="http://www.w3.org/2000/svg" xmlns:ev="http://www.w3.org/2001/xml-events" xmlns:xlink="http://www.w3.org/1999/xlink"><defs /><rect fill="#222222" height="300" width="200" x="0" y="0" /><text fill="#FFFFFF" style="font-size:12px; font-family:Arial; font-weight:bold;" x="10" y="20">Over 10km Runs</text><text fill="#FFFFFF" style="font-size:4px; font-family:Arial" x="10" y="280">ATHLETE</text><text fill="#FFFFFF" style="font-size:9px; font-family:Arial" x="10" y="290">TXyy2025</text><text fill="#FFFFFF" style="font-size:4px; font-family:Arial" x="65" y="280">SPECIAL TRACKS</text><rect fill="yellow" height="2.6" width="2.6" x="65" y="283" /><text fill="#FFFFFF" style="font-size:3px; font-family:Arial" x="70" y="285.5">Over 20.0 km</text><rect fill="red" height="2.6" width="2.6" x="65" y="287" /><text fill="#FFFFFF" style="font-size:3px; font-family:Arial" x="70" y="289.5">Over 40.0 km</text><text fill="#FFFFFF" style="font-size:4px; font-family:Arial" x="120" y="280">STATISTICS</text><text fill="#FFFFFF" style="font-size:3px; font-family:Arial" x="120" y="285">Number: 21</text><text fill="#FFFFFF" style="font-size:3px; font-family:Arial" x="120" y="290">Weekly: 3.0</text><text fill="#FFFFFF" style="font-size:3px; font-family:Arial" x="141" y="285">Total: 163.0 km</text><text fill="#FFFFFF" style="font-size:3px; font-family:Arial" x="141" y="290">Avg: 7.8 km</text><text fill="#FFFFFF" style="font-size:3px; font-family:Arial" x="167" y="285">Min: 1.5 km</text><text fill="#FFFFFF" style="font-size:3px; font-family:Arial" x="167" y="290">Max: 35.9 km</text><polyline fill="none" points="48.0,47.53752590419026 46.481927710585296,50.94716964085819 43.37349397595972,51.89428968250286 21.325301204342395,53.314967121288646 22.8433734937571,51.32601782528218 20.168674698565155,43.74901159352157 17.13253012066707,43.559585290262476 13.662650602404028,47.63223847508198 12.86746987933293,55.114487357554026 16.771084337495267,57.57698054774664 18.86746987933293,57.198136057239026 20.31325301202014,54.07266046805307 19.228915662504733,42.23359960014932 16.409638553857803,43.0860192872351 13.73493975866586,47.44281331944512 14.385542168747634,56.53515766025521 18.433734939899296,56.440446404740214 20.24096385575831,53.69381390680792 19.951807228848338,45.16970708372537 17.42168674664572,42.70716623275075 15.614457831252366,43.0860192872351 13.012048192787915,47.9163761039963 14.096385542303324,56.25102385156788 16.55421686731279,57.671691635332536 19.951807228848338,56.62986890185857 19.73493975913152,42.138886231405195 16.698795180767775,42.70716623275075 14.240963855292648,45.35913291142788 13.590361445676535,49.33706235856516 14.530120481736958,56.06160124251619 15.975903614424169,57.387558330607135 19.1566265062429,56.81929134298116 20.457831325009465,53.78852556803031 19.518072288949043,45.074994149035774 18.28915662644431,43.46487211773638 15.036144578363746,43.37015893100761 12.0,46.96925018483307 13.73493975866586,55.966889916860964 18.433734939899296,57.671691635332536 20.457831325009465,54.83035291940905 19.879518072120845,44.980281200492755 16.91566265048459,43.18073251575697 14.240963855292648,44.412003214121796 13.012048192787915,46.96925018483307 15.542168674524873,56.91400254255859 18.28915662644431,57.766402709065005 20.674698794726282,54.262083665060345 20.168674698565155,46.59039942576783 19.1566265062429,44.412003214121796 15.75903614424169,43.18073251575697 13.301204819232225,45.73798439837992 14.240963855292648,55.114487357554026 15.975903614424169,57.10342489980394 19.662650602404028,56.724580129317474 20.31325301202014,49.90533597872127 19.662650602404028,44.79085526103154 15.036144578363746,43.18073251575697 13.228915662504733,45.83269723522244 13.807228915859014,52.841408325126395 14.240963855292648,56.156312553968746 16.62650602404028,57.8611137685366 20.096385541837662,55.777467224164866 19.951807228848338,45.074994149035774 16.771084337495267,43.0860192872351 13.662650602404028,45.643271547567565 14.024096385575831,55.30391024652636 17.13253012066707,57.57698054774664 20.31325301202014,55.114487357554026 20.31325301202014,45.92741005780408" stroke="#4DD2FF" stroke-linecap="round" stroke-linejoin="round" stroke-width="0.5"><title>2025-04-20 4.3km</title><desc>1745155370000</desc></polyline><polyline fill="none" points="83.44785792194307,50.692411255673505 66.71504833269864,38.69237047852948 71.29455411527306,61.30775509332307 76.75473408587277,67.76923341176007 81.86264438182116,67.0769334420329 86.0898804878816,62.000057620112784 84.85693662427366,41.000077788485214 78.86835213936865,33.153859024751 75.3456553844735,33.61540239606984 71.11841927748173,39.84622455923818 72.351363142021,62.230825060629286 77.45927343703806,68.0 84.68080178555101,65.46156565228011 84.32853211089969,38.69237047852948 79.74902632832527,32.0 71.6468237908557,35.23080312134698 72.52749798074365,60.8462199048372 77.45927343703806,67.53846678941045 85.38534113764763,62.92312717891764 86.26601532567292,40.07699527346995 82.0387792205438,33.84617403091397 76.05019473470747,33.84617403091397 70.94228444062173,38.46159956045449 72.52749798074365,63.61542898975313 78.51608246471733,68.0 86.44215016439557,59.923149118665606 85.03307146206498,37.30774445622228 79.9251611661166,32.23077187361196 70.23774508852512,40.07699527346995 73.0559024931863,64.5384975936031 80.10129600390792,68.0 85.9137456510216,63.384661753778346 85.03307146206498,38.230828607454896 82.39104889519513,34.07694563094992 76.05019473470747,32.923087287694216 71.11841927748173,40.30776595324278 71.99909346643835,62.46159246773459 75.16952054575086,66.61539995844942 82.0387792205438,67.0769334420329 86.26601532567292,59.923149118665606 85.03307146206498,38.69237047852948 77.10700376238674,33.61540239606984 70.94228444062173,40.538536598789506 72.351363142021,63.61542898975313 76.05019473470747,67.76923341176007 85.9137456510216,63.384661753778346 85.9137456510216,41.46161884069443 78.51608246471733,32.23077187361196 71.29455411527306,37.53851554496214 71.11841927748173,60.8462199048372 73.40817216876894,65.69233258138411 79.39675665274262,68.0 86.61828500125557,62.46159246773459 85.03307146206498,38.00005762116052 79.04448697715998,32.4615437121829 70.76614960189909,40.30776595324278 71.82295862864703,60.615452259313315 76.05019473470747,67.53846678941045 85.56147597543895,63.846196191501804 85.38534113764763,39.615453811595216 80.10129600390792,33.153859024751 72.351363142021,36.61543098511174 71.11841927748173,60.15391686616931 76.05019473470747,67.30770013295114 85.73761081229895,63.61542898975313 86.26601532567292,41.23084833170287" stroke="#4DD2FF" stroke-linecap="round" stroke-linejoin="round" stroke-width="0.5"><title>2025-04-19 4.1km</title><desc>1745066356000</desc></polyline><polyline fill="none" points="123.69487331714481,34.60529029450845 117.91023357957602,33.65791249542963 114.47560373600572,38.63163969444577 115.92176367063075,60.18427923275158 121.16409343201667,66.81580233352724 131.64875295571983,62.55268348951358 132.01029293984175,39.5790145539213 130.38336301315576,35.315823276294395 123.15256334189326,32.0 115.7409936785698,37.921108182519674 117.1871536122635,63.736884305486456 121.70640340819955,67.76316053676419 128.57566309534013,67.05264193634503 131.1064429813996,60.89480087743141 131.8295229477808,39.34217089123558 130.38336301315576,34.84213465708308 123.51410332601517,32.710534136975184 115.92176367063075,37.44742033269722 118.09100357163697,63.973724363255315 126.40642319433391,67.05264193634503 132.01029293984175,61.13164135534316 131.1064429813996,40.76323234126903 122.9717933498323,33.42106795834843 115.37945369444788,38.86848346143961 116.46407364588231,60.65796036401298 123.69487331714481,67.76316053676419 128.93720307946205,65.86844356975053 131.28721297252923,59.00007579207886 130.92567298933864,37.68426427466329 124.23718329239637,32.47368945949711 115.56022368744016,40.052701773587614 116.28330365382135,59.00007579207886 122.9717933498323,67.28948150505312 130.74490299634635,63.263204083777964 131.1064429813996,39.5790145539213 124.23718329239637,32.47368945949711 116.46407364588231,38.394795891828835 116.28330365382135,60.89480087743141 118.81408353801817,65.39476397819817 126.40642319433391,66.3421230216045 131.4679829645902,59.94743861479219 130.74490299634635,36.97373234236147 127.12950316164643,32.947378778946586 120.07947348151356,32.710534136975184 115.7409936785698,40.52638885402121 117.36792360525578,63.973724363255315 124.77949326857924,67.52632103860378 130.2025930210948,63.263204083777964 130.2025930210948,42.657978981151246 125.14103325176984,34.3684458975913 120.98332343995571,33.42106795834843 115.19868370238692,38.15795205440372 116.28330365382135,59.710597961908206 124.9602632606402,68.0 130.02182302996516,64.92108424659818 132.19106293097138,44.31588045391254 130.56413300614804,35.552667533629574 126.58719318639487,32.47368945949711 116.28330365382135,38.63163969444577 117.00638362113386,63.736884305486456 120.44101346470416,67.28948150505312 130.02182302996516,64.21056438679807 130.56413300614804,42.894822153262794 124.05641330033541,33.42106795834843 116.8256136290729,36.263200095505454 116.28330365382135,60.65796036401298 119.35639351420105,66.5789626945043 128.93720307946205,65.63160379172768 131.8295229477808,41.23691921099089" stroke="#4DD2FF" stroke-linecap="round" stroke-linejoin="round" stroke-width="0.5"><title>2025-04-17 3.9km</title><desc>1744894073000</desc></polyline><polyline fill="none" points="153.02808856895717,56.1405493686525 153.21962287770293,56.25125554774422 153.7688756748248,56.12209829110179 154.09842735309212,55.92282578511549 154.68429700336128,55.80842788750124 154.93216493231012,55.86009151903636 155.2335498004686,55.75676414910413 156.06447069867863,55.60915287917305 156.74047414129018,55.398805312332115 157.61364525466342,55.04084134570985 157.99108051012445,54.97072409162138 158.7487677020399,55.092506564891664 158.98536890697142,55.048222097851976 160.85846177919302,55.40249563578982 163.15124012205342,56.5464696267336 165.01024958922062,56.8306098827652 165.13418355371687,56.97083375312468 165.27783428525436,57.033565229778105 166.15945544166607,57.18116808285049 166.37352319849015,57.02249498064339 168.34238322509918,57.29924973737616 169.5929895939189,57.192238261670354 171.95618496205134,57.49113123556708 171.73648384319677,57.424710883753505 172.1871528049378,56.66824441793142 172.6265550426324,55.417256924165486 173.08849072841986,54.7013243896854 173.3645254674775,54.14037322053264 174.65456537046703,51.136117675720016 175.34465221811843,49.78888326159722 175.76152100774925,48.626143071198385 176.4262577262998,47.758666710760735 177.4487129332556,48.6815128794733 178.55003520850732,50.40160710229247 178.5528518895153,50.50126558255397 178.07401611766545,51.57164640564952 178.2627337453887,52.52387767930304 179.20913856504194,53.08855582036449 180.13300993661687,52.99259834389704 180.6569126046379,53.06272115142383 180.72732962990995,53.18820357878212 180.69071277677722,53.907870029785045 180.74422971598688,54.037038736287286 180.8991471715708,54.232635791613575 181.1610985055886,54.36549329526679 181.38361630545114,54.575849564093005 181.63430091540795,54.88584504699247 181.71035130271048,54.90429703775226 181.78640168999846,54.82679858496158 181.7610515608976,54.550016433520796 181.99483608482115,54.132992200109584 182.18918707454577,53.42809469986969 182.2962209529651,53.34321041273688 182.40607151240692,53.32106663821287 182.61732258820848,53.391188523515666 183.0792582739814,53.31737600721135 183.59752758000104,53.439166542133535 183.7693451216619,53.642149447263364 184.06509662780445,53.638458863706546 184.11016352397564,53.78977234211925 183.94116266332276,54.04072926093795 184.17213050620921,54.35073138531334 184.77490024254075,54.509421460064914 185.0030514044338,54.708705242152064 185.22556920428178,54.786204061347235 185.95227290508046,55.247501581219694 186.42547531491437,55.31392772237268 186.786010484313,55.657126637579495 186.81417729440727,55.84533049235506 186.64235975274642,56.05198407210992 186.56349268445047,56.280777112651776 186.3043580314552,56.69776549002927 186.34379156561045,57.22913882232024 186.50434238322487,56.88596150457124 186.89586104372574,56.461595936363665 187.06204522337066,56.0224622368205 187.1380956106732,56.000320837451 187.30709647131152,56.18114169128785 187.2704796181788,55.716171136822595 187.8760660355183,55.02607983489543 188.0,54.40608850263743 181.9638525936898,45.728285063349176 181.46811673577758,45.473552799121535 181.2991158751247,44.95300487203713 181.03434786009893,44.65765370400004 180.86816368045402,44.49520907209626 180.23159377199772,44.11124483085223 179.71050778498466,43.57959228506115 179.42038964085805,42.58271324042471 178.70213598309783,42.50886876443474 178.63453563883377,42.59009767600037 178.58946874266258,43.00731473786436 178.50496831232158,44.38814271402043 178.4007511149248,44.7314918236043 177.8374149127485,45.680292226776146 176.67975901727914,47.38582718473299 175.81785462796688,48.478489648847244 175.1249510992784,49.10601066382333 174.25459666691313,50.61199676083561 172.74485564509814,54.24370727724818 172.6462718097173,54.653348795505735 172.5674047414068,55.50582447119814 172.19278616695374,56.63872331094535 171.702683671072,57.454231061903556 170.93091307410214,57.30293978008922 169.69157342929975,57.20330843559168 168.32829982003022,57.288179605966434 166.39042328455253,56.99666438024542 166.1425553556037,57.17747802215672 165.3088177763857,57.02987514728011 165.11446678663197,56.94869319435202 165.01024958922062,56.81584942957488 163.13715671698446,56.52801884901601 160.86972850323946,55.38035368687633 159.10366950942262,55.04453172206013 158.89523511459993,55.01131831534076 158.72905093496956,55.062983595587866 157.98263046708598,54.937510586760254 157.6051952116395,55.01131831534076 156.09827087081794,55.579630520507635 155.2842500586703,55.7235516894234 154.8589312260301,55.85271100678983 154.6730302793003,55.804737624017434 154.15476097330975,55.893303797176486 154.02237696580414,55.937586766000095 153.8195759330265,56.103647199923216 153.1689226195158,56.25125554774422 152.9520381816692,56.007701306089075 152.97175494873954,55.27702433243758 152.44503559971054,55.12941022744053 152.07886706829595,54.6902531068954 152.0,54.465135959226245 152.24223456691834,54.446683644036966 152.27603473905765,54.409778972767526 152.23096784288646,54.31751705602255" stroke="yellow" stroke-linecap="round" stroke-linejoin="round" stroke-width="0.5"><title>2025-04-14 32.8km</title><desc>1744614550000</desc></polyline><polyline fill="none" points="35.35266830492765,83.68840148649178 32.67633415199816,74.57145573571324 25.00417624786496,73.16884403419681 21.792575265280902,79.48058689828031 21.792575265280902,101.22084181988612 26.966821293346584,107.53247278206982 32.85475642886013,107.29870912106708 36.601624242030084,102.62342865357641 35.709512857720256,79.01305125351064 27.85893267672509,73.40261273772921 21.970997542142868,79.48058689828031 21.614152987487614,101.22084181988612 26.431554462760687,107.0649454263039 35.709512857720256,104.96107061428484 36.78004651982337,79.01305125351064 31.784222767688334,73.40261273772921 21.970997542142868,79.01305125351064 21.970997542142868,99.58448894135654 26.788399015553296,107.76623640838079 33.21160098258406,106.8311816958012 37.31531335040927,101.68837090267334 36.42320196516812,78.07797954929993 27.50208812393248,73.40261273772921 21.07888615783304,80.41565777407959 23.219953479245305,104.02601424453314 28.572621785104275,107.76623640838079 37.31531335040927,102.15589984680992 37.13689107261598,80.1818901069928 32.141067321412265,73.16884403419681 28.394199507310987,72.46753771731164 21.970997542142868,78.07797954929993 22.3278420958668,100.75331259868108 27.14524357020855,108.0 37.13689107261598,103.79225006618071 36.42320196516812,77.6104434892768 29.64315544627607,72.0 25.182598523795605,73.16884403419681 21.614152987487614,79.94812240509782 22.506264372728765,102.38966426777188 29.286310891620815,107.53247278206982 37.67215790320188,102.15589984680992 37.31531335040927,79.94812240509782 31.427378213964403,72.70130652398802 27.14524357020855,72.93507529597264 21.43573071155697,78.77928337908816 21.792575265280902,100.75331259868108 23.398375757038593,104.7273065734189 30.535266829654574,107.76623640838079 38.207424733787775,99.81825374194887 36.958468795754015,77.14290729211643 29.64315544627607,72.93507529597264 21.614152987487614,79.01305125351064 22.506264372728765,102.85719300538767 25.89628763217479,107.0649454263039 32.141067321412265,107.76623640838079 37.850580180063844,101.45460637845099 37.67215790320188,79.94812240509782 32.4979118751362,72.23376887629274 25.53944307845086,74.33768720470835 22.863108926452696,78.77928337908816 21.792575265280902,99.81825374194887 28.215777231380343,107.53247278206982 37.13689107261598,103.09095732262358 37.31531335040927,77.6104434892768 32.31948959734291,72.46753771731164 27.50208812393248,72.70130652398802 22.149419819004834,79.94812240509782 22.3278420958668,102.85719300538767 28.75104406196624,107.76623640838079 38.38584700971842,105.42859859217424 38.92111384123564,79.71435466920957" stroke="#4DD2FF" stroke-linecap="round" stroke-linejoin="round" stroke-width="0.5"><title>2025-04-09 4.1km</title><desc>1744204461000</desc></polyline><polyline fill="none" points="62.760676281526685,108.0 67.11676965560764,102.73176180233713 66.27905939146876,99.21959262655582 71.13777892384678,101.4146993344184 71.13777892384678,97.02448267501313 71.30532097630203,99.658614227199 70.13252660632133,96.1464377862867 69.96498455386609,99.43910344305914 67.78693786635995,98.12203805602621 69.62990044802427,104.04882310307585 65.94397528469563,96.58546029555146 69.29481634218246,99.87812497885898 67.95447991974652,106.6829422020819 69.29481634218246,103.82931296771858 66.78168554976583,101.85372028697748 69.96498455386609,96.36594905750826 67.78693786635995,104.04882310307585 68.95973223634064,101.19518880930264 70.80269481800497,105.5853931447491 69.29481634218246,100.75616766267922 65.77643323224038,106.24392267595977 67.28431170713156,102.0732307145372 69.79744250047952,104.04882310307585 66.78168554976583,105.5853931447491 69.29481634218246,101.63420982670505 69.62990044802427,105.14637329545803 66.94922760222107,99.00008177699056 67.78693786635995,106.9024519160157 71.4728630296886,94.17083488975186 67.78693786635995,107.12196159746964 68.45710607804358,99.00008177699056 69.96498455386609,106.6829422020819 67.45185376051813,98.56105998135172 69.96498455386609,95.92692648281809 67.11676965560764,92.41474122111686 70.46761071216315,99.87812497885898 67.28431170713156,99.21959262655582 66.27905939146876,105.5853931447491 67.6193958139047,99.21959262655582 69.46235839556903,101.19518880930264 66.94922760222107,102.51225147221703 70.46761071216315,99.21959262655582 72.1430312404409,101.19518880930264 70.63515276554972,99.658614227199 69.46235839556903,104.26833320595324 71.80794713459909,102.73176180233713 67.95447991974652,105.36588323640171 70.63515276554972,106.24392267595977 67.45185376051813,101.63420982670505 70.46761071216315,101.85372028697748 69.12727428972721,106.02441286470275 69.46235839556903,96.36594905750826 75.82895640376955,98.78057089529466 67.6193958139047,103.17078236571979 68.95973223634064,105.14637329545803 68.62464813049883,100.75616766267922 69.62990044802427,106.9024519160157 67.11676965560764,101.85372028697748 72.9807415055111,103.39029259898234 70.30006865877658,106.6829422020819 70.63515276554972,98.56105998135172 67.95447991974652,100.97567825240549 70.80269481800497,100.97567825240549 69.12727428972721,104.48784327681642 67.11676965560764,94.60985798272304 70.30006865877658,95.92692648281809 68.28956402558833,103.60980279918294 66.61414349731058,100.75616766267922 71.80794713459909,100.31714638543781 69.62990044802427,97.24399381584954 76.33158256206661,99.00008177699056 79.51488156523556,79.02445874118712 90.57265705242753,78.36591714515816 90.07003089506179,72.0" stroke="#4DD2FF" stroke-linecap="round" stroke-linejoin="round" stroke-width="0.5"><title>2025-04-07 1.9km</title><desc>1744030807000</desc></polyline><polyline fill="none" points="123.92673992738128,89.22256804467179 105.33333333395422,83.5211164993234 121.1575091574341,82.48448795103468 113.24542124569416,83.00280226347968 123.13553113490343,73.67313291574828 115.61904761940241,74.19144852994941 118.78388278372586,94.40569777064957 121.9487179480493,81.96617356082425 117.59706959687173,91.29582085437141 117.99267399311066,74.70976406754926 117.59706959687173,101.1437549686525 120.76190476305783,91.29582085437141 125.50915750861168,95.96063519688323 120.3663003668189,97.51557193184271 115.61904761940241,77.30134061025456 119.97069597057998,101.1437549686525 113.64102564193308,84.039430658333 120.3663003668189,86.63100030948408 120.3663003668189,77.81965568824671 125.50915750861168,95.44232279760763 121.9487179480493,91.81413386506028 119.97069597057998,100.10713162762113 115.61904761940241,85.07605874817818 117.99267399311066,90.25919460249133 125.1135531142354,85.59437267831527 118.78388278372586,106.32686708425172 126.30036629922688,93.36907243938185 118.38827838934958,99.58881984092295 115.61904761940241,91.29582085437141 119.57509157434106,97.51557193184271 129.06959706917405,88.18594117974862 121.55311355367303,91.81413386506028 125.50915750861168,99.07050797808915 121.55311355367303,94.92401032196358 121.9487179480493,74.19144852994941 116.80586080625653,92.85075965709984 122.34432234428823,85.59437267831527 116.80586080625653,75.74639491550624 119.57509157434106,89.22256804467179 123.53113553114235,84.55774474213831 116.01465201377869,100.62544333632104 114.03663003630936,84.55774474213831 118.78388278372586,97.51557193184271 119.57509157434106,86.63100030948408 112.45421245321631,91.29582085437141 109.68498168513179,77.30134061025456 121.9487179480493,102.1803780044429 118.38827838934958,93.88738514343277 127.09157509170473,79.37460046564229 121.9487179480493,100.10713162762113 116.80586080625653,90.77750776614994 120.76190476305783,77.81965568824671 115.22344322316349,98.03388402471319 110.47619047388434,89.22256804467179 121.9487179480493,84.55774474213831 123.92673992738128,91.81413386506028 117.99267399311066,86.11268653254956 116.80586080625653,91.29582085437141 127.48717948794365,84.55774474213831 118.38827838934958,95.44232279760763 121.9487179480493,105.80855621630326 116.01465201377869,83.5211164993234 122.34432234428823,88.70425465097651 126.30036629922688,82.48448795103468 114.03663003630936,80.92954455222934 117.99267399311066,94.40569777064957 121.55311355367303,75.74639491550624 116.41025641001761,89.22256804467179 114.03663003630936,79.37460046564229 110.87179487198591,103.217000734061 116.01465201377869,79.89291523769498 124.32234432175756,87.66762763285078 116.41025641001761,86.11268653254956 116.01465201377869,74.70976406754926 115.61904761940241,105.29024527338333 116.80586080625653,90.25919460249133 125.1135531142354,88.18594117974862 117.59706959687173,75.22807952947915 126.30036629922688,92.85075965709984 119.57509157434106,76.26471022330225 114.82783882692456,84.039430658333 123.13553113490343,80.41122993268073 115.61904761940241,90.77750776614994 120.3663003668189,104.77193425269797 109.68498168513179,77.30134061025456 115.22344322316349,95.44232279760763 123.92673992738128,98.03388402471319 121.55311355367303,84.55774474213831 141.33333333395422,80.92954455222934" stroke="#4DD2FF" stroke-linecap="round" stroke-linejoin="round" stroke-width="0.5"><title>2025-04-06 2.6km</title><desc>1743945103000</desc></polyline><polyline fill="none" points="155.3456397199334,95.69482925436205 157.015595162331,95.07935667492893 157.35646085297049,95.06809789128602 157.97803946532076,95.18068550311364 158.16995544239762,95.12063883890187 160.1578612348967,95.49968102666753 162.46944621262082,96.66304252080045 164.37428389560955,96.95575089492377 164.48313176320517,97.08334066920725 164.6492679821822,97.16214579790903 165.54583068110514,97.3084975312122 165.77784850413445,97.14338269420477 167.73424570338102,97.42858037500082 169.03755569701025,97.31975532193246 170.1718650541152,97.43608553388185 171.1343093571195,97.60495102274945 171.22597071930068,97.54866265118471 171.65849777212134,96.84692381636341 172.09961807767104,95.57473821473286 172.74411203055934,94.5126583692163 174.0531508593267,91.44251000692202 174.88669637174462,89.80219306105573 175.32495225971797,88.58971678035232 175.9837683004589,87.72630828532783 177.0292807129299,88.67980988826457 178.12921705920598,90.3952718284836 178.1234882240824,90.549169751519 177.65372374284198,91.6151687854981 177.76830044557573,92.33206550648902 177.87428389560955,92.60230404477625 178.70496499045112,93.10524033567526 178.8796944621281,93.15403213245918 179.69318905155524,93.06395489597526 180.29758115849108,93.13151285327876 180.363462762587,93.2478622474191 180.3147676639055,93.97597215826136 180.41502227881574,94.1936504499281 180.54964990452572,94.32876017542912 180.80458306812216,94.45636314518197 181.32017823042406,94.99679214569187 181.3831954169582,94.98553332545634 181.44621260344866,94.88420371878419 181.42616168045788,94.59522447212476 181.67536600893072,94.16362596888939 181.844366645455,93.51809104184031 181.9360280076362,93.4092492343243 182.0849777211988,93.3754706475047 182.3055378739664,93.45053411276967 182.71228516870178,93.36796428877278 183.29376193508506,93.50683156614286 183.44271164863312,93.70574823532843 183.7520687460201,93.70950136506508 183.80362826226337,93.8333543349745 183.64035646086268,94.0622930833415 183.63749204330088,94.15236677933899 183.8695098663302,94.4300919979305 184.52259707193298,94.62524844300424 184.6973265436245,94.78662667845128 184.97517504774441,94.906721444082 185.6626352641615,95.34581309777604 186.16963717377803,95.42087074049778 186.53055378740828,95.78114433841074 186.5506047103845,95.95377362664294 186.384468491422,96.14516559660478 186.28707829408813,96.41911629930291 186.0378739656444,96.78688109069844 186.0321451304917,97.32350791773752 186.08370464672043,97.33851829537525 186.22119669002132,97.02705114190394 186.66231699555647,96.53920334720533 186.8026734564046,96.14141282673336 186.89719923616212,96.10763787300675 187.05187778484833,96.27651219259315 187.02036919161037,95.82617817888058 187.524506683636,95.27826102971085 187.66486314449867,95.05683910265725 187.8453214513138,93.97972524806028 187.80808402292314,93.66071063534037 187.84245703373745,93.18030459958572 187.9942711648764,92.98513705197911 188.0,92.38461211413778 187.9255251432187,92.18193174275075 187.7937619350705,92.03179709148935 186.6308084022894,91.40872880424104 186.17823042647797,91.10844947221085 186.05219605346792,90.90951245946235 186.09516231699672,90.56793772710989 185.8631444939674,90.26014117585328 185.85455124125292,89.84723750412195 185.31604073839844,89.45309591806654 185.235837046479,89.34048291269028 185.35327816677454,89.02141001865857 185.33609166136011,88.89753357937843 185.26448122215515,88.85248745162608 185.00095480587333,88.95384112669853 184.56842775302357,88.96510262117772 184.23901973267493,88.49586945303963 183.6317632081482,87.955302094746 182.9357097390166,87.01303564417503 182.23965626989957,86.38984419846929 182.06206238064624,85.89428345610213 181.11394016550912,85.39871304064582 180.97358370464644,84.95944935789339 180.83036282623652,84.74544634884842 180.4436664544919,84.36999811462374 179.8765117759467,84.02833539589119 179.28644175684894,83.42384393634165 179.040101845967,82.46639011911248 178.85964353913732,82.41757778055398 178.30394653088297,82.39504897724873 178.2409293443634,82.44010656385944 178.18650541057286,82.90569694235091 178.09770846595347,84.27988971217565 177.98026734565792,84.6590937466608 177.4446212603507,85.57141291993685 176.2272437937645,87.36592040259711 175.32208784215618,88.50337725198551 174.84086569065403,88.89753357937843 174.62889879060094,89.14528585363223 173.7896244430449,90.61298081193127 172.21992361554294,94.39256174043294 172.14544875876163,94.67779030664315 172.09961807767104,95.45464660737707 171.71578612348821,96.65553713352347 171.17727562061918,97.5786831315254 170.31508593253966,97.42858037500082 169.0719287078391,97.31600272558899 167.69127943985222,97.41357005056852 165.7463399108965,97.14338269420477 165.56588160409592,97.29723973551881 165.47422024190018,97.3084975312122 164.64067472948227,97.14338269420477 164.38001273076225,96.95199824481824 162.44939528963005,96.64052635231928 160.12921705920598,95.4659052196821 158.1871419477975,95.11313299590256 157.9551241247682,95.16567385036797 157.23901973266038,95.03807444385347 156.95544239338778,95.07185081972239 155.32558879695716,95.68357074351843 154.38892425208178,95.8486950691713 154.04805856142775,95.96127922125015 153.88192234246526,95.91249281661112 153.30903882878192,96.01006553219668 152.9739019732806,96.22397363569326 152.32940802037774,96.37783624547592 152.04296626354335,96.16017667051347 152.05442393380508,96.12264896909983 152.0,96.20520983903953 152.03437301082886,96.14141282673336" stroke="yellow" stroke-linecap="round" stroke-linejoin="round" stroke-width="0.5"><title>2025-04-06 31.5km</title><desc>1743926920000</desc></polyline><polyline fill="none" points="12.895784543317859,135.2553303918212 13.135538641683524,135.47624189587077 13.744145199059858,135.32781720931416 13.973360655741999,135.16213272460664 14.54244730679784,135.05857932504296 14.753220140526537,135.0965489581631 15.830796252921573,134.86873023382395 17.379976580792572,134.29917370425028 17.564402810297906,134.27155848930124 18.265222482426907,134.37166348820756 18.47862997658376,134.32678888656483 20.296545667457394,134.6754277559994 22.385831381718162,135.72476484137587 24.151053864174173,135.99744669866413 24.290690866517252,136.14241550440238 24.42505854801857,136.201093098638 25.244437939109048,136.3253510471077 25.481557377061108,136.18038337632424 27.254683840743382,136.43580200212818 28.442915690873633,136.33570584630797 30.42944964869821,136.57386496173604 30.908957845444093,135.8110569125438 31.322599531631568,134.65816852842727 31.90222482435638,133.69163143523292 33.14051522249065,130.80558987563563 33.86768149882846,129.37969851362323 34.247072599537205,128.2955485241837 35.163934426236665,127.09394770000108 36.24414519905986,125.48826388717316 36.72365339577664,124.65257400442533 36.79742388757586,124.43846682493131 36.955503512886935,122.70136341844045 37.024004683844396,122.62883740405596 37.51932084308646,122.65301276721766 37.6615925058577,122.70827064615332 37.919789227162255,123.62691372395784 38.378220140511985,124.10348875070667 38.955210772837745,124.44537353877422 39.329332552690175,124.8217863541704 39.42944964871276,124.96337125558603 39.56908665105584,125.40884010180889 40.446428571420256,125.84739415299373 40.57025761123805,126.27903379875715 41.22892271663295,126.86605091390993 41.850702576120966,127.71547308630034 42.427693208432174,128.22303988234125 42.74385245901067,128.6615410900631 42.82552693209436,128.69952112221654 43.18911007026327,128.65118288875965 43.3498243559734,128.58212809599536 43.44467213115422,128.61320277800587 43.45257611240959,128.73404837056842 43.357728337243316,129.03443327764398 43.94262295082444,129.51089796510314 43.918911007014685,129.81817800668068 44.156030444966746,130.17724169760186 44.10333723653457,130.4637981829892 44.177107728333795,130.60189643870945 44.58811475409311,130.89535252129645 45.75,131.54439523355904 45.879098360645,131.85164852629168 45.85275175643619,132.25210742602758 45.90281030445476,132.383290745287 46.3006440281024,132.49030817065977 46.41129976580851,132.56280356737443 46.42447306792019,132.71469795482153 46.184718969569076,133.16692312486157 46.19262295082444,133.31190949413576 46.35333723653457,133.36369012224714 46.75907494145213,133.06681296378338 46.898711943795206,133.1047858339989 46.92242388757586,134.25775086958674 46.98565573770611,134.45796055680148 47.149004683844396,134.58222777562514 47.86826697892684,134.72030168803394 48.0,134.84111569205197 47.989461358316476,137.00185495260848 47.8735362997686,136.9845974433465 47.544203747063875,136.74299097556104 47.022540983613,136.59112277431814 46.77751756440557,136.64634768897668 44.941159250578494,137.35735680775178 43.510538641698076,137.37116259594404 43.48682669790287,137.3297452068964 43.7134074941423,136.83618233765264 44.10860655737633,136.42544724726758 44.10597189696273,135.85592866361003 44.43266978922475,135.26223390793712 44.59865339579119,135.06548289929378 44.59865339579119,134.95502546651733 44.54332552693086,134.87908567857266 44.253512880561175,134.59258334735568 43.997950819684775,134.50973864497428 43.739754098365665,134.50973864497428 43.05737704917556,134.06789527099863 42.85450819671678,133.9885006541117 42.662177985941526,133.8262586414694 42.07464871194679,133.66401550215596 41.892857142855064,133.38785437609658 42.045667447309825,133.16001898958348 42.0140515222447,133.01157958784097 41.718969555033254,133.0046754066734 41.57142857143481,132.82516597993708 41.15251756439102,132.7285064865373 40.968091334885685,132.71124582062112 40.6334894613683,132.79064477820612 40.4227166276396,132.7216022217035 40.254098360645,132.81135750536487 40.09865339579119,133.41201860494766 39.84309133490024,133.8538743827594 39.86680327869544,134.1162222970197 39.816744730691426,134.1956164798812 39.73770491803589,134.19906839476062 39.329332552690175,133.75031518461037 39.00263466042816,133.55355144345776 38.91569086651725,133.43273078120546 38.844555035131634,133.2704849090078 38.88407494146668,132.59387295425404 38.823477751764585,132.48340383542745 38.336065573763335,132.421264726534 37.41920374707843,132.50066466968565 36.60509367681516,132.00009529845738 36.51288056204794,131.81367361909543 36.41539812646806,131.03344822569125 36.82640515222738,130.12545400588897 36.83430913348275,129.9666377020203 35.82786885245878,128.39222636312843 34.91627634660108,127.53937590616442 34.63700234191492,127.35291862110535 34.808255269323126,127.43233579489424 34.76346604214632,127.56009329039625 34.25497658079257,128.2333982735363 33.627927400462795,128.79619728899706 32.67944964871276,130.49487036171195 31.372658079635585,133.6778234727699 31.24882903980324,134.75136820587613 30.89578454331786,135.81450858875542 30.384660421550507,136.6118321326121 29.80503512879659,136.4772209756611 28.593091334900237,136.3564154309679 27.267857142855064,136.43925358605884 25.460480093679507,136.17693175414206 25.233899297425523,136.33570584630797 24.419789227162255,136.19073823977487 24.151053864174173,135.990543399761 22.420081967211445,135.7282165303477 20.27019906323403,134.64781298576418 18.58401639344811,134.33369267704438 18.415398126468062,134.31643319702562 18.27839578453859,134.36130781855354 17.59074941452127,134.24739514944486 17.337822014043923,134.28191419873474 15.875585480083828,134.8307602304667 15.058840749406954,134.97228447481393 14.695257611238048,135.09309717588621 14.510831381732714,135.04477217042404 14.018149882918806,135.13451852960316 13.683548009357764,135.33817245060527 13.080210772837745,135.4624349880487 12.898419203760568,135.2553303918212 12.927400468382984,134.58913149062755 12.387295081978664,134.39237481373857 12.052693208417622,133.94707726862725 12.0,133.7882869438945 12.218676814984065,133.77447903857137 12.268735363002634,133.71579534988268 12.21604215457046,133.67437148088538" stroke="yellow" stroke-linecap="round" stroke-linejoin="round" stroke-width="0.5"><title>2025-04-05 35.9km</title><desc>1743843004000</desc></polyline><polyline fill="none" points="83.53594056330621,127.42860789876431 81.08262845873833,133.21432175906375 75.68534182570875,120.35716940369457 74.21335456334054,139.6428836886771 80.10130361840129,126.14289266522974 82.55461572296917,137.71431610779837 74.70401698350906,139.00002792431042 79.11997877433896,120.35716940369457 71.26938003487885,120.35716940369457 86.47991509176791,144.14287138869986 74.21335456334054,128.07146537536755 82.06395330093801,133.85717837931588 74.21335456334054,138.35717206215486 80.59196603670716,122.28574467916042 81.57329087890685,130.64289432717487 70.77871761284769,131.92860823264346 78.62931635417044,135.7857476696372 76.66666666790843,147.35714546963573 80.59196603670716,131.92860823264346 81.08262845873833,140.92859493382275 72.25070487521589,127.42860789876431 81.57329087890685,139.00002792431042 74.70401698350906,133.85717837931588 74.70401698350906,139.6428836886771 72.7413672991097,130.00003723194823 84.51726540736854,130.00003723194823 74.70401698350906,112.0 81.08262845873833,141.57145041553304 79.11997877433896,122.92860291339457 80.10130361840129,139.00002792431042 66.36275582015514,130.64289432717487 78.13865393213928,137.07146005611867 75.68534182570875,128.07146537536755 81.57329087890685,137.07146005611867 82.55461572296917,124.85717704892159 78.13865393213928,140.28573935851455 72.7413672991097,134.50003490503877 76.66666666790843,146.07143612066284 69.797392770648,142.21430580224842 76.17600424773991,128.71432275511324 79.11997877433896,141.57145041553304 76.17600424773991,129.3571800403297 86.47991509176791,134.50003490503877 80.59196603670716,124.85717704892159 75.19467940367758,137.71431610779837 71.76004245504737,127.42860789876431 78.62931635417044,134.50003490503877 86.47991509176791,120.35716940369457 77.15732908807695,128.71432275511324 78.13865393213928,148.0 77.15732908807695,126.78575032949448 86.97057751379907,138.35717206215486 81.08262845873833,125.50003490550444 79.11997877433896,140.92859493382275 70.77871761284769,128.07146537536755 79.61064119450748,118.42859327280894 80.10130361840129,142.8571610939689 74.21335456334054,133.85717837931588 78.13865393213928,124.21431909874082 76.66666666790843,139.6428836886771 84.51726540736854,131.92860823264346 76.66666666790843,142.8571610939689 74.21335456334054,127.42860789876431 86.47991509176791,140.92859493382275 74.70401698350906,133.21432175906375 76.66666666790843,146.7142908424139 80.10130361840129,132.57146504241973 72.25070487521589,132.57146504241973 73.72269213944674,140.28573935851455 80.59196603670716,130.64289432717487 71.76004245504737,128.71432275511324 77.64799150824547,142.8571610939689 75.68534182570875,130.64289432717487 80.59196603670716,135.7857476696372 73.72269213944674,144.14287138869986 72.7413672991097,124.85717704892159 80.10130361840129,137.07146005611867" stroke="#4DD2FF" stroke-linecap="round" stroke-linejoin="round" stroke-width="0.5"><title>2025-04-04 1.7km</title><desc>1743771861000</desc></polyline><polyline fill="none" points="129.99442920926958,112.0 122.00111415889114,114.18184316472616 117.67140183970332,120.29098687530495 118.8370936177671,143.85459016391542 123.83291552495211,147.34546237858012 127.49651825521141,146.25456569774542 130.32748400233686,141.01825041428674 129.66137441433966,118.98188677895814 122.00111415889114,115.49094751640223 116.00612787157297,123.5637320377864 118.00445663370192,143.41823055769783 119.83625799976289,146.4727450988721 126.83040866814554,146.69092446670402 130.82706619333476,141.45461073040497 128.3291552392766,120.07280360651202 122.83375114295632,115.27276353805792 116.50571006163955,121.16371962777339 117.67140183970332,144.07276991941035 127.16346346214414,146.4727450988721 131.4931757794693,140.58188996906392 128.6622100332752,118.32733629574068 122.83375114295632,115.27276353805792 117.67140183970332,117.89096914627589 116.83876485563815,141.6727908399189 122.16764155495912,147.34546237858012 130.99359358940274,142.98187082156073 130.32748400233686,121.16371962777339 123.0002785390243,115.49094751640223 115.1734908875078,121.8182688539382 116.00612787157297,139.27280785981566 121.00194977782667,147.1272831070237 127.99610044620931,146.036386265303 131.4931757794693,140.36370969796553 130.16095660533756,121.60008581087459 122.16764155495912,115.27276353805792 115.50654568057507,122.03645186498761 117.67140183970332,144.94548861775547 127.32999085821211,146.036386265303 131.4931757794693,139.27280785981566 128.1626278432086,119.41825360700022 120.16931279283017,116.36368310532998 115.50654568057507,122.25463484390639 117.33834704570472,143.85459016391542 124.83207990601659,147.34546237858012 130.32748400233686,143.85459016391542 131.4931757794693,139.27280785981566 128.9952648272738,118.54551982274279 120.16931279283017,115.70913146168459 116.00612787157297,122.90918358613271 117.00529225263745,142.32733097556047 121.83458676189184,147.34546237858012 130.99359358940274,142.32733097556047 130.32748400233686,120.29098687530495 122.00111415889114,115.49094751640223 115.50654568057507,120.94553648820147 117.00529225263745,144.07276991941035 120.16931279283017,147.1272831070237 127.66304565221071,146.4727450988721 131.16012098640203,140.14552939496934 130.32748400233686,120.50917011196725 125.33166209608316,115.27276353805792 118.00445663370192,116.80005070671905 115.50654568057507,120.50917011196725 117.83792923763394,145.60002730274573 125.33166209608316,148.0 131.32664838340133,142.5455109566683 130.82706619333476,126.18192294659093" stroke="#4DD2FF" stroke-linecap="round" stroke-linejoin="round" stroke-width="0.5"><title>2025-04-02 4.0km</title><desc>1743590878000</desc></polyline><polyline fill="none" points="164.66210038773715,120.02555003669113 161.68687765300274,120.02555003669113 161.336851448752,137.22301750944462 166.06220520380884,146.39492224424612 176.91301752999425,141.80897665210068 176.21296512242407,127.82175890379585 178.83816165290773,126.67526005604304 174.46283410210162,114.75162183039356 162.21191695984453,116.58603367395699 162.21191695984453,138.14021042198874 166.06220520380884,145.47773420985322 175.51291271392256,142.49686935462523 176.03795202076435,121.17205379600637 171.4876113673672,113.14650968881324 161.68687765300274,118.19114225823432 161.336851448752,137.6816140334122 165.7121789995581,145.2484371169703 171.4876113673672,146.39492224424612 176.73800442926586,141.57967901730444 176.56299132667482,119.56694829533808 168.33737553097308,112.91720781894401 162.56194316316396,117.04463629599195 162.0369038572535,138.82810475083534 168.6874017342925,145.93632829515263 172.71270308177918,145.47773420985322 177.43805683590472,139.05740279285237 176.56299132667482,118.42044334928505 170.26251965295523,112.91720781894401 162.21191695984453,115.89812948706094 162.56194316316396,140.8917859076755 170.08750655129552,146.62421916797757 176.38797822408378,140.20389249373693 177.263043734245,117.50323878263589 169.387454142794,112.45860397734214 162.21191695984453,119.56694829533808 163.08698246907443,140.43319033202715 170.26251965295523,146.62421916797757 176.03795202076435,143.64335651532747 178.13810924533755,137.6816140334122 176.03795202076435,116.81533500226215 169.91249344870448,112.45860397734214 162.73695626482368,117.27393755677622 162.9119693674147,139.97459462156985 168.33737553097308,146.1656252866378 176.21296512242407,142.72616685472894 177.43805683590472,118.42044334928505 169.73748034704477,112.68790591543075 161.16183834709227,118.19114225823432 162.38693006150424,142.26757182134315 169.387454142794,147.54140652553178 176.91301752999425,142.26757182134315 176.38797822408378,117.04463629599195 169.387454142794,112.91720781894401 161.68687765300274,117.96184113388881 163.4370086742565,143.64335651532747 169.03742793854326,147.3121097368421 174.63784720469266,146.85351605829783 177.0880306325853,142.49686935462523 176.73800442926586,118.42044334928505 169.2124410411343,112.0 162.0369038572535,118.19114225823432 164.66210038773715,143.4140591508476 167.1122838165611,146.62421916797757 176.03795202076435,148.0 178.13810924533755,120.02555003669113" stroke="#4DD2FF" stroke-linecap="round" stroke-linejoin="round" stroke-width="0.5"><title>2025-03-30 4.0km</title><desc>1743343343000</desc></polyline><polyline fill="none" points="38.05654509179294,156.88893945061136 36.19081886019558,158.88895555469207 31.95053196977824,155.11114512523636 33.98586967680603,156.88893945061136 34.155481153167784,154.22224717505742 28.727913931943476,152.0 22.961123761720955,154.66669621597975 20.756174579262733,176.22231705696322 23.469958188943565,184.66670286364388 31.2720860671252,188.0 38.05654509179294,183.33338194037788 39.41343689709902,177.55564428295474 39.58304837252945,172.00010637566447 35.00353853031993,155.33336953085382 26.692576225847006,153.33334869891405 20.416951628401875,161.77786301041488 24.318015567027032,184.44448279123753 32.12014344613999,187.11112148559187 38.3957680426538,181.11117777589243 37.03887623734772,156.66671527468134 28.55830245744437,153.11112399830017 21.94345490913838,159.77785074769054 24.148404091596603,183.77782237925567 32.79858934786171,186.44446225487627 37.88693361636251,181.11117777589243 37.03887623734772,155.7778182439506 27.031799176707864,153.7777980028186 22.28267785999924,159.77785074769054 23.130735237151384,180.44451588590164 28.04946803022176,186.22224244626705 33.816258201375604,186.22224244626705 38.73499099444598,181.11117777589243 37.208487713709474,157.11116359382868 26.692576225847006,154.22224717505742 20.925786055624485,160.6667454149574 23.469958188943565,181.55561887170188 31.61130901798606,186.44446225487627 38.56537951808423,180.2222951905569 37.88693361636251,159.33340321690775 30.593640165403485,154.44447171175852 26.522964749485254,154.66669621597975 22.621900810860097,160.00007446401287 24.48762704245746,183.55560217646416 33.816258201375604,186.88890177547 38.05654509179294,180.88895717915148 36.19081886019558,156.44449106638785 30.254417212679982,152.88889926392585 22.961123761720955,158.22228381584864 23.978792616166174,181.11117777589243 28.897525408305228,186.88890177547 33.98586967680603,186.22224244626705 37.88693361636251,181.33339833980426 37.54771066457033,158.6667316746898 30.254417212679982,153.55557336693164 22.961123761720955,159.1111794023309 22.961123761720955,180.0000744619174 27.201410652138293,185.7778027295135 32.2897549206391,186.88890177547 37.71732214093208,182.22228026844095 36.869264762848616,159.55562699853908 29.745582786388695,153.7777980028186 22.28267785999924,159.77785074769054 23.130735237151384,182.66672103572637 29.745582786388695,187.33334116323385 37.71732214093208,181.11117777589243 36.530041811056435,156.66671527468134 29.406359835527837,153.11112399830017 21.60423195641488,161.55563955719117 23.130735237151384,182.22228026844095 31.95053196977824,187.11112148559187 37.88693361636251,178.88897032791283 36.699653286486864,157.5556117813103 29.06713688466698,153.7777980028186 22.45228933542967,160.88896899926476 23.639569664373994,182.66672103572637 28.727913931943476,187.33334116323385 37.03887623734772,183.55560217646416" stroke="#4DD2FF" stroke-linecap="round" stroke-linejoin="round" stroke-width="0.5"><title>2025-03-30 4.5km</title><desc>1743327729000</desc></polyline><polyline fill="none" points="82.5143824024126,153.41971751028905 82.60575296077877,154.61687433358748 76.57529610814527,157.84918892075075 73.65143823996186,157.96890402794816 76.02707275794819,165.63063411333133 69.26565143838525,166.1094898377778 69.63113367184997,169.94032544834772 64.42301184451208,167.66576898901258 60.21996615920216,168.98261824360816 58.666666666511446,173.53171738353558 59.58037225017324,184.78464236855507 63.32656514365226,187.17886156454915 67.62098138779402,184.78464236855507 69.53976311301813,166.4686314459541 73.92554991552606,165.98977593320888 77.67174280853942,166.82777289458318 85.8950930624269,176.04568226705305 87.63113367184997,176.28510708693648 89.45854483917356,172.45430147426669 94.66666666651145,176.88366882811533 93.20473773265257,183.228396097722 92.93062605708838,175.68654490390327 88.17935702204704,173.0528660453856 86.71742808772251,176.04568226705305 84.61590524530038,174.48941921128426 74.01692047389224,158.20833418983966 82.24027072777972,155.45488305727486 80.86971235182136,152.82113843545085" stroke="#4DD2FF" stroke-linecap="round" stroke-linejoin="round" stroke-width="0.5"><title>2025-03-29 1.5km</title><desc>1743247652000</desc></polyline><polyline fill="none" points="114.3050305742072,178.37714073283132 114.91505103080999,179.01654664808302 114.57343957503326,178.47305174065696 114.20742730109487,178.85669534644694 114.4270346655976,179.75186111481162 115.79348048847169,181.82991022861097 117.42833531240467,183.26854792442464 118.01395495096222,181.9577895222028 117.67234349518549,181.31839229830075 118.18476067867596,181.82991022861097 117.86755004129373,183.71612214576453 119.33159913739655,184.80308425755356 124.52897342841607,185.63428689427383 128.26229862333275,188.0 132.53244182036724,187.1048683529807 133.38647045963444,185.76216393953655 132.84965245774947,166.45187417141278 132.16642954631243,165.07706928388507 130.62917799537536,163.92606312465796 128.62831089750398,162.74307819140085 126.38343561685178,163.3505577488395 124.94378733902704,161.40022259052785 122.91851942276116,154.84568872128148 123.77254806214478,154.4939764122537 124.33376688219141,156.06069048054633 125.89541925140657,156.31647945508303 126.45663807156961,155.29332174221054 125.79781597829424,152.19184536012472 124.43137015530374,152.0 123.45533742452972,152.63948387214623 121.96688751038164,152.73540628993942 120.35643350461032,153.72660211673065 116.15949276241008,154.23818528278207 113.59740684437566,155.32529549402534 114.25622893753462,158.71448638438596 113.32899784343317,161.1764125134505 113.28019620699342,167.82667032310565 113.57300602609757,174.47672373245587 114.32943139248528,177.60985114048526" stroke="#4DD2FF" stroke-linecap="round" stroke-linejoin="round" stroke-width="0.5"><title>2025-03-25 3.9km</title><desc>1742910133000</desc></polyline><polyline fill="none" points="175.7243695417419,152.0 163.7031935043633,162.31260436901357 162.9876473126933,166.62512316391803 166.70848751440644,186.31252281251363 171.57420162390918,187.06251295050606 176.29680649470538,183.50005584664177 174.72260487172753,164.75011679320596 172.00352934002876,160.81259439594578 165.8498320830986,161.1875970554538 163.7031935043633,169.06262730562594 165.56361360661685,185.56253223086242 171.7173108626157,187.25001041567884 175.8674787795171,183.6875538387103 175.29504182562232,163.6251116405474 168.56890761479735,159.5000842155423 164.27563045918941,162.87510765134357 163.84630274400115,183.3125578276813 170.14310923870653,187.06251295050606 175.58126030303538,184.06254973821342 175.7243695417419,166.81262364948634 174.29327715560794,161.9376020419877 170.28621847741306,159.6875857532723 166.85159675218165,159.6875857532723 163.1307565504685,164.56261600344442 163.98941198177636,183.3125578276813 168.99823532998562,187.43750785302836 175.7243695417419,184.06254973821342 175.00882334914058,163.81261256861035 169.4275630461052,159.5000842155423 162.9876473126933,165.87512094830163 163.41697502788156,183.3125578276813 170.5724369538948,187.06251295050606 176.01058801822364,182.00007091695443 175.7243695417419,164.18761434138287 170.71554619260132,159.12508105742745 163.98941198177636,162.87510765134357 163.1307565504685,182.00007091695443 167.1378152295947,187.25001041567884 170.28621847741306,187.43750785302836 176.01058801822364,181.62507440743502 175.00882334914058,162.31260436901357 168.56890761479735,159.31258265057113 163.41697502788156,166.25012211152352 164.1325212204829,184.06254973821342 167.42403370700777,187.06251295050606 171.7173108626157,186.68751793680713 176.43991573434323,181.25007778697181 174.72260487172753,162.31260436901357 167.7102521834895,160.0625887446804 163.41697502788156,166.62512316391803 165.13428589049727,185.37503451644443 170.5724369538948,187.6250052631367 176.01058801822364,184.25004764692858 176.01058801822364,167.00012410641648 175.43815106339753,163.06260869046673 170.5724369538948,159.12508105742745 163.98941198177636,161.75010083708912 163.7031935043633,183.6875538387103 169.5706722838804,187.06251295050606 173.57773096300662,186.31252281251363 176.58302497211844,182.3750673151808 175.43815106339753,163.6251116405474 171.00176466908306,159.31258265057113 165.13428589049727,160.81259439594578 163.1307565504685,164.18761434138287 163.56008426565677,182.00007091695443 170.14310923870653,188.0 176.43991573434323,185.56253223086242 177.0123526873067,166.06262154399883" stroke="#4DD2FF" stroke-linecap="round" stroke-linejoin="round" stroke-width="0.5"><title>2025-03-24 4.1km</title><desc>1742817301000</desc></polyline><polyline fill="none" points="30.08921121712774,194.57145573501475 27.056029822677374,192.46753771742806 22.595468947663903,196.67537095607258 23.130736253224313,219.81825374194887 29.553943913429976,227.5324727811385 37.93979835789651,221.6883709024405 37.58295348845422,198.07797954848502 32.765547743067145,192.7013065238716 22.4170465124771,195.97406619309913 23.130736253224313,220.51954793580808 28.483409302309155,227.06494542537257 32.40870287269354,227.29870912083425 37.93979835789651,222.15589984657709 37.04768618289381,197.84421153645962 29.732366347685456,192.23376887559425 22.23862407822162,199.0130512531614 22.595468947663903,219.11695923667867 29.018676607869565,228.0 37.58295348845422,223.32472160388716 38.11822079308331,198.54551546974108 28.304986868053675,192.0 23.487581122666597,196.20783448161092 22.595468947663903,219.58448894124012 30.802900957874954,228.0 37.58295348845422,223.09095732169226 37.40453105326742,196.67537095607258 28.304986868053675,192.0 22.95231381803751,199.0130512531614 23.309158688411117,223.55848585197236 29.732366347685456,228.0 38.47506566345692,223.09095732169226 36.86926374770701,196.67537095607258 31.159745827317238,192.0 23.130736253224313,198.07797954848502 23.487581122666597,221.6883709024405 29.375521478243172,227.5324727811385 37.93979835789651,223.55848585197236 37.04768618289381,199.71435466932599 28.304986868053675,192.0 21.346511903218925,199.0130512531614 22.773891382850707,220.28578323929105 27.234452257864177,227.06494542537257 37.22610861714929,223.55848585197236 37.7613759227097,197.84421153645962 31.516590697690845,192.23376887559425 21.881779207848012,198.07797954848502 22.4170465124771,220.052018507733 29.553943913429976,227.06494542537257 33.65765991806984,226.8311816956848 38.6534880977124,220.75331259786617 37.93979835789651,198.77928337897174 35.08503939770162,193.87015003990382 28.66183173749596,192.23376887559425 22.4170465124771,200.18189010652713 23.309158688411117,220.987077225931 28.304986868053675,227.29870912083425 37.58295348845422,223.09095732169226 37.7613759227097,198.07797954848502 34.549772093072534,193.40261273703072 27.234452257864177,192.23376887559425 22.773891382850707,198.77928337897174 23.309158688411117,222.15589984657709 28.66183173749596,228.0 38.11822079308331,223.09095732169226 38.6534880977124,198.77928337897174 32.40870287269354,228.0" stroke="#4DD2FF" stroke-linecap="round" stroke-linejoin="round" stroke-width="0.5"><title>2025-03-23 4.2km</title><desc>1742719228000</desc></polyline><polyline fill="none" points="71.89169488009065,192.0 68.70838035549968,196.1707763823215 70.38380905240774,223.82931296655443 78.5934096686542,226.68294220173266 85.4626673264429,218.3415490334155 83.95478149969131,200.78056823613588 73.39958070777357,194.634175919462 68.54083748627454,202.75618893746287 69.88118044380099,223.1707823650213 75.74518088344485,226.90245191578288 83.95478149969131,221.8537202856969 83.11706715077162,199.4634863086976 74.23729505576193,193.97563237708528 68.54083748627454,199.68300004443154 69.37855183426291,222.29274110903498 76.41535236220807,227.78049044741783 80.93900984432548,226.46343245508615 84.12232436891645,221.1951888083713 83.61969575937837,201.2195952855982 74.4048379259184,194.19514692388475 70.88643766194582,195.07320478535257 68.20575174689293,203.19521540403366 70.04872331395745,223.60980279848445 80.26883836556226,226.68294220173266 86.46792454458773,223.1707823650213 84.28986723907292,200.34154105675407 73.39958070777357,194.85369036893826 68.03820887673646,203.41472858807538 68.70838035549968,221.41469933302142 73.73466644715518,227.12196159735322 82.78198141139,227.34147124632727 83.78723862953484,224.92686332121957 84.62495297752321,202.53667565598153 79.93375262618065,195.731747840764 74.90746653452516,194.634175919462 69.04346609581262,199.2439725410659 68.70838035549968,223.39029259770177 78.25832393020391,227.34147124632727 84.28986723907292,220.53665703942534 83.11706715077162,199.2439725410659 77.08552384097129,194.41466143820435 71.22152340132743,194.41466143820435 66.86540878843516,207.14644775819033 70.71889479178935,224.92686332121957 77.75569531973451,226.46343245508615 85.4626673264429,220.09763569757342 82.61443854216486,197.92688925145194 72.89695209916681,194.85369036893826 70.04872331395745,196.39029060467146 68.03820887673646,211.97571747808252 71.3890662714839,226.46343245508615 79.59866688679904,227.12196159735322 84.28986723907292,219.87812497792765 81.77672419324517,198.1464032138465 76.08026662282646,192.878059159033 68.87592322472483,197.26834716903977 69.04346609581262,222.95127209986094 75.57763801328838,228.0 84.79249584767967,222.51225147151854 83.11706715077162,198.58543104177807 75.41009514406323,192.878059159033 68.54083748627454,198.3659171438776 68.70838035549968,221.1951888083713 76.41535236220807,227.56098086340353 83.78723862953484,223.60980279848445 83.11706715077162,201.2195952855982" stroke="#4DD2FF" stroke-linecap="round" stroke-linejoin="round" stroke-width="0.5"><title>2025-03-21 4.2km</title><desc>1742565279000</desc></polyline><polyline fill="none" points="125.10790467076004,193.80003031750675 120.29938878957182,192.0 118.9255271088332,193.65002791257575 118.12410779483616,210.15015955013223 124.42097383039072,213.1501546743093 129.22948971157894,208.20015796588268 126.481766351033,193.3500230370555 120.75734268222004,193.0500180728268 117.32268848177046,196.95007569319569 120.41387726226822,212.10015738906804 124.53546230355278,213.75015263538808 128.42807039851323,210.9001591624692 128.3135819248855,195.75005955935922 123.39057757006958,192.7500130198896 119.49796947557479,193.20002056611702 117.43717695446685,197.10007760988083 119.04001558199525,211.20015885180328 123.73404299002141,214.35015024163295 127.74113955767825,211.80015796527732 128.42807039851323,196.35006780351978 124.64995077671483,193.3500230370555 118.12410779483616,194.40003971371334 117.89513084851205,208.35015822085552 120.29938878957182,213.1501546743093 123.0471121496521,213.9001520703314 127.74113955767825,211.35015866381582 128.1990934512578,195.6000574431382 126.93972024461254,193.50002548575867 121.90222741663456,192.90001555765048 118.58206168888137,195.15005096106324 117.55166542809457,204.75014598818962 121.21529657626525,213.60015317809302 127.39767413819209,212.40015672438312 128.65704734483734,196.65007179265376 128.1990934512578,194.40003971371334 121.78773894300684,193.0500180728268 118.46757321525365,195.90006165369414 119.95592336868867,211.0501590182539 121.90222741663456,213.60015317809302 127.74113955767825,213.00015512865502 128.3135819248855,200.55011558323167 122.58915825607255,209.10015916253906 120.98631962900981,214.65014891175088 122.01671588933095,228.0 127.51216261135414,226.35002791171428 128.77153581846505,215.55014439101797 126.93972024461254,194.70004427887034 121.3297850494273,192.30000527447555 117.32268848177046,195.6000574431382 118.12410779483616,208.65015866374597 123.39057757006958,214.05015148292296 128.1990934512578,210.9001591624692 128.77153581846505,196.50006980914623 122.93262367649004,192.15000264858827 118.58206168888137,194.70004427887034 118.23859626846388,210.30015951674432 122.70364672970027,213.75015263538808 128.08460497809574,210.45015946147032 128.54255887120962,195.75005955935922 123.27608909690753,192.15000264858827 119.38348100241274,194.55004200723488 119.1545040551573,212.40015672438312 122.01671588933095,214.80014821409713 125.56585856340826,214.35015024163295 127.39767413819209,211.65015822008718 129.34397818520665,197.55008322768845" stroke="#4DD2FF" stroke-linecap="round" stroke-linejoin="round" stroke-width="0.5"><title>2025-03-10 4.0km</title><desc>1741591515000</desc></polyline><polyline fill="none" points="179.423216605559,198.92314136272762 169.9119325550273,192.9230872882763 162.51426718290895,198.2308286074549 162.69040207192302,222.92312717915047 168.15058365650475,227.7692334119929 177.66186770703644,222.00005762034561 177.13346303720027,200.07699527335353 172.2016861224547,193.8461740303319 162.16199740301818,198.00005762127694 161.98586251214147,222.69235984014813 166.56536964792758,226.84616671747062 177.83800259698182,222.69235984014813 178.366407266818,200.3077659533592 171.1448767837137,193.3846307278145 162.69040207192302,198.00005762127694 163.21880674175918,222.92312717915047 169.0312581062317,227.53846678917762 175.19597924966365,226.1538663385436 178.19027237594128,221.53852263628505 178.19027237594128,201.4616188404616 171.3210116736591,193.61540239606984 162.33813229296356,198.6923704787623 162.69040207192302,220.61545225942973 169.20739299524575,227.7692334119929 178.0141374869272,222.23082506132778 177.30959792714566,197.76928660005797 167.6221789866686,193.3846307278145 162.69040207192302,197.76928660005797 163.21880674175918,223.84619619173463 170.0880674449727,227.53846678917762 178.0141374869272,222.00005762034561 177.83800259698182,201.00007778790314 171.84941634349525,193.3846307278145 165.3324254201725,194.07694563106634 161.8097276231274,198.2308286074549 162.16199740301818,221.76929014502093 168.8551232162863,227.30770013283473 177.83800259698182,222.00005762034561 176.6050583673641,197.30774445610587 170.79260700382292,192.0 161.633592733182,198.00005762127694 162.16199740301818,221.76929014502093 171.1448767837137,227.30770013283473 177.48573281802237,221.76929014502093 176.9573281481862,197.76928660005797 170.61647211387753,192.23077187302988 160.576783394441,199.15391221328173 162.51426718290895,223.38466175319627 172.90622568223625,227.30770013283473 177.66186770703644,222.461592467851 176.78119325824082,196.61543098511174 167.6221789866686,193.153859024751 162.16199740301818,197.76928660005797 162.16199740301818,221.76929014502093 171.1448767837137,227.53846678917762 178.0141374869272,222.00005762034561 178.366407266818,199.15391221328173 170.44033722486347,193.153859024751 161.8097276231274,199.846224559471 162.33813229296356,224.0769633599557 168.15058365650475,228.0 177.13346303720027,222.00005762034561 179.2470817156136,198.92314136272762" stroke="#4DD2FF" stroke-linecap="round" stroke-linejoin="round" stroke-width="0.5"><title>2025-03-09 4.1km</title><desc>1741514669000</desc></polyline><polyline fill="none" points="23.695326752960682,252.95899855392054 29.529501996934414,265.04112517938484 34.42268123384565,265.2876982818125 40.25685647781938,259.3699337783037 37.245669255033135,232.2465779837221 24.25992435682565,232.0 19.366745119914412,237.6712844077265 26.70651397574693,261.83567153767217 38.18666526209563,264.05483240727335 41.574250888079405,253.45214829174802 37.4338684566319,237.6712844077265 40.82145408261567,235.4520884566009 21.436936335638165,243.34254954278003 22.37793234270066,240.38363100716379 29.529501996934414,244.82200684351847 26.70651397574693,250.24667239165865 28.58850598987192,265.04112517938484 36.86927085183561,264.7945520414505 41.009653283283114,258.38363765436225 33.6698844274506,234.2192005419638 22.37793234270066,232.98631171614397 18.425749112851918,239.150746735977 24.448123558424413,253.2055734412279 24.071725155226886,261.34252427797765 33.481685226783156,267.7534272982739 38.75126286689192,258.1370635323692 35.74007564317435,237.1781300068833 25.57731876708567,232.2465779837221 18.990346717648208,237.6712844077265 23.318928349763155,263.31511244538706 34.610880435444415,268.0 39.31586047075689,260.8493768715998 38.18666526209563,233.72604512050748 25.765517968684435,232.98631171614397 22.754330744966865,244.32885455572978" stroke="#4DD2FF" stroke-linecap="round" stroke-linejoin="round" stroke-width="0.5"><title>2025-03-05 1.9km</title><desc>1741161630000</desc></polyline></svg>