<?xml version="1.0" encoding="utf-8" ?>
<svg baseProfile="full" height="300mm" version="1.1" viewBox="0,0,200,300" width="200mm" xmlns="http://www.w3.org/2000/svg" xmlns:ev="http://www.w3.org/2001/xml-events" xmlns:xlink="http://www.w3.org/1999/xlink"><defs /><rect fill="#222222" height="300" width="200" x="0" y="0" /><text fill="#FFFFFF" style="font-size:12px; font-family:Arial; font-weight:bold;" x="10" y="20">Over 10km Runs</text><text fill="#FFFFFF" style="font-size:4px; font-family:Arial" x="10" y="280">ATHLETE</text><text fill="#FFFFFF" style="font-size:9px; font-family:Arial" x="10" y="290">TXyy2025</text><text fill="#FFFFFF" style="font-size:4px; font-family:Arial" x="65" y="280">SPECIAL TRACKS</text><rect fill="yellow" height="2.6" width="2.6" x="65" y="283" /><text fill="#FFFFFF" style="font-size:3px; font-family:Arial" x="70" y="285.5">Over 20.0 km</text><rect fill="red" height="2.6" width="2.6" x="65" y="287" /><text fill="#FFFFFF" style="font-size:3px; font-family:Arial" x="70" y="289.5">Over 40.0 km</text><text fill="#FFFFFF" style="font-size:4px; font-family:Arial" x="120" y="280">STATISTICS</text><text fill="#FFFFFF" style="font-size:3px; font-family:Arial" x="120" y="285">Number: 27</text><text fill="#FFFFFF" style="font-size:3px; font-family:Arial" x="120" y="290">Weekly: 3.0</text><text fill="#FFFFFF" style="font-size:3px; font-family:Arial" x="141" y="285">Total: 183.2 km</text><text fill="#FFFFFF" style="font-size:3px; font-family:Arial" x="141" y="290">Avg: 6.8 km</text><text fill="#FFFFFF" style="font-size:3px; font-family:Arial" x="167" y="285">Min: 1.5 km</text><text fill="#FFFFFF" style="font-size:3px; font-family:Arial" x="167" y="290">Max: 35.9 km</text><polyline fill="none" points="24.06511627929285,45.66919887790573 22.265116279246286,44.73681238727295 19.460465116193518,44.84650503686862 18.623255813959986,45.88858359406004 19.795348837273195,48.13726946042152 18.83255813946016,49.67294954121462 17.11627906979993,49.67294954121462 16.362790697719902,51.0989324990951 13.683720930246636,50.00202301767422 12.17674418608658,50.98924169692327 11.800000000046566,57.95454332331428 14.981395349139348,58.72236385161523 16.446511628106236,57.18672120699193 16.739534883759916,49.72779514105059 18.037209302419797,49.17933877953328 20.339534883853048,49.45356706154416 24.274418604793027,53.89603700576117 25.655813953606412,51.48285005192156 24.986046511679888,51.0989324990951 26.70232558134012,50.33109620245523 40.47441860451363,50.715014549321495 42.94418604648672,46.711275125446264 44.199999999953434,39.9651507435774 31.097674418706447,38.813361156819155 27.70697674411349,37.27763614838477 22.306976744206622,37.71641537055257 22.18139534885995,38.97790274510044" stroke="#4DD2FF" stroke-linecap="round" stroke-linejoin="round" stroke-width="0.5"><title>2025-05-03 2.0km</title><desc>1746279724000</desc></polyline><polyline fill="none" points="58.06811471056426,64.19999999999709 58.08099611173384,63.32489951081516 58.89252439246047,61.69248267621151 60.28371573070763,60.497606141507276 61.21117662283359,59.067103775909345 60.87626018951414,57.48511567643436 62.061349107301794,55.65065534281166 62.731181973882485,55.330884024362604 62.87287738797022,54.96062138380512 62.679656368796714,54.506206509206095 63.22067522251746,54.05178983396763 63.61999866220867,53.260763918697194 63.72304987243842,51.79651006012864 63.323726432805415,50.53420724445459 63.5555916557787,49.67583339277917 65.29458082857309,48.564987105317414 65.52644605166279,47.571948738594074 65.83559968235204,47.353142518535606 65.61661586060654,45.11456258789258 65.16576681582956,43.869017989200074 65.47492044651881,41.546209486274165 66.53119535150472,39.66099697736354 67.67764006537618,38.71837909885653 68.74679637164809,38.38172797852167 68.57933815498836,38.26389985280548 68.84984758187784,37.79258613926504 68.63086376007413,37.75892079987534 69.01730579847936,37.32127048827533 68.81120337801985,37.35493595614389 69.33934083051281,37.001448050214094 69.54544325103052,37.42226686228241 69.89324108557776,36.546961998297775 69.86747828300577,35.890478964938666 69.45527344202856,35.738982346512785 69.5712060535443,35.284491290090955 69.12035700876731,35.065661620341416 69.22340821899706,34.88049772740487 69.03018719976535,34.829998431989225 68.66950796393212,35.536986543818784 68.7210335690761,34.49333589401067 69.04306860105135,34.106172753177816 68.78544057544786,32.97834223918471 69.04306860105135,32.47333990535844 68.81120337801985,32.03566941670579 68.18001471529715,31.80000000000291 67.09797700779745,32.742674760200316 66.75017917330842,32.65850768603559 67.40713063854491,32.54067367838434 68.19289611658314,31.901001237878518 68.79832197673386,32.08616994300246 69.00442439725157,32.42283954965387 68.78544057544786,33.146675856085494 69.01730579847936,34.022006679959304 68.7081521677901,34.49333589401067 68.69527076650411,35.3854894582837 69.00442439725157,34.89733082089515 69.5712060535443,35.200326081889216 69.41662923822878,35.72214937652461 69.93188528943574,35.83998011435324 69.91900388809154,36.42913198707538 69.67425726383226,36.44596485319926 69.7773084740038,36.95094968898047 69.59696885611629,36.934116896940395 69.48103624460055,37.47276501592569 69.26205242279684,37.11927747327718 68.86272898316383,37.43909958265431 69.08171280490933,37.3381032234538 68.68238936521811,37.843084129803174 68.66950796393212,38.482723418397654 67.70340286788996,38.836206757463515 66.363737134845,39.980811996851116 65.64237866312033,41.5630416011918 65.15288541454356,43.81852265256748 65.64237866312033,45.03040459527256 65.74542987340828,46.49474485403334 66.05458350409754,46.84820349414076 65.9128880900098,47.43729880641331 65.38475063757505,47.858079319426906 65.33322503243107,48.76695995804039 64.08372910827165,49.27189053337497 63.49118464940693,49.928296957303246 63.45254044554895,51.2242678387629 63.95491509552812,51.661865088484774 63.697287069866434,53.395407013034855 62.53796095465077,54.72499908100872 62.679656368796714,55.28039373465435 62.087111909873784,55.78529563112534 61.00507420237409,57.56926452911284 61.314227833005134,59.067103775909345 60.863378788286354,59.9590661686816 59.98744350124616,60.98565580754075 58.944049997546244,61.69248267621151 58.699303373286966,62.180527257500216" stroke="#4DD2FF" stroke-linecap="round" stroke-linejoin="round" stroke-width="0.5"><title>2025-05-02 5.2km</title><desc>1746153801000</desc></polyline><polyline fill="none" points="85.33372781146318,50.251526925712824 87.250887574628,56.755849013105035 109.10650887619704,55.75518568686675 115.43313609529287,53.00335851998534 113.89940828364342,40.745165522093885 89.16804733779281,38.743819544208236 84.95029585808516,45.74852021760307 86.10059171635658,56.755849013105035 113.32426035497338,54.50435570534319 114.28284023702145,39.49432456016075 88.40118343289942,39.744492825935595 86.29230769351125,44.747850448824465 87.44260355178267,56.755849013105035 114.66627218946815,54.25418959965464 113.7076923083514,40.745165522093885 87.05917159840465,40.49499740253668 85.9088757392019,56.25551742245443 114.4745562132448,53.5036910623312 113.89940828364342,41.49566965957638 89.35976331401616,40.24482924735639 85.9088757392019,41.74583763256669 86.29230769351125,56.505683236173354 116.00828402303159,51.752526527037844 115.04970414191484,41.74583763256669 91.660355030559,39.744492825935595 86.29230769351125,41.245501649798825 84.3751479294151,55.50501976360101 114.66627218946815,54.50435570534319 115.62485207151622,39.994661055272445 86.86745562124997,40.49499740253668 87.250887574628,57.256180455791764 111.02366863843054,55.00468780763913 116.20000000018626,49.751193432020955 115.62485207151622,41.996005568420514 111.79053254425526,40.24482924735639 85.9088757392019,40.24482924735639 84.3751479294151,50.251526925712824 86.4840236697346,56.505683236173354 116.00828402303159,54.004023457178846 114.66627218946815,39.744492825935595 88.40118343289942,39.744492825935595 86.10059171635658,56.25551742245443 115.43313609529287,52.25285943422932 114.85798816662282,40.49499740253668 110.83195266313851,38.993987919879146 85.9088757392019,40.99533360416535 86.86745562124997,56.505683236173354 116.20000000018626,53.00335851998534 115.04970414191484,40.24482924735639 84.56686390563846,40.99533360416535 86.29230769351125,56.25551742245443 110.06508875731379,54.25418959965464 115.43313609529287,52.25285943422932 114.28284023702145,40.99533360416535 87.82603550329804,39.49432456016075 83.79999999981374,49.00069291878026" stroke="#4DD2FF" stroke-linecap="round" stroke-linejoin="round" stroke-width="0.5"><title>2025-05-01 4.2km</title><desc>1746070962000</desc></polyline><polyline fill="none" points="148.72857142984867,39.91432598698884 150.27142857387662,60.128528938861564 144.8714285735041,48.000021503074095 132.52857142873108,55.58034369000234 120.57142857275903,53.05357149336487 136.77142857387662,45.47324370755814 147.18571428768337,49.01073209871538 126.74285714328289,53.558926082681865 136.77142857387662,42.44110788893886 129.05714285746217,52.5482168297749 125.20000000111759,47.49466609349474 132.14285714179277,55.07498939940706 134.842857144773,46.989310609176755 150.27142857387662,50.52679743152112 130.2142857145518,52.04286209214479 138.31428571604192,51.53750728047453 136.38571428880095,43.451820126734674 133.68571428582072,50.52679743152112 144.10000000149012,50.52679743152112 138.31428571604192,43.451820126734674 140.6285714302212,48.000021503074095 145.2571428604424,41.935751657234505 149.50000000186265,45.97859941562638 136.00000000186265,48.50537683768198 142.5571428593248,44.967887924052775 151.81428571790457,52.04286209214479 121.342857144773,47.49466609349474 150.65714286081493,46.989310609176755 149.50000000186265,55.07498939940706 128.6714285723865,44.967887924052775 135.22857142984867,43.451820126734674 137.5428571458906,50.52679743152112 127.51428571529686,42.44110788893886 142.1714285723865,41.935751657234505 134.07142857275903,46.48395505012013 145.2571428604424,44.46253206720576 149.11428571678698,53.05357149336487 125.58571428619325,48.000021503074095 126.35714285820723,36.37682818877511 148.342857144773,44.46253206720576 138.31428571604192,43.451820126734674 144.10000000149012,38.39825594960712 129.8285714313388,46.48395505012013 147.9571428578347,45.97859941562638 119.80000000074506,51.53750728047453 139.85714286006987,45.47324370755814 136.00000000186265,37.89289912185632 134.4571428578347,47.49466609349474 122.5,45.97859941562638 151.04285714402795,47.49466609349474 135.61428571492434,43.95717613468878 136.00000000186265,50.02144239586778 149.88571428880095,45.47324370755814 132.9142857156694,49.51608728407882 151.42857143096626,42.44110788893886 127.90000000037253,41.43039535195567 150.65714286081493,49.51608728407882 120.18571428582072,47.49466609349474 136.77142857387662,45.97859941562638 133.30000000074506,56.59105204464868 132.9142857156694,51.032152394298464 121.342857144773,50.02144239586778 141.01428571529686,52.04286209214479 149.50000000186265,44.46253206720576 150.27142857387662,52.5482168297749 141.78571428731084,56.59105204464868 125.20000000111759,47.49466609349474 134.07142857275903,46.48395505012013 130.60000000149012,53.05357149336487 130.98571428656578,45.97859941562638 127.12857142835855,50.52679743152112 146.02857143059373,49.51608728407882 151.04285714402795,41.43039535195567 151.04285714402795,52.5482168297749 140.2428571432829,45.97859941562638 149.88571428880095,55.58034369000234 144.8714285735041,52.5482168297749 149.88571428880095,45.47324370755814 137.9285714291036,48.50537683768198 151.42857143096626,43.451820126734674 152.2000000011176,35.871471061138436" stroke="#4DD2FF" stroke-linecap="round" stroke-linejoin="round" stroke-width="0.5"><title>2025-04-27 2.3km</title><desc>1745759770000</desc></polyline><polyline fill="none" points="174.04466019570827,48.41215143608861 180.33592233248055,42.23009452782571 165.23689320497215,42.64223208138719 165.23689320497215,48.82428807672113 180.9650485459715,47.587877973215654 174.04466019570827,51.709242852404714 171.8427184484899,45.52719325060025 159.57475728355348,43.466507006203756 164.2932038847357,42.23009452782571 185.05436893180013,48.00001473445445 167.43883495219052,48.41215143608861 177.50485436990857,49.648561174282804 159.88932039029896,54.594194644130766 177.81941747665405,47.587877973215654 181.27961165085435,52.94565112818964 160.51844660378993,47.587877973215654 169.6407766994089,53.769923007814214 165.55145631171763,51.297106637619436 179.07766990363598,48.41215143608861 173.7300970889628,55.006330370670184 166.1805825252086,47.175741149811074 175.3029126226902,47.175741149811074 178.7631067968905,49.236424655653536 172.47184466011822,52.94565112818964 174.04466019570827,47.175741149811074 160.20388349704444,52.94565112818964 155.80000000074506,49.648561174282804 172.47184466011822,54.594194644130766 179.7067961189896,50.4728340273723 161.1475728172809,50.06069763121195 173.4155339822173,53.35778709803708 166.49514563195407,52.533515096409246 169.95533980615437,56.654872668441385 177.81941747665405,51.297106637619436 161.46213592402637,46.76360426680185 176.24660194292665,45.93933031684719 170.58446602150798,49.648561174282804 175.61747572943568,50.88497036276385 163.3495145663619,50.4728340273723 184.4252427201718,51.297106637619436 159.88932039029896,52.94565112818964 172.15728155337274,56.654872668441385 164.2932038847357,53.35778709803708 176.24660194292665,52.12137900479138 174.67378640919924,57.067008091369644 161.7766990289092,54.594194644130766 169.6407766994089,52.12137900479138 173.10097087547183,57.067008091369644 176.8757281564176,51.709242852404714 165.23689320497215,52.533515096409246 177.1902912631631,54.594194644130766 180.6504854373634,48.82428807672113 169.01165048591793,54.18205885589123 177.50485436990857,47.587877973215654 169.32621359452605,52.533515096409246 185.68349514715374,48.82428807672113 176.24660194292665,52.94565112818964 168.38252427242696,45.52719325060025 170.89902912639081,49.648561174282804 181.90873786620796,47.175741149811074 169.95533980615437,54.18205885589123 185.99805825203657,44.290781687013805 180.33592233248055,50.06069763121195 167.43883495219052,50.06069763121195 163.66407767124474,56.654872668441385 162.40582524426281,50.06069763121195 180.02135922387242,55.830601641209796 174.67378640919924,53.769923007814214 180.33592233248055,50.06069763121195 166.80970873869956,52.94565112818964 177.81941747665405,50.88497036276385 178.44854369200766,38.932991908397526 174.98834951594472,51.297106637619436 183.16699029318988,51.709242852404714 174.04466019570827,55.41846603597514 175.9320388380438,48.82428807672113 171.52815534174442,50.06069763121195 185.05436893180013,51.297106637619436 159.88932039029896,55.006330370670184 164.60776699148118,50.06069763121195 158.63106796331704,48.41215143608861 174.04466019570827,50.06069763121195 173.7300970889628,54.18205885589123 163.66407767124474,54.594194644130766 176.8757281564176,54.594194644130766 181.59417475946248,48.41215143608861 169.95533980615437,43.87864437629469 171.8427184484899,47.175741149811074 160.8330097105354,50.06069763121195 166.49514563195407,40.99368150252849 172.78640776872635,45.93933031684719 166.1805825252086,51.297106637619436 185.36893204040825,50.4728340273723 186.62718446739018,45.93933031684719 176.8757281564176,51.297106637619436 173.10097087547183,47.587877973215654 183.16699029318988,45.93933031684719 179.7067961189896,50.88497036276385 166.49514563195407,46.351467322558165 178.7631067968905,50.88497036276385 163.66407767124474,49.648561174282804 171.21359223499894,53.35778709803708 185.36893204040825,49.236424655653536 180.6504854373634,52.94565112818964 173.7300970889628,47.587877973215654 180.02135922387242,48.41215143608861 172.78640776872635,55.41846603597514 174.98834951594472,49.648561174282804 188.2000000011176,48.00001473445445" stroke="#4DD2FF" stroke-linecap="round" stroke-linejoin="round" stroke-width="0.5"><title>2025-04-26 3.2km</title><desc>1745672895000</desc></polyline><polyline fill="none" points="24.96517150395084,97.97778588779329 23.91081794211641,98.08993353368714 22.17255936691072,96.89368940680288 20.69076517166104,93.82828793769295 21.37467018479947,93.75352158285386 22.087071240181103,96.03388543662732 23.39788918220438,97.5291948056256 28.641160949948244,98.87496565897891 29.239577836473472,98.72543591877911 28.66965699219145,98.8002007999894 27.92875989456661,96.81892396052717 25.763060685945675,94.1647362603253 25.649076517205685,93.56660559875309 25.25013192615006,93.52922238536121 25.791556728305295,92.74417362327222 25.96253298164811,90.57593101622479 26.959894459228963,90.68808195303427 27.358839050284587,89.2674997364229 26.874406332615763,88.37028579330945 26.703430079272948,88.8188931636978 26.874406332615763,87.84690951929952 24.16728232195601,86.27677418154781 23.654353562160395,85.15524295635987 19.86437994730659,81.86538926084177 18.55356200528331,79.36058551618771 16.017414248082787,78.87457593799627 13.595250659622252,80.14567593339598 11.800000000046566,78.72503434101236 13.566754617611878,80.07090552271984 16.188390501309186,78.94934670328803 18.610554089653306,79.43535613728454 20.092348285019398,82.20185354043497 24.16728232195601,86.0150840083661 29.382058047573082,89.11796430083632 31.177308707265183,89.641337937559 32.54511873354204,88.9310448817414 33.88443271769211,90.27686160781013 39.156200527679175,87.39830042012909 40.69498680741526,87.24876387645782 43.25963060685899,89.94040809945727 44.20000000006985,90.16471048827225 42.005804749322124,89.04319654979918 40.837467018398456,87.39830042012909 39.3841688655084,87.47306865866994 33.9414248020621,90.27686160781013 32.203166226972826,88.8936609813245 31.234300791635178,89.7161055112083 26.959894459228963,87.84690951929952 26.076517150504515,89.9777918447362 25.7345646439353,92.96847351890756 26.218997361604124,96.96845483088691 25.763060685945675,98.08993353368714 22.201055409037508,96.85630668645899 21.31767810031306,95.2862274281797 21.34617414243985,94.2395024932921" stroke="#4DD2FF" stroke-linecap="round" stroke-linejoin="round" stroke-width="0.5"><title>2025-04-24 3.3km</title><desc>1745457116000</desc></polyline><polyline fill="none" points="80.20000000018626,86.5837733137887 78.83373493980616,89.65245267673163 76.03614457859658,90.50486071425257 56.19277108437382,91.7834704091656 57.55903614475392,89.9934160427656 55.1518072290346,83.1741104341927 52.41927710874006,83.00362676125951 49.29638554225676,86.6690146275796 48.58072289149277,93.4030386218219 52.093975903932005,95.61928249301855 53.98072289163247,95.27832245151512 55.28192771086469,92.46539442124777 54.306024096440524,81.81023964018095 51.76867469889112,82.57741735852323 49.3614457831718,86.49853198748315 49.94698795187287,94.68164189421805 53.590361445909366,94.59640176425455 55.21686747018248,92.12443251616787 54.95662650628947,84.45273637532955 52.67951807240024,82.2364496095106 51.05301204835996,82.57741735852323 48.71084337378852,86.92473849357339 49.68674698821269,94.42592146643437 51.89879518095404,95.70452247181674 54.95662650628947,94.7668820116669 54.7614457833115,81.72499760828214 52.02891566301696,82.2364496095106 49.81686747027561,84.6232196202618 49.23132530134171,88.20335612271447 50.07710843370296,94.25544111826457 51.378313252935186,95.44880249758717 54.24096385575831,94.9373622086714 55.412048192927614,92.20967301120982 54.566265060333535,84.36749473417876 53.460240964079276,82.91838490596274 50.53253012080677,82.83314303791849 47.800000000046566,86.07232516637305 49.3614457831718,94.17020092520397 53.590361445909366,95.70452247181674 55.412048192927614,93.14731762744486 54.89156626514159,84.28225308039691 52.224096385529265,82.66265926422784 49.81686747027561,83.77080289274454 48.71084337378852,86.07232516637305 50.987951807444915,95.02260228828527 53.460240964079276,95.7897624381585 55.60722891567275,92.6358752985252 55.1518072290346,85.73135948320851 54.24096385575831,83.77080289274454 51.18313253019005,82.66265926422784 48.9710843374487,84.96418595855357 49.81686747027561,93.4030386218219 51.378313252935186,95.19308240985265 54.696385542396456,94.85212211636826 55.28192771086469,88.71480238088407 54.696385542396456,84.11176973494003 50.53253012080677,82.66265926422784 48.906024096533656,85.04942751169438 49.42650602431968,91.3572674926254 49.81686747027561,94.34068129857769 51.963855421869084,95.87500239169458 55.08674698788673,93.99972050177166 54.95662650628947,84.36749473417876 52.093975903932005,82.57741735852323 49.29638554225676,84.87894439283991 49.621686747297645,93.57351922185626 52.41927710874006,95.61928249301855 55.28192771086469,93.4030386218219 55.28192771086469,85.1346690520295" stroke="#4DD2FF" stroke-linecap="round" stroke-linejoin="round" stroke-width="0.5"><title>2025-04-20 4.3km</title><desc>1745155370000</desc></polyline><polyline fill="none" points="106.10307212918997,89.42317013000138 91.04354349989444,78.62313343060669 95.16509870346636,98.97697958396748 100.07926067709923,104.7923100705957 104.67637994326651,104.16924009774812 108.48089243937284,99.60005185799673 107.37124296091497,80.70007000956684 101.98151692561805,73.63847312226426 98.81108984537423,74.05386215634644 95.0065773492679,79.6616021032678 96.11622682772577,99.80774255446158 100.71334609296173,105.0 107.21272160671651,102.71540908701718 106.89567889925092,78.62313343060669 102.77412369474769,72.59999999997672 95.48214141093194,75.50772280909587 96.27474818192422,98.56159791431855 100.71334609296173,104.58462011045776 107.84680702351034,100.43081446096767 108.63941379263997,79.86929574608803 104.83490129746497,74.26155662781093 99.4451752603054,74.26155662781093 94.84805599600077,78.41543960443232 96.27474818192422,101.05388609063812 101.66447421815246,105.0 108.79793514776975,97.73083420668263 107.52976431604475,77.37697001057677 102.93264504987746,72.80769468611106 94.21397057920694,79.86929574608803 96.75031224358827,101.88464783423115 103.0911664031446,105.0 108.32237108517438,100.8461955783423 107.52976431604475,78.20774574659299 105.15194400586188,74.46925106772687 99.4451752603054,73.43077855883166 95.0065773492679,80.07698935782537 95.79918411932886,100.01543322089128 98.65256849117577,103.75385996256955 104.83490129746497,104.16924009774812 108.63941379263997,97.73083420668263 107.52976431604475,78.62313343060669 100.39630338549614,74.05386215634644 94.84805599600077,80.28468293894548 96.11622682772577,101.05388609063812 99.4451752603054,104.7923100705957 108.32237108517438,100.8461955783423 108.32237108517438,81.11545695655514 101.66447421815246,72.80769468611106 95.16509870346636,77.58466399041936 95.0065773492679,98.56159791431855 97.06735495198518,102.92309932329226 102.4570809872821,105.0 108.95645650103688,100.01543322089128 107.52976431604475,78.00005185895134 102.14003827888519,73.01538934092969 94.68953464180231,80.07698935782537 95.6406627651304,98.353907033219 99.4451752603054,104.58462011045776 108.00532837770879,101.2615765723167 107.84680702351034,79.45390843041241 103.0911664031446,73.63847312226426 96.11622682772577,76.75388788653072 95.0065773492679,97.93852517951746 99.4451752603054,104.37693011958618 108.16384973097593,101.05388609063812 108.63941379263997,80.90776349848602" stroke="#4DD2FF" stroke-linecap="round" stroke-linejoin="round" stroke-width="0.5"><title>2025-04-19 4.1km</title><desc>1745066356000</desc></polyline><polyline fill="none" points="136.32538598496467,74.94476126506925 131.11921022180468,74.09212124580517 128.02804336231202,78.56847572489642 129.32958730310202,97.96585130936 134.04768408928066,103.93422210006975 143.48387765977532,100.09741514048073 143.8092636456713,79.42111309850588 142.34502671193331,75.58424094854854 135.837307007052,72.59999999997672 129.16689431015402,77.92899736424442 130.46843825094402,101.16319587477483 134.53576306719333,104.78684448311105 140.71809678617865,104.14737774268724 142.99579868279397,98.60532078961842 143.6465706527233,79.20795380196068 142.34502671193331,75.15792119130492 136.162692992948,73.23948072316125 129.32958730310202,77.50267829932272 131.28190321475267,101.37635192682501 138.765780874528,104.14737774268724 143.8092636456713,98.81847721978556 142.99579868279397,80.48690910707228 135.674614014104,73.87896116252523 128.84150832518935,78.78163511515595 129.81766628101468,98.39216432755347 136.32538598496467,104.78684448311105 141.04348277114332,103.08159921271726 143.15849167481065,96.90006821288262 142.83310568984598,77.71583784709219 136.81346496287733,73.02632051345427 129.00420131813735,79.84743159613572 129.65497328806669,96.90006821288262 135.674614014104,104.36053335445467 142.67041269689798,100.73688367533032 142.99579868279397,79.42111309850588 136.81346496287733,73.02632051345427 129.81766628101468,78.35531630262267 129.65497328806669,98.60532078961842 131.9326751837507,102.65528758033179 138.765780874528,103.5079107193742 143.32118466775864,97.75269475323148 142.67041269689798,77.0763591080904 139.41655284538865,73.45264090097044 133.07152613345534,73.23948072316125 129.16689431015402,80.27374996850267 130.631131243892,101.37635192682501 137.30154394079,104.57368893467356 142.18233371898532,100.73688367533032 142.18233371898532,82.19218108290806 137.62692992575467,74.73160130775068 133.88499109540135,73.87896116252523 128.67881533224136,78.14215684891678 129.65497328806669,97.53953816567082 137.464236933738,105.0 142.01964072696865,102.22897582186852 143.97195663768798,83.68429240852129 142.5077197048813,75.79740078013856 138.928473867476,73.02632051345427 129.65497328806669,78.56847572489642 130.30574525892735,101.16319587477483 133.39691211748868,104.36053335445467 142.01964072696865,101.58950794802513 142.5077197048813,82.40533993788995 136.65077196992934,73.87896116252523 130.14305226597935,76.43688008585013 129.65497328806669,98.39216432755347 132.42075416259468,103.72106642497238 141.04348277114332,102.86844341247343 143.6465706527233,80.91322728991508" stroke="#4DD2FF" stroke-linecap="round" stroke-linejoin="round" stroke-width="0.5"><title>2025-04-17 3.9km</title><desc>1744894073000</desc></polyline><polyline fill="none" points="156.72527971207455,94.32649443178525 156.89766058995156,94.42612999296944 157.39198810735252,94.30988846199034 157.68858461780474,94.13054320660376 158.21586730303534,94.02758509875093 158.43894843908492,94.07408236713127 158.7101948204363,93.98108773419335 159.45802362883114,93.84823759125538 160.06642672717862,93.65892478109708 160.8522807292029,93.33675721113832 161.191972459128,93.27365168245888 161.87389093184902,93.38325590840213 162.08683201628446,93.34339988806641 163.7726156012941,93.66224607221011 165.83611610985827,94.69182266405915 167.50922463032475,94.94754889448814 167.62076519835682,95.07375037781276 167.75005085674638,95.13020870679975 168.543509897514,95.26305127456544 168.7361708786484,95.12024548257796 170.50814490260382,95.36932476363836 171.63369063453865,95.27301443550277 173.7605664658622,95.54201811200983 173.56283545888436,95.48223979537761 173.9684375244542,94.80141997613646 174.3638995383808,93.6755312317473 174.77964165559388,93.03119195071667 175.0280729207443,92.52633589847756 176.18910883343779,89.82250590814692 176.8101869963284,88.6099949354375 177.18536890698306,87.563528764078 177.7836319536873,86.78280003968393 178.70384163994459,87.61336159152415 179.6950316876755,89.1614463920614 179.6975667005754,89.25113902429803 179.26661450591928,90.2144817650842 179.43646037086728,91.07148991137183 180.28822470855084,91.57970023832604 181.119708942977,91.49333850950643 181.59122134419158,91.55644903628126 181.6545966669364,91.66938322090209 181.62164149910677,92.31708302680454 181.669806744394,92.43333486265874 181.80923245442682,92.60937221245149 182.04498865504866,92.72894396573975 182.2452546749264,92.91826460768425 182.47087082387588,93.1972605422925 182.53931617244962,93.21386733397594 182.6077615210088,93.14411872646451 182.5849464048224,92.89501479016872 182.79535247635795,92.51969298009863 182.97026836710575,91.88528522988054 183.06659885769477,91.80888937146301 183.16546436116914,91.78895997439031 183.35559032940364,91.85206967116392 183.77133244660217,91.78563840648894 184.23777482201695,91.89524988792073 184.39241060950735,92.07793450253484 184.65858696502983,92.07461297733425 184.69914717158827,92.21079510790696 184.54704639699776,92.43665633484306 184.7549174556043,92.71565824678146 185.2974102182925,92.85847931405806 185.50274626399914,93.03783471793577 185.70301228386234,93.10758365521178 186.35704561459715,93.52275142309736 186.78292778343894,93.58253495013378 187.1074094358919,93.89141397382082 187.1327595649782,94.06079744311864 186.97812377748778,94.2467856648982 186.90714341601415,94.45269940138496 186.67392222832132,94.82798894102416 186.70941240905086,95.30622494008821 186.85390814491257,94.99736535411284 187.20627493936627,94.61543634272675 187.35584070104233,94.22021601313827 187.42428604961606,94.20028875370372 187.576386824192,94.36302752215852 187.54343165637692,93.94455402313906 188.08845943197957,93.32347185140497 188.20000000001164,92.76547965237296 182.76746733434265,84.95545655701426 182.32130506221438,84.72619751920865 182.16920428762387,84.25770438483414 181.93091307410214,83.99188833359949 181.78134731242608,83.84568816488536 181.20843439480814,83.50012034776591 180.73945700650802,83.02163305655449 180.47835067678534,82.12444191638133 179.83192238479387,82.05798188799054 179.7710820749635,82.13108790839942 179.73052186840505,82.50658326407574 179.65447148110252,83.74932844261821 179.5606760034425,84.05834264124314 179.05367342148384,84.91226300409835 178.01178311556578,86.44724446625878 177.23606916518474,87.43064068396052 176.61245598936512,87.99540959744081 175.82913700024073,89.35079708475132 174.4703700805985,92.6193365495219 174.38164462875284,92.98801391595407 174.3106642672792,93.75524202407723 173.97350755026855,94.77485097985118 173.53241530398373,95.50880795571356 172.83782176670502,95.3726458020792 171.72241608638433,95.28297759203087 170.49546983804612,95.35936164536906 168.751380956106,95.0969979422207 168.52829982005642,95.25973021993923 167.77793599876168,95.1268876325521 167.60302010798478,95.0538238749159 167.50922463032475,94.9342644866174 165.82344104530057,94.67521696411313 163.7827556529228,93.6423183181887 162.19330255850218,93.34007854985248 162.00571160315303,93.31018648380632 161.85614584149153,93.35668523602726 161.18436742038466,93.24375952808259 160.84467569048866,93.31018648380632 159.48844378374633,93.82166746845542 158.7558250528091,93.95119652048015 158.3730381034402,94.06743990610994 158.2057272513921,94.0242638616146 157.73928487599187,94.1039734174592 157.620139269231,94.1438280893999 157.43761833973986,94.29328247992999 156.85203035757877,94.42612999296944 156.65683436351537,94.20693117548035 156.67457945388742,93.54932189919236 156.2005320397584,93.41646920469611 155.87098036147654,93.0212277962055 155.8000000000029,92.8186223633038 156.01801111023815,92.80201527963254 156.0484312651679,92.76880107549005 156.00787105860945,92.68576535041939" stroke="yellow" stroke-linecap="round" stroke-linejoin="round" stroke-width="0.5"><title>2025-04-14 32.8km</title><desc>1744614550000</desc></polyline><polyline fill="none" points="32.81740147527307,123.91956133791246 30.408700738102198,115.71431016223505 23.503758624196053,114.4519596308237 20.613317739218473,120.13252820854541 20.613317739218473,139.69875763799064 25.270139164291322,145.37922550400253 30.569280786439776,145.16883820900694 33.94146181922406,140.96108578832354 33.13856157287955,119.71174612827599 26.073039409704506,114.66235146403778 20.773897788487375,120.13252820854541 20.45273768901825,139.69875763799064 24.78839901741594,144.95845088374335 33.13856157287955,143.0649635529844 34.10204186849296,119.71174612827599 29.60580049175769,114.66235146403778 20.773897788487375,119.71174612827599 20.773897788487375,138.22604004736058 25.10955911502242,145.5896127676824 30.89044088497758,144.74806352634914 34.583782016299665,140.11953381251078 33.780881769023836,118.87018159439322 25.751879312098026,114.66235146403778 19.970997542142868,120.97409199678805 21.89795813243836,142.22341282025445 26.715359607711434,145.5896127676824 34.583782016299665,140.5403098622337 34.42320196609944,120.76370109640993 29.926960590295494,114.4519596308237 26.55477955751121,113.8207839456154 20.773897788487375,118.87018159439322 21.095057887025177,139.2779813389061 25.430719213560224,145.80000000004657 34.42320196609944,142.01302505959757 33.780881769023836,118.44939914043061 27.67883990239352,113.4000000001397 23.66433867253363,114.4519596308237 20.45273768901825,120.5533101647161 21.25563793629408,140.7506978410529 27.357679802924395,145.37922550400253 34.904942113906145,140.5403098622337 34.583782016299665,120.5533101647161 29.284640393219888,114.03117587172892 25.430719213560224,114.24156776652671 20.29215764068067,119.50135504128411 20.613317739218473,139.2779813389061 22.058538181707263,142.85457591619343 28.481740147806704,145.5896127676824 35.38668226171285,138.43642836785875 34.26262191683054,118.02861656306777 27.67883990239352,114.24156776652671 20.45273768901825,119.71174612827599 21.25563793629408,141.17147370497696 24.306658869609237,144.95845088374335 29.926960590295494,145.5896127676824 35.065522163175046,139.90914574067574 34.904942113906145,120.5533101647161 30.248120687901974,113.61039198876824 23.985498772002757,115.503918484319 21.57679803390056,119.50135504128411 20.613317739218473,138.43642836785875 26.39419950824231,145.37922550400253 34.42320196609944,141.38186159043107 34.583782016299665,118.44939914043061 30.087540638633072,113.8207839456154 25.751879312098026,114.03117587172892 20.934477837756276,120.5533101647161 21.095057887025177,141.17147370497696 26.875939656049013,145.5896127676824 35.54726231005043,143.48573873308487 36.02900245785713,120.34291920240503" stroke="#4DD2FF" stroke-linecap="round" stroke-linejoin="round" stroke-width="0.5"><title>2025-04-09 4.1km</title><desc>1744204461000</desc></polyline><polyline fill="none" points="51.48460865300149,145.80000000004657 55.40509269014001,141.05858562211506 54.651153452694416,137.89763336384203 59.024001031182706,139.87322940095328 59.024001031182706,135.92203440750018 59.174788878299296,138.29275280446745 58.1192739456892,135.13179400761146 57.96848609857261,138.09519309876487 56.00824408046901,136.90983425045852 57.66691040340811,142.24394079274498 54.34957775659859,135.52691426605452 57.36533470824361,138.4903124809498 56.1590319275856,144.61464798194356 57.36533470824361,142.04638167098165 55.10351699497551,140.26834825833794 57.96848609857261,135.32935415173415 56.00824408046901,142.24394079274498 57.06375901307911,139.67566992831416 58.722425336018205,143.62685383029748 57.36533470824361,139.28055089642294 54.198789909482,144.21953040838707 55.555880536325276,140.46590764308348 57.8176982505247,142.24394079274498 55.10351699497551,143.62685383029748 57.36533470824361,140.0707888440229 57.66691040340811,143.2317359659355 55.2543048420921,137.7000735992333 56.00824408046901,144.81220672430936 59.32557672634721,133.35375140083488 56.00824408046901,145.00976543780416 56.61139546986669,137.7000735992333 57.96848609857261,144.61464798194356 55.70666838437319,137.30495398316998 57.96848609857261,134.93423383450136 55.40509269014001,131.77326709905174 58.4208496408537,138.4903124809498 55.555880536325276,137.89763336384203 54.651153452694416,143.62685383029748 55.8574562324211,137.89763336384203 57.5161225553602,139.67566992831416 55.2543048420921,140.86102632503025 58.4208496408537,137.89763336384203 59.92872811667621,139.67566992831416 58.571637488901615,138.29275280446745 57.5161225553602,142.44149988540448 59.62715242151171,141.05858562211506 56.1590319275856,143.42929491272662 58.571637488901615,144.21953040838707 55.70666838437319,140.0707888440229 58.4208496408537,140.26834825833794 57.21454686112702,144.02197157824412 57.5161225553602,135.32935415173415 63.24606076348573,137.50251380575355 55.8574562324211,141.4537041290896 57.06375901307911,143.2317359659355 56.762183317914605,139.28055089642294 57.66691040340811,144.81220672430936 55.40509269014001,140.26834825833794 60.68266735505313,141.65126333909575 58.27006179280579,144.61464798194356 58.571637488901615,137.30495398316998 56.1590319275856,139.4781104271533 58.722425336018205,139.4781104271533 57.21454686112702,142.63905894907657 55.40509269014001,133.74887218442746 58.27006179280579,134.93423383450136 56.4606076227501,141.84882251929957 54.952729146927595,139.28055089642294 59.62715242151171,138.88543174683582 57.66691040340811,136.11959443427622 63.69842430576682,137.7000735992333 66.56339340936393,119.72201286698692 76.51539134792984,119.12932543060742 76.06302780564874,113.40000000002328" stroke="#4DD2FF" stroke-linecap="round" stroke-linejoin="round" stroke-width="0.5"><title>2025-04-07 1.9km</title><desc>1744030807000</desc></polyline><polyline fill="none" points="100.53406593576074,128.90031123999506 83.80000000074506,123.76900484925136 98.04175824299455,122.8360391559545 90.9208791218698,123.30252203694545 99.82197802141309,114.90581962396391 93.05714285746217,115.37230367679149 95.90549450553954,133.5651279934682 98.7538461536169,122.36955620464869 94.83736263774335,130.76623876881786 95.19340659491718,115.8387876607012 94.83736263774335,139.62937947176397 97.68571428582072,130.76623876881786 101.9582417588681,134.9645716769155 97.32967033050954,136.36401473847218 93.05714285746217,118.17120654904284 96.97362637333572,139.62937947176397 91.27692307904363,124.23548759217374 97.32967033050954,126.56790027837269 97.32967033050954,118.6376901192125 101.9582417588681,134.49809051770717 98.7538461536169,131.23272047843784 96.97362637333572,138.6964184648823 93.05714285746217,125.16845287336037 95.19340659491718,129.83327514212579 101.60219780355692,125.63493541046046 95.90549450553954,144.2941803757567 102.67032966949046,132.63216519542038 95.54945055022836,138.22993785655126 93.05714285746217,130.76623876881786 96.6175824161619,136.36401473847218 105.16263736225665,127.96734706149437 98.39780219830573,131.23272047843784 101.9582417588681,137.76345718000084 98.39780219830573,134.0316092898138 98.7538461536169,115.37230367679149 94.12527472525835,132.16568369138986 99.10989011079073,125.63493541046046 94.12527472525835,116.77175542386249 96.6175824161619,128.90031123999506 100.17802197858691,124.70197026780806 93.41318681277335,139.16289900266565 91.63296703249216,124.70197026780806 95.90549450553954,136.36401473847218 96.6175824161619,126.56790027837269 90.2087912093848,130.76623876881786 87.71648351661861,118.17120654904284 98.7538461536169,140.56234020390548 95.54945055022836,133.09864662890323 103.3824175838381,120.03714041877538 98.7538461536169,138.6964184648823 94.12527472525835,130.29975698934868 97.68571428582072,118.6376901192125 92.70109890028834,136.83049562200904 88.42857142724097,128.90031123999506 98.7538461536169,124.70197026780806 100.53406593576074,131.23272047843784 95.19340659491718,126.10141787910834 94.12527472525835,130.76623876881786 103.73846153914928,124.70197026780806 95.54945055022836,134.49809051770717 98.7538461536169,143.82770059467293 93.41318681277335,123.76900484925136 99.10989011079073,128.4338291855529 102.67032966949046,122.8360391559545 91.63296703249216,121.43659009691328 95.19340659491718,133.5651279934682 98.39780219830573,116.77175542386249 93.76923076994717,128.90031123999506 91.63296703249216,120.03714041877538 88.78461538441479,141.4953006603755 93.41318681277335,120.50362371373922 100.89010988920927,127.50086486944929 93.76923076994717,126.10141787910834 93.41318681277335,115.8387876607012 93.05714285746217,143.36122074583545 94.12527472525835,129.83327514212579 101.60219780355692,127.96734706149437 94.83736263774335,116.30527157639153 102.67032966949046,132.16568369138986 96.6175824161619,117.23823920078576 92.34505494497716,124.23548759217374 99.82197802141309,120.97010693931952 93.05714285746217,130.29975698934868 97.32967033050954,142.89474082714878 87.71648351661861,118.17120654904284 92.70109890028834,134.49809051770717 100.53406593576074,136.83049562200904 98.39780219830573,124.70197026780806 116.20000000111759,121.43659009691328" stroke="#4DD2FF" stroke-linecap="round" stroke-linejoin="round" stroke-width="0.5"><title>2025-04-06 2.6km</title><desc>1743945103000</desc></polyline><polyline fill="none" points="122.81107574794441,134.72534632892712 124.31403564609354,134.17142100743695 124.62081476766616,134.16128810215923 125.18023551878287,134.26261695280482 125.35295989815495,134.20857495501332 127.14207511140557,134.54971292400296 129.2225015913573,135.5967382687213 130.93685550605005,135.86017580543376 131.03481858689338,135.97500660228798 131.18434118396544,136.04593121811922 131.991247612983,136.17764777809316 132.20006365372683,136.02904442478575 133.9608211330342,136.2857223375031 135.13380012731068,136.18777978973958 136.15467854870076,136.29247698049403 137.02087842140463,136.44445592047487 137.10337364736188,136.39379638606624 137.49264799492084,135.76223143472816 137.88965626989375,134.61726439326048 138.46970082751068,133.66139253229449 139.6478357734013,130.89825900623146 140.39802673456143,129.42197375495016 140.7924570337491,128.33074510231927 141.38539147040865,127.55367745679723 142.32635264164128,128.41182889943957 143.3162953532883,129.9557446456365 143.31113940167415,130.0942527763691 142.88835136855778,131.0536519069501 142.99147040101525,131.6988589558423 143.08685550604423,131.942073640299 143.83446849140455,132.39471630210937 143.99172501591966,132.43862891921344 144.72387014640844,132.35755940637864 145.26782304263907,132.41836156795216 145.3271164863254,132.52307602267865 145.2832908975106,133.17837494243577 145.37352005092544,133.37428540493602 145.49468491406878,133.4958841578882 145.72412476131285,133.61072683066413 146.18816040738602,134.09711293112377 146.244875875258,134.08697999291144 146.30159134310088,133.99578334690705 146.283545512415,133.73570202491283 146.50782940803037,133.34726337200118 146.6599299809168,132.76628193765646 146.74242520687403,132.66832431089279 146.87647994908912,132.63792358275532 147.07498408657557,132.7054807014938 147.44105665183451,132.63116785989587 147.96438574157946,132.7561484095295 148.09844048376544,132.93517341179722 148.3768618714239,132.93855122855894 148.4232654360385,133.05001890147832 148.27632081478077,133.25606377500844 148.27374283896643,133.33713010140673 148.48255887969572,133.587082798138 149.07033736474114,133.76272359870381 149.22759388925624,133.90796401060652 149.47765754297143,134.0160492996747 150.09637173774536,134.411231787999 150.5526734564046,134.4787836664491 150.8774984086631,134.80302990456948 150.89554423934896,134.958396263979 150.7460216422769,135.13064903694612 150.6583704646764,135.3772046693739 150.4340865690756,135.7081929816286 150.4289306174469,136.1911571259643 150.47533418204694,136.20466646583918 150.59907702101918,135.9243460277139 150.9960852959921,135.48528301248552 151.12240611076413,135.12727154406093 151.20747931255028,135.0968740857079 151.34669000636495,135.24886097333547 151.31833227243624,134.84356036099416 151.77205601528112,134.3504349267405 151.89837683005317,134.15115519239225 152.06078930618241,133.18175272325607 152.027275620625,132.8946395718067 152.05821133036807,132.4622741396288 152.19484404838295,132.28662334678302 152.20000000001164,131.74615090272528 152.13297262889682,131.56373856847677 152.01438574156782,131.42861738234024 150.96772756206337,130.86785592381784 150.56040738383308,130.59760452498995 150.44697644813277,130.41856121351702 150.48564608528977,130.11114395440018 150.27683004457504,129.8341270582696 150.269096117132,129.4625137537114 149.7844366645586,129.10778632625988 149.71225334182964,129.00643462142216 149.81795035010146,128.719269016794 149.80248249522992,128.60778022144223 149.738033099944,128.5672387064642 149.500859325286,128.6584570140294 149.11158497772703,128.66859235906122 148.81511775939725,128.2462825077364 148.26858688733773,127.75977188527213 147.64213876512076,126.91173207975771 147.0156906429038,126.350859778624 146.8558561425889,125.90485511049337 146.00254614895675,125.45884173658305 145.87622533417016,125.06350442210532 145.74732654361287,124.87090171396449 145.3992998090398,124.53299830316246 144.88886059835204,124.2255018563028 144.35779758116405,123.68145954270767 144.13609166137758,122.81975110720305 143.97367918523378,122.77582000250004 143.47355187778885,122.75554407952586 143.41683640993142,122.7960959074735 143.36785486951703,123.21512724811691 143.28793761935958,124.45190074095808 143.18224061108776,124.79318437199618 142.70015913431416,125.61427162794462 141.60451941439533,127.22932836233849 140.78987905793474,128.2530395267877 140.35677912159008,128.60778022144223 140.16600891153212,128.83075726826974 139.41066199872876,130.15168273073868 137.99793125399447,133.55330556639092 137.9309038828942,133.8100112759803 137.88965626989375,134.50918194663973 137.54420751113503,135.58998342017185 137.05954805856163,136.42081481837522 136.28357733928715,136.2857223375031 135.16473583705374,136.184402453031 133.92215149586264,136.27221304551313 132.17170591981267,136.02904442478575 132.00929344368342,136.1675157619684 131.92679821771162,136.17764777809316 131.17660725653695,136.02904442478575 130.94201145767875,135.85679842033824 129.20445576065686,135.57647371708845 127.1162953532912,134.51931469771444 125.36842775302648,134.20181969631267 125.15961171229719,134.24910646533135 124.51511775939434,134.1342669994683 124.25989815405046,134.16466573775142 122.79302991725854,134.7152136691675 121.95003182686924,134.86382556225544 121.64325270528207,134.96515129912586 121.49373010821,134.92124353495092 120.9781349459081,135.00905897897792 120.67651177594962,135.20157627212575 120.09646721833269,135.34005262092978 119.83866963718901,135.14415900346285 119.8489815404173,135.11038407218985 119.80000000000291,135.1846888551372 119.83093570974597,135.12727154406093" stroke="yellow" stroke-linecap="round" stroke-linejoin="round" stroke-width="0.5"><title>2025-04-06 31.5km</title><desc>1743926920000</desc></polyline><polyline fill="none" points="156.60620608899626,134.3297973526387 156.82198477751808,134.52861770628442 157.36973067915824,134.39503548838366 157.57602459016198,134.24591945214524 158.08820257612388,134.1527213925383 158.27789812647097,134.18689406234625 159.2477166276367,133.98185721044138 160.64197892272205,133.4692563338249 160.80796252927394,133.44440264037257 161.4387002341973,133.53449713938608 161.63076697892393,133.4941099979078 163.2668911007204,133.80788498040056 165.14724824354926,134.75228835723829 166.7359484777553,134.9977020287988 166.8616217798699,135.1281739539627 166.9825526932109,135.18098378877403 167.7199941452127,135.29281594239728 167.933401639355,135.16234503869237 169.5292154566705,135.3922218019161 170.59862412179064,135.3021352616779 172.38650468383275,135.5164784655626 172.8180620609055,134.82995122128887 173.19033957846113,133.79235167558363 173.712002341912,132.92246829171017 174.82646370024304,130.32503088807243 175.48091334894707,129.04172866226145 175.82236533958348,128.06599367176568 176.647540983613,126.98455293000188 177.61973067915824,125.5394374984553 178.05128805620188,124.78731660398262 178.11768149882846,124.59462014243763 178.2599531615997,123.03122707659713 178.32160421546723,122.96595366365 178.76738875877345,122.98771149049753 178.89543325526756,123.03744358153745 179.12781030444603,123.8642223515617 179.54039812646806,124.29313987563546 180.05968969555397,124.60083618489625 180.3963992974168,124.9396077187539 180.48650468383858,125.06703413002833 180.61217798595317,125.46795609162837 181.40178571428987,125.86265473769345 181.5132318501128,126.2511304188829 182.10603044496384,126.77944582251803 182.66563231851615,127.54392577767067 183.1849238875875,128.0007358941075 183.46946721311542,128.39538698105753 183.54297423888056,128.42956900999525 183.87019906323985,128.38606459988296 184.01484192037606,128.3239152863971 184.1002049180388,128.35188250020656 184.1073185011628,128.46064353351176 184.02195550351462,128.73098994987959 184.5483606557391,129.15980816859155 184.5270199063234,129.43636020601298 184.74042740048026,129.75951752784204 184.6930035128753,130.01741836469046 184.75939695551642,130.14170679483868 185.12930327869253,130.4058172691657 186.1750000000029,130.9899557102035 186.29118852458487,131.26648367366215 186.26747658078966,131.626896683425 186.31252927400055,131.74496167075813 186.6705796252936,131.8412773535947 186.77016978923348,131.9065232106368 186.78202576113108,132.04322815933847 186.56624707260926,132.4502308123756 186.57336065574782,132.5807185447229 186.71800351288402,132.6273211100215 187.08316744731565,132.36013166740668 187.20884074941569,132.394307250599 187.23018149883137,133.4319757826288 187.28709016393987,133.6121645011208 187.4341042154556,133.7240049980628 188.0814402810356,133.84827151923128 188.20000000001164,133.95700412284714 188.190515222479,135.90166945734745 188.08618266979465,135.88613769901167 187.78978337235458,135.66869187800512 187.32028688525315,135.53201049688687 187.0997658079723,135.58171292007864 185.44704332553374,136.22162112697697 184.1594847775268,136.2340463363489 184.13814402811113,136.19677068620695 184.34206674473535,135.75256410388647 184.6977459016489,135.38290252254046 184.69537470726937,134.87033579724812 184.98940281031537,134.33601051714322 185.13878805621061,134.15893460936422 185.13878805621061,134.05952291986432 185.08899297424068,133.9911771107145 184.82816159250797,133.7333250126212 184.59815573770902,133.6587647804772 184.36577868853055,133.6587647804772 183.75163934426382,133.26110574389895 183.5690573770553,133.1896505886998 183.39596018735028,133.04363277732227 182.86718384076084,132.89761395194 182.70357142857392,132.6490689384882 182.84110070258612,132.4440170906255 182.81264637003187,132.3104216290576 182.54707259952556,132.30420786600553 182.41428571428696,132.14264938194356 182.03726580795774,132.05565583788302 181.87128220140585,132.04012123855864 181.57014051523583,132.11158030038678 181.3804449648742,132.04944199953388 181.22868852458487,132.1302217548291 181.0887880562077,132.67081674445217 180.85878220140876,133.0684869444849 180.88012295082444,133.30460006731846 180.8350702576281,133.37605483189327 180.76393442622793,133.37916155528546 180.3963992974168,132.97528366615006 180.10237119438534,132.79819629911253 180.02412177986116,132.68945770308528 179.9600995316141,132.54343641810738 179.99566744732147,131.93448565882863 179.9411299765925,131.8350634518847 179.50245901639573,131.77913825387986 178.67728337238077,131.85059820271636 177.944584309138,131.40008576861328 177.8615925058548,131.2323062571868 177.77385831382708,130.53010340312358 178.1437646370032,129.71290860530098 178.1508782201272,129.56997393181882 177.24508196720853,128.15300372681668 176.4246487119526,127.38543831554853 176.17330210772343,127.21762675899481 176.32742974239227,127.28910221540536 176.28711943794042,127.40408396135717 175.82947892272205,128.0100584461834 175.26513466042525,128.51657756009809 174.41150468384149,130.04538332553966 173.23539227167203,132.91004112549308 173.12394613583456,133.87623138528943 172.80620608899335,134.83305772988024 172.34619437939546,135.55064891935217 171.82453161591548,135.42949887809482 170.73378220140876,135.32077388787002 169.5410714285681,135.3953282274524 167.91443208431883,135.15923857872804 167.71050936768006,135.3021352616779 166.97781030445185,135.17166441579866 166.7359484777553,134.99148905978473 165.17807377049758,134.75539487731294 163.24317915692518,133.78303168718776 161.72561475410475,133.50032340934013 161.57385831381544,133.48478987732415 161.45055620608036,133.52517703669764 160.83167447306914,133.4226556345002 160.60403981264972,133.45372277886054 159.28802693208854,133.94768420742002 158.5529566744808,134.0750560273318 158.22573185012152,134.18378745829796 158.05974824356963,134.14029495338036 157.61633489462838,134.2210666766423 157.31519320842926,134.40435520554456 156.77218969554815,134.51619148924328 156.60857728337578,134.3297973526387 156.6346604215505,133.73021834156498 156.1485655737779,133.5531373323647 155.84742388757877,133.15236954176544 155.8000000000029,133.00945824950577 155.99680913348857,132.99703113471332 156.04186182669946,132.94421581489405 155.9944379391236,132.9069343327974" stroke="yellow" stroke-linecap="round" stroke-linejoin="round" stroke-width="0.5"><title>2025-04-05 35.9km</title><desc>1743843004000</desc></polyline><polyline fill="none" points="34.182346507906914,168.0857471092604 31.974365612491965,173.29288958315738 27.116807643324137,161.72145246341825 25.792019106447697,179.0785953202285 31.091173255816102,166.92860339861363 33.29915415123105,177.34288449725136 26.23361528478563,178.5000251319725 30.207980897277594,161.72145246341825 23.14244203083217,161.72145246341825 36.831923581659794,183.12858425010927 25.792019106447697,168.66431883792393 32.85755796916783,173.8714605413843 25.792019106447697,177.9214548561722 31.53276943229139,163.45717021124437 32.4159617908299,170.9786048948299 22.700845850631595,172.13574740942568 29.766384718939662,175.60717290313914 28.0,186.02143092290498 31.53276943229139,172.13574740942568 31.974365612491965,180.23573544085957 24.025634387508035,168.0857471092604 32.4159617908299,178.5000251319725 26.23361528478563,173.8714605413843 26.23361528478563,179.0785953202285 24.46723056770861,170.4000335088931 35.06553886644542,170.4000335088931 26.23361528478563,154.19999999995343 31.974365612491965,180.81430537393317 30.207980897277594,164.03574262210168 31.091173255816102,178.5000251319725 18.72648023813963,170.9786048948299 29.324788538739085,176.7643140507862 27.116807643324137,168.66431883792393 32.4159617908299,176.7643140507862 33.29915415123105,165.77145934430882 29.324788538739085,179.6571654228028 24.46723056770861,174.45003141462803 28.0,184.86429250892252 21.81765349395573,181.39287522202358 27.55840382166207,169.24289047974162 30.207980897277594,180.81430537393317 27.55840382166207,169.82146203657612 36.831923581659794,174.45003141462803 31.53276943229139,165.77145934430882 26.67521146312356,177.34288449725136 23.584038209170103,168.0857471092604 29.766384718939662,174.45003141462803 36.831923581659794,161.72145246341825 28.44159617833793,169.24289047974162 29.324788538739085,186.60000000009313 28.44159617833793,167.50717529677786 37.27351976186037,177.9214548561722 31.974365612491965,166.35003141500056 30.207980897277594,180.23573544085957 22.700845850631595,168.66431883792393 30.649577075615525,159.98573394562118 31.091173255816102,181.97144498466514 25.792019106447697,173.8714605413843 29.324788538739085,165.19288718909957 28.0,179.0785953202285 35.06553886644542,172.13574740942568 28.0,181.97144498466514 25.792019106447697,168.0857471092604 36.831923581659794,180.23573544085957 26.23361528478563,173.29288958315738 28.0,185.4428617581725 31.091173255816102,172.7143185385503 24.025634387508035,172.7143185385503 25.35042292624712,179.6571654228028 31.53276943229139,170.9786048948299 23.584038209170103,169.24289047974162 28.88319235853851,181.97144498466514 27.116807643324137,170.9786048948299 31.53276943229139,175.60717290313914 25.35042292624712,183.12858425010927 24.46723056770861,165.77145934430882 31.091173255816102,176.7643140507862" stroke="#4DD2FF" stroke-linecap="round" stroke-linejoin="round" stroke-width="0.5"><title>2025-04-04 1.7km</title><desc>1743771861000</desc></polyline><polyline fill="none" points="69.99498628731817,154.19999999995343 62.80100274179131,156.1636588482652 58.904261655174196,161.66188818775117 59.95338425505906,182.86913114751223 64.44962397124618,186.0109161407454 67.74686642922461,185.02910912793595 70.29473560117185,180.31642537284642 69.69523697160184,160.48369810101576 62.80100274179131,157.34185276471544 57.40551508311182,164.60735883400775 59.2040109699592,182.47640750184655 60.85263219848275,185.22547058889177 67.14736780058593,185.42183202004526 70.74435957241803,180.7091496573994 68.4962397152558,161.46552324586082 63.550376027822495,157.14548718417063 57.85513905528933,162.44734766497277 58.904261655174196,183.06549292744603 67.44711711537093,185.22547058889177 71.34385820105672,179.92370097211096 68.79598902910948,159.89460266614333 63.550376027822495,157.14548718417063 58.904261655174196,159.50187223160174 58.15488837007433,180.90551175596192 62.95087739918381,186.0109161407454 70.89423422981054,182.0836837394163 70.29473560117185,162.44734766497277 63.700250684283674,157.34185276471544 56.65614179801196,163.0364419685211 57.40551508311182,178.74552707385737 61.90175479929894,185.81455479632132 68.1964904004708,184.83274763869122 71.34385820105672,179.7273387281457 70.14486094377935,162.8400772297755 62.95087739918381,157.14548718417063 56.95589111186564,163.23280667851213 58.904261655174196,183.8509397560265 67.59699177183211,184.83274763869122 71.34385820105672,178.74552707385737 68.3463650578633,160.87642824626528 61.15238151233643,158.1273147946922 56.95589111186564,163.42917135951575 58.60451234038919,182.86913114751223 65.34887191466987,186.0109161407454 70.29473560117185,182.86913114751223 71.34385820105672,178.74552707385737 69.09573834296316,160.09096784051508 61.15238151233643,157.53821831557434 57.40551508311182,164.01826522743795 58.30476302653551,181.49459787795786 62.65112808533013,186.0109161407454 70.89423422981054,181.49459787795786 70.29473560117185,161.66188818775117 62.80100274179131,157.34185276471544 56.95589111186564,162.25098283938132 58.30476302653551,183.06549292744603 61.15238151233643,185.81455479632132 67.89674108661711,185.22547058889177 71.04410888720304,179.53097645542584 70.29473560117185,161.85825310077053 65.79849588591605,157.14548718417063 59.2040109699592,158.52004563598894 56.95589111186564,161.85825310077053 59.0541363125667,184.4400245724246 65.79849588591605,186.59999999997672 71.19398354459554,181.6909598610364 70.74435957241803,166.96373065188527" stroke="#4DD2FF" stroke-linecap="round" stroke-linejoin="round" stroke-width="0.5"><title>2025-04-02 4.0km</title><desc>1743590878000</desc></polyline><polyline fill="none" points="95.19589034840465,161.42299503285903 92.5181898875162,161.42299503285903 92.20316630322486,176.90071575832553 96.45598468277603,185.15543001971673 106.22171577624977,181.02807898679748 105.59166860952973,168.43958301329985 107.95434548705816,167.40773405029904 104.016550690867,156.67645964724943 92.99072526302189,158.32743030635174 92.99072526302189,177.72618937969673 96.45598468277603,184.32996078871656 104.96162144187838,181.64718241908122 105.43415681738406,162.45484841626603 101.33885022997856,155.23185871983878 92.5181898875162,159.77202803234104 92.20316630322486,177.31345262995455 96.14096109941602,184.12359340523835 101.33885022997856,185.15543001971673 106.06420398596674,180.82171111542266 105.90669219288975,161.010253465618 98.50363797694445,155.02548703702632 93.3057488463819,158.7401726662647 92.83321347087622,178.3452942756703 98.81866156030446,184.74269546556752 102.44143277220428,184.32996078871656 106.69425115175545,178.55166251340415 105.90669219288975,159.97839901421685 100.23626768682152,155.02548703702632 92.99072526302189,157.70831653825007 93.3057488463819,180.2026073167799 100.07875589560717,185.36179725104012 105.74918040074408,179.5835032442119 106.5367393605411,159.1529149042908 99.44870872795582,154.6127435794333 92.99072526302189,161.010253465618 93.77828422188759,179.78987129870802 100.23626768682152,185.36179725104012 105.43415681738406,182.67902086372487 107.32429832033813,177.31345262995455 105.43415681738406,158.53380150196608 99.9212441034615,154.6127435794333 93.46326063759625,158.94654380099382 93.62077242974192,179.37713515933137 98.50363797694445,184.94906275789253 105.59166860952973,181.85355016915128 106.69425115175545,159.97839901421685 99.76373231224716,154.81911532382946 92.04565451201051,159.77202803234104 93.14823705516756,181.44081463909242 99.44870872795582,186.1872658728389 106.22171577624977,181.44081463909242 105.74918040074408,158.7401726662647 99.44870872795582,155.02548703702632 92.5181898875162,159.56565702043008 94.09330780617893,182.67902086372487 99.1336851445958,185.98089876305312 104.17406248301268,185.56816445232835 106.37922756839544,181.64718241908122 106.06420398596674,159.97839901421685 99.29119693674147,154.19999999995343 92.83321347087622,159.77202803234104 95.19589034840465,182.47265323565807 97.4010554337874,185.36179725104012 105.43415681738406,186.59999999997672 107.32429832033813,161.42299503285903" stroke="#4DD2FF" stroke-linecap="round" stroke-linejoin="round" stroke-width="0.5"><title>2025-03-30 4.0km</title><desc>1743343343000</desc></polyline><polyline fill="none" points="143.25089058093727,158.60004550556187 141.57173697277904,160.40005999919958 137.75547877140343,157.00003061268944 139.5872827079147,158.60004550556187 139.73993303626776,156.20002245751675 134.85512253828347,154.19999999995343 129.6650113845244,156.6000265943585 127.6805571205914,176.00008535129018 130.12296236958355,183.60003257729113 137.14487745892256,186.59999999997672 143.25089058093727,182.4000437463401 144.472093205899,177.2000798546942 144.62474353425205,172.20009573816787 140.50318467617035,157.20003257784992 133.0233186027035,155.40001382911578 127.37525646481663,163.00007670931518 130.88621400948614,183.40003451216035 137.9081291006878,185.80000933702104 143.55619123764336,180.40005999838468 142.33498861268163,158.4000437472714 134.70247221086174,155.20001159841195 128.7491094172001,161.20006567286327 130.7335636811331,182.8000401413301 138.51873041223735,185.20001602941193 143.09824025444686,180.40005999838468 142.33498861268163,157.60003641957883 133.32861925847828,155.80001820251346 129.05441007297486,161.20006567286327 129.81766171287745,179.80006429727655 134.24452122673392,185.00001820165198 139.43463238049299,185.00001820165198 143.86149189434946,180.40005999838468 142.48763894103467,158.80004723451566 133.0233186027035,156.20002245751675 127.83320744894445,162.0000708734151 130.12296236958355,180.8000569845317 137.45017811562866,185.20001602941193 143.7088415650651,179.600065671606 143.09824025444686,160.8000628951704 136.53427614737302,156.40002454060595 132.87066827435046,156.6000265943585 129.35971072874963,161.4000670176465 131.03886433690786,182.60004195873626 139.43463238049299,185.60001159796957 143.25089058093727,180.20006146118976 141.57173697277904,158.2000419597607 136.22897549066693,155.00000933755655 129.6650113845244,159.80005543422885 130.58091335371137,180.40005999838468 135.00777286663651,185.60001159796957 139.5872827079147,185.00001820165198 143.09824025444686,180.60005850577727 142.79293959680945,160.20005850726739 136.22897549066693,155.60001603025012 129.6650113845244,160.60006146214437 129.6650113845244,179.40006701566745 133.4812695859,184.6000224566087 138.0607794271782,185.60001159796957 142.9455899251625,181.40005224151537 142.1823382852599,161.00006429874338 135.77102450747043,155.80001820251346 129.05441007297486,161.20006567286327 129.81766171287745,181.80004893208388 135.77102450747043,186.00000704696868 142.9455899251625,180.40005999838468 141.87703762948513,158.4000437472714 135.46572385076433,155.20001159841195 128.443808760494,162.80007560143713 129.81766171287745,181.40005224151537 137.75547877140343,185.80000933702104 143.09824025444686,178.4000732951099 142.02968795690686,159.2000506032491 135.16042319498956,155.80001820251346 129.20706040039659,162.20007209933829 130.27561269700527,181.80004893208388 134.85512253828347,186.00000704696868 142.33498861268163,182.60004195873626" stroke="#4DD2FF" stroke-linecap="round" stroke-linejoin="round" stroke-width="0.5"><title>2025-03-30 4.5km</title><desc>1743327729000</desc></polyline><polyline fill="none" points="177.26294416189194,155.47774575924268 177.34517766488716,156.555186900252 171.91776649747044,159.46427002869314 169.2862944160588,159.57201362517662 171.4243654818274,166.46757070202148 165.33908629463986,166.8985408540466 165.6680203047581,170.3462929035304 160.98071066010743,168.29919209016953 157.19796954328194,169.48435641929973 155.79999999981374,173.5785456452286 156.62233502510935,183.70617813168792 159.99390862928703,185.8609754081117 163.85888324910775,183.70617813168792 165.58578680176288,167.22176830138778 169.53299492411315,166.79079833993455 172.90456852782518,167.5449956051889 180.30558375641704,175.84111404040596 181.8680203044787,176.05659637827193 183.5126903555356,172.60887132689822 188.20000000018626,176.59530194534454 186.88426395924762,182.30555648799054 186.63756345119327,175.51789041352458 182.36142132012174,173.14757944090525 181.04568527871743,175.84111404040596 179.15431472100317,174.44047729019076 169.61522842617705,159.78750077087898 177.0162436547689,157.309394751559 175.78274111635983,154.93902459193487" stroke="#4DD2FF" stroke-linecap="round" stroke-linejoin="round" stroke-width="0.5"><title>2025-03-29 1.5km</title><desc>1743247652000</desc></polyline><polyline fill="none" points="19.874527516774833,218.73942665953655 20.423545927740633,219.31489198326017 20.116095617529936,218.82574656658107 19.786684570950456,219.17102581179643 19.984331198967993,219.9766750033159 21.214132439577952,221.84691920575278 22.685501781175844,223.14169313198363 23.212559455889277,221.96201056997234 22.90510914567858,221.38655306847068 23.366284610820003,221.84691920575278 23.08079503721092,223.54450993117644 24.398439223645255,224.52277583177784 29.076076085562818,225.27085820483626 32.436068761046045,227.39999999999418 36.27919763827231,226.59438151767245 37.04782341374084,225.3859475455829 36.56468721199781,208.00668675426277 35.94978659169283,206.76936235548055 34.5662601958029,205.7334568121878 32.76547980774194,204.6687703722564 30.745092055178247,205.21550197395845 29.449408605112694,203.46020033146488 27.626667480450124,197.56111984915333 28.39529325591866,197.24457877103123 28.90039019403048,198.65462143247714 30.305877326289192,198.88483150956745 30.81097426440101,197.96398956798657 30.218034380464815,195.17266082411516 28.98823313973844,195.0 28.109803682076745,195.57553548492433 26.770198759273626,195.6618656609353 25.32079015416093,196.5539419050474 21.543543486157432,197.01436675449077 19.23766615986824,197.99276594461116 19.830606043804437,201.04303774594155 18.996098059113137,203.25877126208798 18.952176586259156,209.24400329079072 19.215705423499458,215.22905135920155 19.89648825326003,218.0488660264382" stroke="#4DD2FF" stroke-linecap="round" stroke-linejoin="round" stroke-width="0.5"><title>2025-03-25 3.9km</title><desc>1742910133000</desc></polyline><polyline fill="none" points="69.15193258784711,195.0 58.33287415467203,204.28134393214714 57.68888258142397,208.16261084761936 61.03763876343146,225.88127053133212 65.41678146226332,226.5562616555253 69.66712584579363,223.35005026205909 68.2503443849273,206.47510511393193 65.80317640630528,202.9313349564327 60.264848874881864,203.268837349955 58.33287415467203,210.35636457509827 60.007252246141434,225.20627900783438 65.54557977663353,226.7250093742041 69.28073090175167,223.51879845489748 68.76553764380515,205.46260047657415 62.71201685350388,201.75007579405792 58.84806741401553,204.78759688627906 58.4616724695079,223.1813020450063 64.12879831530154,226.5562616555253 69.02313427301124,223.85629476455506 69.15193258784711,208.3313612845959 67.86394944041967,203.94384183792863 64.25759662967175,201.91882717807312 61.166437077801675,201.91882717807312 57.817680896259844,206.30635440314654 58.59047078434378,223.1813020450063 63.09841179754585,226.89375706785358 69.15193258784711,223.85629476455506 68.5079410141334,205.63135131180752 63.48480674158782,201.75007579405792 57.68888258142397,207.48760885349475 58.075277525465935,223.1813020450063 64.51519325887784,226.5562616555253 69.4095292170532,222.00006382528227 69.15193258784711,205.9688529073028 64.64399157417938,201.41257295175456 58.59047078434378,204.78759688627906 57.817680896259844,222.00006382528227 61.424033707007766,226.7250093742041 64.25759662967175,226.89375706785358 69.4095292170532,221.66256696672644 68.5079410141334,204.28134393214714 62.71201685350388,201.5813243855955 58.075277525465935,207.82510990044102 58.719269098713994,223.85629476455506 61.68163033621386,226.5562616555253 65.54557977663353,226.21876614319626 69.79592416109517,221.32507000828627 68.2503443849273,204.28134393214714 61.93922696541995,202.25632987020072 58.075277525465935,208.16261084761936 59.620857301633805,225.03753106482327 64.51519325887784,227.06250473693945 69.4095292170532,224.02504288230557 69.4095292170532,208.50011169584468 68.8943359577097,204.9563478215132 64.51519325887784,201.41257295175456 58.59047078434378,203.77509075345006 58.33287415467203,223.51879845489748 63.613605056423694,226.5562616555253 67.21995786763728,225.88127053133212 69.92472247546539,222.33756058372092 68.8943359577097,205.46260047657415 64.90158820291981,201.5813243855955 59.620857301633805,202.9313349564327 57.817680896259844,205.9688529073028 58.20407583983615,222.00006382528227 64.12879831530154,227.40000000002328 69.79592416109517,225.20627900783438 70.3111174190417,207.65635938965715" stroke="#4DD2FF" stroke-linecap="round" stroke-linejoin="round" stroke-width="0.5"><title>2025-03-24 4.1km</title><desc>1742817301000</desc></polyline><polyline fill="none" points="100.08029009588063,197.31431016151328 97.35042683966458,195.42078394570854 93.33592205308378,199.20783386053517 93.81766262743622,220.03642836783547 99.59854952152818,226.97922550304793 107.14581852219999,221.71953381225467 106.8246581396088,200.47018159367144 102.48899296857417,195.6311758714728 93.1753418603912,198.57665957382414 93.81766262743622,220.66759314225055 98.63506837189198,226.55845088278875 102.16783258598298,226.76883820875082 107.14581852219999,222.14030986186117 106.34291756525636,200.25979038281366 99.75912971235812,195.21039198804647 93.01476167049259,201.31174612790346 93.33592205308378,219.40526331297588 99.11680894717574,227.40000000002328 106.8246581396088,223.19224944349844 107.30639871396124,200.8909639227204 98.47448818106204,195.0 94.13882301095873,198.78705103346147 93.33592205308378,219.82604004710447 100.72261086199433,227.40000000002328 106.8246581396088,222.98186158947647 106.66407794784755,199.20783386053517 98.47448818106204,195.0 93.65708243567497,201.31174612790346 93.97824281919748,223.40263726678677 99.75912971235812,227.40000000002328 107.62755909655243,222.98186158947647 106.18233737256378,199.20783386053517 101.04377124458551,195.0 93.81766262743622,200.47018159367144 94.13882301095873,221.71953381225467 99.43796932976693,226.97922550304793 107.14581852219999,223.40263726678677 106.34291756525636,201.94291920238174 98.47448818106204,195.0 92.21186071261764,201.31174612790346 93.49650224484503,220.4572049153503 97.51100703235716,226.55845088278875 106.50349775515497,223.40263726678677 106.98523833043873,200.25979038281366 101.36493162810802,195.21039198804647 92.69360128697008,200.47018159367144 93.1753418603912,220.24681665701792 99.59854952152818,226.55845088278875 103.29189392644912,226.34806352620944 107.78813928831369,220.8779813380679 107.14581852219999,201.101355041028 104.5765354577452,196.68313503591344 98.79564856365323,195.21039198804647 93.1753418603912,202.36370109580457 93.97824281919748,221.08836950338446 98.47448818106204,226.76883820875082 106.8246581396088,222.98186158947647 106.98523833043873,200.47018159367144 104.09479488432407,196.262351463316 97.51100703235716,195.21039198804647 93.49650224484503,201.101355041028 93.97824281919748,222.14030986186117 98.79564856365323,227.40000000002328 107.30639871396124,222.98186158947647 107.78813928831369,201.101355041028 102.16783258598298,227.40000000002328" stroke="#4DD2FF" stroke-linecap="round" stroke-linejoin="round" stroke-width="0.5"><title>2025-03-23 4.2km</title><desc>1742719228000</desc></polyline><polyline fill="none" points="131.70252539310604,195.00000000011642 128.83754232060164,198.75369874411263 130.34542814828455,223.64638166991062 137.73406870290637,226.21464798168745 143.9164005946368,218.70739413017873 142.55930335074663,202.90251141262706 133.0596226369962,197.37075832753908 128.68675373867154,204.68057004373986 129.89306239970028,223.05370412860066 135.17066279612482,226.41220672428608 142.55930335074663,221.8683482571505 141.8053604364395,201.71713767794427 133.81356555130333,196.77806913945824 128.68675373867154,201.91470004001167 129.44069665204734,222.26346699811984 135.7738171266392,227.20244140271097 139.84510886110365,226.01708920963574 142.71009193267673,221.2756699275924 142.25772618409246,203.2976357571315 133.96435413416475,196.97563223156612 130.79779389686882,197.76588430686388 128.3851765729487,205.07569386367686 130.04385098349303,223.44882251869421 139.24195452965796,226.21464798168745 144.82113209087402,223.05370412860066 142.86088051553816,202.50738695112523 133.0596226369962,197.56832133210264 128.23438799008727,205.27325572934933 128.83754232060164,221.47322939976584 133.36119980271906,226.60976543766446 141.50378327071667,226.8073241218226 142.4085147678852,224.63417698908597 143.162457681261,204.48300809040666 138.9403773639351,198.35857305675745 134.4167198818177,197.37075832753908 129.1391194863245,201.51957528700586 128.83754232060164,223.2512633379083 137.43249153718352,226.8073241218226 142.86088051553816,220.68299133551773 141.8053604364395,201.51957528700586 136.37697145808488,197.17319529433735 131.09937106259167,197.17319529433735 127.1788679100573,208.63180298241787 130.64700531307608,224.63417698908597 136.98012578859925,226.01708920963574 143.9164005946368,220.28787212783936 141.35299468878657,200.3342003263533 132.60725688934326,197.56832133210264 130.04385098349303,198.95126154425088 128.23438799008727,212.97814573033247 131.25015964452177,226.01708920963574 138.6388001991436,226.60976543766446 142.86088051553816,220.09031248022802 140.59905177447945,200.53176289249677 135.47223996091634,195.79025324317627 128.98833090346307,199.7415124522522 129.1391194863245,222.85614488995634 135.0198742132634,227.40000000002328 143.31324626412243,222.4610263244249 141.8053604364395,200.92688793758862 134.86908563040197,195.79025324317627 128.68675373867154,200.7293254295364 128.83754232060164,221.2756699275924 135.7738171266392,227.00488277710974 142.4085147678852,223.44882251869421 141.8053604364395,203.2976357571315" stroke="#4DD2FF" stroke-linecap="round" stroke-linejoin="round" stroke-width="0.5"><title>2025-03-21 4.2km</title><desc>1742565279000</desc></polyline><polyline fill="none" points="173.5971142030321,196.6200272857095 169.26944991014898,195.0 168.0329743977636,196.48502512130653 167.31169701507315,211.335143595119 172.97887644683942,214.0351392068551 177.3065407401882,209.5801421692595 174.83358971588314,196.2150207333616 169.68160841381177,195.94501626555575 166.590419633314,199.4550681238179 169.37248953571543,213.09014165017288 173.08191607287154,214.57513737183763 176.58526335842907,212.01014324621065 176.4822237319313,198.37505360337673 172.0515198125504,195.675011717889 168.54817252745852,196.0800185095286 166.69345925888047,199.59006984892767 168.13601402333006,212.28014296659967 172.36063869064674,215.11513521743473 175.96702560177073,212.8201421687845 176.58526335842907,198.91506102314452 173.18495569890365,196.2150207333616 167.31169701507315,197.16003574227216 167.10561776300892,209.7151423987816 169.26944991014898,214.0351392068551 171.74240093445405,214.7101368632284 175.96702560177073,212.4151427973993 176.37918410543352,198.24005169881275 175.2457482200116,196.35002293722937 170.71200467459857,195.8100140018505 167.72385551966727,197.835045864922 166.79649888491258,206.47513138939394 170.0937669184059,214.440137860307 175.6579067236744,213.36014105187496 176.79134261002764,199.18506461341167 176.37918410543352,197.16003574227216 170.6089650481008,195.94501626555575 167.6208158931695,198.51005548832472 168.96033103158697,212.14514311647508 170.71200467459857,214.440137860307 175.96702560177073,213.9001396157546 176.4822237319313,202.69510402483866 171.33024242985994,210.3901432462735 169.88768766541034,215.38513402052922 170.81504430016503,227.40000000002328 175.7609463497065,225.91502512054285 176.89438223652542,216.1951299518696 175.2457482200116,197.43003985099494 170.19680654397234,195.270004747028 166.590419633314,198.24005169881275 167.31169701507315,209.9851427973481 172.0515198125504,214.84513633459574 176.37918410543352,212.01014324621065 176.89438223652542,199.0500628281734 171.63936130842194,195.13500238372944 167.72385551966727,197.43003985099494 167.41473664157093,211.47014356497675 171.4332820563577,214.57513737183763 176.27614447986707,211.60514351533493 176.68830298352987,198.37505360337673 171.94848018651828,195.13500238372944 168.44513290189207,197.29503780655796 168.23905364936218,213.36014105187496 170.81504430016503,215.5201333926525 174.0092727066949,215.11513521743473 175.6579067236744,212.68514239799697 177.40958036622033,199.99507490487304" stroke="#4DD2FF" stroke-linecap="round" stroke-linejoin="round" stroke-width="0.5"><title>2025-03-10 4.0km</title><desc>1741591515000</desc></polyline><polyline fill="none" points="36.480894945561886,242.0308272264665 27.920739299617708,236.63077855936717 21.26284046471119,241.40774574666284 21.421361865475774,263.63081446127035 26.33552529104054,267.99231007078197 34.895680936053395,262.8000518582994 34.42011673375964,243.06929574592505 29.98151751048863,237.4615566271823 20.945797662250698,241.2000518591376 20.787276261486113,263.4231238560751 24.908832683227956,267.1615500457119 35.0542023377493,263.4231238560751 35.529766540043056,243.27698935789522 29.0303891049698,237.04616765503306 21.421361865475774,241.2000518591376 21.896926067769527,263.63081446127035 27.128132295794785,267.7846201102948 32.67638132441789,266.53847970464267 35.37124513834715,262.3846703725867 35.37124513834715,244.31545695639215 29.188910506665707,237.2538621564163 21.104319063946605,241.82313343079295 21.421361865475774,261.5539070335217 27.28665369655937,267.99231007078197 35.21272373851389,263.0077425552299 34.578638134524226,240.9923579399474 25.859961088746786,237.04616765503306 21.421361865475774,240.9923579399474 21.896926067769527,264.46157657250296 28.079260700382292,267.7846201102948 35.21272373851389,262.8000518582994 35.0542023377493,243.90007000905462 29.66447470895946,237.04616765503306 23.799182877875865,237.66925106791314 20.62875486165285,241.40774574666284 20.945797662250698,262.59236113051884 26.9696108950302,267.5769301194232 35.0542023377493,262.8000518582994 33.944552530534565,240.5769700104138 28.71334630344063,235.79999999993015 20.470233459956944,241.2000518591376 20.945797662250698,262.59236113051884 29.0303891049698,267.5769301194232 34.73715953622013,262.59236113051884 34.26159533392638,240.9923579399474 28.554824902676046,236.00769468571525 19.519105054438114,242.23852099187206 21.26284046471119,264.0461955778301 30.61560311447829,267.5769301194232 34.895680936053395,263.21543322107755 34.10307393223047,239.95388788660057 25.859961088746786,236.8384731222177 20.945797662250698,240.9923579399474 20.945797662250698,262.59236113051884 29.0303891049698,267.7846201102948 35.21272373851389,262.8000518582994 35.529766540043056,242.23852099187206 28.396303502842784,236.8384731222177 20.62875486165285,242.86160210357048 21.104319063946605,264.66926702391356 26.33552529104054,268.19999999995343 34.42011673375964,262.8000518582994 36.32237354386598,242.0308272264665" stroke="#4DD2FF" stroke-linecap="round" stroke-linejoin="round" stroke-width="0.5"><title>2025-03-09 4.1km</title><desc>1741514669000</desc></polyline><polyline fill="none" points="58.32579407840967,254.66309869848192 63.576551797799766,265.5370126615744 67.98041311092675,265.75892845366616 73.23117083031684,260.4329404005548 70.52110232971609,236.02192018541973 58.83393192104995,235.80000000004657 54.43007060792297,240.9041559670586 61.035862578079104,262.652104384033 71.36799873691052,264.64934916666243 74.41682579927146,255.10693346254993 70.69048161059618,240.9041559670586 73.73930867388844,238.9068796109641 56.29324270226061,246.00829458853696 57.14013910852373,243.34526790643577 63.576551797799766,247.33980615925975 61.035862578079104,252.22200515249278 62.72965539060533,265.5370126615744 70.18234376702458,265.31509683735203 73.90868795569986,259.5452738889726 67.30289598554373,237.79728048783727 57.14013910852373,236.6876805445645 53.58317420165986,242.23567206249572 59.00331120286137,254.8850160971051 58.66455264016986,262.20827185024973 67.13351670466363,267.97808456851635 71.87613658048213,259.32335717917886 69.16606807895005,240.46031700621825 60.019586890004575,236.02192018541973 54.091312046162784,240.9041559670586 57.98703551571816,263.98360120086 68.14979239180684,268.19999999995343 72.38427442405373,261.7644391844515 71.36799873691052,237.35344060859643 60.18896617181599,236.6876805445645 57.478897671215236,246.8959691002965" stroke="#4DD2FF" stroke-linecap="round" stroke-linejoin="round" stroke-width="0.5"><title>2025-03-05 1.9km</title><desc>1741161630000</desc></polyline></svg>