<?xml version="1.0" encoding="utf-8" ?>
<svg baseProfile="full" height="200mm" version="1.1" viewBox="0,0,200,200" width="200mm" xmlns="http://www.w3.org/2000/svg" xmlns:ev="http://www.w3.org/2001/xml-events" xmlns:xlink="http://www.w3.org/1999/xlink"><defs /><rect fill="#1a1a1a" height="200" width="200" x="0" y="0" /><text alignment-baseline="middle" fill="#e1ed5e" style="dominant-baseline: central; font-size:9.0px; font-family:Arial;" text-anchor="middle" x="100.0" y="100.0">2025</text><line stroke="#e1ed5e" stroke-width="0.3" x1="100.0" x2="100.0" y1="15.0" y2="10.0" /><path d="M 100.0 14.0 a86.0,86.0 0 0,1 42.46469731375804,11.215312516191453" fill="none" id="id1" stroke="none" /><text fill="#e1ed5e" style="font-size:6.75px; font-family:Arial;" text-anchor="middle"><textPath startOffset="22.20632615414155" xlink:href="#id1">January</textPath></text><line stroke="#e1ed5e" stroke-width="0.3" x1="143.23703022742887" x2="145.7803849466894" y1="26.81831364943548" y2="22.513508569990506" /><path d="M 143.74570117128098 25.957352633546492 a86.0,86.0 0 0,1 28.547481713284135,27.462654790039103" fill="none" id="id2" stroke="none" /><text fill="#e1ed5e" style="font-size:6.75px; font-family:Arial;" text-anchor="middle"><textPath startOffset="19.985693538727396" xlink:href="#id2">February</textPath></text><line stroke="#e1ed5e" stroke-width="0.3" x1="172.23445277983987" x2="176.4835382374775" y1="55.19839476539836" y2="52.563006222186495" /><path d="M 173.08426987136738 54.67131705675599 a86.0,86.0 0 0,1 12.851231095245387,41.99856678651699" fill="none" id="id3" stroke="none" /><text fill="#e1ed5e" style="font-size:6.75px; font-family:Arial;" text-anchor="middle"><textPath startOffset="22.20632615414155" xlink:href="#id3">March</textPath></text><path d="M 118.56541770881063 90.18545643968196 l 1.0688943247455502 -0.5650672705636645 a22.209064141282635,22.209064141282635 0 0,0 0.17575890279157594,0.33951025725815986 l -1.0784626606972427 0.5465842910451598" fill="#ff0801" stroke="none" /><path d="M 119.196687751892 91.48605970444005 l 2.4050161794326184 -1.0666508944766726 a23.630940317456965,23.630940317456965 0 0,0 0.16171360279865318,0.3732572913106387 l -2.423020492073952 1.025094458579431" fill="#ff1d02" stroke="none" /><path d="M 119.34039704204932 91.81776055985345 l 2.3236739329359453 -0.9830644354803956 a23.52306881216355,23.52306881216355 0 0,0 0.15455587399820128,0.37426930814860265 l -2.340251493820344 0.9429205568784899" fill="#ff1b02" stroke="none" /><path d="M 120.53481517161879 95.60439243477599 l 2.590450250477212 -0.5545023231604992 a23.649132938640083,23.649132938640083 0 0,0 0.08178174690494672,0.39879684210476973 l -2.5996112932971553 0.5098298248923177" fill="#ff1d02" stroke="none" /><path d="M 120.67395015179393 96.31383870115 l 2.6440835249870283 -0.4714395792372711 a23.685783491642475,23.685783491642475 0 0,0 0.06811144635692006,0.40199761196645206 l -2.6518068328641715 0.4258561789549811" fill="#ff1d03" stroke="none" /><path d="M 120.73433829027371 96.67025291283417 l 2.572628407222125 -0.41314084034821913 a23.6055905809643,23.6055905809643 0 0,0 0.06097448432867078,0.4017456679117022 l -2.579358784990095 0.36879606004443477" fill="#ff1c02" stroke="none" /><path d="M 120.78858239683441 97.02765380044208 l 2.4351972444029393 -0.3481838798049637 a23.45996293331906,23.45996293331906 0 0,0 0.05371661332327817,0.4002511626119558 l -2.440829856784054 0.30621437512834354" fill="#ff1a02" stroke="none" /><path d="M 120.94382443527127 98.46500227214037 l 0.9472444411715065 -0.06942466832739652 a21.949785141967745,21.949785141967745 0 0,0 0.024374096051940446,0.37705647769325085 l -0.9482991282278624 0.053109126381110434" fill="#ff0400" stroke="none" /><path d="M 120.96714384426684 98.82574320788733 l 5.3801571502295 -0.30131362302920456 a26.388588021048612,26.388588021048612 0 0,0 0.021495882135853312,0.45374409744295274 l -5.38454664059885 0.20865841896325205" fill="#ff4406" stroke="none" /><line stroke="#e1ed5e" stroke-width="0.3" x1="184.98032266829074" x2="189.97916517819016" y1="98.17113171792111" y2="98.06355123074" /><path d="M 185.9800911702706 98.14961562048488 a86.0,86.0 0 0,1 -9.607161424134198,41.387399972396054" fill="none" id="id4" stroke="none" /><text fill="#e1ed5e" style="font-size:6.75px; font-family:Arial;" text-anchor="middle"><textPath startOffset="21.466115282336823" xlink:href="#id4">April</textPath></text><path d="M 120.99980553446 99.90962569577887 l 2.534333503997654 -0.010906702288849372 a23.53435697281181,23.53435697281181 0 0,0 -0.0017434506158289045,0.4051165229639282 l -2.5341457560923217 -0.032719298878763556" fill="#ff1b02" stroke="none" /><path d="M 120.9904718944345 100.63252640178507 l 1.0585730902419954 0.03189901738106259 a22.059053603314943,22.059053603314943 0 0,0 -0.014703795322256668,0.3794396224216681 l -1.0578671620685356 -0.0501158868167369" fill="#ff0601" stroke="none" /><path d="M 120.9764740272857 100.99374915477107 l 22.861517129149288 1.083052056047383 a43.88715725472464,43.88715725472464 0 0,0 -0.04224379034718223,0.7542912544221495 l -22.839486987914576 -1.4764150268049558" fill="#dbff1b" stroke="none" /><path d="M 120.95626037817324 101.35467743843564 l 21.70430157687164 1.4030331334217812 a42.74960250012106,42.74960250012106 0 0,0 -0.05379007684689677,0.7339228621608797 l -21.676934941360408 -1.776429132079431" fill="#e8ff1a" stroke="none" /><path d="M 120.92983693683757 101.71520430193887 l 1.234835523371629 0.10119501686829561 a22.238975060773807,22.238975060773807 0 0,0 -0.034550263797228496,0.3812592819753693 l -1.2329106632973252 -0.12243568739223545" fill="#ff0901" stroke="none" /><path d="M 120.8583938346157 102.4346265915055 l 2.6054900539461583 0.30411715396384986 a23.62317854225507,23.62317854225507 0 0,0 -0.050619399104462885,0.403486415733613 l -2.5998691455948473 -0.34892132398485776" fill="#ff1d02" stroke="none" /><path d="M 120.5718875245553 104.21870165774334 l 20.509128684676845 4.205831627148564 a41.935935113592556,41.935935113592556 0 0,0 -0.1511010877313982,0.7058939777388189 l -20.433693558221005 -4.558239424303552" fill="#f2ff19" stroke="none" /><path d="M 120.32669344350535 105.2749913415812 l 2.436609881177792 0.6323259639718137 a23.51732076576787,23.51732076576787 0 0,0 -0.10505738572972155,0.3909576146070725 l -2.4253644191062933 -0.6741745117544344" fill="#ff1b02" stroke="none" /><path d="M 120.13307415673323 105.97154293290107 l 2.483848018181318 0.7367183453407439 a23.590801979655115,23.590801979655115 0 0,0 -0.1188226316455636,0.3883192352491575 l -2.4707986140296216 -0.7793645531419585" fill="#ff1c02" stroke="none" /><path d="M 120.02730092923936 106.31721596034902 l 2.614579637471329 0.8247174331576166 a23.741566254029582,23.741566254029582 0 0,0 -0.12629128207553705,0.3886845997326393 l -2.599996104379545 -0.8696009328680512" fill="#ff1e03" stroke="none" /><path d="M 119.54520255179757 107.68017299344265 l 1.9875971413665205 0.7810146682548978 a23.135538880095062,23.135538880095062 0 0,0 -0.1488357533546332,0.36939813389490667 l -1.9738587737544948 -0.815112169992618" fill="#ff1602" stroke="none" /><path d="M 119.26925614724726 108.34839909993367 l 1.8445454357357849 0.7991487236357709 a23.010220521978223,23.010220521978223 0 0,0 -0.1605882361807301,0.3620840785313238 l -1.830516114823782 -0.8307811386597824" fill="#ff1402" stroke="none" /><path d="M 119.12269723197855 108.67885076344098 l 1.3482151945530163 0.611888497139508 a22.48057142473954,22.48057142473954 0 0,0 -0.16295779041859595,0.3509965831560497 l -1.3374827872945891 -0.6350051475743883" fill="#ff0c01" stroke="none" /><line stroke="#e1ed5e" stroke-width="0.3" x1="174.80103733775053" x2="179.2010983576182" y1="140.37084112569926" y2="142.7455964860345" /><path d="M 175.68104954172406 140.8457921977663 a86.0,86.0 0 0,1 -30.038265399797805,32.042727171017184" fill="none" id="id5" stroke="none" /><text fill="#e1ed5e" style="font-size:6.75px; font-family:Arial;" text-anchor="middle"><textPath startOffset="22.206326154141568" xlink:href="#id5">May</textPath></text><path d="M 118.48025628344425 109.97397251340804 l 2.357624079830605 1.2724324494485217 a23.679081118631288,23.679081118631288 0 0,0 -0.19667573093336355,0.3570235799718356 l -2.335371939445732 -1.3128265478181622" fill="#ff1d03" stroke="none" /><path d="M 118.30583269289576 110.29060199501025 l 2.8651424301724893 1.6106363967460418 a24.28682076598311,24.28682076598311 0 0,0 -0.20799696355080946,0.3626602380670694 l -2.8369934704693 -1.6597164806714262" fill="#ff2603" stroke="none" /><path d="M 118.12598468904814 110.60418214915192 l 1.1242338193556314 0.657706624119957 a22.302489801877243,22.302489801877243 0 0,0 -0.1967070300406153,0.32969229691529944 l -1.1127459136167888 -0.6769610149213605" fill="#ff0a01" stroke="none" /><path d="M 117.94076556474637 110.91462005526583 l 3.338205231751262 2.0308632672097855 a24.90743135312618,24.90743135312618 0 0,0 -0.2259879241815893,0.3643644899022844 l -3.30275266790171 -2.0880240884773436" fill="#ff2f04" stroke="none" /><path d="M 116.71984013943494 112.70617746262583 l 50.159520418304794 38.11853238787748 a84.0,84.0 0 0,0 -0.8847727311277263,1.1436880235469893 l -49.495940869959 -38.97629840553772" fill="#4dd2ff" stroke="none" /><path d="M 116.498646956653 112.99209946851258 l 43.65448696764625 34.37636058403201 a76.5648126012478,76.5648126012478 0 0,0 -0.8242825093342349,1.02841916962425 l -43.05628654625716 -35.12270758723451" fill="#44ffe6" stroke="none" /><path d="M 116.27256486870786 113.27417163493432 l 1.8527846244261161 1.5113893418544122 a23.3910475961764,23.3910475961764 0 0,0 -0.2571945931732213,0.30980745586630787 l -1.8264940313593516 -1.5430580548344905" fill="#ff1902" stroke="none" /><path d="M 115.56566222782051 114.09645910891815 l 1.1796938365049672 1.0683455470087955 a22.59155262423249,22.59155262423249 0 0,0 -0.2635181887742582,0.28599694844008666 l -1.161129239734987 -1.0884937502502168" fill="#ff0e01" stroke="none" /><path d="M 114.55890576462653 115.13401014063108 l 0.44591389227714545 0.46352833630994433 a21.643193375189778,21.643193375189778 0 0,0 -0.270709110905363,0.255972361171775 l -0.43786894698097484 -0.4711353342276408" fill="#ff0000" stroke="none" /><path d="M 113.20401910651253 116.32954008644616 l 1.1344941033331655 1.403039997804788 a22.804327604937026,22.804327604937026 0 0,0 -0.3073616220093476,0.24418666153652613 l -1.110174988606467 -1.4223605733464402" fill="#ff1101" stroke="none" /><path d="M 112.92097659922987 116.55440617244103 l 1.361245709359095 1.7440333708650315 a23.212383845524865,23.212383845524865 0 0,0 -0.31709362230775257,0.24313386801987333 l -1.3310233585578488 -1.7672065807122763" fill="#ff1702" stroke="none" /><path d="M 111.7513745106137 117.40417183066458 l 2.0653234780750953 3.0588119428803364 a24.690784682285813,24.690784682285813 0 0,0 -0.3542837206064977,0.23479993151717332 l -2.0123650587286335 -3.093909895488828" fill="#ff2c04" stroke="none" /><path d="M 111.45004920935366 117.60387380957326 l 2.970454402840438 4.566923993826758 a26.447971560566803,26.447971560566803 0 0,0 -0.3837703920690452,0.24494042168611876 l -2.8914022087244624 -4.617378844336685" fill="#ff4406" stroke="none" /><path d="M 111.1453310114006 117.79835938074945 l 0.9023579314862283 1.4410061700485386 a22.70022016769419,22.70022016769419 0 0,0 -0.33295904656028125,0.20453064101251378 l -0.8774196849936383 -1.4563252778894304" fill="#ff0f01" stroke="none" /><line stroke="#e1ed5e" stroke-width="0.3" x1="143.8653032363475" x2="146.44561519142675" y1="172.8068346515853" y2="177.08958963109032" /><path d="M 144.38136562736335 173.6633856474863 a86.0,86.0 0 0,1 -40.68145358897372,12.25698825130547" fill="none" id="id6" stroke="none" /><text fill="#e1ed5e" style="font-size:6.75px; font-family:Arial;" text-anchor="middle"><textPath startOffset="21.466115282336833" xlink:href="#id6">June</textPath></text><path d="M 110.5260780823613 118.17145234162733 l 8.179757141420826 14.120935252274952 a37.318984015298454,37.318984015298454 0 0,0 -0.5586318401170062,0.3172057382138876 l -7.9354765343826195 -14.259644156283468" fill="#ffd413" stroke="none" /><path d="M 109.57404056367764 118.69057910512821 l 0.7701067219905514 1.5034133719218727 a22.68917616906246,22.68917616906246 0 0,0 -0.34913898175856994,0.17506553346011428 l -0.744113832549221 -1.5164467462912892" fill="#ff0f01" stroke="none" /><path d="M 109.2508944713604 118.85261126421891 l 1.3671262176165986 2.7860980589109974 a24.103445905564055,24.103445905564055 0 0,0 -0.37404798467452305,0.17956576350236597 l -1.3189655649418428 -2.8092180989129236" fill="#ff2303" stroke="none" /><path d="M 108.59647513512805 119.15986991738527 l 2.1788677320360637 4.856272094873851 a26.322672566780568,26.322672566780568 0 0,0 -0.4149948892673601,0.18192156387921452 l -2.0949521681109498 -4.89305821204752" fill="#ff4306" stroke="none" /><path d="M 108.2653958097858 119.30500536409082 l 0.8577773477901007 2.0034607756688456 a23.17936620558029,23.17936620558029 0 0,0 -0.36814191334862223,0.15388334963691733 l -0.8231639749440173 -2.0179291683257365" fill="#ff1602" stroke="none" /><path d="M 107.93186726928326 119.44442032107085 l 0.47920178011058456 1.1747297975042321 a22.26870975530477,22.26870975530477 0 0,0 -0.35617096526417913,0.14172777760961142 l -0.4589097388045392 -1.1828044195199126" fill="#ff0901" stroke="none" /><path d="M 107.59598834532513 119.57807347666477 l 0.8526040496905901 2.1975211088386475 a23.357123817142458,23.357123817142458 0 0,0 -0.3760828152364432,0.14220234059513107 l -0.8146510136938722 -2.2118716995404095" fill="#ff1902" stroke="none" /><path d="M 107.2578585660854 119.70592522655815 l 0.7973711317080925 2.1649548218918575 a23.307125939890202,23.307125939890202 0 0,0 -0.377664716918283,0.13541713081987306 l -0.7599868541600746 -2.1783594937516906" fill="#ff1802" stroke="none" /><path d="M 105.88484417918355 120.15858648285463 l 0.5193901724243364 1.7791756910398548 a22.85343796518743,22.85343796518743 0 0,0 -0.37857136998779084,0.10698805060575603 l -0.4886876343319398 -1.7878525349841299" fill="#ff1101" stroke="none" /><path d="M 105.18746579009965 120.34920634021253 l 0.2379212775308051 0.9333091272508064 a21.96315754750277,21.96315754750277 0 0,0 -0.36714734827229517,0.09023588555472643 l -0.22182064451529881 -0.9372662711195628" fill="#ff0500" stroke="none" /><path d="M 104.83641907484287 120.43548508189849 l 0.47286531314337843 1.998013799662869 a23.053207429369337,23.053207429369337 0 0,0 -0.38694243384378413,0.08806683816643816 l -0.4384027299067323 -2.0058573714069916" fill="#ff1402" stroke="none" /><path d="M 104.13013068566511 120.58985236759428 l 0.7199834546859661 3.5893181517347714 a24.660816981138808,24.660816981138808 0 0,0 -0.4169232704487777,0.0799043370672551 l -0.658092569665484 -3.601179687150495" fill="#ff2b04" stroke="none" /><path d="M 103.7750983002368 120.6578951692458 l 0.4236949333371052 2.3185212199823932 a23.35691706346324,23.35691706346324 0 0,0 -0.3961233350187838,0.06887111933031476 l -0.38372262684627145 -2.325470917833714" fill="#ff1902" stroke="none" /><path d="M 101.98527174616119 120.90594882070398 l 0.26067112194696407 2.7450031185888077 a23.757352272539613,23.757352272539613 0 0,0 -0.40744501982719233,0.03515607074992207 l -0.21338178437823002 -2.7490834416173935" fill="#ff1e03" stroke="none" /><path d="M 101.62511606390274 120.93702456842531 l 0.31576302322615313 4.068102163244579 a25.080338404768916,25.080338404768916 0 0,0 -0.4307097143345728,0.029704263629447367 l -0.24569054811265 -4.072934771390312" fill="#ff3104" stroke="none" /><line stroke="#e1ed5e" stroke-width="0.3" x1="102.19456741930631" x2="102.32365962044197" y1="184.97166512339345" y2="189.96999836594603" /><path d="M 102.22038585953345 185.97133177190398 a86.0,86.0 0 0,1 -42.740103519485714,-10.115201625700543" fill="none" id="id7" stroke="none" /><text fill="#e1ed5e" style="font-size:6.75px; font-family:Arial;" text-anchor="middle"><textPath startOffset="22.20632615414155" xlink:href="#id7">July</textPath></text><path d="M 100.18074693466247 120.99922214144158 l 0.03238809464407828 3.762856589734916 a24.7629959744313,24.7629959744313 0 0,0 -0.42627005861306483,0.0 l 0.03238809464407569 -3.762856589734916" fill="#ff2d04" stroke="none" /><path d="M 99.81925306533755 120.99922214144158 l -0.018533570841399637 2.153234697448803 a23.15331445811929,23.15331445811929 0 0,0 -0.3985019598931053,-0.006860572632305163 l 0.05559522062717286 -2.1525966475373384" fill="#ff1602" stroke="none" /><path d="M 99.45781275523022 120.99299961872073 l -0.027500221187923793 1.0647836858610615 a22.06513875145037,22.06513875145037 0 0,0 -0.3796040746844855,-0.013074331868595536 l 0.04582464754705233 -1.0641525555663722" fill="#ff0601" stroke="none" /><path d="M 99.09653310690486 120.98055641714683 l -0.08186436904014474 1.9010768699191525 a22.90283867951541,22.90283867951541 0 0,0 -0.3937237157383865,-0.020351018831136873 l 0.11457615319202015 -1.8993860443258137" fill="#ff1202" stroke="none" /><line stroke="#e1ed5e" stroke-width="0.3" x1="58.666819895761336" x2="56.23545636021788" y1="174.27360380694188" y2="178.64263932499728" /><path d="M 58.180547188652646 175.14741091055294 a86.0,86.0 0 0,1 -31.652253787137756,-30.449443065178592" fill="none" id="id8" stroke="none" /><text fill="#e1ed5e" style="font-size:6.75px; font-family:Arial;" text-anchor="middle"><textPath startOffset="22.20632615414155" xlink:href="#id8">August</textPath></text><line stroke="#e1ed5e" stroke-width="0.3" x1="26.63291911575756" x2="22.317208475507996" y1="142.92168965132927" y2="145.44649492493687" /><path d="M 25.769776987707644 143.4266507060508 a86.0,86.0 0 0,1 -11.730757126820373,-40.83630448921669" fill="none" id="id9" stroke="none" /><text fill="#e1ed5e" style="font-size:6.75px; font-family:Arial;" text-anchor="middle"><textPath startOffset="21.46611528233685" xlink:href="#id9">September</textPath></text><line stroke="#e1ed5e" stroke-width="0.3" x1="15.007084014347285" x2="10.007500721073583" y1="101.09737516637583" y2="101.16192664675087" /><path d="M 14.007167355692545 101.11028546245083 a86.0,86.0 0 0,1 10.666146001902534,-42.60595125391555" fill="none" id="id10" stroke="none" /><text fill="#e1ed5e" style="font-size:6.75px; font-family:Arial;" text-anchor="middle"><textPath startOffset="22.20632615414155" xlink:href="#id10">October</textPath></text><line stroke="#e1ed5e" stroke-width="0.3" x1="26.266209847984243" x2="21.928928074336255" y1="57.711370442889674" y2="55.22380399835377" /><path d="M 25.398753493254645 57.213857153982495 a86.0,86.0 0 0,1 29.58750427330803,-30.492523968695096" fill="none" id="id11" stroke="none" /><text fill="#e1ed5e" style="font-size:6.75px; font-family:Arial;" text-anchor="middle"><textPath startOffset="21.46611528233685" xlink:href="#id11">November</textPath></text><line stroke="#e1ed5e" stroke-width="0.3" x1="56.762969772571076" x2="54.21961505331055" y1="26.818313649435495" y2="22.513508569990535" /><path d="M 56.25429882871897 25.957352633546506 a86.0,86.0 0 0,1 42.265352541879196,-11.944610805530505" fill="none" id="id12" stroke="none" /><text fill="#e1ed5e" style="font-size:6.75px; font-family:Arial;" text-anchor="middle"><textPath startOffset="22.20632615414155" xlink:href="#id12">December</textPath></text></svg>