<?xml version="1.0" encoding="utf-8" ?>
<svg baseProfile="full" height="200mm" version="1.1" viewBox="0,0,200,200" width="200mm" xmlns="http://www.w3.org/2000/svg" xmlns:ev="http://www.w3.org/2001/xml-events" xmlns:xlink="http://www.w3.org/1999/xlink"><defs /><rect fill="#1a1a1a" height="200" width="200" x="0" y="0" /><text alignment-baseline="middle" fill="#e1ed5e" style="dominant-baseline: central; font-size:9.0px; font-family:Arial;" text-anchor="middle" x="100.0" y="100.0">2025</text><line stroke="#e1ed5e" stroke-width="0.3" x1="100.0" x2="100.0" y1="15.0" y2="10.0" /><path d="M 100.0 14.0 a86.0,86.0 0 0,1 42.46469731375804,11.215312516191453" fill="none" id="id1" stroke="none" /><text fill="#e1ed5e" style="font-size:6.75px; font-family:Arial;" text-anchor="middle"><textPath startOffset="22.20632615414155" xlink:href="#id1">January</textPath></text><line stroke="#e1ed5e" stroke-width="0.3" x1="143.23703022742887" x2="145.7803849466894" y1="26.81831364943548" y2="22.513508569990506" /><path d="M 143.74570117128098 25.957352633546492 a86.0,86.0 0 0,1 28.547481713284135,27.462654790039103" fill="none" id="id2" stroke="none" /><text fill="#e1ed5e" style="font-size:6.75px; font-family:Arial;" text-anchor="middle"><textPath startOffset="19.985693538727396" xlink:href="#id2">February</textPath></text><line stroke="#e1ed5e" stroke-width="0.3" x1="172.23445277983987" x2="176.4835382374775" y1="55.19839476539836" y2="52.563006222186495" /><path d="M 173.08426987136738 54.67131705675599 a86.0,86.0 0 0,1 12.851231095245387,41.99856678651699" fill="none" id="id3" stroke="none" /><text fill="#e1ed5e" style="font-size:6.75px; font-family:Arial;" text-anchor="middle"><textPath startOffset="22.20632615414155" xlink:href="#id3">March</textPath></text><path d="M 118.56541770881063 90.18545643968196 l 2.942276391493248 -1.5554241904884047 a24.32811279500786,24.32811279500786 0 0,0 0.19252870740699918,0.37190418205355463 l -2.9686145320603634 1.5045472861745053" fill="#ff0b01" stroke="none" /><path d="M 119.196687751892 91.48605970444005 l 6.620132750343085 -2.936101045845628 a28.24201953764148,28.24201953764148 0 0,0 0.19326859906493327,0.44609057329702645 l -6.6696920592507 2.8217113279619985" fill="#ff4406" stroke="none" /><path d="M 119.34039704204932 91.81776055985345 l 6.396227200507594 -2.706017997166508 a27.945088610054032,27.945088610054032 0 0,0 0.18361029458242828,0.4446268921692767 l -6.44185918197622 2.595516534543928" fill="#ff4006" stroke="none" /><path d="M 120.53481517161879 95.60439243477599 l 7.130565144623848 -1.5263427419279005 a28.29209719131338,28.29209719131338 0 0,0 0.09783771514640553,0.4770914454111824 l -7.155782155685251 1.4033756403533062" fill="#ff4506" stroke="none" /><path d="M 120.67395015179393 96.31383870115 l 7.2781979963805155 -1.297701289915194 a28.39298280211478,28.39298280211478 0 0,0 0.08164758939562064,0.48188869441798626 l -7.2994574472963585 1.1722268071813697" fill="#ff4606" stroke="none" /><path d="M 120.73433829027371 96.67025291283417 l 7.081508107414091 -1.1372261156009145 a28.172240954776704,28.172240954776704 0 0,0 0.07277038287641083,0.4794659011019681 l -7.100034383729802 1.0151611021068643" fill="#ff4306" stroke="none" /><path d="M 120.78858239683441 97.02765380044208 l 6.703210219159696 -0.9584232844463245 a27.77138113197122,27.77138113197122 0 0,0 0.06358852935785211,0.473808403576988 l -6.718714747575384 0.8428965388046722" fill="#ff3d05" stroke="none" /><path d="M 120.94382443527127 98.46500227214037 l 2.607418611653297 -0.1911008019016032 a23.614412234687453,23.614412234687453 0 0,0 0.026222577956714812,0.40565167460265356 l -2.610321780614427 0.14619006304591436" fill="#ff0000" stroke="none" /><path d="M 120.96714384426684 98.82574320788733 l 14.809611202129014 -0.8294065549325149 a35.83281831586938,35.83281831586938 0 0,0 0.029189058486152605,0.6161348910598277 l -14.821693868848662 0.5743605572496876" fill="#ffad10" stroke="none" /><line stroke="#e1ed5e" stroke-width="0.3" x1="184.98032266829074" x2="189.97916517819016" y1="98.17113171792111" y2="98.06355123074" /><path d="M 185.9800911702706 98.14961562048488 a86.0,86.0 0 0,1 -9.607161424134198,41.387399972396054" fill="none" id="id4" stroke="none" /><text fill="#e1ed5e" style="font-size:6.75px; font-family:Arial;" text-anchor="middle"><textPath startOffset="21.466115282336823" xlink:href="#id4">April</textPath></text><path d="M 120.99980553446 99.90962569577887 l 6.976096199928571 -0.03002217516793906 a27.97616080101797,27.97616080101797 0 0,0 -0.002072504247021105,0.48157699837226703 l -6.975579398392047 -0.09006430140801266" fill="#ff4006" stroke="none" /><path d="M 120.9904718944345 100.63252640178507 l 2.9138657956954783 0.08780636549312347 a23.915188473005674,23.915188473005674 0 0,0 -0.015941030051598578,0.41136715325704837 l -2.9119226327926766 -0.137950765764178" fill="#ff0500" stroke="none" /><path d="M 120.9764740272857 100.99374915477107 l 62.92942208185712 2.9812474643131925 a84.0,84.0 0 0,0 -0.0808545964498828,1.4437131346583068 l -62.86878113451971 -4.064032315306923" fill="#4dd2ff" stroke="none" /><path d="M 120.95626037817324 101.35467743843564 l 59.74402955005013 3.862038715503886 a80.8687264764945,80.8687264764945 0 0,0 -0.10175381190197023,1.3883499196224358 l -59.668699179483816 -4.889861771623092" fill="#49f0ff" stroke="none" /><path d="M 120.92983693683757 101.71520430193887 l 3.399052014480889 0.2785529889862825 a24.410446651806737,24.410446651806737 0 0,0 -0.03792384176533854,0.4184864337377456 l -3.3937535764384754 -0.3370208112725986" fill="#ff0c01" stroke="none" /><line stroke="#e1ed5e" stroke-width="0.3" x1="174.80103733775053" x2="179.2010983576182" y1="140.37084112569926" y2="142.7455964860345" /><path d="M 175.68104954172406 140.8457921977663 a86.0,86.0 0 0,1 -30.038265399797805,32.042727171017184" fill="none" id="id5" stroke="none" /><text fill="#e1ed5e" style="font-size:6.75px; font-family:Arial;" text-anchor="middle"><textPath startOffset="22.206326154141568" xlink:href="#id5">May</textPath></text><line stroke="#e1ed5e" stroke-width="0.3" x1="143.8653032363475" x2="146.44561519142675" y1="172.8068346515853" y2="177.08958963109032" /><path d="M 144.38136562736335 173.6633856474863 a86.0,86.0 0 0,1 -40.68145358897372,12.25698825130547" fill="none" id="id6" stroke="none" /><text fill="#e1ed5e" style="font-size:6.75px; font-family:Arial;" text-anchor="middle"><textPath startOffset="21.466115282336833" xlink:href="#id6">June</textPath></text><line stroke="#e1ed5e" stroke-width="0.3" x1="102.19456741930631" x2="102.32365962044197" y1="184.97166512339345" y2="189.96999836594603" /><path d="M 102.22038585953345 185.97133177190398 a86.0,86.0 0 0,1 -42.740103519485714,-10.115201625700543" fill="none" id="id7" stroke="none" /><text fill="#e1ed5e" style="font-size:6.75px; font-family:Arial;" text-anchor="middle"><textPath startOffset="22.20632615414155" xlink:href="#id7">July</textPath></text><line stroke="#e1ed5e" stroke-width="0.3" x1="58.666819895761336" x2="56.23545636021788" y1="174.27360380694188" y2="178.64263932499728" /><path d="M 58.180547188652646 175.14741091055294 a86.0,86.0 0 0,1 -31.652253787137756,-30.449443065178592" fill="none" id="id8" stroke="none" /><text fill="#e1ed5e" style="font-size:6.75px; font-family:Arial;" text-anchor="middle"><textPath startOffset="22.20632615414155" xlink:href="#id8">August</textPath></text><line stroke="#e1ed5e" stroke-width="0.3" x1="26.63291911575756" x2="22.317208475507996" y1="142.92168965132927" y2="145.44649492493687" /><path d="M 25.769776987707644 143.4266507060508 a86.0,86.0 0 0,1 -11.730757126820373,-40.83630448921669" fill="none" id="id9" stroke="none" /><text fill="#e1ed5e" style="font-size:6.75px; font-family:Arial;" text-anchor="middle"><textPath startOffset="21.46611528233685" xlink:href="#id9">September</textPath></text><line stroke="#e1ed5e" stroke-width="0.3" x1="15.007084014347285" x2="10.007500721073583" y1="101.09737516637583" y2="101.16192664675087" /><path d="M 14.007167355692545 101.11028546245083 a86.0,86.0 0 0,1 10.666146001902534,-42.60595125391555" fill="none" id="id10" stroke="none" /><text fill="#e1ed5e" style="font-size:6.75px; font-family:Arial;" text-anchor="middle"><textPath startOffset="22.20632615414155" xlink:href="#id10">October</textPath></text><line stroke="#e1ed5e" stroke-width="0.3" x1="26.266209847984243" x2="21.928928074336255" y1="57.711370442889674" y2="55.22380399835377" /><path d="M 25.398753493254645 57.213857153982495 a86.0,86.0 0 0,1 29.58750427330803,-30.492523968695096" fill="none" id="id11" stroke="none" /><text fill="#e1ed5e" style="font-size:6.75px; font-family:Arial;" text-anchor="middle"><textPath startOffset="21.46611528233685" xlink:href="#id11">November</textPath></text><line stroke="#e1ed5e" stroke-width="0.3" x1="56.762969772571076" x2="54.21961505331055" y1="26.818313649435495" y2="22.513508569990535" /><path d="M 56.25429882871897 25.957352633546506 a86.0,86.0 0 0,1 42.265352541879196,-11.944610805530505" fill="none" id="id12" stroke="none" /><text fill="#e1ed5e" style="font-size:6.75px; font-family:Arial;" text-anchor="middle"><textPath startOffset="22.20632615414155" xlink:href="#id12">December</textPath></text></svg>